<svg xmlns="http://www.w3.org/2000/svg" xmlns:xlink="http://www.w3.org/1999/xlink" width="400.062" height="458.739" viewBox="0 0 400.062 458.739">
  <defs>
    <linearGradient id="linear-gradient" x1="0.456" y1="0.432" x2="0.655" y2="0.802" gradientUnits="objectBoundingBox">
      <stop offset="0" stop-color="#5a2d68"/>
      <stop offset="1" stop-color="#22043d"/>
    </linearGradient>
    <linearGradient id="linear-gradient-2" x1="0.534" y1="0.886" x2="0.488" y2="0.32" gradientUnits="objectBoundingBox">
      <stop offset="0" stop-color="#ff8a78"/>
      <stop offset="1" stop-color="#ffa799"/>
    </linearGradient>
    <linearGradient id="linear-gradient-3" x1="0.787" y1="0.187" x2="-0.068" y2="0.765" gradientUnits="objectBoundingBox">
      <stop offset="0" stop-color="#3e4795"/>
      <stop offset="1" stop-color="#273088"/>
    </linearGradient>
    <linearGradient id="linear-gradient-4" x1="1.078" y1="0.231" x2="-0.225" y2="0.707" xlink:href="#linear-gradient-3"/>
    <linearGradient id="linear-gradient-5" x1="0.497" y1="0.535" x2="0.528" y2="0.471" xlink:href="#linear-gradient-2"/>
    <linearGradient id="linear-gradient-6" x1="0.478" y1="0.533" x2="0.406" y2="0.852" xlink:href="#linear-gradient-2"/>
    <linearGradient id="linear-gradient-7" x1="0.912" y1="0.373" x2="0.409" y2="0.782" gradientUnits="objectBoundingBox">
      <stop offset="0" stop-color="#ffb89e"/>
      <stop offset="1" stop-color="#ffa799"/>
    </linearGradient>
    <linearGradient id="linear-gradient-8" x1="0.394" y1="0.069" x2="0.563" y2="0.755" gradientUnits="objectBoundingBox">
      <stop offset="0" stop-color="#fd70cb"/>
      <stop offset="1" stop-color="#6e4dfd"/>
    </linearGradient>
    <linearGradient id="linear-gradient-9" x1="0.401" y1="0.086" x2="0.569" y2="0.763" xlink:href="#linear-gradient-8"/>
    <linearGradient id="linear-gradient-10" x1="0.232" y1="-0.119" x2="0.537" y2="0.687" xlink:href="#linear-gradient-8"/>
    <linearGradient id="linear-gradient-11" x1="0.351" y1="0.655" x2="0.813" y2="0.174" gradientUnits="objectBoundingBox">
      <stop offset="0" stop-color="#965cf2"/>
      <stop offset="1" stop-color="#ff8adc"/>
    </linearGradient>
    <linearGradient id="linear-gradient-12" x1="0.404" y1="0.686" x2="0.697" y2="0.121" xlink:href="#linear-gradient-11"/>
    <linearGradient id="linear-gradient-13" x1="0.247" y1="-0.198" x2="0.549" y2="0.6" xlink:href="#linear-gradient-8"/>
    <linearGradient id="linear-gradient-14" x1="0.222" y1="-0.186" x2="0.526" y2="0.619" xlink:href="#linear-gradient-8"/>
    <linearGradient id="linear-gradient-15" x1="0.43" y1="0.634" x2="0.582" y2="0.397" gradientUnits="objectBoundingBox">
      <stop offset="0" stop-color="#1c8ef4"/>
      <stop offset="1" stop-color="#00cfdd"/>
    </linearGradient>
    <linearGradient id="linear-gradient-16" x1="0.296" y1="0.221" x2="0.747" y2="0.779" xlink:href="#linear-gradient-3"/>
    <linearGradient id="linear-gradient-17" x1="0.149" y1="0.22" x2="1.056" y2="0.742" xlink:href="#linear-gradient-3"/>
    <linearGradient id="linear-gradient-18" x1="0.32" y1="0.284" x2="0.633" y2="0.643" xlink:href="#linear-gradient-2"/>
    <linearGradient id="linear-gradient-19" x1="0.389" y1="0.316" x2="0.563" y2="0.791" xlink:href="#linear-gradient-7"/>
    <linearGradient id="linear-gradient-20" x1="0.012" y1="0.187" x2="0.669" y2="0.82" gradientUnits="objectBoundingBox">
      <stop offset="0" stop-color="#8a4791"/>
      <stop offset="1" stop-color="#562e65"/>
    </linearGradient>
  </defs>
  <g id="Grupo_86483" data-name="Grupo 86483" transform="translate(0 -13.264)">
    <g id="Grupo_68271" data-name="Grupo 68271" transform="translate(0 171.526)">
      <g id="Grupo_68260" data-name="Grupo 68260" transform="translate(4.059)">
        <path id="Trazado_150915" data-name="Trazado 150915" d="M-2113.642,3786.879c3.444-.532,6.164,1.835,7.543,5a18.68,18.68,0,0,1,.844,11c-2.245,8.167,1.708,11.726,3.162,15.531a16.624,16.624,0,0,1,.84,6.3c-.1,2.925-1.785,4.43-3.2,7.051a23.07,23.07,0,0,1-2.059,7.241c-3.873,7.749-16.9,11.488-29.414,10.918-10.009-.459-19.686-4-24.067-8.074-4.808-4.468-5.43-15.812,2.647-16.967,1.881-.269,4.07-.678,5.678-2.623,1.1-1.34.035-4.866-.229-9.565-.259-4.547.781-9.333,7.393-10.929,2.531-.611,5-.862,7.112-2.25,4.618-3.03,2.928-8.659,7.935-11.973,3.024-2,7.89-2.438,13.206-.961C-2115.392,3786.672-2114.522,3786.781-2113.642,3786.879Z" transform="translate(2163.529 -3785.697)" fill-rule="evenodd" fill="url(#linear-gradient)"/>
        <path id="Trazado_150916" data-name="Trazado 150916" d="M-2104.737,3793.117a8.36,8.36,0,0,1-1.847,6.015c-3.079,4.344-4.694,4-6.378,9.537-2.768-1.85-4.67-2.131-5.469-.316-1.282,2.918-.475,4.644-.772,7.663-.485,4.906-6.352-1.819-10.95,1.942-4.521,3.7-1.42,6.292-3.165,11.525-.653,1.96-1.162,4.537-2.99,5.4-5.687,2.7-7.865,9.474,2.259,12.839,6.273,2.085,15.38,1.563,22.99-1.032,10.049-3.426,16.246-18.246,13.681-25.291-1.061-2.912-3.928-5.087-3.941-7.365C-2101.369,3806.212-2099.86,3801.193-2104.737,3793.117Z" transform="translate(2157.612 -3787.655)" fill="#22043d" fill-rule="evenodd"/>
      </g>
      <g id="Grupo_68262" data-name="Grupo 68262" transform="translate(54.322 28.965)">
        <g id="Grupo_68261" data-name="Grupo 68261" transform="translate(14.952 14.409)">
          <path id="Trazado_150917" data-name="Trazado 150917" d="M-2030.487,3845.117c.917,1.326-.807,2.247-1.581,2.288-1.235.161-3-.469-3.434.356-.491.927-6.273-.984-6.212-1.041a10.491,10.491,0,0,1,4.94-2.1C-2033.073,3844.866-2034.153,3845.7-2030.487,3845.117Z" transform="translate(2066.167 -3844.621)" fill-rule="evenodd" fill="url(#linear-gradient-2)"/>
          <path id="Trazado_150918" data-name="Trazado 150918" d="M-2049.656,3852.543c-5.308,1.5-12.555,6.682-17.605,7.823-1.594.358-4.085,1.057-5.338-.3-6.492-7.015,2.534-4.709,3.295-7.36,4.617-3.435,11.845-1.813,17.76-5a11.112,11.112,0,0,1,1.153-.678c2.319-1.156,3.615-1.06,7.642.963a4.688,4.688,0,0,0,2.8.481l4.05-.519c1.242-.046,2.034.25,2.227.657a7.257,7.257,0,0,1-.954,4.018l0,.006c-.154.472-1.072.831-2.516.851l-5.92,1.813-.278-.156C-2046.867,3853.145-2048.373,3852.48-2049.656,3852.543Z" transform="translate(2074.933 -3845.061)" fill="#ffa698" fill-rule="evenodd"/>
        </g>
        <path id="Trazado_150919" data-name="Trazado 150919" d="M-2080.233,3855.084c-4.782-4.462-11.568-10.944-14-16.068-1.578-3.33-1.871-12.678,3.218-13.858,1.7-1.075,4.291,5.888,6.035,8.7a123.638,123.638,0,0,0,9.186,12.806c3.931-2.551,9.351-2.8,14.456-4.068a5.014,5.014,0,0,1,2.349-.067,7.992,7.992,0,0,0,1.776-.62c.579.158,2.495,3.468,2.165,5.419-.407.112-1.307.392-1.732.541-.6.214-.942.791-1.54,1.114-2.031,1.093-11.156,5.63-15.7,6.657-1.73.393-4.515,1.291-5.876-.181C-2080.011,3855.329-2080.124,3855.206-2080.233,3855.084Z" transform="translate(2095.246 -3825.046)" fill="#d07efc" fill-rule="evenodd"/>
        <path id="Trazado_150920" data-name="Trazado 150920" d="M-2080.233,3855.409c-4.782-4.461-11.569-10.944-14-16.069-1.364-2.876-1.767-10.244,1.428-12.958,1.665-.173,2.622-.215,3.418.451,1,.831,1.393,2.892,2.837,5.942,2.181,4.614,5.5,7.305,5.761,12.733.2,4,2.023,8.729,5.005,10.864-1.5.307-3.159.445-4.115-.589C-2080.011,3855.655-2080.125,3855.531-2080.233,3855.409Z" transform="translate(2095.246 -3825.369)" fill="#7e41df" fill-rule="evenodd" opacity="0.5"/>
      </g>
      <path id="Trazado_150921" data-name="Trazado 150921" d="M-2091.68,4048.285l-41.018-23.362c-4.471-2.042-10.873-3.667-15.429-1.3-4.148,2.159-10.989,6.582-14.011,8.306-2.3,1.311-10.27,6.086-5.3,8.787,14.607,7.942,29.062,16.877,43.9,24.944,2.8,1.525,6.91,2.08,11.216,1.72a29.686,29.686,0,0,0,12.148-3.619q3.7-2.149,7.276-4.232c3.216-1.875,4.922-4.088,5.092-6.137C-2087.65,4051.391-2088.937,4049.539-2091.68,4048.285Z" transform="translate(2169.042 -3848.174)" fill="#bceaff" fill-rule="evenodd" opacity="0.5"/>
      <g id="Grupo_68267" data-name="Grupo 68267" transform="translate(29.485 75.843)">
        <g id="Grupo_68264" data-name="Grupo 68264" transform="translate(1.123)">
          <g id="Grupo_68263" data-name="Grupo 68263" transform="translate(0 90.863)">
            <path id="Trazado_150922" data-name="Trazado 150922" d="M-2124.128,4012.166a4.546,4.546,0,0,1-.507,2.536c-2.379,3.455.453,3.162.329,8.089-.011.455,2,8.239,2,8.239s4.743,1.15,5.1,1.086,3.235-1.174,3.235-1.174c-.243-.423-.566-1.449-.764-1.836a31.287,31.287,0,0,1-2.615-9.13c-.349-2.142-1-5.47-.562-7.72Z" transform="translate(2126.967 -4012.166)" fill="#ffa698" fill-rule="evenodd"/>
            <path id="Trazado_150923" data-name="Trazado 150923" d="M-2114.314,4031.688a21.142,21.142,0,0,1,1.333,3.139,1.487,1.487,0,0,1-.062,1.271c-1.086,1.563-6.865-1.023-8.828-2.642-1.268-1.046-1.334-2.331-1.676-3.893-.516-2.34-.6-2.6-1.245-5.007l-.418,6.6-.53.346a73.717,73.717,0,0,0-1.1-8.481c-.2-.91-.513-1.939-.57-2.443a5.219,5.219,0,0,1,2.415-5.368c-.435,1.829,1.183,4.73,1.905,8.416C-2122.218,4028.088-2118.274,4031.717-2114.314,4031.688Z" transform="translate(2127.461 -4012.967)" fill="#161f69" fill-rule="evenodd"/>
          </g>
          <path id="Trazado_150924" data-name="Trazado 150924" d="M-2092.439,3888.729c-.449,2.025,1.62,9.022,1.09,11.71-.5,8.855-2.057,16.349-8.025,34.059,0,.2-5.453,11.031-5.817,12.165-3.715,11.554-8.346,24.1-12.283,35.77-1.458,1.127-5.871.775-6.438-1.968,1.217-11.66-.109-23.158,1.89-31.133,1.524-6.082,3.52-8.852,6.787-13.359,1-11.458,1.728-34.444,4.335-43.254Z" transform="translate(2126.524 -3888.729)" fill-rule="evenodd" fill="url(#linear-gradient-3)"/>
          <path id="Trazado_150925" data-name="Trazado 150925" d="M-2092.439,3888.729c-.449,2.025-1.786,5.777-2.313,8.467-1.664,4.076-5.17,9.657-7.536,14.344-.709,5.685-.51,13.237-4.059,23.77l-3.213,24.348c-2.642,7.625-5.418,15.373-7.914,22.776-1.458,1.127-5.871.775-6.438-1.968,1.217-11.66-.109-23.158,1.89-31.133,1.524-6.082,3.52-8.852,6.787-13.359,1-11.458,1.728-34.444,4.335-43.254Z" transform="translate(2126.524 -3888.729)" fill="#1e2353" fill-rule="evenodd" opacity="0.3" style="mix-blend-mode: multiply;isolation: isolate"/>
        </g>
        <g id="Grupo_68266" data-name="Grupo 68266" transform="translate(0 5.181)">
          <g id="Grupo_68265" data-name="Grupo 68265" transform="translate(7.078 96.936)">
            <path id="Trazado_150926" data-name="Trazado 150926" d="M-2117.571,4028.014a15.111,15.111,0,0,1-.51,3.238,37.85,37.85,0,0,0-.353,5.733,51.038,51.038,0,0,0,1.276,10.3c.33,1.434.969,2.049,1.4,4.012l8.453,1.38c-.832-3.2-1.979-9.674-2.842-15.1l-1.615-10.131Z" transform="translate(2119.127 -4027.455)" fill="#ffa698" fill-rule="evenodd"/>
            <path id="Trazado_150927" data-name="Trazado 150927" d="M-2118.248,4031.848a15.632,15.632,0,0,0-1.121,4.918c-.073,2.315,1,5.931.906,8.8l-.142,4.548c-.084,2.648.589,4.488,3.6,6.677,2.729,1.985,5.385,2.8,6.831,2.095,1.063-.522,1.914-2.4.282-7.344-1.359-4.12-1.708-8.146-2.507-12.616a44.98,44.98,0,0,0,1.446,10.164c.3,1.2.473,3.214-.956,3.42-5.906.842-6.2-.745-6.689-2.567C-2117.9,4045.073-2118.852,4036.415-2118.248,4031.848Z" transform="translate(2119.373 -4028.614)" fill="#161f69" fill-rule="evenodd"/>
          </g>
          <path id="Trazado_150928" data-name="Trazado 150928" d="M-2122.961,3897.581c-6.561,8.216-6.726,12.769-5.305,22.64.951,6.6,2.889,14.608,3.373,26.208-.569,5.984-1.64,12.684-.824,21.976.6,6.839,2.523,18.573,3.972,26.866,1.364,2.564,7.811,1.447,8.863.125-.3-11.884-.116-20.033.452-29.634.552-9.335,1.664-18,2.366-27.208.578-7.62,2.891-17.985,3.2-26.217,1.229-3.879,12.85-16.734,10.428-16.567Z" transform="translate(2128.987 -3895.769)" fill-rule="evenodd" fill="url(#linear-gradient-4)"/>
        </g>
      </g>
      <g id="Grupo_68268" data-name="Grupo 68268" transform="translate(31.047 28.663)">
        <path id="Trazado_150929" data-name="Trazado 150929" d="M-2121.6,3860.328c2.947,6.819-2.063,10.595-.258,15.289l-.558,3.18c5.377,3.863,24.611,4.15,29.432-3.5l.1-3.818c.829-1.828.283-6.449.039-7.666-.773-3.875-.412-5.934-.836-10.415-.107-1.133-.319-1.845-.423-2.992,4.282-3.2,4.013-9.4,1.473-13.1a32.65,32.65,0,0,1-3.33-5.882,26.589,26.589,0,0,0-.741-3.369,5.592,5.592,0,0,0-.9-1.84c-1.222-1.748-3.2-1.954-7.237-1.029-8,1.837-16.239,5.99-19.914,9.906-2.676,2.849-2.569,6.01-1.036,12.841A73.245,73.245,0,0,0-2121.6,3860.328Z" transform="translate(2126.865 -3824.637)" fill="#d07efc" fill-rule="evenodd"/>
        <path id="Trazado_150930" data-name="Trazado 150930" d="M-2121.246,3865.569c2.948,6.819-1.941,10.714-.137,15.41l-.558,3.139c5.377,4.186,24.611,3.99,29.433-3.666l-.1-3.332c0-.131-9.442,8.376-20.192,3.645-2.335-1.027-4.449-6.136-1.426-15.9.289-.927,3.714-.99,8.566-4.563-3.582,1.518-10.336,3.6-10.67-5.515-.149-4.076-.748-7.139-2.834-9.972-1.011-1.372-6.94,5.833-6.037,9.287A86.418,86.418,0,0,0-2121.246,3865.569Z" transform="translate(2126.452 -3829.917)" fill="#7e41df" fill-rule="evenodd" opacity="0.5"/>
      </g>
      <g id="Grupo_68269" data-name="Grupo 68269" transform="translate(14.08 38.133)">
        <path id="Trazado_150931" data-name="Trazado 150931" d="M-2124.738,3893.593c.979.592,2.762,1.167,3.479,1.6.369.224,3.029,1.878,4.524,2.881,1.6,1.075,2.051,2.627,3.007,4.351a10.838,10.838,0,0,1,1.075,3.123c.1.727-1.744,2.124-2.529,1.95-1.781-.4-3.6-2.582-4.069-2.823-3.99-2.069-5.9-2.276-7.343-3.921-.615-.7-.994-2.759-2.263-4.608l2.447-2.214Z" transform="translate(2144.358 -3852.303)" fill-rule="evenodd" fill="url(#linear-gradient-5)"/>
        <path id="Trazado_150932" data-name="Trazado 150932" d="M-2130.779,3837.976c-5.928,3.734-12.477,14.033-18.345,23.2a4.255,4.255,0,0,0-.248,4.552,11.205,11.205,0,0,0,1.152,2.075,56.963,56.963,0,0,0,11.475,12.826,4.485,4.485,0,0,0,1.736.718c.375.312.9.868,1.3,1.194-.493-.64,2.472-3.835,3.817-3.622-.345-.429-.7-.892-1.058-1.384a4.037,4.037,0,0,0-.238-1.515,45.581,45.581,0,0,0-7.491-12.23c5.347-5.781,8.408-7.183,13.389-13.251C-2119.242,3843.166-2126.85,3835.5-2130.779,3837.976Z" transform="translate(2149.915 -3837.502)" fill="#d07efc" fill-rule="evenodd"/>
      </g>
      <g id="Grupo_68270" data-name="Grupo 68270" transform="translate(44.254 8.619)">
        <path id="Trazado_150933" data-name="Trazado 150933" d="M-2107.419,3817.656a20.985,20.985,0,0,1-.8,10.278c2.883,2.669,8.013,1.536,9.2-.885-.252-1.564-.545-3-.715-4.609Z" transform="translate(2108.738 -3802.75)" fill="#ffa698" fill-rule="evenodd"/>
        <path id="Trazado_150934" data-name="Trazado 150934" d="M-2107.133,3817.656a20.021,20.021,0,0,1,.258,4.975c.847,3.419,7.244,5.725,7.909,3.007-.181-1.05-.358-2.083-.477-3.2Z" transform="translate(2108.451 -3802.75)" fill-rule="evenodd" fill="url(#linear-gradient-6)"/>
        <path id="Trazado_150935" data-name="Trazado 150935" d="M-2095.693,3797.407a11.423,11.423,0,0,1,1.872,7.825,3.36,3.36,0,0,0,.269,1.868c1.344,3.036,1.223,3.977.557,6.408-.647,2.366-.6,3.6-1.409,4.414a4.717,4.717,0,0,1-3.118,1.092c-2.153.136-5.847-1.283-8-2.46-1.592-.869-1.531-1.465-2.2-2.973-2.248-1.957-.793-3.384-.039-3.53,2.16-.419,2.51,2.068,3.789,2.62C-2104.183,3808.3-2095.852,3800.918-2095.693,3797.407Z" transform="translate(2108.924 -3797.407)" fill="#ffa698" fill-rule="evenodd"/>
        <path id="Trazado_150936" data-name="Trazado 150936" d="M-2092.064,3799.786a11.237,11.237,0,0,1,.916,6.075,3.356,3.356,0,0,0,.268,1.866c1.344,3.037,1.225,3.977.559,6.41-.292,1.06-.443,1.891-.594,2.564a2.019,2.019,0,0,1-2.513.726,3.881,3.881,0,0,1-2-3.235c-.157-1.257-2.735-2.085-3.268-3.366-.44-1.061.749-2.245,1.47-2.854A17.976,17.976,0,0,0-2092.064,3799.786Z" transform="translate(2106.251 -3798.036)" fill-rule="evenodd" fill="url(#linear-gradient-7)"/>
        <path id="Trazado_150937" data-name="Trazado 150937" d="M-2093.916,3797.407c-1.21,5.368-8.221,9.432-8.281,15.264C-2100.278,3806.612-2093.477,3802.463-2093.916,3797.407Z" transform="translate(2107.148 -3797.407)" fill="#ff8f7f" fill-rule="evenodd"/>
      </g>
    </g>
    <g id="Grupo_68291" data-name="Grupo 68291" transform="translate(79.447 13.264)">
      <path id="Trazado_150938" data-name="Trazado 150938" d="M-1879.765,4080.487l-127.021-70.76c-3.987-1.823-9.847-3.541-13.756-1.158l-10.007,6.1c-2.012,1.226-8.632,5.3-4.2,7.7,13.026,7.084,115.837,65.108,129.064,72.3,2.5,1.36,6.161,1.851,10,1.534a25.16,25.16,0,0,0,10.834-3.229l4-2.464c2.825-1.743,4.39-3.646,4.541-5.472C-1876.17,4083.258-1877.316,4081.6-1879.765,4080.487Z" transform="translate(2054.553 -3685.941)" fill="#4ed7de" fill-rule="evenodd" opacity="0.5"/>
      <g id="Grupo_68290" data-name="Grupo 68290">
        <g id="Grupo_68272" data-name="Grupo 68272" transform="translate(21.265 6.326)">
          <path id="Trazado_150939" data-name="Trazado 150939" d="M-1949.87,3580.658a9,9,0,0,0-7.658-.856l-7.953,3.108c1.329-.518,141.152,81.847,140.1,89.027l-48.954,303.973,7.952-3.1c3.369-1.328,5.136-4.834,5.63-8.244l43.324-295.731a.207.207,0,0,0,.005-.034,21.124,21.124,0,0,0-3.524-14.306,16.66,16.66,0,0,0-5.786-5.579Z" transform="translate(2014.613 -3579.295)" fill="#273087" fill-rule="evenodd"/>
          <path id="Trazado_150940" data-name="Trazado 150940" d="M-1852.3,3653.13l-123.131-68.255c-6.244-3.46-12.189-.138-13.291,7.393L-2032.049,3888c-1.1,7.533,3.047,16.452,9.29,19.912l123.134,68.253c6.244,3.46,12.2.146,13.306-7.385l43.324-295.734C-1841.89,3665.518-1846.058,3656.589-1852.3,3653.13Z" transform="translate(2032.226 -3580.407)" fill="#d07efc" fill-rule="evenodd"/>
        </g>
        <g id="Grupo_68274" data-name="Grupo 68274" transform="translate(14.472 240.697)">
          <path id="Trazado_150941" data-name="Trazado 150941" d="M-1899.2,3974.915l-114.617-63.531a8.3,8.3,0,0,0-7.125-.8c-2.672,1.04-4.67,3.742-5.247,7.68l-7.607,53.587c-1.027,7.009,2.839,15.313,8.648,18.533l114.617,63.531c5.814,3.221,11.36.136,12.388-6.873l7.6-53.587C-1889.507,3986.445-1893.386,3978.138-1899.2,3974.915Z" transform="translate(2039.476 -3900.963)" fill-rule="evenodd" opacity="0.5" fill="url(#linear-gradient-8)" style="mix-blend-mode: multiply;isolation: isolate"/>
          <g id="Grupo_68273" data-name="Grupo 68273">
            <path id="Trazado_150942" data-name="Trazado 150942" d="M-1898.348,3983.919l-9.352,59.351,1.047.127,2.86-1.109c3.135-1.236,4.781-4.5,5.24-7.674l7.606-53.584a.162.162,0,0,0,.005-.032,19.661,19.661,0,0,0-3.281-13.315,15.5,15.5,0,0,0-5.387-5.2l-114.619-63.534a8.389,8.389,0,0,0-7.128-.8l-2.521.986c-1.269.477-1.662.858-1.654.938C-2024.341,3911.17-1896.679,3972.541-1898.348,3983.919Z" transform="translate(2037.253 -3897.686)" fill="#273087" fill-rule="evenodd"/>
            <path id="Trazado_150943" data-name="Trazado 150943" d="M-1906.694,3964.025l-114.617-63.532a8.3,8.3,0,0,0-7.126-.8c-2.671,1.041-4.669,3.742-5.247,7.681l-7.606,53.587c-1.028,7.009,2.837,15.311,8.648,18.532l114.618,63.533c5.811,3.22,11.358.136,12.385-6.876l7.607-53.585C-1897,3975.555-1900.884,3967.247-1906.694,3964.025Z" transform="translate(2041.455 -3898.089)" fill="#b2fbff" fill-rule="evenodd"/>
            <path id="Trazado_150944" data-name="Trazado 150944" d="M-2029.857,3949.057a4.626,4.626,0,0,0,2.067,4.429l117.647,65.262c1.391.769,2.715.031,2.961-1.644,1.911-11.575,3.323-23.4,4.97-35.036a4.621,4.621,0,0,0-2.07-4.43l-117.645-65.263a1.994,1.994,0,0,0-1.705-.191,2.185,2.185,0,0,0-1.253,1.837Z" transform="translate(2038.404 -3901.48)" fill="#18b6fe" fill-rule="evenodd"/>
            <path id="Trazado_150945" data-name="Trazado 150945" d="M-1910.245,4046.906l-117.645-65.265a2,2,0,0,0-1.7-.19,2.182,2.182,0,0,0-1.253,1.837l-.437,2.642a4.621,4.621,0,0,0,2.068,4.428l117.645,65.264c1.39.768,2.715.031,2.961-1.644l.437-2.642A4.623,4.623,0,0,0-1910.245,4046.906Z" transform="translate(2038.782 -3919.759)" fill="#18b6fe" fill-rule="evenodd"/>
          </g>
        </g>
        <g id="Grupo_68276" data-name="Grupo 68276" transform="translate(145.757 70.955)">
          <path id="Trazado_150946" data-name="Trazado 150946" d="M-1801.323,3692.07l-42.66-23.57a9.151,9.151,0,0,0-7.858-.882c-2.948,1.147-5.153,4.129-5.788,8.472l-5.295,37.818c-1.132,7.734,3.13,16.892,9.538,20.445l42.663,23.573a11.55,11.55,0,0,0,2.964,1.165l7.824-2.276,7.662-52.073C-1793.654,3699.408-1797,3694.465-1801.323,3692.07Z" transform="translate(1863.106 -3667.092)" fill-rule="evenodd" opacity="0.5" fill="url(#linear-gradient-9)" style="mix-blend-mode: multiply;isolation: isolate"/>
          <g id="Grupo_68275" data-name="Grupo 68275" transform="translate(3.126 0.276)">
            <path id="Trazado_150947" data-name="Trazado 150947" d="M-1790.022,3714.279l-6.725,41.478,1.048.127,2.86-1.111c3.135-1.236,4.78-4.5,5.24-7.673l4.977-35.71a.144.144,0,0,0,.005-.032,19.646,19.646,0,0,0-3.281-13.315,15.481,15.481,0,0,0-5.386-5.2l-43.918-24.11a8.385,8.385,0,0,0-7.128-.8l-2.522.987c-1.269.476-1.661.856-1.654.935C-1845.314,3680.954-1788.353,3702.9-1790.022,3714.279Z" transform="translate(1855.599 -3667.468)" fill="#273087" fill-rule="evenodd"/>
            <path id="Trazado_150948" data-name="Trazado 150948" d="M-1797.428,3694.384l-43.915-24.109a8.3,8.3,0,0,0-7.125-.8c-2.672,1.041-4.671,3.742-5.248,7.68l-4.977,35.712c-1.027,7.01,2.837,15.313,8.646,18.534l43.919,24.109c5.813,3.221,11.358.137,12.385-6.872l4.977-35.715C-1787.738,3705.916-1791.618,3697.605-1797.428,3694.384Z" transform="translate(1858.859 -3667.873)" fill="#fff" fill-rule="evenodd"/>
            <path id="Trazado_150949" data-name="Trazado 150949" d="M-1814.473,3705.061a3.5,3.5,0,0,1,.362,2.043,13.438,13.438,0,0,1-.8,2.615l-9.359,25.989c-.3.868-.579,1.529-.778,2.006a1.6,1.6,0,0,1-.846.907,1.513,1.513,0,0,1-1.35-.313,3.521,3.521,0,0,1-1.848-3.583,18.229,18.229,0,0,1,.774-2.71l9.332-26a9.442,9.442,0,0,1,1.256-2.686c.341-.424.928-.371,1.718.118a3.932,3.932,0,0,1,1.537,1.618Zm2.5,6.751-.858,7.227,13.827,16.038-15.5-1.962-.861,7.258,22.3,1.745.729-6.154-19.641-24.152Zm-38.979-5.513,19.646,24.177.862-7.26-13.76-16.138,15.427,2.094.869-7.32-22.306-1.781Z" transform="translate(1856.773 -3676.072)" fill="#856de9" fill-rule="evenodd"/>
          </g>
        </g>
        <g id="Grupo_68278" data-name="Grupo 68278" transform="translate(5.217 105.513)">
          <path id="Trazado_150950" data-name="Trazado 150950" d="M-1974.492,3748.784l-22.53-12.37-9.757,66.6,22.789,12.509c6.348,3.514,12.4.148,13.521-7.5l5.435-38.993C-1963.913,3761.375-1968.147,3752.3-1974.492,3748.784Z" transform="translate(2041.56 -3719.943)" fill-rule="evenodd" opacity="0.5" fill="url(#linear-gradient-10)" style="mix-blend-mode: multiply;isolation: isolate"/>
          <g id="Grupo_68277" data-name="Grupo 68277">
            <path id="Trazado_150951" data-name="Trazado 150951" d="M-1985.191,3760.847l-6.724,41.478,1.048.128,2.86-1.11c3.135-1.236,4.781-4.5,5.24-7.674l4.978-35.712a.171.171,0,0,0,.005-.032,19.661,19.661,0,0,0-3.281-13.315,15.5,15.5,0,0,0-5.386-5.194l-43.918-24.109a8.38,8.38,0,0,0-7.129-.8l-2.521.987c-1.269.475-1.661.856-1.654.936C-2040.483,3727.523-1983.522,3749.469-1985.191,3760.847Z" transform="translate(2050.767 -3714.038)" fill="#273087" fill-rule="evenodd"/>
            <path id="Trazado_150952" data-name="Trazado 150952" d="M-1992.6,3740.955l-43.915-24.109a8.3,8.3,0,0,0-7.125-.8c-2.671,1.039-4.669,3.742-5.245,7.68l-4.978,35.716c-1.027,7.009,2.837,15.31,8.647,18.531l43.917,24.111c5.812,3.219,11.359.134,12.386-6.872l4.976-35.718C-1982.908,3752.485-1986.787,3744.174-1992.6,3740.955Z" transform="translate(2054.027 -3714.443)" fill="#18b6fe" fill-rule="evenodd"/>
            <path id="Trazado_150953" data-name="Trazado 150953" d="M-2008.22,3763.892l-1.029,6.9,3.11,1.728a31.8,31.8,0,0,0,3.491,1.787,2.156,2.156,0,0,0,2.055.024,2.558,2.558,0,0,0,1.049-1.934,5.068,5.068,0,0,0-.253-2.6,4.247,4.247,0,0,0-1.623-2.026c-.465-.306-1.814-1.107-4.072-2.361l-2.73-1.517Zm-24.422.595,6.457,3.589-1.661-12.9-4.8,9.311Zm3.349-17.724,5.061,2.813,4.987,35.195-5.125-2.845-1.046-7.971-9.457-5.257-2.954,5.749-5.063-2.814,13.6-24.869Zm27.735,40.889a3.332,3.332,0,0,0,1.035-2.208,5.551,5.551,0,0,0-.166-2.555,5.79,5.79,0,0,0-1.263-2.2,19.193,19.193,0,0,0-4.182-2.815l-3.852-2.14-1.2,8.064,4.432,2.462a18.053,18.053,0,0,0,3.3,1.613,1.921,1.921,0,0,0,1.891-.223Zm5.441-4.312a11.1,11.1,0,0,1,.453,5.127,8.313,8.313,0,0,1-1.337,3.587,4.466,4.466,0,0,1-2.48,1.935,4.909,4.909,0,0,1-3.437-.348c-.793-.336-2.708-1.3-5.744-2.99l-8.051-4.472,4.459-29.947,9.447,5.248a32.691,32.691,0,0,1,4.117,2.611,9.924,9.924,0,0,1,2.309,2.623,13.1,13.1,0,0,1,1.414,3.521,9.314,9.314,0,0,1,.228,3.865,6.161,6.161,0,0,1-1.477,3.359,3.566,3.566,0,0,1-2.8,1.281A11.65,11.65,0,0,1-1996.118,3783.34Z" transform="translate(2051.088 -3722.675)" fill="#fff" fill-rule="evenodd"/>
          </g>
        </g>
        <g id="Grupo_68281" data-name="Grupo 68281" transform="translate(143.377 145.441)">
          <path id="Trazado_150954" data-name="Trazado 150954" d="M-1852.923,3806.726c-7.789-6.211-12.444-19.109-10.4-28.818s10.006-12.548,17.794-6.338,12.444,19.113,10.4,28.82S-1845.14,3812.93-1852.923,3806.726Z" transform="translate(1865.671 -3768.28)" fill-rule="evenodd" opacity="0.5" fill="url(#linear-gradient-11)" style="mix-blend-mode: multiply;isolation: isolate"/>
          <g id="Grupo_68280" data-name="Grupo 68280" transform="translate(0 0.234)">
            <path id="Trazado_150955" data-name="Trazado 150955" d="M-1861.251,3771.037c1.415-1.475,4.97-2.321,6.962-2.427,2.323-.124,4.916.819,7.486,2.938,6.749,5.561,10.787,17.126,9.019,25.822a12.451,12.451,0,0,1-2.795,6.07c-1.237,1.324-5.21,3-7.044,3.143C-1858.624,3808.114-1865.414,3775.378-1861.251,3771.037Z" transform="translate(1865.323 -3768.599)" fill="#273087" fill-rule="evenodd"/>
            <g id="Grupo_68279" data-name="Grupo 68279" transform="translate(0 0.678)">
              <path id="Trazado_150956" data-name="Trazado 150956" d="M-1856.9,3803.969c-6.752-5.564-10.789-17.122-9.018-25.822s8.673-11.243,15.424-5.678,10.787,17.124,9.019,25.822S-1850.157,3809.529-1856.9,3803.969Z" transform="translate(1866.339 -3769.521)" fill="#b2fbff" fill-rule="evenodd"/>
              <path id="Trazado_150957" data-name="Trazado 150957" d="M-1845.93,3787.473l1.836,1.316-13.281,12.741-4.989-13.12,2.449,1.4,3.266,4.645Z" transform="translate(1865.29 -3774.258)" fill="#fff" fill-rule="evenodd"/>
            </g>
          </g>
        </g>
        <g id="Grupo_68282" data-name="Grupo 68282" transform="translate(36.951 200.968)">
          <path id="Trazado_150958" data-name="Trazado 150958" d="M-1977.468,3854.415l-15-8.446a9.369,9.369,0,0,0-8.038-.9c-3.014,1.176-5.269,4.223-5.92,8.663l-1.984,13.978c-1.159,7.906,3.2,17.273,9.756,20.907l15,8.445c6.558,3.632,12.814.153,13.974-7.754l1.98-13.979C-1966.538,3867.423-1970.914,3858.048-1977.468,3854.415Z" transform="translate(2010.304 -3843.929)" fill-rule="evenodd" opacity="0.5" fill="url(#linear-gradient-12)" style="mix-blend-mode: multiply;isolation: isolate"/>
          <path id="Trazado_150959" data-name="Trazado 150959" d="M-1977.072,3873.9l-3.505,18.153,1.048.127,2.861-1.111c3.135-1.234,4.78-4.5,5.24-7.674l1.758-12.387a.2.2,0,0,0,0-.028,19.663,19.663,0,0,0-3.28-13.319,15.483,15.483,0,0,0-5.388-5.194l-13.3-7.483a8.378,8.378,0,0,0-7.128-.8l-2.521.986c-1.268.476-1.661.86-1.653.937C-2001.746,3857.2-1975.4,3862.521-1977.072,3873.9Z" transform="translate(2008.811 -3843.714)" fill="#273087" fill-rule="evenodd"/>
          <path id="Trazado_150960" data-name="Trazado 150960" d="M-1983.323,3854.006l-13.3-7.486a8.307,8.307,0,0,0-7.125-.8c-2.671,1.042-4.669,3.743-5.247,7.681l-1.759,12.388c-1.027,7.009,2.837,15.313,8.649,18.532l13.3,7.484c5.811,3.221,11.359.137,12.385-6.87l1.757-12.391C-1973.634,3865.537-1977.514,3857.226-1983.323,3854.006Z" transform="translate(2010.917 -3844.117)" fill="#7ff9ff" fill-rule="evenodd"/>
          <path id="Trazado_150961" data-name="Trazado 150961" d="M-1981.257,3869.9c-.256,1.754-1.631,2.549-3.082,1.745a4.843,4.843,0,0,1-2.173-4.66c.255-1.743,1.624-2.5,3.1-1.684a4.786,4.786,0,0,1,2.153,4.6Zm-7.969,15.6c.257-1.753,1.627-2.515,3.106-1.7a4.788,4.788,0,0,1,2.151,4.61c-.256,1.753-1.631,2.549-3.084,1.745a4.847,4.847,0,0,1-2.173-4.659Zm-9.07-15.012c-.255,1.746-1.651,2.493-3.1,1.689a4.807,4.807,0,0,1-2.153-4.6c.258-1.756,1.641-2.545,3.084-1.746a4.881,4.881,0,0,1,2.173,4.657Zm15.213-7.418c-2.47-1.37-4.842-.092-5.28,2.9v.221l-8.612,1.358a7.285,7.285,0,0,0-3.17-3.914c-2.471-1.37-4.807-.06-5.245,2.925a8.2,8.2,0,0,0,3.665,7.853,3.223,3.223,0,0,0,3.759-.107l6.946,10.015-.053.159a8.227,8.227,0,0,0,3.7,7.875c2.443,1.353,4.805.069,5.244-2.917a8.261,8.261,0,0,0-3.664-7.866,3.249,3.249,0,0,0-4.437.737l-6.579-9.587a3.93,3.93,0,0,0,.335-1.219,5.309,5.309,0,0,0,.051-1.42l8.189-1.4a7.942,7.942,0,0,0,3.571,5.171c2.443,1.354,4.807.06,5.244-2.927A8.2,8.2,0,0,0-1983.082,3863.067Z" transform="translate(2009.477 -3848.676)" fill="#fff" fill-rule="evenodd"/>
        </g>
        <g id="Grupo_68285" data-name="Grupo 68285" transform="translate(80.323 161.162)">
          <path id="Trazado_150962" data-name="Trazado 150962" d="M-1832.206,3846.147l-96.8-53.66a8.592,8.592,0,0,0-7.364-.826c-2.76,1.077-4.826,3.869-5.422,7.938l-10.032,71.125c-1.06,7.246,2.932,15.823,8.936,19.15l90.253,50.028,7.916-2.422Z" transform="translate(1951.997 -3790.042)" fill-rule="evenodd" opacity="0.5" fill="url(#linear-gradient-13)" style="mix-blend-mode: multiply;isolation: isolate"/>
          <g id="Grupo_68284" data-name="Grupo 68284" transform="translate(4.858)">
            <path id="Trazado_150963" data-name="Trazado 150963" d="M-1799.434,3875.872l-11.456,74.6,1.049.127,2.859-1.112c3.136-1.235,4.782-4.5,5.242-7.671l9.709-68.831a.259.259,0,0,0,0-.031,19.658,19.658,0,0,0-3.28-13.315,15.478,15.478,0,0,0-5.387-5.194l-114.618-63.534a8.378,8.378,0,0,0-7.13-.8l-2.52.984c-1.269.476-1.661.858-1.654.937C-1925.426,3803.124-1797.764,3864.494-1799.434,3875.872Z" transform="translate(1940.44 -3789.639)" fill="#273087" fill-rule="evenodd"/>
            <path id="Trazado_150964" data-name="Trazado 150964" d="M-1808.535,3855.977l-114.616-63.532a8.318,8.318,0,0,0-7.126-.8c-2.671,1.042-4.669,3.743-5.246,7.682l-9.709,68.83c-1.026,7.011,2.838,15.311,8.648,18.531l114.618,63.534c5.811,3.219,11.358.136,12.386-6.873l9.708-68.833C-1798.845,3867.511-1802.724,3859.2-1808.535,3855.977Z" transform="translate(1945.397 -3790.042)" fill="#856de9" fill-rule="evenodd"/>
            <g id="Grupo_68283" data-name="Grupo 68283" transform="translate(5.355 42.523)">
              <path id="Trazado_150965" data-name="Trazado 150965" d="M-1810.618,3912.971l-117.645-65.261a1.984,1.984,0,0,0-1.7-.19,2.179,2.179,0,0,0-1.254,1.835l-.436,2.641a4.624,4.624,0,0,0,2.067,4.43l117.645,65.263c1.391.77,2.716.031,2.962-1.644l.435-2.642A4.626,4.626,0,0,0-1810.618,3912.971Z" transform="translate(1936.427 -3847.405)" fill="#f2f4ff" fill-rule="evenodd" opacity="0.5"/>
              <path id="Trazado_150966" data-name="Trazado 150966" d="M-1813.831,3934.931l-117.645-65.264a1.982,1.982,0,0,0-1.7-.189,2.177,2.177,0,0,0-1.255,1.833l-.436,2.644a4.626,4.626,0,0,0,2.068,4.431l117.645,65.26c1.389.771,2.716.032,2.96-1.643l.437-2.64A4.622,4.622,0,0,0-1813.831,3934.931Z" transform="translate(1937.275 -3853.2)" fill="#f2f4ff" fill-rule="evenodd" opacity="0.5"/>
              <path id="Trazado_150967" data-name="Trazado 150967" d="M-1872.5,3925.876l-62.189-34.25a1.984,1.984,0,0,0-1.7-.191,2.184,2.184,0,0,0-1.254,1.836l-.436,2.641a4.621,4.621,0,0,0,2.067,4.431l62.189,34.249c1.391.77,2.716.033,2.961-1.644l.437-2.642A4.622,4.622,0,0,0-1872.5,3925.876Z" transform="translate(1938.123 -3858.993)" fill="#f2f4ff" fill-rule="evenodd" opacity="0.5"/>
            </g>
            <path id="Trazado_150968" data-name="Trazado 150968" d="M-1848.138,3853.371c-2.113-1.17-4.127-.051-4.5,2.5a7.029,7.029,0,0,0,3.148,6.733c2.113,1.17,4.127.05,4.5-2.493a7.033,7.033,0,0,0-3.146-6.744Zm5.167,7.863c-.571,3.9-3.652,5.615-6.88,3.826s-5.382-6.4-4.81-10.306,3.65-5.617,6.88-3.828,5.382,6.4,4.809,10.308Zm4.949.457,2.1,1.168a20.791,20.791,0,0,1-.192,2.179,18,18,0,0,1-.426,2.035l-2.1-1.167a9.523,9.523,0,0,1-2.625,4.347l1.227,2.626a8.689,8.689,0,0,1-2.9,1.609l-1.22-2.615a8.1,8.1,0,0,1-4.763-.234l-.371,2.531a13.025,13.025,0,0,1-1.771-.815,15.134,15.134,0,0,1-1.723-1.121l.37-2.533a17.79,17.79,0,0,1-4.109-4.685l-1.745.974a25.511,25.511,0,0,1-2.033-4.347l1.755-.975a19.53,19.53,0,0,1-1.053-6.384l-2.1-1.166a20.457,20.457,0,0,1,.189-2.167,17.868,17.868,0,0,1,.429-2.048l2.1,1.169a9.491,9.491,0,0,1,2.624-4.347l-1.228-2.619a8.368,8.368,0,0,1,2.907-1.615l1.219,2.612a8.013,8.013,0,0,1,4.761.247l.373-2.543a13.079,13.079,0,0,1,1.767.822,15.469,15.469,0,0,1,1.727,1.113l-.373,2.544a17.6,17.6,0,0,1,4.112,4.671l1.745-.97a25.64,25.64,0,0,1,2.032,4.355l-1.754.966A19.492,19.492,0,0,1-1838.022,3861.691Z" transform="translate(1923.314 -3803.322)" fill="#f2f4ff" fill-rule="evenodd" opacity="0.5"/>
          </g>
        </g>
        <g id="Grupo_68289" data-name="Grupo 68289">
          <path id="Trazado_150969" data-name="Trazado 150969" d="M-1903.234,3646.314l-75.195-41.681L-1991,3687.454l75.433,41.813c5.995,3.323,11.715.142,12.776-7.089l8.488-56.741C-1893.239,3658.207-1897.24,3649.635-1903.234,3646.314Z" transform="translate(2042.612 -3579.656)" fill-rule="evenodd" opacity="0.5" fill="url(#linear-gradient-14)" style="mix-blend-mode: multiply;isolation: isolate"/>
          <g id="Grupo_68288" data-name="Grupo 68288">
            <path id="Trazado_150970" data-name="Trazado 150970" d="M-1918.545,3656.933l-8.957,55.936,1.048.127,2.86-1.113c3.136-1.233,4.782-4.5,5.241-7.671l7.213-50.167a.152.152,0,0,0,0-.031,19.668,19.668,0,0,0-3.28-13.317,15.492,15.492,0,0,0-5.387-5.195l-114.618-63.534a8.382,8.382,0,0,0-7.127-.794l-2.522.985c-1.268.477-1.661.858-1.653.937C-2044.535,3584.186-1916.874,3645.557-1918.545,3656.933Z" transform="translate(2057.055 -3570.701)" fill="#273087" fill-rule="evenodd"/>
            <path id="Trazado_150971" data-name="Trazado 150971" d="M-1926.749,3637.042l-114.617-63.534a8.3,8.3,0,0,0-7.124-.8c-2.671,1.04-4.671,3.742-5.248,7.681l-7.212,50.167c-1.026,7.01,2.839,15.314,8.648,18.534l114.618,63.532c5.812,3.219,11.359.136,12.386-6.872l7.212-50.174C-1917.058,3648.572-1920.938,3640.262-1926.749,3637.042Z" transform="translate(2061.115 -3571.105)" fill="#fff" fill-rule="evenodd"/>
            <g id="Grupo_68286" data-name="Grupo 68286" transform="translate(9.086 25.631)">
              <path id="Trazado_150972" data-name="Trazado 150972" d="M-2030.424,3607.817c-8.518-5.342-16.621-1.05-18.111,9.573s4.2,23.572,12.719,28.913,16.621,1.049,18.11-9.583S-2021.913,3613.155-2030.424,3607.817Z" transform="translate(2048.772 -3605.52)" fill="#18b6fe" fill-rule="evenodd"/>
              <path id="Trazado_150973" data-name="Trazado 150973" d="M-2035.451,3615.111l-2.623,19.229,16.4,1.357Z" transform="translate(2045.949 -3608.05)" fill="#fff" fill-rule="evenodd"/>
            </g>
            <g id="Grupo_68287" data-name="Grupo 68287" transform="translate(42.399 33.587)">
              <path id="Trazado_150974" data-name="Trazado 150974" d="M-1913.611,3683.356l-80.971-45.247a1.829,1.829,0,0,0-1.572-.176,2.017,2.017,0,0,0-1.157,1.7l-.4,2.438a4.268,4.268,0,0,0,1.908,4.088l80.971,45.246c1.282.708,2.505.029,2.733-1.518l.4-2.438A4.265,4.265,0,0,0-1913.611,3683.356Z" transform="translate(2001.995 -3622.002)" fill="#6d6afd" fill-rule="evenodd" opacity="0.5"/>
              <path id="Trazado_150975" data-name="Trazado 150975" d="M-1916.247,3703.7l-80.972-45.248a1.83,1.83,0,0,0-1.572-.174,2.014,2.014,0,0,0-1.157,1.695l-.4,2.438a4.263,4.263,0,0,0,1.909,4.086l80.971,45.247c1.282.709,2.506.03,2.733-1.517l.4-2.439A4.263,4.263,0,0,0-1916.247,3703.7Z" transform="translate(2002.691 -3627.371)" fill="#6d6afd" fill-rule="evenodd" opacity="0.5"/>
              <path id="Trazado_150976" data-name="Trazado 150976" d="M-1919.376,3723.965l-80.972-45.247a1.833,1.833,0,0,0-1.573-.174,2.016,2.016,0,0,0-1.157,1.694l-.4,2.437a4.267,4.267,0,0,0,1.906,4.09l80.973,45.244c1.283.71,2.5.03,2.732-1.518l.4-2.437A4.269,4.269,0,0,0-1919.376,3723.965Z" transform="translate(2003.516 -3632.718)" fill="#6d6afd" fill-rule="evenodd" opacity="0.5"/>
              <path id="Trazado_150977" data-name="Trazado 150977" d="M-1910.644,3661.854l-80.971-45.245a1.837,1.837,0,0,0-1.573-.177,2.016,2.016,0,0,0-1.158,1.694l-.4,2.437a4.263,4.263,0,0,0,1.907,4.089l80.972,45.245c1.282.711,2.505.032,2.733-1.517l.4-2.437A4.268,4.268,0,0,0-1910.644,3661.854Z" transform="translate(2001.212 -3616.328)" fill="#44a7f7" fill-rule="evenodd" opacity="0.5"/>
            </g>
          </g>
        </g>
      </g>
    </g>
    <g id="Grupo_68303" data-name="Grupo 68303" transform="translate(261.328 215.292)">
      <path id="Trazado_150978" data-name="Trazado 150978" d="M-1668.954,4147.42l-53.928-30.715c-5.879-2.687-14.294-4.824-20.283-1.7-5.458,2.84-14.449,8.65-18.423,10.92-3.019,1.72-13.5,8-6.973,11.55,19.2,10.443,38.21,22.187,57.711,32.793,3.688,2.007,9.085,2.733,14.748,2.262a39.094,39.094,0,0,0,15.972-4.756q4.862-2.827,9.564-5.568c4.23-2.461,6.472-5.376,6.695-8.068C-1663.656,4151.506-1665.345,4149.067-1668.954,4147.42Z" transform="translate(1802.587 -3915.955)" fill="#53c9ff" fill-rule="evenodd" opacity="0.5"/>
      <g id="Grupo_68302" data-name="Grupo 68302">
        <path id="Trazado_150979" data-name="Trazado 150979" d="M-1685.91,3927.974c.722-3.134,1.732-6.74,2.659-10.419,1.855-7.371,3.368-15.036,1.519-19.783-.789-2.022-2.169-3-3.732-4.26-4.053-3.255-3.444,5.484-9.8,4.731-1.011,1.353-.7,4.4-.365,7.313C-1694.428,3916.08-1689.385,3931.224-1685.91,3927.974Z" transform="translate(1782.871 -3857.722)" fill="#0960ac" fill-rule="evenodd" opacity="0.35" style="mix-blend-mode: multiply;isolation: isolate"/>
        <g id="Grupo_68293" data-name="Grupo 68293" transform="translate(48.523 33.148)">
          <g id="Grupo_68292" data-name="Grupo 68292">
            <path id="Trazado_150980" data-name="Trazado 150980" d="M-1737.228,3893.915c.72-2.223,3.3-1.046,4.029-.193,1.274,1.284,2.745,2.9,4.494,3.441a6.793,6.793,0,0,1,5.376,5.1c.313,1.056-.532.989-1.574,2.5-3.314-2.586-7.052-2.708-7.355-3.162C-1735.239,3897.119-1733.328,3897.628-1737.228,3893.915Z" transform="translate(1745.241 -3890.833)" fill="#ffa698" fill-rule="evenodd"/>
            <path id="Trazado_150981" data-name="Trazado 150981" d="M-1730.025,3908.136l3.469,4.023,4.033-7.08c-.579-.821-1.649-.946-2.12-1.858a16.162,16.162,0,0,0-.821-1.76c-1.825-3.287-3.08-3.818-9.558-4.7a5.222,5.222,0,0,1-3.283-1.456l-4.419-3.948c-1.448-1.075-2.638-1.369-3.2-1.043-.629.367-2.2,3.793-2.157,5.594v.008c-.126.437.145,1.067.791,1.777,1.924,2.109,3.556,3.977,5.262,6.047,2.931,3.556,2.106,2.21,7.073,2.877C-1732.2,3906.987-1731.058,3907.35-1730.025,3908.136Z" transform="translate(1748.113 -3890.185)" fill="#ffa698" fill-rule="evenodd"/>
            <path id="Trazado_150982" data-name="Trazado 150982" d="M-1743.957,3896.484c.168-.8,1.308-4.641,1.708-4.753.79-.22,1.855,1.092,2.862,2.085,1.508,1.486,4.07,4.675,6.132,5.125,4.894,1.071,7.121,2.692,9.408,9.507l-1.257-.8c-2.652-8.113-7.31-1.955-12.127-4.977C-1740.16,3900.833-1744.091,3897.114-1743.957,3896.484Z" transform="translate(1747.017 -3890.587)" fill="#ff9483" fill-rule="evenodd"/>
          </g>
          <path id="Trazado_150983" data-name="Trazado 150983" d="M-1711.856,3910.771c-1.134-.45-2.786-.743-3.513-1.321-.792-.63-1.935-1.558-2.373-1.869-1.811.7-3.914,3.475-5.2,6.067.794.886,1.583,1.836,2.368,2.824.583.737.88,2.736,1.458,3.51,3.588,4.807,11.613,10.724,16.054,14.953,5.308,5.051,11.514,5.5,14.2,2.358,1.44-1.685,2.318-4.259.488-8.031-1.151-2.375-4.308-4.79-7.053-7.085C-1700.652,3917.808-1708.843,3911.969-1711.856,3910.771Z" transform="translate(1741.47 -3894.776)" fill-rule="evenodd" fill="url(#linear-gradient-15)"/>
        </g>
        <path id="Trazado_150984" data-name="Trazado 150984" d="M-1679.057,3936.039c-1.94,2.175-5.531,2.452-9.187-.863-.236-.158-.473-.324-.709-.5l-.28-.7a5.405,5.405,0,0,1-.8-2.07c-.462-1.2-.932-2.465-1.36-3.672-1.613-4.559-4.976-15.253-5.912-23.236-1.307-11.139,7.17-15.648,13.013-12.638,5.021,2.587,5.278,11.319,5.969,16.074C-1677.339,3915.229-1674.36,3930.767-1679.057,3936.039Z" transform="translate(1783.265 -3857.368)" fill="#0794d4" fill-rule="evenodd"/>
        <g id="Grupo_68294" data-name="Grupo 68294" transform="translate(80.337 220.269)">
          <path id="Trazado_150985" data-name="Trazado 150985" d="M-1675.78,4155.906c-1.146-.027-5.014-3.662-8.677-1.825-4.4,2.2-12.753.248-16.969,1.266-.751.177-2.218-.377-2.508.142-.909,1.615-1.788,4.028.446,5.609a38.28,38.28,0,0,0,7.471,3.521,62.912,62.912,0,0,0,9.451,2.672c3.113.492,4.532.688,5.7,1.588a8.259,8.259,0,0,0,4.344,1.044,7.316,7.316,0,0,0,5.541-3.866c.35-.749.36-4.015-.043-6.134a31.11,31.11,0,0,0-1.96-5.354Z" transform="translate(1704.895 -4146.808)" fill="#fff" fill-rule="evenodd"/>
          <path id="Trazado_150986" data-name="Trazado 150986" d="M-1677.565,4145.665c1.392,3.341.965,8.513,4.263,10.308,2.2,1.2,5.658,1.211,7.163-2.216.839-1.911-.275-5.178-.029-9.37Z" transform="translate(1697.683 -4144.386)" fill="#ffa495" fill-rule="evenodd"/>
          <path id="Trazado_150987" data-name="Trazado 150987" d="M-1685.549,4152.133c-2.527.732-9.5.245-13.916.6-1.9.151-3.6.138-4.483,1.858-.815,1.585-.388,2.942,1.458,4.248a31.349,31.349,0,0,0,6.741,3.308,63.59,63.59,0,0,0,9.451,2.674c3.111.487,4.531.686,5.7,1.584a8.28,8.28,0,0,0,4.345,1.047,7.653,7.653,0,0,0,5.541-4.111c.349-.747.359-3.771-.044-5.891a10.853,10.853,0,0,0-.323-1.249c-.348-3.318-1.444-4.664-2.477-4.092a6.378,6.378,0,0,0-2.487,3.328,3.255,3.255,0,0,1-1.922,1.834c-1.692.533-3.236-.412-4.236-1.864a11.973,11.973,0,0,1-1.16-3.361c-.006-.116-.008-.227,0-.339-.331-2.9-1.744-2.648-1.529-2.036A2.5,2.5,0,0,1-1685.549,4152.133Z" transform="translate(1704.749 -4145.679)" fill="#273087" fill-rule="evenodd"/>
          <path id="Trazado_150988" data-name="Trazado 150988" d="M-1703.138,4155.691c.034,1.125-1.685,1.232-1.188,3.2-.827-.81.327-3.134.837-3.489C-1703.28,4155.26-1703.1,4155.2-1703.138,4155.691Z" transform="translate(1704.821 -4147.268)" fill="#fff" fill-rule="evenodd"/>
        </g>
        <g id="Grupo_68295" data-name="Grupo 68295" transform="translate(53.119 206.669)">
          <path id="Trazado_150989" data-name="Trazado 150989" d="M-1714.288,4137.468c-1.067-.417-3.449-5.161-7.519-4.7a20.646,20.646,0,0,1-6.963-1c-4.274-1.214-10.227-5.034-11.244-4.41-2.213,1.364-2.39,3.846-.837,6.1a31.374,31.374,0,0,0,5.191,5.424,55.006,55.006,0,0,0,7.327,5.572c2.349,1.3,3.13,1.185,4.8,3.45a7.825,7.825,0,0,0,3.72,2.351,8.85,8.85,0,0,0,7.269-2.725c.812-2.629,2.221-5.118,1.318-9.063Z" transform="translate(1741.87 -4126.273)" fill="#fff" fill-rule="evenodd"/>
          <path id="Trazado_150990" data-name="Trazado 150990" d="M-1712.4,4125.91c.066,3.619-2.232,8.268.173,11.153,1.61,1.924,4.817,3.206,7.476.574,1.483-1.471,1.647-4.917,3.42-8.727Z" transform="translate(1734.338 -4125.91)" fill="#ffa495" fill-rule="evenodd"/>
          <path id="Trazado_150991" data-name="Trazado 150991" d="M-1727.509,4130.535c-.244-.06-.488-.13-.731-.2-4.273-1.215-9.984-4.161-11-3.536-2.214,1.364-2.634,2.969-1.079,5.226a31.179,31.179,0,0,0,5.191,5.421,54.7,54.7,0,0,0,7.327,5.575c2.349,1.3,3.13,1.185,4.8,3.445a7.852,7.852,0,0,0,3.721,2.356,9.079,9.079,0,0,0,7.374-2.742,21.832,21.832,0,0,0,1.5-6.277c.355-3.218.134-4.858-1.267-4.817-2.6.078-3.678,1.451-4.755,2.122-2.317,1.441-3.868-.427-4.247-2.734a13.527,13.527,0,0,1,.212-3.052c.036-.108.077-.215.119-.317.759-2.82-.647-3.1-.672-2.452a2.422,2.422,0,0,1-2.15,2.462C-1724.577,4131.225-1726.365,4130.632-1727.509,4130.535Z" transform="translate(1741.706 -4126.124)" fill="#273087" fill-rule="evenodd"/>
          <path id="Trazado_150992" data-name="Trazado 150992" d="M-1739.059,4127.168c-.453,1.028-2.05.381-2.451,2.375-.4-1.086,1.646-2.687,2.26-2.791C-1739,4126.716-1738.814,4126.738-1739.059,4127.168Z" transform="translate(1741.788 -4126.131)" fill="#fff" fill-rule="evenodd"/>
        </g>
        <g id="Grupo_68296" data-name="Grupo 68296" transform="translate(72.534 97.877)">
          <path id="Trazado_150993" data-name="Trazado 150993" d="M-1710.51,3989.166c-.936,10.487-6.191,43.978-4.729,53.173,2.2,13.826,1.571,30.53,1.546,45.2.37,6.167,8.849,9.389,11.316,5.469,1.981-13.11,4.8-24.6,5.946-31.887,1.284-8.159.86-18.071-1.211-23.436.849-5.857,4.844-20.971,8.181-31.444,1.2-3.779,8.026-15.988.964-28.128Z" transform="translate(1715.495 -3978.118)" fill-rule="evenodd" fill="url(#linear-gradient-16)"/>
          <path id="Trazado_150994" data-name="Trazado 150994" d="M-1713.236,4121.424c-.007,1.084.034,2.744.033,3.813.37,6.167,8.955,9.51,11.423,5.592.146-.966.358-1.925.511-2.873C-1704.587,4131.533-1711.09,4126.887-1713.236,4121.424Z" transform="translate(1714.899 -4015.935)" fill="#4c57b7" fill-rule="evenodd"/>
          <path id="Trazado_150995" data-name="Trazado 150995" d="M-1715.455,4041.069c2.764,13.866,10.583,32.388,14.852,46.327,2.221-11.944,7.781-32.285,2.973-44.735.483-3.338,1.987-9.677,3.81-16.45-3.7-7.015-.165-12.613-1.911-22.491-9.795-1.706,4.988-13.663-15.739-1.069C-1713.326,4017.528-1715.067,4026.885-1715.455,4041.069Z" transform="translate(1715.485 -3983.088)" fill="#060921" fill-rule="evenodd" opacity="0.3" style="mix-blend-mode: multiply;isolation: isolate"/>
        </g>
        <g id="Grupo_68297" data-name="Grupo 68297" transform="translate(61.713 104.233)">
          <path id="Trazado_150996" data-name="Trazado 150996" d="M-1713.712,4051.53c5.651,12.791,16.077,37.883,21.621,53.585,2.868,4.169,13.1,3.737,13.078-.153-2.259-13.124-4.913-33.372-9.625-44.883-1.442-3.524-6.763-12-8.681-14.517-1.492-5.794-3.36-21.44-4.8-29.906,1.294-7.008,6.944-18.721-3.913-28.9-4.381,3.116-17.924,5.065-24.067,1.6C-1731.09,4016.024-1724.3,4027.564-1713.712,4051.53Z" transform="translate(1730.195 -3986.753)" fill-rule="evenodd" fill="url(#linear-gradient-17)"/>
          <path id="Trazado_150997" data-name="Trazado 150997" d="M-1679.992,4143.828c.247.687.739,2.072.97,2.729,2.953,4.293,13.484,3.844,13.463-.16-.111-.65-.224-1.312-.336-1.993C-1668.406,4146.962-1676,4147-1679.992,4143.828Z" transform="translate(1716.947 -4028.205)" fill="#4c57b7" fill-rule="evenodd"/>
        </g>
        <path id="Trazado_150998" data-name="Trazado 150998" d="M-1691.79,3928.592c-.911,8.221,1.56,16.306-.956,23.81-.112.777-.184,3.818-.316,4.645-1.658,9.723-22.223,19.56-39.374,10.236-.094-1.207.015-2.468-.078-4.7.317-2.082-.583-4.319-.577-5.591.025-5.291,1.67-7.995.881-13.884-1.607-11.975-8.242-23.489-4.571-32.912.788-2.023,2.168-3,3.731-4.259,4.053-3.256,25.017-13.929,31.372-14.686C-1683.229,3888.86-1690.8,3919.673-1691.79,3928.592Z" transform="translate(1793.934 -3857.283)" fill="#18b6fe" fill-rule="evenodd"/>
        <g id="Grupo_68298" data-name="Grupo 68298" transform="translate(64.996)">
          <path id="Trazado_150999" data-name="Trazado 150999" d="M-1724.357,3880c1.167.578,7.089-.259,6.915.269-.086,2.65-.875,4.259-1.13,7.888,6.511-.91,15.053-1.852,15.393-6.845-.026-.4-.05-.8-.067-1.193-.008-.043-.014-.091-.022-.137h.017c-.069-1.816.018-3.46.525-4.277,1.377-2.232,4.21-4.713,5.215-8.093,1.6-5.4,1.02-11.4-4.016-15.4-9.2-7.3-20.959-2.108-23.938,8.573-.582,2.085,1.062,3.218,1.005,5-.011.348-.473.712-.849,1.486C-1725.827,3868.337-1725.788,3879.292-1724.357,3880Z" transform="translate(1725.703 -3846.117)" fill="#e7a376" fill-rule="evenodd"/>
          <path id="Trazado_151000" data-name="Trazado 151000" d="M-1724.29,3879.938c1.166.578,7.028-.2,6.853.328-.085,2.65-.874,4.259-1.13,7.888,3.782.928,13.979-.432,15.5-6.17.027-1.208-.026-5.692.341-6.283,1.378-2.232,4.212-4.713,5.215-8.093,1.6-5.4,1.02-11.4-4.014-15.4-9.2-7.3-20.959-2.108-23.939,8.573-.582,2.085,1.064,3.218,1,5-.011.348-.474.712-.847,1.486C-1725.821,3868.337-1725.72,3879.228-1724.29,3879.938Z" transform="translate(1725.696 -3846.117)" fill-rule="evenodd" fill="url(#linear-gradient-18)"/>
          <path id="Trazado_151001" data-name="Trazado 151001" d="M-1724.109,3880c.62.334,3.176.114,5.081-.616a8.859,8.859,0,0,0,2.255-1.566c.787-.318,2.54-2.806-.174-6.765-2.646-3.859,13.379,6.022,14.227,4.651,1.378-2.232,4.211-4.713,5.216-8.093,1.6-5.4,1.02-11.4-4.016-15.4-9.2-7.3-20.959-2.108-23.937,8.573-.583,2.085,1.063,3.218,1,5-.01.348-.474.712-.848,1.486C-1725.819,3868.337-1725.513,3879.244-1724.109,3880Z" transform="translate(1725.695 -3846.117)" fill-rule="evenodd" fill="url(#linear-gradient-19)"/>
          <path id="Trazado_151002" data-name="Trazado 151002" d="M-1714.626,3878.969c3.3-3.072,6.476,6.7,1.174,6.6C-1711.383,3883.375-1712.954,3879.905-1714.626,3878.969Z" transform="translate(1722.804 -3853.919)" fill="#ffa698" fill-rule="evenodd"/>
          <path id="Trazado_151003" data-name="Trazado 151003" d="M-1714.683,3880.5c-.494-1.366-.077-1.864.524-1.717a3.883,3.883,0,0,1,2.087,2.527c.786,2.283-.341,5.169-2.547,4.042,1.9.108,1.719-2.177,1.151-3.588C-1713.854,3880.807-1714.452,3880.127-1714.683,3880.5Z" transform="translate(1722.876 -3854.021)" fill="#ffb49c" fill-rule="evenodd"/>
          <path id="Trazado_151004" data-name="Trazado 151004" d="M-1713.637,3881.963c-.53.99-.715,1.576-.543,1.914.118.237.485.5,1.083-.073A3.407,3.407,0,0,0-1713.637,3881.963Z" transform="translate(1722.702 -3854.867)" fill="#ffa698" fill-rule="evenodd"/>
          <path id="Trazado_151005" data-name="Trazado 151005" d="M-1720.82,3857.662l-.128-.067c-4.427-2.361-3.731-7.244-1.86-8.9,3.612-3.2,13.413-2.87,19.626.331,6.326,3.255,7.877,11.363,5.984,17.732-1.257,4.239-4.32,6.452-5.85,9.663a3.845,3.845,0,0,1-3.9,1.422c-4.386-.908-5.4-5.533-8.035-7.571-1.446-1.118-2.932-1.417-3.476,1.634-.1,1.34-.124,2.7-.222,3.933-.153,1.939.331,2.3-1.312,2.964-1.574.64-4.643,1.265-5.167,1.059-.41-.162-.383-2.582-.307-4.389.165-.013.172.619.257.609.161-.023.358-.065.59-.087a7.154,7.154,0,0,0-.261-2.2,3.484,3.484,0,0,0-.723-1.647,2.749,2.749,0,0,1-.086-1.416,4.453,4.453,0,0,1,1.873,2.646,13.325,13.325,0,0,1,.489,2.4,4.567,4.567,0,0,0,2.245-.734c.925-1.071,1.089-2.409,1.421-4.5.078-3.679-.083-4.224-1.994-6.952-.53-.753-.558-2.3.753-5.734A1.935,1.935,0,0,0-1720.82,3857.662Z" transform="translate(1725.735 -3845.496)" fill="#562e65" fill-rule="evenodd"/>
          <path id="Trazado_151006" data-name="Trazado 151006" d="M-1722.786,3855.19c1.364,1.709,7.225-2.245,15.43-.735-1.758-5.418-2.773-6.568-5.236-8.154-3.212-2.068-8.621-1.225-10.318,1.624A6.826,6.826,0,0,0-1722.786,3855.19Z" transform="translate(1725.248 -3845.154)" fill-rule="evenodd" fill="url(#linear-gradient-20)"/>
        </g>
        <path id="Trazado_151007" data-name="Trazado 151007" d="M-1702.093,3891.742c1.778.549,3.567,2.308,3.243,3.481-1.771,7.232-15.211,8.6-23.456,6.863-.1-.02,3.207-4.356,4.786-4.87C-1712.331,3897.727-1703.693,3896.014-1702.093,3891.742Z" transform="translate(1789.827 -3857.449)" fill="#0794d4" fill-rule="evenodd"/>
        <g id="Grupo_68301" data-name="Grupo 68301" transform="translate(0 48.09)">
          <path id="Trazado_151008" data-name="Trazado 151008" d="M-1732.111,3955.581c-.609-14.535-3.261-30.474-3.609-35.559-.147-2.165.686-3.642,1.566-5.442.858-1.755,11.514-1.732,14.322,6.574C-1718.689,3943.027-1726.586,3957.218-1732.111,3955.581Z" transform="translate(1793.371 -3911.319)" fill="#0794d4" fill-rule="evenodd" opacity="0.35" style="mix-blend-mode: multiply;isolation: isolate"/>
          <g id="Grupo_68300" data-name="Grupo 68300">
            <g id="Grupo_68299" data-name="Grupo 68299" transform="translate(0 19.14)">
              <path id="Trazado_151009" data-name="Trazado 151009" d="M-1792.351,3947.874l4.682,2.507,1.219-8.056c-.834-.559-1.879-.291-2.647-.973a16.213,16.213,0,0,0-1.4-1.346c-2.885-2.411-4.246-2.457-10.608-.954a5.218,5.218,0,0,1-3.588-.179l-5.543-2.094c-1.738-.483-2.953-.33-3.362.179-.456.567-.69,4.328,0,5.992l0,.009c.037.455.519.946,1.378,1.375,2.554,1.277,4.749,2.433,7.086,3.753,4.012,2.261,2.76,1.3,7.633.144C-1794.793,3947.583-1793.6,3947.512-1792.351,3947.874Z" transform="translate(1814.031 -3936.485)" fill="#ffa698" fill-rule="evenodd"/>
              <path id="Trazado_151010" data-name="Trazado 151010" d="M-1809.561,3942.485c-.127-.806-.228-3.886.105-4.137.657-.492,2.21.583,3.507,1.146a5.462,5.462,0,0,0,4.278.345c2.4,1.734,9.186-.655,15.177,6.585l-1.829.64c-2.058-.545-7.29.716-12.874-.373C-1804.591,3946.028-1809.459,3943.124-1809.561,3942.485Z" transform="translate(1812.883 -3936.942)" fill="#ff9483" fill-rule="evenodd"/>
              <path id="Trazado_151011" data-name="Trazado 151011" d="M-1805.378,3945.738c-.391-2.3,2.44-2.457,3.483-2.034,1.722.547,3.773,1.3,5.575.97a6.8,6.8,0,0,1,7.127,2.036c.767.792-.014,1.123-.24,2.944-4.134-.762-7.505.86-7.984.6C-1802.133,3947.656-1800.2,3947.225-1805.378,3945.738Z" transform="translate(1811.757 -3938.342)" fill="#ffa698" fill-rule="evenodd"/>
            </g>
            <path id="Trazado_151012" data-name="Trazado 151012" d="M-1755.605,3939.655c-5.909-2.06-14.076-4.561-18.654-4.609-1.22-.013-2.867.306-3.753.029-.966-.3-2.365-.759-2.887-.892-1.436,1.308-2.4,4.649-2.668,7.528,1.061.546,2.138,1.146,3.225,1.787.81.479,1.806,2.236,2.623,2.751,5.076,3.2,14.692,5.833,20.356,8.182,2.567,1.064,4.637,2.052,7.626,2a12.625,12.625,0,0,0,4.717-2.31c.248-.14.5-.287.748-.447l.333-.681a5.344,5.344,0,0,0,.965-2c.555-1.16,1.123-2.383,1.644-3.554,1.966-4.417,6.162-14.814,7.724-22.7,2.181-11-5.916-16.164-11.979-13.622-5.208,2.182-6.154,10.867-7.216,15.552C-1753.763,3930.92-1754.814,3935.744-1755.605,3939.655Z" transform="translate(1805.992 -3910.484)" fill="#18b6fe" fill-rule="evenodd"/>
          </g>
        </g>
      </g>
    </g>
    <g id="Grupo_68313" data-name="Grupo 68313" transform="translate(319.258 49.696)">
      <g id="Grupo_68311" data-name="Grupo 68311" transform="translate(0 0)">
        <g id="Grupo_68306" data-name="Grupo 68306" transform="translate(2.855 75.855)">
          <g id="Grupo_68304" data-name="Grupo 68304" transform="translate(15.013 6.063)">
            <path id="Trazado_151013" data-name="Trazado 151013" d="M-1663.453,3812.917l-47.608-27.667,11.052-52.459,0-.013v-.006l0-.007,0-.015v0l0-.016v0l0-.012,0-.013,0-.006,0-.016h0l0-.017,0-.01v-.009l0-.016v0l.006-.018v-.008l0-.013,0-.015,0,0,0-.021,0,0,0-.016,0-.011,0-.008.007-.022h0l.008-.022,0-.008,0-.013.006-.016,0-.005.007-.019v-.006l.007-.017.006-.015,0-.006.009-.022,0,0,.008-.02,0-.011,0-.012.009-.018v0l.011-.022,0-.006.007-.016.007-.016,0-.007.012-.022v0l.009-.021.007-.01.005-.012.011-.022h0l.012-.022.005-.008.007-.013.01-.019,0,0,.013-.021,0,0,.011-.018.009-.014,0-.006.014-.022v0l.013-.019.008-.01.008-.012.013-.019h0l.014-.022.006-.007.01-.013.017-.021.015-.017,0,0,.012-.016.01-.012.007-.008.018-.018.017-.018.007-.009.01-.008.015-.016h0l.018-.019,0,0,.015-.011.012-.012.006,0,.018-.016h0l.018-.014.011-.008.01-.007.018-.012v0l.021-.012.006,0,.013-.01a.794.794,0,0,1,.71-.032l47.6,27.666C-1652.543,3758.357-1658.875,3797.448-1663.453,3812.917Z" transform="translate(1711.061 -3731.478)" fill="#7ff9ff" fill-rule="evenodd"/>
            <path id="Trazado_151014" data-name="Trazado 151014" d="M-1700.009,3733.263c20,22.915,43.847,37.063,41.513,56.951l-4.958,23.174-47.608-27.666Z" transform="translate(1711.061 -3731.949)" fill="#7ff9ff" fill-rule="evenodd"/>
          </g>
          <g id="Grupo_68305" data-name="Grupo 68305" transform="translate(10.954)">
            <path id="Trazado_151015" data-name="Trazado 151015" d="M-1665.569,3752.429l-1.076,53.2-49.931-28.822.149-52.743Z" transform="translate(1716.576 -3723.46)" fill="#fff" fill-rule="evenodd"/>
            <path id="Trazado_151016" data-name="Trazado 151016" d="M-1648.6,3763.009l1.042-.607-.147,52.744-1.044.6Z" transform="translate(1698.676 -3733.575)" fill="#c5dbf1" fill-rule="evenodd"/>
            <path id="Trazado_151017" data-name="Trazado 151017" d="M-1716.374,3723.849l1.047-.607,49.926,28.829-1.043.605Z" transform="translate(1716.522 -3723.242)" fill="#dce8f8" fill-rule="evenodd"/>
            <path id="Trazado_151018" data-name="Trazado 151018" d="M-1667.7,3796.1l-.01,3.326-46.215-26.684.01-3.324,46.214,26.682Zm.1-38.244,0,3.327-46.214-26.681.01-3.326,46.207,26.68Zm-.014,5.462-46.208-26.682-.011,3.326,46.21,26.679.01-3.323Zm-.015,5.464-46.214-26.68-.005,3.325,46.208,26.679.011-3.325Zm-.014,5.464-46.215-26.68-.01,3.326,46.214,26.681.011-3.327Zm-.016,5.463-46.213-26.683-.011,3.328,46.213,26.678.011-3.323Zm-.015,5.465-46.213-26.682-.011,3.325,46.213,26.682.01-3.324Zm-.015,5.464-46.214-26.682-.011,3.325,46.215,26.681Z" transform="translate(1715.876 -3725.334)" fill="#e7b9ff" fill-rule="evenodd"/>
          </g>
          <path id="Trazado_151019" data-name="Trazado 151019" d="M-1681.716,3777.235l11.35,39.911h0a4.732,4.732,0,0,0,.7,1.271l-47.6-27.662a1.9,1.9,0,0,1-.7-1.269l-11.349-39.914.011.006-2.128-7.482a1.939,1.939,0,0,1,.41-1.353c1.977,1.8,12.533,8.26,14.479,9.406,3.26,2.554,3.371,5.708,8.31,10.946a8.533,8.533,0,0,0,2.442,1.956Z" transform="translate(1731.456 -3727.86)" fill="#b2fbff" fill-rule="evenodd"/>
          <path id="Trazado_151020" data-name="Trazado 151020" d="M-1663.308,3783.178a1.343,1.343,0,0,1,.234-.173c.372-.214.705-.122.817.245l11.243,39.589,11.05-52.459a1.875,1.875,0,0,1,.807-1.182,1.014,1.014,0,0,1,.231-.1c.455-.12.722.267.595.854l-11.116,52.809a7.917,7.917,0,0,1-.674,2.068,2.389,2.389,0,0,1-.895,1.009.777.777,0,0,1-.882.021,2.364,2.364,0,0,1-.645-1.233l-11.351-39.915A1.741,1.741,0,0,1-1663.308,3783.178Z" transform="translate(1713.636 -3735.338)" fill="#54dbe2" fill-rule="evenodd"/>
          <path id="Trazado_151021" data-name="Trazado 151021" d="M-1704.309,3761.348l24.012,13.954c-.624-.306-1.583,1.1-1.418,1.766l-24.253-14.092a14.9,14.9,0,0,1-2.022-1.308c-3.447-2.721-5.073-6.45-7.326-9.469a9.631,9.631,0,0,0-1.931-1.955c-.6-.326-.915-.5-.809-.449l-13.384-7.875a1.944,1.944,0,0,1,.412-1.343c.254-.27.65-.6,1.011-.414l13.405,7.894c-.1-.053.212.12.811.446a9.691,9.691,0,0,1,1.93,1.954c2.383,3.194,4.087,6.785,7.955,9.83A12.611,12.611,0,0,0-1704.309,3761.348Z" transform="translate(1731.456 -3727.692)" fill="#7ff9ff" fill-rule="evenodd"/>
        </g>
        <g id="Grupo_68310" data-name="Grupo 68310">
          <path id="Trazado_151026" data-name="Trazado 151026" d="M-1728.824,3654.04c-5.548-6.865-8.03-18.978-5.548-27.065s8.987-9.083,14.535-2.222,8.029,18.986,5.547,27.069S-1723.281,3660.9-1728.824,3654.04Z" transform="translate(1735.335 -3620.193)" fill="#7ff9ff" fill-rule="evenodd"/>
          <path id="Trazado_151027" data-name="Trazado 151027" d="M-1716.734,3640.055l1.528,1.672-13.308,9.555-3.188-13.842,2.074,1.893,2.486,5.221Z" transform="translate(1734.377 -3624.745)" fill="#fff" fill-rule="evenodd"/>
        </g>
      </g>
    </g>
  </g>
</svg>
