<svg xmlns="http://www.w3.org/2000/svg" width="588.838" height="349.903" viewBox="0 0 588.838 349.903">
  <g id="Grupo_89983" data-name="Grupo 89983" transform="translate(-874.954 -6178)">
    <path id="Trazado_157170" data-name="Trazado 157170" d="M1468.581,4120.333a152.964,152.964,0,0,1,242.854-123.752v247.5a152.964,152.964,0,0,1-242.854-123.752Z" transform="translate(-247.643 2254.618)" fill="#befcff"/>
    <path id="Trazado_157171" data-name="Trazado 157171" d="M-829,3187.345a41.919,41.919,0,0,1,41.92,41.919A41.919,41.919,0,0,1-829,3271.183a41.919,41.919,0,0,1-41.919-41.919A41.919,41.919,0,0,1-829,3187.345Zm0,11.161a30.757,30.757,0,0,0-30.757,30.758A30.758,30.758,0,0,0-829,3260.021a30.758,30.758,0,0,0,30.758-30.758A30.757,30.757,0,0,0-829,3198.506Z" transform="translate(1745.871 3247.736)" fill="#7ff9ff" fill-rule="evenodd" opacity="0.95"/>
    <path id="Trazado_157172" data-name="Trazado 157172" d="M-942.449,2797.623a22,22,0,0,1,22,22,22,22,0,0,1-22,22,22,22,0,0,1-22-22,22,22,0,0,1,22-22Zm0,5.857a16.142,16.142,0,0,0-16.142,16.143,16.142,16.142,0,0,0,16.142,16.143,16.143,16.143,0,0,0,16.143-16.143A16.143,16.143,0,0,0-942.449,2803.48Z" transform="translate(2313.449 3380.377)" fill="#18b6fe" fill-rule="evenodd"/>
  </g>
</svg>
