<svg xmlns="http://www.w3.org/2000/svg" xmlns:xlink="http://www.w3.org/1999/xlink" width="1030" height="494.566" viewBox="0 0 1030 494.566">
  <defs>
    <clipPath id="clip-path">
      <rect id="Rectángulo_10832" data-name="Rectángulo 10832" width="1030" height="494.566" fill="none"/>
    </clipPath>
    <clipPath id="clip-path-2">
      <rect id="Rectángulo_10831" data-name="Rectángulo 10831" width="1029.996" height="494.566" fill="none"/>
    </clipPath>
    <clipPath id="clip-path-3">
      <rect id="Rectángulo_10825" data-name="Rectángulo 10825" width="28.52" height="28.794" fill="none"/>
    </clipPath>
    <clipPath id="clip-path-4">
      <rect id="Rectángulo_10826" data-name="Rectángulo 10826" width="3.62" height="3.619" fill="none"/>
    </clipPath>
    <clipPath id="clip-path-5">
      <rect id="Rectángulo_10827" data-name="Rectángulo 10827" width="3.015" height="3.01" fill="none"/>
    </clipPath>
    <clipPath id="clip-path-6">
      <rect id="Rectángulo_10828" data-name="Rectángulo 10828" width="38.744" height="3.141" fill="none"/>
    </clipPath>
    <clipPath id="clip-path-7">
      <rect id="Rectángulo_10829" data-name="Rectángulo 10829" width="19.18" height="3.872" fill="none"/>
    </clipPath>
    <clipPath id="clip-path-8">
      <rect id="Rectángulo_10830" data-name="Rectángulo 10830" width="14.933" height="47.558" fill="none"/>
    </clipPath>
  </defs>
  <g id="Grupo_90361" data-name="Grupo 90361" transform="translate(-285 -6417)">
    <g id="Grupo_88880" data-name="Grupo 88880" transform="translate(285 6417)">
      <g id="Grupo_88879" data-name="Grupo 88879" clip-path="url(#clip-path)">
        <g id="Grupo_88878" data-name="Grupo 88878">
          <g id="Grupo_88877" data-name="Grupo 88877" clip-path="url(#clip-path-2)">
            <path id="Trazado_157976" data-name="Trazado 157976" d="M321.833,161.493a19.394,19.394,0,0,1,4.735-2.058l.975-4.687,7.92-.139,1.14,4.65a19.4,19.4,0,0,1,4.805,1.89l4-2.623,5.7,5.5-2.481,4.091a19.384,19.384,0,0,1,2.058,4.737l4.687.975.139,7.919-4.65,1.141a19.45,19.45,0,0,1-1.89,4.8l2.622,4-5.5,5.7L342,194.914a19.4,19.4,0,0,1-4.736,2.058l-.975,4.687-7.919.138-1.141-4.65a19.451,19.451,0,0,1-4.8-1.89l-4,2.623-5.7-5.5,2.48-4.091a19.417,19.417,0,0,1-2.058-4.736l-4.687-.976-.139-7.919,4.651-1.14a19.4,19.4,0,0,1,1.89-4.805l-2.623-4,5.5-5.7Zm4.221,10.55a8.5,8.5,0,1,0,12.014-.211,8.5,8.5,0,0,0-12.014.211" transform="translate(4.825 2.419)" fill="#cfc4ff"/>
            <path id="Trazado_157977" data-name="Trazado 157977" d="M325.82,171.816a6.4,6.4,0,0,1,1.582-1.388,8.46,8.46,0,0,1,5.542-1.31,8.565,8.565,0,0,1,3.768,1.338,8.707,8.707,0,0,1,3.046,3.433,8.71,8.71,0,0,1,.821,5,8.669,8.669,0,0,1-7.171,7.429,8.721,8.721,0,0,1-5.027-.645,8.692,8.692,0,0,1-3.538-2.924,8.546,8.546,0,0,1-1.47-3.718,8.456,8.456,0,0,1,1.115-5.585,6.414,6.414,0,0,1,1.332-1.63c.046.039-.513.558-1.167,1.724a8.474,8.474,0,0,0-.939,5.44,8.305,8.305,0,0,0,4.85,6.285,8.317,8.317,0,0,0,4.764.584,8.234,8.234,0,0,0,6.779-7.023,8.3,8.3,0,0,0-.752-4.74,8.3,8.3,0,0,0-6.45-4.626,8.468,8.468,0,0,0-5.4,1.13c-1.143.695-1.641,1.272-1.682,1.227" transform="translate(5.059 2.646)" fill="#cfc4ff"/>
            <path id="Trazado_157978" data-name="Trazado 157978" d="M321.836,161.5a1.755,1.755,0,0,1-.264-.139l-.785-.454-3.084-1.821.1-.013-5.468,5.73.014-.153,2.64,3.992.048.072-.043.076a19.41,19.41,0,0,0-1.86,4.773l-.022.094-.094.023-4.647,1.153.132-.171c.05,2.493.1,5.139.157,7.918l-.152-.185,4.688.967.119.024.034.118a19.3,19.3,0,0,0,2.044,4.682l.066.109-.066.109c-.768,1.27-1.614,2.669-2.475,4.1l-.035-.268,5.7,5.494-.282-.026,4-2.627.117-.076.122.068a19.344,19.344,0,0,0,4.748,1.864l.139.034.034.139c.359,1.456.749,3.045,1.143,4.649l-.236-.182,7.919-.142-.233.193c.308-1.481.64-3.078.975-4.687l.029-.144.142-.04a19.262,19.262,0,0,0,4.672-2.03l0,0,.127-.076.125.076,4.092,2.481-.3.039,5.5-5.7-.028.3q-1.322-2.022-2.621-4l-.079-.121.071-.126a19.214,19.214,0,0,0,1.87-4.745l.035-.139.138-.034,4.651-1.137-.177.23q-.067-4.055-.131-7.919l.178.215-4.685-.981-.13-.027-.036-.127a19.227,19.227,0,0,0-2.028-4.686l-.066-.11.066-.109,2.487-4.087.034.25-5.687-5.512.232.021-4.009,2.613-.089.058-.091-.052a19.351,19.351,0,0,0-4.758-1.887l-.094-.023-.023-.094c-.408-1.691-.776-3.214-1.124-4.653l.143.11-7.92.1.1-.086c-.4,1.869-.731,3.4-1.005,4.681l-.01.047-.045.012a20.106,20.106,0,0,0-3.622,1.393l-.851.445a1.855,1.855,0,0,1-.284.144,2.523,2.523,0,0,1,.264-.18c.181-.112.455-.278.835-.481a18.8,18.8,0,0,1,3.615-1.472l-.055.059.946-4.693.016-.085.088,0,7.919-.174.114,0,.028.112c.358,1.437.735,2.958,1.155,4.646l-.117-.117A19.6,19.6,0,0,1,341.5,161l-.181.006,4-2.633.125-.082.108.1,5.709,5.491.116.112-.083.139-2.474,4.1v-.218A19.651,19.651,0,0,1,350.9,172.8l-.166-.154,4.687.97.176.037,0,.179q.072,3.862.147,7.919l0,.185-.18.045-4.649,1.144.173-.173a19.632,19.632,0,0,1-1.91,4.864l-.009-.247q1.3,1.981,2.624,4l.106.16-.133.139-5.5,5.7-.135.139-.166-.1-4.092-2.48h.252l0,0a19.693,19.693,0,0,1-4.792,2.081l.172-.184c-.335,1.609-.668,3.206-.976,4.686l-.04.19-.193,0-7.92.135-.19,0-.046-.186c-.392-1.6-.781-3.193-1.137-4.651l.173.173a19.678,19.678,0,0,1-4.861-1.917l.239-.008-4,2.619-.152.1-.13-.126-5.691-5.509-.125-.121.09-.148,2.486-4.087v.217a19.677,19.677,0,0,1-2.072-4.79l.152.142-4.685-.985-.149-.031,0-.152c-.043-2.779-.082-5.426-.121-7.92l0-.138.135-.034,4.653-1.126-.117.117a19.584,19.584,0,0,1,1.92-4.836l.006.147-2.607-4.013-.055-.083.069-.07,5.534-5.666.044-.045.052.032,3.014,1.876.775.492a2.3,2.3,0,0,1,.263.18" transform="translate(4.822 2.417)" fill="#cfc4ff"/>
            <path id="Trazado_157979" data-name="Trazado 157979" d="M550.662,216.8a11.647,11.647,0,0,1,2.835-1.232l.584-2.805,4.74-.083.682,2.783a11.618,11.618,0,0,1,2.876,1.131l2.4-1.57,3.411,3.294-1.485,2.449a11.63,11.63,0,0,1,1.232,2.836l2.805.584.083,4.74-2.783.683a11.636,11.636,0,0,1-1.131,2.875l1.57,2.4-3.294,3.411-2.449-1.485a11.656,11.656,0,0,1-2.836,1.232l-.584,2.805-4.74.083-.683-2.784a11.6,11.6,0,0,1-2.875-1.131l-2.4,1.571-3.412-3.294,1.486-2.449A11.631,11.631,0,0,1,545.463,230l-2.805-.584-.083-4.74,2.784-.683a11.62,11.62,0,0,1,1.131-2.876l-1.57-2.4,3.293-3.411Zm2.527,6.315a5.086,5.086,0,1,0,7.192-.127,5.086,5.086,0,0,0-7.192.127" transform="translate(8.491 3.328)" fill="#f5f5f5"/>
            <path id="Trazado_157980" data-name="Trazado 157980" d="M553.048,222.98a3.847,3.847,0,0,1,.947-.831,5.062,5.062,0,0,1,3.318-.785,5.132,5.132,0,0,1,2.256.8,5.206,5.206,0,0,1,1.823,2.055,5.208,5.208,0,0,1,.492,2.993,5.187,5.187,0,0,1-4.293,4.448,4.862,4.862,0,0,1-1.566.026,4.915,4.915,0,0,1-1.443-.411,5.214,5.214,0,0,1-2.118-1.751,5.126,5.126,0,0,1-.879-2.226,5.066,5.066,0,0,1,.667-3.344,3.845,3.845,0,0,1,.8-.975c.027.023-.307.334-.7,1.032a5.077,5.077,0,0,0-.563,3.256,4.971,4.971,0,0,0,2.9,3.762,4.962,4.962,0,0,0,2.852.349,4.929,4.929,0,0,0,4.057-4.2,4.954,4.954,0,0,0-.449-2.837,4.969,4.969,0,0,0-3.861-2.77,5.068,5.068,0,0,0-3.235.676c-.683.415-.982.761-1.006.734" transform="translate(8.631 3.464)" fill="#f5f5f5"/>
            <path id="Trazado_157981" data-name="Trazado 157981" d="M550.663,216.8a1.2,1.2,0,0,1-.158-.083l-.469-.272-1.846-1.09.058-.007-3.273,3.43.009-.092,1.579,2.39.028.043-.024.046a11.557,11.557,0,0,0-1.113,2.857l-.014.056-.057.014-2.781.691.079-.1c.029,1.493.061,3.076.093,4.74l-.09-.111,2.806.579.071.014.02.071a11.508,11.508,0,0,0,1.224,2.8l.039.065-.039.066c-.46.76-.966,1.6-1.482,2.451l-.021-.16,3.416,3.289-.17-.016,2.395-1.572.07-.046.073.041a11.557,11.557,0,0,0,2.843,1.115l.082.02.02.083c.214.871.449,1.822.685,2.783l-.141-.109,4.74-.085-.139.116c.185-.887.383-1.842.584-2.806l.017-.086.085-.024a11.47,11.47,0,0,0,2.8-1.215h0l.076-.046.074.046,2.45,1.485-.181.023,3.295-3.411-.017.18-1.569-2.4-.048-.072.043-.075a11.51,11.51,0,0,0,1.119-2.841l.02-.083.083-.02,2.784-.679-.106.137q-.041-2.427-.079-4.74l.107.129-2.8-.588-.078-.016-.021-.076a11.486,11.486,0,0,0-1.214-2.805l-.04-.065.04-.066,1.489-2.446.019.149-3.4-3.3.138.013-2.4,1.564-.054.035-.055-.03a11.567,11.567,0,0,0-2.848-1.129l-.057-.014-.014-.057c-.244-1.012-.464-1.924-.672-2.785l.085.066-4.741.062.063-.052-.6,2.8-.006.028-.026.008a11.988,11.988,0,0,0-2.168.834l-.51.266a1.143,1.143,0,0,1-.17.086,1.415,1.415,0,0,1,.159-.108c.108-.067.272-.167.5-.288a11.279,11.279,0,0,1,2.163-.881l-.032.036c.154-.767.339-1.688.566-2.81l.01-.051h.053l4.74-.1.068,0,.017.068c.213.859.44,1.77.692,2.78l-.07-.07a11.747,11.747,0,0,1,2.9,1.133l-.108,0,2.392-1.576.074-.049.064.062c1.081,1.039,2.216,2.13,3.418,3.287l.07.067-.051.082-1.481,2.452v-.13a11.787,11.787,0,0,1,1.249,2.864l-.1-.092,2.806.581.106.021v.108q.044,2.313.088,4.74l0,.111-.108.026-2.783.685.1-.1a11.779,11.779,0,0,1-1.144,2.912l-.005-.148L568.6,234.8l.063.1-.08.083-3.292,3.412-.081.084-.1-.061-2.449-1.485h.15l0,0a11.8,11.8,0,0,1-2.868,1.245l.1-.111c-.2.964-.4,1.92-.584,2.806l-.024.113-.116,0-4.74.081-.115,0-.026-.111c-.236-.961-.467-1.911-.681-2.784l.1.1a11.783,11.783,0,0,1-2.909-1.148l.143-.005-2.4,1.568-.09.059-.078-.075-3.407-3.3-.075-.072.054-.089,1.489-2.447v.13a11.729,11.729,0,0,1-1.24-2.867l.091.085-2.805-.589-.089-.019,0-.091c-.025-1.664-.049-3.248-.072-4.74V224.6l.08-.02,2.785-.674-.069.07a11.732,11.732,0,0,1,1.149-2.895l0,.088-1.56-2.4-.033-.05.042-.043,3.312-3.391.026-.027.031.02,1.8,1.122.464.295a1.32,1.32,0,0,1,.157.108" transform="translate(8.489 3.327)" fill="#f5f5f5"/>
            <path id="Trazado_157982" data-name="Trazado 157982" d="M587.344,45.455a14.908,14.908,0,0,1,3.649-1.585l.752-3.613,6.1-.107.879,3.583a14.959,14.959,0,0,1,3.7,1.456l3.085-2.022,4.391,4.24-1.911,3.153a14.951,14.951,0,0,1,1.586,3.65l3.612.752.108,6.1-3.584.879a14.96,14.96,0,0,1-1.456,3.7l2.021,3.085-4.239,4.392-3.154-1.912a14.928,14.928,0,0,1-3.649,1.586l-.753,3.612-6.1.108-.879-3.584a14.96,14.96,0,0,1-3.7-1.456L584.717,73.5l-4.392-4.24,1.912-3.153a14.936,14.936,0,0,1-1.586-3.65L577.04,61.7l-.108-6.1,3.583-.879a15,15,0,0,1,1.457-3.7l-2.022-3.085,4.239-4.392Zm3.253,8.13a6.548,6.548,0,1,0,9.259-.163,6.547,6.547,0,0,0-9.259.163" transform="translate(9.028 0.628)" fill="#ededf7"/>
            <path id="Trazado_157983" data-name="Trazado 157983" d="M590.417,53.411a4.946,4.946,0,0,1,1.219-1.069,6.519,6.519,0,0,1,4.272-1.011,6.6,6.6,0,0,1,2.9,1.032,6.7,6.7,0,0,1,2.348,2.645,6.728,6.728,0,0,1,.633,3.854,6.681,6.681,0,0,1-5.527,5.725,6.7,6.7,0,0,1-3.875-.5,6.7,6.7,0,0,1-2.727-2.254,6.6,6.6,0,0,1-1.132-2.865,6.518,6.518,0,0,1,.859-4.3,4.964,4.964,0,0,1,1.027-1.256c.036.03-.4.43-.9,1.328a6.53,6.53,0,0,0-.724,4.192,6.4,6.4,0,0,0,3.739,4.844,6.389,6.389,0,0,0,3.672.45,6.345,6.345,0,0,0,5.225-5.412,6.4,6.4,0,0,0-.579-3.652,6.4,6.4,0,0,0-4.972-3.565,6.526,6.526,0,0,0-4.164.87c-.881.535-1.265.98-1.3.946" transform="translate(9.209 0.803)" fill="#ededf7"/>
            <path id="Trazado_157984" data-name="Trazado 157984" d="M587.346,45.456a1.375,1.375,0,0,1-.2-.108L586.538,45l-2.377-1.4.074-.01c-1.079,1.131-2.5,2.617-4.214,4.416l.011-.118,2.034,3.076.037.055-.033.059a14.934,14.934,0,0,0-1.433,3.679l-.017.072-.073.018-3.581.889.1-.132c.039,1.922.079,3.961.122,6.1l-.118-.142,3.613.744.092.019.025.09a14.922,14.922,0,0,0,1.575,3.609l.051.083-.051.084-1.906,3.157-.027-.207,4.4,4.234-.217-.02,3.083-2.025.09-.059.094.053a14.9,14.9,0,0,0,3.659,1.436l.107.025.026.108c.275,1.122.577,2.346.881,3.583l-.182-.14,6.1-.11-.18.148.752-3.613.022-.111.11-.031a14.786,14.786,0,0,0,3.6-1.564l0,0,.1-.058.1.058,3.153,1.912-.232.03,4.24-4.391-.021.231q-1.021-1.557-2.02-3.086l-.062-.092.055-.1a14.788,14.788,0,0,0,1.441-3.657l.026-.107.107-.026,3.584-.875-.136.177q-.052-3.125-.1-6.1l.138.167-3.612-.757-.1-.02-.027-.1a14.864,14.864,0,0,0-1.563-3.612l-.051-.084.051-.084q.986-1.619,1.917-3.15l.025.193-4.383-4.248.179.017-3.09,2.014-.068.045-.071-.04a14.914,14.914,0,0,0-3.668-1.455l-.072-.018-.018-.072c-.314-1.3-.6-2.477-.866-3.585l.11.084-6.1.08.081-.067c-.31,1.44-.564,2.622-.775,3.607l-.008.037-.036.01A15.408,15.408,0,0,0,588.222,45l-.656.342a1.455,1.455,0,0,1-.219.112,1.844,1.844,0,0,1,.2-.138c.14-.086.351-.215.644-.371a14.45,14.45,0,0,1,2.786-1.135l-.043.046c.2-.987.438-2.172.728-3.617l.013-.066h.068l6.1-.134.087,0,.022.086.89,3.58-.089-.089a15.057,15.057,0,0,1,3.739,1.458l-.139.005,3.079-2.029.1-.063.083.08,4.4,4.23.089.086-.065.108q-.928,1.536-1.906,3.156v-.168a15.119,15.119,0,0,1,1.608,3.688l-.127-.119,3.613.748.135.027,0,.139q.055,2.975.113,6.1l0,.143-.139.034-3.582.882.133-.133a15.147,15.147,0,0,1-1.473,3.749l-.007-.19,2.023,3.084.081.124-.1.107-4.238,4.393-.1.108-.128-.078-3.154-1.911h.191a15.166,15.166,0,0,1-3.692,1.6l.132-.142c-.259,1.24-.515,2.472-.753,3.613l-.03.145-.149,0-6.1.1-.147,0-.035-.142c-.3-1.237-.6-2.462-.875-3.584l.132.133a15.173,15.173,0,0,1-3.746-1.478l.185-.006-3.087,2.019-.118.076-.1-.1-4.387-4.245-.1-.093.07-.114,1.917-3.151v.168a15.108,15.108,0,0,1-1.6-3.691l.117.109-3.611-.759-.115-.024,0-.118c-.033-2.141-.063-4.181-.092-6.1l0-.107.1-.025,3.586-.868-.09.09a15.151,15.151,0,0,1,1.48-3.727l0,.115c-.723-1.115-1.4-2.156-2.009-3.093l-.042-.065.053-.054,4.265-4.367.034-.035.04.025,2.324,1.445.6.38a1.8,1.8,0,0,1,.2.138" transform="translate(9.026 0.627)" fill="#ededf7"/>
            <path id="Trazado_157985" data-name="Trazado 157985" d="M489.214,72.07a11.647,11.647,0,0,1,2.835-1.232l.584-2.805,4.74-.083.682,2.783a11.618,11.618,0,0,1,2.876,1.131l2.4-1.57,3.411,3.294-1.485,2.449a11.632,11.632,0,0,1,1.232,2.836l2.805.583.083,4.741-2.783.683a11.6,11.6,0,0,1-1.131,2.875l1.57,2.4-3.294,3.411-2.449-1.485a11.665,11.665,0,0,1-2.835,1.232l-.584,2.805-4.741.083-.683-2.784a11.6,11.6,0,0,1-2.875-1.131l-2.4,1.57-3.412-3.293,1.486-2.45a11.611,11.611,0,0,1-1.233-2.835l-2.805-.584-.083-4.74,2.784-.683a11.621,11.621,0,0,1,1.131-2.876l-1.57-2.4,3.293-3.411Zm2.527,6.315a5.086,5.086,0,1,0,7.192-.127,5.086,5.086,0,0,0-7.192.127" transform="translate(7.529 1.063)" fill="#e6e4f9"/>
            <path id="Trazado_157986" data-name="Trazado 157986" d="M491.6,78.25a3.848,3.848,0,0,1,.947-.831,5.06,5.06,0,0,1,3.318-.785,5.132,5.132,0,0,1,2.256.8,5.206,5.206,0,0,1,1.823,2.055,5.209,5.209,0,0,1,.492,2.993,5.187,5.187,0,0,1-4.293,4.448,5.215,5.215,0,0,1-3.009-.386,5.211,5.211,0,0,1-2.118-1.75,5.126,5.126,0,0,1-.88-2.226,5.059,5.059,0,0,1,.667-3.342,3.841,3.841,0,0,1,.8-.976c.027.023-.307.334-.7,1.032a5.077,5.077,0,0,0-.563,3.256,4.971,4.971,0,0,0,2.9,3.762,4.962,4.962,0,0,0,2.852.349,4.926,4.926,0,0,0,4.058-4.2,4.96,4.96,0,0,0-.449-2.838,4.971,4.971,0,0,0-3.861-2.769,5.068,5.068,0,0,0-3.235.676c-.684.415-.982.761-1.007.734" transform="translate(7.669 1.199)" fill="#e6e4f9"/>
            <path id="Trazado_157987" data-name="Trazado 157987" d="M489.215,72.072a1.194,1.194,0,0,1-.158-.083l-.469-.271-1.846-1.091.058-.007-3.273,3.43.009-.092,1.579,2.39.028.043-.024.046A11.6,11.6,0,0,0,484,79.292l-.013.057-.057.013-2.781.691.079-.1c.029,1.493.061,3.076.093,4.74l-.091-.111,2.807.579.071.015.02.07a11.493,11.493,0,0,0,1.224,2.8l.039.065-.039.066c-.46.76-.966,1.6-1.482,2.451l-.021-.16,3.416,3.289-.169-.015,2.394-1.573.07-.046.073.041a11.517,11.517,0,0,0,2.843,1.115l.082.02.02.083c.214.871.449,1.823.685,2.783l-.141-.109,4.74-.085-.139.116c.185-.887.383-1.842.583-2.806l.018-.086.085-.024a11.433,11.433,0,0,0,2.8-1.215h0l.076-.046.074.046,2.45,1.485-.18.023,3.294-3.41-.017.179-1.569-2.4-.048-.073.043-.075a11.51,11.51,0,0,0,1.119-2.841l.02-.083.083-.019,2.784-.68-.106.137q-.041-2.427-.079-4.74l.107.129L506.46,79l-.078-.016-.021-.075a11.475,11.475,0,0,0-1.214-2.806l-.04-.065.04-.065,1.489-2.447.019.149-3.4-3.3.138.013-2.4,1.564-.054.036-.055-.031a11.567,11.567,0,0,0-2.848-1.129l-.057-.014-.013-.056-.673-2.786.085.066-4.741.062.063-.052-.6,2.8-.006.027-.026.008a11.988,11.988,0,0,0-2.168.834l-.51.266a1.145,1.145,0,0,1-.17.086,1.409,1.409,0,0,1,.158-.108c.108-.067.272-.167.5-.287a11.2,11.2,0,0,1,2.163-.882l-.033.036c.154-.767.339-1.688.566-2.809l.01-.052h.053l4.74-.1.068,0,.017.068c.213.859.44,1.77.692,2.78l-.07-.07a11.731,11.731,0,0,1,2.9,1.133l-.108,0,2.392-1.576.074-.049.065.062,3.417,3.287.07.067-.051.083L505.362,76.1v-.13a11.789,11.789,0,0,1,1.249,2.864l-.1-.092,2.806.581.106.021v.108q.044,2.313.088,4.74l0,.111-.108.027-2.783.684.1-.1a11.781,11.781,0,0,1-1.144,2.912l-.005-.148q.777,1.185,1.571,2.395l.063.1-.08.083-3.292,3.412-.081.084-.1-.061L501.213,92.2h.15l0,0a11.8,11.8,0,0,1-2.868,1.245l.1-.11c-.2.963-.4,1.919-.585,2.805l-.023.114h-.116l-4.74.081-.115,0-.026-.111-.68-2.784.1.1A11.782,11.782,0,0,1,489.5,92.4l.143-.005-2.4,1.568-.09.06-.078-.076-3.406-3.3-.075-.072.054-.089,1.489-2.447v.13a11.739,11.739,0,0,1-1.24-2.866l.091.084-2.805-.589-.089-.019,0-.091c-.025-1.664-.05-3.248-.072-4.74v-.083l.08-.02,2.785-.674-.07.07a11.773,11.773,0,0,1,1.15-2.895l0,.088-1.561-2.4-.032-.05.042-.043,3.312-3.391.026-.027.031.02,1.8,1.122.464.295a1.321,1.321,0,0,1,.157.108" transform="translate(7.528 1.062)" fill="#e6e4f9"/>
            <path id="Trazado_157988" data-name="Trazado 157988" d="M275.325,154.391a11.648,11.648,0,0,1,2.835-1.232l.584-2.805,4.74-.083.683,2.783a11.617,11.617,0,0,1,2.876,1.131l2.4-1.57,3.411,3.294-1.485,2.449a11.631,11.631,0,0,1,1.232,2.836l2.805.584.083,4.74-2.783.683a11.6,11.6,0,0,1-1.131,2.875l1.57,2.4-3.294,3.411L287.4,174.4a11.654,11.654,0,0,1-2.836,1.232l-.583,2.805-4.741.083-.683-2.784a11.6,11.6,0,0,1-2.875-1.131l-2.4,1.57-3.412-3.293,1.485-2.45a11.647,11.647,0,0,1-1.232-2.835l-2.805-.584-.083-4.74,2.784-.683a11.617,11.617,0,0,1,1.131-2.876l-1.57-2.4,3.293-3.411Zm2.527,6.315a5.086,5.086,0,1,0,7.192-.127,5.087,5.087,0,0,0-7.192.127" transform="translate(4.182 2.352)" fill="#e6e4f9"/>
            <path id="Trazado_157989" data-name="Trazado 157989" d="M277.711,160.571a3.849,3.849,0,0,1,.947-.831,5.06,5.06,0,0,1,3.318-.785,5.132,5.132,0,0,1,2.256.8,5.206,5.206,0,0,1,1.823,2.055,5.209,5.209,0,0,1,.492,2.993,5.187,5.187,0,0,1-4.293,4.448,4.862,4.862,0,0,1-1.566.026,4.916,4.916,0,0,1-1.443-.411,5.213,5.213,0,0,1-2.118-1.751,5.115,5.115,0,0,1-.88-2.225,5.061,5.061,0,0,1,.667-3.344,3.841,3.841,0,0,1,.8-.976c.027.023-.307.334-.7,1.032a5.077,5.077,0,0,0-.563,3.256,4.971,4.971,0,0,0,2.9,3.762,4.961,4.961,0,0,0,2.852.349,4.929,4.929,0,0,0,4.057-4.2,4.982,4.982,0,0,0-.449-2.838,4.971,4.971,0,0,0-3.861-2.769,5.068,5.068,0,0,0-3.235.676c-.684.415-.982.761-1.007.734" transform="translate(4.322 2.487)" fill="#e6e4f9"/>
            <path id="Trazado_157990" data-name="Trazado 157990" d="M275.326,154.393a1.048,1.048,0,0,1-.158-.083l-.469-.271-1.846-1.091.058-.007-3.273,3.43.009-.092,1.579,2.39.028.043-.024.046a11.553,11.553,0,0,0-1.113,2.857l-.014.057-.057.013-2.781.691.079-.1c.029,1.493.061,3.076.093,4.74l-.09-.111,2.806.579.071.015.02.07a11.492,11.492,0,0,0,1.224,2.8l.039.065-.039.066c-.46.76-.966,1.6-1.482,2.451l-.021-.16,3.416,3.289-.169-.015,2.394-1.573.07-.046.073.041a11.518,11.518,0,0,0,2.843,1.115l.082.02.02.083c.214.871.449,1.823.685,2.783l-.141-.109,4.74-.085-.139.116c.185-.887.383-1.842.584-2.806l.017-.086.085-.024a11.433,11.433,0,0,0,2.8-1.215h0l.076-.046.074.046,2.45,1.485-.181.023q1.671-1.728,3.295-3.41l-.017.179-1.569-2.4-.048-.073.043-.075a11.471,11.471,0,0,0,1.119-2.841l.02-.083.083-.019,2.784-.68-.106.137q-.041-2.427-.079-4.74l.107.129-2.8-.588-.078-.016-.021-.075a11.474,11.474,0,0,0-1.214-2.806l-.04-.065.04-.065,1.489-2.447.019.149-3.4-3.3.138.013-2.4,1.564-.054.036-.055-.031a11.552,11.552,0,0,0-2.848-1.129l-.057-.014-.013-.056-.673-2.786.085.066-4.741.062.063-.052-.6,2.8-.006.027-.026.008a11.988,11.988,0,0,0-2.168.834l-.51.266a1.148,1.148,0,0,1-.17.086,1.408,1.408,0,0,1,.158-.108c.108-.067.272-.167.5-.287a11.2,11.2,0,0,1,2.163-.882l-.032.036c.154-.767.339-1.688.566-2.809l.01-.052h.053l4.74-.1.068,0,.017.068c.213.859.44,1.77.692,2.78l-.07-.07a11.747,11.747,0,0,1,2.9,1.133l-.108,0,2.392-1.576.074-.049.064.062,3.418,3.287.07.067-.051.083-1.481,2.451v-.13a11.788,11.788,0,0,1,1.249,2.864l-.1-.092,2.806.581.106.021,0,.108q.043,2.313.087,4.74l0,.111-.108.027-2.783.684.1-.1a11.779,11.779,0,0,1-1.144,2.912l-.005-.148q.777,1.185,1.571,2.395l.063.1-.08.083-3.292,3.412-.081.084-.1-.061-2.449-1.485h.15l0,0a11.8,11.8,0,0,1-2.868,1.245l.1-.11c-.2.963-.4,1.919-.584,2.805l-.024.114h-.116l-4.74.081-.115,0-.026-.111c-.235-.961-.467-1.911-.681-2.784l.1.1a11.782,11.782,0,0,1-2.909-1.148l.143-.005-2.4,1.568-.09.06-.078-.076-3.406-3.3-.075-.072.054-.089,1.489-2.447v.13a11.743,11.743,0,0,1-1.24-2.866l.091.084-2.805-.589-.089-.019,0-.091c-.025-1.664-.049-3.248-.072-4.74v-.083l.08-.02L270,161.5l-.069.07a11.731,11.731,0,0,1,1.149-2.895l0,.088-1.561-2.4-.033-.05.042-.043,3.312-3.391.026-.027.031.02,1.8,1.122.464.295a1.321,1.321,0,0,1,.157.108" transform="translate(4.18 2.35)" fill="#e6e4f9"/>
            <path id="Trazado_157991" data-name="Trazado 157991" d="M297.417,227.155a36.776,36.776,0,0,1,8.982-3.9l1.85-8.891,15.021-.263,2.161,8.819a36.8,36.8,0,0,1,9.114,3.586l7.591-4.977,10.809,10.436-4.706,7.76a36.805,36.805,0,0,1,3.9,8.984l8.889,1.85.264,15.021-8.819,2.161a36.834,36.834,0,0,1-3.585,9.113l4.975,7.592-10.434,10.809-7.761-4.707a36.8,36.8,0,0,1-8.983,3.9l-1.85,8.891-15.02.263-2.162-8.82a36.833,36.833,0,0,1-9.113-3.585l-7.591,4.977-10.809-10.436,4.706-7.761a36.782,36.782,0,0,1-3.9-8.983l-8.89-1.849-.264-15.02,8.82-2.162a36.835,36.835,0,0,1,3.585-9.113l-4.976-7.592,10.434-10.808Zm8.007,20.01a16.116,16.116,0,1,0,22.788-.4A16.116,16.116,0,0,0,305.424,247.165Z" transform="translate(4.253 3.35)" fill="none" stroke="#e1e1e1" stroke-miterlimit="10" stroke-width="0.05"/>
            <path id="Trazado_157992" data-name="Trazado 157992" d="M304.98,246.736a12.178,12.178,0,0,1,3-2.634,16.047,16.047,0,0,1,10.515-2.485,16.233,16.233,0,0,1,7.145,2.538,16.5,16.5,0,0,1,5.779,6.511,16.523,16.523,0,0,1,1.556,9.484,16.439,16.439,0,0,1-13.6,14.092,16.523,16.523,0,0,1-9.535-1.222,16.5,16.5,0,0,1-6.71-5.547,16.232,16.232,0,0,1-2.788-7.053,16.043,16.043,0,0,1,2.116-10.594,12.159,12.159,0,0,1,2.526-3.091c.087.074-.973,1.057-2.214,3.269a16.067,16.067,0,0,0-1.781,10.317,15.746,15.746,0,0,0,9.2,11.921,15.737,15.737,0,0,0,9.035,1.108,15.615,15.615,0,0,0,12.859-13.321,15.756,15.756,0,0,0-1.424-8.99,15.75,15.75,0,0,0-12.236-8.775,16.072,16.072,0,0,0-10.249,2.143c-2.167,1.318-3.113,2.413-3.19,2.328" transform="translate(4.697 3.78)" fill="#cfc4ff"/>
            <path id="Trazado_157993" data-name="Trazado 157993" d="M297.422,227.159a3.5,3.5,0,0,1-.5-.264l-1.488-.86-5.85-3.455.183-.023-10.372,10.867.027-.29c1.517,2.294,3.2,4.843,5.006,7.571l.09.137-.08.144a36.793,36.793,0,0,0-3.527,9.054l-.043.178-.18.045c-2.746.682-5.72,1.419-8.813,2.188l.25-.326c.094,4.73.194,9.749.3,15.019l-.289-.349,8.893,1.832.226.048.063.222a36.611,36.611,0,0,0,3.878,8.881l.125.206-.125.207c-1.455,2.407-3.06,5.063-4.694,7.768l-.066-.51,10.821,10.422-.535-.051,7.587-4.983.222-.146.233.129a36.551,36.551,0,0,0,9.006,3.535l.263.064.064.263,2.168,8.819-.448-.345,15.02-.27-.441.366,1.848-8.89.057-.274.268-.076a36.436,36.436,0,0,0,8.862-3.849l.008-.005.243-.143.236.143,7.762,4.707-.571.074,10.437-10.805-.054.569-4.972-7.594-.151-.23.134-.24a36.37,36.37,0,0,0,3.547-9l.066-.264.263-.063,8.82-2.156-.335.436q-.126-7.692-.249-15.02l.338.408-8.887-1.861-.246-.052-.068-.241a36.48,36.48,0,0,0-3.847-8.89l-.125-.208.125-.206,4.719-7.751.062.474L341.9,221.786l.44.042-7.6,4.956-.169.11-.175-.1a36.661,36.661,0,0,0-9.025-3.58l-.18-.045-.043-.178-2.132-8.826.27.208-15.022.2.2-.165c-.762,3.546-1.386,6.455-1.907,8.878l-.018.089-.086.024a38.139,38.139,0,0,0-6.869,2.642l-1.616.844a3.538,3.538,0,0,1-.538.274,4.692,4.692,0,0,1,.5-.341c.343-.21.864-.528,1.583-.912a35.563,35.563,0,0,1,6.858-2.793l-.1.113c.49-2.429,1.077-5.346,1.793-8.9l.033-.161.167,0,15.019-.329.217-.005.053.213c.677,2.725,1.394,5.609,2.192,8.812l-.222-.222a37.139,37.139,0,0,1,9.2,3.59l-.343.012,7.58-4.994.235-.155.205.2,10.828,10.412.221.213-.159.263-4.692,7.768v-.413a37.241,37.241,0,0,1,3.959,9.077l-.314-.293q4.366.9,8.892,1.839l.332.069.006.34q.137,7.326.279,15.02l.007.35-.342.084-8.818,2.169.328-.328a37.271,37.271,0,0,1-3.624,9.227l-.017-.468,4.979,7.589.2.306-.254.263L343.77,295.577l-.256.265-.315-.192-7.762-4.7h.478l-.008,0a37.314,37.314,0,0,1-9.088,3.947l.325-.349-1.852,8.89-.075.359-.367.006-15.02.258-.362.006-.086-.351c-.744-3.044-1.481-6.058-2.156-8.821l.327.327a37.34,37.34,0,0,1-9.219-3.636l.453-.016c-2.632,1.723-5.231,3.422-7.6,4.969l-.288.189-.246-.239c-3.749-3.627-7.405-7.166-10.8-10.448l-.237-.229.171-.281c1.642-2.7,3.254-5.35,4.717-7.753v.412a37.254,37.254,0,0,1-3.93-9.085l.289.269-8.887-1.868-.284-.06-.005-.289c-.081-5.271-.157-10.291-.23-15.021l0-.263.256-.062,8.825-2.138-.222.222a37.185,37.185,0,0,1,3.643-9.172l.01.28-4.945-7.611-.1-.158.13-.133,10.5-10.748.083-.085.1.062,5.717,3.557,1.471.934a4.6,4.6,0,0,1,.5.34" transform="translate(4.248 3.346)" fill="#cfc4ff"/>
            <path id="Trazado_157994" data-name="Trazado 157994" d="M552.5,77.808a24.784,24.784,0,0,1,6.511,1l4.242-4.394,8.64,5.24-1.934,5.793a24.732,24.732,0,0,1,3.9,5.31l6.105-.107,2.405,9.815-5.462,2.727a24.727,24.727,0,0,1-1,6.511l4.394,4.242-5.24,8.641-5.793-1.935a24.806,24.806,0,0,1-5.31,3.9l.107,6.1-9.815,2.406-2.727-5.462a24.743,24.743,0,0,1-6.511-1l-4.243,4.395-8.64-5.24,1.935-5.794a24.741,24.741,0,0,1-3.9-5.31l-6.105.108-2.405-9.815,5.462-2.727a24.741,24.741,0,0,1,1-6.512l-4.395-4.242,5.24-8.64,5.794,1.934a24.743,24.743,0,0,1,5.31-3.9l-.107-6.105,9.814-2.405Zm-2.625,14.258a10.84,10.84,0,1,0,13.109,7.948,10.839,10.839,0,0,0-13.109-7.948" transform="translate(8.163 1.132)" fill="#cfc4ff"/>
            <path id="Trazado_157995" data-name="Trazado 157995" d="M549.572,91.769a8.182,8.182,0,0,1,2.652-.421,10.791,10.791,0,0,1,6.874,2.358,10.921,10.921,0,0,1,3.155,4.009,11.091,11.091,0,0,1,.952,5.777,11.112,11.112,0,0,1-2.518,5.956,11.061,11.061,0,0,1-12.8,3.136,11.119,11.119,0,0,1-4.987-4.117,11.1,11.1,0,0,1-1.827-5.564,10.931,10.931,0,0,1,.945-5.013,10.8,10.8,0,0,1,5.005-5.268,8.18,8.18,0,0,1,2.546-.852c.023.073-.933.253-2.433,1.065a10.815,10.815,0,0,0-4.716,5.231,10.6,10.6,0,0,0,.958,10.083,10.587,10.587,0,0,0,4.743,3.873,10.5,10.5,0,0,0,12.1-2.965,10.613,10.613,0,0,0,2.415-5.626,10.6,10.6,0,0,0-3.813-9.384,10.807,10.807,0,0,0-6.6-2.458c-1.707-.027-2.638.256-2.651.18" transform="translate(8.467 1.429)" fill="#cfc4ff"/>
            <path id="Trazado_157996" data-name="Trazado 157996" d="M552.505,77.81a2.454,2.454,0,0,1-.19-.33l-.538-1.024-2.088-4.065.112.052L540,74.905l.12-.155c.04,1.849.084,3.905.132,6.1l0,.11-.1.054A24.748,24.748,0,0,0,534.9,84.9l-.088.086-.118-.04-5.8-1.918.259-.1-5.219,8.652-.04-.3,4.4,4.234.112.108-.044.149a24.655,24.655,0,0,0-.98,6.444l0,.161-.145.073-5.458,2.735.145-.314c.759,3.082,1.578,6.406,2.417,9.812l-.286-.22,6.105-.113.179,0,.085.156a24.622,24.622,0,0,0,3.855,5.243l.127.131-.058.173c-.605,1.815-1.264,3.8-1.931,5.8l-.131-.356,8.642,5.236-.382.05,4.241-4.395.131-.136.18.054a24.545,24.545,0,0,0,6.424.989h.006l.189.005.083.167q1.373,2.751,2.727,5.462l-.351-.163,9.815-2.4-.235.3q-.052-3.082-.1-6.105l0-.185.162-.087a24.48,24.48,0,0,0,5.247-3.848l.132-.126.173.058,5.792,1.939-.347.127q2.687-4.421,5.248-8.635l.047.353-4.389-4.247-.122-.118.048-.161a24.574,24.574,0,0,0,1-6.437l0-.164.145-.073,5.466-2.717-.135.293c-.839-3.454-1.631-6.715-2.385-9.82l.235.182-6.1.091-.136,0-.064-.118a24.67,24.67,0,0,0-3.85-5.275l-.085-.09.039-.116c.711-2.1,1.35-4,1.954-5.787l.079.215-8.618-5.278.173-.022-4.271,4.367-.043.044-.058-.017a25.577,25.577,0,0,0-4.856-.961l-1.222-.1a2.464,2.464,0,0,1-.405-.038,3.287,3.287,0,0,1,.407-.014c.271,0,.68.009,1.228.049a23.991,23.991,0,0,1,4.9.871l-.1.026,4.214-4.421.077-.08.1.058,8.662,5.2.126.075-.047.14-1.915,5.8-.047-.206a24.952,24.952,0,0,1,3.947,5.345l-.2-.117,6.1-.122.19,0,.046.185c.767,3.1,1.571,6.359,2.424,9.81l.05.2-.186.092-5.456,2.736.148-.235a25.082,25.082,0,0,1-1,6.584l-.073-.279q2.159,2.081,4.4,4.237l.164.158-.119.2-5.231,8.645-.123.2-.224-.074-5.794-1.93.3-.069a25.06,25.06,0,0,1-5.373,3.949l.158-.272q.055,3.023.11,6.1l0,.246-.239.059-9.814,2.408-.241.059-.111-.222q-1.353-2.707-2.727-5.461l.271.172h-.006a25.092,25.092,0,0,1-6.586-1.015l.311-.082-4.243,4.393-.172.178-.211-.128-8.638-5.244-.208-.126.077-.231,1.939-5.792.068.3a25.133,25.133,0,0,1-3.941-5.377l.264.153-6.105.1-.232,0-.055-.223-2.393-9.818-.053-.215.2-.1L527,101.976l-.148.235a25.078,25.078,0,0,1,1.024-6.578l.069.256c-1.534-1.485-3.029-2.934-4.387-4.25l-.14-.137.1-.167,5.259-8.628.092-.151.168.056,5.788,1.951-.206.047a24.974,24.974,0,0,1,5.364-3.911l-.094.163c-.029-2.2-.058-4.255-.082-6.105l0-.126.122-.029,9.828-2.348.078-.019.035.071,1.976,4.076.5,1.058a2.891,2.891,0,0,1,.161.373" transform="translate(8.158 1.13)" fill="#cfc4ff"/>
            <path id="Trazado_157997" data-name="Trazado 157997" d="M580.063,267.252a8.27,8.27,0,0,1,2.676-.426,10.889,10.889,0,0,1,6.938,2.381,11,11,0,0,1,3.184,4.045,11.194,11.194,0,0,1,.961,5.831,11.211,11.211,0,0,1-2.541,6.011,11.164,11.164,0,0,1-12.915,3.166,11.22,11.22,0,0,1-5.034-4.155,11.206,11.206,0,0,1-1.844-5.616,11.029,11.029,0,0,1,.954-5.06,10.887,10.887,0,0,1,5.052-5.317,8.259,8.259,0,0,1,2.57-.86c.023.074-.942.255-2.456,1.076a10.915,10.915,0,0,0-4.759,5.279,10.693,10.693,0,0,0,.966,10.177,10.693,10.693,0,0,0,4.788,3.908A10.6,10.6,0,0,0,590.81,284.7a10.685,10.685,0,0,0,2.438-5.678,10.689,10.689,0,0,0-3.848-9.47,10.909,10.909,0,0,0-6.661-2.481c-1.723-.027-2.662.258-2.675.182" transform="translate(8.943 4.175)" fill="#cfc4ff"/>
            <path id="Trazado_157998" data-name="Trazado 157998" d="M583.024,253.163a2.344,2.344,0,0,1-.192-.333l-.543-1.033c-.489-.952-1.192-2.323-2.107-4.1l.114.052-9.892,2.485.122-.157c.04,1.867.085,3.941.133,6.161l0,.111-.1.054a24.97,24.97,0,0,0-5.3,3.921l-.089.086-.119-.04c-1.825-.6-3.8-1.256-5.853-1.935l.262-.1-5.268,8.733-.04-.306,4.442,4.273.113.11-.044.15a24.876,24.876,0,0,0-.99,6.5l0,.164-.147.074-5.509,2.759.147-.317c.766,3.111,1.593,6.466,2.439,9.9l-.288-.222,6.161-.115.181,0,.086.158a24.821,24.821,0,0,0,3.892,5.292l.127.132-.058.175c-.61,1.832-1.277,3.83-1.949,5.849l-.132-.361,8.723,5.284-.386.051,4.281-4.436.132-.136.182.054a24.76,24.76,0,0,0,6.483,1h.006l.191.005.083.169,2.752,5.513-.354-.165,9.907-2.425-.237.308q-.053-3.111-.106-6.162l0-.186.164-.089a24.689,24.689,0,0,0,5.3-3.883l.134-.128.174.059,5.846,1.956-.35.129q2.712-4.464,5.3-8.715l.047.357-4.429-4.287-.123-.119.049-.162a24.818,24.818,0,0,0,1.01-6.5l0-.165.146-.073,5.517-2.743-.137.3c-.846-3.486-1.645-6.777-2.407-9.911l.238.183-6.161.093-.137,0-.065-.12a24.856,24.856,0,0,0-3.886-5.324l-.086-.09.04-.118c.717-2.123,1.362-4.034,1.971-5.841l.08.217-8.7-5.326.174-.023-4.31,4.408-.044.044-.058-.017a25.87,25.87,0,0,0-4.9-.97l-1.234-.1a2.51,2.51,0,0,1-.408-.038,3.348,3.348,0,0,1,.411-.014c.273,0,.687.009,1.239.049a24.223,24.223,0,0,1,4.949.881l-.1.026,4.254-4.463.076-.081.1.059,8.744,5.25.127.076-.047.141c-.6,1.81-1.231,3.726-1.933,5.853l-.047-.208a25.186,25.186,0,0,1,3.983,5.4l-.2-.117,6.161-.124.191,0,.047.187c.773,3.129,1.586,6.418,2.447,9.9l.05.2-.187.093-5.507,2.762.149-.238a25.292,25.292,0,0,1-1.014,6.646l-.074-.281,4.439,4.276.167.16-.12.2-5.279,8.725-.123.2-.227-.076-5.848-1.947.307-.07a25.284,25.284,0,0,1-5.423,3.986l.159-.275q.055,3.05.111,6.161l.005.248-.242.059-9.9,2.43-.243.06-.112-.224q-1.367-2.733-2.753-5.512l.274.173h-.006a25.33,25.33,0,0,1-6.647-1.025l.313-.083-4.282,4.434-.174.179-.213-.129-8.718-5.292-.21-.128.078-.233c.675-2.017,1.344-4.015,1.956-5.846l.07.307a25.36,25.36,0,0,1-3.977-5.427l.266.154-6.162.1-.234,0-.055-.227c-.839-3.441-1.657-6.8-2.415-9.91l-.053-.217.2-.1,5.516-2.743-.149.237a25.315,25.315,0,0,1,1.033-6.64l.069.259-4.426-4.29-.142-.138.1-.168,5.308-8.708.093-.153.169.057,5.842,1.969-.207.047a25.183,25.183,0,0,1,5.413-3.948l-.1.165c-.029-2.219-.058-4.294-.082-6.161l0-.128.123-.029,9.92-2.371.079-.019.035.072q1.3,2.677,1.994,4.113c.216.455.383.806.507,1.068a2.877,2.877,0,0,1,.162.376" transform="translate(8.631 3.874)" fill="#cfc4ff"/>
            <path id="Trazado_157999" data-name="Trazado 157999" d="M270.686,455.652v31.326h96.335V455.652Z" transform="translate(4.236 7.13)" fill="#e6e4f9"/>
            <path id="Trazado_158000" data-name="Trazado 158000" d="M266.706,447.029v8.758H370.453v-8.758H266.706Z" transform="translate(4.174 6.996)" fill="#cfc4ff"/>
            <path id="Trazado_158001" data-name="Trazado 158001" d="M317.811,487.113h48.5V455.787h3.369v-8.758H315.79v7.947Z" transform="translate(4.942 6.996)" fill="#cfc4ff"/>
            <rect id="Rectángulo_10821" data-name="Rectángulo 10821" width="19.537" height="4.716" transform="translate(288.396 467.834)" fill="#cfc4ff"/>
            <rect id="Rectángulo_10822" data-name="Rectángulo 10822" width="25.087" height="9.957" transform="translate(285.881 478.445)" fill="#fff"/>
            <path id="Trazado_158002" data-name="Trazado 158002" d="M285.279,416.227v31.326h96.335V416.227Z" transform="translate(4.464 6.514)" fill="#e6e4f9"/>
            <path id="Trazado_158003" data-name="Trazado 158003" d="M281.3,407.6v8.758H385.046V407.6H281.3Z" transform="translate(4.402 6.379)" fill="#cfc4ff"/>
            <path id="Trazado_158004" data-name="Trazado 158004" d="M332.4,447.688h48.5V416.362h3.369V407.6H330.383v7.947Z" transform="translate(5.17 6.379)" fill="#cfc4ff"/>
            <rect id="Rectángulo_10823" data-name="Rectángulo 10823" width="19.537" height="4.716" transform="translate(303.217 427.791)" fill="#cfc4ff"/>
            <rect id="Rectángulo_10824" data-name="Rectángulo 10824" width="25.087" height="9.957" transform="translate(300.702 438.403)" fill="#fff"/>
            <path id="Trazado_158005" data-name="Trazado 158005" d="M1016.913,486.5c0,.146-227.662.264-508.433.264C227.614,486.763,0,486.645,0,486.5s227.614-.264,508.48-.264c280.771,0,508.433.118,508.433.264" transform="translate(0 7.609)" fill="#1a2e35"/>
            <path id="Trazado_158006" data-name="Trazado 158006" d="M291.577,46.413a48.835,48.835,0,0,1,11.943-5.141l2.5-11.8,19.943-.28,2.83,11.719a48.854,48.854,0,0,1,12.084,4.8l10.1-6.571,14.3,13.9-6.283,10.281a48.789,48.789,0,0,1,5.141,11.945l11.794,2.5.281,19.942-11.719,2.831a48.867,48.867,0,0,1-4.8,12.082l6.571,10.1-13.9,14.3-10.282-6.283a48.868,48.868,0,0,1-11.945,5.14l-2.5,11.795-19.944.281-2.83-11.72a48.942,48.942,0,0,1-12.083-4.8l-10.1,6.571-14.3-13.9,6.284-10.282a48.825,48.825,0,0,1-5.141-11.944l-11.795-2.5-.281-19.943,11.721-2.831a48.891,48.891,0,0,1,4.8-12.082l-6.571-10.1,13.9-14.3Z" transform="translate(4.029 0.457)" fill="#ae9bff" fill-rule="evenodd"/>
            <path id="Trazado_158007" data-name="Trazado 158007" d="M42.052,126.959a50.068,50.068,0,0,1,12.235-5.267l2.558-12.083,20.431-.287,2.9,12a50.073,50.073,0,0,1,12.379,4.919l10.348-6.732,14.65,14.243-6.436,10.533a50.016,50.016,0,0,1,5.266,12.237l12.083,2.558.288,20.43-12.006,2.9a50.022,50.022,0,0,1-4.92,12.379l6.732,10.348-14.242,14.651-10.533-6.436a50.02,50.02,0,0,1-12.237,5.266L78.989,230.7l-20.431.288-2.9-12.006a50.084,50.084,0,0,1-12.378-4.92L32.932,220.8,18.282,206.555l6.437-10.533a50,50,0,0,1-5.267-12.236L7.369,181.228,7.081,160.8l12.006-2.9a50.109,50.109,0,0,1,4.92-12.378l-6.733-10.349,14.242-14.651Z" transform="translate(0.111 1.711)" fill="#7b65d8" fill-rule="evenodd"/>
            <path id="Trazado_158008" data-name="Trazado 158008" d="M913.005,123.365a59.692,59.692,0,0,1,14.585-6.279l3.05-14.4L955,102.339l3.454,14.31a59.684,59.684,0,0,1,14.757,5.864l12.337-8.025,17.464,16.98-7.673,12.556a59.628,59.628,0,0,1,6.279,14.587l14.4,3.05.344,24.355-14.313,3.456a59.709,59.709,0,0,1-5.864,14.755l8.025,12.337-16.978,17.465-12.557-7.673a59.623,59.623,0,0,1-14.587,6.278l-3.05,14.4-24.355.343-3.456-14.313a59.646,59.646,0,0,1-14.755-5.864l-12.337,8.026-17.465-16.979,7.673-12.556a59.633,59.633,0,0,1-6.278-14.588l-14.4-3.05-.343-24.354,14.313-3.456a59.666,59.666,0,0,1,5.863-14.755l-8.025-12.337,16.978-17.465Z" transform="translate(13.635 1.601)" fill="#ae9bff" fill-rule="evenodd"/>
            <path id="Trazado_158009" data-name="Trazado 158009" d="M139.493,15.138a42.978,42.978,0,0,1,10.5-4.521L152.19.247,169.725,0l2.487,10.3a42.978,42.978,0,0,1,10.625,4.222l8.882-5.778,12.573,12.225-5.524,9.039a42.93,42.93,0,0,1,4.521,10.5l10.37,2.2.247,17.534-10.3,2.488a42.971,42.971,0,0,1-4.222,10.624l5.778,8.882L192.933,94.813l-9.04-5.524a42.9,42.9,0,0,1-10.5,4.52l-2.2,10.371-17.535.247-2.487-10.3A42.915,42.915,0,0,1,140.549,89.9l-8.882,5.778L119.092,83.453l5.525-9.039a42.914,42.914,0,0,1-4.521-10.5l-10.37-2.2-.247-17.534,10.3-2.488a42.949,42.949,0,0,1,4.222-10.623l-5.778-8.883L130.451,9.613Z" transform="translate(1.713 0)" fill="#856de9" fill-rule="evenodd"/>
            <path id="Trazado_158010" data-name="Trazado 158010" d="M762.627,104.768a51.648,51.648,0,0,1,12.618-5.433l2.639-12.461,21.071-.3,2.99,12.381a51.622,51.622,0,0,1,12.767,5.073l10.673-6.943,15.109,14.69-6.638,10.863a51.563,51.563,0,0,1,5.432,12.62l12.461,2.639.3,21.071-12.382,2.989a51.606,51.606,0,0,1-5.074,12.767l6.943,10.673-14.688,15.11-10.864-6.638a51.6,51.6,0,0,1-12.62,5.432l-2.638,12.461-21.072.3-2.989-12.383a51.645,51.645,0,0,1-12.767-5.073l-10.672,6.943-15.111-14.69L744.75,176a51.583,51.583,0,0,1-5.433-12.62l-12.461-2.639-.3-21.071,12.382-2.99a51.677,51.677,0,0,1,5.073-12.766l-6.943-10.673,14.689-15.11Z" transform="translate(11.37 1.355)" fill="#7b65d8" fill-rule="evenodd"/>
            <path id="Trazado_158011" data-name="Trazado 158011" d="M425.967,120.793a62.727,62.727,0,0,1,15.33-6.6L444.5,99.054l25.6-.361,3.632,15.042a62.677,62.677,0,0,1,15.511,6.164l12.967-8.435,18.356,17.847-8.064,13.2a62.675,62.675,0,0,1,6.6,15.333l15.139,3.205.362,25.6-15.043,3.632a62.689,62.689,0,0,1-6.165,15.509l8.436,12.968L503.983,237.11l-13.2-8.065a62.747,62.747,0,0,1-15.331,6.6l-3.205,15.139-25.6.361L443.017,236.1a62.748,62.748,0,0,1-15.51-6.164l-12.966,8.435-18.357-17.846,8.064-13.2A62.7,62.7,0,0,1,397.65,192l-15.139-3.205-.361-25.6,15.044-3.633a62.7,62.7,0,0,1,6.163-15.509l-8.435-12.967,17.845-18.357Z" transform="translate(5.98 1.544)" fill="#7b65d8" fill-rule="evenodd"/>
            <path id="Trazado_158012" data-name="Trazado 158012" d="M591.235,160.919a40.668,40.668,0,0,1,9.878-4.436l1.926-9.854,16.6-.494,2.509,9.721a40.688,40.688,0,0,1,10.124,3.841l8.326-5.6,12.089,11.392-5.1,8.643a40.706,40.706,0,0,1,4.435,9.879l9.854,1.927.494,16.6-9.722,2.509a40.666,40.666,0,0,1-3.841,10.124l5.6,8.326-11.39,12.089-8.644-5.1a40.671,40.671,0,0,1-9.879,4.436l-1.926,9.854-16.6.494-2.509-9.723a40.664,40.664,0,0,1-10.124-3.841l-8.326,5.6-12.089-11.391,5.1-8.643a40.648,40.648,0,0,1-4.436-9.879l-9.854-1.927-.494-16.6,9.722-2.51a40.732,40.732,0,0,1,3.841-10.123l-5.6-8.326L582.59,155.82Z" transform="translate(8.814 2.287)" fill="#856de9" fill-rule="evenodd"/>
            <path id="Trazado_158013" data-name="Trazado 158013" d="M652.245,31.19a49.109,49.109,0,0,1,11.917-5.352l2.324-11.888,20.031-.6,3.026,11.728a49.081,49.081,0,0,1,12.215,4.634l10.045-6.76L726.386,36.7l-6.15,10.427a49.046,49.046,0,0,1,5.351,11.919l11.887,2.324.6,20.03-11.728,3.027a49.119,49.119,0,0,1-4.635,12.214l6.76,10.045-13.742,14.585-10.429-6.15a49.094,49.094,0,0,1-11.918,5.351l-2.324,11.888-20.031.6L667,121.224a49.1,49.1,0,0,1-12.213-4.633l-10.045,6.76-14.585-13.743,6.151-10.428a49.028,49.028,0,0,1-5.352-11.919l-11.887-2.324-.6-20.03,11.73-3.027a49.065,49.065,0,0,1,4.633-12.213l-6.76-10.046,13.742-14.585Z" transform="translate(9.678 0.209)" fill="#ae9bff" fill-rule="evenodd"/>
            <path id="Trazado_158014" data-name="Trazado 158014" d="M364.916,214.051a17.724,17.724,0,0,1-1.854-5.805,17.661,17.661,0,0,1,1.854,5.805" transform="translate(5.681 3.259)" fill="#1a2e35"/>
            <path id="Trazado_158015" data-name="Trazado 158015" d="M375.593,235.524a40.863,40.863,0,0,1-6.058-10.535,54.014,54.014,0,0,1,3.095,5.231,54.556,54.556,0,0,1,2.964,5.3" transform="translate(5.783 3.521)" fill="#1a2e35"/>
            <path id="Trazado_158016" data-name="Trazado 158016" d="M391.237,253.571a40.2,40.2,0,0,1-8.516-8.669,55.545,55.545,0,0,1,4.306,4.287,55.912,55.912,0,0,1,4.21,4.382" transform="translate(5.989 3.832)" fill="#1a2e35"/>
            <path id="Trazado_158017" data-name="Trazado 158017" d="M411.044,266.915a39.19,39.19,0,0,1-10.5-6.115,57.035,57.035,0,0,1,5.279,3.01,57.926,57.926,0,0,1,5.223,3.1" transform="translate(6.268 4.081)" fill="#1a2e35"/>
            <path id="Trazado_158018" data-name="Trazado 158018" d="M433.77,274.186a33.5,33.5,0,0,1-6.02-.95,35.2,35.2,0,0,1-5.788-1.907,35.155,35.155,0,0,1,5.913,1.393,37.1,37.1,0,0,1,5.895,1.464" transform="translate(6.603 4.246)" fill="#1a2e35"/>
            <path id="Trazado_158019" data-name="Trazado 158019" d="M457.643,274.671a26.293,26.293,0,0,1-6.05.718,25.893,25.893,0,0,1-6.091-.187,54.966,54.966,0,0,1,6.067-.342,53.305,53.305,0,0,1,6.074-.189" transform="translate(6.972 4.297)" fill="#1a2e35"/>
            <path id="Trazado_158020" data-name="Trazado 158020" d="M480.967,269.512a43.214,43.214,0,0,1-11.7,3.279,186.73,186.73,0,0,1,11.7-3.279" transform="translate(7.343 4.217)" fill="#1a2e35"/>
            <path id="Trazado_158021" data-name="Trazado 158021" d="M502.6,259.377a26.435,26.435,0,0,1-5.143,3.267,26.713,26.713,0,0,1-5.56,2.494,51.405,51.405,0,0,1,5.309-2.96,52.49,52.49,0,0,1,5.394-2.8" transform="translate(7.698 4.059)" fill="#1a2e35"/>
            <path id="Trazado_158022" data-name="Trazado 158022" d="M521.126,244.35A24.873,24.873,0,0,1,517,248.833a25.4,25.4,0,0,1-4.784,3.778,57.524,57.524,0,0,1,4.424-4.166,60.173,60.173,0,0,1,4.488-4.1" transform="translate(8.016 3.824)" fill="#1a2e35"/>
            <path id="Trazado_158023" data-name="Trazado 158023" d="M534.285,224.5a25.36,25.36,0,0,1-2.5,5.558,23.787,23.787,0,0,1-3.369,5.079c-.124-.084,1.3-2.395,2.906-5.333a57.124,57.124,0,0,1,2.962-5.3" transform="translate(8.269 3.513)" fill="#1a2e35"/>
            <path id="Trazado_158024" data-name="Trazado 158024" d="M542.451,202.021a35.078,35.078,0,0,1-1.647,5.858,34.987,34.987,0,0,1-2.149,5.693,35.34,35.34,0,0,1,1.647-5.859,35.266,35.266,0,0,1,2.149-5.692" transform="translate(8.429 3.161)" fill="#1a2e35"/>
            <path id="Trazado_158025" data-name="Trazado 158025" d="M550.111,179.34c.159.063-.779,2.617-1.871,5.787A35.173,35.173,0,0,1,546,190.78a35.118,35.118,0,0,1,1.747-5.833c.532-1.595,1.119-3,1.557-4.012a6.068,6.068,0,0,1,.81-1.6" transform="translate(8.544 2.806)" fill="#1a2e35"/>
            <path id="Trazado_158026" data-name="Trazado 158026" d="M560.75,157.916a54.35,54.35,0,0,1-2.875,5.353,49.9,49.9,0,0,1-3.035,5.267,27.284,27.284,0,0,1,2.572-5.523,26,26,0,0,1,3.338-5.1" transform="translate(8.683 2.471)" fill="#1a2e35"/>
            <path id="Trazado_158027" data-name="Trazado 158027" d="M576.763,140.245c.09.124-2.044,1.806-4.491,4.082s-4.314,4.253-4.43,4.15a22.812,22.812,0,0,1,4.072-4.538,21.956,21.956,0,0,1,4.85-3.694" transform="translate(8.886 2.195)" fill="#1a2e35"/>
            <path id="Trazado_158028" data-name="Trazado 158028" d="M598.363,130.147c.04.147-2.561.94-5.709,2.072s-5.656,2.18-5.72,2.041a23.7,23.7,0,0,1,5.541-2.539,24.415,24.415,0,0,1,5.888-1.574" transform="translate(9.185 2.036)" fill="#1a2e35"/>
            <path id="Trazado_158029" data-name="Trazado 158029" d="M622.077,127.509c-.009.152-2.726.085-6.07.205s-6.053.337-6.072.185a24.337,24.337,0,0,1,6.054-.714,23.521,23.521,0,0,1,6.087.324" transform="translate(9.545 1.99)" fill="#1a2e35"/>
            <path id="Trazado_158030" data-name="Trazado 158030" d="M645.138,133.463a57.239,57.239,0,0,1-5.743-1.982,59.81,59.81,0,0,1-5.709-2.079,24.969,24.969,0,0,1,5.887,1.58,25.451,25.451,0,0,1,5.566,2.48" transform="translate(9.916 2.025)" fill="#1a2e35"/>
            <path id="Trazado_158031" data-name="Trazado 158031" d="M665.476,145.96c-.1.116-2.236-1.563-4.965-3.5a59.468,59.468,0,0,1-4.925-3.56,24.955,24.955,0,0,1,5.232,3.129,24.434,24.434,0,0,1,4.659,3.931" transform="translate(10.259 2.174)" fill="#1a2e35"/>
            <path id="Trazado_158032" data-name="Trazado 158032" d="M677.392,159.2a25.688,25.688,0,0,1-3.617-4.9,13.469,13.469,0,0,1,3.617,4.9" transform="translate(10.544 2.415)" fill="#1a2e35"/>
            <path id="Trazado_158033" data-name="Trazado 158033" d="M681.4,168.189a17.66,17.66,0,0,1-1.854-5.805,17.725,17.725,0,0,1,1.854,5.805" transform="translate(10.634 2.541)" fill="#1a2e35"/>
            <path id="Trazado_158034" data-name="Trazado 158034" d="M692.08,189.661a25.977,25.977,0,0,1-3.424-5.041,26.208,26.208,0,0,1-2.636-5.495,53.987,53.987,0,0,1,3.095,5.231,55.066,55.066,0,0,1,2.965,5.3" transform="translate(10.735 2.803)" fill="#1a2e35"/>
            <path id="Trazado_158035" data-name="Trazado 158035" d="M707.724,207.708a40.2,40.2,0,0,1-8.516-8.669,55.546,55.546,0,0,1,4.306,4.287,55.936,55.936,0,0,1,4.21,4.382" transform="translate(10.942 3.115)" fill="#1a2e35"/>
            <path id="Trazado_158036" data-name="Trazado 158036" d="M727.531,221.052a39.188,39.188,0,0,1-10.5-6.115,57.353,57.353,0,0,1,5.279,3.01,58.3,58.3,0,0,1,5.223,3.1" transform="translate(11.221 3.363)" fill="#1a2e35"/>
            <path id="Trazado_158037" data-name="Trazado 158037" d="M750.257,228.323a33.506,33.506,0,0,1-6.02-.95,35.2,35.2,0,0,1-5.788-1.907,35.162,35.162,0,0,1,5.913,1.393,37.091,37.091,0,0,1,5.895,1.464" transform="translate(11.556 3.528)" fill="#1a2e35"/>
            <path id="Trazado_158038" data-name="Trazado 158038" d="M774.13,228.809a26.3,26.3,0,0,1-6.05.718,25.9,25.9,0,0,1-6.091-.187,54.674,54.674,0,0,1,6.067-.342,53.3,53.3,0,0,1,6.074-.189" transform="translate(11.924 3.58)" fill="#1a2e35"/>
            <path id="Trazado_158039" data-name="Trazado 158039" d="M797.454,223.649a43.163,43.163,0,0,1-11.7,3.277,51.274,51.274,0,0,1,5.826-1.734,50.651,50.651,0,0,1,5.878-1.544" transform="translate(12.296 3.5)" fill="#1a2e35"/>
            <path id="Trazado_158040" data-name="Trazado 158040" d="M819.083,213.515a42.279,42.279,0,0,1-10.7,5.762,51.6,51.6,0,0,1,5.31-2.96,52.489,52.489,0,0,1,5.394-2.8" transform="translate(12.65 3.341)" fill="#1a2e35"/>
            <path id="Trazado_158041" data-name="Trazado 158041" d="M837.612,198.487a24.87,24.87,0,0,1-4.129,4.483,25.357,25.357,0,0,1-4.784,3.778,57.491,57.491,0,0,1,4.424-4.166,60.2,60.2,0,0,1,4.488-4.1" transform="translate(12.968 3.106)" fill="#1a2e35"/>
            <path id="Trazado_158042" data-name="Trazado 158042" d="M850.772,178.637a25.367,25.367,0,0,1-2.5,5.558,23.786,23.786,0,0,1-3.369,5.079c-.124-.084,1.3-2.395,2.906-5.333a57.108,57.108,0,0,1,2.962-5.3" transform="translate(13.222 2.795)" fill="#1a2e35"/>
            <path id="Trazado_158043" data-name="Trazado 158043" d="M858.938,156.158a35.07,35.07,0,0,1-1.647,5.858,35,35,0,0,1-2.149,5.693,35.321,35.321,0,0,1,1.647-5.859,35.263,35.263,0,0,1,2.149-5.692" transform="translate(13.382 2.444)" fill="#1a2e35"/>
            <path id="Trazado_158044" data-name="Trazado 158044" d="M866.6,133.478c.159.063-.779,2.617-1.871,5.787a35.1,35.1,0,0,1-2.244,5.652,35.153,35.153,0,0,1,1.747-5.832c.532-1.595,1.119-3,1.557-4.012a6.067,6.067,0,0,1,.81-1.6" transform="translate(13.497 2.089)" fill="#1a2e35"/>
            <path id="Trazado_158045" data-name="Trazado 158045" d="M877.237,112.053a54.317,54.317,0,0,1-2.875,5.353,49.9,49.9,0,0,1-3.035,5.267,27.288,27.288,0,0,1,2.572-5.523,26,26,0,0,1,3.338-5.1" transform="translate(13.635 1.753)" fill="#1a2e35"/>
            <path id="Trazado_158046" data-name="Trazado 158046" d="M893.249,94.382c.09.124-2.044,1.806-4.491,4.082s-4.314,4.253-4.431,4.15a22.881,22.881,0,0,1,4.073-4.538,21.959,21.959,0,0,1,4.85-3.694" transform="translate(13.839 1.477)" fill="#1a2e35"/>
            <path id="Trazado_158047" data-name="Trazado 158047" d="M914.85,84.285c.038.147-2.562.94-5.71,2.072s-5.655,2.18-5.72,2.041a23.727,23.727,0,0,1,5.541-2.539,24.415,24.415,0,0,1,5.889-1.574" transform="translate(14.138 1.319)" fill="#1a2e35"/>
            <path id="Trazado_158048" data-name="Trazado 158048" d="M938.564,81.647c-.009.152-2.726.085-6.07.205s-6.053.337-6.072.185a24.332,24.332,0,0,1,6.053-.714,23.528,23.528,0,0,1,6.088.324" transform="translate(14.497 1.272)" fill="#1a2e35"/>
            <path id="Trazado_158049" data-name="Trazado 158049" d="M961.625,87.6a57.246,57.246,0,0,1-5.743-1.982,59.306,59.306,0,0,1-5.709-2.08,25.048,25.048,0,0,1,5.886,1.581,25.447,25.447,0,0,1,5.567,2.48" transform="translate(14.869 1.307)" fill="#1a2e35"/>
            <path id="Trazado_158050" data-name="Trazado 158050" d="M981.963,100.1c-.1.116-2.236-1.563-4.966-3.5a59.469,59.469,0,0,1-4.925-3.56,24.952,24.952,0,0,1,5.232,3.129,24.44,24.44,0,0,1,4.659,3.931" transform="translate(15.212 1.456)" fill="#1a2e35"/>
            <path id="Trazado_158051" data-name="Trazado 158051" d="M993.878,113.337A10.7,10.7,0,0,1,991.925,111a10.576,10.576,0,0,1-1.663-2.555,13.448,13.448,0,0,1,3.616,4.9" transform="translate(15.496 1.697)" fill="#1a2e35"/>
            <path id="Trazado_158052" data-name="Trazado 158052" d="M237.369,74.332s.055-.313.189-.919.343-1.516.609-2.689a69.1,69.1,0,0,1,3.378-10.043,75.7,75.7,0,0,1,8.406-14.494,83.072,83.072,0,0,1,15.5-15.863,82.107,82.107,0,0,1,23.618-12.778,87.109,87.109,0,0,1,14.591-3.526,93.68,93.68,0,0,1,15.888-.92,82.311,82.311,0,0,1,16.592,2.1,75.254,75.254,0,0,1,16.444,5.806A74.309,74.309,0,0,1,367.621,31.02a71.2,71.2,0,0,1,12.484,13.785,68.715,68.715,0,0,1,8.369,16.614,78.19,78.19,0,0,1,3.808,17.666c.111,1.48.27,2.95.339,4.418q.052,2.206.1,4.391c.018,1.455-.078,2.907-.112,4.349-.132,1.438-.228,2.873-.413,4.29a64.164,64.164,0,0,1-4.363,16.144,125.248,125.248,0,0,1-7.215,14.187L373.04,139.8a76.064,76.064,0,0,0-8.863,25.184,109.734,109.734,0,0,0-1.437,11.623c-.282,3.691-.4,7.182-.417,10.446a115.352,115.352,0,0,0,.788,16.711,66.156,66.156,0,0,0,2.321,10.312c.371,1.151.69,2.017.922,2.592.111.289.212.5.27.647s.084.221.084.221a23.737,23.737,0,0,1-1.378-3.428,63.722,63.722,0,0,1-2.422-10.315,113.573,113.573,0,0,1-.881-16.742c.005-3.27.108-6.768.378-10.469a109.506,109.506,0,0,1,1.4-11.664,76.283,76.283,0,0,1,8.849-25.337l7.557-12.95a124.773,124.773,0,0,0,7.167-14.14A63.661,63.661,0,0,0,391.7,96.468c.184-1.4.277-2.83.407-4.256.031-1.432.126-2.87.107-4.319q-.052-2.172-.1-4.365c-.071-1.461-.229-2.922-.34-4.393a77.792,77.792,0,0,0-3.79-17.545A68.219,68.219,0,0,0,379.669,45.1,70.7,70.7,0,0,0,367.279,31.42a73.855,73.855,0,0,0-14.926-9.948,74.8,74.8,0,0,0-16.327-5.778,81.913,81.913,0,0,0-16.494-2.107,93.387,93.387,0,0,0-15.8.893,86.923,86.923,0,0,0-14.519,3.482A81.878,81.878,0,0,0,265.68,30.62a83.108,83.108,0,0,0-15.493,15.744,76.36,76.36,0,0,0-8.453,14.4,72.029,72.029,0,0,0-3.464,9.987q-.431,1.749-.658,2.674c-.152.6-.243.908-.243.908" transform="translate(3.715 0.204)" fill="#1a2e35"/>
            <path id="Trazado_158053" data-name="Trazado 158053" d="M105.4,5.292,97.846,18.241a125.049,125.049,0,0,0-7.167,14.141A63.706,63.706,0,0,0,86.366,48.4c-.183,1.406-.277,2.83-.407,4.256-.031,1.433-.126,2.871-.107,4.319q.052,2.172.1,4.366c.07,1.459.229,2.921.34,4.393a77.723,77.723,0,0,0,3.789,17.544,68.255,68.255,0,0,0,8.307,16.486,70.736,70.736,0,0,0,12.391,13.685A73.8,73.8,0,0,0,125.71,123.4a74.847,74.847,0,0,0,16.328,5.779,81.965,81.965,0,0,0,16.493,2.107,93.275,93.275,0,0,0,15.8-.894,86.8,86.8,0,0,0,14.519-3.482,81.9,81.9,0,0,0,23.529-12.658A83.167,83.167,0,0,0,227.875,98.51a76.306,76.306,0,0,0,8.453-14.4,72.073,72.073,0,0,0,3.464-9.987q.431-1.75.659-2.674c.151-.6.242-.908.242-.908s-.055.313-.189.919-.343,1.516-.608,2.689a69.169,69.169,0,0,1-3.379,10.043,75.775,75.775,0,0,1-8.4,14.494,83.077,83.077,0,0,1-15.5,15.862,82.057,82.057,0,0,1-23.618,12.778,87.083,87.083,0,0,1-14.591,3.526,93.672,93.672,0,0,1-15.887.921,82.386,82.386,0,0,1-16.593-2.1,75.249,75.249,0,0,1-16.443-5.807,74.168,74.168,0,0,1-15.038-10.012,71.143,71.143,0,0,1-12.485-13.785A68.667,68.667,0,0,1,89.59,83.454a78.2,78.2,0,0,1-3.809-17.666c-.111-1.48-.269-2.95-.339-4.419q-.052-2.2-.1-4.39c-.018-1.456.078-2.907.112-4.35.132-1.437.229-2.872.413-4.289A64.155,64.155,0,0,1,90.227,32.2a125.247,125.247,0,0,1,7.215-14.187q3.908-6.668,7.581-12.935" transform="translate(1.335 0.079)" fill="#1a2e35"/>
            <path id="Trazado_158054" data-name="Trazado 158054" d="M490.354,461.854l15.24,5.346-.162,14.657c-7.3,2.058-8.318,5.748-8.318,5.748l15.252-.348,13.269-26.985-10.5-6.868-19.623-8.584" transform="translate(7.674 6.961)" fill="#7b65d8"/>
            <g id="Grupo_88861" data-name="Grupo 88861" transform="translate(504.788 465.772)" opacity="0.6">
              <g id="Grupo_88860" data-name="Grupo 88860">
                <g id="Grupo_88859" data-name="Grupo 88859" clip-path="url(#clip-path-3)">
                  <path id="Trazado_158055" data-name="Trazado 158055" d="M525.531,460.056l-13.269,26.985-15.252.348,1.667-2.331,12.386-.965L523.3,458.6Z" transform="translate(-497.01 -458.595)" fill="#fff"/>
                </g>
              </g>
            </g>
            <path id="Trazado_158056" data-name="Trazado 158056" d="M505.147,474.693c.117.153.984-.366,2.164-.36,1.181-.026,2.057.478,2.171.323.14-.118-.739-1.013-2.177-.993s-2.3.914-2.159,1.03" transform="translate(7.905 7.412)" fill="#1a2e35"/>
            <path id="Trazado_158057" data-name="Trazado 158057" d="M505.309,471.124c.155.1.814-.812,2.025-1.076s2.194.27,2.29.11c.05-.07-.131-.321-.565-.545a2.856,2.856,0,0,0-3.473.777c-.3.388-.353.693-.278.734" transform="translate(7.907 7.344)" fill="#1a2e35"/>
            <path id="Trazado_158058" data-name="Trazado 158058" d="M505.11,466.535c.169.08.669-.813,1.724-1.2s2.015-.067,2.089-.239c.039-.078-.159-.286-.585-.435a2.646,2.646,0,0,0-3.077,1.164c-.22.394-.231.68-.15.713" transform="translate(7.904 7.269)" fill="#1a2e35"/>
            <path id="Trazado_158059" data-name="Trazado 158059" d="M504.009,466.555c.187-.046.071-1.007.529-2.038.429-1.044,1.2-1.625,1.105-1.792-.053-.176-1.184.253-1.722,1.529s-.077,2.385.087,2.3" transform="translate(7.882 7.241)" fill="#1a2e35"/>
            <path id="Trazado_158060" data-name="Trazado 158060" d="M502.26,464.9a6.485,6.485,0,0,0,.359-2.048c.068-.734.135-1.475.205-2.233a4.865,4.865,0,0,0,0-1.421,1.239,1.239,0,0,0-.543-.758.954.954,0,0,0-1.038.042,2.828,2.828,0,0,0-.866,1.351,5.1,5.1,0,0,0,.127,3.688c.543,1.244,1.309,1.69,1.338,1.634a16.761,16.761,0,0,1-.894-1.8,5.261,5.261,0,0,1-.231-2.093,4.892,4.892,0,0,1,.276-1.2,2.427,2.427,0,0,1,.627-1.022.273.273,0,0,1,.319-.023.586.586,0,0,1,.251.354,5.024,5.024,0,0,1,.017,1.214c-.02.762-.041,1.505-.061,2.242a6.509,6.509,0,0,0,.115,2.076" transform="translate(7.826 7.172)" fill="#1a2e35"/>
            <path id="Trazado_158061" data-name="Trazado 158061" d="M502.074,465.476c.06-.04-.39-.706-1.563-1.09a3.811,3.811,0,0,0-4.328,1.545.7.7,0,0,0,.066.591.855.855,0,0,0,.4.327,2.344,2.344,0,0,0,.714.144,6.833,6.833,0,0,0,1.241,0,6.576,6.576,0,0,0,2.019-.514c1.092-.479,1.6-1.034,1.547-1.092-.061-.088-.654.313-1.712.648a7.53,7.53,0,0,1-1.9.341,7.112,7.112,0,0,1-1.13-.035,1.939,1.939,0,0,1-.513-.1c-.132-.079-.1-.055-.094-.1a1.2,1.2,0,0,1,.3-.363,3.482,3.482,0,0,1,.448-.359,3.722,3.722,0,0,1,2.821-.57,14.479,14.479,0,0,1,1.681.631" transform="translate(7.764 7.265)" fill="#1a2e35"/>
            <g id="Grupo_88864" data-name="Grupo 88864" transform="translate(521.131 465.193)" opacity="0.6">
              <g id="Grupo_88863" data-name="Grupo 88863">
                <g id="Grupo_88862" data-name="Grupo 88862" clip-path="url(#clip-path-4)">
                  <path id="Trazado_158062" data-name="Trazado 158062" d="M513.1,459.874a1.81,1.81,0,1,0,1.77-1.848,1.81,1.81,0,0,0-1.77,1.848" transform="translate(-513.102 -458.025)" fill="#fff"/>
                </g>
              </g>
            </g>
            <path id="Trazado_158063" data-name="Trazado 158063" d="M413.664,455.556l.207,19.969s-20.229,6.918-20.55,10.612l38.733.989L433.009,456Z" transform="translate(6.155 7.129)" fill="#7b65d8"/>
            <g id="Grupo_88867" data-name="Grupo 88867" transform="translate(430.12 481.207)" opacity="0.6">
              <g id="Grupo_88866" data-name="Grupo 88866">
                <g id="Grupo_88865" data-name="Grupo 88865" clip-path="url(#clip-path-5)">
                  <path id="Trazado_158064" data-name="Trazado 158064" d="M425.419,473.867a1.582,1.582,0,0,1,1.047,1.833,1.521,1.521,0,0,1-1.808,1.054,1.67,1.67,0,0,1-1.1-1.947,1.579,1.579,0,0,1,2-.889" transform="translate(-423.493 -473.792)" fill="#fff"/>
                </g>
              </g>
            </g>
            <g id="Grupo_88870" data-name="Grupo 88870" transform="translate(399.466 491.113)" opacity="0.6">
              <g id="Grupo_88869" data-name="Grupo 88869">
                <g id="Grupo_88868" data-name="Grupo 88868" clip-path="url(#clip-path-6)">
                  <path id="Trazado_158065" data-name="Trazado 158065" d="M432.055,486.687l-.026-3.141-37.127.227s-1.744.706-1.579,1.926Z" transform="translate(-393.311 -483.546)" fill="#fff"/>
                </g>
              </g>
            </g>
            <path id="Trazado_158066" data-name="Trazado 158066" d="M412.941,475.009c0,.19.945.3,1.86.931.932.608,1.39,1.439,1.567,1.369.175-.033-.078-1.17-1.2-1.917s-2.264-.559-2.227-.384" transform="translate(6.462 7.431)" fill="#1a2e35"/>
            <path id="Trazado_158067" data-name="Trazado 158067" d="M408.9,476.561c-.048.182.763.525,1.385,1.342.646.8.785,1.667.974,1.664.177.034.336-1.071-.456-2.071s-1.894-1.114-1.9-.934" transform="translate(6.399 7.457)" fill="#1a2e35"/>
            <path id="Trazado_158068" data-name="Trazado 158068" d="M406.527,481.34c.171.045.458-.894,0-1.942s-1.334-1.483-1.418-1.327c-.111.153.45.723.814,1.59.384.857.417,1.656.605,1.68" transform="translate(6.339 7.481)" fill="#1a2e35"/>
            <path id="Trazado_158069" data-name="Trazado 158069" d="M413.392,470.531c.075.175.95-.064,2.016.036,1.069.078,1.892.458,1.995.3.113-.134-.681-.855-1.94-.955s-2.16.469-2.071.621" transform="translate(6.469 7.353)" fill="#1a2e35"/>
            <g id="Grupo_88873" data-name="Grupo 88873" transform="translate(419.865 466.64)" opacity="0.3">
              <g id="Grupo_88872" data-name="Grupo 88872">
                <g id="Grupo_88871" data-name="Grupo 88871" clip-path="url(#clip-path-7)">
                  <path id="Trazado_158070" data-name="Trazado 158070" d="M413.4,459.45l.032,3.559,19.04.313.107-3.2Z" transform="translate(-413.396 -459.45)"/>
                </g>
              </g>
            </g>
            <path id="Trazado_158071" data-name="Trazado 158071" d="M413.424,466.6a3.633,3.633,0,0,0,1.94.04,8.672,8.672,0,0,0,2.046-.572,8.988,8.988,0,0,0,1.129-.563,2.365,2.365,0,0,0,.6-.441.827.827,0,0,0,.113-1,1.037,1.037,0,0,0-.818-.453,2.512,2.512,0,0,0-.73.081,6.987,6.987,0,0,0-1.217.383,6.858,6.858,0,0,0-1.819,1.128c-.919.809-1.244,1.508-1.18,1.547.083.064.536-.517,1.469-1.18a7.733,7.733,0,0,1,1.755-.93,7.113,7.113,0,0,1,1.122-.315c.412-.1.762-.091.862.093.037.071.041.1-.048.216a1.965,1.965,0,0,1-.44.322,10.238,10.238,0,0,1-1.04.56,10.688,10.688,0,0,1-1.893.67,13.332,13.332,0,0,0-1.848.417" transform="translate(6.47 7.255)" fill="#1a2e35"/>
            <path id="Trazado_158072" data-name="Trazado 158072" d="M413.7,466.922a3.1,3.1,0,0,0,.56-1.861,6.326,6.326,0,0,0-.21-2.131,6.4,6.4,0,0,0-.464-1.19,1.6,1.6,0,0,0-1.213-1.011.906.906,0,0,0-.824.52,2.609,2.609,0,0,0-.217.706,4.307,4.307,0,0,0-.035,1.307,4.462,4.462,0,0,0,.777,2.025c.731,1.023,1.515,1.269,1.533,1.2.065-.093-.585-.474-1.14-1.454a4.465,4.465,0,0,1-.567-1.838,4.041,4.041,0,0,1,.064-1.12c.071-.409.235-.737.387-.692.193,0,.513.32.662.652a6.384,6.384,0,0,1,.454,1.064,6.931,6.931,0,0,1,.326,1.945c.024,1.139-.2,1.841-.093,1.873" transform="translate(6.436 7.21)" fill="#1a2e35"/>
            <path id="Trazado_158073" data-name="Trazado 158073" d="M503.473,446.245l-44.6-16.587,46.889-6.581,2.36-22.842-87.682,7.652-12.383,17.825,3.261,22.369L496.745,469.8Z" transform="translate(6.386 6.263)" fill="#1a2e35"/>
            <path id="Trazado_158074" data-name="Trazado 158074" d="M408.958,462.877l-4.271-81.631A22.96,22.96,0,0,1,434.9,360.134L491.787,379.1l31.223,8.028s5.318,13.12,2.192,23.313c-3.06,9.978-13.995,16.615-23.617,13.762-11.949-3.542-66.812-27.135-66.812-27.135v66.472Z" transform="translate(6.333 5.617)" fill="#1a2e35"/>
            <path id="Trazado_158075" data-name="Trazado 158075" d="M500.3,423.842a1.835,1.835,0,0,1-.339-.112l-.975-.376-3.73-1.492-13.683-5.581-45.066-18.6-2.293-.952.366-.244c-.031,18.47-.06,35.074-.081,47.1-.035,5.974-.063,10.809-.082,14.186-.021,1.646-.038,2.936-.049,3.847-.011.417-.019.748-.026,1a1.6,1.6,0,0,1-.026.34,1.79,1.79,0,0,1-.026-.34c-.006-.252-.014-.582-.025-1-.011-.911-.027-2.2-.049-3.847-.019-3.377-.048-8.212-.083-14.186-.02-12.024-.049-28.629-.08-47.1v-.4l.366.152,2.294.951,45.006,18.74,13.618,5.736,3.693,1.584.955.425a1.842,1.842,0,0,1,.319.161" transform="translate(6.792 6.198)" fill="#375a64"/>
            <path id="Trazado_158076" data-name="Trazado 158076" d="M447.548,423.506a18.675,18.675,0,0,1,10.693,5.921c-.111.122-2.139-1.77-5.1-3.4-2.952-1.65-5.633-2.366-5.588-2.524" transform="translate(7.004 6.627)" fill="#375a64"/>
            <path id="Trazado_158077" data-name="Trazado 158077" d="M429.437,385.609a40.711,40.711,0,0,1,5.129,11.44c-.142.051-1.187-2.552-2.6-5.7s-2.658-5.664-2.525-5.737" transform="translate(6.72 6.034)" fill="#375a64"/>
            <path id="Trazado_158078" data-name="Trazado 158078" d="M429.879,350.221l-10.06-1.881-10.57,10.782,1.95,6.867,12.323-4.538Z" transform="translate(6.404 5.451)" fill="#ffc19d"/>
            <path id="Trazado_158079" data-name="Trazado 158079" d="M393.119,232.362l-2.723.231s-4.9.8-4.9.911-2.153,3.118-2.158,3.128l-1.973,3.051a2.84,2.84,0,0,0,2.757-.508l-.689,1.534a3.058,3.058,0,0,0,3.787-1.471,35.809,35.809,0,0,1,2.136-3.037l.893-.081c.073.184,3.516,5.037,3.589,4.926s2.931-2.87,2.931-2.87Z" transform="translate(5.968 3.636)" fill="#ff9c6a"/>
            <path id="Trazado_158080" data-name="Trazado 158080" d="M400.414,253.55l.8-15.07-7.636-8.653-8.4.509-3.436,2.4c.177.831,2.557,1.4,5.128.656a12.985,12.985,0,0,1,5.288-.178l3.235,5.637-2.137,2.357L396,255.661Z" transform="translate(5.974 3.597)" fill="#ffc19d"/>
            <path id="Trazado_158081" data-name="Trazado 158081" d="M378.221,233.635h27.3a1.247,1.247,0,1,1,0,2.494h-27.3l-2.677-1.247Z" transform="translate(5.877 3.656)" fill="#1a2e35"/>
            <path id="Trazado_158082" data-name="Trazado 158082" d="M391.864,257.576l-2.781-6.839a6.439,6.439,0,0,1-.468-2.737c.119-2.457.3-7.391-.075-8.526-.509-1.527-2.545-6.745-1.4-7.509s2.731-1.018,3.847,2.036,4.552,9.672,4.552,9.672l2.6,10.9Z" transform="translate(6.053 3.622)" fill="#ffc19d"/>
            <path id="Trazado_158083" data-name="Trazado 158083" d="M395.2,243a20.559,20.559,0,0,1-1.58-2.918c-.914-1.81-2.154-4.441-3.478-7.162a2.006,2.006,0,0,0-1.614-1.053,1.468,1.468,0,0,0-1.358,1.014,3.885,3.885,0,0,0,.054,1.787c.109.586.236,1.126.366,1.616.532,1.96,1.091,3.1,1.012,3.14a2.583,2.583,0,0,1-.464-.768,15.909,15.909,0,0,1-.906-2.267c-.156-.493-.307-1.039-.437-1.634a4.191,4.191,0,0,1-.091-2.014,1.96,1.96,0,0,1,1.812-1.391,2.5,2.5,0,0,1,2.072,1.284c1.41,2.886,2.525,5.405,3.371,7.29A20.674,20.674,0,0,1,395.2,243" transform="translate(6.05 3.62)" fill="#ff9c6a"/>
            <path id="Trazado_158084" data-name="Trazado 158084" d="M520.834,386.7l-2.783-4.884-29.771-7.452,3.506,6.054Z" transform="translate(7.641 5.858)" fill="#ffc19d"/>
            <path id="Trazado_158085" data-name="Trazado 158085" d="M389.233,257.27l18.74,44.4a17.247,17.247,0,0,0,9.337,9.246l40.431,16.6,9.412-26.045-39.372-13.941L402.2,251.066Z" transform="translate(6.091 3.929)" fill="#7b65d8"/>
            <path id="Trazado_158086" data-name="Trazado 158086" d="M449.242,301.2c.042,1.041-4.369,33.35-4.369,39.951s12.64,13.764,12.64,13.764l13.84,29.386h49.293l-16.852-31.643-7.618-25.347a59.693,59.693,0,0,0-15.3-25.366l-8.23-5.508Z" transform="translate(6.962 4.639)" fill="#7b65d8"/>
            <path id="Trazado_158087" data-name="Trazado 158087" d="M463.9,326.458l8.28,34.737L430.421,349.43,423.3,362.007l54.332,24.745a15.272,15.272,0,0,0,21.125-17.685l-12.165-47.529a11.62,11.62,0,0,0-22.7,4.921" transform="translate(6.624 4.895)" fill="#7b65d8"/>
            <path id="Trazado_158088" data-name="Trazado 158088" d="M457.516,354.713a1.924,1.924,0,0,1-.48-.205c-.307-.149-.753-.384-1.316-.7a38.04,38.04,0,0,1-4.58-3.037,18.673,18.673,0,0,1-5.389-6.124c-1.338-2.891-1.243-6.447-.755-9.928.5-3.515,1.227-6.79,1.651-9.816.463-3.018.783-5.749.953-8.049s.206-4.168.2-5.459-.043-2.006,0-2.009a1.9,1.9,0,0,1,.085.515c.042.339.082.841.118,1.488a50.542,50.542,0,0,1-.033,5.49c-.122,2.316-.4,5.065-.843,8.1-.4,3.037-1.112,6.342-1.61,9.815-.486,3.45-.574,6.905.672,9.652a18.776,18.776,0,0,0,5.181,6.037,46.062,46.062,0,0,0,4.452,3.153,20.046,20.046,0,0,1,1.691,1.085" transform="translate(6.959 4.841)" fill="#1a2e35"/>
            <path id="Trazado_158089" data-name="Trazado 158089" d="M480.159,317.2a17.252,17.252,0,0,0-11.378-.769,11.6,11.6,0,0,1,11.378.769" transform="translate(7.336 4.934)" fill="#1a2e35"/>
            <path id="Trazado_158090" data-name="Trazado 158090" d="M474.772,298.723a4.669,4.669,0,0,1-.754.843c-.508.518-1.262,1.248-2.211,2.133-1.9,1.771-4.589,4.142-7.679,6.62s-5.992,4.589-8.134,6.053c-1.07.733-1.947,1.311-2.563,1.694a4.617,4.617,0,0,1-.987.552,4.679,4.679,0,0,1,.87-.722l2.463-1.827c2.082-1.541,4.938-3.693,8.022-6.162s5.8-4.789,7.76-6.486l2.321-2.006a4.661,4.661,0,0,1,.894-.692" transform="translate(7.08 4.675)" fill="#1a2e35"/>
            <path id="Trazado_158091" data-name="Trazado 158091" d="M427.268,287.066c.054.146-1.461.789-3.138,1.894s-2.881,2.222-2.994,2.115a10.485,10.485,0,0,1,6.132-4.009" transform="translate(6.59 4.492)" fill="#1a2e35"/>
            <path id="Trazado_158092" data-name="Trazado 158092" d="M467.553,341.833a3.327,3.327,0,0,1-.91.291,17.6,17.6,0,0,1-2.56.449,23.624,23.624,0,0,1-3.861.1,24.834,24.834,0,0,1-9.142-2.291,23.61,23.61,0,0,1-3.357-1.913,17.328,17.328,0,0,1-2.046-1.6c-.453-.416-.688-.658-.665-.686.065-.074,1.081.823,2.915,1.975a26.9,26.9,0,0,0,16.123,4.04c2.163-.151,3.481-.462,3.5-.368" transform="translate(6.964 5.261)" fill="#fafafa"/>
            <path id="Trazado_158093" data-name="Trazado 158093" d="M470.182,356.821a5.205,5.205,0,0,1-1.872.341,17.146,17.146,0,0,1-8.925-1.818,5.214,5.214,0,0,1-1.59-1.046,25.524,25.524,0,0,0,12.387,2.523" transform="translate(7.164 5.544)" fill="#fafafa"/>
            <path id="Trazado_158094" data-name="Trazado 158094" d="M491.59,347.439a2.964,2.964,0,0,1-.775.465,23.169,23.169,0,0,1-2.242,1.008,34.361,34.361,0,0,1-15.952,2.208,23.443,23.443,0,0,1-2.431-.361,2.993,2.993,0,0,1-.871-.238c.014-.086,1.28.1,3.332.225a40.43,40.43,0,0,0,15.792-2.186c1.943-.674,3.109-1.2,3.146-1.122" transform="translate(7.344 5.437)" fill="#fafafa"/>
            <path id="Trazado_158095" data-name="Trazado 158095" d="M487.815,330.71c-.018.083-1.293-.156-3.366-.4a51.989,51.989,0,0,0-16.219.585c-2.051.4-3.3.725-3.328.644a3.1,3.1,0,0,1,.85-.341c.557-.191,1.376-.423,2.4-.668a42.286,42.286,0,0,1,16.35-.589c1.038.172,1.872.343,2.442.494a3.069,3.069,0,0,1,.872.279" transform="translate(7.275 5.155)" fill="#fafafa"/>
            <path id="Trazado_158096" data-name="Trazado 158096" d="M496.3,377.755a5.275,5.275,0,0,1-1.186-.235,30.016,30.016,0,0,1-3.148-.974,41.469,41.469,0,0,1-17.631-12.38,30.28,30.28,0,0,1-1.985-2.63,5.32,5.32,0,0,1-.624-1.037c.078-.055,1.061,1.355,2.892,3.424A46.021,46.021,0,0,0,492.1,376.2c2.568,1.02,4.227,1.466,4.2,1.558" transform="translate(7.382 5.641)" fill="#fafafa"/>
            <path id="Trazado_158097" data-name="Trazado 158097" d="M459.063,377.258a11.266,11.266,0,0,1-.124-2.889,32.15,32.15,0,0,1,3.522-13.435,11.255,11.255,0,0,1,1.526-2.457,25.69,25.69,0,0,1-1.189,2.62,39.793,39.793,0,0,0-3.485,13.294,25.593,25.593,0,0,1-.25,2.867" transform="translate(7.182 5.61)" fill="#fafafa"/>
            <path id="Trazado_158098" data-name="Trazado 158098" d="M434.31,365.93a8.213,8.213,0,0,1,.021-2.431,13.8,13.8,0,0,1,1.8-5.6,18.034,18.034,0,0,1,3.923-4.382,9.4,9.4,0,0,1,1.974-1.413,13.317,13.317,0,0,1-1.727,1.692,21.65,21.65,0,0,0-3.717,4.374,15.52,15.52,0,0,0-1.886,5.379,16.919,16.919,0,0,1-.392,2.381" transform="translate(6.795 5.51)" fill="#fafafa"/>
            <path id="Trazado_158099" data-name="Trazado 158099" d="M516.58,376.717a15.7,15.7,0,0,1-2.934,1.294,54.854,54.854,0,0,1-7.416,2.226,31.753,31.753,0,0,1-7.71.839,12.624,12.624,0,0,1-1.341-.089,7.957,7.957,0,0,1-1-.14,2.716,2.716,0,0,1-.837-.219c.015-.092,1.224.108,3.185.075a38.45,38.45,0,0,0,7.593-.982c2.928-.652,5.532-1.451,7.406-2.062a24.47,24.47,0,0,1,3.058-.942" transform="translate(7.752 5.895)" fill="#fafafa"/>
            <path id="Trazado_158100" data-name="Trazado 158100" d="M505.431,356.949c.057.025-.262.641-1.115,1.267a15.211,15.211,0,0,1-3.586,1.884,22.52,22.52,0,0,1-3.875,1.142,6.336,6.336,0,0,1-1.231.127c-.3.008-.474-.1-.449-.121.03-.039.605-.075,1.6-.371.978-.274,2.319-.71,3.766-1.27a22.145,22.145,0,0,0,3.565-1.7c.866-.519,1.256-1.005,1.328-.959" transform="translate(7.749 5.586)" fill="#fafafa"/>
            <path id="Trazado_158101" data-name="Trazado 158101" d="M498.535,336.869c.026-.005.016.173-.155.366a3.4,3.4,0,0,1-.816.66,16.143,16.143,0,0,1-3.068,1.431,17.671,17.671,0,0,1-3.265.883c-.863.147-1.43.032-1.415-.039a13.668,13.668,0,0,1,1.34-.328c.819-.213,1.939-.572,3.16-1.013a31.954,31.954,0,0,0,3.064-1.259,5.861,5.861,0,0,0,.857-.483c.19-.124.249-.232.3-.217" transform="translate(7.665 5.272)" fill="#fafafa"/>
            <path id="Trazado_158102" data-name="Trazado 158102" d="M462.986,326.315a8.489,8.489,0,0,1-2.388.093,30.576,30.576,0,0,1-11.177-2.65,8.481,8.481,0,0,1-2.092-1.155c.071-.153,3.333,1.482,7.677,2.494,4.336,1.044,7.985,1.048,7.98,1.217" transform="translate(7 5.048)" fill="#fafafa"/>
            <path id="Trazado_158103" data-name="Trazado 158103" d="M491.648,317.216c.1.144-1.36,1.131-3.337,1.915-1.963.822-3.7,1.137-3.725.962-.018-.116,1.583-.64,3.526-1.452,1.955-.776,3.467-1.52,3.536-1.425" transform="translate(7.583 4.964)" fill="#fafafa"/>
            <path id="Trazado_158104" data-name="Trazado 158104" d="M469.12,304.22a4.413,4.413,0,0,1,1.413,1.121,12.878,12.878,0,0,1,3.562,7.817,4.425,4.425,0,0,1-.079,1.8,17.451,17.451,0,0,0-4.9-10.741" transform="translate(7.341 4.761)" fill="#fafafa"/>
            <path id="Trazado_158105" data-name="Trazado 158105" d="M437.636,318.837a3.651,3.651,0,0,1-.465-.958,16.388,16.388,0,0,1-.809-2.788,25.231,25.231,0,0,1,.07-9.541,50.42,50.42,0,0,1,2.766-9.134c.449-1.134.834-2.042,1.11-2.665a4.059,4.059,0,0,1,.481-.947,4.113,4.113,0,0,1-.289,1.022q-.395,1.13-.952,2.72a62.234,62.234,0,0,0-2.6,9.1,27.465,27.465,0,0,0-.222,9.378c.391,2.386,1,3.778.907,3.813" transform="translate(6.822 4.582)" fill="#fafafa"/>
            <path id="Trazado_158106" data-name="Trazado 158106" d="M414.092,309.145a3.906,3.906,0,0,1,.178-1.024,24.776,24.776,0,0,1,.8-2.715,34.787,34.787,0,0,1,10.576-15.178,24.692,24.692,0,0,1,2.27-1.692,3.987,3.987,0,0,1,.9-.522c.053.076-1.154.923-2.925,2.5a39.167,39.167,0,0,0-10.469,15.025c-.863,2.206-1.24,3.632-1.329,3.609" transform="translate(6.48 4.507)" fill="#fafafa"/>
            <path id="Trazado_158107" data-name="Trazado 158107" d="M418.142,273.693c.005.1-1.157.148-2.942.656a27.552,27.552,0,0,0-6.6,2.946,31.244,31.244,0,0,0-5.731,4.424c-1.323,1.306-1.989,2.257-2.064,2.2-.03-.02.113-.273.4-.717a8.039,8.039,0,0,1,.568-.776,11.559,11.559,0,0,1,.826-.971,26.291,26.291,0,0,1,5.728-4.617,23.682,23.682,0,0,1,6.78-2.856,9.621,9.621,0,0,1,1.255-.233,6.916,6.916,0,0,1,.958-.093,2.463,2.463,0,0,1,.822.031" transform="translate(6.272 4.282)" fill="#fafafa"/>
            <path id="Trazado_158108" data-name="Trazado 158108" d="M408.8,260.066a25.732,25.732,0,0,0-16.732,4.23,8.438,8.438,0,0,1,2.061-1.6,20.573,20.573,0,0,1,12.094-3.058,8.391,8.391,0,0,1,2.577.433" transform="translate(6.136 4.062)" fill="#fafafa"/>
            <path id="Trazado_158109" data-name="Trazado 158109" d="M463.9,326.248a3.957,3.957,0,0,1,.205.663c.126.482.294,1.125.506,1.937.434,1.74,1.044,4.194,1.8,7.246l6.014,24.832.1.427-.424-.119-10.645-2.992L430.369,349.4l.218-.089-5.283,9.159q-.923,1.568-1.46,2.477c-.157.257-.286.466-.391.638a.933.933,0,0,1-.15.208.889.889,0,0,1,.1-.236l.345-.664q.5-.925,1.372-2.527c1.235-2.224,2.983-5.372,5.134-9.243l.072-.131.145.041,31.132,8.7,10.642,3.006-.32.307c-2.336-9.962-4.371-18.637-5.834-24.875-.7-3.067-1.259-5.532-1.658-7.28l-.422-1.957a3.99,3.99,0,0,1-.117-.685" transform="translate(6.624 5.105)" fill="#1a2e35"/>
            <path id="Trazado_158110" data-name="Trazado 158110" d="M485.8,324.119a2.854,2.854,0,0,1,.2.6c.126.451.286,1.026.483,1.734.414,1.578.985,3.749,1.682,6.4,1.385,5.476,3.27,12.931,5.353,21.168,1.024,4.143,2.024,8.073,2.869,11.681a27.533,27.533,0,0,1,.8,9.805,13.816,13.816,0,0,1-2.332,6.2,7.3,7.3,0,0,1-1.668,1.774,19.56,19.56,0,0,0,1.5-1.891,14.143,14.143,0,0,0,2.131-6.13,27.852,27.852,0,0,0-.9-9.649c-.9-3.591-1.876-7.527-2.907-11.662-2.025-8.251-3.857-15.719-5.2-21.206-.629-2.67-1.144-4.855-1.518-6.443-.157-.718-.285-1.3-.387-1.758a2.865,2.865,0,0,1-.1-.622" transform="translate(7.602 5.072)" fill="#1a2e35"/>
            <g id="Grupo_88876" data-name="Grupo 88876" transform="translate(496.445 341.443)" opacity="0.3">
              <g id="Grupo_88875" data-name="Grupo 88875">
                <g id="Grupo_88874" data-name="Grupo 88874" clip-path="url(#clip-path-8)">
                  <path id="Trazado_158111" data-name="Trazado 158111" d="M493.329,383.68c6.114.564,9.662-2.924,10.316-7.695.361-2.628-.508-5.252-1.364-7.763-3.748-10.988-7.538-22.069-13.485-32.041,2.246,9.978,5.112,19.558,7.357,29.536a30.9,30.9,0,0,1,.949,8.5,15.3,15.3,0,0,1-3.773,9.465" transform="translate(-488.796 -336.182)"/>
                </g>
              </g>
            </g>
            <path id="Trazado_158112" data-name="Trazado 158112" d="M471.111,295a12.437,12.437,0,0,0,15.8-9.447,7.308,7.308,0,0,0,6.3,1.675,12.017,12.017,0,0,0,5.879-3.173,14.681,14.681,0,0,0,4.936-11.031,10.754,10.754,0,0,0-6.674-9.664c-3.912-1.4-8.863.424-10.474,4.254-.727-2.176,1.141-5.114.694-7.364-.9-4.516-3.6-7.156-5.888-7.252" transform="translate(7.372 3.959)" fill="#1a2e35"/>
            <path id="Trazado_158113" data-name="Trazado 158113" d="M476.153,294c4.473-7.8,5.755-18.187,6.885-27.174.532-4.229,1.468-10.251-1.415-12.9-3.089-2.835-3.385-7.2-6.934-9.391s-8.361-2.368-11.707.135" transform="translate(7.245 3.8)" fill="#1a2e35"/>
            <path id="Trazado_158114" data-name="Trazado 158114" d="M453.273,309.447V297.21s-12.745-2.252-13.5-12.465-.49-33.8-.49-33.8a33.6,33.6,0,0,1,34.873,2.208l-.515,35.955.024,11.712-10.435,8.467-9.958,7.843Z" transform="translate(6.874 3.867)" fill="#ffc19d"/>
            <path id="Trazado_158115" data-name="Trazado 158115" d="M449.735,272.376c1.7-2.19,4.476-3.067,6.761-1.545a6.052,6.052,0,0,1,1.939,7.418,7.619,7.619,0,0,1-4.847,3.8s4.59,8.371,7.509,10.589c3.478,2.644,5.112,3.945,9.4,4.455,4.218.5,3.709.545,6.153-3.038a14.034,14.034,0,0,0,2.385-8.3q.195-11.3.389-22.6a33.32,33.32,0,0,0-.522-8.106,10.92,10.92,0,0,0-4.163-6.692c-2.413-1.628-5.464-1.759-8.209-2.666-3.433-1.133-6.352-3.471-9.565-5.155s-7.149-2.684-10.365-1.007c-2.309,1.2-3.852,3.59-6.1,4.916-3.2,1.888-7.554,1.475-9.1,6.337a8.48,8.48,0,0,0,.068,5.194c2.189,6.6,10.13,9.243,15.836,6.369.116,1.119-.946,3.614.206,7.146.369,1.129.5,2.852,2.215,2.879" transform="translate(6.745 3.735)" fill="#1a2e35"/>
            <path id="Trazado_158116" data-name="Trazado 158116" d="M451.21,278.206c-.041.015-.039.193.138.441a1.465,1.465,0,0,0,1.105.566,2.773,2.773,0,0,0,2.558-2.828,3.013,3.013,0,0,0-.733-2.159,2.944,2.944,0,0,0-1.553-.916c-1.021-.216-1.607.173-1.564.24.025.116.608-.05,1.428.257a2.556,2.556,0,0,1,1.714,2.546,2.357,2.357,0,0,1-1.856,2.344c-.829.054-1.166-.556-1.238-.491" transform="translate(7.06 4.276)" fill="#ff9c6a"/>
            <path id="Trazado_158117" data-name="Trazado 158117" d="M502.516,272.848a3.089,3.089,0,0,1-.289.96,10.845,10.845,0,0,1-1.356,2.378,11.894,11.894,0,0,1-7.585,4.651,11.671,11.671,0,0,1-8.611-2.225,10.545,10.545,0,0,1-1.971-1.9,3.1,3.1,0,0,1-.545-.841,21.431,21.431,0,0,0,2.734,2.436,11.793,11.793,0,0,0,8.313,2.007,12.04,12.04,0,0,0,7.37-4.357,22.375,22.375,0,0,0,1.941-3.108" transform="translate(7.545 4.27)" fill="#375a64"/>
            <path id="Trazado_158118" data-name="Trazado 158118" d="M501.1,271.221a2.483,2.483,0,0,1-.355.785,11.251,11.251,0,0,1-1.378,1.9,12.754,12.754,0,0,1-6.6,3.938,12.482,12.482,0,0,1-7.652-.722,10.8,10.8,0,0,1-2.047-1.15c-.447-.328-.668-.541-.648-.567.055-.083,1.023.678,2.836,1.37a12.967,12.967,0,0,0,7.394.553,13.294,13.294,0,0,0,6.445-3.677c1.353-1.391,1.923-2.482,2.007-2.43" transform="translate(7.549 4.244)" fill="#375a64"/>
            <path id="Trazado_158119" data-name="Trazado 158119" d="M484.552,284.486a1.626,1.626,0,0,1-.424.235,4.784,4.784,0,0,1-1.344.353,7.288,7.288,0,0,1-4.865-1.341,14.145,14.145,0,0,1-4.579-5.953c-1.24-2.543-2.224-5.525-4.153-8.1a9.706,9.706,0,0,0-3.485-2.977,12.408,12.408,0,0,0-4.17-1.1c-2.774-.281-5.338-.1-7.477-.392a12.009,12.009,0,0,1-4.843-1.508,7.4,7.4,0,0,1-1.106-.836c-.226-.221-.338-.342-.326-.355.036-.042.5.437,1.535,1.013a12.528,12.528,0,0,0,4.782,1.314c2.1.246,4.642.021,7.485.28a12.737,12.737,0,0,1,4.348,1.118,10.154,10.154,0,0,1,3.679,3.124c2,2.67,2.969,5.688,4.171,8.205a14.06,14.06,0,0,0,4.35,5.853,7.293,7.293,0,0,0,4.634,1.445,8.8,8.8,0,0,0,1.786-.384" transform="translate(7.007 4.108)" fill="#375a64"/>
            <path id="Trazado_158120" data-name="Trazado 158120" d="M483.561,280.818a1.458,1.458,0,0,1-.455.045,5.062,5.062,0,0,1-1.305-.166,8.237,8.237,0,0,1-3.969-2.687,15.453,15.453,0,0,1-1.908-2.736c-.585-1.047-1.116-2.2-1.706-3.394a23.425,23.425,0,0,0-2.079-3.573,10.636,10.636,0,0,0-1.448-1.6,7.059,7.059,0,0,0-.88-.658,5.106,5.106,0,0,0-.949-.581,11.943,11.943,0,0,0-4.2-1.233,32.127,32.127,0,0,0-4.145-.213,56.706,56.706,0,0,1-7.105-.188,12.724,12.724,0,0,1-4.6-1.377,8.7,8.7,0,0,1-1.085-.732c-.239-.179-.359-.279-.346-.293.03-.044.544.321,1.527.843a13.463,13.463,0,0,0,4.547,1.188,63.167,63.167,0,0,0,7.06.072,31.483,31.483,0,0,1,4.213.186,12.33,12.33,0,0,1,4.377,1.28,5.535,5.535,0,0,1,1,.614,7.724,7.724,0,0,1,.929.7A11.07,11.07,0,0,1,472.556,268a23.285,23.285,0,0,1,2.1,3.668c.582,1.2,1.1,2.362,1.654,3.4a15.623,15.623,0,0,0,1.807,2.7,8.36,8.36,0,0,0,3.743,2.733,12.734,12.734,0,0,0,1.7.319" transform="translate(7.001 4.091)" fill="#375a64"/>
            <path id="Trazado_158121" data-name="Trazado 158121" d="M485.493,285.914c-.023.023-.232-.137-.562-.473a10.131,10.131,0,0,1-1.235-1.572,12.514,12.514,0,0,1-.5-12.665,10.257,10.257,0,0,1,1.1-1.667c.3-.363.5-.538.521-.517.073.056-.589.859-1.291,2.352a13.21,13.21,0,0,0,.486,12.3c.819,1.431,1.546,2.178,1.477,2.24" transform="translate(7.538 4.21)" fill="#e8505b"/>
            <path id="Trazado_158122" data-name="Trazado 158122" d="M624.6,424.722c7.007,2.447,16.147.26,22.141-4.116s10.307-10.649,14.13-17.01c1.632-2.715,3.225-5.545,3.74-8.67s-.244-6.64-2.667-8.68c-3.766-3.17-9.537-1.562-13.814.874a47.639,47.639,0,0,0-23.53,37.6" transform="translate(9.774 6.017)" fill="#7b65d8"/>
            <path id="Trazado_158123" data-name="Trazado 158123" d="M632,440.785c4.208,5.552,11.437,8.024,18.4,8.346s13.834-1.6,20.338-4.1c2.359-.906,4.942-2.147,5.752-4.541a5.777,5.777,0,0,0-1.232-5.357,12.007,12.007,0,0,0-4.7-3.2,32.093,32.093,0,0,0-20.472-1.108c-6.736,1.747-12.619,5.652-18.086,9.958" transform="translate(9.89 6.724)" fill="#7b65d8"/>
            <path id="Trazado_158124" data-name="Trazado 158124" d="M624.54,395.192c5.8.116,10.191-4.964,12.817-10.138a37.578,37.578,0,0,0,3.455-23.43c-.531-2.964-1.651-6.16-4.3-7.586-2.695-1.448-6.2-.494-8.462,1.569s-3.5,5.007-4.4,7.93c-3.113,10.075-2.443,21.653.9,31.655" transform="translate(9.728 5.529)" fill="#7b65d8"/>
            <path id="Trazado_158125" data-name="Trazado 158125" d="M605.881,427.1c9.889-16.831,11.538-37.425,5.7-56.052-.948-3.022-2.736-6.48-5.9-6.68-3.5-.222-5.694,3.68-6.661,7.052-3.391,11.827-2.67,24.392-1.921,36.673.462,7.566,3.061,14.033,8.78,19.007" transform="translate(9.334 5.702)" fill="#7b65d8"/>
            <path id="Trazado_158126" data-name="Trazado 158126" d="M596.121,433.356a40.451,40.451,0,0,0-24-25.448c-2.626-.988-5.965-1.552-7.924.457-1.921,1.971-1.328,5.266-.1,7.727,1.992,3.975,5.224,7.168,8.444,10.234,2.929,2.788,5.973,5.586,9.678,7.206s10.509,2.033,13.9-.176" transform="translate(8.81 6.369)" fill="#7b65d8"/>
            <path id="Trazado_158127" data-name="Trazado 158127" d="M656.679,390.376c.005.007-.054.059-.173.154l-.532.412-2.073,1.55-1.5,1.11c-.54.418-1.105.9-1.725,1.4-1.223,1.024-2.67,2.124-4.127,3.509l-2.331,2.119c-.806.74-1.583,1.577-2.422,2.406-1.7,1.637-3.351,3.547-5.124,5.52A108.906,108.906,0,0,0,618.593,437.8c-.972,2.469-1.944,4.8-2.647,7.052-.367,1.121-.767,2.19-1.07,3.243l-.853,3.033c-.587,1.922-.925,3.708-1.293,5.26-.172.778-.352,1.5-.484,2.169q-.175,1-.321,1.841-.291,1.616-.459,2.546c-.054.268-.1.486-.131.661a.116.116,0,1,1-.048-.006c.022-.178.051-.4.085-.668.091-.623.215-1.479.374-2.564q.128-.841.281-1.853c.12-.674.287-1.4.448-2.183.344-1.56.661-3.358,1.23-5.291q.395-1.459.827-3.051c.294-1.059.688-2.134,1.047-3.262.691-2.268,1.651-4.611,2.616-7.093a106.546,106.546,0,0,1,18.148-29.359c1.79-1.973,3.455-3.88,5.175-5.511.848-.827,1.634-1.66,2.45-2.4l2.359-2.1c1.475-1.373,2.94-2.46,4.183-3.465.629-.495,1.2-.969,1.751-1.377l1.532-1.08,2.127-1.481.56-.375a.836.836,0,0,1,.2-.115" transform="translate(9.566 6.109)" fill="#1a2e35"/>
            <path id="Trazado_158128" data-name="Trazado 158128" d="M669.768,436.341a3.8,3.8,0,0,1-.678-.113c-.443-.08-1.085-.251-1.927-.391a54.346,54.346,0,0,0-7.159-.875,52.242,52.242,0,0,0-42.421,17.652,54.124,54.124,0,0,0-4.425,5.7c-.495.7-.825,1.272-1.081,1.641a3.819,3.819,0,0,1-.4.562,3.748,3.748,0,0,1,.318-.61c.231-.386.536-.978,1.009-1.692a48.281,48.281,0,0,1,4.33-5.814,51.406,51.406,0,0,1,42.689-17.764,48.332,48.332,0,0,1,7.176,1.027c.84.169,1.476.368,1.912.477a3.808,3.808,0,0,1,.656.2" transform="translate(9.572 6.799)" fill="#1a2e35"/>
            <path id="Trazado_158129" data-name="Trazado 158129" d="M633.252,360.643a1.07,1.07,0,0,1-.039.261l-.157.757c-.155.695-.374,1.665-.65,2.9-.57,2.515-1.438,6.144-2.53,10.623-2.179,8.959-5.345,21.3-8.643,34.969-1.639,6.84-3.123,13.375-4.4,19.333-1.254,5.963-2.325,11.345-3.121,15.884-.427,2.265-.748,4.324-1.052,6.129s-.55,3.362-.736,4.637c-.194,1.247-.347,2.229-.456,2.932-.054.314-.1.565-.131.762a1.07,1.07,0,0,1-.06.257,1.122,1.122,0,0,1,.013-.263c.021-.2.05-.452.084-.768.088-.706.212-1.692.37-2.946.158-1.28.372-2.843.659-4.652s.578-3.876.985-6.146c.755-4.549,1.793-9.943,3.025-15.915,1.257-5.968,2.729-12.51,4.368-19.353,3.3-13.678,6.517-26,8.777-34.94,1.122-4.444,2.033-8.053,2.673-10.585.313-1.224.56-2.187.735-2.877.083-.307.15-.551.2-.745a1.079,1.079,0,0,1,.084-.25" transform="translate(9.566 5.644)" fill="#1a2e35"/>
            <path id="Trazado_158130" data-name="Trazado 158130" d="M610.659,458.478a.7.7,0,0,1-.063-.2c-.038-.164-.082-.363-.138-.606q-.178-.861-.486-2.343c-.418-2.036-.975-4.992-1.608-8.654-1.269-7.322-2.773-17.492-3.7-28.8-.448-5.657-.7-11.059-.806-15.974-.081-4.917-.039-9.345.115-13.059.046-1.859.168-3.536.249-5.011s.18-2.741.275-3.776q.139-1.507.219-2.384c.028-.249.051-.451.069-.619a.716.716,0,0,1,.04-.209.756.756,0,0,1,.008.213c-.006.169-.014.373-.023.623q-.047.877-.132,2.388c-.068,1.036-.145,2.3-.2,3.778s-.155,3.151-.18,5.007c-.111,3.71-.12,8.132-.014,13.039.132,4.907.4,10.3.842,15.947.923,11.292,2.373,21.455,3.557,28.785.591,3.665,1.1,6.629,1.46,8.675q.254,1.49.4,2.358c.038.248.068.45.092.616a.735.735,0,0,1,.016.213" transform="translate(9.449 5.897)" fill="#1a2e35"/>
            <path id="Trazado_158131" data-name="Trazado 158131" d="M611.889,460.036a3.309,3.309,0,0,1-.258-.581l-.651-1.693q-.212-.559-.464-1.224l-.635-1.423-.726-1.635c-.256-.579-.587-1.163-.9-1.793l-1.01-1.961q-.581-1-1.2-2.068c-.794-1.451-1.821-2.894-2.812-4.465a105.672,105.672,0,0,0-7.449-9.52,117.048,117.048,0,0,0-8.548-8.556c-1.421-1.2-2.723-2.4-4.038-3.4l-1.872-1.492-1.777-1.311c-1.121-.851-2.177-1.562-3.1-2.185s-1.724-1.168-2.4-1.572l-1.533-.971a3.385,3.385,0,0,1-.519-.367,3.161,3.161,0,0,1,.567.285l1.579.9c.692.383,1.511.893,2.448,1.51s2.017,1.3,3.155,2.135l1.8,1.291,1.9,1.477c1.331,1,2.648,2.188,4.082,3.383a110.773,110.773,0,0,1,8.612,8.568,100.581,100.581,0,0,1,7.456,9.589c.987,1.585,2.007,3.043,2.791,4.51q.612,1.083,1.184,2.091l.988,1.987c.306.636.629,1.228.874,1.815l.7,1.658q.321.771.6,1.442c.155.45.3.865.429,1.243l.57,1.727a3.154,3.154,0,0,1,.169.61" transform="translate(8.951 6.476)" fill="#1a2e35"/>
            <path id="Trazado_158132" data-name="Trazado 158132" d="M652.689,409.6c0,.074-1.2.074-3.124.182a55.938,55.938,0,0,0-14.742,2.8c-1.83.606-2.944,1.045-2.973.977a2.94,2.94,0,0,1,.742-.4c.49-.235,1.213-.539,2.121-.885a44.512,44.512,0,0,1,14.841-2.818c.97-.012,1.755.006,2.3.046a2.941,2.941,0,0,1,.839.1" transform="translate(9.888 6.407)" fill="#1a2e35"/>
            <path id="Trazado_158133" data-name="Trazado 158133" d="M659.866,445.638a22.7,22.7,0,0,0-9.893-10.654,6.964,6.964,0,0,1,2.01.889,17.753,17.753,0,0,1,7.145,7.7,6.951,6.951,0,0,1,.738,2.07" transform="translate(10.171 6.807)" fill="#1a2e35"/>
            <path id="Trazado_158134" data-name="Trazado 158134" d="M634.775,374.1c.094.1-1.727,1.905-3.714,4.351s-3.4,4.586-3.516,4.513a27.859,27.859,0,0,1,7.23-8.864" transform="translate(9.82 5.854)" fill="#1a2e35"/>
            <path id="Trazado_158135" data-name="Trazado 158135" d="M628.781,363.937a34.45,34.45,0,0,1,1.343,7.884,34.45,34.45,0,0,1-1.343-7.884" transform="translate(9.839 5.695)" fill="#1a2e35"/>
            <path id="Trazado_158136" data-name="Trazado 158136" d="M610.662,395.818a97.308,97.308,0,0,1-6.2,11.969,97.721,97.721,0,0,1,6.2-11.969" transform="translate(9.459 6.194)" fill="#1a2e35"/>
            <path id="Trazado_158137" data-name="Trazado 158137" d="M599.724,384.995a54.59,54.59,0,0,1,4.49,9.021,54.59,54.59,0,0,1-4.49-9.021" transform="translate(9.385 6.025)" fill="#1a2e35"/>
            <path id="Trazado_158138" data-name="Trazado 158138" d="M583.927,422.025c-.03.134-1.995-.248-4.442-.416s-4.445-.078-4.457-.214a17.809,17.809,0,0,1,8.9.631" transform="translate(8.999 6.59)" fill="#1a2e35"/>
            <path id="Trazado_158139" data-name="Trazado 158139" d="M594.672,454.738l5.5,28.953a4.059,4.059,0,0,0,3.988,3.3h16.265a4.057,4.057,0,0,0,4-3.394l4.787-28.86Z" transform="translate(9.306 7.116)" fill="#1a2e35"/>
            <path id="Trazado_158140" data-name="Trazado 158140" d="M596.461,464.148h31.105l1.652-9.41H594.672Z" transform="translate(9.306 7.116)" fill="#375a64"/>
            <path id="Trazado_158141" data-name="Trazado 158141" d="M596.434,464l.652,3.431h29.976l.477-3.431Z" transform="translate(9.334 7.261)" fill="#fafafa"/>
          </g>
        </g>
      </g>
    </g>
    <text id="_1" data-name="1" transform="translate(339 6561)" fill="#fff" font-size="42" font-family="Roboto-Black, Roboto" font-weight="800"><tspan x="0" y="40">1</tspan></text>
    <text id="_2" data-name="2" transform="translate(435 6440)" fill="#fff" font-size="42" font-family="Roboto-Black, Roboto" font-weight="800"><tspan x="0" y="40">2</tspan></text>
    <text id="_3" data-name="3" transform="translate(593 6476)" fill="#fff" font-size="42" font-family="Roboto-Black, Roboto" font-weight="800"><tspan x="0" y="40">3</tspan></text>
    <text id="_4" data-name="4" transform="translate(737 6565)" fill="#fff" font-size="42" font-family="Roboto-Black, Roboto" font-weight="800"><tspan x="0" y="40">4</tspan></text>
    <text id="_5" data-name="5" transform="translate(893 6587)" fill="#fff" font-size="42" font-family="Roboto-Black, Roboto" font-weight="800"><tspan x="0" y="40">5</tspan></text>
    <text id="_6" data-name="6" transform="translate(959 6459)" fill="#fff" font-size="42" font-family="Roboto-Black, Roboto" font-weight="800"><tspan x="0" y="40">6</tspan></text>
    <text id="_7" data-name="7" transform="translate(1072 6538)" fill="#fff" font-size="42" font-family="Roboto-Black, Roboto" font-weight="800"><tspan x="0" y="40">7</tspan></text>
    <text id="_8" data-name="8" transform="translate(1230 6565)" fill="#fff" font-size="42" font-family="Roboto-Black, Roboto" font-weight="800"><tspan x="0" y="40">8</tspan></text>
  </g>
</svg>
