<svg xmlns="http://www.w3.org/2000/svg" xmlns:xlink="http://www.w3.org/1999/xlink" width="301.042" height="98.776" viewBox="0 0 301.042 98.776">
  <defs>
    <clipPath id="clip-path">
      <rect id="Rectángulo_11411" data-name="Rectángulo 11411" width="89.308" height="89.31" transform="translate(350.593 5.193)" fill="none"/>
    </clipPath>
  </defs>
  <g id="Grupo_90510" data-name="Grupo 90510" transform="translate(-649.479 -1119.733)">
    <g id="Grupo_90509" data-name="Grupo 90509">
      <path id="Trazado_161034" data-name="Trazado 161034" d="M641.868,77.174H372.3a5.033,5.033,0,0,1-5.033-5.033V30.7a5.033,5.033,0,0,1,5.033-5.033H641.868A5.033,5.033,0,0,1,646.9,30.7V72.141a5.033,5.033,0,0,1-5.033,5.033" transform="translate(303.62 1119.273)" fill="#856de9"/>
      <path id="Trazado_161035" data-name="Trazado 161035" d="M444.636,49.848A49.388,49.388,0,1,1,395.247.46a49.388,49.388,0,0,1,49.389,49.388" transform="translate(303.62 1119.273)" fill="#856de9"/>
      <g id="Grupo_89995" data-name="Grupo 89995" transform="translate(303.62 1119.273)" opacity="0.3">
        <g id="Grupo_89994" data-name="Grupo 89994">
          <g id="Grupo_89993" data-name="Grupo 89993" clip-path="url(#clip-path)">
            <path id="Trazado_161036" data-name="Trazado 161036" d="M437.427,63.224a44.249,44.249,0,1,1-28.8-55.555A44.249,44.249,0,0,1,437.427,63.224Z" fill="none" stroke="#fff" stroke-miterlimit="10" stroke-width="0.786"/>
          </g>
        </g>
      </g>
      <path id="Trazado_161037" data-name="Trazado 161037" d="M400.6,12.418c1.745.6,2.248,2.254,3.027,3.652a.893.893,0,0,1-.5,1.247.984.984,0,0,1-1.368-.364c-.4-.616-.764-1.254-1.12-1.895a.755.755,0,0,0-1.048-.406q-6.748,2.3-13.508,4.571c-.087.03-.172.067-.361.143l1.772,5.279c1.249-.421,2.432-.81,3.609-1.219.554-.193,1.107-.377,1.58.133s.252,1.053.048,1.6Q387.66,38.674,382.6,52.2c-.912,2.434.368,4.737,2.808,4.919a4.337,4.337,0,0,0,2.1-.48c2.02-.983,3.995-2.06,5.981-3.113.513-.272,1.011-.447,1.507,0s.382.96.178,1.5q-4.652,12.388-9.3,24.78c-.409,1.09-.384,1.147.684,1.547,1.44.539,2.887,1.06,4.317,1.622a.678.678,0,0,0,1.038-.465q.747-2.031,1.516-4.054c.314-.828.857-1.139,1.5-.883.6.236.782.831.489,1.623-.508,1.376-1.014,2.752-1.542,4.12a2.669,2.669,0,0,1-3.723,1.651q-2.363-.875-4.72-1.759a2.69,2.69,0,0,1-1.7-3.767q4.115-11,8.238-21.994c.089-.236.167-.475.3-.87-1.409.737-2.665,1.419-3.944,2.057a5.561,5.561,0,0,1-7.987-3.373,5.891,5.891,0,0,1,.253-3.822q4.63-12.319,9.238-24.649c.08-.211.149-.426.264-.757-.641.213-1.167.4-1.7.565a2.261,2.261,0,0,1-3-1.489q-.836-2.414-1.626-4.842a2.222,2.222,0,0,1,1.526-3.024q6.988-2.364,13.984-4.709a.92.92,0,0,0,.178-.11Z" transform="translate(303.62 1119.273)" fill="#fff"/>
      <path id="Trazado_161038" data-name="Trazado 161038" d="M395.5,42.617c1.425-.746,2.659-1.4,3.9-2.039a5.564,5.564,0,0,1,7.885,6.926q-5,13.395-10.022,26.78c-.218.582-.533,1.03-1.221.963a.956.956,0,0,1-.925-.921,2.613,2.613,0,0,1,.238-1.019q4.572-12.228,9.159-24.451c.249-.664.507-1.326.749-1.992a3.519,3.519,0,0,0-.889-4.023,3.435,3.435,0,0,0-4.041-.348q-3.025,1.569-6.033,3.167c-.548.29-1.077.411-1.554-.1-.426-.453-.27-.96-.081-1.463q2.869-7.638,5.733-15.278a10.833,10.833,0,0,1,.67-1.714,1.593,1.593,0,0,1,.966-.764,1.34,1.34,0,0,1,1.01.58c.748,1.145,1.408,2.348,2.139,3.594l4.829-2.82-3.462-5.946c-.131-.225-.275-.443-.39-.676a1.045,1.045,0,0,1,.323-1.438,1.056,1.056,0,0,1,1.484.35c.363.554.68,1.138,1.014,1.71.9,1.532,1.8,3.062,2.684,4.6a2.256,2.256,0,0,1-.9,3.43q-2.11,1.244-4.233,2.463a2.255,2.255,0,0,1-3.373-.906c-.263-.44-.522-.881-.864-1.458-1.611,4.3-3.164,8.441-4.793,12.788" transform="translate(303.62 1119.273)" fill="#fff"/>
      <path id="Trazado_162826" data-name="Trazado 162826" d="M4.254,17H1.178V4.2H4.254ZM9.062,7.49l.1,1.116a3.27,3.27,0,0,1,2.716-1.292,2.407,2.407,0,0,1,2.435,1.433A3.165,3.165,0,0,1,17.1,7.314q2.892,0,2.971,3.5V17H17.1V11a1.813,1.813,0,0,0-.246-1.063,1.048,1.048,0,0,0-.9-.334,1.4,1.4,0,0,0-1.31.782l.009.123V17H11.689V11.015a1.906,1.906,0,0,0-.237-1.081,1.045,1.045,0,0,0-.905-.334,1.42,1.42,0,0,0-1.3.782V17H6.284V7.49Zm21.533,4.825a5.735,5.735,0,0,1-1,3.538A3.2,3.2,0,0,1,26.9,17.176a2.742,2.742,0,0,1-2.153-.958v4.438H21.788V7.49h2.769l.088.879a2.742,2.742,0,0,1,2.241-1.055,3.224,3.224,0,0,1,2.733,1.3,5.805,5.805,0,0,1,.976,3.564Zm-2.962-.185q0-2.531-1.477-2.531a1.394,1.394,0,0,0-1.406.756V14.1a1.439,1.439,0,0,0,1.424.791q1.415,0,1.459-2.443ZM37.257,17a3.344,3.344,0,0,1-.281-.853,2.754,2.754,0,0,1-2.285,1.028,3.374,3.374,0,0,1-2.285-.813,2.588,2.588,0,0,1-.94-2.043,2.66,2.66,0,0,1,1.143-2.338,5.821,5.821,0,0,1,3.322-.791h.914v-.5q0-1.316-1.134-1.316a.927.927,0,0,0-1.055,1.042H31.693a2.655,2.655,0,0,1,1.173-2.239,4.931,4.931,0,0,1,2.993-.86,4.323,4.323,0,0,1,2.874.888,3.086,3.086,0,0,1,1.081,2.435v4.21a4.311,4.311,0,0,0,.4,2V17ZM35.4,15.066a1.652,1.652,0,0,0,.918-.237,1.487,1.487,0,0,0,.523-.536V12.772h-.861q-1.547,0-1.547,1.389a.848.848,0,0,0,.272.655A.986.986,0,0,0,35.4,15.066Zm10.072-.176a1.317,1.317,0,0,0,.967-.338,1.241,1.241,0,0,0,.334-.945h2.777a3.288,3.288,0,0,1-1.121,2.566,4.168,4.168,0,0,1-2.887,1,4.22,4.22,0,0,1-3.27-1.3,5.125,5.125,0,0,1-1.2-3.6v-.123A5.792,5.792,0,0,1,41.612,9.6a3.872,3.872,0,0,1,1.534-1.7,4.573,4.573,0,0,1,2.373-.593,4.116,4.116,0,0,1,2.944,1.028,3.647,3.647,0,0,1,1.09,2.786H46.775A1.626,1.626,0,0,0,46.415,10a1.244,1.244,0,0,0-.967-.4Q44.3,9.6,44.1,11.067a10.357,10.357,0,0,0-.062,1.283,4.068,4.068,0,0,0,.343,1.986A1.187,1.187,0,0,0,45.475,14.891Zm8.78-9.765V7.49h1.564V9.547H54.255V13.9a1.111,1.111,0,0,0,.193.747,1.037,1.037,0,0,0,.765.211,4.345,4.345,0,0,0,.738-.053v2.118a5.466,5.466,0,0,1-1.67.255,3.1,3.1,0,0,1-2.259-.721,2.954,2.954,0,0,1-.729-2.188V9.547H50.08V7.49h1.213V5.126Zm2.092,7.031A5.613,5.613,0,0,1,56.9,9.622a3.96,3.96,0,0,1,1.591-1.709,4.791,4.791,0,0,1,2.435-.6,4.373,4.373,0,0,1,3.366,1.323,5.076,5.076,0,0,1,1.23,3.6v.105a4.925,4.925,0,0,1-1.235,3.529,4.384,4.384,0,0,1-3.344,1.305,4.434,4.434,0,0,1-3.261-1.217,4.761,4.761,0,0,1-1.327-3.3Zm2.962.185a3.538,3.538,0,0,0,.413,1.934,1.376,1.376,0,0,0,1.222.615q1.582,0,1.617-2.435v-.3q0-2.558-1.635-2.558-1.485,0-1.608,2.206Zm12.5,1.986a.684.684,0,0,0-.4-.606,6.016,6.016,0,0,0-1.5-.475A6.853,6.853,0,0,1,68.08,12.6a3.062,3.062,0,0,1-1.1-.971,2.319,2.319,0,0,1-.378-1.31,2.628,2.628,0,0,1,1.081-2.158,4.453,4.453,0,0,1,2.83-.848,4.934,4.934,0,0,1,3.023.853,2.666,2.666,0,0,1,1.143,2.241H71.71q0-1.143-1.2-1.143a1.194,1.194,0,0,0-.782.259.8.8,0,0,0-.316.646.737.737,0,0,0,.387.642,3.654,3.654,0,0,0,1.235.4,10.671,10.671,0,0,1,1.49.378,2.706,2.706,0,0,1,2.145,2.646,2.491,2.491,0,0,1-1.156,2.118,5.068,5.068,0,0,1-2.993.817,5.172,5.172,0,0,1-2.18-.439,3.645,3.645,0,0,1-1.494-1.2A2.707,2.707,0,0,1,66.3,13.95h2.769a1.145,1.145,0,0,0,.439.962,1.808,1.808,0,0,0,1.081.3,1.422,1.422,0,0,0,.91-.246A.787.787,0,0,0,71.807,14.328Z" transform="translate(776 1159.568)" fill="#fff"/>
    </g>
  </g>
</svg>
