<svg id="Grupo_90128" data-name="Grupo 90128" xmlns="http://www.w3.org/2000/svg" xmlns:xlink="http://www.w3.org/1999/xlink" width="181.189" height="191.009" viewBox="0 0 181.189 191.009">
  <defs>
    <clipPath id="clip-path">
      <rect id="Rectángulo_11453" data-name="Rectángulo 11453" width="181.189" height="191.009" fill="none"/>
    </clipPath>
    <clipPath id="clip-path-3">
      <rect id="Rectángulo_11440" data-name="Rectángulo 11440" width="144.181" height="79.454" transform="translate(0 104.585)" fill="none"/>
    </clipPath>
    <clipPath id="clip-path-5">
      <path id="Trazado_161157" data-name="Trazado 161157" d="M63.7,164.079l7.222,4.2L70.6,52.6l-7.222-4.2Z" fill="none"/>
    </clipPath>
    <linearGradient id="linear-gradient" x1="-0.059" y1="5.591" x2="-0.051" y2="5.591" gradientUnits="objectBoundingBox">
      <stop offset="0" stop-color="#1a6bb2"/>
      <stop offset="1" stop-color="#1b4b92"/>
    </linearGradient>
    <clipPath id="clip-path-7">
      <path id="Trazado_161159" data-name="Trazado 161159" d="M70.6,52.6l.326,115.675,68.3-39.434-.326-115.672Z" fill="none"/>
    </clipPath>
    <linearGradient id="linear-gradient-2" x1="-0.119" y1="1.327" x2="-0.113" y2="1.327" xlink:href="#linear-gradient"/>
    <clipPath id="clip-path-8">
      <path id="Trazado_161175" data-name="Trazado 161175" d="M120.146,18.789v0m-2.3-1.338c.507.293,1.01.582,1.513.878.08.046.187.11.271.156l.107.064-1.891-1.1m-4.919-2.859,2.316,1.345,1.031.6-3.347-1.946m0,0a2.991,2.991,0,0,1-1.355,2.357l7.222,4.2a2.986,2.986,0,0,0,1.355-2.357l-.165-.1.165.092a.948.948,0,0,0-.4-.87l-7.221-4.2a.954.954,0,0,1,.4.874" fill="none"/>
    </clipPath>
    <clipPath id="clip-path-9">
      <path id="Trazado_161186" data-name="Trazado 161186" d="M111.559,13.815l7.222,4.2a.969.969,0,0,1,.969-.1q-3.429-2-6.859-3.986c-.109-.064-.255-.146-.362-.211a.712.712,0,0,0-.359-.091,1.232,1.232,0,0,0-.611.188" fill="none"/>
    </clipPath>
    <clipPath id="clip-path-11">
      <path id="Trazado_161198" data-name="Trazado 161198" d="M81.158,34.042c2.164,1.263,5.054,2.937,7.219,4.2a.957.957,0,0,0,.974-.1L82.13,33.946a.965.965,0,0,1-.972.1" fill="none"/>
    </clipPath>
    <clipPath id="clip-path-13">
      <path id="Trazado_161215" data-name="Trazado 161215" d="M80.758,33.165a.963.963,0,0,0,.4.877q3.609,2.1,7.219,4.2a.964.964,0,0,1-.4-.882,2.972,2.972,0,0,1,1.362-2.349l-7.222-4.2a2.986,2.986,0,0,0-1.362,2.353" fill="none"/>
    </clipPath>
    <clipPath id="clip-path-15">
      <path id="Trazado_161260" data-name="Trazado 161260" d="M158.917,28.458l1.665.963a3,3,0,0,0-1.257-2.3c-.5-.289-1.164-.677-1.663-.969a3.005,3.005,0,0,1,1.255,2.306" fill="none"/>
    </clipPath>
    <clipPath id="clip-path-16">
      <path id="Trazado_161264" data-name="Trazado 161264" d="M159.325,27.121l-.022-.013ZM158.7,26.9a1.7,1.7,0,0,1,.6.208l-1.641-.956a1.779,1.779,0,0,0-.62-.218Z" fill="none"/>
    </clipPath>
    <clipPath id="clip-path-17">
      <path id="Trazado_161266" data-name="Trazado 161266" d="M158.965,25.659l-.329-.192.329.192m-.4-.231.07.039-.086-.05.016.011m-.016-.011c-.03-.018-.063-.039-.092-.054l-.051-.029.143.083m-.143-.083-.012-.007.012.007m-.012-.007-.041-.024-.033-.019.074.043m-.074-.043-.005,0,.005,0m-.005,0c-.025-.015-.052-.032-.073-.043-.314-.185-.627-.364-.943-.545q.51.292,1.016.588" fill="none"/>
    </clipPath>
    <clipPath id="clip-path-19">
      <path id="Trazado_161291" data-name="Trazado 161291" d="M157.3,24.694a3.439,3.439,0,0,1-.258,1.24c.551.325,1.107.649,1.661.966a3.448,3.448,0,0,0,.262-1.241l-.1-.055.1.055a1.332,1.332,0,0,0-.545-1.209l-1.665-.962a1.306,1.306,0,0,1,.545,1.206" fill="none"/>
    </clipPath>
    <clipPath id="clip-path-20">
      <path id="Trazado_161311" data-name="Trazado 161311" d="M151.961,32.477l1.664.965a9.79,9.79,0,0,1,1.855-4.68l-1.659-.967a9.779,9.779,0,0,0-1.86,4.682" fill="none"/>
    </clipPath>
    <clipPath id="clip-path-21">
      <path id="Trazado_161327" data-name="Trazado 161327" d="M155.421,23.62l1.66.966a1.335,1.335,0,0,1,1.339-.136l-1.665-.962a.953.953,0,0,0-.491-.127,1.708,1.708,0,0,0-.843.259" fill="none"/>
    </clipPath>
    <clipPath id="clip-path-22">
      <path id="Trazado_161373" data-name="Trazado 161373" d="M153.551,26.857a1.56,1.56,0,0,0,.27.938l1.659.967a1.611,1.611,0,0,1-.267-.938,4.111,4.111,0,0,1,1.868-3.238l-1.66-.966a4.11,4.11,0,0,0-1.87,3.237" fill="none"/>
    </clipPath>
    <clipPath id="clip-path-24">
      <path id="Trazado_161384" data-name="Trazado 161384" d="M123.933,77.355l1.661.967a2.994,2.994,0,0,0-1.253-2.3c-.5-.293-1.166-.678-1.664-.967a3,3,0,0,1,1.256,2.3" fill="none"/>
    </clipPath>
    <clipPath id="clip-path-25">
      <path id="Trazado_161388" data-name="Trazado 161388" d="M123.719,75.8a1.676,1.676,0,0,1,.622.218l-1.664-.967a1.746,1.746,0,0,0-.62-.218Z" fill="none"/>
    </clipPath>
    <clipPath id="clip-path-26">
      <path id="Trazado_161390" data-name="Trazado 161390" d="M123.978,74.556h0l-.07-.04.068.04m-.068-.04-.22-.127.22.127m-.22-.127-.015-.008.015.008m-.015-.008-.1-.056c-.029-.016-.064-.041-.1-.056l.192.112m-.2-.116.012,0-.057-.032.045.028m-.045-.028c-.021-.013-.042-.027-.06-.037s-.077-.043-.107-.064c-.315-.178-.628-.364-.944-.546l1.111.647" fill="none"/>
    </clipPath>
    <clipPath id="clip-path-28">
      <path id="Trazado_161415" data-name="Trazado 161415" d="M123.474,74.265l.134.077-.134-.077m-1.159-.675a3.438,3.438,0,0,1-.258,1.244c.551.322,1.107.642,1.662.967a3.541,3.541,0,0,0,.261-1.245h0c-.072-.039-.143-.082-.216-.125l.218.125a1.315,1.315,0,0,0-.547-1.205l-1.663-.966a1.313,1.313,0,0,1,.545,1.2" fill="none"/>
    </clipPath>
    <clipPath id="clip-path-29">
      <path id="Trazado_161435" data-name="Trazado 161435" d="M116.977,81.374l1.663.966a9.811,9.811,0,0,1,1.857-4.682l-1.666-.966a9.792,9.792,0,0,0-1.854,4.682" fill="none"/>
    </clipPath>
    <clipPath id="clip-path-30">
      <path id="Trazado_161451" data-name="Trazado 161451" d="M120.435,72.52l1.662.963a1.327,1.327,0,0,1,1.336-.132l-1.663-.966a.975.975,0,0,0-.488-.124,1.725,1.725,0,0,0-.847.259" fill="none"/>
    </clipPath>
    <clipPath id="clip-path-31">
      <path id="Trazado_161497" data-name="Trazado 161497" d="M118.567,75.754a1.574,1.574,0,0,0,.264.938l1.666.966a1.558,1.558,0,0,1-.269-.934,4.116,4.116,0,0,1,1.869-3.241l-1.662-.963a4.1,4.1,0,0,0-1.868,3.234" fill="none"/>
    </clipPath>
  </defs>
  <g id="Grupo_90127" data-name="Grupo 90127" clip-path="url(#clip-path)">
    <g id="Grupo_90068" data-name="Grupo 90068">
      <g id="Grupo_90067" data-name="Grupo 90067" clip-path="url(#clip-path)">
        <g id="Grupo_90066" data-name="Grupo 90066" opacity="0.1">
          <g id="Grupo_90065" data-name="Grupo 90065">
            <g id="Grupo_90064" data-name="Grupo 90064" clip-path="url(#clip-path-3)">
              <path id="Trazado_161153" data-name="Trazado 161153" d="M144.181,146.843,75.706,184.038,0,140.329l69.267-35.744Z"/>
            </g>
          </g>
        </g>
      </g>
    </g>
    <path id="Trazado_161154" data-name="Trazado 161154" d="M70.921,168.275l-7.222-4.2L132,124.644l7.222,4.2Z" fill="#bfd4db"/>
    <g id="Grupo_90070" data-name="Grupo 90070">
      <g id="Grupo_90069" data-name="Grupo 90069" clip-path="url(#clip-path)">
        <path id="Trazado_161155" data-name="Trazado 161155" d="M70.944,176.875l-.023-8.6-7.222-4.2.023,8.6a3.927,3.927,0,0,0,1.637,3.59q3.609,2.1,7.222,4.2a3.928,3.928,0,0,1-1.637-3.591" fill="#def6ff"/>
        <path id="Trazado_161156" data-name="Trazado 161156" d="M70.944,176.875l-.023-8.6,68.3-39.434.025,8.6a12.292,12.292,0,0,1-5.582,9.666L76.57,180.073c-3.093,1.787-5.614.357-5.626-3.2" fill="#a9d6ea"/>
      </g>
    </g>
    <g id="Grupo_90072" data-name="Grupo 90072">
      <g id="Grupo_90071" data-name="Grupo 90071" clip-path="url(#clip-path-5)">
        <rect id="Rectángulo_11443" data-name="Rectángulo 11443" width="120.104" height="16.238" transform="translate(54.687 167.642) rotate(-85.833)" fill="url(#linear-gradient)"/>
      </g>
    </g>
    <g id="Grupo_90074" data-name="Grupo 90074">
      <g id="Grupo_90073" data-name="Grupo 90073" clip-path="url(#clip-path)">
        <path id="Trazado_161158" data-name="Trazado 161158" d="M70.595,52.6l-7.222-4.2,68.3-39.43,7.222,4.2Z" fill="#35c2da"/>
      </g>
    </g>
    <g id="Grupo_90076" data-name="Grupo 90076">
      <g id="Grupo_90075" data-name="Grupo 90075" clip-path="url(#clip-path-7)">
        <rect id="Rectángulo_11445" data-name="Rectángulo 11445" width="169.498" height="121.32" transform="translate(17.11 146.881) rotate(-68.199)" fill="url(#linear-gradient-2)"/>
      </g>
    </g>
    <g id="Grupo_90078" data-name="Grupo 90078">
      <g id="Grupo_90077" data-name="Grupo 90077" clip-path="url(#clip-path-8)">
        <path id="Trazado_161160" data-name="Trazado 161160" d="M118.791,21.145l-7.222-4.2a2.369,2.369,0,0,0,.453-.353l7.222,4.2a2.012,2.012,0,0,1-.453.353" fill="#b2c5cc"/>
        <path id="Trazado_161161" data-name="Trazado 161161" d="M119.244,20.792l-7.222-4.2c.052-.05.1-.1.148-.157l7.222,4.2c-.048.054-.1.107-.148.157" fill="#adc0c7"/>
        <path id="Trazado_161162" data-name="Trazado 161162" d="M119.392,20.635l-7.222-4.2c.039-.043.077-.089.113-.135l7.22,4.2c-.034.046-.072.091-.111.134" fill="#a9bbc2"/>
        <path id="Trazado_161163" data-name="Trazado 161163" d="M119.5,20.5l-7.22-4.2c.03-.039.06-.078.091-.121l7.22,4.2c-.029.042-.059.082-.091.121" fill="#a4b6bd"/>
        <path id="Trazado_161164" data-name="Trazado 161164" d="M119.594,20.379l-7.22-4.2c.025-.035.053-.078.076-.117l7.222,4.2c-.023.04-.053.075-.078.118" fill="#a0b1b8"/>
        <path id="Trazado_161165" data-name="Trazado 161165" d="M119.672,20.261l-7.222-4.2c.025-.036.048-.075.071-.115l7.222,4.2c-.023.039-.044.075-.071.114" fill="#9bacb3"/>
        <path id="Trazado_161166" data-name="Trazado 161166" d="M119.743,20.147l-7.222-4.2c.02-.039.041-.078.062-.114l7.222,4.2c-.021.039-.042.075-.062.114" fill="#97a7ad"/>
        <path id="Trazado_161167" data-name="Trazado 161167" d="M119.806,20.033l-7.222-4.2c.022-.039.041-.078.057-.114l7.222,4.193a.918.918,0,0,1-.057.118" fill="#93a2a8"/>
        <path id="Trazado_161168" data-name="Trazado 161168" d="M119.863,19.915l-7.222-4.193c.022-.043.039-.082.057-.121l7.222,4.2a1.167,1.167,0,0,1-.057.118" fill="#8e9da3"/>
        <path id="Trazado_161169" data-name="Trazado 161169" d="M119.92,19.8,112.7,15.6c.016-.039.034-.078.048-.121l7.222,4.2c-.014.039-.032.082-.048.121" fill="#8a999e"/>
        <path id="Trazado_161170" data-name="Trazado 161170" d="M119.968,19.676l-7.222-4.2c.016-.042.032-.085.048-.132l7.222,4.2-.048.128" fill="#859499"/>
        <path id="Trazado_161171" data-name="Trazado 161171" d="M120.016,19.548l-7.222-4.2c.013-.043.029-.089.043-.136l7.22,4.2c-.012.043-.028.093-.041.139" fill="#818f94"/>
        <path id="Trazado_161172" data-name="Trazado 161172" d="M120.057,19.409l-7.22-4.2c.014-.05.025-.108.036-.161l7.221,4.2c-.01.05-.023.1-.037.157" fill="#7c8a8f"/>
        <path id="Trazado_161173" data-name="Trazado 161173" d="M120.094,19.252l-7.222-4.2a.925.925,0,0,0,.034-.189l7.222,4.2a1.812,1.812,0,0,1-.034.193" fill="#78858a"/>
        <path id="Trazado_161174" data-name="Trazado 161174" d="M120.128,19.06l-7.222-4.2a1.675,1.675,0,0,0,.018-.271.952.952,0,0,0-.4-.874l7.222,4.2a.952.952,0,0,1,.4.873,1.937,1.937,0,0,1-.018.271" fill="#738085"/>
      </g>
    </g>
    <g id="Grupo_90080" data-name="Grupo 90080">
      <g id="Grupo_90079" data-name="Grupo 90079" clip-path="url(#clip-path-9)">
        <path id="Trazado_161176" data-name="Trazado 161176" d="M118.781,18.011l-7.222-4.2a1.5,1.5,0,0,1,.193-.1l7.221,4.2c-.06.028-.126.06-.192.1" fill="#32b5ca"/>
        <path id="Trazado_161177" data-name="Trazado 161177" d="M118.973,17.915l-7.222-4.2a.767.767,0,0,1,.162-.053l7.221,4.2a.918.918,0,0,0-.161.053" fill="#30b0c5"/>
        <path id="Trazado_161178" data-name="Trazado 161178" d="M119.134,17.862l-7.22-4.2a.468.468,0,0,1,.118-.025l7.222,4.193a.723.723,0,0,0-.12.029" fill="#2facc0"/>
        <path id="Trazado_161179" data-name="Trazado 161179" d="M119.253,17.833l-7.222-4.193a.958.958,0,0,1,.1-.014l7.221,4.2-.1.011" fill="#2ea7bb"/>
        <path id="Trazado_161180" data-name="Trazado 161180" d="M119.355,17.823l-7.222-4.2a.663.663,0,0,1,.089,0l7.222,4.2a.862.862,0,0,0-.089,0" fill="#2da3b6"/>
        <path id="Trazado_161181" data-name="Trazado 161181" d="M119.444,17.826l-7.222-4.2a.346.346,0,0,1,.084.011l7.222,4.193a.793.793,0,0,0-.084-.007" fill="#2b9eb1"/>
        <path id="Trazado_161182" data-name="Trazado 161182" d="M119.527,17.833l-7.222-4.193a.585.585,0,0,1,.075.014l7.222,4.2c-.025-.007-.05-.011-.075-.018" fill="#2a9aac"/>
        <path id="Trazado_161183" data-name="Trazado 161183" d="M119.6,17.851l-7.222-4.2c.024.008.047.018.072.029l7.222,4.2c-.025-.01-.048-.017-.072-.028" fill="#2995a7"/>
        <path id="Trazado_161184" data-name="Trazado 161184" d="M119.676,17.879l-7.222-4.2a.261.261,0,0,1,.068.032l7.222,4.2a.319.319,0,0,0-.068-.032" fill="#2891a2"/>
        <path id="Trazado_161185" data-name="Trazado 161185" d="M119.743,17.911l-7.222-4.2.007,0,7.222,4.2-.007,0" fill="#268c9d"/>
      </g>
    </g>
    <g id="Grupo_90082" data-name="Grupo 90082">
      <g id="Grupo_90081" data-name="Grupo 90081" clip-path="url(#clip-path)">
        <path id="Trazado_161187" data-name="Trazado 161187" d="M89.351,38.139l-7.222-4.193,29.441-17,7.221,4.2Z" fill="#bfd4db"/>
      </g>
    </g>
    <g id="Grupo_90084" data-name="Grupo 90084">
      <g id="Grupo_90083" data-name="Grupo 90083" clip-path="url(#clip-path-11)">
        <path id="Trazado_161188" data-name="Trazado 161188" d="M88.378,38.239l-7.22-4.2.005,0,7.222,4.2-.007,0" fill="#8a999e"/>
        <path id="Trazado_161189" data-name="Trazado 161189" d="M88.385,38.242l-7.222-4.2a.493.493,0,0,0,.068.036l7.222,4.2a.633.633,0,0,1-.068-.036" fill="#8e9da3"/>
        <path id="Trazado_161190" data-name="Trazado 161190" d="M88.452,38.278l-7.222-4.2a.449.449,0,0,0,.073.025l7.222,4.2a.448.448,0,0,1-.073-.025" fill="#93a2a8"/>
        <path id="Trazado_161191" data-name="Trazado 161191" d="M88.526,38.3l-7.222-4.2a.556.556,0,0,1,.073.018l7.224,4.2a.68.68,0,0,1-.075-.018" fill="#97a7ad"/>
        <path id="Trazado_161192" data-name="Trazado 161192" d="M88.6,38.32l-7.224-4.2a.816.816,0,0,0,.084.007l7.222,4.2L88.6,38.32" fill="#9bacb3"/>
        <path id="Trazado_161193" data-name="Trazado 161193" d="M88.683,38.331l-7.222-4.2a.451.451,0,0,0,.09,0l7.222,4.2Z" fill="#a0b1b8"/>
        <path id="Trazado_161194" data-name="Trazado 161194" d="M88.774,38.331l-7.222-4.2c.032,0,.068,0,.1-.007l7.221,4.2a.5.5,0,0,1-.1.011" fill="#a4b6bd"/>
        <path id="Trazado_161195" data-name="Trazado 161195" d="M88.875,38.32l-7.222-4.2c.041-.008.08-.015.121-.025l7.22,4.193a.732.732,0,0,1-.119.028" fill="#a9bbc2"/>
        <path id="Trazado_161196" data-name="Trazado 161196" d="M88.994,38.292,81.774,34.1c.053-.018.1-.036.158-.057l7.223,4.2a1.01,1.01,0,0,1-.161.053" fill="#adc0c7"/>
        <path id="Trazado_161197" data-name="Trazado 161197" d="M89.155,38.239l-7.222-4.2a1.97,1.97,0,0,0,.2-.1l7.222,4.193a1.208,1.208,0,0,1-.2.1" fill="#b2c5cc"/>
      </g>
    </g>
    <g id="Grupo_90086" data-name="Grupo 90086">
      <g id="Grupo_90085" data-name="Grupo 90085" clip-path="url(#clip-path)">
        <path id="Trazado_161199" data-name="Trazado 161199" d="M89.342,35.008l-7.222-4.2,29.439-17,7.222,4.2Z" fill="#35c2da"/>
      </g>
    </g>
    <g id="Grupo_90088" data-name="Grupo 90088">
      <g id="Grupo_90087" data-name="Grupo 90087" clip-path="url(#clip-path-13)">
        <path id="Trazado_161200" data-name="Trazado 161200" d="M88.378,38.239l-7.22-4.2a.961.961,0,0,1-.4-.877c0-.089.008-.178.016-.267L88,37.091a2.519,2.519,0,0,0-.017.267.961.961,0,0,0,.4.881" fill="#207684"/>
        <path id="Trazado_161201" data-name="Trazado 161201" d="M88,37.09,80.774,32.9a1.66,1.66,0,0,1,.036-.189l7.22,4.2c-.014.06-.023.124-.034.185" fill="#217a89"/>
        <path id="Trazado_161202" data-name="Trazado 161202" d="M88.03,36.9l-7.22-4.2c.011-.053.023-.1.037-.157l7.22,4.2c-.012.054-.024.107-.037.157" fill="#237f8e"/>
        <path id="Trazado_161203" data-name="Trazado 161203" d="M88.067,36.748l-7.22-4.2c.012-.046.025-.092.041-.139l7.222,4.2c-.016.05-.029.093-.043.139" fill="#248393"/>
        <path id="Trazado_161204" data-name="Trazado 161204" d="M88.11,36.609l-7.222-4.2c.013-.043.029-.086.046-.129l7.222,4.2a1.153,1.153,0,0,0-.046.125" fill="#258898"/>
        <path id="Trazado_161205" data-name="Trazado 161205" d="M88.157,36.484l-7.222-4.2c.016-.039.032-.082.05-.121l7.222,4.2a1.263,1.263,0,0,0-.05.121" fill="#268c9d"/>
        <path id="Trazado_161206" data-name="Trazado 161206" d="M88.207,36.363l-7.222-4.2c.018-.039.034-.079.052-.118l7.221,4.2c-.017.039-.033.078-.051.121" fill="#2891a2"/>
        <path id="Trazado_161207" data-name="Trazado 161207" d="M88.258,36.242l-7.222-4.2c.022-.04.043-.079.061-.115l7.222,4.2c-.02.039-.039.075-.061.114" fill="#2995a7"/>
        <path id="Trazado_161208" data-name="Trazado 161208" d="M88.319,36.128l-7.222-4.2c.018-.039.043-.078.064-.114l7.222,4.2c-.023.039-.046.078-.064.114" fill="#2a9aac"/>
        <path id="Trazado_161209" data-name="Trazado 161209" d="M88.383,36.013l-7.222-4.2a1.2,1.2,0,0,1,.07-.114l7.221,4.2a1.016,1.016,0,0,0-.069.114" fill="#2b9eb1"/>
        <path id="Trazado_161210" data-name="Trazado 161210" d="M88.452,35.9,81.23,31.7c.027-.043.052-.079.079-.118l7.222,4.2c-.029.036-.052.079-.079.118" fill="#2da3b6"/>
        <path id="Trazado_161211" data-name="Trazado 161211" d="M88.531,35.782l-7.222-4.2c.03-.042.057-.082.091-.124l7.22,4.2a1.345,1.345,0,0,0-.089.121" fill="#2ea7bb"/>
        <path id="Trazado_161212" data-name="Trazado 161212" d="M88.62,35.657l-7.22-4.2c.035-.046.073-.089.108-.132l7.222,4.2c-.035.043-.073.086-.11.136Z" fill="#2facc0"/>
        <path id="Trazado_161213" data-name="Trazado 161213" d="M88.731,35.525l-7.222-4.2c.05-.057.1-.11.15-.164l7.222,4.2a1.912,1.912,0,0,0-.15.16" fill="#30b0c5"/>
        <path id="Trazado_161214" data-name="Trazado 161214" d="M88.881,35.365l-7.222-4.2a2.372,2.372,0,0,1,.462-.353l7.222,4.2a2.229,2.229,0,0,0-.462.357" fill="#32b5ca"/>
      </g>
    </g>
    <g id="Grupo_90090" data-name="Grupo 90090">
      <g id="Grupo_90089" data-name="Grupo 90089" clip-path="url(#clip-path)">
        <path id="Trazado_161216" data-name="Trazado 161216" d="M118.781,18.011c.754-.435,1.362-.089,1.366.777a2.99,2.99,0,0,1-1.355,2.357L89.351,38.138c-.759.442-1.369.093-1.37-.781a2.967,2.967,0,0,1,1.361-2.349Z" fill="#30afc4"/>
        <path id="Trazado_161217" data-name="Trazado 161217" d="M133.26,4.961c3.093-1.786,5.607-.346,5.616,3.209l.016,5L70.6,52.6l-.015-5a12.319,12.319,0,0,1,5.589-9.677ZM118.791,21.145a2.985,2.985,0,0,0,1.355-2.357c0-.866-.611-1.212-1.366-.777l-29.438,17a2.972,2.972,0,0,0-1.362,2.349c0,.874.611,1.223,1.371.781Z" fill="#a9d6ea"/>
        <path id="Trazado_161218" data-name="Trazado 161218" d="M134.178,4.527c.136-.053.268-.1.4-.139.083-.025.165-.05.244-.068s.159-.035.237-.053c.1-.015.194-.032.291-.043.057-.007.112-.014.171-.018.121-.007.24-.011.358-.007.027,0,.054,0,.084,0a2.626,2.626,0,0,1,.41.053.538.538,0,0,1,.1.021,3.128,3.128,0,0,1,.305.086c.03.011.064.021.1.036a2.821,2.821,0,0,1,.364.174q-3.61-2.1-7.22-4.2a.14.14,0,0,0-.03-.018,2.115,2.115,0,0,0-.284-.136A.3.3,0,0,0,129.653.2c-.03-.014-.065-.025-.1-.036-.05-.018-.1-.035-.146-.05s-.1-.025-.159-.035c-.034-.007-.067-.018-.1-.025L129.1.045a2.72,2.72,0,0,0-.34-.039h-.018c-.029,0-.061,0-.087,0-.088,0-.175,0-.264,0a.775.775,0,0,0-.091.011,1.39,1.39,0,0,0-.168.018,1.272,1.272,0,0,0-.16.01c-.046.008-.093.022-.139.033a2.231,2.231,0,0,0-.223.05.826.826,0,0,0-.13.024c-.039.011-.084.029-.125.043-.132.04-.262.086-.4.136-.044.018-.089.028-.133.05s-.054.028-.081.035c-.228.1-.461.214-.7.353L68.947,33.725a8.138,8.138,0,0,0-.875.6c-.048.032-.1.068-.143.1a10.475,10.475,0,0,0-.789.7c-.022.021-.045.035-.064.057-.041.039-.077.085-.118.125-.127.132-.253.267-.38.4-.037.042-.078.082-.116.124s-.062.075-.092.115c-.077.089-.15.178-.223.271-.047.057-.1.11-.139.171s-.075.1-.111.149c-.05.068-.1.136-.155.207-.034.05-.073.1-.109.146-.058.09-.115.175-.174.264-.033.05-.07.1-.1.157a.736.736,0,0,0-.044.064c-.1.157-.2.314-.294.474-.006.015-.015.029-.02.04s-.029.053-.043.078c-.07.118-.134.239-.2.36-.028.05-.053.107-.082.161s-.053.11-.083.164-.05.1-.077.149c-.059.129-.119.257-.177.389a.859.859,0,0,1-.037.082.071.071,0,0,1-.007.018c-.073.168-.141.331-.207.5-.014.032-.021.06-.036.092-.019.061-.04.125-.064.186-.028.085-.062.167-.089.249-.021.065-.039.132-.059.2s-.048.154-.071.232c-.014.05-.03.1-.045.146-.024.082-.042.168-.062.254s-.052.192-.071.288c-.009.036-.018.068-.025.1-.015.068-.02.136-.036.2-.027.15-.053.3-.075.45-.007.043-.018.082-.023.124s0,.075-.005.114a7.642,7.642,0,0,0-.064.981l.014,5L70.6,52.6l-.015-5a7.823,7.823,0,0,1,.063-.981c.009-.078.018-.16.03-.239.021-.149.048-.3.075-.449.022-.1.039-.2.061-.3s.048-.2.069-.293c.034-.128.068-.26.107-.392.023-.078.048-.16.075-.242.046-.146.1-.293.146-.439.022-.06.043-.124.064-.185.081-.207.161-.41.25-.613.014-.032.028-.061.041-.093.078-.171.159-.342.242-.517.032-.06.065-.121.1-.182.082-.16.169-.321.257-.478.025-.042.048-.085.069-.124.114-.193.23-.382.351-.567.036-.057.072-.111.111-.168.091-.132.18-.267.275-.4.051-.071.1-.142.158-.21.082-.111.166-.218.251-.328.074-.086.147-.175.218-.26s.144-.164.217-.243c.122-.139.243-.271.371-.4.061-.06.125-.121.186-.182a9.167,9.167,0,0,1,.786-.691c.05-.039.1-.075.15-.111a8.129,8.129,0,0,1,.872-.588L133.26,4.962a6.538,6.538,0,0,1,.7-.349c.072-.032.147-.061.216-.086" fill="#def6ff"/>
        <path id="Trazado_161219" data-name="Trazado 161219" d="M178.827,45.394l-1.594-.923,0,1.34,1.594.927Z" fill="#abbec5"/>
        <path id="Trazado_161220" data-name="Trazado 161220" d="M178.816,41.914l-1.592-.927.005,1.344,1.59.927Z" fill="#abbec5"/>
        <path id="Trazado_161221" data-name="Trazado 161221" d="M178.806,38.26l-1.592-.927.006,1.344,1.59.931Z" fill="#abbec5"/>
        <path id="Trazado_161222" data-name="Trazado 161222" d="M178.831,46.739l-1.594-.927-40.074,23.14,1.59.924Z" fill="#bfd4dc"/>
        <path id="Trazado_161223" data-name="Trazado 161223" d="M178.827,45.394l-1.594-.923L137.157,67.61l1.592.924Z" fill="#36a0b7"/>
        <path id="Trazado_161224" data-name="Trazado 161224" d="M138.749,68.535l-1.592-.924.005,1.341,1.591.924Z" fill="#3190a4"/>
        <path id="Trazado_161225" data-name="Trazado 161225" d="M178.82,43.259l-1.59-.927L137.15,65.468l1.594.927Z" fill="#bfd4dc"/>
        <path id="Trazado_161226" data-name="Trazado 161226" d="M178.816,41.914l-1.592-.927-40.078,23.14,1.594.924Z" fill="#36a0b7"/>
        <path id="Trazado_161227" data-name="Trazado 161227" d="M138.74,65.051l-1.594-.923,0,1.34,1.594.927Z" fill="#3190a4"/>
        <path id="Trazado_161228" data-name="Trazado 161228" d="M178.809,39.608l-1.59-.931-40.078,23.14,1.594.927Z" fill="#bfd4dc"/>
        <path id="Trazado_161229" data-name="Trazado 161229" d="M138.728,61.4l-1.588-.927v1.344l1.594.927Z" fill="#3190a4"/>
        <path id="Trazado_161230" data-name="Trazado 161230" d="M138.728,61.4l.007,1.344,40.074-23.136,0-1.348Z" fill="#3fbad4"/>
        <path id="Trazado_161231" data-name="Trazado 161231" d="M178.806,38.26l-1.592-.927L137.14,60.473l1.588.927Z" fill="#36a0b7"/>
        <path id="Trazado_161232" data-name="Trazado 161232" d="M178.485,35.2c1.476-.852,2.67-.171,2.679,1.526l.025,8.857a5.858,5.858,0,0,1-2.663,4.61L145.347,69.354,136.6,82.532l-.07-10.842c-.009-.1-.03-.193-.03-.3l-.025-8.864a5.86,5.86,0,0,1,2.665-4.61Zm-39.75,27.54,40.074-23.136,0-1.348L138.728,61.4Zm.018,7.131,40.078-23.136,0-1.345-40.078,23.14Zm-.009-3.48L178.82,43.259l0-1.345L138.74,65.051Z" fill="#f8f9fd"/>
        <path id="Trazado_161233" data-name="Trazado 161233" d="M138.749,68.535l0,1.341L178.83,46.739l0-1.344Z" fill="#3fbad4"/>
        <path id="Trazado_161234" data-name="Trazado 161234" d="M138.74,65.051l0,1.344L178.82,43.259l0-1.345Z" fill="#3fbad4"/>
        <path id="Trazado_161235" data-name="Trazado 161235" d="M134.886,61.482c0-.043,0-.086.007-.132a.726.726,0,0,1,.011-.125c0-.046.009-.089.012-.132s.014-.089.02-.135.018-.089.025-.136.016-.092.028-.135.02-.1.031-.143.025-.092.039-.142.021-.075.03-.111l0-.011.007-.017c.012-.047.03-.093.044-.139s.031-.093.047-.132.032-.089.048-.132.036-.086.053-.132.031-.068.045-.1l0-.011s.007-.01.009-.014a1.391,1.391,0,0,1,.059-.128c.021-.047.042-.1.067-.143s.052-.107.082-.16.065-.118.1-.175c0-.011.009-.018.011-.025a.1.1,0,0,0,.014-.029c.066-.107.134-.213.207-.32.052-.082.11-.165.169-.243l.006-.007c.033-.05.075-.1.11-.146s.068-.086.1-.129.066-.082.1-.121.071-.078.1-.118c.005-.007.014-.01.02-.021a.028.028,0,0,0,.012-.014c.025-.025.05-.054.075-.079s.079-.075.114-.11.079-.075.12-.111.08-.071.119-.1a.655.655,0,0,0,.059-.05l.016-.011c.012-.01.027-.025.044-.039.036-.025.077-.057.117-.086s.076-.057.115-.082.075-.049.116-.078.073-.046.111-.068a.131.131,0,0,0,.026-.018l39.344-22.712c.026-.018.057-.032.082-.05s.076-.039.114-.053.071-.036.1-.05a.984.984,0,0,1,.107-.046l.109-.043a.064.064,0,0,0,.019-.007h.011a.575.575,0,0,1,.077-.025.647.647,0,0,1,.112-.032c.036-.011.073-.018.107-.025s.079-.014.118-.018a.733.733,0,0,1,.076-.011h.013c.012,0,.019,0,.028,0,.047,0,.088,0,.127,0s.094,0,.141.007a1.1,1.1,0,0,1,.151.022h.006c.064.014.123.032.18.05a1.448,1.448,0,0,1,.215.1c.534.311,1.063.621,1.6.927a1.388,1.388,0,0,0-.394-.149h-.007a1.427,1.427,0,0,0-.451-.022h-.009a2.2,2.2,0,0,0-.5.107l0,0a2.985,2.985,0,0,0-.542.249L139.143,57.917a3.86,3.86,0,0,0-.529.367.051.051,0,0,0-.018.018,4.772,4.772,0,0,0-.489.449l-.007.014a6.217,6.217,0,0,0-.453.538,5.911,5.911,0,0,0-.386.6.03.03,0,0,0-.013.014,6.258,6.258,0,0,0-.319.627l0,.007a5.492,5.492,0,0,0-.24.656l0,.007a4.6,4.6,0,0,0-.205,1.313l.025,8.864c0,.106.021.2.03.3l.07,10.843-1.594-.924-.07-10.846c0-.018,0-.039-.007-.057a.679.679,0,0,0-.01-.093.285.285,0,0,1-.007-.071.311.311,0,0,1,0-.046.167.167,0,0,1,0-.033l-.027-8.863c0-.036,0-.075,0-.118" fill="#a9d6ea"/>
        <path id="Trazado_161236" data-name="Trazado 161236" d="M143.475,34.463l-1.693-.984,0,1.43,1.695.984Z" fill="#abbec5"/>
        <path id="Trazado_161237" data-name="Trazado 161237" d="M143.465,30.762l-1.7-.988.006,1.43,1.693.984Z" fill="#abbec5"/>
        <path id="Trazado_161238" data-name="Trazado 161238" d="M143.452,26.872l-1.693-.987.005,1.433,1.693.984Z" fill="#abbec5"/>
        <path id="Trazado_161239" data-name="Trazado 161239" d="M143.48,35.892l-1.7-.984L99.127,59.535l1.694.984Z" fill="#bfd4dc"/>
        <path id="Trazado_161240" data-name="Trazado 161240" d="M143.475,34.463l-1.693-.984L99.122,58.106l1.7.984Z" fill="#36a0b7"/>
        <path id="Trazado_161241" data-name="Trazado 161241" d="M100.818,59.089l0,1.43,42.659-24.627-.006-1.43Z" fill="#3fbad4"/>
        <path id="Trazado_161242" data-name="Trazado 161242" d="M100.818,59.089l-1.7-.984.005,1.43,1.694.984Z" fill="#3190a4"/>
        <path id="Trazado_161243" data-name="Trazado 161243" d="M143.468,32.188l-1.694-.984L99.119,55.831l1.695.987Z" fill="#bfd4dc"/>
        <path id="Trazado_161244" data-name="Trazado 161244" d="M143.465,30.762l-1.7-.988L99.115,54.4l1.694.984Z" fill="#36a0b7"/>
        <path id="Trazado_161245" data-name="Trazado 161245" d="M100.809,55.385,99.115,54.4l0,1.43,1.695.987Z" fill="#3190a4"/>
        <path id="Trazado_161246" data-name="Trazado 161246" d="M143.457,28.3l-1.694-.984L99.108,51.944l1.692.984Z" fill="#bfd4dc"/>
        <path id="Trazado_161247" data-name="Trazado 161247" d="M143.452,26.872l-1.693-.987L99.1,50.515l1.695.984Z" fill="#36a0b7"/>
        <path id="Trazado_161248" data-name="Trazado 161248" d="M100.8,51.5l-1.7-.984.005,1.43,1.692.984Z" fill="#3190a4"/>
        <path id="Trazado_161249" data-name="Trazado 161249" d="M142.989,23.687c1.572-.909,2.85-.185,2.854,1.623l.028,9.43c0,.115-.023.232-.032.353l-.005,11.588-9.356-3.252L101.163,63.813c-1.566.91-2.845.186-2.848-1.622l-.029-9.427a6.259,6.259,0,0,1,2.833-4.9ZM100.814,56.818l42.654-24.631,0-1.426L100.809,55.385Zm.007,3.7L143.48,35.892l0-1.43L100.818,59.089Zm-.021-7.591L143.457,28.3l-.005-1.43L100.8,51.5Z" fill="#f8f9fd"/>
        <path id="Trazado_161250" data-name="Trazado 161250" d="M100.809,55.385l0,1.433,42.654-24.63,0-1.426Z" fill="#3fbad4"/>
        <path id="Trazado_161251" data-name="Trazado 161251" d="M100.8,51.5l0,1.43L143.457,28.3l0-1.43Z" fill="#3fbad4"/>
        <path id="Trazado_161252" data-name="Trazado 161252" d="M96.594,51.652c0-.046,0-.093,0-.139s.009-.093.015-.139a1.163,1.163,0,0,1,.016-.139c.005-.046.01-.093.017-.143s.016-.092.029-.139a1.311,1.311,0,0,1,.027-.15c.01-.053.023-.1.035-.149s.025-.1.038-.154c.012-.035.025-.074.037-.117v-.007l.007-.022c.015-.05.034-.1.049-.146l.048-.15c.018-.046.035-.089.055-.135s.036-.093.055-.139.031-.072.047-.107V49.67c.006-.008.006-.015.011-.022.02-.046.041-.089.061-.135s.046-.1.073-.15.057-.114.089-.171.064-.121.1-.182a.131.131,0,0,0,.016-.036.052.052,0,0,0,.023-.032c.068-.117.137-.228.212-.338.059-.086.118-.172.178-.254.041-.057.084-.114.127-.167s.071-.089.111-.136.069-.085.11-.128.069-.082.107-.121l.021-.022s.011-.01.018-.01a.509.509,0,0,1,.079-.089c.041-.04.078-.082.119-.122l.125-.114c.045-.039.087-.071.127-.11a.714.714,0,0,0,.062-.05.116.116,0,0,1,.02-.015.186.186,0,0,1,.042-.035.961.961,0,0,1,.125-.1c.041-.031.084-.06.127-.088s.08-.054.117-.082.082-.05.121-.072a.109.109,0,0,1,.031-.014L141.295,22.7a.7.7,0,0,0,.087-.054c.039-.021.082-.039.118-.06s.078-.036.115-.054a1.2,1.2,0,0,0,.118-.046c.036-.014.075-.029.112-.047.009,0,.015,0,.024,0l.008,0c.029-.01.056-.017.082-.028s.081-.022.118-.032.079-.018.116-.029.086-.01.127-.017a.583.583,0,0,1,.083-.008.017.017,0,0,1,.011,0c.013,0,.02,0,.032,0,.047,0,.089,0,.134,0s.1,0,.146.007.114.014.166.025h.007a1.7,1.7,0,0,1,.189.053,1.394,1.394,0,0,1,.232.107l1.526.888c.05.029.117.068.169.1a1.5,1.5,0,0,0-.421-.16h0a1.9,1.9,0,0,0-.481-.025l-.007,0a2.306,2.306,0,0,0-.53.115l-.009,0a3.229,3.229,0,0,0-.574.264L101.119,47.862a4.093,4.093,0,0,0-.565.392.038.038,0,0,0-.011.011,5.282,5.282,0,0,0-.523.485l-.007.01a6.694,6.694,0,0,0-.891,1.206.1.1,0,0,0-.014.028,5.809,5.809,0,0,0-.341.667,6.284,6.284,0,0,0-.256.7l0,.007a4.826,4.826,0,0,0-.221,1.394l.028,9.428a2.882,2.882,0,0,0,.061.613l0,.014a2.4,2.4,0,0,0,.158.5l0,.011a1.655,1.655,0,0,0,.214.324,1.2,1.2,0,0,0,.082.1,1.224,1.224,0,0,0,.308.254L97.45,63.03a1.39,1.39,0,0,1-.314-.253c-.025-.033-.05-.068-.077-.1s-.073-.079-.1-.125a1.747,1.747,0,0,1-.1-.2s0-.008-.006-.011l0-.007c-.022-.05-.041-.093-.063-.146s-.033-.1-.048-.15-.025-.093-.037-.143c-.006-.021-.009-.039-.013-.06a.166.166,0,0,1,0-.022.436.436,0,0,0-.013-.057c-.007-.043-.012-.089-.018-.135a1.231,1.231,0,0,1-.015-.139c0-.043-.008-.086-.011-.136s0-.089,0-.135v-.007l-.025-9.428Z" fill="#a9d6ea"/>
      </g>
    </g>
    <g id="Grupo_90092" data-name="Grupo 90092">
      <g id="Grupo_90091" data-name="Grupo 90091" clip-path="url(#clip-path-15)">
        <path id="Trazado_161253" data-name="Trazado 161253" d="M159.326,27.121l-1.664-.97a2.167,2.167,0,0,1,.722.72l1.665.967a2.167,2.167,0,0,0-.723-.717" fill="#852858"/>
        <path id="Trazado_161254" data-name="Trazado 161254" d="M160.049,27.838l-1.665-.966a2.89,2.89,0,0,1,.177.321l1.663.966a2.879,2.879,0,0,0-.175-.321" fill="#8a295c"/>
        <path id="Trazado_161255" data-name="Trazado 161255" d="M160.224,28.159l-1.663-.966c.042.092.084.185.123.285l1.661.97a2.758,2.758,0,0,0-.121-.289" fill="#8f2b5f"/>
        <path id="Trazado_161256" data-name="Trazado 161256" d="M160.345,28.448l-1.661-.97c.032.086.06.178.087.267l1.66.967a2.335,2.335,0,0,0-.086-.264" fill="#942c63"/>
        <path id="Trazado_161257" data-name="Trazado 161257" d="M160.431,28.711l-1.66-.966c.023.085.046.174.068.267l1.663.963c-.021-.093-.043-.178-.071-.264" fill="#992e66"/>
        <path id="Trazado_161258" data-name="Trazado 161258" d="M160.5,28.975l-1.664-.963c.018.079.035.168.052.257l1.664.966c-.016-.089-.034-.175-.052-.26" fill="#9e2f69"/>
        <path id="Trazado_161259" data-name="Trazado 161259" d="M160.554,29.236l-1.664-.966a1.344,1.344,0,0,1,.027.189l1.665.962c-.012-.06-.017-.124-.028-.185" fill="#a3316d"/>
      </g>
    </g>
    <g id="Grupo_90094" data-name="Grupo 90094">
      <g id="Grupo_90093" data-name="Grupo 90093" clip-path="url(#clip-path-16)">
        <path id="Trazado_161261" data-name="Trazado 161261" d="M159.326,27.121l-1.664-.97a2.106,2.106,0,0,0-.3-.139l1.665.97a1.353,1.353,0,0,1,.3.139" fill="#818184"/>
        <path id="Trazado_161262" data-name="Trazado 161262" d="M159.028,26.982l-1.665-.97a1.434,1.434,0,0,0-.237-.064l1.663.966a1.851,1.851,0,0,1,.239.068" fill="#868689"/>
        <path id="Trazado_161263" data-name="Trazado 161263" d="M158.789,26.915l-1.663-.966c-.029,0-.057-.011-.084-.015l1.661.967c.029.007.059.007.086.014" fill="#8b8b8e"/>
      </g>
    </g>
    <g id="Grupo_90096" data-name="Grupo 90096">
      <g id="Grupo_90095" data-name="Grupo 90095" clip-path="url(#clip-path-17)">
        <path id="Trazado_161265" data-name="Trazado 161265" d="M158.965,25.652l-1.665-.966v.007c0,.029,0,.053,0,.078l1.667.967v-.086Z" fill="#b8377a"/>
      </g>
    </g>
    <g id="Grupo_90098" data-name="Grupo 90098">
      <g id="Grupo_90097" data-name="Grupo 90097" clip-path="url(#clip-path)">
        <path id="Trazado_161267" data-name="Trazado 161267" d="M160.582,29.421l-1.665-.962-6.956,4.018,1.663.966Z" fill="#dc4193"/>
      </g>
    </g>
    <g id="Grupo_90100" data-name="Grupo 90100">
      <g id="Grupo_90099" data-name="Grupo 90099" clip-path="url(#clip-path-19)">
        <path id="Trazado_161268" data-name="Trazado 161268" d="M158.42,24.451l-1.665-.962a.916.916,0,0,1,.325.313l1.663.97a1,1,0,0,0-.323-.321" fill="#852858"/>
        <path id="Trazado_161269" data-name="Trazado 161269" d="M158.743,24.771l-1.663-.97c.027.043.046.086.071.132l1.663.963a.679.679,0,0,0-.071-.125" fill="#8a295c"/>
        <path id="Trazado_161270" data-name="Trazado 161270" d="M158.814,24.9l-1.663-.963c.016.029.028.068.044.1l1.662.966c-.014-.036-.027-.075-.043-.107" fill="#8f2b5f"/>
        <path id="Trazado_161271" data-name="Trazado 161271" d="M158.857,25l-1.662-.966c.011.032.022.064.033.1l1.663.962a.734.734,0,0,0-.034-.1" fill="#942c63"/>
        <path id="Trazado_161272" data-name="Trazado 161272" d="M158.891,25.1l-1.664-.962a.661.661,0,0,1,.026.1l1.662.966a.9.9,0,0,0-.024-.1" fill="#992e66"/>
        <path id="Trazado_161273" data-name="Trazado 161273" d="M158.915,25.2l-1.663-.966c.007.028.014.06.019.092l1.662.967a.806.806,0,0,0-.018-.093" fill="#9e2f69"/>
        <path id="Trazado_161274" data-name="Trazado 161274" d="M158.934,25.292l-1.663-.966c0,.028.012.057.014.089l1.664.966-.015-.089" fill="#a3316d"/>
        <path id="Trazado_161275" data-name="Trazado 161275" d="M158.95,25.381l-1.665-.966c0,.028.009.06.012.092l1.66.963c0-.032,0-.06-.007-.089" fill="#a83270"/>
        <path id="Trazado_161276" data-name="Trazado 161276" d="M158.957,25.47l-1.66-.963c0,.029,0,.057,0,.089l1.665.967a.728.728,0,0,0-.007-.093" fill="#ad3474"/>
        <path id="Trazado_161277" data-name="Trazado 161277" d="M158.964,25.563,157.3,24.6c0,.028,0,.057,0,.089l1.665.966c0-.028,0-.061,0-.089" fill="#b33577"/>
        <path id="Trazado_161278" data-name="Trazado 161278" d="M158.965,25.652l-1.665-.966v.007c0,.029,0,.053,0,.078l1.667.967v-.086Z" fill="#b8377a"/>
        <path id="Trazado_161279" data-name="Trazado 161279" d="M158.965,25.738l-1.667-.966v.089l1.662.966c0-.028,0-.057,0-.089" fill="#bd387e"/>
        <path id="Trazado_161280" data-name="Trazado 161280" d="M158.96,25.827l-1.661-.966c0,.028-.006.057-.009.085l1.663.967c0-.029,0-.057.007-.086" fill="#c23a81"/>
        <path id="Trazado_161281" data-name="Trazado 161281" d="M158.953,25.912l-1.663-.966c0,.029,0,.057-.007.089l1.661.966a.671.671,0,0,0,.009-.089" fill="#c73b85"/>
        <path id="Trazado_161282" data-name="Trazado 161282" d="M158.944,26l-1.661-.966c-.008.032-.011.057-.017.089l1.666.966c0-.028.007-.061.012-.089" fill="#cc3d88"/>
        <path id="Trazado_161283" data-name="Trazado 161283" d="M158.932,26.091l-1.665-.966c0,.032-.013.06-.014.092l1.663.967a.6.6,0,0,1,.016-.093" fill="#d13e8b"/>
        <path id="Trazado_161284" data-name="Trazado 161284" d="M158.915,26.184l-1.663-.966a.865.865,0,0,0-.018.1l1.66.963a.84.84,0,0,0,.021-.093" fill="#d6408f"/>
        <path id="Trazado_161285" data-name="Trazado 161285" d="M158.894,26.276l-1.66-.963c-.01.033-.017.065-.025.1l1.662.966a.731.731,0,0,0,.023-.1" fill="#db4192"/>
        <path id="Trazado_161286" data-name="Trazado 161286" d="M158.871,26.376l-1.662-.966a.962.962,0,0,1-.028.1l1.662.963a.418.418,0,0,0,.028-.1" fill="#e04396"/>
        <path id="Trazado_161287" data-name="Trazado 161287" d="M158.843,26.476l-1.662-.963c-.007.036-.019.068-.026.1l1.659.966a.883.883,0,0,0,.029-.107" fill="#e64499"/>
        <path id="Trazado_161288" data-name="Trazado 161288" d="M158.814,26.583l-1.66-.966c-.011.035-.027.068-.036.107l1.66.966a.9.9,0,0,0,.036-.107" fill="#eb469c"/>
        <path id="Trazado_161289" data-name="Trazado 161289" d="M158.778,26.69l-1.66-.966c-.012.035-.023.071-.039.107l1.665.966a1.1,1.1,0,0,0,.034-.107" fill="#f047a0"/>
        <path id="Trazado_161290" data-name="Trazado 161290" d="M158.745,26.8l-1.666-.966c-.013.032-.022.071-.037.1l1.662.966c.013-.035.025-.067.041-.1" fill="#f549a3"/>
      </g>
    </g>
    <g id="Grupo_90102" data-name="Grupo 90102">
      <g id="Grupo_90101" data-name="Grupo 90101" clip-path="url(#clip-path-20)">
        <path id="Trazado_161292" data-name="Trazado 161292" d="M155.48,28.761l-1.66-.966a1.089,1.089,0,0,0-.076.1l1.661.97c.023-.035.052-.067.075-.1" fill="#f9fafd"/>
        <path id="Trazado_161293" data-name="Trazado 161293" d="M155.4,28.865l-1.661-.97c-.067.089-.131.178-.191.271l1.661.963c.061-.089.127-.178.191-.264" fill="#fafafd"/>
        <path id="Trazado_161294" data-name="Trazado 161294" d="M155.215,29.129l-1.662-.963c-.108.161-.214.325-.314.5l1.664.967c.1-.175.2-.339.312-.5" fill="#fafbfe"/>
        <path id="Trazado_161295" data-name="Trazado 161295" d="M154.9,29.631l-1.664-.966c-.064.107-.124.214-.181.328l1.661.963c.059-.107.118-.218.184-.325" fill="#fafafd"/>
        <path id="Trazado_161296" data-name="Trazado 161296" d="M154.719,29.956l-1.662-.963c-.041.075-.082.153-.121.232l1.662.966c.039-.082.08-.157.121-.235" fill="#f9fafd"/>
        <path id="Trazado_161297" data-name="Trazado 161297" d="M154.6,30.191l-1.662-.966c-.035.071-.069.139-.1.21l1.658.966c.038-.071.07-.142.1-.21" fill="#f9fafd"/>
        <path id="Trazado_161298" data-name="Trazado 161298" d="M154.494,30.4l-1.658-.966c-.034.068-.064.132-.094.2l1.661.966c.034-.067.062-.135.091-.2" fill="#f9fafd"/>
        <path id="Trazado_161299" data-name="Trazado 161299" d="M154.4,30.6l-1.661-.966c-.032.068-.063.139-.089.2l1.663.97c.028-.068.059-.139.087-.207" fill="#f8f9fd"/>
        <path id="Trazado_161300" data-name="Trazado 161300" d="M154.316,30.811l-1.663-.97c-.031.075-.058.146-.088.218l1.664.966c.032-.071.057-.143.087-.214" fill="#f3f4f8"/>
        <path id="Trazado_161301" data-name="Trazado 161301" d="M154.229,31.025l-1.663-.966c-.025.075-.056.149-.082.225l1.661.966q.04-.113.084-.225" fill="#eeeff3"/>
        <path id="Trazado_161302" data-name="Trazado 161302" d="M154.145,31.25l-1.661-.966c-.031.075-.058.157-.082.235l1.659.966c.029-.078.057-.157.084-.235" fill="#e9eaee"/>
        <path id="Trazado_161303" data-name="Trazado 161303" d="M154.061,31.485l-1.66-.966c-.026.082-.055.164-.08.253l1.662.963c.024-.086.051-.168.078-.25" fill="#e4e5e9"/>
        <path id="Trazado_161304" data-name="Trazado 161304" d="M153.983,31.735l-1.662-.963c-.028.086-.053.171-.074.257l1.659.966c.025-.085.05-.174.077-.26" fill="#dfe0e4"/>
        <path id="Trazado_161305" data-name="Trazado 161305" d="M153.906,32l-1.66-.966c-.025.089-.05.178-.071.263l1.665.967c.02-.089.045-.175.066-.264" fill="#dadbdf"/>
        <path id="Trazado_161306" data-name="Trazado 161306" d="M153.84,32.259l-1.665-.966c-.021.089-.045.178-.064.271l1.665.966c.019-.093.039-.182.064-.271" fill="#d5d6da"/>
        <path id="Trazado_161307" data-name="Trazado 161307" d="M153.776,32.53l-1.665-.966c-.016.085-.036.178-.053.267l1.659.967c.02-.093.039-.182.059-.268" fill="#d0d1d5"/>
        <path id="Trazado_161308" data-name="Trazado 161308" d="M153.717,32.8l-1.66-.966c-.016.089-.03.178-.046.267l1.663.963c.013-.086.03-.175.043-.264" fill="#cbcccf"/>
        <path id="Trazado_161309" data-name="Trazado 161309" d="M153.674,33.061l-1.663-.963c-.011.086-.025.175-.04.264l1.666.967c.012-.09.025-.179.037-.268" fill="#c6c7ca"/>
        <path id="Trazado_161310" data-name="Trazado 161310" d="M153.637,33.329l-1.665-.966c0,.036-.007.075-.011.114l1.664.966c0-.039.007-.078.012-.114" fill="#c1c2c5"/>
      </g>
    </g>
    <g id="Grupo_90104" data-name="Grupo 90104">
      <g id="Grupo_90103" data-name="Grupo 90103" clip-path="url(#clip-path-21)">
        <path id="Trazado_161312" data-name="Trazado 161312" d="M158.42,24.451l-1.665-.962a.778.778,0,0,0-.148-.072l1.662.966c.053.022.1.043.151.068" fill="#818184"/>
        <path id="Trazado_161313" data-name="Trazado 161313" d="M158.268,24.383l-1.661-.966c-.043-.015-.09-.025-.132-.036l1.663.966a.547.547,0,0,1,.13.036" fill="#868689"/>
        <path id="Trazado_161314" data-name="Trazado 161314" d="M158.138,24.347l-1.663-.966-.107-.018,1.663.966c.034.007.071.011.107.018" fill="#8b8b8e"/>
        <path id="Trazado_161315" data-name="Trazado 161315" d="M158.031,24.329l-1.663-.966h-.1l1.663.966Z" fill="#909093"/>
        <path id="Trazado_161316" data-name="Trazado 161316" d="M157.933,24.329l-1.663-.966h-.088l1.667.966Z" fill="#959598"/>
        <path id="Trazado_161317" data-name="Trazado 161317" d="M157.849,24.329l-1.667-.966c-.028,0-.052.007-.083.007l1.663.966c.026,0,.055-.007.087-.007" fill="#9a9a9d"/>
        <path id="Trazado_161318" data-name="Trazado 161318" d="M157.762,24.337l-1.663-.966c-.027.007-.054.011-.082.018l1.663.962a.539.539,0,0,0,.082-.014" fill="#9f9fa2"/>
        <path id="Trazado_161319" data-name="Trazado 161319" d="M157.68,24.351l-1.663-.963c-.024,0-.052.011-.077.014l1.663.967c.027-.007.052-.011.077-.018" fill="#a4a4a7"/>
        <path id="Trazado_161320" data-name="Trazado 161320" d="M157.6,24.368,155.94,23.4l-.077.021,1.663.97a.713.713,0,0,1,.078-.026" fill="#a9a9ac"/>
        <path id="Trazado_161321" data-name="Trazado 161321" d="M157.527,24.394l-1.663-.97c-.027.007-.05.018-.077.025l1.663.97a.211.211,0,0,1,.077-.025" fill="#aeaeb1"/>
        <path id="Trazado_161322" data-name="Trazado 161322" d="M157.45,24.419l-1.663-.97c-.025.011-.048.018-.075.029l1.661.966c.025-.007.052-.018.077-.025" fill="#b3b3b6"/>
        <path id="Trazado_161323" data-name="Trazado 161323" d="M157.374,24.443l-1.662-.965c-.024.011-.054.021-.079.032l1.665.966c.024-.007.048-.022.076-.033" fill="#b8b8bb"/>
        <path id="Trazado_161324" data-name="Trazado 161324" d="M157.3,24.476l-1.665-.966c-.025.011-.05.025-.077.035l1.663.967a.706.706,0,0,0,.079-.036" fill="#bcbdc0"/>
        <path id="Trazado_161325" data-name="Trazado 161325" d="M157.22,24.511l-1.663-.966c-.023.014-.052.025-.077.043l1.663.966c.027-.018.052-.028.077-.043" fill="#c1c2c5"/>
        <path id="Trazado_161326" data-name="Trazado 161326" d="M157.143,24.554l-1.663-.966a.376.376,0,0,0-.059.032l1.66.966c.021-.011.044-.025.062-.032" fill="#c6c7ca"/>
      </g>
    </g>
    <g id="Grupo_90106" data-name="Grupo 90106">
      <g id="Grupo_90105" data-name="Grupo 90105" clip-path="url(#clip-path-22)">
        <path id="Trazado_161328" data-name="Trazado 161328" d="M157.081,24.586l-1.66-.966a.049.049,0,0,0-.019.014l1.663.963.016-.011" fill="#c6c7ca"/>
        <path id="Trazado_161329" data-name="Trazado 161329" d="M157.065,24.6l-1.663-.963a.651.651,0,0,0-.08.05l1.661.963c.031-.018.057-.032.082-.05" fill="#cbcccf"/>
        <path id="Trazado_161330" data-name="Trazado 161330" d="M156.983,24.647l-1.661-.963a.6.6,0,0,0-.079.05l1.66.966.08-.053" fill="#d0d1d5"/>
        <path id="Trazado_161331" data-name="Trazado 161331" d="M156.9,24.7l-1.66-.966a.566.566,0,0,0-.082.057l1.662.966c.027-.018.055-.039.08-.057" fill="#d5d6da"/>
        <path id="Trazado_161332" data-name="Trazado 161332" d="M156.823,24.757l-1.661-.966c-.029.021-.058.043-.084.064l1.661.966c.029-.021.056-.043.084-.064" fill="#dadbdf"/>
        <path id="Trazado_161333" data-name="Trazado 161333" d="M156.739,24.822l-1.661-.966c-.029.021-.056.046-.086.067l1.663.967c.029-.022.056-.047.084-.068" fill="#dfe0e4"/>
        <path id="Trazado_161334" data-name="Trazado 161334" d="M156.655,24.889l-1.663-.966c-.029.025-.056.046-.082.071l1.663.97c.025-.025.053-.05.082-.075" fill="#e4e5e9"/>
        <path id="Trazado_161335" data-name="Trazado 161335" d="M156.573,24.964l-1.663-.97c-.027.025-.057.054-.082.075l1.659.97c.029-.025.059-.05.086-.075" fill="#e9eaee"/>
        <path id="Trazado_161336" data-name="Trazado 161336" d="M156.488,25.039l-1.661-.97c-.026.029-.055.057-.08.082l1.663.967c.026-.029.052-.05.078-.079" fill="#eeeff3"/>
        <path id="Trazado_161337" data-name="Trazado 161337" d="M156.409,25.117l-1.662-.966c-.026.028-.051.053-.074.082l1.661.962.075-.078" fill="#f3f4f8"/>
        <path id="Trazado_161338" data-name="Trazado 161338" d="M156.334,25.2l-1.662-.962c-.026.025-.051.053-.074.078l1.663.966.073-.082" fill="#f8f9fd"/>
        <path id="Trazado_161339" data-name="Trazado 161339" d="M156.261,25.278l-1.663-.966c-.023.028-.05.053-.072.085l1.662.967c.023-.032.05-.057.073-.086" fill="#f9fafd"/>
        <path id="Trazado_161340" data-name="Trazado 161340" d="M156.188,25.363l-1.662-.966a1.083,1.083,0,0,0-.073.089l1.664.966c.023-.032.048-.06.071-.089" fill="#f9fafd"/>
        <path id="Trazado_161341" data-name="Trazado 161341" d="M156.117,25.452l-1.663-.965c-.029.034-.055.071-.082.107l1.663.966c.025-.036.054-.071.082-.108" fill="#f9fafd"/>
        <path id="Trazado_161342" data-name="Trazado 161342" d="M156.035,25.56l-1.663-.966c-.043.057-.079.11-.12.171l1.665.966c.04-.06.077-.114.118-.171" fill="#fafafd"/>
        <path id="Trazado_161343" data-name="Trazado 161343" d="M155.917,25.731l-1.665-.966c-.048.071-.094.146-.137.217l1.661.967c.045-.075.093-.147.141-.218" fill="#fafbfe"/>
        <path id="Trazado_161344" data-name="Trazado 161344" d="M155.776,25.948l-1.662-.966c-.033.057-.062.11-.092.164l1.663.966c.03-.053.059-.107.091-.164" fill="#fafafd"/>
        <path id="Trazado_161345" data-name="Trazado 161345" d="M155.685,26.112l-1.663-.966c-.022.039-.04.075-.058.114l1.662.966c.02-.035.039-.075.059-.114" fill="#f9fafd"/>
        <path id="Trazado_161346" data-name="Trazado 161346" d="M155.626,26.226l-1.662-.966c-.016.032-.032.064-.046.1l1.662.963c.016-.032.032-.064.046-.1" fill="#f9fafd"/>
        <path id="Trazado_161347" data-name="Trazado 161347" d="M155.58,26.323l-1.662-.963a.486.486,0,0,0-.041.086l1.664.97a.917.917,0,0,1,.039-.093" fill="#f9fafd"/>
        <path id="Trazado_161348" data-name="Trazado 161348" d="M155.541,26.415l-1.663-.97c-.015.032-.027.061-.038.089l1.662.97a.51.51,0,0,1,.039-.089" fill="#f8f9fd"/>
        <path id="Trazado_161349" data-name="Trazado 161349" d="M155.5,26.5l-1.662-.97c-.014.033-.028.064-.039.093l1.66.97a.938.938,0,0,0,.041-.093" fill="#f3f4f8"/>
        <path id="Trazado_161350" data-name="Trazado 161350" d="M155.461,26.6l-1.66-.97a.822.822,0,0,1-.037.089l1.665.97a.81.81,0,0,0,.032-.089" fill="#eeeff3"/>
        <path id="Trazado_161351" data-name="Trazado 161351" d="M155.429,26.686l-1.665-.97a.552.552,0,0,1-.032.1l1.667.966a.83.83,0,0,1,.03-.1" fill="#e9eaee"/>
        <path id="Trazado_161352" data-name="Trazado 161352" d="M155.4,26.783l-1.667-.966c-.009.032-.018.06-.028.1l1.663.966a.452.452,0,0,1,.032-.1" fill="#e4e5e9"/>
        <path id="Trazado_161353" data-name="Trazado 161353" d="M155.366,26.879l-1.663-.966c-.013.032-.018.064-.032.1l1.663.962c.012-.032.02-.068.032-.1" fill="#dfe0e4"/>
        <path id="Trazado_161354" data-name="Trazado 161354" d="M155.334,26.975l-1.663-.963c-.007.032-.016.065-.022.1l1.66.97c.011-.035.016-.071.025-.1" fill="#dadbdf"/>
        <path id="Trazado_161355" data-name="Trazado 161355" d="M155.309,27.078l-1.66-.97a.917.917,0,0,0-.025.1l1.662.966c.007-.035.018-.064.023-.1" fill="#d5d6da"/>
        <path id="Trazado_161356" data-name="Trazado 161356" d="M155.286,27.175l-1.661-.966a.522.522,0,0,0-.018.1l1.663.966a.954.954,0,0,1,.016-.1" fill="#d0d1d5"/>
        <path id="Trazado_161357" data-name="Trazado 161357" d="M155.27,27.275l-1.663-.966a.6.6,0,0,0-.018.092l1.663.967a.806.806,0,0,1,.018-.093" fill="#cbcccf"/>
        <path id="Trazado_161358" data-name="Trazado 161358" d="M155.252,27.367l-1.663-.966c-.006.032-.011.064-.015.092l1.664.967c0-.029.007-.061.014-.093" fill="#c6c7ca"/>
        <path id="Trazado_161359" data-name="Trazado 161359" d="M155.238,27.46l-1.663-.966c0,.032-.008.064-.011.1l1.662.963a.527.527,0,0,1,.012-.093" fill="#c1c2c5"/>
        <path id="Trazado_161360" data-name="Trazado 161360" d="M155.225,27.553l-1.661-.963a.693.693,0,0,0-.006.093l1.663.963c0-.029,0-.061,0-.093" fill="#bcbdc0"/>
        <path id="Trazado_161361" data-name="Trazado 161361" d="M155.222,27.645l-1.663-.963-.006.089,1.662.967c0-.029.005-.061.007-.093" fill="#b8b8bb"/>
        <path id="Trazado_161362" data-name="Trazado 161362" d="M155.215,27.738l-1.662-.966c0,.028,0,.06,0,.085v0l1.662.966v0c0-.029,0-.054,0-.086" fill="#b3b3b6"/>
        <path id="Trazado_161363" data-name="Trazado 161363" d="M155.213,27.827l-1.662-.966c0,.032,0,.057,0,.089l1.663.966a.821.821,0,0,1-.005-.089" fill="#aeaeb1"/>
        <path id="Trazado_161364" data-name="Trazado 161364" d="M155.218,27.916l-1.663-.966c0,.028,0,.057,0,.085l1.665.963c0-.025,0-.057-.005-.082" fill="#a9a9ac"/>
        <path id="Trazado_161365" data-name="Trazado 161365" d="M155.224,28l-1.665-.963c0,.025,0,.054.009.086l1.659.963c0-.025,0-.058,0-.086" fill="#a4a4a7"/>
        <path id="Trazado_161366" data-name="Trazado 161366" d="M155.227,28.084l-1.66-.963c.006.025.007.057.013.082l1.663.967c0-.029-.011-.057-.016-.086" fill="#9f9fa2"/>
        <path id="Trazado_161367" data-name="Trazado 161367" d="M155.243,28.169,153.58,27.2a.778.778,0,0,0,.019.089l1.66.966c0-.028-.011-.057-.016-.089" fill="#9a9a9d"/>
        <path id="Trazado_161368" data-name="Trazado 161368" d="M155.259,28.259l-1.66-.966c.007.032.014.06.02.092l1.665.967c-.009-.029-.014-.061-.025-.093" fill="#959598"/>
        <path id="Trazado_161369" data-name="Trazado 161369" d="M155.284,28.351l-1.665-.966c.012.035.023.068.036.1l1.665.967a.737.737,0,0,1-.036-.1" fill="#909093"/>
        <path id="Trazado_161370" data-name="Trazado 161370" d="M155.32,28.451l-1.665-.966a.58.58,0,0,0,.048.11l1.663.97c-.016-.039-.034-.075-.046-.114" fill="#8b8b8e"/>
        <path id="Trazado_161371" data-name="Trazado 161371" d="M155.366,28.565l-1.663-.97c.023.05.048.1.075.143l1.665.966a.877.877,0,0,1-.077-.139" fill="#868689"/>
        <path id="Trazado_161372" data-name="Trazado 161372" d="M155.443,28.7l-1.665-.966c.016.021.027.039.043.057l1.659.966-.037-.057" fill="#818184"/>
      </g>
    </g>
    <g id="Grupo_90108" data-name="Grupo 90108">
      <g id="Grupo_90107" data-name="Grupo 90107" clip-path="url(#clip-path)">
        <path id="Trazado_161374" data-name="Trazado 161374" d="M157.081,24.586a4.108,4.108,0,0,0-1.868,3.237,1.611,1.611,0,0,0,.267.938,9.8,9.8,0,0,0-1.856,4.681l6.958-4.021c-.2-1.459-.911-2.375-1.879-2.521a3.448,3.448,0,0,0,.262-1.241c0-1.2-.841-1.672-1.884-1.073" fill="#f8f9fd"/>
        <path id="Trazado_161375" data-name="Trazado 161375" d="M149.216,30.954c0-.1,0-.2.014-.3s.015-.2.022-.3.025-.2.037-.3.027-.21.045-.314.034-.21.051-.317.043-.214.068-.321.05-.221.075-.328.057-.225.087-.332c.024-.085.049-.174.079-.26l0-.011c.007-.021.008-.039.014-.057.034-.11.071-.217.109-.324s.069-.21.108-.321c.036-.1.073-.2.111-.3s.082-.2.126-.3c.031-.078.063-.156.1-.235l0,0c0-.021.016-.035.023-.057.049-.1.093-.2.141-.3s.1-.221.155-.332.127-.246.191-.37.148-.264.223-.393c.012-.025.027-.046.039-.071s.03-.057.046-.085c.147-.25.305-.5.464-.739.128-.192.26-.377.394-.563.091-.121.183-.242.276-.36.08-.1.157-.2.241-.3s.157-.189.239-.278.162-.182.24-.267c.015-.018.031-.033.045-.047a.142.142,0,0,1,.027-.028l.183-.2.262-.257c.09-.089.182-.175.273-.253s.184-.164.277-.243c.044-.035.09-.075.135-.11a.117.117,0,0,1,.037-.029c.036-.032.07-.057.1-.085.091-.072.182-.143.274-.207s.177-.132.268-.193.176-.121.265-.175.175-.11.262-.16c.02-.014.042-.025.061-.036l.2-.114c.087-.042.169-.089.257-.128.053-.032.108-.053.167-.082a.13.13,0,0,0,.032-.014c.018-.007.034-.018.049-.025.083-.04.169-.072.251-.1s.166-.064.25-.1a.162.162,0,0,0,.044-.014c.013,0,.025,0,.034-.007a1.669,1.669,0,0,1,.171-.061c.087-.025.173-.05.257-.071.041-.008.083-.015.125-.025.016,0,.032-.007.053-.014s.05-.011.077-.018c.094-.011.183-.029.271-.043.058-.007.112-.011.164-.014a.288.288,0,0,0,.057-.011c.021,0,.039,0,.059,0,.1-.007.2-.01.292-.01.041,0,.082,0,.123.007s.064,0,.1,0a.786.786,0,0,0,.1,0c.121.014.237.032.356.057h.009c.029.007.056.018.088.025a2.937,2.937,0,0,1,.338.093l.027.01a3.062,3.062,0,0,1,.48.221l1.659.967a2.985,2.985,0,0,0-.472-.218,2.852,2.852,0,0,0-.371-.107c-.03-.007-.059-.021-.087-.028a3.292,3.292,0,0,0-.466-.054c-.032,0-.064-.007-.1-.007a4.2,4.2,0,0,0-.474.007.218.218,0,0,1-.052.007c-.169.018-.338.043-.516.079a.571.571,0,0,1-.056.014,4.551,4.551,0,0,0-.547.154.153.153,0,0,1-.036.007c-.194.071-.392.149-.592.238l-.039.022c-.2.092-.406.2-.615.317a9.667,9.667,0,0,0-1.241.863l-.025.021a11.4,11.4,0,0,0-1.14,1.066c-.009.007-.016.015-.024.022a14.722,14.722,0,0,0-1.947,2.638c-.014.022-.026.047-.039.068a14.987,14.987,0,0,0-.73,1.448.033.033,0,0,0-.008.017,14.855,14.855,0,0,0-.565,1.53l0,.018a12.528,12.528,0,0,0-.359,1.54,9.936,9.936,0,0,0-.121,1.519c0,.235.013.463.032.681,0,.022,0,.039.006.061.021.2.051.4.087.581.005.025.007.046.012.068.038.181.082.353.134.52a.721.721,0,0,1,.032.1,4.175,4.175,0,0,0,.166.425c.012.021.019.046.03.068a3.47,3.47,0,0,0,.245.442,3.159,3.159,0,0,0,.435.534c.033.04.074.075.112.114a3.161,3.161,0,0,0,.526.4l-1.664-.97a2.74,2.74,0,0,1-.524-.4,1.345,1.345,0,0,1-.117-.111,3.452,3.452,0,0,1-.43-.531l-.009-.011a4.72,4.72,0,0,1-.235-.424s0-.011-.006-.014a.2.2,0,0,0-.018-.047c-.042-.1-.085-.192-.122-.292-.018-.05-.036-.1-.054-.157-.009-.029-.018-.057-.027-.089a.527.527,0,0,1-.028-.082c-.029-.1-.057-.207-.082-.317-.011-.04-.016-.075-.025-.114a.532.532,0,0,1-.014-.083c-.006-.035-.016-.071-.024-.107-.019-.1-.03-.2-.044-.3-.007-.053-.013-.111-.018-.171a.33.33,0,0,1-.005-.054c0-.025-.006-.05-.007-.075-.008-.092-.017-.192-.018-.292s-.009-.2-.009-.3v-.021c0-.1,0-.189.005-.282" fill="#5e43cf"/>
        <path id="Trazado_161376" data-name="Trazado 161376" d="M163.315,25.021a13.656,13.656,0,0,1-6.2,10.736c-3.434,1.986-6.229.389-6.242-3.555a13.672,13.672,0,0,1,6.2-10.75c3.434-1.982,6.231-.388,6.24,3.569m-2.733,4.4c-.2-1.458-.911-2.375-1.879-2.521a3.448,3.448,0,0,0,.262-1.24c0-1.2-.841-1.673-1.884-1.074a4.109,4.109,0,0,0-1.869,3.238,1.606,1.606,0,0,0,.268.938,9.8,9.8,0,0,0-1.856,4.681Z" fill="#856de9"/>
      </g>
    </g>
    <g id="Grupo_90110" data-name="Grupo 90110">
      <g id="Grupo_90109" data-name="Grupo 90109" clip-path="url(#clip-path-24)">
        <path id="Trazado_161377" data-name="Trazado 161377" d="M124.341,76.018l-1.664-.966a2.084,2.084,0,0,1,.721.72l1.665.963a2.2,2.2,0,0,0-.722-.717" fill="#852858"/>
        <path id="Trazado_161378" data-name="Trazado 161378" d="M125.063,76.735l-1.665-.963a3.016,3.016,0,0,1,.178.318l1.662.966a3.175,3.175,0,0,0-.175-.321" fill="#8a295c"/>
        <path id="Trazado_161379" data-name="Trazado 161379" d="M125.238,77.056l-1.662-.966c.041.092.084.189.118.285l1.665.966c-.035-.1-.077-.192-.121-.285" fill="#8f2b5f"/>
        <path id="Trazado_161380" data-name="Trazado 161380" d="M125.359,77.341l-1.665-.966c.034.089.062.178.093.267l1.661.966c-.027-.089-.059-.178-.089-.267" fill="#942c63"/>
        <path id="Trazado_161381" data-name="Trazado 161381" d="M125.448,77.609l-1.661-.966c.024.085.046.174.064.267l1.663.967c-.018-.093-.041-.182-.066-.268" fill="#992e66"/>
        <path id="Trazado_161382" data-name="Trazado 161382" d="M125.514,77.876l-1.663-.966c.021.082.039.167.055.256l1.662.967c-.018-.089-.034-.175-.054-.257" fill="#9e2f69"/>
        <path id="Trazado_161383" data-name="Trazado 161383" d="M125.567,78.133l-1.661-.966c.008.06.019.125.026.189l1.662.966c-.009-.068-.016-.125-.027-.189" fill="#a3316d"/>
      </g>
    </g>
    <g id="Grupo_90112" data-name="Grupo 90112">
      <g id="Grupo_90111" data-name="Grupo 90111" clip-path="url(#clip-path-25)">
        <path id="Trazado_161385" data-name="Trazado 161385" d="M124.341,76.018l-1.664-.966a1.575,1.575,0,0,0-.3-.139l1.662.966a1.462,1.462,0,0,1,.3.139" fill="#818184"/>
        <path id="Trazado_161386" data-name="Trazado 161386" d="M124.038,75.879l-1.662-.966a1.643,1.643,0,0,0-.239-.064l1.664.966a1.319,1.319,0,0,1,.237.064" fill="#868689"/>
        <path id="Trazado_161387" data-name="Trazado 161387" d="M123.8,75.815l-1.663-.966a.536.536,0,0,0-.08-.014l1.661.966a.585.585,0,0,1,.082.014" fill="#8b8b8e"/>
      </g>
    </g>
    <g id="Grupo_90114" data-name="Grupo 90114">
      <g id="Grupo_90113" data-name="Grupo 90113" clip-path="url(#clip-path-26)">
        <path id="Trazado_161389" data-name="Trazado 161389" d="M123.979,74.553l-1.663-.97v.007c0,.029,0,.054,0,.082l1.663.967c0-.025,0-.054,0-.082Z" fill="#b8377a"/>
      </g>
    </g>
    <g id="Grupo_90116" data-name="Grupo 90116">
      <g id="Grupo_90115" data-name="Grupo 90115" clip-path="url(#clip-path)">
        <path id="Trazado_161391" data-name="Trazado 161391" d="M125.594,78.322l-1.661-.966-6.957,4.018,1.664.966Z" fill="#dc4193"/>
      </g>
    </g>
    <g id="Grupo_90118" data-name="Grupo 90118">
      <g id="Grupo_90117" data-name="Grupo 90117" clip-path="url(#clip-path-28)">
        <path id="Trazado_161392" data-name="Trazado 161392" d="M123.434,73.352l-1.663-.966a.962.962,0,0,1,.322.313l1.662.967a.962.962,0,0,0-.321-.314" fill="#852858"/>
        <path id="Trazado_161393" data-name="Trazado 161393" d="M123.755,73.665l-1.662-.966.073.128,1.664.966c-.025-.042-.045-.085-.075-.128" fill="#8a295c"/>
        <path id="Trazado_161394" data-name="Trazado 161394" d="M123.829,73.793l-1.663-.966c.014.039.028.071.044.11l1.662.967c-.015-.04-.029-.075-.043-.111" fill="#8f2b5f"/>
        <path id="Trazado_161395" data-name="Trazado 161395" d="M123.872,73.9l-1.661-.966c.01.028.019.06.032.1l1.663.966c-.013-.032-.023-.068-.034-.1" fill="#942c63"/>
        <path id="Trazado_161396" data-name="Trazado 161396" d="M123.906,74l-1.663-.966c.01.032.016.064.025.1l1.661.966c0-.028-.016-.064-.023-.1" fill="#992e66"/>
        <path id="Trazado_161397" data-name="Trazado 161397" d="M123.929,74.1l-1.661-.966c.007.032.012.06.019.092l1.663.97c-.009-.035-.014-.068-.021-.1" fill="#9e2f69"/>
        <path id="Trazado_161398" data-name="Trazado 161398" d="M123.951,74.193l-1.663-.97a.656.656,0,0,0,.012.089l1.662.967c0-.029-.007-.061-.011-.086" fill="#a3316d"/>
        <path id="Trazado_161399" data-name="Trazado 161399" d="M123.961,74.278l-1.662-.966a.574.574,0,0,1,.009.092l1.664.967a.633.633,0,0,0-.011-.093" fill="#a83270"/>
        <path id="Trazado_161400" data-name="Trazado 161400" d="M123.972,74.371l-1.663-.966c0,.032.005.057.005.085l1.662.967c0-.029,0-.054,0-.086" fill="#ad3474"/>
        <path id="Trazado_161401" data-name="Trazado 161401" d="M123.976,74.457l-1.662-.966c0,.032,0,.064,0,.092l1.664.97c0-.032,0-.064,0-.1" fill="#b33577"/>
        <path id="Trazado_161402" data-name="Trazado 161402" d="M123.979,74.553l-1.663-.97v.007c0,.029,0,.054,0,.082l1.663.967c0-.025,0-.054,0-.082Z" fill="#b8377a"/>
        <path id="Trazado_161403" data-name="Trazado 161403" d="M123.977,74.639l-1.663-.966c0,.028,0,.057,0,.085l1.66.967c0-.029,0-.057,0-.086" fill="#bd387e"/>
        <path id="Trazado_161404" data-name="Trazado 161404" d="M123.972,74.724l-1.66-.966a.823.823,0,0,0,0,.089l1.663.963c0-.029,0-.058,0-.086" fill="#c23a81"/>
        <path id="Trazado_161405" data-name="Trazado 161405" d="M123.97,74.81l-1.663-.963c0,.029-.011.057-.014.086l1.665.966a.782.782,0,0,1,.012-.089" fill="#c73b85"/>
        <path id="Trazado_161406" data-name="Trazado 161406" d="M123.958,74.9l-1.665-.966a.466.466,0,0,1-.013.089l1.662.966a.485.485,0,0,0,.016-.089" fill="#cc3d88"/>
        <path id="Trazado_161407" data-name="Trazado 161407" d="M123.942,74.988l-1.661-.966c0,.032-.009.06-.013.092l1.662.967c0-.029.01-.061.012-.093" fill="#d13e8b"/>
        <path id="Trazado_161408" data-name="Trazado 161408" d="M123.929,75.081l-1.661-.966c-.01.036-.013.064-.024.1l1.665.97c.006-.036.015-.068.02-.1" fill="#d6408f"/>
        <path id="Trazado_161409" data-name="Trazado 161409" d="M123.91,75.181l-1.666-.97c-.005.036-.014.064-.02.1l1.66.966c.007-.035.018-.068.026-.1" fill="#db4192"/>
        <path id="Trazado_161410" data-name="Trazado 161410" d="M123.885,75.277l-1.66-.966c-.011.032-.018.064-.03.1l1.665.971c.009-.04.02-.072.025-.1" fill="#e04396"/>
        <path id="Trazado_161411" data-name="Trazado 161411" d="M123.86,75.38l-1.665-.97c-.009.036-.018.068-.029.107l1.666.966a.578.578,0,0,1,.028-.1" fill="#e64499"/>
        <path id="Trazado_161412" data-name="Trazado 161412" d="M123.831,75.483l-1.665-.966c-.011.032-.023.071-.034.1l1.662.97c.014-.039.023-.071.037-.107" fill="#eb469c"/>
        <path id="Trazado_161413" data-name="Trazado 161413" d="M123.794,75.59l-1.662-.97c-.014.036-.023.071-.037.107l1.662.967a.94.94,0,0,0,.037-.1" fill="#f047a0"/>
        <path id="Trazado_161414" data-name="Trazado 161414" d="M123.756,75.694l-1.662-.966c-.01.035-.025.071-.037.107l1.662.966c.014-.036.023-.071.037-.107" fill="#f549a3"/>
      </g>
    </g>
    <g id="Grupo_90120" data-name="Grupo 90120">
      <g id="Grupo_90119" data-name="Grupo 90119" clip-path="url(#clip-path-29)">
        <path id="Trazado_161416" data-name="Trazado 161416" d="M120.5,77.658l-1.667-.966a1.021,1.021,0,0,1-.077.1l1.667.966c.024-.032.049-.067.077-.1" fill="#f9fafd"/>
        <path id="Trazado_161417" data-name="Trazado 161417" d="M120.421,77.762l-1.667-.966c-.062.085-.126.178-.187.271l1.663.966c.061-.1.125-.185.191-.271" fill="#fafafd"/>
        <path id="Trazado_161418" data-name="Trazado 161418" d="M120.23,78.033l-1.663-.966c-.109.157-.214.324-.314.495l1.665.967c.1-.172.2-.339.312-.5" fill="#fafbfe"/>
        <path id="Trazado_161419" data-name="Trazado 161419" d="M119.918,78.528l-1.665-.966c-.062.107-.125.217-.184.328l1.664.966c.057-.114.119-.221.185-.328" fill="#fafafd"/>
        <path id="Trazado_161420" data-name="Trazado 161420" d="M119.733,78.857l-1.664-.966c-.037.075-.08.153-.117.231l1.659.967c.04-.079.081-.157.122-.232" fill="#f9fafd"/>
        <path id="Trazado_161421" data-name="Trazado 161421" d="M119.611,79.088l-1.66-.966c-.035.068-.069.139-.1.21l1.661.967c.034-.072.07-.14.1-.211" fill="#f9fafd"/>
        <path id="Trazado_161422" data-name="Trazado 161422" d="M119.51,79.3l-1.661-.966c-.033.067-.061.135-.09.2l1.658.97c.034-.072.063-.139.093-.207" fill="#f9fafd"/>
        <path id="Trazado_161423" data-name="Trazado 161423" d="M119.417,79.5l-1.658-.97c-.034.072-.063.139-.093.207l1.665.966c.027-.067.057-.135.086-.2" fill="#f8f9fd"/>
        <path id="Trazado_161424" data-name="Trazado 161424" d="M119.331,79.709l-1.665-.966c-.028.071-.057.146-.087.217l1.663.963c.03-.068.059-.143.089-.214" fill="#f3f4f8"/>
        <path id="Trazado_161425" data-name="Trazado 161425" d="M119.242,79.923l-1.663-.963c-.025.075-.056.15-.084.221l1.665.967c.027-.075.055-.147.082-.225" fill="#eeeff3"/>
        <path id="Trazado_161426" data-name="Trazado 161426" d="M119.16,80.147l-1.665-.966c-.027.082-.054.156-.081.239l1.666.966a2.389,2.389,0,0,1,.08-.239" fill="#e9eaee"/>
        <path id="Trazado_161427" data-name="Trazado 161427" d="M119.08,80.386l-1.665-.966c-.027.085-.057.164-.078.249l1.661.967c.023-.086.052-.168.082-.25" fill="#e4e5e9"/>
        <path id="Trazado_161428" data-name="Trazado 161428" d="M119,80.636l-1.661-.966c-.031.082-.054.174-.079.256l1.663.967c.023-.086.05-.175.077-.257" fill="#dfe0e4"/>
        <path id="Trazado_161429" data-name="Trazado 161429" d="M118.922,80.892l-1.664-.966c-.025.089-.044.178-.068.267l1.661.963c.024-.086.045-.175.071-.264" fill="#dadbdf"/>
        <path id="Trazado_161430" data-name="Trazado 161430" d="M118.852,81.156l-1.661-.963c-.025.089-.043.179-.065.268l1.662.966c.02-.089.043-.178.064-.271" fill="#d5d6da"/>
        <path id="Trazado_161431" data-name="Trazado 161431" d="M118.788,81.427l-1.662-.966c-.019.085-.039.178-.055.267l1.663.967.054-.268" fill="#d0d1d5"/>
        <path id="Trazado_161432" data-name="Trazado 161432" d="M118.734,81.695l-1.663-.966c-.016.089-.032.178-.047.267l1.666.966c.014-.089.03-.178.044-.267" fill="#cbcccf"/>
        <path id="Trazado_161433" data-name="Trazado 161433" d="M118.69,81.962,117.025,81c-.014.089-.025.178-.036.264l1.662.966c.009-.089.025-.178.039-.264" fill="#c6c7ca"/>
        <path id="Trazado_161434" data-name="Trazado 161434" d="M118.651,82.226l-1.662-.966a.813.813,0,0,0-.012.114l1.663.966c0-.039.006-.078.011-.114" fill="#c1c2c5"/>
      </g>
    </g>
    <g id="Grupo_90122" data-name="Grupo 90122">
      <g id="Grupo_90121" data-name="Grupo 90121" clip-path="url(#clip-path-30)">
        <path id="Trazado_161436" data-name="Trazado 161436" d="M123.434,73.352l-1.663-.966a.819.819,0,0,0-.148-.068l1.661.966a1.129,1.129,0,0,1,.15.068" fill="#818184"/>
        <path id="Trazado_161437" data-name="Trazado 161437" d="M123.284,73.284l-1.662-.966a.871.871,0,0,0-.133-.036l1.663.963c.045.011.087.025.132.039" fill="#868689"/>
        <path id="Trazado_161438" data-name="Trazado 161438" d="M123.152,73.244l-1.663-.962c-.034-.007-.07-.014-.107-.018l1.663.965c.036.005.073.012.107.015" fill="#8b8b8e"/>
        <path id="Trazado_161439" data-name="Trazado 161439" d="M123.045,73.23l-1.663-.966a.78.78,0,0,0-.1-.007l1.663.966a.98.98,0,0,1,.1.007" fill="#909093"/>
        <path id="Trazado_161440" data-name="Trazado 161440" d="M122.947,73.223l-1.663-.966-.086,0,1.663.97a.786.786,0,0,1,.086-.007" fill="#959598"/>
        <path id="Trazado_161441" data-name="Trazado 161441" d="M122.861,73.23l-1.663-.97c-.029,0-.054.008-.086.011l1.663.966a.854.854,0,0,1,.086-.007" fill="#9a9a9d"/>
        <path id="Trazado_161442" data-name="Trazado 161442" d="M122.776,73.237l-1.663-.966c-.025,0-.052.01-.082.014l1.665.966a.559.559,0,0,1,.08-.014" fill="#9f9fa2"/>
        <path id="Trazado_161443" data-name="Trazado 161443" d="M122.7,73.252l-1.665-.966a.592.592,0,0,0-.077.018l1.665.966a.618.618,0,0,1,.077-.018" fill="#a4a4a7"/>
        <path id="Trazado_161444" data-name="Trazado 161444" d="M122.619,73.269l-1.665-.966a.373.373,0,0,0-.077.021l1.663.963c.025,0,.05-.014.079-.018" fill="#a9a9ac"/>
        <path id="Trazado_161445" data-name="Trazado 161445" d="M122.54,73.287l-1.663-.962-.077.024,1.662.963a.784.784,0,0,0,.078-.025" fill="#aeaeb1"/>
        <path id="Trazado_161446" data-name="Trazado 161446" d="M122.462,73.312l-1.662-.963a.629.629,0,0,0-.073.025l1.66.97c.027-.011.052-.021.075-.032" fill="#b3b3b6"/>
        <path id="Trazado_161447" data-name="Trazado 161447" d="M122.387,73.344l-1.66-.97a.674.674,0,0,1-.078.033l1.663.966a.579.579,0,0,0,.075-.029" fill="#b8b8bb"/>
        <path id="Trazado_161448" data-name="Trazado 161448" d="M122.312,73.373l-1.663-.966c-.027.014-.052.025-.077.039l1.662.966c.026-.014.053-.025.078-.039" fill="#bcbdc0"/>
        <path id="Trazado_161449" data-name="Trazado 161449" d="M122.234,73.412l-1.662-.966a.4.4,0,0,0-.074.039l1.659.963.077-.036" fill="#c1c2c5"/>
        <path id="Trazado_161450" data-name="Trazado 161450" d="M122.157,73.448l-1.66-.963a.419.419,0,0,0-.062.036l1.661.963a.465.465,0,0,0,.061-.036" fill="#c6c7ca"/>
      </g>
    </g>
    <g id="Grupo_90124" data-name="Grupo 90124">
      <g id="Grupo_90123" data-name="Grupo 90123" clip-path="url(#clip-path-31)">
        <path id="Trazado_161452" data-name="Trazado 161452" d="M122.1,73.483l-1.662-.963c-.007,0-.014,0-.016.011l1.66.963.018-.011" fill="#c6c7ca"/>
        <path id="Trazado_161453" data-name="Trazado 161453" d="M122.079,73.494l-1.66-.963a.6.6,0,0,0-.082.047l1.66.966a.512.512,0,0,0,.082-.05" fill="#cbcccf"/>
        <path id="Trazado_161454" data-name="Trazado 161454" d="M122,73.544l-1.66-.966c-.026.018-.057.032-.082.053l1.663.97c.027-.021.056-.039.079-.057" fill="#d0d1d5"/>
        <path id="Trazado_161455" data-name="Trazado 161455" d="M121.918,73.6l-1.663-.97c-.027.018-.054.039-.082.061l1.665.962.08-.053" fill="#d5d6da"/>
        <path id="Trazado_161456" data-name="Trazado 161456" d="M121.838,73.654l-1.665-.963c-.027.018-.054.04-.082.061l1.663.966c.025-.018.054-.043.084-.064" fill="#dadbdf"/>
        <path id="Trazado_161457" data-name="Trazado 161457" d="M121.754,73.719l-1.663-.966c-.027.025-.057.046-.084.071l1.663.966.084-.071" fill="#dfe0e4"/>
        <path id="Trazado_161458" data-name="Trazado 161458" d="M121.67,73.79l-1.663-.966a.929.929,0,0,0-.084.071l1.663.966c.029-.025.056-.046.084-.071" fill="#e4e5e9"/>
        <path id="Trazado_161459" data-name="Trazado 161459" d="M121.587,73.861l-1.664-.966-.083.078,1.665.963c.025-.025.053-.05.082-.075" fill="#e9eaee"/>
        <path id="Trazado_161460" data-name="Trazado 161460" d="M121.5,73.936l-1.665-.963c-.027.025-.052.05-.079.079l1.664.962.08-.078" fill="#eeeff3"/>
        <path id="Trazado_161461" data-name="Trazado 161461" d="M121.424,74.015l-1.663-.963a.942.942,0,0,0-.075.079l1.661.966c.025-.029.05-.053.077-.082" fill="#f3f4f8"/>
        <path id="Trazado_161462" data-name="Trazado 161462" d="M121.348,74.1l-1.661-.966c-.027.028-.052.053-.076.082l1.666.962.071-.078" fill="#f8f9fd"/>
        <path id="Trazado_161463" data-name="Trazado 161463" d="M121.277,74.175l-1.665-.962c-.023.028-.048.056-.072.081l1.664.967c.023-.029.048-.054.073-.086" fill="#f9fafd"/>
        <path id="Trazado_161464" data-name="Trazado 161464" d="M121.2,74.261l-1.663-.966c-.025.032-.048.064-.072.089l1.662.966c.023-.028.048-.057.073-.089" fill="#f9fafd"/>
        <path id="Trazado_161465" data-name="Trazado 161465" d="M121.13,74.35l-1.662-.966c-.028.036-.055.075-.083.107l1.663.966c.029-.036.055-.068.082-.107" fill="#f9fafd"/>
        <path id="Trazado_161466" data-name="Trazado 161466" d="M121.048,74.457l-1.663-.966c-.041.057-.08.114-.118.171l1.663.963c.038-.054.077-.111.118-.168" fill="#fafafd"/>
        <path id="Trazado_161467" data-name="Trazado 161467" d="M120.931,74.624l-1.663-.963c-.048.072-.1.146-.137.221l1.661.967c.043-.079.091-.15.139-.225" fill="#fafbfe"/>
        <path id="Trazado_161468" data-name="Trazado 161468" d="M120.791,74.849l-1.661-.966c-.032.053-.065.107-.093.164l1.661.966c.032-.054.061-.114.093-.164" fill="#fafafd"/>
        <path id="Trazado_161469" data-name="Trazado 161469" d="M120.7,75.013l-1.661-.966c-.02.036-.04.075-.061.11l1.663.97c.018-.039.039-.078.059-.114" fill="#f9fafd"/>
        <path id="Trazado_161470" data-name="Trazado 161470" d="M120.64,75.127l-1.663-.97a1.073,1.073,0,0,1-.048.1l1.665.97a.86.86,0,0,1,.046-.1" fill="#f9fafd"/>
        <path id="Trazado_161471" data-name="Trazado 161471" d="M120.594,75.223l-1.665-.97c-.012.033-.027.064-.036.093l1.66.966a.776.776,0,0,1,.041-.089" fill="#f9fafd"/>
        <path id="Trazado_161472" data-name="Trazado 161472" d="M120.553,75.312l-1.66-.966c-.014.028-.03.06-.041.085l1.664.97.037-.089" fill="#f8f9fd"/>
        <path id="Trazado_161473" data-name="Trazado 161473" d="M120.515,75.4l-1.664-.97-.035.093,1.662.97a.693.693,0,0,1,.037-.093" fill="#f3f4f8"/>
        <path id="Trazado_161474" data-name="Trazado 161474" d="M120.478,75.494l-1.662-.97c-.014.032-.025.064-.035.093l1.661.966c.011-.032.025-.06.036-.089" fill="#eeeff3"/>
        <path id="Trazado_161475" data-name="Trazado 161475" d="M120.442,75.583l-1.661-.966c-.011.032-.024.064-.034.092l1.663.967c.011-.029.023-.061.032-.093" fill="#e9eaee"/>
        <path id="Trazado_161476" data-name="Trazado 161476" d="M120.41,75.676l-1.663-.966c-.009.035-.022.071-.029.1l1.662.967c.009-.032.019-.064.03-.1" fill="#e4e5e9"/>
        <path id="Trazado_161477" data-name="Trazado 161477" d="M120.38,75.776l-1.661-.966a.73.73,0,0,0-.031.1l1.662.966c.01-.032.021-.064.03-.1" fill="#dfe0e4"/>
        <path id="Trazado_161478" data-name="Trazado 161478" d="M120.349,75.876l-1.661-.966c-.011.032-.018.067-.029.1l1.665.97c.007-.036.016-.068.025-.1" fill="#dadbdf"/>
        <path id="Trazado_161479" data-name="Trazado 161479" d="M120.325,75.976l-1.665-.97c-.006.036-.014.072-.02.1l1.66.97a.911.911,0,0,1,.025-.1" fill="#d5d6da"/>
        <path id="Trazado_161480" data-name="Trazado 161480" d="M120.3,76.075l-1.66-.97c-.01.032-.012.068-.019.1l1.659.966a.819.819,0,0,0,.02-.1" fill="#d0d1d5"/>
        <path id="Trazado_161481" data-name="Trazado 161481" d="M120.28,76.172l-1.66-.966c-.005.032-.014.064-.018.1l1.663.966c0-.032.011-.068.015-.1" fill="#cbcccf"/>
        <path id="Trazado_161482" data-name="Trazado 161482" d="M120.266,76.268,118.6,75.3c-.006.032-.01.06-.016.092l1.662.967c.007-.032.013-.065.017-.093" fill="#c6c7ca"/>
        <path id="Trazado_161483" data-name="Trazado 161483" d="M120.25,76.361l-1.664-.966c0,.032,0,.06-.007.092l1.664.967a.728.728,0,0,1,.007-.093" fill="#c1c2c5"/>
        <path id="Trazado_161484" data-name="Trazado 161484" d="M120.242,76.453l-1.663-.966a.711.711,0,0,0-.007.092l1.663.963c0-.028,0-.057.007-.089" fill="#bcbdc0"/>
        <path id="Trazado_161485" data-name="Trazado 161485" d="M120.235,76.542l-1.663-.962a.638.638,0,0,0,0,.092l1.663.966c0-.032,0-.06,0-.1" fill="#b8b8bb"/>
        <path id="Trazado_161486" data-name="Trazado 161486" d="M120.23,76.639l-1.663-.966v.085l1.661.97v0c0-.032,0-.057,0-.086" fill="#b3b3b6"/>
        <path id="Trazado_161487" data-name="Trazado 161487" d="M120.228,76.728l-1.661-.97v.089l1.665.966c0-.032,0-.057,0-.085" fill="#aeaeb1"/>
        <path id="Trazado_161488" data-name="Trazado 161488" d="M120.232,76.813l-1.665-.966c0,.029,0,.057,0,.082l1.663.97c0-.029,0-.057,0-.086" fill="#a9a9ac"/>
        <path id="Trazado_161489" data-name="Trazado 161489" d="M120.235,76.9l-1.663-.97c0,.032.007.061.011.089l1.659.967a.576.576,0,0,0-.007-.086" fill="#a4a4a7"/>
        <path id="Trazado_161490" data-name="Trazado 161490" d="M120.242,76.985l-1.66-.966a.52.52,0,0,0,.013.082l1.661.97c0-.029-.009-.058-.014-.086" fill="#9f9fa2"/>
        <path id="Trazado_161491" data-name="Trazado 161491" d="M120.257,77.07,118.6,76.1c0,.032.011.064.016.089l1.664.97c-.007-.032-.013-.061-.018-.089" fill="#9a9a9d"/>
        <path id="Trazado_161492" data-name="Trazado 161492" d="M120.275,77.159l-1.663-.97c.009.036.016.064.023.1l1.663.967c-.007-.032-.018-.061-.023-.093" fill="#959598"/>
        <path id="Trazado_161493" data-name="Trazado 161493" d="M120.3,77.252l-1.663-.966c.01.032.023.068.035.1l1.662.97c-.011-.036-.021-.064-.034-.1" fill="#909093"/>
        <path id="Trazado_161494" data-name="Trazado 161494" d="M120.332,77.352l-1.661-.97a.592.592,0,0,0,.048.114l1.661.966a.678.678,0,0,1-.048-.11" fill="#8b8b8e"/>
        <path id="Trazado_161495" data-name="Trazado 161495" d="M120.38,77.462l-1.661-.966c.021.046.05.092.075.139l1.663.966a.886.886,0,0,1-.077-.139" fill="#868689"/>
        <path id="Trazado_161496" data-name="Trazado 161496" d="M120.456,77.6l-1.663-.966a.623.623,0,0,0,.037.057l1.667.966a.393.393,0,0,1-.041-.057" fill="#818184"/>
      </g>
    </g>
    <g id="Grupo_90126" data-name="Grupo 90126">
      <g id="Grupo_90125" data-name="Grupo 90125" clip-path="url(#clip-path)">
        <path id="Trazado_161498" data-name="Trazado 161498" d="M122.1,73.483a4.112,4.112,0,0,0-1.868,3.241,1.544,1.544,0,0,0,.269.934,9.8,9.8,0,0,0-1.858,4.682l6.955-4.019c-.2-1.462-.91-2.378-1.876-2.521a3.509,3.509,0,0,0,.261-1.244c0-1.194-.842-1.672-1.883-1.073" fill="#f8f9fd"/>
        <path id="Trazado_161499" data-name="Trazado 161499" d="M114.229,79.855c0-.1.007-.2.014-.3s.014-.2.024-.307.021-.2.037-.3.025-.207.043-.314.033-.207.051-.313.047-.218.068-.329.052-.217.077-.324.057-.217.085-.328c.025-.089.052-.175.075-.264,0,0,.006,0,.006-.01a.429.429,0,0,0,.014-.057c.037-.107.071-.218.107-.321s.071-.214.109-.318.076-.2.117-.3.079-.207.12-.306c.032-.079.066-.154.1-.232l0,0a.484.484,0,0,1,.023-.061c.049-.1.089-.2.138-.3s.106-.218.158-.325c.061-.125.129-.249.193-.374s.146-.261.221-.389c.012-.025.027-.05.039-.071a.536.536,0,0,1,.048-.086c.146-.253.3-.5.462-.742.13-.189.26-.377.4-.559.09-.121.178-.246.273-.36s.16-.2.242-.3.157-.185.24-.278.159-.182.241-.267l.043-.047a.077.077,0,0,0,.025-.028c.062-.061.123-.129.187-.193.087-.085.171-.174.262-.26s.178-.168.271-.253.184-.161.278-.243c.045-.035.091-.071.137-.11.009-.007.024-.022.034-.029l.106-.085c.089-.072.18-.139.272-.211s.179-.124.268-.189.178-.117.267-.174.175-.107.26-.164c.022-.011.041-.022.063-.032.068-.04.135-.075.2-.111.087-.046.173-.089.257-.132.055-.028.11-.053.167-.078.011-.007.022-.011.032-.018a.292.292,0,0,0,.05-.025c.082-.036.17-.071.252-.1s.163-.064.249-.1l.045-.011c.007-.007.023-.007.036-.014.053-.018.11-.039.169-.053.083-.029.171-.05.255-.071.042-.011.082-.018.124-.025a.247.247,0,0,1,.054-.015.532.532,0,0,1,.077-.017c.092-.018.183-.033.272-.047.056,0,.113-.01.163-.014a.336.336,0,0,1,.06-.007c.02,0,.036,0,.056,0,.1,0,.2-.014.29-.01.045,0,.084.007.128.007s.063,0,.1,0a.786.786,0,0,0,.1,0,3.087,3.087,0,0,1,.354.053h.011c.03.007.054.018.086.025a3.524,3.524,0,0,1,.34.093l.025.01a3.289,3.289,0,0,1,.48.225l1.661.966a3,3,0,0,0-.474-.221,3.258,3.258,0,0,0-.369-.107c-.032-.007-.063-.017-.091-.025a3.79,3.79,0,0,0-.464-.06h-.1a3.563,3.563,0,0,0-.472.007c-.02,0-.034,0-.054,0a4.594,4.594,0,0,0-.518.083l-.052.01c-.182.043-.364.093-.547.154a.256.256,0,0,1-.038.014,5.489,5.489,0,0,0-.59.239.106.106,0,0,0-.039.014c-.2.1-.41.2-.619.321a9.5,9.5,0,0,0-1.24.859c-.006.007-.015.014-.022.021a11.58,11.58,0,0,0-1.143,1.07.067.067,0,0,0-.023.022,14.075,14.075,0,0,0-1.945,2.638.446.446,0,0,0-.039.068,14.42,14.42,0,0,0-.731,1.447.118.118,0,0,1-.009.015,14.354,14.354,0,0,0-.563,1.533.127.127,0,0,0,0,.018,11.7,11.7,0,0,0-.358,1.54,9.636,9.636,0,0,0-.123,1.515c0,.239.016.464.034.685,0,.014,0,.039,0,.057.024.2.052.4.088.585,0,.021.009.046.012.064.038.181.084.356.136.52.009.032.023.065.032.1a3.943,3.943,0,0,0,.166.425c.01.021.021.046.028.064a3.527,3.527,0,0,0,.246.445,3.358,3.358,0,0,0,.43.535l.117.111a3.217,3.217,0,0,0,.523.4l-1.66-.966a3.142,3.142,0,0,1-.528-.4c-.037-.036-.078-.075-.114-.115a2.872,2.872,0,0,1-.431-.531l-.007-.007a3.755,3.755,0,0,1-.235-.425l-.008-.017c-.005-.014-.01-.032-.018-.05-.042-.093-.083-.189-.121-.289-.018-.05-.037-.1-.053-.153-.009-.029-.02-.061-.029-.089s-.019-.057-.028-.086c-.029-.1-.057-.21-.082-.317-.009-.036-.016-.075-.024-.114s-.012-.054-.016-.079-.016-.071-.021-.11c-.021-.1-.032-.2-.046-.3-.008-.057-.013-.118-.018-.175a.5.5,0,0,1-.006-.054c0-.025-.005-.049-.005-.071-.009-.1-.016-.2-.019-.292s-.007-.2-.007-.3v-.014c0-.1,0-.189,0-.282" fill="#e1bb00"/>
        <path id="Trazado_161500" data-name="Trazado 161500" d="M128.329,73.915a13.665,13.665,0,0,1-6.2,10.743c-3.437,1.982-6.231.385-6.243-3.559a13.685,13.685,0,0,1,6.2-10.746c3.438-1.982,6.233-.392,6.242,3.562m-2.735,4.407c-.2-1.462-.909-2.378-1.875-2.521a3.533,3.533,0,0,0,.26-1.244c0-1.195-.842-1.672-1.883-1.073a4.113,4.113,0,0,0-1.868,3.241,1.56,1.56,0,0,0,.269.934,9.8,9.8,0,0,0-1.857,4.681Z" fill="#ffdf02"/>
        <path id="Trazado_161501" data-name="Trazado 161501" d="M98.7,88.18q12.254,44.385,24.507,88.77c.781,2.835,5.184,1.629,4.4-1.212q-12.253-44.385-24.507-88.77c-.781-2.835-5.185-1.63-4.4,1.212" fill="#def6ff"/>
        <path id="Trazado_161502" data-name="Trazado 161502" d="M79.355,98.06q12.253,44.385,24.506,88.77c.781,2.835,5.184,1.629,4.4-1.212q-12.252-44.385-24.505-88.77c-.781-2.835-5.184-1.629-4.4,1.212" fill="#def6ff"/>
        <path id="Trazado_161503" data-name="Trazado 161503" d="M103.192,98.082q-9.442,5.766-18.886,11.538c-2.507,1.533-.216,5.48,2.3,3.94q9.442-5.766,18.886-11.538c2.507-1.533.216-5.48-2.3-3.94" fill="#def6ff"/>
        <path id="Trazado_161504" data-name="Trazado 161504" d="M106.765,113.021q-8.844,5.668-17.685,11.342c-2.469,1.583-.182,5.534,2.3,3.94q8.842-5.67,17.684-11.342c2.47-1.583.182-5.534-2.3-3.94" fill="#def6ff"/>
        <path id="Trazado_161505" data-name="Trazado 161505" d="M110.51,129.725q-8.769,5.176-17.539,10.358c-2.531,1.494-.237,5.441,2.3,3.94q8.768-5.178,17.538-10.358c2.532-1.494.237-5.441-2.3-3.94" fill="#def6ff"/>
        <path id="Trazado_161506" data-name="Trazado 161506" d="M114.837,142.344q-8.821,5.541-17.646,11.085c-2.485,1.558-.2,5.509,2.3,3.94q8.821-5.541,17.645-11.085c2.486-1.558.2-5.509-2.3-3.94" fill="#def6ff"/>
        <path id="Trazado_161507" data-name="Trazado 161507" d="M118.672,157.782l-17.419,10.461c-2.519,1.512-.227,5.459,2.3,3.94l17.419-10.461c2.519-1.512.227-5.459-2.3-3.94" fill="#def6ff"/>
        <path id="Trazado_161508" data-name="Trazado 161508" d="M162.565,71.059s-1.72-4.7-8.466-2.507A124.34,124.34,0,0,0,140.89,73.84l-14.254-7.972s-2.783,1.419-2.774,3.555c0,0,11.393,11.252,17.57,11.883,0,0,26.326-.324,21.133-10.247" fill="#cadfe8"/>
        <path id="Trazado_161509" data-name="Trazado 161509" d="M126.1,66.192s-1.508-3.3-2.8-4.268a6.406,6.406,0,0,0-2.865-1.312c-.442-.036.857,1.341,1.292,1.772s.678,1.915-2.756.307-2.79-.888-2.735-.574,3.546,5.7,7.666,6.9a5.213,5.213,0,0,1,2.2-2.827" fill="#efb185"/>
        <path id="Trazado_161510" data-name="Trazado 161510" d="M141.432,81.306c-6.177-.631-17.571-11.884-17.571-11.884a2.887,2.887,0,0,1,.533-1.6c2.559,2.028,10.048,7.9,14.64,10.8,5.6,3.526,24.126-5.516,24.16-5.694,1.139,8.09-21.762,8.379-21.762,8.379" fill="#afced8"/>
        <path id="Trazado_161511" data-name="Trazado 161511" d="M151.335,169.334s-2.843.421-2.155,2.064,3.964,4.126,4.385,5.163c.437,1.034,3.1,4.728,3.958,4.386s3.1.171,2.843-4.043-5.246-7.745-9.031-7.57" fill="#111114"/>
        <path id="Trazado_161512" data-name="Trazado 161512" d="M145.914,184.819s1.377,4.05-2.066,4.992-2.407-1.206-9.894.681-8.344-1.972-8.171-2.835,5.165-2.41,6.8-2.838,4.732-1.205,4.732-1.205h8.872Z" fill="#111114"/>
        <path id="Trazado_161513" data-name="Trazado 161513" d="M160.055,113.809s.048,24.427.048,27.176,3.072,24.434,1.223,33.9c0,0-5.325,5.341-10.031,0,0,0-1.509-27.137-2.876-33.262s-.9-24.852-.9-24.852Z" fill="#5e43cf"/>
        <path id="Trazado_161514" data-name="Trazado 161514" d="M150.71,117.278s-1.21,15.774-2.463,31.415c0,0-.781,31.045-1.522,35.516,0,0-10.009,2.482-11.009-2.235,0,0,.246-27.319,0-33.024s-1.616-23.61.638-32.8,14.356,1.127,14.356,1.127" fill="#5e43cf"/>
        <path id="Trazado_161515" data-name="Trazado 161515" d="M146.725,184.21c.742-4.471,1.522-35.516,1.522-35.516.84-10.529,1.8-22.865,2.252-28.659l-6.792,1.315a108.36,108.36,0,0,0-3.309,31.206c.526,13.581.749,26.948.82,32.3a25.148,25.148,0,0,0,5.507-.645" fill="#7b65d8"/>
        <path id="Trazado_161516" data-name="Trazado 161516" d="M161.326,174.882c1.849-9.463-1.223-31.145-1.223-33.9,0-2.621-.041-24.891-.044-27l-5.379,4.132s-1.7,17.464,0,27.412c1.558,9.053.556,26.673,1.314,31.722a8.556,8.556,0,0,0,5.332-2.371" fill="#7b65d8"/>
        <path id="Trazado_161517" data-name="Trazado 161517" d="M161.551,69.451s5.166,2.582,2.235,11.356-4.984,14.455-4.81,17.721.995,15.374,1.684,17.61c0,0,.393,3.761-13.635,5.651,0,0-12.65,1.476-10.416-7.47s.513-18.711.172-22.152-2.419-10.329,6.194-14.975,13.073-8.087,18.576-7.741" fill="#cadfe8"/>
        <path id="Trazado_161518" data-name="Trazado 161518" d="M155.443,65.115s-.546,4.585,1.025,7.456c1.433,2.6-9.372,4.977-9.627,2.567a10.379,10.379,0,0,0-.56-8.889c-1.367-2.446,9.162-1.134,9.162-1.134" fill="#efb185"/>
        <path id="Trazado_161519" data-name="Trazado 161519" d="M156.416,72.728c-1.173-2.136-1.173-5.213-1.089-6.653L147.44,69.99a.075.075,0,0,0,0,.017c.286.068,5.616,1.423,6.77,5.252,1.617-.663,2.718-1.583,2.2-2.531" fill="#dd9569"/>
        <path id="Trazado_161520" data-name="Trazado 161520" d="M144.067,52.935a19.569,19.569,0,0,0-1.342,7.748c.36,3.854-.221,4.638.025,6.354a4.113,4.113,0,0,0,.875,2.527c1.191,1.152,3.642,1.576,6.976.36,4.022-1.476,8.258-7.006,6.539-11.976s-7.021-9.067-13.073-5.013" fill="#efb185"/>
        <path id="Trazado_161521" data-name="Trazado 161521" d="M156.96,63.325c-1.622-4.478-5.616-9.844-5.58-10.126a12.572,12.572,0,0,0-2.82-1.9,9.062,9.062,0,0,0-4.493,1.633,21.185,21.185,0,0,0-.836,2.678c.959,1.077,2.908,2.3,3.2,3.205a11.577,11.577,0,0,1-.335,6.821c-.639,1.437,1.944,3.54,1.4,4.806a.3.3,0,0,0-.009.179,10.859,10.859,0,0,0,9.472-7.3" fill="#e6a376"/>
        <path id="Trazado_161522" data-name="Trazado 161522" d="M142.878,51.231a5.139,5.139,0,0,0,2.933,5.287c2.116,1.035,1.921,4.44,1.823,5.067s-.724,3.5-.461,3.876c.493.709,2.144-1.508,2.929-1.355,2,.392,1.217,2.253-.6,4.211-1.934,2.078,3.156,2.931,5.507,1.216,1.254-.91,1.708-1.459,3.348-4.725,2.391-4.76,2.514-10.475-3.116-13.523s-8.874,1.322-12.365-.054" fill="#221101"/>
        <path id="Trazado_161523" data-name="Trazado 161523" d="M155.011,69.533c1.253-.909,1.708-1.458,3.348-4.724,2.391-4.76,2.514-10.476-3.116-13.524s-8.875,1.323-12.365-.054a4.807,4.807,0,0,0,.028,1.43c1.783.289,6.659,1.248,7.919,3.352,1.55,2.577,3.27,1.747,3.136,4.955-.119,3.1.679,7.142-4.517,8.893,1.936,1.387,4.654.339,5.567-.328" fill="#341c09"/>
        <path id="Trazado_161524" data-name="Trazado 161524" d="M147.447,73.708l-3.519,2.963s10.953,3.134,14.164-2.232a3.118,3.118,0,0,0-2.006-3.78s-.372,4.368-8.639,3.049" fill="#def0f9"/>
        <path id="Trazado_161525" data-name="Trazado 161525" d="M136.608,114.319c2.239-8.949.513-18.712.173-22.152-.35-3.413-2.355-10.187,5.953-14.833,2.891,1.758,7.081,5.541,4.706,11.934-2.938,7.915-3.906,25.072-4.478,32.5-3.478-.393-7.727-1.951-6.354-7.445" fill="#afced8"/>
        <path id="Trazado_161526" data-name="Trazado 161526" d="M147.467,82.333s.357-4.5-6.008-5.238a113.282,113.282,0,0,0-12.844-.634l-8.7-11.916s-2.821.128-3.617,1.886c0,0,5.12,13.524,9.956,16.365,0,0,21.743,9.641,21.213-.463" fill="#cadfe8"/>
        <path id="Trazado_161527" data-name="Trazado 161527" d="M119.346,64.609s0-3.28-.7-4.56a5.677,5.677,0,0,0-1.859-2.15c-.348-.2.207,1.422.394,1.939s-.157,1.822-2.377-.791-1.957-1.776-2.03-1.494.772,6.022,3.695,8.557a4.744,4.744,0,0,1,2.876-1.5" fill="#efb185"/>
        <path id="Trazado_161528" data-name="Trazado 161528" d="M126.254,82.8C121.418,79.954,116.3,66.43,116.3,66.43a2.573,2.573,0,0,1,1.041-1.116c1.329,2.628,5.27,10.266,7.959,14.376,3.278,5,21.885,4.55,21.979,4.418-2.107,7.078-21.022-1.312-21.022-1.312" fill="#afced8"/>
      </g>
    </g>
  </g>
</svg>
