<svg xmlns="http://www.w3.org/2000/svg" xmlns:xlink="http://www.w3.org/1999/xlink" width="301.042" height="98.777" viewBox="0 0 301.042 98.777">
  <defs>
    <clipPath id="clip-path">
      <rect id="Rectángulo_11414" data-name="Rectángulo 11414" width="89.309" height="89.309" transform="translate(523.522 382.167)" fill="none"/>
    </clipPath>
  </defs>
  <g id="Grupo_90513" data-name="Grupo 90513" transform="translate(-822.408 -1496.705)">
    <path id="Trazado_161060" data-name="Trazado 161060" d="M814.8,454.147H545.233a5.033,5.033,0,0,1-5.033-5.033V407.669a5.034,5.034,0,0,1,5.033-5.033H814.8a5.033,5.033,0,0,1,5.033,5.033v41.445a5.033,5.033,0,0,1-5.033,5.033" transform="translate(303.62 1119.273)" fill="#1395d1"/>
    <path id="Trazado_161061" data-name="Trazado 161061" d="M617.565,426.821a49.388,49.388,0,1,1-49.389-49.389,49.388,49.388,0,0,1,49.389,49.389" transform="translate(303.62 1119.273)" fill="#1395d1"/>
    <g id="Grupo_90004" data-name="Grupo 90004" transform="translate(303.62 1119.273)" opacity="0.3">
      <g id="Grupo_90003" data-name="Grupo 90003">
        <g id="Grupo_90002" data-name="Grupo 90002" clip-path="url(#clip-path)">
          <path id="Trazado_161062" data-name="Trazado 161062" d="M610.356,440.2a44.249,44.249,0,1,1-28.8-55.555A44.249,44.249,0,0,1,610.356,440.2Z" fill="none" stroke="#fff" stroke-miterlimit="10" stroke-width="0.786"/>
        </g>
      </g>
    </g>
    <path id="Trazado_161063" data-name="Trazado 161063" d="M596.43,442.65a7.625,7.625,0,0,1-.546,1.191,3.1,3.1,0,0,1-5.321-.152c-.908-1.49-1.754-3.017-2.627-4.528-.643-1.113-1.292-2.223-1.921-3.345a.48.48,0,0,0-.608-.275,10.806,10.806,0,1,1,8.079-14.323,10.433,10.433,0,0,1-1.679,10.447c-.166.219-.346.427-.536.66.147.264.284.52.429.771,1.221,2.116,2.456,4.224,3.657,6.351.4.711.718,1.471,1.073,2.209Zm-13.087-26.872a9.156,9.156,0,1,0,9.175,9.035,9.142,9.142,0,0,0-9.175-9.035m4.112,19.227,1.1,1.915q1.665,2.884,3.331,5.77a1.52,1.52,0,0,0,1.665.9,1.5,1.5,0,0,0,.917-2.373c-1.367-2.39-2.749-4.771-4.126-7.155-.109-.189-.224-.374-.323-.539l-2.567,1.485" transform="translate(303.62 1119.273)" fill="#fff"/>
    <path id="Trazado_161064" data-name="Trazado 161064" d="M571.026,445.14c.128.259.212.437.3.612q1.693,3.311,3.388,6.622c.091.179.255.385.225.549a1.589,1.589,0,0,1-.37.881.683.683,0,0,1-.987-.127,2.656,2.656,0,0,1-.34-.562c-1.277-2.483-2.559-4.963-3.814-7.457a.8.8,0,0,0-.832-.529q-4.027.033-8.056,0a.761.761,0,0,0-.8.489c-1.262,2.511-2.552,5.008-3.836,7.508a2.934,2.934,0,0,1-.308.519.753.753,0,0,1-.995.192.745.745,0,0,1-.408-.926,2.893,2.893,0,0,1,.247-.552q1.69-3.313,3.387-6.623c.082-.161.156-.325.286-.6h-.645q-3.586,0-7.174,0c-1.636,0-2.319-.682-2.32-2.3v-1.4h-.61c-1.618,0-3.237.005-4.855,0a2.371,2.371,0,0,1-2.586-2.567q0-16.857,0-33.715a2.367,2.367,0,0,1,2.546-2.554c1.177-.009,2.355-.011,3.532,0,.666.008,1.089.448.96.985a.848.848,0,0,1-.945.668c-1.141-.006-2.281,0-3.421,0-.8,0-1.018.218-1.018,1.012q0,16.746,0,33.494c0,.836.206,1.022,1.116,1.022H585.57a4.706,4.706,0,0,1,.606.011.816.816,0,0,1,.006,1.629c-.347.033-.7.015-1.048.015-1.286,0-2.572,0-3.947,0,0,.529,0,1.034,0,1.54a1.933,1.933,0,0,1-2.14,2.162c-2.446.013-4.892,0-7.339,0h-.681m8.5-3.67H549.678a.754.754,0,0,0-.039.137c0,.368-.007.736-.007,1.1,0,.771,0,.773.8.773h28.3c.129,0,.285.043.38-.014.159-.1.382-.245.395-.389.048-.525.019-1.057.019-1.611" transform="translate(303.62 1119.273)" fill="#fff"/>
    <path id="Trazado_161065" data-name="Trazado 161065" d="M565.63,420.625c.142-.395-.1-.6-.47-.8-.731-.384-1.432-.827-2.167-1.2a.741.741,0,0,0-.619.028,2.789,2.789,0,0,1-3.212-.015.682.682,0,0,0-.572-.028c-.78.409-1.53.877-2.311,1.286a.63.63,0,0,0-.361.7,2.741,2.741,0,0,1-5.454.493,2.738,2.738,0,0,1,4.21-2.667.65.65,0,0,0,.821.037c.721-.439,1.459-.853,2.2-1.256a.555.555,0,0,0,.347-.6,2.75,2.75,0,0,1,2.729-2.965,2.8,2.8,0,0,1,2.76,3.01.684.684,0,0,0,.278.5q1.176.717,2.4,1.357a.666.666,0,0,0,.56-.041,2.988,2.988,0,0,1,2.1-.473.721.721,0,0,0,.58-.228q2.065-2.828,4.076-5.7a.721.721,0,0,0,.039-.617A2.786,2.786,0,0,1,574.2,408a2.735,2.735,0,0,1,3.372-.135,2.773,2.773,0,0,1,.94,3.294,2.8,2.8,0,0,1-3.11,1.644.6.6,0,0,0-.48.2c-1.394,1.918-2.762,3.855-4.159,5.771-.213.292-.056.457.057.68a2.749,2.749,0,1,1-5.192,1.168m-4.842-5.322a1.129,1.129,0,0,0-1.1,1.086,1.095,1.095,0,0,0,2.189.02,1.131,1.131,0,0,0-1.085-1.106m15.17-6.3a1.106,1.106,0,0,0-1.066,1.112,1.091,1.091,0,0,0,1.093,1.079,1.107,1.107,0,0,0,1.074-1.105,1.12,1.12,0,0,0-1.1-1.086m-6.486,11.729a1.141,1.141,0,0,0-1.081-1.113,1.115,1.115,0,0,0-1.1,1.079,1.08,1.08,0,0,0,1.069,1.1,1.113,1.113,0,0,0,1.114-1.068m-15.2-.008a1.128,1.128,0,0,0-1.081-1.106,1.141,1.141,0,0,0-1.106,1.088,1.108,1.108,0,0,0,1.087,1.093,1.093,1.093,0,0,0,1.1-1.075" transform="translate(303.62 1119.273)" fill="#fff"/>
    <path id="Trazado_161066" data-name="Trazado 161066" d="M559.993,402.6c0-.57-.011-1.081,0-1.591a2,2,0,0,1,2.037-2.084q2.538-.057,5.076,0a2.033,2.033,0,0,1,2.059,2.13c.01.493,0,.987,0,1.547h17.292a2.448,2.448,0,0,1,2.776,2.78q0,3.5,0,7.008c0,.236.033.542-.094.692a1.454,1.454,0,0,1-.8.522c-.4.052-.671-.252-.736-.668a3.478,3.478,0,0,1-.02-.551q0-3.5,0-7.008c0-.93-.194-1.119-1.141-1.119H550.021a4.268,4.268,0,0,1-.66-.02.769.769,0,0,1-.694-.745.744.744,0,0,1,.586-.825,2.454,2.454,0,0,1,.653-.062q4.719-.006,9.436,0Zm7.52-.03v-1.487a.455.455,0,0,0-.506-.514c-1.616,0-3.232-.015-4.846.018a.67.67,0,0,0-.487.429,12.293,12.293,0,0,0-.023,1.554Z" transform="translate(303.62 1119.273)" fill="#fff"/>
    <path id="Trazado_161067" data-name="Trazado 161067" d="M558.262,430.069q0-2.7,0-5.407c0-.915.276-1.193,1.18-1.2.92,0,1.839-.008,2.759,0,.771.008,1.085.3,1.086,1.066q.012,5.546,0,11.089c0,.742-.313,1.046-1.04,1.055q-1.462.016-2.924,0c-.757-.008-1.056-.314-1.059-1.092-.008-1.839,0-3.677,0-5.516m3.339-4.9H559.96v9.84H561.6Z" transform="translate(303.62 1119.273)" fill="#fff"/>
    <path id="Trazado_161068" data-name="Trazado 161068" d="M565.863,432.179c0-1.12,0-2.241,0-3.362,0-.815.278-1.1,1.085-1.107q1.433-.015,2.866,0c.787.009,1.06.277,1.063,1.07q.014,3.418,0,6.835c0,.772-.3,1.056-1.08,1.063q-1.433.012-2.866,0c-.765-.007-1.062-.309-1.067-1.08-.006-1.139,0-2.278,0-3.418m3.326-2.768h-1.632V435h1.632Z" transform="translate(303.62 1119.273)" fill="#fff"/>
    <path id="Trazado_161069" data-name="Trazado 161069" d="M555.7,432.164c0,1.14.005,2.279,0,3.418,0,.776-.3,1.087-1.056,1.1q-1.461.015-2.921,0c-.734-.008-1.042-.3-1.046-1.046q-.017-3.445,0-6.891c0-.745.3-1.021,1.052-1.03q1.461-.016,2.922,0c.765.009,1.044.3,1.049,1.091.007,1.121,0,2.241,0,3.362m-3.335,2.813h1.632v-5.59h-1.632Z" transform="translate(303.62 1119.273)" fill="#fff"/>
    <path id="Trazado_161070" data-name="Trazado 161070" d="M575.123,435.024c.807,0,1.554,0,2.3,0,.667.005,1.021.286,1.032.8s-.348.842-1,.849q-1.485.018-2.971,0c-.708-.008-1.009-.311-1.018-1.005-.009-.716-.011-1.431,0-2.146a.827.827,0,1,1,1.646-.026c.02.489,0,.98,0,1.525" transform="translate(303.62 1119.273)" fill="#fff"/>
    <path id="Trazado_161071" data-name="Trazado 161071" d="M589.565,424.711c-.072-.358-.2-1.057-.356-1.751-.051-.231-.167-.447-.234-.675a.829.829,0,0,1,.452-1.1.818.818,0,0,1,1.075.5,7.206,7.206,0,0,1,.7,3.642,7.809,7.809,0,0,1-6.494,7.338,7.889,7.889,0,0,1-9.143-6.776,7.749,7.749,0,0,1,5.822-8.538,7.559,7.559,0,0,1,6.641,1.27.822.822,0,0,1,.243,1.163.8.8,0,0,1-1.168.184,6.875,6.875,0,0,0-2.991-1.181,6.159,6.159,0,0,0-6.853,5.085,5.9,5.9,0,0,0,2.453,6.05,5.833,5.833,0,0,0,6.549.463c2.09-1.117,3.159-2.945,3.307-5.678" transform="translate(303.62 1119.273)" fill="#fff"/>
    <path id="Trazado_162828" data-name="Trazado 162828" d="M4.254,17H1.178V4.2H4.254ZM8.982,7.49l.1,1.116a3.225,3.225,0,0,1,2.716-1.292,2.713,2.713,0,0,1,2.219.888,4.226,4.226,0,0,1,.76,2.672V17H11.8V11a1.6,1.6,0,0,0-.29-1.059A1.342,1.342,0,0,0,10.459,9.6a1.413,1.413,0,0,0-1.292.686V17H6.205V7.49ZM17.068,17V9.547h-1.38V7.49h1.38V6.734a3.286,3.286,0,0,1,.958-2.522,3.785,3.785,0,0,1,2.689-.9A5.89,5.89,0,0,1,22.1,3.5l.009,2.18a2.706,2.706,0,0,0-.729-.079q-1.345,0-1.345,1.16V7.49h1.854V9.547H20.039V17Zm5.493-4.843a5.613,5.613,0,0,1,.554-2.536,3.96,3.96,0,0,1,1.591-1.709,4.791,4.791,0,0,1,2.435-.6,4.373,4.373,0,0,1,3.366,1.323,5.076,5.076,0,0,1,1.23,3.6v.105A4.925,4.925,0,0,1,30.5,15.871a4.384,4.384,0,0,1-3.344,1.305A4.434,4.434,0,0,1,23.9,15.958a4.761,4.761,0,0,1-1.327-3.3Zm2.962.185a3.538,3.538,0,0,0,.413,1.934,1.376,1.376,0,0,0,1.222.615q1.582,0,1.617-2.435v-.3q0-2.558-1.635-2.558-1.485,0-1.608,2.206Zm13.271-2.171-.976-.07a1.752,1.752,0,0,0-1.793.879V17H33.064V7.49h2.777l.1,1.222a2.294,2.294,0,0,1,2.083-1.4,2.888,2.888,0,0,1,.826.105ZM42.662,7.49l.1,1.116a3.27,3.27,0,0,1,2.716-1.292,2.407,2.407,0,0,1,2.435,1.433A3.165,3.165,0,0,1,50.7,7.314q2.892,0,2.971,3.5V17H50.7V11a1.813,1.813,0,0,0-.246-1.063,1.048,1.048,0,0,0-.9-.334,1.4,1.4,0,0,0-1.31.782l.009.123V17H45.29V11.015a1.906,1.906,0,0,0-.237-1.081,1.045,1.045,0,0,0-.905-.334,1.42,1.42,0,0,0-1.3.782V17H39.885V7.49ZM60.724,17a3.344,3.344,0,0,1-.281-.853,2.754,2.754,0,0,1-2.285,1.028,3.374,3.374,0,0,1-2.285-.813,2.588,2.588,0,0,1-.94-2.043,2.66,2.66,0,0,1,1.143-2.338A5.821,5.821,0,0,1,59.4,11.19h.914v-.5q0-1.316-1.134-1.316a.927.927,0,0,0-1.055,1.042H55.16a2.655,2.655,0,0,1,1.173-2.239,4.931,4.931,0,0,1,2.993-.86A4.323,4.323,0,0,1,62.2,8.2a3.086,3.086,0,0,1,1.081,2.435v4.21a4.311,4.311,0,0,0,.4,2V17Zm-1.854-1.934a1.652,1.652,0,0,0,.918-.237,1.487,1.487,0,0,0,.523-.536V12.772h-.861q-1.547,0-1.547,1.389a.848.848,0,0,0,.272.655A.986.986,0,0,0,58.869,15.066Zm10.072-.176a1.317,1.317,0,0,0,.967-.338,1.241,1.241,0,0,0,.334-.945H73.02A3.288,3.288,0,0,1,71.9,16.174a4.168,4.168,0,0,1-2.887,1,4.22,4.22,0,0,1-3.27-1.3,5.125,5.125,0,0,1-1.2-3.6v-.123A5.792,5.792,0,0,1,65.079,9.6a3.872,3.872,0,0,1,1.534-1.7,4.573,4.573,0,0,1,2.373-.593A4.116,4.116,0,0,1,71.93,8.343a3.647,3.647,0,0,1,1.09,2.786H70.242A1.626,1.626,0,0,0,69.882,10a1.244,1.244,0,0,0-.967-.4q-1.151,0-1.345,1.468a10.357,10.357,0,0,0-.062,1.283,4.068,4.068,0,0,0,.343,1.986A1.187,1.187,0,0,0,68.941,14.891ZM77.4,17H74.426V7.49H77.4ZM74.25,5.029a1.334,1.334,0,0,1,.457-1.043,1.934,1.934,0,0,1,2.373,0,1.334,1.334,0,0,1,.457,1.043,1.334,1.334,0,0,1-.457,1.043,1.934,1.934,0,0,1-2.373,0A1.334,1.334,0,0,1,74.25,5.029Zm4.6,7.128A5.613,5.613,0,0,1,79.4,9.622a3.96,3.96,0,0,1,1.591-1.709,4.791,4.791,0,0,1,2.435-.6,4.373,4.373,0,0,1,3.366,1.323,5.076,5.076,0,0,1,1.23,3.6v.105a4.925,4.925,0,0,1-1.235,3.529,4.384,4.384,0,0,1-3.344,1.305,4.434,4.434,0,0,1-3.261-1.217,4.761,4.761,0,0,1-1.327-3.3Zm2.962.185a3.538,3.538,0,0,0,.413,1.934,1.376,1.376,0,0,0,1.222.615q1.582,0,1.617-2.435v-.3q0-2.558-1.635-2.558-1.485,0-1.608,2.206ZM83.83,3.5h3.129L84.516,6.26l-2.417,0Zm8.218,3.99.1,1.116A3.225,3.225,0,0,1,94.86,7.314,2.713,2.713,0,0,1,97.08,8.2a4.226,4.226,0,0,1,.76,2.672V17H94.869V11a1.6,1.6,0,0,0-.29-1.059A1.342,1.342,0,0,0,93.524,9.6a1.413,1.413,0,0,0-1.292.686V17H89.271V7.49Zm9.272,6.636a1.686,1.686,0,0,1,1.169.417,1.457,1.457,0,0,1,0,2.136,1.844,1.844,0,0,1-2.342,0,1.456,1.456,0,0,1,0-2.127A1.672,1.672,0,0,1,101.32,14.126Zm0-7.014a1.686,1.686,0,0,1,1.169.417,1.457,1.457,0,0,1,0,2.136,1.844,1.844,0,0,1-2.342,0,1.456,1.456,0,0,1,0-2.127A1.672,1.672,0,0,1,101.32,7.112ZM112.491,17h-2.971V7.49h2.971ZM109.345,5.029a1.334,1.334,0,0,1,.457-1.043,1.934,1.934,0,0,1,2.373,0,1.334,1.334,0,0,1,.457,1.043,1.334,1.334,0,0,1-.457,1.043,1.934,1.934,0,0,1-2.373,0A1.334,1.334,0,0,1,109.345,5.029Zm7.69,2.461.1,1.116a3.225,3.225,0,0,1,2.716-1.292,2.713,2.713,0,0,1,2.219.888,4.226,4.226,0,0,1,.76,2.672V17h-2.971V11a1.6,1.6,0,0,0-.29-1.059,1.342,1.342,0,0,0-1.055-.338,1.413,1.413,0,0,0-1.292.686V17h-2.962V7.49Zm12.41,6.838a.684.684,0,0,0-.4-.606,6.016,6.016,0,0,0-1.5-.475,6.853,6.853,0,0,1-1.828-.646,3.062,3.062,0,0,1-1.1-.971,2.319,2.319,0,0,1-.378-1.31,2.628,2.628,0,0,1,1.081-2.158,4.453,4.453,0,0,1,2.83-.848,4.934,4.934,0,0,1,3.023.853,2.666,2.666,0,0,1,1.143,2.241h-2.971q0-1.143-1.2-1.143a1.194,1.194,0,0,0-.782.259.8.8,0,0,0-.316.646.737.737,0,0,0,.387.642,3.654,3.654,0,0,0,1.235.4,10.671,10.671,0,0,1,1.49.378A2.706,2.706,0,0,1,132.3,14.24a2.491,2.491,0,0,1-1.156,2.118,5.068,5.068,0,0,1-2.993.817,5.172,5.172,0,0,1-2.18-.439,3.645,3.645,0,0,1-1.494-1.2,2.707,2.707,0,0,1-.536-1.591h2.769a1.145,1.145,0,0,0,.439.962,1.808,1.808,0,0,0,1.081.3,1.422,1.422,0,0,0,.91-.246A.787.787,0,0,0,129.445,14.328Zm9.905,1.644a3.054,3.054,0,0,1-2.54,1.2,3,3,0,0,1-2.369-.91,3.826,3.826,0,0,1-.8-2.615V7.49H136.6v6.179a1.065,1.065,0,0,0,1.187,1.222,1.548,1.548,0,0,0,1.45-.729V7.49h2.979V17h-2.777Zm7.286-8.481.1,1.116a3.27,3.27,0,0,1,2.716-1.292,2.407,2.407,0,0,1,2.435,1.433,3.165,3.165,0,0,1,2.795-1.433q2.892,0,2.971,3.5V17h-2.971V11a1.813,1.813,0,0,0-.246-1.063,1.048,1.048,0,0,0-.9-.334,1.4,1.4,0,0,0-1.31.782l.009.123V17h-2.971V11.015a1.906,1.906,0,0,0-.237-1.081,1.045,1.045,0,0,0-.905-.334,1.42,1.42,0,0,0-1.3.782V17h-2.962V7.49Zm12.331,4.667a5.613,5.613,0,0,1,.554-2.536,3.96,3.96,0,0,1,1.591-1.709,4.791,4.791,0,0,1,2.435-.6,4.373,4.373,0,0,1,3.366,1.323,5.076,5.076,0,0,1,1.23,3.6v.105a4.925,4.925,0,0,1-1.235,3.529,4.384,4.384,0,0,1-3.344,1.305,4.434,4.434,0,0,1-3.261-1.217,4.761,4.761,0,0,1-1.327-3.3Zm2.962.185a3.538,3.538,0,0,0,.413,1.934,1.376,1.376,0,0,0,1.222.615q1.582,0,1.617-2.435v-.3q0-2.558-1.635-2.558-1.485,0-1.608,2.206Z" transform="translate(925.518 1535.568)" fill="#fff"/>
  </g>
</svg>
