<svg xmlns="http://www.w3.org/2000/svg" xmlns:xlink="http://www.w3.org/1999/xlink" width="301.042" height="98.777" viewBox="0 0 301.042 98.777">
  <defs>
    <clipPath id="clip-path">
      <rect id="Rectángulo_11413" data-name="Rectángulo 11413" width="89.309" height="89.309" transform="translate(177.663 382.167)" fill="none"/>
    </clipPath>
  </defs>
  <g id="Grupo_90512" data-name="Grupo 90512" transform="translate(-476.549 -1496.705)">
    <path id="Trazado_161051" data-name="Trazado 161051" d="M468.938,454.147H199.374a5.033,5.033,0,0,1-5.033-5.033V407.669a5.033,5.033,0,0,1,5.033-5.033H468.938a5.033,5.033,0,0,1,5.033,5.033v41.445a5.033,5.033,0,0,1-5.033,5.033" transform="translate(303.62 1119.273)" fill="#5e43cf"/>
    <path id="Trazado_161052" data-name="Trazado 161052" d="M271.706,426.821a49.388,49.388,0,1,1-49.389-49.389,49.388,49.388,0,0,1,49.389,49.389" transform="translate(303.62 1119.273)" fill="#5e43cf"/>
    <g id="Grupo_90001" data-name="Grupo 90001" transform="translate(303.62 1119.273)" opacity="0.3">
      <g id="Grupo_90000" data-name="Grupo 90000">
        <g id="Grupo_89999" data-name="Grupo 89999" clip-path="url(#clip-path)">
          <path id="Trazado_161053" data-name="Trazado 161053" d="M264.5,440.2a44.249,44.249,0,1,1-28.8-55.555A44.249,44.249,0,0,1,264.5,440.2Z" fill="none" stroke="#fff" stroke-miterlimit="10" stroke-width="0.786"/>
        </g>
      </g>
    </g>
    <path id="Trazado_161054" data-name="Trazado 161054" d="M227.843,397.9c1.073.165,2.154.29,3.217.505a20.909,20.909,0,0,1,6.243,2.381,27.076,27.076,0,0,1,6.522,4.892,16.394,16.394,0,0,1,4.123,8.807,28.724,28.724,0,0,1,.392,6.746,15.928,15.928,0,0,1-3.347,8.368,43.9,43.9,0,0,0-2.761,4.052,15.011,15.011,0,0,0-1.829,9.093,25.084,25.084,0,0,0,2.053,8.338c.331.709.821,1.344,1.224,2.022a11.982,11.982,0,0,1,.669,1.236.95.95,0,0,1-.811,1.394,4.1,4.1,0,0,1-.508.01H219.591c-1.012,0-1.2-.13-1.491-1.089a13.713,13.713,0,0,0-2.794-5.416c-.064-.069-.128-.138-.191-.208a1.35,1.35,0,0,0-1.629-.372c-2.21.732-4.47,1.313-6.687,2.025-2.169.7-4.545-.241-5.034-3.266a8.455,8.455,0,0,1,.06-2.509c.171-1.178.166-1.315-.824-1.937-1.287-.808-1.353-.99-1-2.484a.574.574,0,0,0-.176-.456c-1.29-1.161-1.344-1.436-.533-2.97.848-1.6.823-1.684-.72-2.567-.376-.214-.755-.425-1.111-.669a2.253,2.253,0,0,1-.71-3.446c.9-1.364,1.926-2.65,2.8-4.031.792-1.254,1.448-2.592,2.172-3.888a.722.722,0,0,0-.181-1c-.24-.212-.458-.447-.694-.663a2.847,2.847,0,0,1-.857-3.557,55.084,55.084,0,0,0,2.123-6.351,16.44,16.44,0,0,1,5.681-8.36,18.066,18.066,0,0,1,7.041-3.038,63.221,63.221,0,0,1,9.636-1.495,3.056,3.056,0,0,0,.435-.1Zm-26,43.295a1.118,1.118,0,0,0,.154.12,3.251,3.251,0,0,1,1.729,3.975,5.538,5.538,0,0,0,.064,2.211,1.669,1.669,0,0,0,2.271,1.373,119.668,119.668,0,0,0,12.025-3.832,23.809,23.809,0,0,0,3.143-1.37,2.94,2.94,0,0,0,1.746-2.4.906.906,0,0,1,1.071-.889.986.986,0,0,1,.813,1.107,4.265,4.265,0,0,1-1.7,3.179,12.211,12.211,0,0,1-3.935,2.036c-.9.307-1.788.623-2.728.95.15.2.245.335.352.463a14.766,14.766,0,0,1,2.85,5.209.612.612,0,0,0,.71.5q10.42-.02,20.84-.011c.158,0,.315-.021.49-.033-.345-.615-.7-1.167-.976-1.756a27.373,27.373,0,0,1-2.269-9.037A16.9,16.9,0,0,1,240.5,432.8a41.3,41.3,0,0,1,2.936-4.34,13.922,13.922,0,0,0,3.011-9.522c-.093-1.424-.221-2.852-.437-4.262a14.071,14.071,0,0,0-3.829-7.948,25.382,25.382,0,0,0-5.272-3.949,19.755,19.755,0,0,0-10.457-2.932,53.3,53.3,0,0,0-11.106,1.5,16.02,16.02,0,0,0-6.389,2.71,14.832,14.832,0,0,0-5.269,8.268,36,36,0,0,1-1.868,5.486c-.345.775-.291.934.323,1.535.121.118.243.235.37.348a2.839,2.839,0,0,1,.767,3.952,44.3,44.3,0,0,1-4.618,7.344c-.2.263-.365.552-.607.92.687.41,1.3.795,1.937,1.152a2.942,2.942,0,0,1,1.3,4.331l-.473.921c1.7,1.486,1.7,1.486,1.016,2.874" transform="translate(303.62 1119.273)" fill="#fff"/>
    <path id="Trazado_161055" data-name="Trazado 161055" d="M234.99,426.63c-.711.284-1.331.507-1.925.786a.681.681,0,0,0-.315.484c-.043.524-.011,1.053-.024,1.58a.926.926,0,0,1-.833.978,13.159,13.159,0,0,1-4.716,0,.928.928,0,0,1-.833-.979c-.014-.527.019-1.056-.024-1.58a.686.686,0,0,0-.317-.484c-.594-.279-1.214-.5-1.94-.792-.365.391-.762.841-1.187,1.265a1.013,1.013,0,0,1-1.549.11,13.665,13.665,0,0,1-3.1-3.1,1,1,0,0,1,.088-1.506c.414-.437,1.071-.81,1.187-1.311.107-.462-.412-1.044-.565-1.6a.682.682,0,0,0-.845-.572,9.877,9.877,0,0,1-1.3,0,1,1,0,0,1-1.036-.921,13.735,13.735,0,0,1,0-4.608.977.977,0,0,1,1-.886c.508-.02,1.018-.024,1.525,0,.313.016.491-.072.569-.39a5.132,5.132,0,0,1,.269-.741c.455-1.085.456-1.084-.391-1.932-.12-.12-.241-.238-.359-.36a1.048,1.048,0,0,1-.106-1.636,13.908,13.908,0,0,1,3.026-3.019,1.04,1.04,0,0,1,1.6.105c.406.392.757,1.014,1.225,1.118s1.017-.364,1.55-.512c.513-.142.745-.389.678-.945a8.4,8.4,0,0,1,0-1.3.911.911,0,0,1,.806-.944,13.349,13.349,0,0,1,4.771,0,.907.907,0,0,1,.8.946c.013.527.021,1.055,0,1.581a.474.474,0,0,0,.357.543c.512.182,1,.43,1.518.6a.7.7,0,0,0,.568-.1c.387-.326.72-.716,1.09-1.064a.99.99,0,0,1,1.422-.093,13.557,13.557,0,0,1,3.215,3.224.96.96,0,0,1-.089,1.377c-.429.469-1.125.871-1.239,1.4-.107.5.423,1.119.616,1.7a.549.549,0,0,0,.656.436,14.666,14.666,0,0,1,1.468,0,.979.979,0,0,1,1,.887,14.172,14.172,0,0,1,0,4.609,1.011,1.011,0,0,1-.983.918c-.038,0-.076,0-.113.005-.631.032-1.417-.152-1.848.158s-.55,1.112-.765,1.712a.618.618,0,0,0,.086.518c.33.385.713.723,1.064,1.091a.982.982,0,0,1,.115,1.46,13.5,13.5,0,0,1-3.178,3.182.986.986,0,0,1-1.463-.11c-.43-.42-.834-.867-1.243-1.295m-14.866-17.462c.433.409.854.785,1.251,1.185a1.079,1.079,0,0,1,.22,1.426c-.407.9-.793,1.818-1.142,2.746-.248.657-.487.879-1.19.886-.558.006-1.117,0-1.713,0v2.576c.611,0,1.153-.005,1.695,0,.74.008.969.225,1.222.918.327.9.689,1.781,1.089,2.646.309.669.312,1-.208,1.517-.4.392-.825.752-1.283,1.166l1.857,1.944c.473-.5.827-.882,1.2-1.253.576-.576.883-.579,1.6-.234a25.812,25.812,0,0,0,2.536,1.063c.787.28,1,.492,1.006,1.332,0,.518,0,1.036,0,1.593h2.541c0-.6-.009-1.144,0-1.687.014-.732.243-.964.932-1.217.895-.329,1.779-.7,2.642-1.1a1.1,1.1,0,0,1,1.556.238c.382.382.747.78,1.133,1.185.4-.358.731-.634,1.035-.938.277-.276.524-.582.848-.948-.432-.4-.858-.772-1.256-1.171a1.076,1.076,0,0,1-.222-1.426c.413-.922.808-1.853,1.16-2.8a1.07,1.07,0,0,1,1.116-.831c.578.012,1.155,0,1.771,0v-2.576c-.609,0-1.151,0-1.693,0a1.068,1.068,0,0,1-1.2-.869c-.351-.927-.734-1.843-1.142-2.746a1.073,1.073,0,0,1,.2-1.428c.4-.409.832-.794,1.291-1.228-.641-.677-1.2-1.272-1.825-1.931-.478.5-.83.893-1.2,1.264-.578.577-.871.576-1.6.221a23.3,23.3,0,0,0-2.485-1.043c-.852-.3-1.05-.492-1.054-1.408,0-.5,0-1,0-1.528h-2.54c0,.6.009,1.137,0,1.679-.015.738-.248.979-.924,1.226-.9.327-1.781.691-2.643,1.1-.7.327-1,.326-1.558-.231-.382-.382-.743-.784-1.131-1.2-.391.351-.71.613-1,.9s-.556.61-.882.973" transform="translate(303.62 1119.273)" fill="#fff"/>
    <path id="Trazado_161058" data-name="Trazado 161058" d="M235.794,416.691a6.257,6.257,0,1,1-6.292-6.254,6.274,6.274,0,0,1,6.292,6.254m-10.579.03a4.32,4.32,0,1,0,4.328-4.358,4.354,4.354,0,0,0-4.328,4.358" transform="translate(303.62 1119.273)" fill="#fff"/>
    <path id="Trazado_162829" data-name="Trazado 162829" d="M.967,17V4.2h4.6a6.509,6.509,0,0,1,3.757.905,3.012,3.012,0,0,1,1.288,2.628,3.045,3.045,0,0,1-.457,1.7A2.663,2.663,0,0,1,8.807,10.47a2.7,2.7,0,0,1,1.538.984,2.862,2.862,0,0,1,.536,1.758A3.388,3.388,0,0,1,9.69,16.038,5.667,5.667,0,0,1,6.161,17Zm3.085-5.44v3.067H6.073a1.923,1.923,0,0,0,1.283-.382A1.338,1.338,0,0,0,7.8,13.168,1.419,1.419,0,0,0,6.214,11.56Zm0-2.021H5.66A2.285,2.285,0,0,0,7.1,9.168,1.314,1.314,0,0,0,7.532,8.1a1.379,1.379,0,0,0-.466-1.168,2.493,2.493,0,0,0-1.5-.357H4.052ZM17.8,17a3.344,3.344,0,0,1-.281-.853,2.754,2.754,0,0,1-2.285,1.028,3.374,3.374,0,0,1-2.285-.813,2.588,2.588,0,0,1-.94-2.043,2.66,2.66,0,0,1,1.143-2.338,5.821,5.821,0,0,1,3.322-.791h.914v-.5q0-1.316-1.134-1.316A.927.927,0,0,0,15.2,10.413H12.234a2.655,2.655,0,0,1,1.173-2.239,4.931,4.931,0,0,1,2.993-.86,4.323,4.323,0,0,1,2.874.888,3.086,3.086,0,0,1,1.081,2.435v4.21a4.311,4.311,0,0,0,.4,2V17Zm-1.854-1.934a1.652,1.652,0,0,0,.918-.237,1.487,1.487,0,0,0,.523-.536V12.772h-.861q-1.547,0-1.547,1.389a.848.848,0,0,0,.272.655A.986.986,0,0,0,15.943,15.066Zm11.03-.738a.684.684,0,0,0-.4-.606,6.016,6.016,0,0,0-1.5-.475,6.853,6.853,0,0,1-1.828-.646,3.062,3.062,0,0,1-1.1-.971,2.319,2.319,0,0,1-.378-1.31,2.628,2.628,0,0,1,1.081-2.158,4.453,4.453,0,0,1,2.83-.848,4.934,4.934,0,0,1,3.023.853,2.666,2.666,0,0,1,1.143,2.241H26.877q0-1.143-1.2-1.143a1.194,1.194,0,0,0-.782.259.8.8,0,0,0-.316.646.737.737,0,0,0,.387.642,3.654,3.654,0,0,0,1.235.4,10.671,10.671,0,0,1,1.49.378A2.706,2.706,0,0,1,29.83,14.24a2.491,2.491,0,0,1-1.156,2.118,5.068,5.068,0,0,1-2.993.817,5.172,5.172,0,0,1-2.18-.439,3.645,3.645,0,0,1-1.494-1.2,2.707,2.707,0,0,1-.536-1.591H24.24a1.145,1.145,0,0,0,.439.962,1.808,1.808,0,0,0,1.081.3,1.422,1.422,0,0,0,.91-.246A.787.787,0,0,0,26.974,14.328Zm8.842,2.848a4.889,4.889,0,0,1-3.542-1.305,4.507,4.507,0,0,1-1.354-3.4v-.246a5.84,5.84,0,0,1,.541-2.575,3.955,3.955,0,0,1,1.578-1.727A4.763,4.763,0,0,1,35.5,7.314a4.117,4.117,0,0,1,3.164,1.244,4.887,4.887,0,0,1,1.16,3.467v1.151H33.935a2.135,2.135,0,0,0,.694,1.257,2.066,2.066,0,0,0,1.389.457,2.662,2.662,0,0,0,2.2-.984l1.354,1.6A3.784,3.784,0,0,1,38,16.723,5.3,5.3,0,0,1,35.815,17.176ZM35.481,9.6q-1.3,0-1.547,1.723h2.988v-.229a1.467,1.467,0,0,0-.36-1.1A1.434,1.434,0,0,0,35.481,9.6Zm9.642,2.575a5.809,5.809,0,0,1,.976-3.56,3.211,3.211,0,0,1,2.725-1.3,2.731,2.731,0,0,1,2.145,1V3.5h2.971V17H51.275l-.149-1.02a2.8,2.8,0,0,1-2.32,1.2,3.205,3.205,0,0,1-2.689-1.3A5.993,5.993,0,0,1,45.123,12.175Zm2.962.185q0,2.531,1.477,2.531a1.458,1.458,0,0,0,1.406-.826V10.443A1.419,1.419,0,0,0,49.579,9.6q-1.371,0-1.485,2.215Zm12.138,4.816a4.889,4.889,0,0,1-3.542-1.305,4.507,4.507,0,0,1-1.354-3.4v-.246a5.84,5.84,0,0,1,.541-2.575,3.955,3.955,0,0,1,1.578-1.727,4.763,4.763,0,0,1,2.461-.611A4.117,4.117,0,0,1,63.07,8.558a4.887,4.887,0,0,1,1.16,3.467v1.151H58.342a2.135,2.135,0,0,0,.694,1.257,2.066,2.066,0,0,0,1.389.457,2.662,2.662,0,0,0,2.2-.984l1.354,1.6a3.784,3.784,0,0,1-1.569,1.217A5.3,5.3,0,0,1,60.223,17.176ZM59.889,9.6q-1.3,0-1.547,1.723H61.33v-.229a1.467,1.467,0,0,0-.36-1.1A1.434,1.434,0,0,0,59.889,9.6Zm14.036,5.291a1.317,1.317,0,0,0,.967-.338,1.241,1.241,0,0,0,.334-.945H78a3.288,3.288,0,0,1-1.121,2.566,4.168,4.168,0,0,1-2.887,1,4.22,4.22,0,0,1-3.27-1.3,5.125,5.125,0,0,1-1.2-3.6v-.123A5.792,5.792,0,0,1,70.062,9.6a3.872,3.872,0,0,1,1.534-1.7,4.573,4.573,0,0,1,2.373-.593,4.116,4.116,0,0,1,2.944,1.028A3.647,3.647,0,0,1,78,11.129H75.226A1.626,1.626,0,0,0,74.865,10a1.244,1.244,0,0,0-.967-.4q-1.151,0-1.345,1.468a10.357,10.357,0,0,0-.062,1.283,4.068,4.068,0,0,0,.343,1.986A1.187,1.187,0,0,0,73.925,14.891Zm4.957-2.733a5.613,5.613,0,0,1,.554-2.536,3.96,3.96,0,0,1,1.591-1.709,4.791,4.791,0,0,1,2.435-.6,4.373,4.373,0,0,1,3.366,1.323,5.076,5.076,0,0,1,1.23,3.6v.105a4.925,4.925,0,0,1-1.235,3.529,4.384,4.384,0,0,1-3.344,1.305,4.434,4.434,0,0,1-3.261-1.217,4.761,4.761,0,0,1-1.327-3.3Zm2.962.185a3.538,3.538,0,0,0,.413,1.934,1.376,1.376,0,0,0,1.222.615q1.582,0,1.617-2.435v-.3Q85.1,9.6,83.461,9.6q-1.485,0-1.608,2.206ZM92.083,7.49l.1,1.116A3.225,3.225,0,0,1,94.9,7.314a2.713,2.713,0,0,1,2.219.888,4.226,4.226,0,0,1,.76,2.672V17H94.9V11a1.6,1.6,0,0,0-.29-1.059A1.342,1.342,0,0,0,93.56,9.6a1.413,1.413,0,0,0-1.292.686V17H89.306V7.49Zm7.058,4.667a5.613,5.613,0,0,1,.554-2.536,3.96,3.96,0,0,1,1.591-1.709,4.791,4.791,0,0,1,2.435-.6,4.373,4.373,0,0,1,3.366,1.323,5.076,5.076,0,0,1,1.23,3.6v.105a4.925,4.925,0,0,1-1.235,3.529,4.384,4.384,0,0,1-3.344,1.305,4.434,4.434,0,0,1-3.261-1.217,4.761,4.761,0,0,1-1.327-3.3Zm2.962.185a3.538,3.538,0,0,0,.413,1.934,1.376,1.376,0,0,0,1.222.615q1.582,0,1.617-2.435v-.3q0-2.558-1.635-2.558-1.485,0-1.608,2.206Zm11.54,2.549a1.317,1.317,0,0,0,.967-.338,1.241,1.241,0,0,0,.334-.945h2.777a3.288,3.288,0,0,1-1.121,2.566,4.168,4.168,0,0,1-2.887,1,4.22,4.22,0,0,1-3.27-1.3,5.125,5.125,0,0,1-1.2-3.6v-.123A5.792,5.792,0,0,1,109.78,9.6a3.872,3.872,0,0,1,1.534-1.7,4.573,4.573,0,0,1,2.373-.593,4.116,4.116,0,0,1,2.944,1.028,3.647,3.647,0,0,1,1.09,2.786h-2.777a1.626,1.626,0,0,0-.36-1.134,1.244,1.244,0,0,0-.967-.4q-1.151,0-1.345,1.468a10.357,10.357,0,0,0-.062,1.283,4.068,4.068,0,0,0,.343,1.986A1.187,1.187,0,0,0,113.643,14.891ZM122.1,17h-2.971V7.49H122.1ZM118.951,5.029a1.334,1.334,0,0,1,.457-1.043,1.934,1.934,0,0,1,2.373,0,1.334,1.334,0,0,1,.457,1.043,1.334,1.334,0,0,1-.457,1.043,1.934,1.934,0,0,1-2.373,0A1.334,1.334,0,0,1,118.951,5.029Zm7.77,2.461.1,1.116a3.27,3.27,0,0,1,2.716-1.292,2.407,2.407,0,0,1,2.435,1.433,3.165,3.165,0,0,1,2.795-1.433q2.892,0,2.971,3.5V17h-2.971V11a1.813,1.813,0,0,0-.246-1.063,1.048,1.048,0,0,0-.9-.334,1.4,1.4,0,0,0-1.31.782l.009.123V17h-2.971V11.015a1.906,1.906,0,0,0-.237-1.081,1.045,1.045,0,0,0-.905-.334,1.42,1.42,0,0,0-1.3.782V17h-2.962V7.49ZM142.55,17h-2.971V7.49h2.971ZM139.4,5.029a1.334,1.334,0,0,1,.457-1.043,1.934,1.934,0,0,1,2.373,0,1.334,1.334,0,0,1,.457,1.043,1.334,1.334,0,0,1-.457,1.043,1.934,1.934,0,0,1-2.373,0A1.334,1.334,0,0,1,139.4,5.029Zm9.571,12.146a4.889,4.889,0,0,1-3.542-1.305,4.507,4.507,0,0,1-1.354-3.4v-.246a5.84,5.84,0,0,1,.541-2.575A3.955,3.955,0,0,1,146.2,7.925a4.763,4.763,0,0,1,2.461-.611,4.117,4.117,0,0,1,3.164,1.244,4.887,4.887,0,0,1,1.16,3.467v1.151h-5.889a2.135,2.135,0,0,0,.694,1.257,2.066,2.066,0,0,0,1.389.457,2.662,2.662,0,0,0,2.2-.984l1.354,1.6a3.784,3.784,0,0,1-1.569,1.217A5.3,5.3,0,0,1,148.975,17.176ZM148.641,9.6q-1.3,0-1.547,1.723h2.988v-.229a1.467,1.467,0,0,0-.36-1.1A1.434,1.434,0,0,0,148.641,9.6Zm8.253-2.109.1,1.116a3.225,3.225,0,0,1,2.716-1.292,2.713,2.713,0,0,1,2.219.888,4.226,4.226,0,0,1,.76,2.672V17h-2.971V11a1.6,1.6,0,0,0-.29-1.059A1.342,1.342,0,0,0,158.37,9.6a1.413,1.413,0,0,0-1.292.686V17h-2.962V7.49Zm10.881-2.364V7.49h1.564V9.547h-1.564V13.9a1.111,1.111,0,0,0,.193.747,1.037,1.037,0,0,0,.765.211,4.345,4.345,0,0,0,.738-.053v2.118a5.466,5.466,0,0,1-1.67.255,3.1,3.1,0,0,1-2.259-.721,2.954,2.954,0,0,1-.729-2.188V9.547H163.6V7.49h1.213V5.126Zm2.092,7.031a5.613,5.613,0,0,1,.554-2.536,3.96,3.96,0,0,1,1.591-1.709,4.791,4.791,0,0,1,2.435-.6,4.373,4.373,0,0,1,3.366,1.323,5.076,5.076,0,0,1,1.23,3.6v.105a4.925,4.925,0,0,1-1.235,3.529,4.384,4.384,0,0,1-3.344,1.305,4.434,4.434,0,0,1-3.261-1.217,4.761,4.761,0,0,1-1.327-3.3Zm2.962.185a3.538,3.538,0,0,0,.413,1.934,1.376,1.376,0,0,0,1.222.615q1.582,0,1.617-2.435v-.3q0-2.558-1.635-2.558-1.485,0-1.608,2.206Z" transform="translate(587.87 1535.568)" fill="#fff"/>
  </g>
</svg>
