<svg id="Grupo_90062" data-name="Grupo 90062" xmlns="http://www.w3.org/2000/svg" xmlns:xlink="http://www.w3.org/1999/xlink" width="230" height="167.243" viewBox="0 0 230 167.243">
  <defs>
    <clipPath id="clip-path">
      <rect id="Rectángulo_11438" data-name="Rectángulo 11438" width="230" height="167.243" fill="none"/>
    </clipPath>
    <clipPath id="clip-path-3">
      <rect id="Rectángulo_11420" data-name="Rectángulo 11420" width="229.845" height="133.544" fill="none"/>
    </clipPath>
    <clipPath id="clip-path-4">
      <path id="Trazado_161082" data-name="Trazado 161082" d="M6.781,78.491l84.241,48.634,123.727-71.9L130.508,6.586Z" transform="translate(-6.781 -6.586)" fill="none"/>
    </clipPath>
    <linearGradient id="linear-gradient" x1="0.014" y1="0.955" x2="0.022" y2="0.955" gradientUnits="objectBoundingBox">
      <stop offset="0" stop-color="#1a6bb2"/>
      <stop offset="1" stop-color="#1b4b92"/>
    </linearGradient>
    <clipPath id="clip-path-6">
      <rect id="Rectángulo_11423" data-name="Rectángulo 11423" width="30.542" height="17.782" fill="none"/>
    </clipPath>
    <clipPath id="clip-path-7">
      <rect id="Rectángulo_11424" data-name="Rectángulo 11424" width="29.771" height="17.197" fill="none"/>
    </clipPath>
    <clipPath id="clip-path-8">
      <path id="Trazado_161085" data-name="Trazado 161085" d="M51.244,104.151l-.03,11.224,123.727-71.9.03-11.224Z" transform="translate(-51.214 -32.249)" fill="none"/>
    </clipPath>
    <linearGradient id="linear-gradient-2" x1="-0.784" y1="1.277" x2="-0.769" y2="1.277" gradientUnits="objectBoundingBox">
      <stop offset="0" stop-color="#1b4b92"/>
      <stop offset="1" stop-color="#1a5cb2"/>
    </linearGradient>
    <clipPath id="clip-path-9">
      <path id="Trazado_161087" data-name="Trazado 161087" d="M87.88,37.623c0-.91.008-1.819.008-2.729q0,1.365-.008,2.729" transform="translate(-87.88 -34.894)" fill="none"/>
    </clipPath>
    <clipPath id="clip-path-11">
      <rect id="Rectángulo_11427" data-name="Rectángulo 11427" width="61.749" height="43.422" fill="none"/>
    </clipPath>
    <clipPath id="clip-path-12">
      <rect id="Rectángulo_11430" data-name="Rectángulo 11430" width="2.625" height="7.689" fill="none"/>
    </clipPath>
    <clipPath id="clip-path-14">
      <path id="Trazado_161094" data-name="Trazado 161094" d="M36.2,47.266l.013-4.044c0,1.317.868,2.638,2.612,3.646l-.013,4.043C37.069,49.9,36.2,48.584,36.2,47.266" transform="translate(-36.199 -43.222)" fill="none"/>
    </clipPath>
    <clipPath id="clip-path-16">
      <rect id="Rectángulo_11431" data-name="Rectángulo 11431" width="24.024" height="13.916" fill="none"/>
    </clipPath>
    <clipPath id="clip-path-18">
      <rect id="Rectángulo_11433" data-name="Rectángulo 11433" width="0.057" height="1.806" fill="none"/>
    </clipPath>
    <clipPath id="clip-path-19">
      <rect id="Rectángulo_11434" data-name="Rectángulo 11434" width="0.009" height="0.28" fill="none"/>
    </clipPath>
    <clipPath id="clip-path-20">
      <rect id="Rectángulo_11435" data-name="Rectángulo 11435" width="29.584" height="60.606" fill="none"/>
    </clipPath>
    <clipPath id="clip-path-21">
      <rect id="Rectángulo_11436" data-name="Rectángulo 11436" width="62.556" height="41.533" fill="none"/>
    </clipPath>
  </defs>
  <g id="Grupo_90061" data-name="Grupo 90061" clip-path="url(#clip-path)">
    <g id="Grupo_90014" data-name="Grupo 90014" transform="translate(0 0)">
      <g id="Grupo_90013" data-name="Grupo 90013" clip-path="url(#clip-path)">
        <g id="Grupo_90012" data-name="Grupo 90012" transform="translate(0.092 33.699)" opacity="0.1">
          <g id="Grupo_90011" data-name="Grupo 90011">
            <g id="Grupo_90010" data-name="Grupo 90010" clip-path="url(#clip-path-3)">
              <path id="Trazado_161077" data-name="Trazado 161077" d="M227.348,60.6c3.379,1.935,3.4,5.091.049,7.048l-6.66,3.9L97.227,143.821l-10.3,6.027a13.389,13.389,0,0,1-12.156.036L2.6,108.505c-3.377-1.939-3.406-5.085-.059-7.041l140.469-82.2a13.4,13.4,0,0,1,12.169-.044Z" transform="translate(-0.049 -17.78)"/>
            </g>
          </g>
        </g>
        <path id="Trazado_161078" data-name="Trazado 161078" d="M125.706,28.354a2.978,2.978,0,0,1-.148.885l-.027.095a3.689,3.689,0,0,1-.413.805c-.032.045-.059.089-.089.135a5.155,5.155,0,0,1-.688.756,6.574,6.574,0,0,1-.608.449c-.178.127-.33.262-.531.379l-6.675,3.88L116.5,46.96l6.671-3.876.106-.063c.159-.1.273-.207.415-.307a6.342,6.342,0,0,0,.62-.461c.017-.015.04-.027.057-.042a4.731,4.731,0,0,0,.536-.576c.036-.044.061-.093.091-.136s.063-.091.093-.136c.053-.081.118-.161.163-.243a3.822,3.822,0,0,0,.231-.489.518.518,0,0,0,.019-.078c.011-.028.017-.057.027-.087a2.233,2.233,0,0,0,.091-.318,2.906,2.906,0,0,0,.057-.495v-.066l0-.009q.014-4.893.027-9.785l0-1.365Z" transform="translate(104.292 25.383)" fill="#a9d6ea"/>
        <path id="Trazado_161079" data-name="Trazado 161079" d="M2.57,53.081C.876,52.1.028,50.818.03,49.533L0,60.758c-.006,1.283.843,2.566,2.542,3.546L74.585,105.9l.032-11.224Z" transform="translate(0 44.343)" fill="#95c4de"/>
        <path id="Trazado_161080" data-name="Trazado 161080" d="M51.544,76.184a9.712,9.712,0,0,1-1.694.745c-.214.076-.432.138-.654.2-.279.078-.561.152-.851.212-.349.07-.7.136-1.054.182-.085.009-.165.025-.246.034-.483.051-.97.078-1.457.082h-.208c-.483,0-.965-.03-1.442-.08l-.2-.023a13.388,13.388,0,0,1-1.395-.239c-.076-.017-.152-.038-.233-.059a11.351,11.351,0,0,1-1.211-.368c-.063-.023-.133-.042-.2-.064a9.77,9.77,0,0,1-1.315-.624l-.032,11.224A9.418,9.418,0,0,0,40.6,88a.725.725,0,0,0,.068.027c.066.025.135.044.2.066.256.093.51.186.775.263.14.042.284.07.43.106.08.021.159.04.239.059s.15.038.227.055c.28.057.567.108.851.146.1.013.2.023.3.034.076.008.152.017.227.027.1.009.2.027.309.034.28.025.561.04.845.046.089,0,.176,0,.263,0s.154,0,.231,0c.129,0,.254,0,.383,0,.318-.009.635-.034.953-.063a1.091,1.091,0,0,1,.11-.015c.083-.011.167-.027.248-.036.248-.03.495-.059.735-.1.106-.017.2-.055.311-.076.294-.063.576-.135.86-.214.15-.042.309-.066.457-.112.068-.025.125-.064.2-.089a9.573,9.573,0,0,0,1.694-.745l10.318-5.995.03-11.225Z" transform="translate(35.231 62.833)" fill="#a9d6ea"/>
        <path id="Trazado_161081" data-name="Trazado 161081" d="M227.448,46.82c3.374,1.946,3.383,5.1.032,7.048l-6.673,3.878-123.729,71.9-10.318,6a13.375,13.375,0,0,1-12.158,0L2.555,94.051c-3.37-1.95-3.389-5.094-.038-7.043L143.235,5.231A13.4,13.4,0,0,1,155.4,5.226Z" transform="translate(0.015 3.373)" fill="#def6ff"/>
      </g>
    </g>
    <g id="Grupo_90016" data-name="Grupo 90016" transform="translate(12.852 12.482)">
      <g id="Grupo_90015" data-name="Grupo 90015" clip-path="url(#clip-path-4)">
        <rect id="Rectángulo_11422" data-name="Rectángulo 11422" width="240.365" height="207.491" transform="matrix(0.87, -0.494, 0.494, 0.87, -51.748, 29.374)" fill="url(#linear-gradient)"/>
      </g>
    </g>
    <g id="Grupo_90024" data-name="Grupo 90024" transform="translate(0 0)">
      <g id="Grupo_90023" data-name="Grupo 90023" clip-path="url(#clip-path)">
        <g id="Grupo_90019" data-name="Grupo 90019" transform="translate(169.568 25.214)">
          <g id="Grupo_90018" data-name="Grupo 90018">
            <g id="Grupo_90017" data-name="Grupo 90017" clip-path="url(#clip-path-6)">
              <path id="Trazado_161083" data-name="Trazado 161083" d="M119.374,28.228c.9.521.923,1.586-.4,2.274a3.211,3.211,0,0,1-2.981.334L89.8,15.962c-.9-.521.263-1.749,1.16-2.27a3.589,3.589,0,0,1,3.241,0Z" transform="translate(-89.47 -13.303)" fill="#75b2cc"/>
            </g>
          </g>
        </g>
        <g id="Grupo_90022" data-name="Grupo 90022" transform="translate(169.588 25.89)">
          <g id="Grupo_90021" data-name="Grupo 90021">
            <g id="Grupo_90020" data-name="Grupo 90020" clip-path="url(#clip-path-7)">
              <path id="Trazado_161084" data-name="Trazado 161084" d="M118.573,28.584a1,1,0,0,1,.023,1.886,3.617,3.617,0,0,1-3.266,0L90.156,15.931a1,1,0,0,1,0-1.884,3.6,3.6,0,0,1,3.241,0Z" transform="translate(-89.482 -13.66)" fill="#a9d6ea"/>
            </g>
          </g>
        </g>
      </g>
    </g>
    <g id="Grupo_90026" data-name="Grupo 90026" transform="translate(97.063 61.12)">
      <g id="Grupo_90025" data-name="Grupo 90025" clip-path="url(#clip-path-8)">
        <rect id="Rectángulo_11426" data-name="Rectángulo 11426" width="123.757" height="83.125" fill="url(#linear-gradient-2)"/>
      </g>
    </g>
    <g id="Grupo_90028" data-name="Grupo 90028" transform="translate(166.553 66.132)">
      <g id="Grupo_90027" data-name="Grupo 90027" clip-path="url(#clip-path-9)">
        <path id="Trazado_161086" data-name="Trazado 161086" d="M88.758,34.7l-.009,3.091a4.478,4.478,0,0,0-.845.371.614.614,0,0,0-.053.034l.009-3.093c.017-.011.038-.021.057-.032a4.287,4.287,0,0,1,.841-.371" transform="translate(-87.907 -35.069)" fill="#b8387b"/>
      </g>
    </g>
    <g id="Grupo_90060" data-name="Grupo 90060" transform="translate(0 0)">
      <g id="Grupo_90059" data-name="Grupo 90059" clip-path="url(#clip-path)">
        <g id="Grupo_90031" data-name="Grupo 90031" transform="translate(69.08 82.022)" opacity="0.1">
          <g id="Grupo_90030" data-name="Grupo 90030">
            <g id="Grupo_90029" data-name="Grupo 90029" clip-path="url(#clip-path-11)">
              <path id="Trazado_161088" data-name="Trazado 161088" d="M95.593,61.343c3.466,2,3.468,5.248.04,7.24l-6.484,3.768-8.891,5.166L64.464,86.7,59.256,72.609,39.062,60.951c-3.468-2-3.485-5.24-.04-7.24L54.4,44.775a13.793,13.793,0,0,1,12.5,0ZM81.783,70.052l2.344-1.365L53.434,50.967l-2.344,1.365Zm6.23-3.624,2.344-1.363L59.663,47.345,57.319,48.71Zm-12.459,7.24L77.9,72.306,47.2,54.587,44.86,55.95Z" transform="translate(-36.449 -43.278)"/>
            </g>
          </g>
        </g>
        <path id="Trazado_161089" data-name="Trazado 161089" d="M49.564,37.966l-.006,4.044-2.346,1.363.008-4.044Z" transform="translate(42.266 33.988)" fill="#c5c5c5"/>
        <path id="Trazado_161090" data-name="Trazado 161090" d="M46.279,39.877l-.009,4.044-2.344,1.363.009-4.043Z" transform="translate(39.323 35.699)" fill="#c5c5c5"/>
        <path id="Trazado_161091" data-name="Trazado 161091" d="M42.993,41.787l-.011,4.044-2.344,1.363.009-4.044Z" transform="translate(36.38 37.409)" fill="#c5c5c5"/>
        <g id="Grupo_90040" data-name="Grupo 90040" transform="translate(68.606 81.915)">
          <g id="Grupo_90039" data-name="Grupo 90039" clip-path="url(#clip-path-12)">
            <g id="Grupo_90038" data-name="Grupo 90038">
              <g id="Grupo_90037" data-name="Grupo 90037" clip-path="url(#clip-path-12)">
                <path id="Trazado_161092" data-name="Trazado 161092" d="M36.2,47.267l.013-4.046c0,1.319.866,2.64,2.612,3.648l-.013,4.043C37.069,49.9,36.2,48.585,36.2,47.267" transform="translate(-36.2 -43.222)" fill="#95c4de"/>
                <g id="Grupo_90036" data-name="Grupo 90036" transform="translate(-0.001 0.001)">
                  <g id="Grupo_90035" data-name="Grupo 90035" clip-path="url(#clip-path-14)">
                    <g id="Grupo_90034" data-name="Grupo 90034" transform="translate(0.001 -0.001)" style="isolation: isolate">
                      <g id="Grupo_90033" data-name="Grupo 90033">
                        <g id="Grupo_90032" data-name="Grupo 90032" clip-path="url(#clip-path-12)">
                          <path id="Trazado_161093" data-name="Trazado 161093" d="M38.824,46.868l-.013,4.043C37.069,49.9,36.2,48.584,36.2,47.266l.013-4.044c0,1.317.868,2.638,2.612,3.646" transform="translate(-36.2 -43.221)" fill="#95c4de"/>
                        </g>
                      </g>
                    </g>
                  </g>
                </g>
              </g>
            </g>
          </g>
        </g>
        <path id="Trazado_161095" data-name="Trazado 161095" d="M79.151,55.687l-.013,4.044L48.45,42.011l.006-4.044Z" transform="translate(43.374 33.988)" fill="#898989"/>
        <path id="Trazado_161096" data-name="Trazado 161096" d="M80.256,55.687l-2.344,1.363-30.7-17.72,2.344-1.363Z" transform="translate(42.27 33.988)" fill="#3fbad4"/>
        <path id="Trazado_161097" data-name="Trazado 161097" d="M65.763,47.316l-.013,4.044-2.344,1.363.013-4.044Z" transform="translate(56.763 42.359)" fill="#38a7be"/>
        <path id="Trazado_161098" data-name="Trazado 161098" d="M77.914,56.406,77.9,60.449,47.213,42.73l.008-4.044Z" transform="translate(42.267 34.632)" fill="#277484"/>
        <path id="Trazado_161099" data-name="Trazado 161099" d="M75.862,57.6l-.009,4.043L45.163,43.922l.008-4.044Z" transform="translate(40.431 35.699)" fill="#898989"/>
        <path id="Trazado_161100" data-name="Trazado 161100" d="M74.626,58.316l-.013,4.044L43.925,44.64l.009-4.043Z" transform="translate(39.324 36.344)" fill="#277484"/>
        <path id="Trazado_161101" data-name="Trazado 161101" d="M62.474,49.227l-.009,4.043-2.346,1.365.013-4.044Z" transform="translate(53.82 44.07)" fill="#38a7be"/>
        <path id="Trazado_161102" data-name="Trazado 161102" d="M76.965,57.6,74.622,58.96,43.931,41.242l2.343-1.365Z" transform="translate(39.328 35.699)" fill="#3fbad4"/>
        <path id="Trazado_161103" data-name="Trazado 161103" d="M72.58,59.508l-.015,4.043L41.873,45.832l.013-4.044Z" transform="translate(37.486 37.409)" fill="#898989"/>
        <path id="Trazado_161104" data-name="Trazado 161104" d="M57.783,56.8l-.011,4.043L37.578,49.189l.013-4.043Z" transform="translate(33.641 40.416)" fill="#95c4de"/>
        <path id="Trazado_161105" data-name="Trazado 161105" d="M59.189,51.137l-.015,4.043-2.343,1.363.011-4.044Z" transform="translate(50.877 45.779)" fill="#38a7be"/>
        <path id="Trazado_161106" data-name="Trazado 161106" d="M71.34,60.224l-.011,4.044L40.637,46.548l.009-4.041Z" transform="translate(36.38 38.054)" fill="#277484"/>
        <path id="Trazado_161107" data-name="Trazado 161107" d="M95.347,53.887c3.47,2,3.472,5.246.042,7.238l-6.482,3.77-8.891,5.166L64.222,79.242,59.01,65.153,38.818,53.495c-3.468-2-3.485-5.24-.038-7.242l15.372-8.932a13.768,13.768,0,0,1,12.5,0Zm-13.811,8.7,2.344-1.363L53.19,43.509l-2.344,1.365Zm6.232-3.622,2.344-1.363-30.7-17.72L57.073,41.25ZM75.307,66.21l2.346-1.361L46.96,47.129l-2.346,1.363Z" transform="translate(32.413 32.067)" fill="#f8f9fd"/>
        <path id="Trazado_161108" data-name="Trazado 161108" d="M73.682,59.508l-2.346,1.361L40.642,43.152l2.346-1.365Z" transform="translate(36.384 37.409)" fill="#3fbad4"/>
        <path id="Trazado_161109" data-name="Trazado 161109" d="M84.727,47.274a3.081,3.081,0,0,1-.152.91c-.011.034-.019.064-.03.1a3.658,3.658,0,0,1-.421.826c-.032.049-.061.095-.095.14a5.021,5.021,0,0,1-.711.783,6.483,6.483,0,0,1-.58.43,6.623,6.623,0,0,1-.578.409l-6.482,3.77-8.891,5.166L50.993,68.988l-.011,4.043,15.793-9.179,8.892-5.166,6.478-3.768.11-.064c.19-.112.322-.243.491-.362.19-.14.4-.271.561-.415.021-.017.049-.032.066-.049a5.238,5.238,0,0,0,.546-.589c.038-.045.061-.1.1-.142s.066-.1.1-.146a2.855,2.855,0,0,0,.163-.243,4.02,4.02,0,0,0,.237-.5c.009-.027.011-.051.023-.078s.017-.064.028-.1c.032-.108.07-.214.093-.324a3.26,3.26,0,0,0,.059-.506l0-.552Z" transform="translate(45.641 42.321)" fill="#a9d6ea"/>
        <path id="Trazado_161110" data-name="Trazado 161110" d="M53.455,65.386l-.011,4.043L48.232,55.342l.013-4.044Z" transform="translate(43.179 45.923)" fill="#95c4de"/>
        <g id="Grupo_90043" data-name="Grupo 90043" transform="translate(47.194 66.661)" opacity="0.1">
          <g id="Grupo_90042" data-name="Grupo 90042">
            <g id="Grupo_90041" data-name="Grupo 90041" clip-path="url(#clip-path-16)">
              <path id="Trazado_161111" data-name="Trazado 161111" d="M45.384,37.211c-4.708-2.718-12.317-2.718-16.993,0s-4.651,7.126.055,9.844,12.31,2.71,16.985-.006,4.658-7.12-.047-9.838" transform="translate(-24.902 -35.174)"/>
            </g>
          </g>
        </g>
        <path id="Trazado_161112" data-name="Trazado 161112" d="M41.56,34.358c1.518.877,1.524,2.293.017,3.169a5.554,5.554,0,0,1-2.8.66c.536,1.116.174,2.449-1.073,3.66l-9.057-5.227a13.389,13.389,0,0,1,6.313-.637,1.884,1.884,0,0,1,1.124-1.628,6.043,6.043,0,0,1,5.479,0" transform="translate(25.643 30.169)" fill="#f8f9fd"/>
        <path id="Trazado_161113" data-name="Trazado 161113" d="M50.649,35.9c-.013.118-.019.231-.042.351a2.973,2.973,0,0,1-.081.322c-.03.116-.059.231-.095.343s-.085.2-.129.3c-.055.125-.108.25-.174.375-.047.085-.1.169-.154.254a5.139,5.139,0,0,1-.294.434c-.059.078-.121.155-.186.231a6.82,6.82,0,0,1-.521.561c-.064.063-.121.125-.19.186-.118.108-.252.212-.383.317-.108.085-.21.172-.324.254-.136.1-.286.2-.434.292s-.3.2-.457.294a12.794,12.794,0,0,1-1.679.8c-.152.063-.307.119-.461.176-.364.131-.745.235-1.126.343-.4.112-.8.218-1.215.3-.472.1-.95.188-1.435.246-.127.017-.252.04-.379.055a19.677,19.677,0,0,1-2.011.112l-.324,0a19.957,19.957,0,0,1-2-.112c-.1-.009-.2-.019-.292-.032a18.4,18.4,0,0,1-1.935-.328c-.116-.027-.224-.057-.337-.085a16.032,16.032,0,0,1-1.658-.5c-.1-.036-.21-.064-.311-.1a12.921,12.921,0,0,1-1.825-.862c-2.369-1.365-3.552-3.161-3.546-4.954l-.008,3.091c-.008,1.791,1.175,3.588,3.544,4.956a13.371,13.371,0,0,0,1.73.83c.034.013.07.021.1.032.091.036.184.061.271.093.358.131.711.26,1.082.368.2.055.409.1.616.15.108.027.216.055.324.08s.207.053.311.076q.588.122,1.19.2c.142.023.29.034.432.051l.305.032c.142.015.284.038.43.047.392.034.787.053,1.183.064.125,0,.256,0,.383,0,.1,0,.207,0,.311,0,.178,0,.358,0,.536,0,.445-.015.891-.045,1.332-.091.051,0,.1-.013.152-.019.125-.011.243-.036.368-.051.339-.044.68-.082,1.014-.142.148-.027.282-.078.432-.106.415-.085.813-.19,1.213-.3.207-.057.43-.091.629-.155.169-.057.324-.127.487-.186s.318-.118.478-.18a13.027,13.027,0,0,0,1.67-.794c.051-.028.1-.057.148-.085.106-.064.193-.133.294-.2.154-.1.307-.2.449-.3.118-.085.222-.174.332-.262.127-.1.26-.2.377-.313.021-.019.049-.038.07-.059.045-.042.076-.089.121-.129a6.656,6.656,0,0,0,.516-.555c.034-.042.08-.078.11-.116s.049-.082.078-.121a4.983,4.983,0,0,0,.29-.426c.034-.057.083-.114.114-.172.017-.03.028-.059.044-.089.068-.125.123-.252.18-.381.028-.07.072-.14.1-.212.009-.025.011-.049.021-.076.042-.114.07-.233.1-.351.023-.085.055-.167.072-.252,0-.021,0-.045.006-.07a3.005,3.005,0,0,0,.042-.345c.009-.093.028-.184.032-.273v-.1l.008-3.093c0,.127-.019.252-.03.377" transform="translate(23.858 31.747)" fill="#e1bb00"/>
        <path id="Trazado_161114" data-name="Trazado 161114" d="M47.134,33.846c4.708,2.718,4.723,7.122.049,9.838s-12.277,2.722-16.985,0-4.731-7.124-.053-9.842,12.287-2.716,16.989,0M30.428,38.311l9.055,5.227c1.247-1.211,1.609-2.543,1.073-3.662a5.554,5.554,0,0,0,2.8-.66c1.509-.874,1.5-2.291-.017-3.167a6.039,6.039,0,0,0-5.477,0,1.88,1.88,0,0,0-1.124,1.626,13.388,13.388,0,0,0-6.313.639" transform="translate(23.861 28.476)" fill="#ffdf02"/>
        <g id="Grupo_90046" data-name="Grupo 90046" transform="translate(93.335 44.31)" opacity="0.1">
          <g id="Grupo_90045" data-name="Grupo 90045">
            <g id="Grupo_90044" data-name="Grupo 90044" clip-path="url(#clip-path-16)">
              <path id="Trazado_161115" data-name="Trazado 161115" d="M69.729,25.418c-4.7-2.718-12.315-2.718-16.991,0s-4.651,7.126.055,9.844,12.308,2.71,16.983-.006,4.658-7.122-.047-9.838" transform="translate(-49.248 -23.38)"/>
            </g>
          </g>
        </g>
        <path id="Trazado_161116" data-name="Trazado 161116" d="M64.85,22.074c1.518.876,1.524,2.293.017,3.169a5.543,5.543,0,0,1-2.8.656c.538,1.12.174,2.452-1.073,3.665l-9.057-5.231a13.432,13.432,0,0,1,6.311-.637,1.893,1.893,0,0,1,1.126-1.626,6.043,6.043,0,0,1,5.479,0" transform="translate(46.493 19.172)" fill="#f8f9fd"/>
        <path id="Trazado_161117" data-name="Trazado 161117" d="M73.938,23.618a3.509,3.509,0,0,1-.042.349c-.017.11-.051.216-.08.326s-.059.227-.1.341-.083.2-.125.3a3.968,3.968,0,0,1-.178.375c-.044.085-.1.169-.154.254-.089.146-.186.292-.292.434-.059.078-.121.155-.184.231a6.852,6.852,0,0,1-.523.561c-.063.063-.121.125-.188.186-.119.106-.254.212-.385.317-.108.087-.208.174-.324.256-.136.1-.286.2-.432.29s-.3.2-.459.294a13.049,13.049,0,0,1-1.679.8c-.152.061-.305.118-.461.174-.364.131-.743.235-1.126.345-.4.112-.8.216-1.213.3-.472.1-.95.186-1.437.244-.125.019-.25.04-.379.053a19.641,19.641,0,0,1-2.009.114c-.108,0-.218,0-.328,0-.665-.006-1.334-.04-1.992-.11-.1-.009-.2-.023-.292-.034a18.944,18.944,0,0,1-1.937-.33c-.114-.025-.224-.055-.337-.081a16.82,16.82,0,0,1-1.656-.5c-.1-.038-.21-.066-.311-.106a13.242,13.242,0,0,1-1.825-.86c-2.369-1.366-3.552-3.163-3.546-4.958l-.009,3.093c-.006,1.793,1.177,3.588,3.546,4.954a12.894,12.894,0,0,0,1.73.83c.032.015.07.023.1.038.087.032.182.057.271.089.356.129.711.258,1.082.368.2.057.409.1.614.15.108.027.216.055.324.08s.207.055.313.076q.588.122,1.188.207c.146.019.29.032.434.049.1.011.2.023.3.032.144.015.286.038.432.047.39.034.787.055,1.183.066.127,0,.254,0,.379,0,.106,0,.207,0,.315,0,.176,0,.356.006.534,0,.445-.015.891-.044,1.332-.089.051,0,.1-.017.152-.021.127-.013.244-.036.368-.051.341-.044.68-.081,1.014-.142.15-.027.284-.076.432-.106.417-.085.813-.191,1.215-.3.2-.057.428-.091.629-.155.169-.057.322-.127.487-.186s.318-.118.478-.18a13.027,13.027,0,0,0,1.67-.794c.049-.028.1-.057.146-.087.1-.063.193-.129.292-.2.154-.1.309-.2.451-.3.119-.085.224-.174.332-.262.129-.1.26-.2.377-.311.021-.021.049-.038.072-.061.044-.042.078-.085.119-.129a7.372,7.372,0,0,0,.517-.555c.034-.042.078-.078.108-.118s.051-.078.08-.116c.106-.144.2-.288.29-.43.036-.059.083-.114.116-.172a.735.735,0,0,1,.042-.087c.066-.127.123-.252.178-.383.028-.07.074-.14.1-.212.008-.025.013-.051.019-.074a3.227,3.227,0,0,0,.1-.351c.023-.087.055-.169.072-.252a.439.439,0,0,0,.008-.07,3.089,3.089,0,0,0,.042-.347c.008-.091.027-.182.032-.273v-.1l.008-3.093c0,.127-.021.252-.032.377" transform="translate(44.707 20.749)" fill="#e53399"/>
        <path id="Trazado_161118" data-name="Trazado 161118" d="M70.425,21.563c4.706,2.718,4.723,7.12.047,9.836s-12.277,2.722-16.983.006-4.731-7.124-.055-9.842,12.289-2.718,16.991,0M53.716,26.026l9.057,5.229c1.247-1.213,1.611-2.543,1.073-3.663a5.543,5.543,0,0,0,2.8-.656c1.507-.877,1.5-2.293-.017-3.169a6.037,6.037,0,0,0-5.479,0,1.893,1.893,0,0,0-1.126,1.626,13.408,13.408,0,0,0-6.311.637" transform="translate(44.711 17.479)" fill="#ff4caa"/>
        <path id="Trazado_161119" data-name="Trazado 161119" d="M94.813,66.424c.112-2.646.36-5.381.671-8.155l-8.038-.244c.483,1.749.972,3.48,1.37,5.1.286,4.09-2.763,5.2-.8,9.457a4.341,4.341,0,0,0,1.91,1.7,4.794,4.794,0,0,1,2.892,2.977,6.348,6.348,0,0,0,1.359,2.087c2.369,2.126,7.869,1.929,9.044.095,1.7-2.585-5.923-8.013-8.244-12.7a2.857,2.857,0,0,1-.163-.317" transform="translate(78.201 51.945)" fill="#171716"/>
        <path id="Trazado_161120" data-name="Trazado 161120" d="M104.32,53.551c.527-.315.54-.866,1.3-1.514.512.982,2.054,1.977,2.57,2.921a3.459,3.459,0,0,0,.328.2c4.691,2.949,14.571,3.629,14.472,6.9-.051,2.316-4.909,5.526-8.218,4.922a6.564,6.564,0,0,1-2.382-1.13,5.1,5.1,0,0,0-4.253-1.092,4.581,4.581,0,0,1-2.676-.474c-4.037-2.706-2.073-5.345-4.365-8.769,1.118-.673,2.2-1.37,3.22-1.962" transform="translate(90.508 46.585)" fill="#171716"/>
        <path id="Trazado_161121" data-name="Trazado 161121" d="M105.546,58.135a26.676,26.676,0,0,0-2.824-14.876c-3.106-5.9-16.055-11.269-16.187-11.271s-11.218,5.02-10.371,6.9c.474,1.063,17.393,17.908,17.724,18.7A5.226,5.226,0,0,1,94.3,61.3c-1.232,6.015.14,23.643,2.394,28.764,1.658,3.76,7.806,3.072,8.923,1.016.188-.353.057-28.872-.072-32.941-.006-.008.129,4.069,0,0" transform="translate(68.143 28.636)" fill="#856de9"/>
        <g id="Grupo_90049" data-name="Grupo 90049" transform="translate(174.722 86.807)" opacity="0.3" style="mix-blend-mode: multiply;isolation: isolate">
          <g id="Grupo_90048" data-name="Grupo 90048">
            <g id="Grupo_90047" data-name="Grupo 90047" clip-path="url(#clip-path-18)">
              <path id="Trazado_161122" data-name="Trazado 161122" d="M92.2,46.083c0-.108,0-.2-.009-.28.108,3.392.038,1.12.009.28" transform="translate(-92.191 -45.803)" fill="#123f5d"/>
            </g>
          </g>
        </g>
        <g id="Grupo_90052" data-name="Grupo 90052" transform="translate(174.722 86.807)" opacity="0.3" style="mix-blend-mode: multiply;isolation: isolate">
          <g id="Grupo_90051" data-name="Grupo 90051">
            <g id="Grupo_90050" data-name="Grupo 90050" clip-path="url(#clip-path-19)">
              <path id="Trazado_161123" data-name="Trazado 161123" d="M92.2,46.083c0-.171-.009-.28-.009-.28.008.085.008.172.009.28" transform="translate(-92.191 -45.803)" fill="#123f5d"/>
            </g>
          </g>
        </g>
        <g id="Grupo_90055" data-name="Grupo 90055" transform="translate(144.256 60.205)" opacity="0.3" style="mix-blend-mode: multiply;isolation: isolate">
          <g id="Grupo_90054" data-name="Grupo 90054">
            <g id="Grupo_90053" data-name="Grupo 90053" clip-path="url(#clip-path-20)">
              <path id="Trazado_161124" data-name="Trazado 161124" d="M85.217,31.767c.116.006,14.4,5.79,17.508,11.692,3.933,7.465,2.132,13,2.132,13h0c.792,1,.775,6.188.841,9.48-4.063-3.222-4.179-13.225-9.946-9.728-1.04.317-.292,21.634,1.531,29.928a30.4,30.4,0,0,0,2.187,6.233c-.929-.087-1.842-.394-2.773-2.113-1.221-4.3-4.1-18.736-2.394-28.766a5.536,5.536,0,0,0-.413-3.713c-.332-.788-17.25-17.635-17.724-18.7-.847-1.878,8.9-7.319,9.05-7.317" transform="translate(-76.115 -31.766)" fill="#123f5d"/>
            </g>
          </g>
        </g>
        <path id="Trazado_161125" data-name="Trazado 161125" d="M85.736,52.706c11.049-.819,20.779-2.532,20.779-2.532C110.23,62.645,128.055,73.62,130.2,75.227c1.272-.167,4.518-3.584,5.519-5.111-3.4-5.566-19.208-27.377-24.348-30.83-3.222-2.157-31.222-2.9-31.228-4.281,0-.553-6.69-1.3-7.17-1.31-5.555-.032-6.774,20.433,12.766,19.011" transform="translate(62.143 30.165)" fill="#856de9"/>
        <g id="Grupo_90058" data-name="Grupo 90058" transform="translate(131.56 63.86)" opacity="0.2" style="mix-blend-mode: multiply;isolation: isolate">
          <g id="Grupo_90057" data-name="Grupo 90057">
            <g id="Grupo_90056" data-name="Grupo 90056" clip-path="url(#clip-path-21)">
              <path id="Trazado_161126" data-name="Trazado 161126" d="M72.97,33.7c.479.006,7.17.756,7.172,1.31s4.732.762,10.577.961a8.236,8.236,0,0,1-1.19,1.675c-3.9,4.346-13.3.423-16.564,5.25-2.106,3.108,2.161,5.663,4.2,6.412,9.533,3.023,22.582,3.068,29.981-3.247,3.237,12.581,14.138,21.295,24.822,28.326a5.762,5.762,0,0,1-1.772.845c-2.143-1.607-19.968-12.582-23.685-25.053,0,0-9.726,1.715-20.777,2.532C66.2,54.129,67.415,33.663,72.97,33.7" transform="translate(-69.416 -33.695)" fill="#1a4b6c"/>
            </g>
          </g>
        </g>
        <path id="Trazado_161127" data-name="Trazado 161127" d="M80.666,36.749l-.074.864,12.588,8.972.074-.868Z" transform="translate(72.149 32.898)" fill="#b4b9bc"/>
        <path id="Trazado_161128" data-name="Trazado 161128" d="M87.309,46.584l-.074.868,23.5-10.8.078-.868Z" transform="translate(78.096 32.032)" fill="#7d8183"/>
        <path id="Trazado_161129" data-name="Trazado 161129" d="M80.631,41.853,93.22,50.822l23.51-10.8-12.586-8.972Z" transform="translate(72.184 27.794)" fill="#e3e5e5"/>
        <path id="Trazado_161130" data-name="Trazado 161130" d="M91.562,34.026l-.936-.868L86.7,48.884l.934.868Z" transform="translate(77.619 29.683)" fill="#bdbbbb"/>
        <path id="Trazado_161131" data-name="Trazado 161131" d="M114.279,28.07l-.934-.87L88.773,38.49l.936.868Z" transform="translate(79.473 24.35)" fill="#d2d0d0"/>
        <path id="Trazado_161132" data-name="Trazado 161132" d="M91.121,38.948,87.2,54.674l24.575-11.294L115.69,27.66Z" transform="translate(78.061 24.761)" fill="#d5dfe6"/>
        <path id="Trazado_161133" data-name="Trazado 161133" d="M89.267,38.948h0l20.65,4.433,3.919-15.721Z" transform="translate(79.915 24.761)" fill="#e9f0f4"/>
        <path id="Trazado_161134" data-name="Trazado 161134" d="M92.286,25.8s3.87-1.374,5.845-.248,3.41,1.349,4.42,2.708.267,2.3-1.067,2.468a13.572,13.572,0,0,1-5.875-1.044,4.848,4.848,0,0,0-3.171-.525c-.677-.013-1.844-1.778-.152-3.358" transform="translate(81.835 22.481)" fill="#efb185"/>
        <path id="Trazado_161135" data-name="Trazado 161135" d="M81.269,10.945c1.9-.57,5.214-.025,6.021,5.161s2.89,19.7,2.89,19.7,14.063,1.6,15.658,2.032a3.617,3.617,0,0,0-1.33,4.382s-15.389,3.051-18.823-.167c-3.44-3.2-12.2-28.8-4.416-31.11" transform="translate(69.952 9.637)" fill="#5fb9e6"/>
        <path id="Trazado_161136" data-name="Trazado 161136" d="M69.086,20.957s4.937-7.994,23.685-10.115c0,0,3.021-1.156,2.462,8.5-.083,1.4,1.291,3.828,2.234,5.11s3.4,6.207-2.46,11.832c0,0-2.452,8.551.013,14.2,2.2,5.045-10.23,9.543-20.647,8.222-1.293-.159-4.118-1.088-2.862-5.538S75.659,40.931,73.8,32.6s-6.237-7.486-4.712-11.646" transform="translate(61.564 9.667)" fill="#77d2ff"/>
        <path id="Trazado_161137" data-name="Trazado 161137" d="M69.086,18.389C67.56,22.549,71.934,21.7,73.8,30.035s-1.039,16.1-2.286,20.558,1.569,5.379,2.862,5.538a31,31,0,0,0,5.242.2c-3.425-8.131,1.692-22.567,2.166-30.593.489-8.515-7.13-12.069-7.13-12.069-4.162,2.443-5.566,4.721-5.566,4.721" transform="translate(61.564 12.236)" fill="#5fb9e6"/>
        <path id="Trazado_161138" data-name="Trazado 161138" d="M85.555,5.416s-1.5,9.628-2.348,18.812a3.074,3.074,0,0,0,3.7,3.133s7.3-10.708,2.03-21.7A10.387,10.387,0,0,0,73.587,2Z" transform="translate(65.878 0)" fill="#301806"/>
        <path id="Trazado_161139" data-name="Trazado 161139" d="M87.055,12.281s-3.451,3.8-2.037,8.059c.383,1.166,1.289,5.94-5.824,3.764,0,0-7.346-4.016-5.028-6.2,1.535-1.454,3.057-3.576,1.116-11.36Z" transform="translate(65.991 5.856)" fill="#e8a476"/>
        <path id="Trazado_161140" data-name="Trazado 161140" d="M74.143,17.5a1.2,1.2,0,0,0-.4.741,13.483,13.483,0,0,0,11.688-3.078l-8.646-8.17s-.455.284-1.152.775c1.338,6.465-.063,8.388-1.486,9.732" transform="translate(66.014 6.258)" fill="#db9669"/>
        <path id="Trazado_161141" data-name="Trazado 161141" d="M86.049,2.946s1.914.733,1.8,6.467c-.019.631.967,1.5,1.188,3.084.212,1.605.36,7.992-3.366,8.548-2.686.4-9.254-1.5-11.261-8s3.745-14.61,11.642-10.1" transform="translate(66.251 1.468)" fill="#f1b287"/>
        <path id="Trazado_161142" data-name="Trazado 161142" d="M88.677,6.491S72.057,12,83.749,33.543c0,0-8.595.57-12.19-6.929-1.721-3.6-.781-10.737-.028-17.546,0,0,2.221-10.445,10.968-8.6,0,0,5.746,2.4,6.178,6.027" transform="translate(63.192 0.22)" fill="#231202"/>
        <path id="Trazado_161143" data-name="Trazado 161143" d="M84.934,6.707s2.888-.457,4.128,4.875c0,0,0-14.955-14.294-10.869,0,0,8.415.671,10.166,5.995" transform="translate(66.935 0.004)" fill="#301806"/>
        <path id="Trazado_161144" data-name="Trazado 161144" d="M77.607,9.45s-.908-3.2-2.767-2.3c-.58.29-1.232.934-.409,2.585s2.585,3.207,4.025,3.07Z" transform="translate(66.285 6.259)" fill="#f1b287"/>
        <path id="Trazado_161145" data-name="Trazado 161145" d="M82.29,30.64s4.107.254,5.487,2.054,3.279,3.686,3.7,5.335c.4,1.636.059,2.212-1.236,1.846s-4.681-2.68-6.391-4.361a4.956,4.956,0,0,0-2.722-1.728c-.616-.26-1.01-2.352,1.164-3.146" transform="translate(72.193 27.43)" fill="#efb185"/>
        <path id="Trazado_161146" data-name="Trazado 161146" d="M81.123,33a4.975,4.975,0,0,1,2.722,1.728c1.71,1.683,5.1,4,6.391,4.361a2.277,2.277,0,0,0,.5.1c-.993-1.107-2.689-3-4.2-4.605a12.358,12.358,0,0,0-5.839-3.074A1.372,1.372,0,0,0,81.123,33" transform="translate(72.196 28.209)" fill="#db9669"/>
        <path id="Trazado_161147" data-name="Trazado 161147" d="M71.862,15.3c1.935-.4,5.2.415,5.574,5.65s1.247,19.875,1.247,19.875,13.884,2.75,15.433,3.317a2.851,2.851,0,0,0-1.672,3.741s-15.6,2.288-18.761-1.2S63.906,16.967,71.862,15.3" transform="translate(60.958 13.616)" fill="#8ddfff"/>
      </g>
    </g>
  </g>
</svg>
