<svg id="Grupo_90177" data-name="Grupo 90177" xmlns="http://www.w3.org/2000/svg" xmlns:xlink="http://www.w3.org/1999/xlink" width="193.682" height="184.533" viewBox="0 0 193.682 184.533">
  <defs>
    <clipPath id="clip-path">
      <rect id="Rectángulo_11460" data-name="Rectángulo 11460" width="193.682" height="184.533" fill="none"/>
    </clipPath>
    <clipPath id="clip-path-3">
      <rect id="Rectángulo_11455" data-name="Rectángulo 11455" width="63.501" height="36.789" transform="translate(130.181 140.35)" fill="none"/>
    </clipPath>
    <clipPath id="clip-path-4">
      <rect id="Rectángulo_11456" data-name="Rectángulo 11456" width="178.885" height="104.613" transform="translate(0 78.607)" fill="none"/>
    </clipPath>
    <clipPath id="clip-path-5">
      <path id="Trazado_161551" data-name="Trazado 161551" d="M108.131,122.479c1.034.6,2.417,1.4,3.452,2.009,12.266-7.083,22.181-24.257,22.143-38.366-1.153-.666-2.3-1.338-3.456-2.005.043,14.105-9.874,31.283-22.139,38.362" fill="none"/>
    </clipPath>
    <clipPath id="clip-path-6">
      <path id="Trazado_161563" data-name="Trazado 161563" d="M92.316,124.025c1.036.6,2.418,1.408,3.453,2.013,4.041,2.349,9.639,2.013,15.814-1.55l-3.452-2.009c-6.175,3.567-11.774,3.9-15.815,1.546" fill="none"/>
    </clipPath>
    <clipPath id="clip-path-7">
      <path id="Trazado_161565" data-name="Trazado 161565" d="M130.27,84.117c1.152.667,2.3,1.339,3.456,2.005-.022-7.006-2.5-11.937-6.486-14.255l-3.453-2.008c3.99,2.317,6.463,7.253,6.483,14.258" fill="none"/>
    </clipPath>
    <clipPath id="clip-path-8">
      <path id="Trazado_161578" data-name="Trazado 161578" d="M107.986,71.4l3.453,2.009c6.171-3.564,11.764-3.9,15.8-1.547l-3.453-2.008a11.5,11.5,0,0,0-5.841-1.5,20.211,20.211,0,0,0-9.96,3.045" fill="none"/>
    </clipPath>
    <clipPath id="clip-path-9">
      <path id="Trazado_161594" data-name="Trazado 161594" d="M85.835,109.774c.02,7.006,2.494,11.934,6.484,14.251l3.452,2.013c-3.989-2.317-6.463-7.253-6.482-14.259-.039-14.1,9.873-31.282,22.15-38.365L107.986,71.4C95.709,78.491,85.792,95.67,85.835,109.774" fill="none"/>
    </clipPath>
    <clipPath id="clip-path-11">
      <path id="Trazado_161613" data-name="Trazado 161613" d="M73.649,66.475c.3.175.6.35.907.522.725.429,1.452.849,2.179,1.273l-3.086-1.795m-.371-.214a6.679,6.679,0,0,1-3.023,5.252l3.453,2.009a6.687,6.687,0,0,0,3.027-5.252,2.123,2.123,0,0,0-.887-1.951L72.4,64.31a2.127,2.127,0,0,1,.881,1.951" fill="none"/>
    </clipPath>
    <clipPath id="clip-path-12">
      <path id="Trazado_161624" data-name="Trazado 161624" d="M70.238,64.526l3.454,2a2.129,2.129,0,0,1,2.156-.212q-1.467-.856-2.935-1.705c-.171-.1-.344-.2-.516-.3a1.571,1.571,0,0,0-.8-.2,2.747,2.747,0,0,0-1.363.42" fill="none"/>
    </clipPath>
    <clipPath id="clip-path-13">
      <path id="Trazado_161640" data-name="Trazado 161640" d="M67.2,69.774a2.124,2.124,0,0,0,.891,1.947l3.455,2.009a2.126,2.126,0,0,1-.891-1.952,6.677,6.677,0,0,1,3.038-5.247l-3.454-2A6.686,6.686,0,0,0,67.2,69.774" fill="none"/>
    </clipPath>
    <clipPath id="clip-path-14">
      <path id="Trazado_161642" data-name="Trazado 161642" d="M68.631,72.947l-.948-.55.948.55m-.948-.55q-1.051-.612-2.1-1.223l2.1,1.223" fill="none"/>
    </clipPath>
    <clipPath id="clip-path-15">
      <path id="Trazado_161658" data-name="Trazado 161658" d="M65.177,70.942A6.706,6.706,0,0,1,62.142,76.2L65.6,78.206a6.7,6.7,0,0,0,3.034-5.259A2.118,2.118,0,0,0,67.747,71L64.292,69a2.121,2.121,0,0,1,.885,1.947" fill="none"/>
    </clipPath>
    <clipPath id="clip-path-16">
      <path id="Trazado_161669" data-name="Trazado 161669" d="M59.979,76.406c1.034.605,2.414,1.4,3.451,2a2.133,2.133,0,0,0,2.167-.2l-.407-.235q-1.524-.891-3.048-1.774a2.15,2.15,0,0,1-2.163.209" fill="none"/>
    </clipPath>
    <clipPath id="clip-path-17">
      <path id="Trazado_161680" data-name="Trazado 161680" d="M62.122,69.211l3.454,2.005A2.157,2.157,0,0,1,67.747,71L64.292,69a1.57,1.57,0,0,0-.8-.2,2.789,2.789,0,0,0-1.373.42" fill="none"/>
    </clipPath>
    <clipPath id="clip-path-18">
      <path id="Trazado_161696" data-name="Trazado 161696" d="M59.087,74.455a2.123,2.123,0,0,0,.892,1.951q1.723,1.007,3.451,2a2.112,2.112,0,0,1-.888-1.946,6.667,6.667,0,0,1,3.034-5.248l-3.454-2.005a6.677,6.677,0,0,0-3.035,5.244" fill="none"/>
    </clipPath>
    <clipPath id="clip-path-19">
      <path id="Trazado_161698" data-name="Trazado 161698" d="M60.517,77.632c-1.018-.59-2.032-1.184-3.05-1.77,1.018.586,2.032,1.18,3.05,1.77" fill="none"/>
    </clipPath>
    <clipPath id="clip-path-20">
      <path id="Trazado_161714" data-name="Trazado 161714" d="M57.066,75.623a6.7,6.7,0,0,1-3.04,5.255l3.459,2.01a6.705,6.705,0,0,0,3.032-5.256,2.127,2.127,0,0,0-.883-1.947l-3.455-2a2.122,2.122,0,0,1,.887,1.943" fill="none"/>
    </clipPath>
    <clipPath id="clip-path-21">
      <path id="Trazado_161725" data-name="Trazado 161725" d="M54.011,73.891,57.463,75.9a2.168,2.168,0,0,1,2.171-.215l-3.455-2a1.587,1.587,0,0,0-.8-.2,2.791,2.791,0,0,0-1.367.415" fill="none"/>
    </clipPath>
    <clipPath id="clip-path-22">
      <path id="Trazado_161741" data-name="Trazado 161741" d="M50.97,79.139a2.128,2.128,0,0,0,.893,1.952L55.316,83.1a2.137,2.137,0,0,1-.891-1.954A6.686,6.686,0,0,1,57.463,75.9l-3.452-2.009a6.7,6.7,0,0,0-3.041,5.248" fill="none"/>
    </clipPath>
  </defs>
  <g id="Grupo_90176" data-name="Grupo 90176" clip-path="url(#clip-path)">
    <g id="Grupo_90137" data-name="Grupo 90137">
      <g id="Grupo_90136" data-name="Grupo 90136" clip-path="url(#clip-path)">
        <g id="Grupo_90132" data-name="Grupo 90132" opacity="0.1">
          <g id="Grupo_90131" data-name="Grupo 90131">
            <g id="Grupo_90130" data-name="Grupo 90130" clip-path="url(#clip-path-3)">
              <path id="Trazado_161534" data-name="Trazado 161534" d="M184.312,145.733c12.438,7.183,12.5,18.832.144,26.015s-32.46,7.187-44.9,0-12.5-18.832-.143-26c12.361-7.191,32.468-7.191,44.9-.011"/>
            </g>
          </g>
        </g>
        <g id="Grupo_90135" data-name="Grupo 90135" opacity="0.1">
          <g id="Grupo_90134" data-name="Grupo 90134">
            <g id="Grupo_90133" data-name="Grupo 90133" clip-path="url(#clip-path-4)">
              <path id="Trazado_161535" data-name="Trazado 161535" d="M0,151.8l54.062,31.417L178.885,111.15,123.519,78.607Z"/>
            </g>
          </g>
        </g>
      </g>
    </g>
    <g id="Grupo_90139" data-name="Grupo 90139">
      <g id="Grupo_90138" data-name="Grupo 90138" clip-path="url(#clip-path-5)">
        <path id="Trazado_161536" data-name="Trazado 161536" d="M111.583,124.488l-3.453-2.009a37.335,37.335,0,0,0,7.421-5.745L119,118.743a37.335,37.335,0,0,1-7.421,5.745" fill="#b2c5cc"/>
        <path id="Trazado_161537" data-name="Trazado 161537" d="M119,118.743l-3.453-2.009c.829-.821,1.641-1.685,2.424-2.583l3.454,2c-.782.9-1.594,1.766-2.425,2.587" fill="#adc0c7"/>
        <path id="Trazado_161538" data-name="Trazado 161538" d="M121.429,116.155l-3.455-2c.617-.709,1.221-1.446,1.8-2.194l3.453,2c-.581.756-1.186,1.485-1.8,2.194" fill="#a9bbc2"/>
        <path id="Trazado_161539" data-name="Trazado 161539" d="M123.228,113.961l-3.453-2c.511-.655,1-1.322,1.479-2.009l3.453,2.009c-.477.679-.968,1.35-1.479,2" fill="#a4b6bd"/>
        <path id="Trazado_161540" data-name="Trazado 161540" d="M124.707,111.956l-3.453-2.009q.667-.942,1.286-1.92l3.453,2.009c-.415.651-.841,1.291-1.286,1.92" fill="#a0b1b8"/>
        <path id="Trazado_161541" data-name="Trazado 161541" d="M125.993,110.036l-3.453-2.009c.395-.617.779-1.245,1.149-1.878l3.455,2c-.372.637-.758,1.265-1.151,1.882" fill="#9bacb3"/>
        <path id="Trazado_161542" data-name="Trazado 161542" d="M127.144,108.154l-3.455-2c.361-.621.708-1.241,1.043-1.874l3.455,2.009c-.34.632-.682,1.257-1.043,1.87" fill="#97a7ad"/>
        <path id="Trazado_161543" data-name="Trazado 161543" d="M128.187,106.285l-3.455-2.009c.334-.624.65-1.253.956-1.889l3.459,2.009c-.31.632-.628,1.264-.96,1.889" fill="#93a2a8"/>
        <path id="Trazado_161544" data-name="Trazado 161544" d="M129.147,104.395l-3.459-2.009c.309-.636.6-1.28.883-1.924l3.455,2.005c-.281.648-.574,1.288-.879,1.928" fill="#8e9da3"/>
        <path id="Trazado_161545" data-name="Trazado 161545" d="M130.026,102.467l-3.455-2.005c.289-.667.563-1.33.818-2l3.455,2.005q-.388,1-.818,2" fill="#8a999e"/>
        <path id="Trazado_161546" data-name="Trazado 161546" d="M130.843,100.47l-3.455-2.005c.266-.694.521-1.4.752-2.1l3.453,2.012c-.229.7-.484,1.4-.75,2.094" fill="#859499"/>
        <path id="Trazado_161547" data-name="Trazado 161547" d="M131.593,98.376l-3.453-2.013c.253-.752.482-1.5.692-2.263l3.453,2.009q-.312,1.134-.692,2.267" fill="#818f94"/>
        <path id="Trazado_161548" data-name="Trazado 161548" d="M132.285,96.109,128.832,94.1q.355-1.278.625-2.549l3.453,2q-.27,1.273-.625,2.553" fill="#7c8a8f"/>
        <path id="Trazado_161549" data-name="Trazado 161549" d="M132.91,93.557l-3.453-2q.333-1.556.53-3.085l3.455,2c-.133,1.026-.308,2.052-.532,3.085" fill="#78858a"/>
        <path id="Trazado_161550" data-name="Trazado 161550" d="M133.442,90.472l-3.455-2a33.665,33.665,0,0,0,.284-4.35c-.022-7-2.493-11.941-6.484-14.258l3.453,2.009c3.989,2.317,6.464,7.248,6.486,14.255a33.927,33.927,0,0,1-.284,4.349" fill="#738085"/>
      </g>
    </g>
    <path id="Trazado_161552" data-name="Trazado 161552" d="M104.186,113.19l-3.455-2,17.943-20.37,3.455,2.005Z" fill="#8aafbf"/>
    <g id="Grupo_90141" data-name="Grupo 90141">
      <g id="Grupo_90140" data-name="Grupo 90140" clip-path="url(#clip-path-6)">
        <path id="Trazado_161553" data-name="Trazado 161553" d="M95.771,126.038l-3.451-2.013c.037.027.079.05.12.077l3.452,2c-.04-.024-.08-.043-.121-.066" fill="#8a999e"/>
        <path id="Trazado_161554" data-name="Trazado 161554" d="M95.892,126.1l-3.453-2a10.7,10.7,0,0,0,1.115.54l3.454,2.005a10.653,10.653,0,0,1-1.116-.544" fill="#8e9da3"/>
        <path id="Trazado_161555" data-name="Trazado 161555" d="M97.008,126.647l-3.455-2.005a9.576,9.576,0,0,0,1.176.413l3.453,2.012a10.754,10.754,0,0,1-1.174-.42" fill="#93a2a8"/>
        <path id="Trazado_161556" data-name="Trazado 161556" d="M98.183,127.067l-3.453-2.013a11.693,11.693,0,0,0,1.245.293l3.453,2a11.789,11.789,0,0,1-1.245-.285" fill="#97a7ad"/>
        <path id="Trazado_161557" data-name="Trazado 161557" d="M99.428,127.353l-3.453-2a12.716,12.716,0,0,0,1.342.154l3.457,2.005a11.811,11.811,0,0,1-1.346-.154" fill="#9bacb3"/>
        <path id="Trazado_161558" data-name="Trazado 161558" d="M100.774,127.507,97.317,125.5a13.594,13.594,0,0,0,1.473.015l3.453,2.005a14.336,14.336,0,0,1-1.469-.015" fill="#a0b1b8"/>
        <path id="Trazado_161559" data-name="Trazado 161559" d="M102.243,127.522l-3.453-2.005a15.438,15.438,0,0,0,1.654-.17l3.455,2.009a15.554,15.554,0,0,1-1.656.166" fill="#a4b6bd"/>
        <path id="Trazado_161560" data-name="Trazado 161560" d="M103.9,127.357l-3.455-2.009a17.252,17.252,0,0,0,1.959-.416l3.453,2a18.17,18.17,0,0,1-1.957.42" fill="#a9bbc2"/>
        <path id="Trazado_161561" data-name="Trazado 161561" d="M105.856,126.936l-3.453-2a20.643,20.643,0,0,0,2.618-.906l3.453,2.009a20.658,20.658,0,0,1-2.618.9" fill="#adc0c7"/>
        <path id="Trazado_161562" data-name="Trazado 161562" d="M108.474,126.034l-3.453-2.009a26.8,26.8,0,0,0,3.11-1.546l3.452,2.009a28.038,28.038,0,0,1-3.109,1.546" fill="#b2c5cc"/>
      </g>
    </g>
    <g id="Grupo_90143" data-name="Grupo 90143">
      <g id="Grupo_90142" data-name="Grupo 90142" clip-path="url(#clip-path-7)">
        <path id="Trazado_161564" data-name="Trazado 161564" d="M133.442,90.472l-3.455-2a33.665,33.665,0,0,0,.284-4.35c-.022-7-2.493-11.941-6.484-14.258l3.453,2.009c3.989,2.317,6.464,7.248,6.486,14.255a33.927,33.927,0,0,1-.284,4.349" fill="#738085"/>
      </g>
    </g>
    <path id="Trazado_161566" data-name="Trazado 161566" d="M104.13,93.2l-3.453-2.009,18-.378,3.455,2Z" fill="#abbec5"/>
    <path id="Trazado_161567" data-name="Trazado 161567" d="M104.186,113.19l-3.455-2-.054-19.993L104.13,93.2Z" fill="#778488"/>
    <g id="Grupo_90145" data-name="Grupo 90145">
      <g id="Grupo_90144" data-name="Grupo 90144" clip-path="url(#clip-path-8)">
        <path id="Trazado_161568" data-name="Trazado 161568" d="M111.439,73.414,107.986,71.4a27.457,27.457,0,0,1,3.11-1.546l3.455,2a27.033,27.033,0,0,0-3.112,1.55" fill="#87abbb"/>
        <path id="Trazado_161569" data-name="Trazado 161569" d="M114.55,71.864l-3.455-2a20.629,20.629,0,0,1,2.61-.9l3.455,2.009a20.9,20.9,0,0,0-2.61.894" fill="#84a7b7"/>
        <path id="Trazado_161570" data-name="Trazado 161570" d="M117.161,70.969l-3.455-2.009a17.316,17.316,0,0,1,1.955-.42l3.453,2.009a17.189,17.189,0,0,0-1.953.42" fill="#80a3b2"/>
        <path id="Trazado_161571" data-name="Trazado 161571" d="M119.114,70.549l-3.453-2.009a15.569,15.569,0,0,1,1.654-.166l3.455,2.009a14.576,14.576,0,0,0-1.656.166" fill="#7d9ead"/>
        <path id="Trazado_161572" data-name="Trazado 161572" d="M120.77,70.383l-3.455-2.009a13.379,13.379,0,0,1,1.475.016l3.453,2a12.444,12.444,0,0,0-1.473-.012" fill="#7a9aa8"/>
        <path id="Trazado_161573" data-name="Trazado 161573" d="M122.243,70.395l-3.453-2a11.673,11.673,0,0,1,1.338.154l3.455,2.005a11.655,11.655,0,0,0-1.34-.154" fill="#7696a4"/>
        <path id="Trazado_161574" data-name="Trazado 161574" d="M123.583,70.549l-3.455-2.005a11.979,11.979,0,0,1,1.248.285l3.452,2.009a11.874,11.874,0,0,0-1.245-.289" fill="#73929f"/>
        <path id="Trazado_161575" data-name="Trazado 161575" d="M124.828,70.838l-3.453-2.009a11.933,11.933,0,0,1,1.176.413L126,71.254a10.308,10.308,0,0,0-1.176-.416" fill="#708d9a"/>
        <path id="Trazado_161576" data-name="Trazado 161576" d="M126,71.254l-3.453-2.013c.384.166.754.348,1.115.548l3.452,2a10.589,10.589,0,0,0-1.114-.54" fill="#6c8996"/>
        <path id="Trazado_161577" data-name="Trazado 161577" d="M127.118,71.794l-3.453-2,.122.069,3.452,2.009c-.038-.023-.078-.05-.121-.073" fill="#698591"/>
      </g>
    </g>
    <g id="Grupo_90147" data-name="Grupo 90147">
      <g id="Grupo_90146" data-name="Grupo 90146" clip-path="url(#clip-path-9)">
        <path id="Trazado_161579" data-name="Trazado 161579" d="M95.771,126.038l-3.451-2.013c-3.991-2.317-6.464-7.245-6.485-14.251a33.531,33.531,0,0,1,.283-4.353l3.455,2.009a33.126,33.126,0,0,0-.284,4.349c.02,7.006,2.493,11.942,6.482,14.259" fill="#586f7a"/>
        <path id="Trazado_161580" data-name="Trazado 161580" d="M89.572,107.43l-3.455-2.009q.2-1.527.53-3.081l3.453,2.005q-.332,1.556-.528,3.085" fill="#5b747e"/>
        <path id="Trazado_161581" data-name="Trazado 161581" d="M90.1,104.345l-3.453-2.005q.271-1.272.623-2.549l3.454,2c-.237.853-.445,1.705-.624,2.549" fill="#5f7883"/>
        <path id="Trazado_161582" data-name="Trazado 161582" d="M90.725,101.8l-3.455-2q.318-1.134.694-2.267l3.453,2.013c-.249.748-.482,1.5-.692,2.259" fill="#627c88"/>
        <path id="Trazado_161583" data-name="Trazado 161583" d="M91.418,99.537l-3.453-2.013c.232-.7.486-1.4.751-2.094l3.452,2.006c-.267.694-.52,1.4-.75,2.1" fill="#65808c"/>
        <path id="Trazado_161584" data-name="Trazado 161584" d="M92.167,97.435l-3.451-2c.257-.667.53-1.334.814-2l3.454,2.009c-.283.659-.559,1.326-.817,1.993" fill="#698591"/>
        <path id="Trazado_161585" data-name="Trazado 161585" d="M92.985,95.442,89.53,93.433c.28-.648.575-1.288.885-1.928l3.453,2.009q-.459.954-.883,1.928" fill="#6c8996"/>
        <path id="Trazado_161586" data-name="Trazado 161586" d="M93.868,93.514,90.415,91.5c.307-.632.625-1.264.958-1.889l3.455,2.009q-.5.936-.96,1.889" fill="#708d9a"/>
        <path id="Trazado_161587" data-name="Trazado 161587" d="M94.828,91.625l-3.455-2.009c.332-.628.683-1.253,1.043-1.87l3.451,2c-.36.621-.7,1.242-1.039,1.874" fill="#73929f"/>
        <path id="Trazado_161588" data-name="Trazado 161588" d="M95.867,89.751l-3.451-2c.37-.636.75-1.265,1.145-1.878l3.453,2c-.393.621-.773,1.253-1.147,1.882" fill="#7696a4"/>
        <path id="Trazado_161589" data-name="Trazado 161589" d="M97.014,87.869l-3.453-2c.417-.652.844-1.3,1.29-1.924L98.3,85.953c-.444.632-.874,1.268-1.29,1.916" fill="#7a9aa8"/>
        <path id="Trazado_161590" data-name="Trazado 161590" d="M98.3,85.953l-3.453-2.009c.478-.682.968-1.346,1.477-2l3.455,2.009q-.763.982-1.479,2.005" fill="#7d9ead"/>
        <path id="Trazado_161591" data-name="Trazado 161591" d="M99.783,83.948l-3.455-2.009c.584-.752,1.182-1.484,1.8-2.194l3.453,2c-.619.713-1.217,1.446-1.8,2.2" fill="#80a3b2"/>
        <path id="Trazado_161592" data-name="Trazado 161592" d="M101.583,81.75l-3.453-2c.783-.9,1.6-1.766,2.429-2.587l3.453,2.008q-1.254,1.233-2.429,2.584" fill="#84a7b7"/>
        <path id="Trazado_161593" data-name="Trazado 161593" d="M104.012,79.166l-3.453-2.009a37.1,37.1,0,0,1,7.426-5.753l3.453,2.009a37.3,37.3,0,0,0-7.426,5.753" fill="#87abbb"/>
      </g>
    </g>
    <path id="Trazado_161595" data-name="Trazado 161595" d="M48.045,92.334,44.59,90.325,175.91,14.508l3.453,2.009Z" fill="#bfd4db"/>
    <g id="Grupo_90149" data-name="Grupo 90149">
      <g id="Grupo_90148" data-name="Grupo 90148" clip-path="url(#clip-path)">
        <path id="Trazado_161596" data-name="Trazado 161596" d="M179.363,16.517l.256,89.837A7.314,7.314,0,0,1,176.3,112.1L51.637,184.075c-1.835,1.061-3.333.216-3.335-1.9l-.257-89.84Z" fill="#def6ff"/>
        <path id="Trazado_161597" data-name="Trazado 161597" d="M48.3,182.175l-.257-89.841-3.454-2.008.258,89.836a2.329,2.329,0,0,0,.964,2.14q1.732,1,3.453,2.005a2.318,2.318,0,0,1-.964-2.132" fill="#b2ddea"/>
      </g>
    </g>
    <g id="Grupo_90151" data-name="Grupo 90151">
      <g id="Grupo_90150" data-name="Grupo 90150" clip-path="url(#clip-path-11)">
        <path id="Trazado_161598" data-name="Trazado 161598" d="M73.708,73.522l-3.453-2.009a5.146,5.146,0,0,0,1.01-.783l3.455,2.009a5.158,5.158,0,0,1-1.012.783" fill="#87abbb"/>
        <path id="Trazado_161599" data-name="Trazado 161599" d="M74.72,72.739,71.265,70.73c.116-.116.228-.231.334-.351l3.453,2c-.108.124-.216.243-.332.359" fill="#84a7b7"/>
        <path id="Trazado_161600" data-name="Trazado 161600" d="M75.051,72.38l-3.453-2c.083-.1.166-.2.245-.305L75.3,72.083c-.079.1-.164.205-.247.3" fill="#80a3b2"/>
        <path id="Trazado_161601" data-name="Trazado 161601" d="M75.3,72.083l-3.455-2.009c.069-.088.135-.177.2-.27l3.452,2c-.064.093-.13.185-.2.274" fill="#7d9ead"/>
        <path id="Trazado_161602" data-name="Trazado 161602" d="M75.5,71.81l-3.451-2c.056-.089.118-.174.175-.266l3.455,2.009c-.06.092-.119.177-.179.262" fill="#7a9aa8"/>
        <path id="Trazado_161603" data-name="Trazado 161603" d="M75.676,71.548l-3.455-2.009c.052-.081.106-.166.156-.254l3.453,2c-.052.088-.1.173-.154.258" fill="#7696a4"/>
        <path id="Trazado_161604" data-name="Trazado 161604" d="M75.83,71.289l-3.453-2.005c.048-.085.1-.17.143-.254l3.453,2.005c-.047.088-.1.173-.143.254" fill="#73929f"/>
        <path id="Trazado_161605" data-name="Trazado 161605" d="M75.973,71.035,72.52,69.03c.046-.085.089-.174.131-.258l3.453,2c-.041.084-.087.173-.131.258" fill="#708d9a"/>
        <path id="Trazado_161606" data-name="Trazado 161606" d="M76.1,70.776l-3.453-2c.041-.089.083-.177.122-.266l3.454,2.009c-.04.088-.083.173-.123.262" fill="#6c8996"/>
        <path id="Trazado_161607" data-name="Trazado 161607" d="M76.228,70.514,72.772,68.5c.04-.092.075-.181.112-.274l3.453,2c-.037.093-.075.185-.109.278" fill="#698591"/>
        <path id="Trazado_161608" data-name="Trazado 161608" d="M76.338,70.236l-3.454-2c.04-.1.071-.193.1-.289l3.455,2.009c-.035.1-.067.192-.1.285" fill="#65808c"/>
        <path id="Trazado_161609" data-name="Trazado 161609" d="M76.442,69.951l-3.455-2.009c.037-.1.066-.2.1-.308l3.456,2c-.03.1-.063.208-.1.312" fill="#627c88"/>
        <path id="Trazado_161610" data-name="Trazado 161610" d="M76.538,69.639l-3.457-2c.035-.12.062-.235.087-.351l3.453,2.005c-.025.12-.052.235-.083.351" fill="#5f7883"/>
        <path id="Trazado_161611" data-name="Trazado 161611" d="M76.621,69.288l-3.453-2.005c.031-.143.056-.285.073-.424l3.451,2.009a4.142,4.142,0,0,1-.071.42" fill="#5b747e"/>
        <path id="Trazado_161612" data-name="Trazado 161612" d="M76.692,68.868l-3.451-2.009a3.891,3.891,0,0,0,.037-.6A2.13,2.13,0,0,0,72.4,64.31l3.451,2.009a2.125,2.125,0,0,1,.887,1.951,4.22,4.22,0,0,1-.043.6" fill="#586f7a"/>
      </g>
    </g>
    <g id="Grupo_90153" data-name="Grupo 90153">
      <g id="Grupo_90152" data-name="Grupo 90152" clip-path="url(#clip-path-12)">
        <path id="Trazado_161614" data-name="Trazado 161614" d="M73.692,66.531l-3.455-2a3.015,3.015,0,0,1,.426-.212l3.455,2.009a2.78,2.78,0,0,0-.426.208" fill="#b2c5cc"/>
        <path id="Trazado_161615" data-name="Trazado 161615" d="M74.118,66.323l-3.455-2.009a2.7,2.7,0,0,1,.357-.123l3.455,2a2.737,2.737,0,0,0-.357.127" fill="#adc0c7"/>
        <path id="Trazado_161616" data-name="Trazado 161616" d="M74.475,66.2l-3.455-2a2.388,2.388,0,0,1,.27-.062l3.455,2.013a1.677,1.677,0,0,0-.27.054" fill="#a9bbc2"/>
        <path id="Trazado_161617" data-name="Trazado 161617" d="M74.745,66.142,71.29,64.129l.226-.023,3.453,2.013a1.406,1.406,0,0,0-.224.023" fill="#a4b6bd"/>
        <path id="Trazado_161618" data-name="Trazado 161618" d="M74.969,66.119l-3.453-2.013c.066,0,.135,0,.2,0l3.454,2.013a.683.683,0,0,0-.2,0" fill="#a0b1b8"/>
        <path id="Trazado_161619" data-name="Trazado 161619" d="M75.171,66.122l-3.455-2.013c.064,0,.12.012.181.02l3.453,2.012a1.529,1.529,0,0,0-.179-.019" fill="#9bacb3"/>
        <path id="Trazado_161620" data-name="Trazado 161620" d="M75.35,66.142,71.9,64.129c.058.016.114.027.168.042l3.457,2.009a.928.928,0,0,0-.172-.038" fill="#97a7ad"/>
        <path id="Trazado_161621" data-name="Trazado 161621" d="M75.522,66.18l-3.457-2.009a1.245,1.245,0,0,1,.162.058l3.455,2.005c-.052-.019-.106-.039-.16-.054" fill="#93a2a8"/>
        <path id="Trazado_161622" data-name="Trazado 161622" d="M75.682,66.234l-3.455-2.005a.83.83,0,0,1,.154.073l3.455,2.006c-.052-.028-.1-.051-.154-.074" fill="#8e9da3"/>
        <path id="Trazado_161623" data-name="Trazado 161623" d="M75.836,66.308l-3.455-2a.024.024,0,0,0,.016.007l3.451,2.009s-.01-.007-.012-.011" fill="#8a999e"/>
      </g>
    </g>
    <g id="Grupo_90155" data-name="Grupo 90155">
      <g id="Grupo_90154" data-name="Grupo 90154" clip-path="url(#clip-path-13)">
        <path id="Trazado_161625" data-name="Trazado 161625" d="M71.545,73.73,68.09,71.721a2.124,2.124,0,0,1-.89-1.947,4.7,4.7,0,0,1,.04-.594l3.453,2a4.789,4.789,0,0,0-.039.594,2.125,2.125,0,0,0,.891,1.951" fill="#738085"/>
        <path id="Trazado_161626" data-name="Trazado 161626" d="M70.693,71.185l-3.453-2a3.918,3.918,0,0,1,.071-.42l3.451,2c-.025.142-.05.281-.069.42" fill="#78858a"/>
        <path id="Trazado_161627" data-name="Trazado 161627" d="M70.762,70.765l-3.451-2c.023-.116.052-.235.085-.347l3.455,2c-.033.119-.064.231-.089.347" fill="#7c8a8f"/>
        <path id="Trazado_161628" data-name="Trazado 161628" d="M70.851,70.418l-3.455-2c.027-.1.06-.208.095-.309l3.453,2.009c-.035.1-.066.2-.093.305" fill="#818f94"/>
        <path id="Trazado_161629" data-name="Trazado 161629" d="M70.943,70.113,67.49,68.1c.031-.1.066-.193.1-.285l3.453,2c-.038.1-.071.189-.1.289" fill="#859499"/>
        <path id="Trazado_161630" data-name="Trazado 161630" d="M71.047,69.824l-3.453-2c.035-.092.07-.181.112-.274l3.453,2.009c-.041.089-.077.177-.112.27" fill="#8a999e"/>
        <path id="Trazado_161631" data-name="Trazado 161631" d="M71.159,69.554l-3.453-2.009c.037-.088.073-.173.12-.262l3.454,2.005c-.046.088-.085.177-.121.266" fill="#8e9da3"/>
        <path id="Trazado_161632" data-name="Trazado 161632" d="M71.281,69.288l-3.455-2.005c.041-.085.084-.174.13-.262l3.452,2.009c-.045.085-.09.173-.127.258" fill="#93a2a8"/>
        <path id="Trazado_161633" data-name="Trazado 161633" d="M71.408,69.03l-3.451-2.009a2.8,2.8,0,0,1,.139-.251l3.457,2.006c-.053.084-.1.169-.145.254" fill="#97a7ad"/>
        <path id="Trazado_161634" data-name="Trazado 161634" d="M71.552,68.775,68.1,66.77c.054-.089.106-.174.16-.258l3.453,2c-.056.088-.108.169-.156.258" fill="#9bacb3"/>
        <path id="Trazado_161635" data-name="Trazado 161635" d="M71.708,68.517l-3.453-2c.058-.093.114-.177.177-.266l3.453,2.009c-.063.088-.121.173-.177.262" fill="#a0b1b8"/>
        <path id="Trazado_161636" data-name="Trazado 161636" d="M71.886,68.255l-3.453-2.009c.064-.092.13-.185.2-.277l3.451,2.012c-.068.089-.133.181-.2.274" fill="#a4b6bd"/>
        <path id="Trazado_161637" data-name="Trazado 161637" d="M72.084,67.981l-3.451-2.013c.079-.1.162-.2.249-.3l3.453,2.009c-.087.1-.168.2-.251.3" fill="#a9bbc2"/>
        <path id="Trazado_161638" data-name="Trazado 161638" d="M72.335,67.68l-3.453-2.009c.108-.123.216-.243.332-.355l3.455,2c-.116.116-.228.236-.334.359" fill="#adc0c7"/>
        <path id="Trazado_161639" data-name="Trazado 161639" d="M72.669,67.321l-3.455-2a5.062,5.062,0,0,1,1.024-.79l3.455,2a5.153,5.153,0,0,0-1.024.79" fill="#b2c5cc"/>
      </g>
    </g>
    <g id="Grupo_90157" data-name="Grupo 90157">
      <g id="Grupo_90156" data-name="Grupo 90156" clip-path="url(#clip-path-14)">
        <path id="Trazado_161641" data-name="Trazado 161641" d="M68.591,73.541l-3.453-2.009a4.764,4.764,0,0,0,.039-.59A2.123,2.123,0,0,0,64.292,69L67.746,71a2.116,2.116,0,0,1,.885,1.943,4.469,4.469,0,0,1-.04.594" fill="#586f7a"/>
      </g>
    </g>
    <g id="Grupo_90159" data-name="Grupo 90159">
      <g id="Grupo_90158" data-name="Grupo 90158" clip-path="url(#clip-path-15)">
        <path id="Trazado_161643" data-name="Trazado 161643" d="M65.6,78.206,62.142,76.2a5.261,5.261,0,0,0,1.016-.786l3.453,2.008a5.157,5.157,0,0,1-1.014.787" fill="#87abbb"/>
        <path id="Trazado_161644" data-name="Trazado 161644" d="M66.611,77.42l-3.453-2.009c.114-.116.224-.231.332-.355l3.452,2c-.106.128-.219.243-.331.359" fill="#84a7b7"/>
        <path id="Trazado_161645" data-name="Trazado 161645" d="M66.943,77.061l-3.453-2c.083-.1.164-.2.247-.3l3.451,2c-.079.1-.16.2-.245.3" fill="#80a3b2"/>
        <path id="Trazado_161646" data-name="Trazado 161646" d="M67.188,76.761l-3.451-2.005c.069-.093.139-.181.2-.278l3.455,2.009c-.065.093-.137.181-.206.274" fill="#7d9ead"/>
        <path id="Trazado_161647" data-name="Trazado 161647" d="M67.394,76.487l-3.455-2.009c.06-.085.118-.173.178-.262l3.452,2.009c-.059.085-.115.173-.175.262" fill="#7a9aa8"/>
        <path id="Trazado_161648" data-name="Trazado 161648" d="M67.569,76.225l-3.453-2.009c.054-.085.106-.173.156-.258l3.457,2c-.052.088-.1.173-.16.262" fill="#7696a4"/>
        <path id="Trazado_161649" data-name="Trazado 161649" d="M67.729,75.962l-3.457-2c.054-.085.1-.17.145-.258l3.453,2.009c-.045.084-.093.169-.141.254" fill="#73929f"/>
        <path id="Trazado_161650" data-name="Trazado 161650" d="M67.87,75.708,64.417,73.7l.133-.258L68,75.45c-.04.085-.085.173-.131.258" fill="#708d9a"/>
        <path id="Trazado_161651" data-name="Trazado 161651" d="M68,75.45,64.55,73.441c.042-.088.081-.177.12-.266l3.454,2c-.038.093-.079.181-.123.27" fill="#6c8996"/>
        <path id="Trazado_161652" data-name="Trazado 161652" d="M68.125,75.18l-3.455-2c.039-.089.077-.181.112-.274l3.453,2.009c-.033.093-.074.181-.11.27" fill="#698591"/>
        <path id="Trazado_161653" data-name="Trazado 161653" d="M68.234,74.91,64.781,72.9c.037-.1.073-.189.1-.285l3.453,2.005c-.031.1-.065.192-.1.289" fill="#65808c"/>
        <path id="Trazado_161654" data-name="Trazado 161654" d="M68.339,74.621l-3.454-2.005c.033-.1.068-.208.094-.312l3.453,2.008c-.028.105-.059.205-.093.309" fill="#627c88"/>
        <path id="Trazado_161655" data-name="Trazado 161655" d="M68.433,74.312,64.978,72.3a2.64,2.64,0,0,0,.085-.351l3.455,2.009c-.023.116-.05.231-.085.351" fill="#5f7883"/>
        <path id="Trazado_161656" data-name="Trazado 161656" d="M68.518,73.961l-3.455-2.009a3.428,3.428,0,0,0,.075-.42l3.453,2.009c-.017.138-.042.277-.073.42" fill="#5b747e"/>
        <path id="Trazado_161657" data-name="Trazado 161657" d="M68.591,73.541l-3.453-2.009a4.764,4.764,0,0,0,.039-.59A2.123,2.123,0,0,0,64.292,69L67.746,71a2.116,2.116,0,0,1,.885,1.943,4.469,4.469,0,0,1-.04.594" fill="#586f7a"/>
      </g>
    </g>
    <g id="Grupo_90161" data-name="Grupo 90161">
      <g id="Grupo_90160" data-name="Grupo 90160" clip-path="url(#clip-path-16)">
        <path id="Trazado_161659" data-name="Trazado 161659" d="M63.43,78.411l-3.451-2.005c0,.008.008.008.012.012l3.455,2c-.006,0-.012,0-.016-.012" fill="#698591"/>
        <path id="Trazado_161660" data-name="Trazado 161660" d="M63.446,78.422l-3.455-2a1.034,1.034,0,0,0,.158.073L63.6,78.5c-.056-.027-.1-.046-.154-.077" fill="#6c8996"/>
        <path id="Trazado_161661" data-name="Trazado 161661" d="M63.6,78.5,60.149,76.49a.737.737,0,0,0,.158.054l3.453,2.009a1.666,1.666,0,0,1-.16-.054" fill="#708d9a"/>
        <path id="Trazado_161662" data-name="Trazado 161662" d="M63.76,78.554l-3.453-2.009a.941.941,0,0,0,.172.043L63.934,78.6a.85.85,0,0,1-.174-.042" fill="#73929f"/>
        <path id="Trazado_161663" data-name="Trazado 161663" d="M63.933,78.6l-3.455-2.009c.06.008.124.02.185.023l3.453,2a1.366,1.366,0,0,1-.183-.019" fill="#7696a4"/>
        <path id="Trazado_161664" data-name="Trazado 161664" d="M64.117,78.615l-3.454-2a1.669,1.669,0,0,0,.2,0l3.453,2a1.649,1.649,0,0,1-.2,0" fill="#7a9aa8"/>
        <path id="Trazado_161665" data-name="Trazado 161665" d="M64.317,78.615l-3.453-2c.073-.008.148-.012.23-.027L64.547,78.6a1.737,1.737,0,0,1-.23.019" fill="#7d9ead"/>
        <path id="Trazado_161666" data-name="Trazado 161666" d="M64.547,78.6l-3.454-2.009a1.725,1.725,0,0,0,.267-.058l3.453,2.009a1.748,1.748,0,0,1-.266.058" fill="#80a3b2"/>
        <path id="Trazado_161667" data-name="Trazado 161667" d="M64.812,78.538l-3.453-2.009a2.327,2.327,0,0,0,.357-.123l3.453,2.005a2.283,2.283,0,0,1-.357.127" fill="#84a7b7"/>
        <path id="Trazado_161668" data-name="Trazado 161668" d="M65.169,78.411l-3.453-2.005a4.257,4.257,0,0,0,.426-.208L65.6,78.207a3.249,3.249,0,0,1-.428.2" fill="#87abbb"/>
      </g>
    </g>
    <g id="Grupo_90163" data-name="Grupo 90163">
      <g id="Grupo_90162" data-name="Grupo 90162" clip-path="url(#clip-path-17)">
        <path id="Trazado_161670" data-name="Trazado 161670" d="M65.576,71.216l-3.455-2.005c.145-.081.288-.154.43-.216L66.006,71a3.286,3.286,0,0,0-.43.212" fill="#b2c5cc"/>
        <path id="Trazado_161671" data-name="Trazado 161671" d="M66.006,71,62.551,69a2.827,2.827,0,0,1,.357-.12l3.455,2.006a2.7,2.7,0,0,0-.357.123" fill="#adc0c7"/>
        <path id="Trazado_161672" data-name="Trazado 161672" d="M66.362,70.881l-3.455-2a1.984,1.984,0,0,1,.272-.058l3.453,2.009a1.418,1.418,0,0,0-.27.054" fill="#a9bbc2"/>
        <path id="Trazado_161673" data-name="Trazado 161673" d="M66.632,70.826l-3.453-2.009a2.149,2.149,0,0,1,.228-.027L66.86,70.8a1.138,1.138,0,0,0-.228.027" fill="#a4b6bd"/>
        <path id="Trazado_161674" data-name="Trazado 161674" d="M66.86,70.8,63.407,68.79a1.712,1.712,0,0,1,.2,0L67.062,70.8c-.069,0-.133,0-.2,0" fill="#a0b1b8"/>
        <path id="Trazado_161675" data-name="Trazado 161675" d="M67.062,70.8l-3.453-2.009a1.56,1.56,0,0,1,.182.023l3.452,2.009a.974.974,0,0,0-.181-.023" fill="#9bacb3"/>
        <path id="Trazado_161676" data-name="Trazado 161676" d="M67.244,70.826l-3.453-2.009a1.357,1.357,0,0,1,.174.039l3.454,2a1.232,1.232,0,0,0-.175-.035" fill="#97a7ad"/>
        <path id="Trazado_161677" data-name="Trazado 161677" d="M67.419,70.861l-3.455-2a1.468,1.468,0,0,1,.16.058l3.453,2c-.05-.02-.1-.039-.158-.058" fill="#93a2a8"/>
        <path id="Trazado_161678" data-name="Trazado 161678" d="M67.577,70.919l-3.453-2a1.163,1.163,0,0,1,.151.073l3.455,2c-.049-.023-.1-.05-.153-.073" fill="#8e9da3"/>
        <path id="Trazado_161679" data-name="Trazado 161679" d="M67.729,70.992l-3.455-2a.157.157,0,0,1,.018.008L67.746,71l-.017-.012" fill="#8a999e"/>
      </g>
    </g>
    <g id="Grupo_90165" data-name="Grupo 90165">
      <g id="Grupo_90164" data-name="Grupo 90164" clip-path="url(#clip-path-18)">
        <path id="Trazado_161681" data-name="Trazado 161681" d="M63.43,78.411l-3.451-2.005a2.121,2.121,0,0,1-.892-1.951,4.165,4.165,0,0,1,.04-.594l3.449,2.009a5.762,5.762,0,0,0-.035.594,2.116,2.116,0,0,0,.889,1.947" fill="#738085"/>
        <path id="Trazado_161682" data-name="Trazado 161682" d="M62.576,75.87l-3.449-2.009c.017-.139.041-.277.072-.42l3.45,2.009c-.029.138-.054.281-.073.42" fill="#78858a"/>
        <path id="Trazado_161683" data-name="Trazado 161683" d="M62.649,75.45,59.2,73.441c.023-.116.052-.231.083-.347L62.736,75.1c-.033.12-.062.231-.087.347" fill="#7c8a8f"/>
        <path id="Trazado_161684" data-name="Trazado 161684" d="M62.736,75.1l-3.455-2.009c.031-.1.062-.2.1-.3l3.452,2c-.032.1-.065.208-.094.308" fill="#818f94"/>
        <path id="Trazado_161685" data-name="Trazado 161685" d="M62.83,74.794l-3.453-2c.033-.1.066-.193.1-.289l3.452,2.009c-.034.092-.069.192-.1.285" fill="#859499"/>
        <path id="Trazado_161686" data-name="Trazado 161686" d="M62.933,74.509,59.48,72.5c.033-.088.073-.181.11-.27l3.453,2.009c-.039.089-.075.177-.11.27" fill="#8a999e"/>
        <path id="Trazado_161687" data-name="Trazado 161687" d="M63.043,74.239,59.59,72.23c.039-.088.079-.177.12-.262l3.454,2c-.042.089-.085.181-.121.27" fill="#8e9da3"/>
        <path id="Trazado_161688" data-name="Trazado 161688" d="M63.164,73.969l-3.455-2c.044-.089.089-.173.135-.262l3.449,2.012c-.04.081-.087.166-.129.251" fill="#93a2a8"/>
        <path id="Trazado_161689" data-name="Trazado 161689" d="M63.293,73.718l-3.449-2.013c.044-.084.09-.166.141-.254l3.451,2.009c-.049.08-.1.169-.143.258" fill="#97a7ad"/>
        <path id="Trazado_161690" data-name="Trazado 161690" d="M63.436,73.46l-3.451-2.009c.052-.088.1-.173.154-.258L63.594,73.2l-.158.258" fill="#9bacb3"/>
        <path id="Trazado_161691" data-name="Trazado 161691" d="M63.594,73.2l-3.455-2.009c.062-.089.118-.173.177-.262l3.453,2c-.057.089-.117.177-.175.266" fill="#a0b1b8"/>
        <path id="Trazado_161692" data-name="Trazado 161692" d="M63.769,72.936l-3.453-2c.064-.092.133-.185.2-.274l3.453,2.009c-.069.089-.138.181-.2.27" fill="#a4b6bd"/>
        <path id="Trazado_161693" data-name="Trazado 161693" d="M63.974,72.666l-3.453-2.009c.081-.1.164-.2.247-.3l3.453,2c-.083.1-.166.2-.247.305" fill="#a9bbc2"/>
        <path id="Trazado_161694" data-name="Trazado 161694" d="M64.22,72.361l-3.453-2c.108-.124.22-.243.336-.355l3.453,2c-.116.112-.228.235-.336.355" fill="#adc0c7"/>
        <path id="Trazado_161695" data-name="Trazado 161695" d="M64.556,72.006,61.1,70a4.943,4.943,0,0,1,1.018-.79l3.455,2.005a5.308,5.308,0,0,0-1.02.79" fill="#b2c5cc"/>
      </g>
    </g>
    <g id="Grupo_90167" data-name="Grupo 90167">
      <g id="Grupo_90166" data-name="Grupo 90166" clip-path="url(#clip-path-19)">
        <path id="Trazado_161697" data-name="Trazado 161697" d="M60.478,78.222l-3.453-2a4.8,4.8,0,0,0,.041-.594,2.125,2.125,0,0,0-.887-1.943l3.455,2a2.127,2.127,0,0,1,.883,1.947,4.373,4.373,0,0,1-.039.59" fill="#586f7a"/>
      </g>
    </g>
    <g id="Grupo_90169" data-name="Grupo 90169">
      <g id="Grupo_90168" data-name="Grupo 90168" clip-path="url(#clip-path-20)">
        <path id="Trazado_161699" data-name="Trazado 161699" d="M57.484,82.888l-3.459-2.009a5.073,5.073,0,0,0,1.02-.786L58.5,82.1a5.192,5.192,0,0,1-1.016.787" fill="#87abbb"/>
        <path id="Trazado_161700" data-name="Trazado 161700" d="M58.5,82.1l-3.455-2.009c.114-.112.224-.228.33-.351l3.455,2.005c-.108.124-.22.243-.33.355" fill="#84a7b7"/>
        <path id="Trazado_161701" data-name="Trazado 161701" d="M58.83,81.746l-3.455-2.005c.085-.1.168-.2.249-.305l3.453,2.005c-.081.1-.162.209-.247.305" fill="#80a3b2"/>
        <path id="Trazado_161702" data-name="Trazado 161702" d="M59.077,81.441l-3.453-2.005c.069-.089.139-.177.2-.27l3.452,2c-.063.093-.133.185-.2.27" fill="#7d9ead"/>
        <path id="Trazado_161703" data-name="Trazado 161703" d="M59.281,81.172l-3.453-2L56,78.9l3.455,2c-.061.088-.117.177-.177.266" fill="#7a9aa8"/>
        <path id="Trazado_161704" data-name="Trazado 161704" d="M59.459,80.906,56,78.9c.052-.089.106-.173.158-.258l3.451,2.005c-.052.088-.1.173-.154.258" fill="#7696a4"/>
        <path id="Trazado_161705" data-name="Trazado 161705" d="M59.613,80.647l-3.451-2.005c.048-.089.1-.169.143-.258l3.448,2c-.044.088-.088.173-.14.258" fill="#73929f"/>
        <path id="Trazado_161706" data-name="Trazado 161706" d="M59.753,80.389l-3.449-2c.046-.085.087-.174.129-.262l3.455,2.009c-.044.088-.085.177-.135.258" fill="#708d9a"/>
        <path id="Trazado_161707" data-name="Trazado 161707" d="M59.889,80.131l-3.455-2.009a2.829,2.829,0,0,0,.122-.262l3.452,2c-.038.089-.073.181-.119.266" fill="#6c8996"/>
        <path id="Trazado_161708" data-name="Trazado 161708" d="M60.008,79.864l-3.453-2c.041-.092.081-.181.114-.274l3.455,2.009c-.035.093-.074.185-.116.27" fill="#698591"/>
        <path id="Trazado_161709" data-name="Trazado 161709" d="M60.124,79.6l-3.455-2.009c.035-.1.07-.189.1-.289l3.455,2.009c-.034.1-.067.193-.1.289" fill="#65808c"/>
        <path id="Trazado_161710" data-name="Trazado 161710" d="M60.226,79.305,56.771,77.3c.035-.1.07-.2.1-.3l3.455,2c-.029.1-.06.212-.095.312" fill="#627c88"/>
        <path id="Trazado_161711" data-name="Trazado 161711" d="M60.321,78.993l-3.455-2c.031-.12.062-.236.087-.355l3.453,2.009c-.025.115-.054.231-.085.347" fill="#5f7883"/>
        <path id="Trazado_161712" data-name="Trazado 161712" d="M60.4,78.646l-3.453-2.009c.029-.139.052-.281.073-.42l3.453,2c-.019.142-.044.285-.073.424" fill="#5b747e"/>
        <path id="Trazado_161713" data-name="Trazado 161713" d="M60.478,78.222l-3.453-2a4.8,4.8,0,0,0,.041-.594,2.125,2.125,0,0,0-.887-1.943l3.455,2a2.127,2.127,0,0,1,.883,1.947,4.373,4.373,0,0,1-.039.59" fill="#586f7a"/>
      </g>
    </g>
    <g id="Grupo_90171" data-name="Grupo 90171">
      <g id="Grupo_90170" data-name="Grupo 90170" clip-path="url(#clip-path-21)">
        <path id="Trazado_161715" data-name="Trazado 161715" d="M57.463,75.9,54.01,73.892a4.407,4.407,0,0,1,.424-.212l3.455,2c-.139.062-.281.135-.426.216" fill="#b2c5cc"/>
        <path id="Trazado_161716" data-name="Trazado 161716" d="M57.889,75.685l-3.455-2a3.109,3.109,0,0,1,.363-.123l3.452,2.008a2.867,2.867,0,0,0-.36.12" fill="#adc0c7"/>
        <path id="Trazado_161717" data-name="Trazado 161717" d="M58.25,75.565,54.8,73.556c.089-.023.18-.042.27-.058l3.453,2.009a1.84,1.84,0,0,0-.27.058" fill="#a9bbc2"/>
        <path id="Trazado_161718" data-name="Trazado 161718" d="M58.52,75.507,55.067,73.5c.075-.011.15-.019.224-.023l3.455,2.009c-.074,0-.151.012-.226.023" fill="#a4b6bd"/>
        <path id="Trazado_161719" data-name="Trazado 161719" d="M58.745,75.484,55.29,73.475c.07,0,.139,0,.2,0l3.455,2.009a1.7,1.7,0,0,0-.2,0" fill="#a0b1b8"/>
        <path id="Trazado_161720" data-name="Trazado 161720" d="M58.948,75.488l-3.455-2.009c.064,0,.124.012.185.019l3.453,2.009a1,1,0,0,0-.183-.019" fill="#9bacb3"/>
        <path id="Trazado_161721" data-name="Trazado 161721" d="M59.131,75.507,55.678,73.5c.06.012.114.027.172.043l3.453,2c-.056-.012-.11-.027-.172-.035" fill="#97a7ad"/>
        <path id="Trazado_161722" data-name="Trazado 161722" d="M59.3,75.542l-3.453-2c.054.015.106.035.158.054L59.464,75.6a1.473,1.473,0,0,0-.162-.062" fill="#93a2a8"/>
        <path id="Trazado_161723" data-name="Trazado 161723" d="M59.465,75.6,56.008,73.6c.056.023.1.051.156.077l3.453,2.005c-.052-.027-.1-.05-.152-.073" fill="#8e9da3"/>
        <path id="Trazado_161724" data-name="Trazado 161724" d="M59.617,75.677l-3.453-2.005s.01,0,.016.008l3.454,2a.025.025,0,0,1-.017-.008" fill="#8a999e"/>
      </g>
    </g>
    <g id="Grupo_90173" data-name="Grupo 90173">
      <g id="Grupo_90172" data-name="Grupo 90172" clip-path="url(#clip-path-22)">
        <path id="Trazado_161726" data-name="Trazado 161726" d="M55.315,83.1,51.862,81.09a2.127,2.127,0,0,1-.892-1.951,4.155,4.155,0,0,1,.044-.593l3.451,2.008a4.785,4.785,0,0,0-.041.59,2.141,2.141,0,0,0,.891,1.955" fill="#738085"/>
        <path id="Trazado_161727" data-name="Trazado 161727" d="M54.465,80.555l-3.451-2.009c.018-.139.041-.278.068-.42l3.454,2.009c-.027.138-.054.281-.071.42" fill="#78858a"/>
        <path id="Trazado_161728" data-name="Trazado 161728" d="M54.537,80.134l-3.455-2.009c.027-.116.056-.228.089-.347l3.451,2.009c-.031.116-.058.235-.085.347" fill="#7c8a8f"/>
        <path id="Trazado_161729" data-name="Trazado 161729" d="M54.621,79.787,51.17,77.778c.027-.1.058-.2.093-.308l3.453,2.008c-.035.1-.068.209-.1.309" fill="#818f94"/>
        <path id="Trazado_161730" data-name="Trazado 161730" d="M54.716,79.479,51.263,77.47c.031-.092.064-.189.1-.281l3.455,2c-.04.1-.073.193-.106.289" fill="#859499"/>
        <path id="Trazado_161731" data-name="Trazado 161731" d="M54.822,79.19l-3.455-2c.033-.093.071-.185.112-.274l3.451,2c-.037.089-.075.181-.108.27" fill="#8a999e"/>
        <path id="Trazado_161732" data-name="Trazado 161732" d="M54.93,78.92l-3.451-2c.037-.089.075-.177.12-.262l3.452,2c-.042.085-.083.173-.121.262" fill="#8e9da3"/>
        <path id="Trazado_161733" data-name="Trazado 161733" d="M55.051,78.658l-3.453-2c.043-.089.083-.177.129-.258L55.18,78.4c-.044.085-.088.169-.129.258" fill="#93a2a8"/>
        <path id="Trazado_161734" data-name="Trazado 161734" d="M55.181,78.4l-3.454-2.005c.048-.089.093-.174.145-.258l3.453,2c-.054.084-.1.169-.144.258" fill="#97a7ad"/>
        <path id="Trazado_161735" data-name="Trazado 161735" d="M55.325,78.141l-3.453-2c.048-.085.1-.174.156-.259l3.453,2.01c-.054.084-.106.169-.156.254" fill="#9bacb3"/>
        <path id="Trazado_161736" data-name="Trazado 161736" d="M55.481,77.887l-3.453-2.009c.056-.085.114-.173.176-.262l3.454,2.005c-.063.088-.119.177-.177.266" fill="#a0b1b8"/>
        <path id="Trazado_161737" data-name="Trazado 161737" d="M55.659,77.62,52.2,75.615c.066-.092.131-.185.2-.274L55.86,77.35c-.072.089-.137.177-.2.27" fill="#a4b6bd"/>
        <path id="Trazado_161738" data-name="Trazado 161738" d="M55.859,77.351,52.4,75.342c.081-.1.164-.2.251-.3l3.455,2c-.089.1-.172.2-.251.305" fill="#a9bbc2"/>
        <path id="Trazado_161739" data-name="Trazado 161739" d="M56.11,77.046l-3.455-2c.106-.123.218-.243.332-.355l3.453,2.005c-.114.116-.224.232-.33.355" fill="#adc0c7"/>
        <path id="Trazado_161740" data-name="Trazado 161740" d="M56.439,76.691l-3.453-2.005a4.976,4.976,0,0,1,1.024-.794L57.463,75.9a5.175,5.175,0,0,0-1.024.79" fill="#b2c5cc"/>
      </g>
    </g>
    <g id="Grupo_90175" data-name="Grupo 90175">
      <g id="Grupo_90174" data-name="Grupo 90174" clip-path="url(#clip-path)">
        <path id="Trazado_161742" data-name="Trazado 161742" d="M175.987,2.463c1.839-1.06,3.336-.208,3.339,1.9l.037,12.154L48.045,92.334l-.036-12.149a7.3,7.3,0,0,1,3.316-5.745ZM65.6,78.207a6.714,6.714,0,0,0,3.035-5.26c0-1.931-1.377-2.7-3.056-1.731a6.669,6.669,0,0,0-3.034,5.248c0,1.928,1.374,2.707,3.055,1.743m-8.112,4.681a6.708,6.708,0,0,0,3.032-5.256c-.006-1.931-1.373-2.7-3.054-1.731a6.682,6.682,0,0,0-3.038,5.244c.006,1.932,1.38,2.71,3.06,1.743m16.223-9.366a6.686,6.686,0,0,0,3.027-5.252c-.006-1.931-1.365-2.707-3.043-1.739a6.679,6.679,0,0,0-3.038,5.248c.006,1.928,1.377,2.711,3.054,1.743" fill="#a9d6ea"/>
        <path id="Trazado_161743" data-name="Trazado 161743" d="M73.692,66.531c1.675-.968,3.037-.193,3.042,1.739a6.685,6.685,0,0,1-3.026,5.252c-1.678.968-3.049.185-3.054-1.743a6.679,6.679,0,0,1,3.038-5.248" fill="#5fb7dd"/>
        <path id="Trazado_161744" data-name="Trazado 161744" d="M65.576,71.216c1.679-.968,3.046-.2,3.056,1.731a6.711,6.711,0,0,1-3.035,5.26c-1.681.963-3.054.184-3.055-1.743a6.669,6.669,0,0,1,3.034-5.248" fill="#5fb7dd"/>
        <path id="Trazado_161745" data-name="Trazado 161745" d="M57.463,75.9c1.681-.968,3.048-.2,3.054,1.731a6.709,6.709,0,0,1-3.033,5.256c-1.679.968-3.054.189-3.059-1.743A6.682,6.682,0,0,1,57.463,75.9" fill="#5fb7dd"/>
        <path id="Trazado_161746" data-name="Trazado 161746" d="M48.045,92.334,44.59,90.325l-.032-12.153,3.45,2.013Z" fill="#5fb7dd"/>
        <path id="Trazado_161747" data-name="Trazado 161747" d="M176.72,2.143a2.27,2.27,0,0,1,.549-.119.2.2,0,0,1,.043-.008,1.88,1.88,0,0,1,.54.031.044.044,0,0,1,.021,0,1.69,1.69,0,0,1,.488.182c-.01,0-.018,0-.018-.012L174.888.215a1.219,1.219,0,0,0-.171-.081,1.138,1.138,0,0,0-.176-.061.523.523,0,0,0-.117-.027A.088.088,0,0,0,174.4.038l-.043-.012c-.063-.008-.133-.019-.2-.023a1.981,1.981,0,0,0-.218,0,.479.479,0,0,0-.073.008.286.286,0,0,0-.05.007c-.043,0-.083,0-.126.008-.094.016-.192.039-.291.066a.836.836,0,0,0-.125.042c-.037.012-.079.027-.122.039s-.094.034-.144.054a4.151,4.151,0,0,0-.467.227L47.874,72.431a5.919,5.919,0,0,0-.629.432c-.065.053-.134.123-.2.185-.094.081-.187.154-.277.246-.043.043-.08.089-.122.128s-.079.081-.117.123-.083.085-.126.131c-.092.112-.183.22-.27.332-.031.038-.06.081-.09.119a.672.672,0,0,1-.047.066c-.029.038-.058.077-.084.116-.066.092-.131.192-.195.289s-.114.185-.168.281c-.008.008-.012.019-.019.023l-.006.016c-.044.081-.091.162-.135.239-.05.1-.1.189-.141.285s-.084.174-.123.262l0,.012a.02.02,0,0,0-.008.015c-.042.1-.081.2-.121.3s-.079.205-.116.316c-.017.046-.029.1-.046.151l-.023.069c-.008.042-.023.077-.033.116-.035.127-.065.254-.094.382-.018.077-.024.154-.039.227l-.019.12a.993.993,0,0,0-.019.111,4.669,4.669,0,0,0-.043.648l3.451,2.013a5.225,5.225,0,0,1,.063-.764c.006-.038.016-.081.022-.119a6.83,6.83,0,0,1,.166-.729.376.376,0,0,1,.021-.062,6.877,6.877,0,0,1,.289-.782.2.2,0,0,1,.012-.028,6.442,6.442,0,0,1,.389-.763.28.28,0,0,0,.012-.035,8.176,8.176,0,0,1,.464-.7.687.687,0,0,0,.045-.07c.156-.2.32-.4.489-.586.035-.034.072-.073.106-.112.137-.142.282-.269.424-.393.062-.058.124-.116.187-.17a4.891,4.891,0,0,1,.627-.431L175.987,2.463a4.03,4.03,0,0,1,.615-.282c.043-.011.08-.026.118-.038" fill="#95c4de"/>
        <path id="Trazado_161748" data-name="Trazado 161748" d="M64.753,95.689l.008,3.05,101.7-58.713-.01-3.05Z" fill="#a9d6ea"/>
        <path id="Trazado_161749" data-name="Trazado 161749" d="M64.753,108.1l.008,3.046,101.7-58.709-.01-3.053Z" fill="#a9d6ea"/>
        <path id="Trazado_161750" data-name="Trazado 161750" d="M64.753,120.52l.008,3.05,101.7-58.716-.01-3.05Z" fill="#a9d6ea"/>
        <path id="Trazado_161751" data-name="Trazado 161751" d="M64.753,132.932l.008,3.05,101.7-58.717-.01-3.045Z" fill="#a9d6ea"/>
        <path id="Trazado_161752" data-name="Trazado 161752" d="M64.753,145.348l.008,3.05,101.7-58.717-.01-3.049Z" fill="#a9d6ea"/>
        <path id="Trazado_161753" data-name="Trazado 161753" d="M64.753,157.76l.008,3.05,101.7-58.712-.01-3.051Z" fill="#a9d6ea"/>
        <path id="Trazado_161754" data-name="Trazado 161754" d="M141.848,89.851a4.993,4.993,0,0,0-4.636-2.687,3.892,3.892,0,0,0,4.636,2.687" fill="#131c24"/>
        <path id="Trazado_161755" data-name="Trazado 161755" d="M138.451,85.8s-2.917,3.709-3.181,4.689-1.489,5.12.545,7.954c1.1,1.531,1.729-.6,2.039-3.377.141-1.254-.027-2.221,1.64-3.563a14.6,14.6,0,0,0,3.079-3.964c.514-1.03-4.122-1.739-4.122-1.739" fill="#efb185"/>
        <path id="Trazado_161756" data-name="Trazado 161756" d="M142.51,87.757c-.515,1.026-2,2.8-2.233,4.326-.289,1.832-2.282,1.728-2.423,2.981-.244,2.159-.733,3.96-1.412,3.906.307-1.627-1.588-2.881.48-6.655a27.058,27.058,0,0,1,4.644-5.4c.825.4,1.142.436.944.841" fill="#e6a376"/>
        <path id="Trazado_161757" data-name="Trazado 161757" d="M141.359,86.89s-.626,5.279-1.051,6.848-1.379,2.487-1.565,2.144.8-5.07-.914-4.955c-.911.062,3.272-3.3,3.53-4.037" fill="#efb185"/>
        <path id="Trazado_161758" data-name="Trazado 161758" d="M154.16,44.306s-5.3-1.23-7.5,9.3-2.2,14.641-3.757,18.25-5.69,15.311-5.69,15.311,3.351.174,4.636,2.688c0,0,8.693-14.455,10.407-20.821s7.416-21.805,1.906-24.724" fill="#5fb9e6"/>
        <path id="Trazado_161759" data-name="Trazado 161759" d="M142.9,71.852c1.553-3.609,1.551-7.715,3.756-18.25,1.2-5.721,3.308-7.969,4.99-8.825,5,3.308-.514,18.288-2.2,24.538-1.283,4.766-6.312,14.49-8.784,19.125a6.162,6.162,0,0,0-3.455-1.276s4.137-11.7,5.69-15.312" fill="#77d2ff"/>
        <path id="Trazado_161760" data-name="Trazado 161760" d="M159.455,146.173s1.408,3.289,0,4.126c-1.411.852-1.6,1.789-3.852,1.6s-1.929.563-2.7,1.407-8.751,4.323-10.257,2.63,2.72-3.675,4.223-4.658,5.076-4.924,5.169-6.05,7.42.941,7.42.941" fill="#111114"/>
        <path id="Trazado_161761" data-name="Trazado 161761" d="M159.455,150.3c-1.411.852-1.6,1.789-3.852,1.6s-1.929.563-2.7,1.407-8.751,4.323-10.257,2.63a1.255,1.255,0,0,1,.129-1.785c.551.1,1.326.243,2.339.416,2.349.409,5.374-2.3,6.54-3.3s2.642-.613,4.659-.949,1.734-3.416,1.734-3.416l1.493-.516c.278.732,1.112,3.2-.082,3.913" fill="#0a0a0a"/>
        <path id="Trazado_161762" data-name="Trazado 161762" d="M173.69,156.842s.6,3.883-.9,5.988-4.777,5.741-6.2,5.576-1.642-.8-1.642-.8a14.228,14.228,0,0,1,.444-6.312,20.143,20.143,0,0,0,1.123-4.45Z" fill="#111114"/>
        <path id="Trazado_161763" data-name="Trazado 161763" d="M172.792,162.83c-1.313,1.847-4.012,4.878-5.6,5.475,2.1-2.706-1.054-2.144,1.324-3.431,3.256-1.774,1.172-3.251,2.628-3.663s.389-4.01.389-4.01l.79-.359h1.369s.6,3.883-.9,5.988" fill="#0a0a0a"/>
        <path id="Trazado_161764" data-name="Trazado 161764" d="M156.418,93.637s-6.708-.725-8.944-5.691a163.327,163.327,0,0,0,.741,23.659c1.362,12.7,2.48,35.046,2.48,35.046s4.339,4.091,8.821,0c0,0,1.26-14.753,0-22.927,0,0,.843-14.309-.557-21.465s-2.541-8.622-2.541-8.622" fill="#5e43cf"/>
        <path id="Trazado_161765" data-name="Trazado 161765" d="M150.7,146.651s-1.118-22.344-2.48-35.045a201.892,201.892,0,0,1-.892-25.318c1.639,3.64,5.829,6.659,7.865,7.126-.158,4.854-.611,19.144-.539,23.894.069,4.523.954,23.247,1.33,31.109a7.1,7.1,0,0,1-5.284-1.766" fill="#7b65d8"/>
        <path id="Trazado_161766" data-name="Trazado 161766" d="M172.18,92.874s.643,7.426.785,18.974.978,15.894,1.258,17.664,1.263,21.091.7,26.732c0,0-3.645,5.63-9.39,0,0,0-.977-19.807-1.958-24.314s-6.469-26.409-8.684-34.267c-.975-3.47-1.209-4.789-1.209-4.789s9.666,6.952,18.495,0" fill="#5e43cf"/>
        <path id="Trazado_161767" data-name="Trazado 161767" d="M165.537,156.244s-.977-19.807-1.959-24.315-6.469-26.408-8.683-34.266a18.343,18.343,0,0,0-3.244-6.143S158,95.974,163.5,95.958c.241,1.7,2.57,17.864,3.117,24.936.537,7.006,5.334,31.664,4.047,37.849-1.416.042-3.145-.563-5.126-2.5" fill="#7b65d8"/>
        <path id="Trazado_161768" data-name="Trazado 161768" d="M165.865,46.778s9.879,5.953,10.075,6.759,2.729,2.892-1.711,11.626c0,0-5.78,9.416-3.919,19.367a61.372,61.372,0,0,0,2.191,8.818s-5.022,6.424-17.471.822c-2.516-1.134-6.6-4.959-7.707-7.882a66.669,66.669,0,0,0,.874-18.141c-.9-9.879-.909-22.611,4.748-23.9,0,0,1.536-1.6,12.92,2.533" fill="#77d2ff"/>
        <path id="Trazado_161769" data-name="Trazado 161769" d="M165.027,38.183s-2.374,5.194.578,7.993c1.645,1.562-.933,6.281-6.513,6.8,0,0-2.563-.228-2.449-1.157.252-2.121-.736-3.142-1.858-4.565s10.242-9.069,10.242-9.069" fill="#efb185"/>
        <path id="Trazado_161770" data-name="Trazado 161770" d="M165.6,46.176a1.435,1.435,0,0,1,.4.686c-2.4-1.789-6.4-1.334-6.4-1.334l4.354-6.616c.188-.131.348-.247.492-.343l.237.493c-.526,1.6-1.288,5.024.913,7.114" fill="#dd9569"/>
        <path id="Trazado_161771" data-name="Trazado 161771" d="M165.767,35.361s-.384,6.447-4.234,9.936c-3.417,3.1-7.589,5.429-9.11,1.018-1.2-3.508-4.4-12.423-1.5-14.756,3.744-3.019,4.788-6.185,9.81-5.167,0,0,5.817,1.654,5.029,8.969" fill="#efb185"/>
        <path id="Trazado_161772" data-name="Trazado 161772" d="M165.767,35.361a14.161,14.161,0,0,1-4.2,10.017,18.373,18.373,0,0,1-3.3,2.476,17.318,17.318,0,0,0,3.175-4.323c1.27-2.039-2.482-.748-.557-5.772.654-1.708-3.431,1-4.424,1.13-5.875.752-5.954-2.664-6.289-4.068a9.971,9.971,0,0,1,.22-1.808l.387-1.146c.054-.107.1-.211.154-.308a19.421,19.421,0,0,1,1.573-2.383c2.518-.335,9.664-1.284,9.813-1.272.1.007,1.58,1.484,2.967,2.892a9.705,9.705,0,0,1,.486,4.565" fill="#e6a376"/>
        <path id="Trazado_161773" data-name="Trazado 161773" d="M164.131,41.8s4.068-5.086,1.456-11.078a7.373,7.373,0,0,0-7.329-4.685c-2.718.093-7.334,1.238-8.532,6.929-.371,1.782.141,5.2,6.466,2.468.9-.4,3.356-1.11,4.366-.447a3.479,3.479,0,0,1,1.109,3.489c-.2,1.176.807,1.142.9.887s.861-3.647,2.254-2.583c1.251.956-.611,4.785-.694,5.02" fill="#341c09"/>
        <path id="Trazado_161774" data-name="Trazado 161774" d="M164.131,41.8c.083-.235,1.945-4.064.694-5.02-1.393-1.064-2.162,2.321-2.254,2.583s-1.1.289-.9-.887a3.479,3.479,0,0,0-1.109-3.489c-.915-.606-3.059.108-4.366.447.98-.864,3.126-1.453,3.619-3.393.657-2.6,1.946-3.964,3.264-4.608a7.633,7.633,0,0,1,2.512,3.289c2.612,5.992-1.456,11.078-1.456,11.078" fill="#221101"/>
        <path id="Trazado_161775" data-name="Trazado 161775" d="M146.55,32.287s2.649,6.651,9.961,3.289a8.886,8.886,0,0,0,4.652-5.39,3.534,3.534,0,0,1,2.178-2.534s-2.484-2.571-7.694-1.388c-2.454.563-4.646,3.366-5.218,3.856s-1.854,2.348-3.879,2.167" fill="#341c09"/>
        <path id="Trazado_161776" data-name="Trazado 161776" d="M175.94,53.537c.207.806,2.729,2.892-1.711,11.625,0,0-5.78,9.416-3.92,19.368a61.423,61.423,0,0,0,2.191,8.818s-2.5,3.17-8.318,3.1c-1.427-8.548.253-23.643,1.068-34.05.528-6.7,3.767-10.234,6.393-12.023,2.2,1.419,4.209,2.8,4.3,3.162" fill="#5fb9e6"/>
        <path id="Trazado_161777" data-name="Trazado 161777" d="M154.706,55.334s.245-4.145,1-4.9-.063-2.032-.864-1.049a6.1,6.1,0,0,0-1.081,2.383s-.765-4.792.6-5.363-3.807-.108-4.551,2.151-1.974,4.6,2.092,9.015a4.164,4.164,0,0,0,2.807-2.232" fill="#e6a376"/>
        <path id="Trazado_161778" data-name="Trazado 161778" d="M170.988,53.182c2.736-1.565,8.076-.316,5.284,6.516S161.4,82.243,157.656,81.877s-2.378-7.858.588-12.211,10.182-15.011,12.744-16.484" fill="#5fb9e6"/>
        <path id="Trazado_161779" data-name="Trazado 161779" d="M156.581,81.654s-6.966-8.741-6.16-25.668c0,0,2.025,1.025,4.494-.987,0,0,10.63,29.427,1.666,26.655" fill="#5fb9e6"/>
      </g>
    </g>
  </g>
</svg>
