<svg xmlns="http://www.w3.org/2000/svg" xmlns:xlink="http://www.w3.org/1999/xlink" width="313" height="382.895" viewBox="0 0 313 382.895">
  <defs>
    <linearGradient id="linear-gradient" x1="0.399" y1="0.741" x2="0.782" y2="0.003" gradientUnits="objectBoundingBox">
      <stop offset="0" stop-color="#965cf2"/>
      <stop offset="1" stop-color="#ff8adc"/>
    </linearGradient>
    <linearGradient id="linear-gradient-2" x1="0.39" y1="0.766" x2="0.778" y2="0.019" xlink:href="#linear-gradient"/>
    <linearGradient id="linear-gradient-3" x1="0.385" y1="0.705" x2="0.69" y2="0.116" xlink:href="#linear-gradient"/>
    <linearGradient id="linear-gradient-4" x1="0.421" y1="0.69" x2="0.658" y2="0.121" xlink:href="#linear-gradient"/>
    <linearGradient id="linear-gradient-5" x1="0.432" y1="0.696" x2="0.597" y2="0.22" gradientUnits="objectBoundingBox">
      <stop offset="0" stop-color="#a77ef7"/>
      <stop offset="1" stop-color="#5e65d6"/>
    </linearGradient>
    <linearGradient id="linear-gradient-6" x1="0.605" y1="0.534" x2="0.297" y2="-0.059" gradientUnits="objectBoundingBox">
      <stop offset="0" stop-color="#ff8a78"/>
      <stop offset="1" stop-color="#ffa799"/>
    </linearGradient>
    <linearGradient id="linear-gradient-7" x1="0.485" y1="0.44" x2="0.44" y2="0.659" gradientUnits="objectBoundingBox">
      <stop offset="0" stop-color="#ffb89e"/>
      <stop offset="1" stop-color="#ffa799"/>
    </linearGradient>
    <linearGradient id="linear-gradient-8" x1="0.558" y1="0.429" x2="0.305" y2="0.659" xlink:href="#linear-gradient-6"/>
    <linearGradient id="linear-gradient-9" x1="0.597" y1="0.241" x2="0.312" y2="0.78" xlink:href="#linear-gradient-7"/>
  </defs>
  <g id="Grupo_86672" data-name="Grupo 86672" transform="translate(-306 -1139)">
    <path id="Trazado_152103" data-name="Trazado 152103" d="M963.608,4104.723c-71.066-41.083-133.039-137.974-138.482-216.49-5.429-78.47,47.735-108.842,118.8-67.756,71.014,41.052,133.039,138.017,138.47,216.486C1087.833,4115.479,1034.623,4145.778,963.608,4104.723Z" transform="translate(-487.26 -2663.161)" fill="#d8fdff" fill-rule="evenodd"/>
    <g id="Grupo_86662" data-name="Grupo 86662" transform="translate(-286.837 -2462.283)">
      <g id="Grupo_86650" data-name="Grupo 86650" transform="translate(673.344 3601.283)">
        <g id="Grupo_86628" data-name="Grupo 86628" transform="translate(47.528 24.711)">
          <g id="Grupo_86625" data-name="Grupo 86625">
            <path id="Trazado_152033" data-name="Trazado 152033" d="M929.545,4117.155l-113.455-64.8c-4.211-1.925-10.4-3.74-14.527-1.224L791,4057.571c-2.126,1.3-9.116,5.594-4.441,8.136,13.755,7.48,101.643,58.83,115.611,66.429,2.642,1.437,6.506,1.957,10.563,1.619a26.535,26.535,0,0,0,11.44-3.407l4.221-2.6c2.984-1.84,4.637-3.851,4.8-5.779C933.341,4120.082,932.13,4118.335,929.545,4117.155Z" transform="translate(-784.976 -3775.67)" fill="#45be9b" fill-rule="evenodd" opacity="0.5"/>
            <g id="Grupo_86624" data-name="Grupo 86624" transform="translate(1.324)">
              <path id="Trazado_152034" data-name="Trazado 152034" d="M929.336,3972.475c-.016,5.523-1.985,9.41-5.133,11.24l-5,3c-17.138-7.313-10.777-94.16-11.822-118.849l5.262-129.573c-4.424-7.731-21.445-14.478-17.473-30.266l-50.228-23.513c-2.23-1.517-60.844-35.461-50.323-41.827,1.76-1.064,3.5-2.137,5.24-3.147,3.884-2.3,8.835-.877,12.472,1.221h0l99.944,57.325c9.81,5.652,17.5,19.329,17.474,30.266Z" transform="translate(-789.097 -3638.367)" fill="#303a7d" fill-rule="evenodd"/>
              <path id="Trazado_152035" data-name="Trazado 152035" d="M787.382,3655.491c.015-5.415,1.89-9.259,4.928-11.132,3.2-1.974,7.691-1.76,12.659,1.109l99.944,57.324c9.672,5.585,17.5,19.15,17.473,30.267l-.417,244.119c-.031,11.116-7.915,15.608-17.589,10.023l-99.942-57.325c-9.685-5.591-17.505-19.15-17.475-30.266Z" transform="translate(-786.963 -3639.934)" fill="#3e4992" fill-rule="evenodd"/>
              <path id="Trazado_152036" data-name="Trazado 152036" d="M795.437,3671.738c.028-10.231,7.275-14.372,16.187-9.225l91.989,52.762c8.9,5.141,16.111,17.625,16.082,27.857l-.383,229.3c-.029,10.23-7.285,14.366-16.189,9.225L811.135,3928.9c-8.913-5.146-16.111-17.626-16.083-27.857Z" transform="translate(-789.662 -3645.685)" fill="#7ff9ff" fill-rule="evenodd"/>
            </g>
          </g>
          <g id="Grupo_86627" data-name="Grupo 86627" transform="translate(46.385 95.295)">
            <path id="Trazado_152037" data-name="Trazado 152037" d="M876.99,3816.15c-7.019-4.054-12.69-13.876-12.668-21.941s5.733-11.317,12.75-7.266,12.69,13.875,12.667,21.941-5.73,11.32-12.749,7.267Zm-.01,3.418c8.662,5,15.706.984,15.734-8.968s-6.97-22.073-15.632-27.076-15.706-.987-15.734,8.968S868.319,3814.567,876.98,3819.568Z" transform="translate(-856.841 -3781.374)" fill="#fff" fill-rule="evenodd"/>
            <g id="Grupo_86626" data-name="Grupo 86626" transform="translate(0 42.198)">
              <path id="Trazado_152038" data-name="Trazado 152038" d="M868.936,3845.726c0-.931.662-1.3,1.472-.814l18.319,10.35a3.292,3.292,0,0,1,1.463,2.559v1.842c0,.93-.662,1.294-1.473.814L870.4,3850.125a3.292,3.292,0,0,1-1.463-2.559Z" transform="translate(-859.373 -3844.699)" fill="#fff" fill-rule="evenodd"/>
              <path id="Trazado_152039" data-name="Trazado 152039" d="M854.586,3850.285c0-.82.583-1.141,1.3-.717,10.386,5.869,27.406,15.448,37.791,21.316a2.9,2.9,0,0,1,1.289,2.254v1.623c0,.819-.584,1.142-1.3.717-10.385-5.869-27.406-15.449-37.791-21.316a2.9,2.9,0,0,1-1.289-2.254Z" transform="translate(-854.585 -3846.261)" fill="#fff" fill-rule="evenodd" opacity="0.5"/>
            </g>
          </g>
        </g>
        <g id="Grupo_86633" data-name="Grupo 86633" transform="translate(157.855 114.696)">
          <path id="Trazado_152040" data-name="Trazado 152040" d="M982.151,3846.581l-5.3,1.97-21.216-12.041c-.407-.242-.512-.947-.494-1.371h0l-4.594-50.861c.012-1.6,3.855-4.757,5.188-5.784l6.936,1.495c.2-.1,6.26-4.66,6.548-4.546l11.957,8.467Z" transform="translate(-950.543 -3774.085)" fill-rule="evenodd" opacity="0.5" fill="url(#linear-gradient)" style="mix-blend-mode: multiply;isolation: isolate"/>
          <g id="Grupo_86632" data-name="Grupo 86632" transform="translate(4.438)">
            <g id="Grupo_86629" data-name="Grupo 86629">
              <path id="Trazado_152041" data-name="Trazado 152041" d="M1021.638,3863.255l-54.619-31.746,7.037-56.671c.064-.722.529-1.718,1.445-1.356l54.854,30.856Z" transform="translate(-960.478 -3773.406)" fill="#bc5fee" fill-rule="evenodd"/>
              <path id="Trazado_152042" data-name="Trazado 152042" d="M974.048,3775.556c24.087,25.374,51.6,41.152,50.878,62.988l-3.3,25.428L966.993,3832.4Z" transform="translate(-960.469 -3774.123)" fill="#783fd3" fill-rule="evenodd"/>
              <path id="Trazado_152043" data-name="Trazado 152043" d="M1014.36,3819.05c.307,3.826,3.238,45.777,3.4,46l-55.571-32.765c-.407-.241-.512-.947-.494-1.371h0l-3.794-43.667.01.007-.712-8.187a2.768,2.768,0,0,1,.745-1.522c1.78,1.9,16.822,10.765,18.712,11.937,3.025,2.668,2.462,6.159,6.748,11.716a6.581,6.581,0,0,0,2.258,2.045Z" transform="translate(-957.203 -3774.784)" fill="#d07efc" fill-rule="evenodd"/>
              <path id="Trazado_152044" data-name="Trazado 152044" d="M1043.1,3832.53l3.767,42.277,7.214-53.728c.208-1.8,1.646-1.651,1.476-.378l-7.431,55.06a8.144,8.144,0,0,1-.549,2.265,2.433,2.433,0,0,1-.722.987l0,.01-.041.023c-.042.029-.082.056-.125.082v-.02a.76.76,0,0,1-.806-.018,2.026,2.026,0,0,1-.44-1.334l-3.795-43.671C1041.559,3832.9,1042.391,3831.876,1043.1,3832.53Z" transform="translate(-985.375 -3788.863)" fill="#864de2" fill-rule="evenodd"/>
              <path id="Trazado_152045" data-name="Trazado 152045" d="M987.339,3801.647l27.638,16.647c-.62-.307-1.536.873-1.5,1.6l-28.019-16.659a11.577,11.577,0,0,1-1.937-1.347c-3.195-2.845-4.171-6.9-5.989-10.13a7.424,7.424,0,0,0-1.7-2.07c-.586-.331-.9-.507-.792-.455l-17.84-10.3a1.734,1.734,0,0,1,1.648-1.722l17.864,10.312c-.105-.052.2.124.792.455a7.424,7.424,0,0,1,1.7,2.071c1.924,3.419,2.759,7.24,6.344,10.421A12.671,12.671,0,0,0,987.339,3801.647Z" transform="translate(-957.204 -3774.677)" fill="#d477e4" fill-rule="evenodd"/>
            </g>
            <g id="Grupo_86631" data-name="Grupo 86631" transform="translate(18.548 38.904)">
              <path id="Trazado_152046" data-name="Trazado 152046" d="M992.025,3832.035c4.783,1.232,9.5,6.748,10.533,12.318s-2,9.088-6.784,7.855-9.5-6.748-10.533-12.318S987.242,3830.8,992.025,3832.035Z" transform="translate(-985.038 -3831.789)" fill="#d0e7ff" fill-rule="evenodd" opacity="0.5"/>
              <g id="Grupo_86630" data-name="Grupo 86630" transform="translate(5.071 3.987)">
                <path id="Trazado_152047" data-name="Trazado 152047" d="M993.236,3842l-.156-1.791a2.63,2.63,0,0,1,.392-2.139c.442-.434,1.081-.39,1.921.074l1.823.971a3.5,3.5,0,0,1,1.772,1.692,7.809,7.809,0,0,1,.571,2.594l.127,1.294a7.108,7.108,0,0,1,.8,2.143c.463,2.491-.9,4.063-3.033,3.513s-4.247-3.017-4.71-5.507a3.465,3.465,0,0,1,.5-2.845Zm5.206,1.014a5.952,5.952,0,0,0-.422-1.828,2.361,2.361,0,0,0-1.214-1.122c-.621-.3-1.242-.687-1.863-.99-.372-.2-.6-.279-.676-.2-.148.146-.186.583-.111,1.34l.1,1.111a2.82,2.82,0,0,1,1.52.012A5.892,5.892,0,0,1,998.442,3843.016Z" transform="translate(-992.647 -3837.772)" fill="#7ff9ff" fill-rule="evenodd"/>
                <path id="Trazado_152048" data-name="Trazado 152048" d="M998.662,3849.248l.125,1.266a.48.48,0,0,1-.485.539.609.609,0,0,1-.592-.539l-.167-1.68a1.784,1.784,0,0,1-.419-.829c-.108-.577.207-.942.7-.815a1.711,1.711,0,0,1,1.093,1.278A.689.689,0,0,1,998.662,3849.248Z" transform="translate(-994.134 -3840.906)" fill="#21389b" fill-rule="evenodd"/>
              </g>
            </g>
          </g>
        </g>
        <g id="Grupo_86636" data-name="Grupo 86636" transform="translate(100.615 230.107)">
          <path id="Trazado_152049" data-name="Trazado 152049" d="M864.989,3958.441c.013-4.468,1.563-7.644,4.067-9.187,2.638-1.625,6.347-1.452,10.446.916l38.322,22.1c7.981,4.608,14.444,15.8,14.419,24.976l-.344,39.011c-.025,9.172-6.531,12.879-14.515,8.271l-38.32-22.105c-7.992-4.615-14.445-15.8-14.42-24.976Z" transform="translate(-864.644 -3947.13)" fill="#18b6fe" fill-rule="evenodd" opacity="0.5" style="mix-blend-mode: multiply;isolation: isolate"/>
          <g id="Grupo_86635" data-name="Grupo 86635">
            <path id="Trazado_152050" data-name="Trazado 152050" d="M868.334,3956.039c.01-4.113-.881-5.024.967-7,.712-.761,4.138-2.133,4.912-2.29a10.863,10.863,0,0,1,7.479,1.679l35.277,20.348c7.347,4.243,13.3,14.546,13.273,22.991l-.317,35.912c-.011,3.521-1.059,6.169-2.809,7.749-1.333,1.2-4.38,2.813-6.381,2.7-1.673-.1-2.22-1.708-4.171-2.835l-35.275-20.349c-7.357-4.247-13.3-14.546-13.274-22.989Z" transform="translate(-865.769 -3946.601)" fill="#f2f4ff" fill-rule="evenodd"/>
            <path id="Trazado_152051" data-name="Trazado 152051" d="M864.962,3957.626c.011-4.113,1.439-7.036,3.744-8.457,2.428-1.5,5.843-1.336,9.616.843l35.276,20.348c7.347,4.243,13.3,14.546,13.273,22.991l-.317,35.911c-.024,8.443-6.012,11.855-13.361,7.613l-35.275-20.349c-7.357-4.248-13.3-14.547-13.273-22.991Z" transform="translate(-864.644 -3947.13)" fill="#18b6fe" fill-rule="evenodd"/>
            <g id="Grupo_86634" data-name="Grupo 86634" transform="translate(5.178 12.895)">
              <path id="Trazado_152052" data-name="Trazado 152052" d="M898.968,3969.584l-.035,11.918c-8.885-5.131-16.125-1.013-16.154,9.222-.029,10.219,7.163,22.668,16.049,27.8,8.915,5.146,16.146,1.025,16.175-9.194,0-.457-.017-.934-.045-1.417l10.354,5.078c.041.767.059,1.557.057,2.324-.047,16.8-11.951,23.563-26.574,15.119s-26.429-28.889-26.381-45.693S884.345,3961.14,898.968,3969.584Z" transform="translate(-872.415 -3965.952)" fill="#fff" fill-rule="evenodd" opacity="0.5"/>
              <path id="Trazado_152053" data-name="Trazado 152053" d="M915.233,4015.32a7.7,7.7,0,0,1,1.043,3.793,2.863,2.863,0,0,1-1.167,2.654,2.787,2.787,0,0,1-2.847-.276,7.8,7.8,0,0,1-2.6-2.506,8.866,8.866,0,0,1-1.4-3.493l2.353,1.359a5.145,5.145,0,0,0,.708,1.366,3.457,3.457,0,0,0,.988.872,1.192,1.192,0,0,0,1.252.111,1.332,1.332,0,0,0,.524-1.245,3.635,3.635,0,0,0-.494-1.83,3.154,3.154,0,0,0-1.157-1.266,1.492,1.492,0,0,0-.718-.2,1.567,1.567,0,0,0-.7.235l-1.813-1.505,1.436-6.672,5.481,3.164-.006,2.369-3.8-2.2-.5,2.18a2.654,2.654,0,0,1,.406.137,2.509,2.509,0,0,1,.362.184,7.24,7.24,0,0,1,2.655,2.769Zm-10.739-6.953a1.152,1.152,0,0,0,.422-1.04,2.958,2.958,0,0,0-.444-1.574,2.8,2.8,0,0,0-1.022-1.129,1.039,1.039,0,0,0-1.062-.1,1.119,1.119,0,0,0-.451,1.057,3.086,3.086,0,0,0,.424,1.554,3.05,3.05,0,0,0,1.1,1.151.963.963,0,0,0,1.033.08Zm-1.065-6.154a7.193,7.193,0,0,1,2.64,2.792,7.282,7.282,0,0,1,1.044,3.507,4.886,4.886,0,0,1-.16,1.176,9.811,9.811,0,0,1-.766,1.489l-3.041,5.053-1.9-2.211,2.074-3.394a7.045,7.045,0,0,1-2.549-2.682,7.28,7.28,0,0,1-1.022-3.649,2.483,2.483,0,0,1,1.082-2.371A2.51,2.51,0,0,1,903.429,4002.213Z" transform="translate(-881.534 -3977.871)" fill="#fff" fill-rule="evenodd"/>
              <path id="Trazado_152054" data-name="Trazado 152054" d="M912.246,3971.4c13.968,8.063,25.379,27.072,26.344,43.4l-10.354-5.077c-.6-9.96-7.515-21.5-16.025-26.409Z" transform="translate(-885.692 -3967.771)" fill="#fff" fill-rule="evenodd" opacity="0.3"/>
            </g>
          </g>
        </g>
        <g id="Grupo_86639" data-name="Grupo 86639" transform="translate(104.978)">
          <g id="Grupo_86637" data-name="Grupo 86637">
            <path id="Trazado_152055" data-name="Trazado 152055" d="M889.055,3608.749a19.017,19.017,0,0,1,6.733,6.4c-.024-.485-.047,1.3-.031-1.457s-1.564-7.2.59-9.427c.853-.883,5.01-2.5,6.008-2.762a8.9,8.9,0,0,1,6.509,1.137c3.607,1.973,6.873,5.812,9.244,10.428a43.6,43.6,0,0,1,3.848,15.12c0,2.785-.014.962-.041,1.43,2.008-.6,3.809-.6,6.909,1.119s7.006,5.947,9.428,10.646a34.781,34.781,0,0,1,3.965,15.374c.009,4.015-.906,7.2-2.464,9.411-1.57,2.225-4.6,3.538-6.755,4.252-6.166,2.142-18.056-10.361-24.329-13.912q-9.985-5.652-19.869-11.241c-3.591-2.031-6.81-5.9-9.115-10.527a33.888,33.888,0,0,1-3.64-15c.027-2.928-2.113-7.322.657-9.426C881.007,3607.045,885.606,3606.841,889.055,3608.749Z" transform="translate(-872.555 -3601.283)" fill="#6448d9" fill-rule="evenodd"/>
            <path id="Trazado_152056" data-name="Trazado 152056" d="M884.2,3611.022a19.016,19.016,0,0,1,6.732,6.4c-.023-.485-.047,1.3-.031-1.456s1.507-8.767,3.873-10.767,5.627-2.259,9.234-.286,6.873,5.812,9.244,10.428a43.592,43.592,0,0,1,3.849,15.12c0,2.786-.015.963-.041,1.43,2.007-.6,3.809-.6,6.909,1.119s7.006,5.948,9.428,10.646a34.712,34.712,0,0,1,3.964,15.374c.012,5.165-1.493,9.01-3.923,11.035s-5.779,2.21-9.471.12l-20.154-11.4q-9.985-5.653-19.869-11.241c-3.591-2.031-6.81-5.9-9.115-10.527a33.876,33.876,0,0,1-3.641-15c.047-5.011,1.516-8.736,3.862-10.721S881.188,3609.354,884.2,3611.022Z" transform="translate(-871.19 -3602.042)" fill="#856de9" fill-rule="evenodd"/>
          </g>
          <g id="Grupo_86638" data-name="Grupo 86638" transform="translate(13.793 17.964)">
            <path id="Trazado_152057" data-name="Trazado 152057" d="M898.069,3644.089l-6.179-3.565,9.718,16.831,9.78-5.574-6.176-3.567.017-15.847-7.143-4.124Z" transform="translate(-891.89 -3628.241)" fill="#fff" fill-rule="evenodd"/>
            <path id="Trazado_152058" data-name="Trazado 152058" d="M926.626,3655.686l6.179,3.566-9.718-16.831-9.78,5.573,6.176,3.568-.017,15.847,7.142,4.124Z" transform="translate(-899.036 -3632.973)" fill="#fff" fill-rule="evenodd"/>
          </g>
        </g>
        <g id="Grupo_86649" data-name="Grupo 86649" transform="translate(0 12.332)">
          <g id="Grupo_86647" data-name="Grupo 86647">
            <g id="Grupo_86643" data-name="Grupo 86643" transform="translate(0 82.434)">
              <path id="Trazado_152059" data-name="Trazado 152059" d="M790.871,3785.516c13.9,8.122,27.807,16.236,41.724,24.219a11.089,11.089,0,0,1,5.025,8.706l.145,116.825c-.009,3.2-2.277,4.488-5.059,2.883-15.089-8.656-30.164-17.466-45.238-26.273l.069-12.039Z" transform="translate(-738.28 -3757.516)" fill-rule="evenodd" opacity="0.5" fill="url(#linear-gradient-2)" style="mix-blend-mode: multiply;isolation: isolate"/>
              <g id="Grupo_86642" data-name="Grupo 86642">
                <path id="Trazado_152060" data-name="Trazado 152060" d="M715.771,3744.85l2.322-1.227a3.692,3.692,0,0,1,2.959.524c27.778,15.933,55.5,32.425,83.28,48.359a10.438,10.438,0,0,1,4.731,8.194l.136,109.965a3.47,3.47,0,0,1-1.175,2.9c-.874.647-2.676,2.049-4.1,1.224-27.78-15.933-54.986-33.843-82.762-49.773a10.428,10.428,0,0,1-4.73-8.194Z" transform="translate(-714.359 -3743.496)" fill="#f2f4ff" fill-rule="evenodd"/>
                <path id="Trazado_152061" data-name="Trazado 152061" d="M713.652,3748.434c.009-3.01,2.141-4.228,4.762-2.713,27.778,15.932,55.5,32.426,83.28,48.359a10.434,10.434,0,0,1,4.73,8.195l.137,109.965c-.009,3.009-2.144,4.225-4.762,2.712-27.779-15.933-55.5-32.428-83.28-48.358a10.432,10.432,0,0,1-4.73-8.195Z" transform="translate(-713.652 -3744.021)" fill="#fff" fill-rule="evenodd"/>
                <path id="Trazado_152062" data-name="Trazado 152062" d="M713.653,3748.435c.008-3.009,2.14-4.228,4.761-2.713,27.778,15.932,55.5,32.425,83.28,48.359a10.434,10.434,0,0,1,4.731,8.195l.1,86.41-92.771-53.211Z" transform="translate(-713.652 -3744.021)" fill="#856de9" fill-rule="evenodd"/>
                <g id="Grupo_86640" data-name="Grupo 86640" transform="translate(6.89 101.637)">
                  <path id="Trazado_152063" data-name="Trazado 152063" d="M723.993,3897.455c0-1.3.924-1.81,2.056-1.137l25.585,14.457a4.6,4.6,0,0,1,2.043,3.573v2.571c0,1.3-.925,1.81-2.056,1.138L726.036,3903.6a4.6,4.6,0,0,1-2.044-3.573Z" transform="translate(-723.992 -3896.021)" fill="#03c8de" fill-rule="evenodd" opacity="0.25"/>
                  <path id="Trazado_152064" data-name="Trazado 152064" d="M723.993,3914.466c0-1.145.814-1.595,1.81-1,14.505,8.2,38.277,21.577,52.783,29.772a4.052,4.052,0,0,1,1.8,3.147v2.267c0,1.145-.816,1.594-1.811,1-14.506-8.2-38.277-21.576-52.783-29.772a4.048,4.048,0,0,1-1.8-3.148Z" transform="translate(-723.992 -3901.754)" fill="#03c8de" fill-rule="evenodd" opacity="0.25"/>
                </g>
                <path id="Trazado_152065" data-name="Trazado 152065" d="M788.254,3834.57l-.1,54.644,15.336,8.938.1-54.645-15.337-8.938ZM742.2,3791.1l-.153,73.142,15.336,8.938.153-73.143L742.2,3791.1Zm22.972,25.926-.116,60.626,15.336,8.938.117-60.625-15.337-8.939ZM719.147,3796.2l-.1,54.644,15.336,8.938.1-54.644Z" transform="translate(-715.452 -3759.38)" fill="#cabeff" fill-rule="evenodd"/>
                <g id="Grupo_86641" data-name="Grupo 86641" transform="translate(3.211 56.567)">
                  <path id="Trazado_152066" data-name="Trazado 152066" d="M718.773,3830.041a.891.891,0,0,1,.078-1.4,1.308,1.308,0,0,1,1.641.066l14.53,13.607,7.037,3,15.089-3.078,9.16-10.034a1.3,1.3,0,0,1,1.633-.174,1.08,1.08,0,0,1,.255.232l21.533,23.112,13.124,3.237a1.1,1.1,0,0,1,1.2.953,1.071,1.071,0,0,1-1.118,1.022l-13.686-3.219a1.255,1.255,0,0,1-.992-.382l-21.03-22.558-8.488,9.3,0,0a1.2,1.2,0,0,1-.647.355l-15.9,3.243a1.336,1.336,0,0,1-.787-.077l-7.538-3.212a1.159,1.159,0,0,1-.418-.249Z" transform="translate(-718.47 -3828.385)" fill="#1895f0" fill-rule="evenodd" opacity="0.5" style="mix-blend-mode: multiply;isolation: isolate"/>
                  <path id="Trazado_152067" data-name="Trazado 152067" d="M718.773,3830.329a1.162,1.162,0,0,1,1.719-1.564l14.53,15.972,7.037,3.518,15.089-3.613,9.16-11.778a1.164,1.164,0,0,1,1.633-.2,1.147,1.147,0,0,1,.255.274l20.413,26.339,14.411-.538a1.16,1.16,0,0,1,.082,2.319l-14.972.559a1.161,1.161,0,0,1-.993-.449l-19.911-25.691-8.488,10.913,0,0a1.153,1.153,0,0,1-.647.417l-15.9,3.807a1.151,1.151,0,0,1-.787-.092l-7.538-3.769a1.167,1.167,0,0,1-.418-.292Z" transform="translate(-718.47 -3828.385)" fill="#fff" fill-rule="evenodd"/>
                </g>
              </g>
            </g>
            <g id="Grupo_86646" data-name="Grupo 86646">
              <path id="Trazado_152068" data-name="Trazado 152068" d="M787.035,3661.134c16.177,9.451,32.355,18.913,48.551,28.2a11.439,11.439,0,0,1,5.184,8.98l-.093,51.312c-.009,3.3-2.35,4.629-5.219,2.972l-48.25-28.028Z" transform="translate(-738.135 -3633.584)" fill-rule="evenodd" opacity="0.5" fill="url(#linear-gradient-3)" style="mix-blend-mode: multiply;isolation: isolate"/>
              <g id="Grupo_86645" data-name="Grupo 86645">
                <path id="Trazado_152069" data-name="Trazado 152069" d="M715.57,3621.728l3.385-1.808a3.829,3.829,0,0,1,3.07.542c28.809,16.525,57.56,33.63,86.372,50.155a10.824,10.824,0,0,1,4.906,8.5l.141,46.5a3.6,3.6,0,0,1-1.219,3.012c-.906.671-3.742,2.671-5.224,1.815-28.811-16.525-56.062-35.645-84.868-52.168a10.817,10.817,0,0,1-4.906-8.5Z" transform="translate(-714.292 -3619.789)" fill="#f2f4ff" fill-rule="evenodd"/>
                <path id="Trazado_152070" data-name="Trazado 152070" d="M713.652,3625.575c.009-3.123,2.22-4.385,4.938-2.815,28.81,16.524,57.56,33.629,86.372,50.155a10.821,10.821,0,0,1,4.906,8.5l.142,46.5c-.009,3.12-2.224,4.382-4.94,2.814-28.81-16.526-57.565-33.633-86.37-50.155a10.817,10.817,0,0,1-4.907-8.5Z" transform="translate(-713.652 -3620.555)" fill="#d07efc" fill-rule="evenodd"/>
                <g id="Grupo_86644" data-name="Grupo 86644" transform="translate(2.256 8.741)">
                  <path id="Trazado_152071" data-name="Trazado 152071" d="M717.038,3635.061c.005-1.953,1.388-2.719,3.089-1.708l38.432,21.716a6.908,6.908,0,0,1,3.07,5.367v3.863c-.005,1.953-1.391,2.719-3.089,1.71l-38.433-21.716a6.9,6.9,0,0,1-3.07-5.368Z" transform="translate(-717.037 -3632.906)" fill="#fff" fill-rule="evenodd" opacity="0.5"/>
                  <path id="Trazado_152072" data-name="Trazado 152072" d="M717.038,3660.24c0-1.382.983-1.926,2.187-1.21,17.519,9.9,5.811,3.268,23.331,13.166a4.9,4.9,0,0,1,2.173,3.8v2.737c0,1.383-.985,1.925-2.188,1.21-17.519-9.9-5.811-3.268-23.329-13.167a4.886,4.886,0,0,1-2.174-3.8Z" transform="translate(-717.037 -3641.517)" fill="#fff" fill-rule="evenodd" opacity="0.5"/>
                </g>
                <path id="Trazado_152073" data-name="Trazado 152073" d="M821.257,3697.312c0-.576.41-.81.911-.52,5.315,3.049,10.62,6.2,15.936,9.253a2,2,0,0,1,.9,1.568l.027,45.75c0,.575-.411.808-.912.519-5.316-3.049-10.621-6.206-15.935-9.254a2,2,0,0,1-.906-1.568Z" transform="translate(-749.553 -3645.439)" fill="#fff" fill-rule="evenodd" opacity="0.25"/>
                <path id="Trazado_152074" data-name="Trazado 152074" d="M821.5,3715.637c-3.82-2.671-8.341-4.894-13.129-4.421-3.461.342-6.362,1.978-9.318,3.67-9.169,5.25-14.605,4.032-21.4-4.129a71.949,71.949,0,0,1-7.163-11.2c-1.5-2.684-3.558-6-5.9-8.017-1.567-1.354-1.656-4.451.415-5.36a2.518,2.518,0,0,1,2.591.39c3.16,2.495,5.3,6.352,7.227,9.823,2.077,3.747,4.122,7.537,7.053,10.7,5.471,5.913,8.424,5.962,15.259,2.048,3.495-2,6.756-3.757,10.854-4.161,5.507-.543,10.617,1.659,15.11,4.689,1.6,1.077,1.972,2.267,1.815,4.277C824.774,3715.735,823.818,3717.148,821.5,3715.637Z" transform="translate(-730.259 -3641.873)" fill="#fff" fill-rule="evenodd"/>
              </g>
            </g>
          </g>
          <g id="Grupo_86648" data-name="Grupo 86648" transform="translate(71.128 121.525)">
            <path id="Trazado_152075" data-name="Trazado 152075" d="M837.614,3839.685c-8.813-5.1-16.5-17.112-17.174-26.85s5.919-13.5,14.733-8.4,16.5,17.118,17.174,26.85S846.422,3844.778,837.614,3839.685Z" transform="translate(-820.393 -3802.16)" fill-rule="evenodd" opacity="0.5" fill="url(#linear-gradient-4)" style="mix-blend-mode: multiply;isolation: isolate"/>
            <path id="Trazado_152076" data-name="Trazado 152076" d="M840.407,3836.283c-8.015-4.633-15-15.561-15.618-24.416s5.384-12.275,13.4-7.642,15,15.566,15.617,24.416S848.416,3840.914,840.407,3836.283Z" transform="translate(-821.845 -3802.16)" fill-rule="evenodd" fill="url(#linear-gradient-5)"/>
            <path id="Trazado_152077" data-name="Trazado 152077" d="M846.307,3819.842l2.125,1.063L839,3835.269l-8.331-12.353,2.743,1.072,4.4,4.177Z" transform="translate(-823.82 -3808.059)" fill="#fff" fill-rule="evenodd"/>
          </g>
        </g>
      </g>
      <g id="Grupo_86661" data-name="Grupo 86661" transform="translate(592.837 3729.38)">
        <path id="Trazado_152078" data-name="Trazado 152078" d="M597.1,4066.325l45.037-25.65c4.91-2.243,11.937-4.029,16.94-1.425,4.558,2.371,12.067,7.226,15.386,9.119,2.522,1.438,11.275,6.683,5.823,9.648-16.038,8.72-31.911,18.529-48.2,27.389-3.08,1.675-7.586,2.28-12.316,1.887a32.6,32.6,0,0,1-13.339-3.972q-4.06-2.361-7.986-4.648c-3.533-2.057-5.406-4.489-5.592-6.738C592.672,4069.737,594.083,4067.7,597.1,4066.325Z" transform="translate(-592.837 -3875.073)" fill="#45be9b" fill-rule="evenodd" opacity="0.5" style="mix-blend-mode: multiply;isolation: isolate"/>
        <g id="Grupo_86660" data-name="Grupo 86660" transform="translate(16.081)">
          <g id="Grupo_86652" data-name="Grupo 86652" transform="translate(25.996 26.634)">
            <path id="Trazado_152079" data-name="Trazado 152079" d="M681.563,3857.169c5.663-3.125,13.262-5.325,16.8-6.285.518-.14,4.228-1.078,4.729-1.25.276-.137,1.519-.651,1.739-.769a9.077,9.077,0,0,0,2.44,6.14c-.257.1-1.612.815-1.891.935-.413.228-.995,1.395-1.3,1.748-3.067,3.518-12.9,8.908-20.64,11.864l-.029.01a5.283,5.283,0,0,1-6.107-1.256c-.879-.605-1.731-1.265-2.3-1.636-4.392-2.868-12.588-13.216-19.016-29.615,1.091-1.251,4.682-2.871,5.336-3.12a7.114,7.114,0,0,1,6.654.909c1.889,1.587,4.075,4.7,5.987,9.942,1.289,3.536,4.845,7.945,7.455,12.14Z" transform="translate(-655.981 -3833.487)" fill="#f6f6f6" fill-rule="evenodd"/>
            <path id="Trazado_152080" data-name="Trazado 152080" d="M677.3,3868.681c-.879-.605-1.731-1.265-2.3-1.636-4.392-2.868-12.588-13.215-19.016-29.615,6.5-7.442,15.471,1.469,17.876,8.065C676.466,3852.654,674.86,3858.292,677.3,3868.681Z" transform="translate(-655.981 -3833.861)" fill="#f6f6f6" fill-rule="evenodd" opacity="0.3" style="mix-blend-mode: multiply;isolation: isolate"/>
            <g id="Grupo_86651" data-name="Grupo 86651" transform="translate(46.813 9.674)">
              <path id="Trazado_152081" data-name="Trazado 152081" d="M733.136,3850.333l1.147-1.9a.952.952,0,0,1,1.129-.343c1.559.824,1.175,3.767-.868,5.314,2.446.085,3.282.667,3.4,1.769.183,1.723-.148,8.151-1.255,8.613-.914.38-5.394.8-6.244.083-.622-.528.045-.962-.789-1.842-.277-.291-1.459-.3-2.348-1-1.153-.917-1.408-4.084-.618-5.9a4.471,4.471,0,0,1,.521-2.392C728.652,3850.522,731.7,3852.714,733.136,3850.333Z" transform="translate(-726.233 -3848.004)" fill="#ffa698" fill-rule="evenodd"/>
              <path id="Trazado_152082" data-name="Trazado 152082" d="M732.606,3858.464c.594.138.434.351,1.245.42a4.435,4.435,0,0,1-1.714.8c-.919-.3-1.268-.344-1.615.213-1.011,1.62-.651,5.034-.572,6-.373-.87-2.649-.694-3.193-2.1-.39-1.2-.73-4.146-.072-4.741a2.288,2.288,0,0,0,2.265.9C730.348,3859.668,732.221,3858.375,732.606,3858.464Z" transform="translate(-726.26 -3851.492)" fill-rule="evenodd" fill="url(#linear-gradient-6)"/>
            </g>
          </g>
          <g id="Grupo_86653" data-name="Grupo 86653" transform="translate(3.934 75.442)">
            <path id="Trazado_152083" data-name="Trazado 152083" d="M625.477,4055.454a17.105,17.105,0,0,1-.471,2.417,28.043,28.043,0,0,0-1.243,3.884c-.636,2.706.239,6.329-.62,10.158a4.184,4.184,0,0,0,.607,4.107c1,1.325,2.873,3.449,5.317,3.369a3.669,3.669,0,0,0,2.58-1.251,6.166,6.166,0,0,0,1.541-4.538,37.674,37.674,0,0,1-.4-5.221c.063-1.874.406-2.906.364-4.962-.046-2.172-.213-5.164-.247-6.565Z" transform="translate(-622.872 -3956.351)" fill="#12263f" fill-rule="evenodd"/>
            <path id="Trazado_152084" data-name="Trazado 152084" d="M658.6,4037.694a12.6,12.6,0,0,0-1.208,5.435c.435,1.419,1.434,2,2.547,2.976l.785.172c1.946,1.053,2.657,4.746,4.464,6.428,1.273,1.186,3.809,1.832,6.326,2.317,2.69.52,5.246-.249,4.545-2.365-1.74-5.256-9.26-11.192-9.432-17.065Z" transform="translate(-634.388 -3949.723)" fill="#12263f" fill-rule="evenodd"/>
            <path id="Trazado_152085" data-name="Trazado 152085" d="M666.59,3957.239c-.193,10.07-2.388,28.913-2.052,38.836-2.573,2.579-7.724,1.781-9.4-.858-1.045-9.13-2.262-22.1-2.383-27.11a38.863,38.863,0,0,1,1.339-11.749c-1.5-11.018-7.858-26.051-6.343-36.417.665-4.553,3.649-9.454,4.517-13.21,7.5,9.246,13.223,4.814,16.328,4.012-.018,3.194.225,2.767.121,6.126-.35,11.353-.878,23.476-1.5,35.257A16.1,16.1,0,0,1,666.59,3957.239Z" transform="translate(-631.097 -3906.731)" fill="#170078" fill-rule="evenodd"/>
            <path id="Trazado_152086" data-name="Trazado 152086" d="M653.411,3977.657c-.351-3.965-.6-7.417-.653-9.551a38.863,38.863,0,0,1,1.339-11.749c-1.5-11.018-7.858-26.051-6.343-36.417.665-4.553,3.649-9.454,4.517-13.209,7.5,9.246,13.223,4.814,16.328,4.012,0,.355,0,.667,0,.942l-9.836,7.268,2.423-.547c-.092,13.084-1.711,25.011-1.954,37.914a195.961,195.961,0,0,0-5.785,21.107Z" transform="translate(-631.097 -3906.731)" fill="#1e2353" fill-rule="evenodd" opacity="0.3" style="mix-blend-mode: multiply;isolation: isolate"/>
            <path id="Trazado_152087" data-name="Trazado 152087" d="M642.279,3965.921c-1.808,10.069-7.085,34.5-8.342,44.426-3.249,1.8-8.024,1.174-9.172-1.465-.037-9.13,0-25.552.682-30.562a62.914,62.914,0,0,1,3.71-14.346c-.665-23.526-2.668-30.108.51-40.474,1.4-4.553,5.048-8.945,6.52-12.7,2.014,3.093,5.122,7.484,11.78,6.941.651-.053,6.2-4.02,8.035-4.475-2.323,14-9.017,32.277-12.274,47.542A17.668,17.668,0,0,1,642.279,3965.921Z" transform="translate(-623.501 -3908.087)" fill="#170078" fill-rule="evenodd"/>
          </g>
          <g id="Grupo_86654" data-name="Grupo 86654" transform="translate(1.88 25.719)">
            <path id="Trazado_152088" data-name="Trazado 152088" d="M651,3832.375a5.568,5.568,0,0,1,2.078.7c4.952,2.75,6.68,10.843,7.475,17.934.69,6.15.167,11.255-.029,16.883-.156,4.489.424,8.643.222,12.891-.06,1.26-.538,2.625-.668,3.965a6.48,6.48,0,0,0-.324,2.651c-2.48,9.455-25.917,10.238-29.328,3.836a18.964,18.964,0,0,0,.6-2.863c-2.206-2.01-.932-6.908-1.28-10.329a27.679,27.679,0,0,0-1.39-7.062c-3.187-7.851-7.638-13.9-8.521-19.923-.609-4.151,4.7-9.32,11.691-13.506C638.261,3833.522,647.4,3831.324,651,3832.375Z" transform="translate(-619.791 -3832.113)" fill="#f6f6f6" fill-rule="evenodd"/>
            <path id="Trazado_152089" data-name="Trazado 152089" d="M660.542,3892.988a4.661,4.661,0,0,0-.319,2.426c-2.48,9.454-25.917,10.238-29.328,3.835a18.892,18.892,0,0,0,.6-2.863c-2.206-2.009-.932-6.907-1.28-10.328a27.7,27.7,0,0,0-1.39-7.062c-2.568-6.327-5.957-11.481-7.639-16.4l3.341-3.074,6.784-3.388c2.893,2.619,2.871,7.57,3.77,11.016,1.208,4.631,1.694,8.187,2.485,12.624C638.514,3891.647,645.633,3898.792,660.542,3892.988Z" transform="translate(-620.256 -3840.128)" fill="#c2c2c2" fill-rule="evenodd" opacity="0.3" style="mix-blend-mode: multiply;isolation: isolate"/>
          </g>
          <g id="Grupo_86655" data-name="Grupo 86655" transform="translate(27.554 60.357)">
            <path id="Trazado_152090" data-name="Trazado 152090" d="M658.475,3916.586a4.079,4.079,0,0,0,1.265.76,1.077,1.077,0,0,0,.6-.061l17.358-11.628,2.856-2.553,20.305-16.753c.542-.477,1.69-1.179,1.776-1.471a8.431,8.431,0,0,0-1.213-.735c-.145-.152-.71,0-1.9.714l-17.559,10.254a7.382,7.382,0,0,0-1.848,1.262l-21.508,19.36C658.314,3915.985,658.2,3916.382,658.475,3916.586Z" transform="translate(-658.319 -3884.093)" fill="#d8fff7" fill-rule="evenodd"/>
            <path id="Trazado_152091" data-name="Trazado 152091" d="M660.242,3916.923c-.069.214-.484,1.17,1.029.631l18.2-10.84,2.857-2.553,19.866-17.486c1.3-1.148,1.76-2.354-.895-.759l-17.559,10.254a7.381,7.381,0,0,0-1.849,1.262Z" transform="translate(-658.926 -3884.445)" fill="#9fd2fb" fill-rule="evenodd"/>
          </g>
          <path id="Trazado_152092" data-name="Trazado 152092" d="M651.828,3912.4a10.358,10.358,0,0,0,1.557.756c.006-.046.012-.093.02-.139a2.559,2.559,0,0,0,.494.341c.313.121.623.236.922.354a18.647,18.647,0,0,0,2.3.365c.91.142,3.066.456,3.985.684,1.2.3,2.15,1.379,3.816,2.323l-1.821,1.64a2.226,2.226,0,0,0,1.178.245c1.658-.166,5.909-2.288,5.737-1.439a15.246,15.246,0,0,1-1.779,3.4,13.372,13.372,0,0,1-3.747,3.19,23.369,23.369,0,0,1-4.457,2.394c-1.2.367-5.194-2.474-5.941-3.366-2.383-2.848-1.43-4.3-3.819-5.445Z" transform="translate(-628.079 -3833.179)" fill-rule="evenodd" fill="url(#linear-gradient-7)"/>
          <path id="Trazado_152093" data-name="Trazado 152093" d="M618.32,3855.781c-1.647,7.213-.572,18.92-1.326,27.365a5.054,5.054,0,0,0,.1,1.634c0,.117.014.232.029.344.147,1.858,1.569,2.988,3.3,4.11,4.445,2.882,8.119,6.548,16.091,9.071a7.863,7.863,0,0,0,2.551-.124c.5.149,1.146.522,1.674.675-.088-1.673,1.857-5.03,3.348-5.612-.518-.278-1.135-.747-1.693-1.082a5.093,5.093,0,0,0-1.037-1.467,82.755,82.755,0,0,0-13.414-9.636c.6-2.1,1.006-4.257,1.415-5.893a100.489,100.489,0,0,0,1.958-10.161c.187-1.316.318-1.981.472-3.322C632.938,3851.732,620.318,3847.034,618.32,3855.781Z" transform="translate(-616.969 -3812.755)" fill="#f6f6f6" fill-rule="evenodd"/>
          <g id="Grupo_86658" data-name="Grupo 86658" transform="translate(16.998 19.112)">
            <g id="Grupo_86656" data-name="Grupo 86656" transform="translate(1.024)">
              <path id="Trazado_152094" data-name="Trazado 152094" d="M655.7,3833.656c.071-.379.162-.757.243-1.163.231-1.157-.07-3.4.239-6.054l-10.037-4.24c-.167,5.636-1.089,6.8-2.127,11.389.111,4.515,11.326,6.536,11.561,1.232A8.4,8.4,0,0,1,655.7,3833.656Z" transform="translate(-644.014 -3822.198)" fill="#ffa698" fill-rule="evenodd"/>
              <path id="Trazado_152095" data-name="Trazado 152095" d="M656.636,3833.656c.071-.379.162-.757.243-1.163.23-1.157-.07-3.4.239-6.054l-10.037-4.24c-.038,1.28-.115,2.333-.223,3.25-.357,3.733,3.221,10.234,9.658,9.371A8.425,8.425,0,0,1,656.636,3833.656Z" transform="translate(-644.955 -3822.198)" fill-rule="evenodd" fill="url(#linear-gradient-8)"/>
            </g>
            <g id="Grupo_86657" data-name="Grupo 86657" transform="translate(0 8.047)">
              <path id="Trazado_152096" data-name="Trazado 152096" d="M659.878,3847.7c3.086,7.674.992,10.737-1.862,15.892-3.107,5.614-1.9,12.458-1.277,19.753a22.73,22.73,0,0,0,6.45,6.072,34.512,34.512,0,0,1,2.388-8.907,19.942,19.942,0,0,1-1.932-11.535c1.214-6.457,4.709-11.973-2.07-21.973.488-2.7.112-3.254-.447-3.572-.654-.373-.085-.42-2,.065-1.265.32-2.57.543-2.173,1.908C657.258,3846.447,657.807,3846.835,659.878,3847.7Z" transform="translate(-646.983 -3837.231)" fill="#856de9" fill-rule="evenodd"/>
              <path id="Trazado_152097" data-name="Trazado 152097" d="M660.471,3840.847a20.02,20.02,0,0,0,.637-2.418,23.971,23.971,0,0,0,.44-3.331c1.216.438,2.919,4.343,2.675,6.686A5.059,5.059,0,0,0,660.471,3840.847Z" transform="translate(-648.481 -3834.548)" fill="#e4e4e4" fill-rule="evenodd"/>
              <path id="Trazado_152098" data-name="Trazado 152098" d="M644.332,3834.274c.272,3.47,6.23,5.61,10.17,6.3-.9,1.184-2.061,2.673-1.963,3.813-2.753-.628-7.423-1.712-9.442-5.111A3.408,3.408,0,0,1,644.332,3834.274Z" transform="translate(-642.478 -3834.274)" fill="#e4e4e4" fill-rule="evenodd"/>
            </g>
          </g>
          <g id="Grupo_86659" data-name="Grupo 86659" transform="translate(16.852)">
            <path id="Trazado_152099" data-name="Trazado 152099" d="M656.5,3825.69c-1.231-.812-4.6-2.857-5.7-3.666-2.413-1.77-2.12-4.029-2.819-7.567-2.256-1.613-3.015-2.892-3.217-4.339-.479-3.434,1.477-7.134,4.1-9.155a9.11,9.11,0,0,1,7.892-1.613c5.759,1.26,8.131,5.618,8.436,10.6a3.342,3.342,0,0,1-.162,1.237,15.56,15.56,0,0,0-.532,1.85c-.3,1.478.7,2.013.3,3.849-.542,2.5-2.614,7.37-3.462,8.184C660.678,3825.695,657.769,3825.9,656.5,3825.69Z" transform="translate(-643.07 -3795.371)" fill="#ffa698" fill-rule="evenodd"/>
            <path id="Trazado_152100" data-name="Trazado 152100" d="M669.507,3812.135a16.142,16.142,0,0,1,.277,2.171,3.35,3.35,0,0,1-.162,1.237,15.559,15.559,0,0,0-.532,1.85c-.3,1.479.7,2.014.3,3.849a29.725,29.725,0,0,1-1.559,4.589c-3.708,2.82-6.949-.624-7.445-1.263-2.324-3-2.5-7.478-.744-11.665A14.235,14.235,0,0,0,669.507,3812.135Z" transform="translate(-647.664 -3799.728)" fill-rule="evenodd" fill="url(#linear-gradient-9)"/>
            <path id="Trazado_152101" data-name="Trazado 152101" d="M642.339,3806.639a28.728,28.728,0,0,0,2.773,8.609c1.17,1.88.66-.424,1.275-1.71.473-.99,2.007-1.1,2.47-2.125a3.194,3.194,0,0,0,1.089,2.016c.355.194,1.075.46,1.1-.562.1-3.533,1.77-3.779,1.242-5.9-.4-1.587-.3-2.269.088-2.843,1.153.162,1.9,1.343,3.247,1.926a11.82,11.82,0,0,0,8.03-.763c2.848-1.555,3.114-5.024.722-7.253-1.331-1.24-2.824-1.555-4.913-2.953a9.058,9.058,0,0,0-11.656,1.234C642.568,3797.38,642,3802.382,642.339,3806.639Z" transform="translate(-642.259 -3793.516)" fill="#12263f" fill-rule="evenodd"/>
            <path id="Trazado_152102" data-name="Trazado 152102" d="M649.589,3817.569c-2.172-.986-2.441,1.608-2.246,3.216.134,1.1,1.034,1.111,1.274,2a2.049,2.049,0,0,0,1.705,1.653c1.371.1.724-2.019.64-2.84C651.251,3820.287,650.968,3818.194,649.589,3817.569Z" transform="translate(-643.938 -3801.469)" fill="#ffa698" fill-rule="evenodd"/>
          </g>
        </g>
      </g>
    </g>
  </g>
</svg>
