<svg id="Grupo_88499" data-name="Grupo 88499" xmlns="http://www.w3.org/2000/svg" xmlns:xlink="http://www.w3.org/1999/xlink" width="274.039" height="290.516" viewBox="0 0 274.039 290.516">
  <defs>
    <clipPath id="clip-path">
      <rect id="Rectángulo_7818" data-name="Rectángulo 7818" width="274.039" height="290.516" fill="none"/>
    </clipPath>
    <clipPath id="clip-path-3">
      <rect id="Rectángulo_7793" data-name="Rectángulo 7793" width="122.334" height="70.807" fill="none"/>
    </clipPath>
    <clipPath id="clip-path-4">
      <rect id="Rectángulo_7794" data-name="Rectángulo 7794" width="43.306" height="25.09" fill="none"/>
    </clipPath>
    <clipPath id="clip-path-5">
      <path id="Trazado_157711" data-name="Trazado 157711" d="M114.634,70.225l5.207,26.843h.078c.358,2.127,1.949,4.2,4.78,5.835,6.449,3.725,16.844,3.725,23.233.008,2.808-1.632,4.381-3.71,4.714-5.842h.018l5.267-27.524Z" transform="translate(-114.634 -69.544)" fill="none"/>
    </clipPath>
    <linearGradient id="linear-gradient" x1="-5.136" y1="4.125" x2="-5.091" y2="4.125" gradientUnits="objectBoundingBox">
      <stop offset="0" stop-color="#ffdf02"/>
      <stop offset="0.121" stop-color="#f8d401"/>
      <stop offset="0.441" stop-color="#ebbc00"/>
      <stop offset="0.742" stop-color="#e3ae00"/>
      <stop offset="1" stop-color="#e1aa00"/>
    </linearGradient>
    <clipPath id="clip-path-7">
      <rect id="Rectángulo_7797" data-name="Rectángulo 7797" width="212.65" height="124.362" fill="none"/>
    </clipPath>
    <clipPath id="clip-path-8">
      <rect id="Rectángulo_7799" data-name="Rectángulo 7799" width="116.755" height="74.631" fill="none"/>
    </clipPath>
    <clipPath id="clip-path-9">
      <rect id="Rectángulo_7798" data-name="Rectángulo 7798" width="116.723" height="47.389" fill="none"/>
    </clipPath>
    <clipPath id="clip-path-10">
      <rect id="Rectángulo_7800" data-name="Rectángulo 7800" width="62.108" height="99.819" fill="none"/>
    </clipPath>
    <clipPath id="clip-path-11">
      <path id="Trazado_157737" data-name="Trazado 157737" d="M8.558,93.244,32.071,207.852l153.4-88.744L162.833,5.963Z" transform="translate(-8.558 -5.963)" fill="none"/>
    </clipPath>
    <linearGradient id="linear-gradient-2" x1="0.089" y1="1.233" x2="0.096" y2="1.233" gradientUnits="objectBoundingBox">
      <stop offset="0" stop-color="#1a6bb2"/>
      <stop offset="1" stop-color="#1b4b92"/>
    </linearGradient>
    <clipPath id="clip-path-13">
      <rect id="Rectángulo_7815" data-name="Rectángulo 7815" width="144.364" height="174.151" fill="none"/>
    </clipPath>
    <clipPath id="clip-path-15">
      <rect id="Rectángulo_7803" data-name="Rectángulo 7803" width="25.216" height="18.337" fill="none"/>
    </clipPath>
    <clipPath id="clip-path-16">
      <rect id="Rectángulo_7804" data-name="Rectángulo 7804" width="57.074" height="36.506" fill="none"/>
    </clipPath>
    <clipPath id="clip-path-17">
      <rect id="Rectángulo_7805" data-name="Rectángulo 7805" width="34.299" height="22.756" fill="none"/>
    </clipPath>
    <clipPath id="clip-path-18">
      <rect id="Rectángulo_7806" data-name="Rectángulo 7806" width="34.306" height="22.772" fill="none"/>
    </clipPath>
    <clipPath id="clip-path-19">
      <rect id="Rectángulo_7807" data-name="Rectángulo 7807" width="57.072" height="36.505" fill="none"/>
    </clipPath>
    <clipPath id="clip-path-20">
      <rect id="Rectángulo_7808" data-name="Rectángulo 7808" width="62.196" height="39.687" fill="none"/>
    </clipPath>
    <clipPath id="clip-path-22">
      <rect id="Rectángulo_7810" data-name="Rectángulo 7810" width="53.163" height="51.856" fill="none"/>
    </clipPath>
    <clipPath id="clip-path-23">
      <rect id="Rectángulo_7811" data-name="Rectángulo 7811" width="38.98" height="43.502" fill="none"/>
    </clipPath>
    <clipPath id="clip-path-24">
      <rect id="Rectángulo_7813" data-name="Rectángulo 7813" width="34.301" height="22.773" fill="none"/>
    </clipPath>
    <clipPath id="clip-path-25">
      <rect id="Rectángulo_7814" data-name="Rectángulo 7814" width="34.299" height="22.768" fill="none"/>
    </clipPath>
    <clipPath id="clip-path-26">
      <rect id="Rectángulo_7816" data-name="Rectángulo 7816" width="62.141" height="35.995" fill="none"/>
    </clipPath>
  </defs>
  <g id="Grupo_88570" data-name="Grupo 88570" clip-path="url(#clip-path)">
    <g id="Grupo_88507" data-name="Grupo 88507">
      <g id="Grupo_88506" data-name="Grupo 88506" clip-path="url(#clip-path)">
        <g id="Grupo_88502" data-name="Grupo 88502" transform="translate(73.956 219.708)" opacity="0.1">
          <g id="Grupo_88501" data-name="Grupo 88501">
            <g id="Grupo_88500" data-name="Grupo 88500" clip-path="url(#clip-path-3)">
              <path id="Trazado_157709" data-name="Trazado 157709" d="M83.817,112.29l76.314,44.065L114.121,183.1,37.8,139.031Z" transform="translate(-37.798 -112.29)"/>
            </g>
          </g>
        </g>
        <g id="Grupo_88505" data-name="Grupo 88505" transform="translate(220.134 148.284)" opacity="0.1">
          <g id="Grupo_88504" data-name="Grupo 88504">
            <g id="Grupo_88503" data-name="Grupo 88503" clip-path="url(#clip-path-4)">
              <path id="Trazado_157710" data-name="Trazado 157710" d="M149.407,79.445c8.511,4.909,8.535,12.861.113,17.752-8.429,4.907-22.11,4.907-30.621-.014-8.488-4.893-8.523-12.829-.1-17.721s22.135-4.905,30.607-.018" transform="translate(-112.508 -75.786)"/>
            </g>
          </g>
        </g>
      </g>
    </g>
    <g id="Grupo_88509" data-name="Grupo 88509" transform="translate(224.294 136.071)">
      <g id="Grupo_88508" data-name="Grupo 88508" clip-path="url(#clip-path-5)">
        <rect id="Rectángulo_7796" data-name="Rectángulo 7796" width="43.641" height="37.487" transform="translate(-0.347 0.003) rotate(-0.536)" fill="url(#linear-gradient)"/>
      </g>
    </g>
    <g id="Grupo_88523" data-name="Grupo 88523">
      <g id="Grupo_88522" data-name="Grupo 88522" clip-path="url(#clip-path)">
        <path id="Trazado_157712" data-name="Trazado 157712" d="M151.534,66.8c8.507,4.911,8.535,12.861.113,17.756s-22.114,4.892-30.621-.02c-8.49-4.9-8.529-12.826-.106-17.717s22.137-4.905,30.613-.02" transform="translate(109.658 60.4)" fill="#ffe85f"/>
        <path id="Trazado_157713" data-name="Trazado 157713" d="M144.28,67.539c6.226,3.59,6.226,9.384.065,12.974-6.146,3.575-16.158,3.575-22.374-.014-6.2-3.586-6.236-9.37-.082-12.961,6.163-3.563,16.193-3.573,22.391,0" transform="translate(112.208 62.049)" fill="#4d9b12"/>
        <path id="Trazado_157714" data-name="Trazado 157714" d="M121.43,97.3s-17.259-21.83-.292-61.091c0,0,14.911,18.8,6.367,66.992,0,0-3.32-1.242-6.075-5.9" transform="translate(108.74 34.642)" fill="#73c139"/>
        <path id="Trazado_157715" data-name="Trazado 157715" d="M117.593,36.356c.323,15.115,1.176,41.365,3.258,64.76a10.321,10.321,0,0,0,2.906,1.953c7.958-44.939-4.436-64.3-6.163-66.713" transform="translate(112.491 34.779)" fill="#4d9b12"/>
        <path id="Trazado_157716" data-name="Trazado 157716" d="M124.031,95.634s-13.839-24.156,8.789-60.463c0,0,11.957,20.814-3.673,67.206,0,0-3.093-1.728-5.117-6.742" transform="translate(114.642 33.645)" fill="#73c139"/>
        <path id="Trazado_157717" data-name="Trazado 157717" d="M130.19,35.171c-1.923,15-6.191,41.052-7.6,64.5a10.525,10.525,0,0,0,2.587,2.373c16.974-40.517,6.349-64.232,5.013-66.871" transform="translate(117.272 33.645)" fill="#4d9b12"/>
        <path id="Trazado_157718" data-name="Trazado 157718" d="M135.076,90.82s-20.7-7.312-25.868-40.654c0,0,17.846,6.281,32.407,42.055a10.79,10.79,0,0,1-6.539-1.4" transform="translate(104.47 47.989)" fill="#73c139"/>
        <path id="Trazado_157719" data-name="Trazado 157719" d="M109.336,50.216c6.576,9.969,18.151,27.132,29.394,41.87a8.375,8.375,0,0,0,2.765.088c-13.567-33.347-29.987-41.063-32.159-41.958" transform="translate(104.592 48.037)" fill="#4d9b12"/>
        <path id="Trazado_157720" data-name="Trazado 157720" d="M129.852,87.327s-11.08-12.661-2.009-36.876c0,0,9.562,10.9,5.868,40.253a8.171,8.171,0,0,1-3.858-3.377" transform="translate(118.882 48.262)" fill="#73c139"/>
        <path id="Trazado_157721" data-name="Trazado 157721" d="M126.166,50.531c.65,9.128,1.951,24.953,3.9,39.009a6.244,6.244,0,0,0,1.831,1.09c3.446-27.357-4.622-38.69-5.735-40.1" transform="translate(120.692 48.339)" fill="#4d9b12"/>
        <path id="Trazado_157722" data-name="Trazado 157722" d="M131.133,88.411s-10.593-19.235,7.7-47.583c0,0,9.161,16.582-3.749,52.954a10.721,10.721,0,0,1-3.95-5.371" transform="translate(122.524 39.057)" fill="#73c139"/>
        <path id="Trazado_157723" data-name="Trazado 157723" d="M136.521,40.957c-1.718,11.808-4.485,32.339-5.882,50.805a8.123,8.123,0,0,0,2,1.9c12.035-33.928,4.909-50.592,3.886-52.7" transform="translate(124.971 39.18)" fill="#4d9b12"/>
        <path id="Trazado_157724" data-name="Trazado 157724" d="M131.081,82.335s-2.508-16.207,17.565-31.406c0,0,2.209,13.955-16.169,36.193a8.119,8.119,0,0,1-1.4-4.788" transform="translate(125.298 48.719)" fill="#73c139"/>
        <path id="Trazado_157725" data-name="Trazado 157725" d="M148.4,51.03c-4.24,7.84-11.407,21.55-17.12,34.151a6.062,6.062,0,0,0,.91,1.845c17.12-20.726,16.379-34.249,16.211-36" transform="translate(125.584 48.816)" fill="#4d9b12"/>
        <g id="Grupo_88512" data-name="Grupo 88512" transform="translate(0 127.736)" opacity="0.1">
          <g id="Grupo_88511" data-name="Grupo 88511">
            <g id="Grupo_88510" data-name="Grupo 88510" clip-path="url(#clip-path-7)">
              <path id="Trazado_157726" data-name="Trazado 157726" d="M0,152.3l64.267,37.348,148.383-85.67L146.836,65.284Z" transform="translate(0 -65.285)"/>
            </g>
          </g>
        </g>
        <g id="Grupo_88518" data-name="Grupo 88518" transform="translate(59.428 161.336)" style="isolation: isolate">
          <g id="Grupo_88517" data-name="Grupo 88517">
            <g id="Grupo_88516" data-name="Grupo 88516" clip-path="url(#clip-path-8)">
              <path id="Trazado_157727" data-name="Trazado 157727" d="M30.373,106.677l.018,7.114,34.65,20.128-.035-7.116Z" transform="translate(-30.373 -59.288)" fill="#95c4de"/>
              <path id="Trazado_157728" data-name="Trazado 157728" d="M48.074,140.129l.035,7.116L130.2,99.862l-.033-7.116Z" transform="translate(-13.441 -72.615)" fill="#a9d6ea"/>
              <path id="Trazado_157729" data-name="Trazado 157729" d="M30.373,129.846l34.632,20.126L147.1,102.588,112.461,82.457Z" transform="translate(-30.373 -82.457)" fill="#def6ff"/>
              <g id="Grupo_88515" data-name="Grupo 88515" opacity="0.5">
                <g id="Grupo_88514" data-name="Grupo 88514">
                  <g id="Grupo_88513" data-name="Grupo 88513" clip-path="url(#clip-path-9)">
                    <path id="Trazado_157730" data-name="Trazado 157730" d="M30.373,129.846,147.1,102.588,112.461,82.457Z" transform="translate(-30.373 -82.457)" fill="#def6ff"/>
                  </g>
                </g>
              </g>
            </g>
          </g>
        </g>
        <g id="Grupo_88521" data-name="Grupo 88521" transform="translate(85.085 115.78)" style="isolation: isolate">
          <g id="Grupo_88520" data-name="Grupo 88520">
            <g id="Grupo_88519" data-name="Grupo 88519" clip-path="url(#clip-path-10)">
              <path id="Trazado_157731" data-name="Trazado 157731" d="M49.828,143.25l-6.161-3.573-.18-64.046L49.632,79.2Z" transform="translate(-43.486 -43.43)" fill="#95c4de"/>
              <path id="Trazado_157732" data-name="Trazado 157732" d="M49.632,94.947l-6.146-3.573,55.761-32.2,6.152,3.579Z" transform="translate(-43.486 -59.173)" fill="#c0c5d1"/>
              <path id="Trazado_157733" data-name="Trazado 157733" d="M102.4,61l.194,64.052L46.823,157.243l-.2-64.046Z" transform="translate(-40.481 -57.424)" fill="#a9d6ea"/>
            </g>
          </g>
        </g>
        <path id="Trazado_157734" data-name="Trazado 157734" d="M33.388,176.151l-5.952-1.663L1.969,48.88l5.942,1.663Z" transform="translate(1.883 46.759)" fill="#95c4de"/>
        <path id="Trazado_157735" data-name="Trazado 157735" d="M7.911,97.3,1.969,95.639,167.639,0l5.934,1.649Z" transform="translate(1.883 0)" fill="#a9d6ea"/>
        <path id="Trazado_157736" data-name="Trazado 157736" d="M170.668.843l25.483,125.614L30.483,222.1,5.006,96.5Z" transform="translate(4.789 0.807)" fill="#def6ff"/>
      </g>
    </g>
    <g id="Grupo_88525" data-name="Grupo 88525" transform="translate(16.745 11.667)">
      <g id="Grupo_88524" data-name="Grupo 88524" clip-path="url(#clip-path-11)">
        <rect id="Rectángulo_7802" data-name="Rectángulo 7802" width="255.701" height="242.76" transform="translate(-73.851 169.762) rotate(-66.49)" fill="url(#linear-gradient-2)"/>
      </g>
    </g>
    <g id="Grupo_88569" data-name="Grupo 88569">
      <g id="Grupo_88568" data-name="Grupo 88568" clip-path="url(#clip-path)">
        <g id="Grupo_88564" data-name="Grupo 88564" transform="translate(37.112 27.42)">
          <g id="Grupo_88563" data-name="Grupo 88563">
            <g id="Grupo_88562" data-name="Grupo 88562" clip-path="url(#clip-path-13)">
              <g id="Grupo_88555" data-name="Grupo 88555" style="isolation: isolate">
                <g id="Grupo_88554" data-name="Grupo 88554">
                  <g id="Grupo_88553" data-name="Grupo 88553" clip-path="url(#clip-path-13)">
                    <g id="Grupo_88528" data-name="Grupo 88528" transform="translate(90.312 9.72)">
                      <g id="Grupo_88527" data-name="Grupo 88527">
                        <g id="Grupo_88526" data-name="Grupo 88526" clip-path="url(#clip-path-15)">
                          <path id="Trazado_157738" data-name="Trazado 157738" d="M89.357,18.982l.984,4.342L66.1,37.32l-.978-4.346Z" transform="translate(-65.125 -18.982)" fill="#649dd5"/>
                        </g>
                      </g>
                    </g>
                    <path id="Trazado_157739" data-name="Trazado 157739" d="M54.34,70.216,110.495,37.8,122.7,91.87,66.541,124.293ZM113.7,70.2,108.2,45.87,60.535,73.4l5.49,24.33Z" transform="translate(14.87 8.735)" fill="#649dd5"/>
                    <g id="Grupo_88531" data-name="Grupo 88531" transform="translate(64.946 27.614)">
                      <g id="Grupo_88530" data-name="Grupo 88530">
                        <g id="Grupo_88529" data-name="Grupo 88529" clip-path="url(#clip-path-16)">
                          <path id="Trazado_157740" data-name="Trazado 157740" d="M108.31,28.127l.925,4.087L53.08,64.633l-.92-4.085Z" transform="translate(-52.16 -28.127)" fill="#649dd5"/>
                        </g>
                      </g>
                    </g>
                    <g id="Grupo_88534" data-name="Grupo 88534" transform="translate(15.052 76.615)">
                      <g id="Grupo_88533" data-name="Grupo 88533">
                        <g id="Grupo_88532" data-name="Grupo 88532" clip-path="url(#clip-path-17)">
                          <path id="Trazado_157741" data-name="Trazado 157741" d="M60.2,53.171l.763,3.4L27.424,75.927l-.763-3.4Z" transform="translate(-26.66 -53.171)" fill="#649dd5"/>
                        </g>
                      </g>
                    </g>
                    <g id="Grupo_88537" data-name="Grupo 88537" transform="translate(13.318 68.938)">
                      <g id="Grupo_88536" data-name="Grupo 88536">
                        <g id="Grupo_88535" data-name="Grupo 88535" clip-path="url(#clip-path-18)">
                          <path id="Trazado_157742" data-name="Trazado 157742" d="M59.312,49.247l.769,3.41L26.547,72.02l-.773-3.412Z" transform="translate(-25.774 -49.247)" fill="#649dd5"/>
                        </g>
                      </g>
                    </g>
                    <path id="Trazado_157743" data-name="Trazado 157743" d="M23.188,69.08,66.012,44.352l18.746,83.076L41.934,152.155Zm54.771,56.55-5.441-24.141L38.98,120.848l5.445,24.145ZM68.088,81.886l-.767-3.408L33.785,97.838l.773,3.408ZM62.553,57.34l-.767-3.408L28.248,73.292l.773,3.41Zm3.8,16.872L65.59,70.8,32.057,90.162l.767,3.412ZM64.281,65l-.763-3.4L29.981,80.968l.763,3.4Z" transform="translate(-14.93 15.008)" fill="#8fc1ea"/>
                    <g id="Grupo_88540" data-name="Grupo 88540" transform="translate(67.02 36.819)">
                      <g id="Grupo_88539" data-name="Grupo 88539">
                        <g id="Grupo_88538" data-name="Grupo 88538" clip-path="url(#clip-path-19)">
                          <path id="Trazado_157744" data-name="Trazado 157744" d="M109.375,32.832l.918,4.083L54.144,69.337l-.924-4.083Z" transform="translate(-53.221 -32.832)" fill="#649dd5"/>
                        </g>
                      </g>
                    </g>
                    <g id="Grupo_88543" data-name="Grupo 88543" transform="translate(5.665 37.242)">
                      <g id="Grupo_88542" data-name="Grupo 88542">
                        <g id="Grupo_88541" data-name="Grupo 88541" clip-path="url(#clip-path-20)">
                          <path id="Trazado_157745" data-name="Trazado 157745" d="M83.073,33.048l.986,4.346L22.843,72.734l-.98-4.344Z" transform="translate(-21.863 -33.048)" fill="#649dd5"/>
                        </g>
                      </g>
                    </g>
                    <g id="Grupo_88546" data-name="Grupo 88546" opacity="0.8">
                      <g id="Grupo_88545" data-name="Grupo 88545">
                        <g id="Grupo_88544" data-name="Grupo 88544" clip-path="url(#clip-path-13)">
                          <path id="Trazado_157746" data-name="Trazado 157746" d="M139.772,14.015,18.967,83.762l23.556,104.4L163.332,118.42Zm3.287,40.9-20.55,11.867L86.91,87.339l-.924-4.083,56.155-32.423Zm-3-13.291.925,4.087L84.834,78.133l-.922-4.085Zm-.8-3.579L83.1,70.469l-.92-4.1,56.147-32.423ZM22.491,85.226,135.215,20.143l2.078,9.2L24.569,94.428Zm23.481,95.95L27.224,98.1,70.05,73.373,88.8,156.448ZM88.178,92.964l56.155-32.421,12.2,54.075L100.38,147.041Z" transform="translate(-18.968 -14.013)" fill="#649dd5"/>
                        </g>
                      </g>
                    </g>
                    <g id="Grupo_88549" data-name="Grupo 88549" transform="translate(75.405 54.605)">
                      <g id="Grupo_88548" data-name="Grupo 88548">
                        <g id="Grupo_88547" data-name="Grupo 88547" clip-path="url(#clip-path-22)">
                          <path id="Trazado_157747" data-name="Trazado 157747" d="M110.669,66.254l-5.494-24.332L57.506,69.448,63,93.778Z" transform="translate(-57.506 -41.922)" fill="#8fc1ea"/>
                        </g>
                      </g>
                    </g>
                    <path id="Trazado_157748" data-name="Trazado 157748" d="M107.423,24.2l.931,4.1L52.2,60.721l-.92-4.1Z" transform="translate(11.939 -4.266)" fill="#649dd5"/>
                    <g id="Grupo_88552" data-name="Grupo 88552" transform="translate(24.051 116.497)">
                      <g id="Grupo_88551" data-name="Grupo 88551">
                        <g id="Grupo_88550" data-name="Grupo 88550" clip-path="url(#clip-path-23)">
                          <path id="Trazado_157749" data-name="Trazado 157749" d="M64.8,73.554l5.441,24.141L36.7,117.056,31.26,92.913Z" transform="translate(-31.259 -73.554)" fill="#649dd5"/>
                        </g>
                      </g>
                    </g>
                    <path id="Trazado_157750" data-name="Trazado 157750" d="M20.768,82.229,133.492,17.148l2.078,9.2L22.846,91.433ZM85.105,52.606l-.986-4.346L22.909,83.6l.98,4.344ZM132.772,25.08l-.984-4.342L107.555,34.73l.978,4.346Z" transform="translate(-17.245 -11.016)" fill="#8fc1ea"/>
                  </g>
                </g>
              </g>
              <g id="Grupo_88558" data-name="Grupo 88558" transform="translate(17.127 85.808)">
                <g id="Grupo_88557" data-name="Grupo 88557">
                  <g id="Grupo_88556" data-name="Grupo 88556" clip-path="url(#clip-path-24)">
                    <path id="Trazado_157751" data-name="Trazado 157751" d="M61.253,57.869l.769,3.41L28.488,80.642l-.767-3.412Z" transform="translate(-27.721 -57.869)" fill="#649dd5"/>
                  </g>
                </g>
              </g>
              <g id="Grupo_88561" data-name="Grupo 88561" transform="translate(18.861 93.485)">
                <g id="Grupo_88560" data-name="Grupo 88560">
                  <g id="Grupo_88559" data-name="Grupo 88559" clip-path="url(#clip-path-25)">
                    <path id="Trazado_157752" data-name="Trazado 157752" d="M62.137,61.793l.769,3.408L29.376,84.56l-.769-3.406Z" transform="translate(-28.607 -61.793)" fill="#649dd5"/>
                  </g>
                </g>
              </g>
            </g>
          </g>
        </g>
        <path id="Trazado_157753" data-name="Trazado 157753" d="M44.007,38.715l6.631,32.666L32.2,81.817l-8.441-2.561-5.653-1.847L13.767,56.176Z" transform="translate(13.17 37.035)" fill="#ff4caa"/>
        <path id="Trazado_157754" data-name="Trazado 157754" d="M15.984,60.8l10.73-4.715L30.079,65.2Z" transform="translate(15.29 53.647)" fill="#e53399"/>
        <path id="Trazado_157755" data-name="Trazado 157755" d="M36.415,43.338l.4,1.955L17.98,56.412l-.448-2.174Z" transform="translate(16.771 41.458)" fill="#def6ff"/>
        <path id="Trazado_157756" data-name="Trazado 157756" d="M37.146,46.389l.4,1.957L18.707,59.465l-.444-2.174Z" transform="translate(17.47 44.376)" fill="#def6ff"/>
        <path id="Trazado_157757" data-name="Trazado 157757" d="M38.089,49.266l.4,1.955L19.651,62.338l-.448-2.17Z" transform="translate(18.37 47.128)" fill="#def6ff"/>
        <g id="Grupo_88567" data-name="Grupo 88567" transform="translate(155.97 198.841)" opacity="0.1">
          <g id="Grupo_88566" data-name="Grupo 88566">
            <g id="Grupo_88565" data-name="Grupo 88565" clip-path="url(#clip-path-26)">
              <path id="Trazado_157758" data-name="Trazado 157758" d="M132.687,106.9c12.176,7.028,12.233,18.423.141,25.45s-31.768,7.034-43.94,0-12.239-18.427-.145-25.457,31.768-7.024,43.944,0" transform="translate(-79.714 -101.625)"/>
            </g>
          </g>
        </g>
        <path id="Trazado_157759" data-name="Trazado 157759" d="M117.327,54.254s-.493-5.619-8.466-5.212A139.811,139.811,0,0,0,92.926,50.92L79.75,38.057s-3.44.732-4.06,3.06c0,0,9.106,15.584,15.637,18.083,0,0,28.735,7.373,26-4.946" transform="translate(72.406 36.406)" fill="#def0f9"/>
        <path id="Trazado_157760" data-name="Trazado 157760" d="M82.09,41.967s-.673-4.036-1.8-5.469a7.232,7.232,0,0,0-2.728-2.268c-.473-.168.536,1.712.884,2.309s.18,2.283-3.088-.475-2.774-1.784-2.81-1.424,2.191,7.245,6.32,9.76a5.869,5.869,0,0,1,3.224-2.432" transform="translate(69.391 32.692)" fill="#efb185"/>
        <path id="Trazado_157761" data-name="Trazado 157761" d="M91.326,58.479C84.8,55.98,75.691,40.4,75.691,40.4a3.268,3.268,0,0,1,1.057-1.585c2.182,2.953,8.605,11.544,12.761,16.042,5.06,5.48,27.87,1.076,27.952.89-1.129,9.147-26.134,2.735-26.134,2.735" transform="translate(72.407 37.127)" fill="#c1dbe5"/>
        <path id="Trazado_157762" data-name="Trazado 157762" d="M96.436,102.017s-3.146.757-2.209,2.534,4.852,4.236,5.434,5.361,3.946,5,4.878,4.535,3.5-.115,2.784-4.827-6.652-8.177-10.887-7.6" transform="translate(89.972 97.532)" fill="#111114"/>
        <path id="Trazado_157763" data-name="Trazado 157763" d="M107.98,107.826s2.4,4.173-1.194,5.964-2.933-.812-10.8,2.911-9.654-.362-9.652-1.356,5.181-3.8,6.9-4.618,4.966-2.366,4.966-2.366l9.818-1.931Z" transform="translate(82.592 101.813)" fill="#111114"/>
        <path id="Trazado_157764" data-name="Trazado 157764" d="M104.208,69.685s2.469,27.422,2.743,30.509,5.86,27.124,4.731,37.937c0,0-5.459,6.521-11.274.994,0,0-4.371-30.324-6.51-37.058S90.426,74.25,90.426,74.25Z" transform="translate(86.502 66.661)" fill="#ea49bd"/>
        <path id="Trazado_157765" data-name="Trazado 157765" d="M100.5,70.1s2.094,17.707,4.107,35.276c0,0,5.891,34.5,6.05,39.615,0,0-10.532,4.909-12.667-.08,0,0-5.662-30.273-7.183-36.53s-6.926-25.753-6.427-36.407S100.5,70.1,100.5,70.1" transform="translate(80.686 63.804)" fill="#ea49bd"/>
        <path id="Trazado_157766" data-name="Trazado 157766" d="M106.217,141.815c-.158-5.115-6.052-39.616-6.052-39.616-1.354-11.828-2.986-25.679-3.741-32.184L89.2,72.944a121.721,121.721,0,0,0,3.127,35.229c3.53,14.909,6.686,29.645,7.932,35.55a28.627,28.627,0,0,0,5.954-1.908" transform="translate(85.126 66.977)" fill="#fe61ca"/>
        <path id="Trazado_157767" data-name="Trazado 157767" d="M107.687,137.314c1.129-10.812-4.463-34.849-4.731-37.937-.26-2.941-1.53-26.465-1.736-28.839l-6.615,3.7s-.182,19.777,2.708,30.778c2.645,10.01,3.264,29.893,4.612,35.483a9.683,9.683,0,0,0,5.762-3.185" transform="translate(90.498 67.478)" fill="#fe61ca"/>
        <path id="Trazado_157768" data-name="Trazado 157768" d="M108.5,43.7s6.11,2.242,3.941,12.44-3.761,16.817-3.162,20.45,3.068,17.1,4.117,19.515c0,0,.916,4.16-14.553,8.051,0,0-13.986,3.24-12.616-7.05,1.381-10.311-1.788-21.028-2.6-24.837s-4.007-11.26,5.05-17.551S102.3,44.017,108.5,43.7" transform="translate(78.833 41.808)" fill="#def0f9"/>
        <path id="Trazado_157769" data-name="Trazado 157769" d="M97.015,41.619s-.037,5.2,2.088,8.22c1.929,2.733-9.875,6.76-10.456,4.091a11.686,11.686,0,0,0-1.757-9.883c-1.831-2.573,10.125-2.428,10.125-2.428" transform="translate(82.937 39.812)" fill="#efb185"/>
        <path id="Trazado_157770" data-name="Trazado 157770" d="M98.1,49.494c-1.581-2.244-1.972-5.692-2.058-7.318L87.7,47.555c0,.01.006.014.012.022.327.041,6.461.884,8.239,5.027,1.73-.949,2.851-2.113,2.15-3.109" transform="translate(83.896 40.346)" fill="#dd9569"/>
        <path id="Trazado_157771" data-name="Trazado 157771" d="M85.062,36.613s-1.364,4.87-.526,8.844c.888,4.277.34,5.222.834,7.114a4.562,4.562,0,0,0,1.3,2.72c1.473,1.139,4.277,1.307,7.85-.473,4.316-2.16,8.366-8.893,5.807-14.242s-9-9.268-15.267-3.962" transform="translate(80.608 32.614)" fill="#efb185"/>
        <path id="Trazado_157772" data-name="Trazado 157772" d="M100.713,46.56c-2.375-4.807-7.529-10.317-7.523-10.638a14.482,14.482,0,0,0-3.4-1.767,10.161,10.161,0,0,0-4.827,2.4,25.3,25.3,0,0,0-.6,3.107c1.215,1.08,3.553,2.2,4,3.185a13.055,13.055,0,0,1,.487,7.684c-.536,1.683,2.626,3.716,2.176,5.209a.305.305,0,0,0,0,.192,12.21,12.21,0,0,0,9.687-9.368" transform="translate(80.704 32.673)" fill="#e6a376"/>
        <path id="Trazado_157773" data-name="Trazado 157773" d="M83.882,35.591a5.8,5.8,0,0,0,3.956,5.555c2.495.892,2.714,4.729,2.677,5.449s-.366,4.013-.025,4.395c.64.732,2.209-1.955,3.105-1.882,2.3.18,1.657,2.367-.129,4.79-1.906,2.567,3.9,2.882,6.314.663,1.291-1.174,1.732-1.845,3.16-5.709,2.076-5.631,1.491-12.049-5.2-14.757s-9.771,2.6-13.859,1.5" transform="translate(80.241 31.871)" fill="#221101"/>
        <path id="Trazado_157774" data-name="Trazado 157774" d="M99.779,54.56c1.291-1.176,1.732-1.845,3.162-5.711,2.074-5.629,1.489-12.047-5.2-14.755s-9.771,2.6-13.859,1.5a5.723,5.723,0,0,0,.213,1.6c2.037.1,7.619.558,9.288,2.751,2.068,2.7,3.884,1.546,4.142,5.158.256,3.483,1.661,7.914-3.931,10.527,2.336,1.313,5.25-.2,6.185-1.068" transform="translate(80.241 31.871)" fill="#341c09"/>
        <path id="Trazado_157775" data-name="Trazado 157775" d="M89.694,49.253,86.123,53.01s12.665,2.141,15.586-4.281a3.52,3.52,0,0,0-2.731-3.978s.137,4.935-9.284,4.5" transform="translate(82.386 42.809)" fill="#c1dbe5"/>
        <path id="Trazado_157776" data-name="Trazado 157776" d="M85.282,91.293c1.377-10.311-.845-20.689-1.661-24.5-.814-3.774-3.923-11.114,4.8-17.361,3.465,1.6,8.625,5.308,6.778,12.775-2.289,9.231-1.211,28.568-.914,36.958-3.941,0-9.844-1.548-9-7.873" transform="translate(78.839 47.288)" fill="#c1dbe5"/>
        <path id="Trazado_157777" data-name="Trazado 157777" d="M76.557,45.385s.389-3.015-.548-4.025-2.988-5.175-3.862-5.739-.536,1.1-.27,2.2.1,3.248-.278,2.98-2.139,1-1.816,2.549,2.833,4.056,2.882,4.391,3.892-2.358,3.892-2.358" transform="translate(66.718 33.966)" fill="#efb185"/>
        <path id="Trazado_157778" data-name="Trazado 157778" d="M103.613,64.624s1.053-4.982-5.958-6.731A126.7,126.7,0,0,0,83.4,55.324L75.387,40.75s-3.168-.268-4.312,1.579c0,0,3.774,15.862,8.766,19.738,0,0,22.9,13.927,23.773,2.557" transform="translate(67.991 38.969)" fill="#def0f9"/>
        <path id="Trazado_157779" data-name="Trazado 157779" d="M90.714,129.976s-4.44,3.727-3.51,7.623c0,0,1.487,1.577,2.878-1.207s2.859-6.5.632-6.416" transform="translate(83.297 124.335)" fill="#0a1014"/>
        <path id="Trazado_157780" data-name="Trazado 157780" d="M87.141,142.208s6.715,2.311,7.844.117a20.479,20.479,0,0,1,3.191-4.727C99,136.8,104.537,127.49,102.721,126c-1.831-1.483-4.479,1.156-5.273,1.8s-9.237,7.2-9.237,7.2Z" transform="translate(83.36 120.109)" fill="#111114"/>
        <path id="Trazado_157781" data-name="Trazado 157781" d="M70.494,116s23.515,13.481,28.848,18.067c4.414,3.8,28.882,15.5,28.882,15.5a28.949,28.949,0,0,0-1.986,7.57s-22.354-.323-36.42-13.238c0,0-47.2-9.832-43.169-34.182,0,0,15.561,2.8,23.845,6.283" transform="translate(44.391 104.956)" fill="#131c24"/>
        <path id="Trazado_157782" data-name="Trazado 157782" d="M95.808,137.019c.734-.706,5.191-8.159,4.852-10.826a2.483,2.483,0,0,0-2.786,1.761,83.507,83.507,0,0,1-5.126,9.617c-.53.671-3.575,3.61-3.08,5.1,1.34.08,2.532-.108,2.949-.924a20.435,20.435,0,0,1,3.191-4.727" transform="translate(85.726 120.688)" fill="#1d1d21"/>
        <path id="Trazado_157783" data-name="Trazado 157783" d="M81.944,147.8S89.549,149,90.35,147a18,18,0,0,1,2.383-4.359c.65-.751,4.7-9.259,3-10.4s-3.778,1.36-4.418,1.986-7.584,6.889-7.584,6.889Z" transform="translate(78.389 126.223)" fill="#161619"/>
        <path id="Trazado_157784" data-name="Trazado 157784" d="M89.874,142.189c.577-.669,3.841-7.488,3.334-9.762a2.159,2.159,0,0,0-2.27,1.753,73.668,73.668,0,0,1-3.675,8.738c-.4.62-2.8,3.418-2.25,4.668,1.16-.041,2.18-.305,2.477-1.037a18.017,18.017,0,0,1,2.383-4.361" transform="translate(81.247 126.679)" fill="#1d1d21"/>
        <path id="Trazado_157785" data-name="Trazado 157785" d="M55.618,90.61a5.092,5.092,0,0,0-4.279,5.617c.178,5.064,4.858,26.943,10.237,31.288s5.257-6,5.257-6S63.534,89.5,55.618,90.61" transform="translate(49.106 86.651)" fill="#779f29"/>
        <path id="Trazado_157786" data-name="Trazado 157786" d="M71.38,111.832s-3.909,11.587-5.929,14.113c0,0,23.511,13.487,28.842,18.073,4.418,3.794,29.416,15.277,29.416,15.277a21.249,21.249,0,0,0-2.522,7.789s-22.35-.321-36.418-13.235c0,0-47.2-9.832-43.169-34.184,0,0,15.616,6.212,29.78-7.834" transform="translate(39.562 106.98)" fill="#1d2833"/>
        <path id="Trazado_157787" data-name="Trazado 157787" d="M53.62,92.589s-12.761,7.171-13.043,8.046-1.757,1.556,2.434,11.487a31.95,31.95,0,0,1,1.137,19.548c-1.636,6.247-1.374,8.359-1.374,8.359s4.956,10.622,19.057,5.435c2.845-1.049,10.8-8.633,12.244-11.753,0,0-4.485-5.518-2.724-16.287S74.114,92.671,68,90.81c0,0-1.554-1.876-14.381,1.779" transform="translate(38.358 86.41)" fill="#9cbc35"/>
        <path id="Trazado_157788" data-name="Trazado 157788" d="M49.037,89.717s8.22,4.324,4.553,10.523l3.87,2.129s3.788-10.844-8.423-12.651" transform="translate(46.909 85.824)" fill="#feffff"/>
        <path id="Trazado_157789" data-name="Trazado 157789" d="M46.342,87.486s3.455,5.255.72,8.795c-1.532,1.982,2.078,6.682,8.226,6.3,0,0,2.757-.673,2.475-1.669-.638-2.268.272-3.543,1.254-5.281s-12.675-8.149-12.675-8.149" transform="translate(44.331 83.69)" fill="#efb185"/>
        <path id="Trazado_157790" data-name="Trazado 157790" d="M46.869,96.12a1.66,1.66,0,0,0-.325.814c2.307-2.346,6.742-2.52,6.742-2.52L47.43,87.942c-.227-.11-.421-.2-.591-.288l-.18.577c.847,1.659,2.248,5.252.209,7.889" transform="translate(44.524 83.851)" fill="#dd9569"/>
        <path id="Trazado_157791" data-name="Trazado 157791" d="M54.077,98.035c-.583-3.6.272-3.543,1.254-5.279.264-.473-.573-1.3-1.919-2.258a4.41,4.41,0,0,0-1.006,1.131c-2.381,3.676-2.366,6.547-2.084,8.077a6.08,6.08,0,0,0,1.28,0c.74-.112,2.653-.562,2.475-1.671" transform="translate(48.017 86.571)" fill="#f2b78f"/>
        <path id="Trazado_157792" data-name="Trazado 157792" d="M45.9,91.456s1.5,6.946,6.281,10.1c4.232,2.8,9.167,4.631,10.071-.427.724-4.021,2.7-14.252-.851-16.31-4.575-2.643-6.253-5.911-11.542-3.96,0,0-6.048,2.78-3.958,10.6" transform="translate(43.492 76.781)" fill="#efb185"/>
        <path id="Trazado_157793" data-name="Trazado 157793" d="M45.9,90.366a15.611,15.611,0,0,0,6.261,10.194,19.655,19.655,0,0,0,4.005,2.127,18.937,18.937,0,0,1-4.181-4.156c-1.726-2.009,2.571-1.235-.368-6.375-1-1.753,3.9.507,5,.475,6.521-.166,6.032-3.892,6.157-5.473a11.4,11.4,0,0,0-.534-1.929l-.618-1.186c-.072-.108-.147-.217-.219-.317A22.439,22.439,0,0,0,59.29,81.4c-2.794.061-10.73.233-10.89.274-.108.025-1.471,1.88-2.735,3.641a10.7,10.7,0,0,0,.239,5.048" transform="translate(43.493 77.871)" fill="#e6a376"/>
        <path id="Trazado_157794" data-name="Trazado 157794" d="M49.021,98.342s-5.275-4.847-3.444-11.8a8.133,8.133,0,0,1,7.2-6.334c2.96-.35,8.664-.168,10.93,5.817.7,1.871.227,5.966-7.11,4.056-1.053-.274-3.841-.642-4.827.252a3.827,3.827,0,0,0-.62,3.982c.417,1.244-.679,1.377-.834,1.111S48.753,91.613,47.427,93c-1.2,1.256,1.469,5.1,1.595,5.343" transform="translate(43.231 76.624)" fill="#341c09"/>
        <path id="Trazado_157795" data-name="Trazado 157795" d="M49.021,97.15c-.125-.239-2.79-4.087-1.595-5.343,1.327-1.385,2.737,2.164,2.888,2.426s1.25.133.834-1.111a3.827,3.827,0,0,1,.62-3.982c.892-.812,3.34-.4,4.827-.252-1.213-.777-3.643-1.053-4.508-3.082-1.154-2.714-2.792-3.984-4.324-4.459a8.415,8.415,0,0,0-2.186,4c-1.831,6.956,3.444,11.8,3.444,11.8" transform="translate(43.231 77.816)" fill="#221101"/>
        <path id="Trazado_157796" data-name="Trazado 157796" d="M48.015,91.112a10.708,10.708,0,0,0,8.255,7.793l-2,4.9s-12.579-6.306-6.251-12.689" transform="translate(44.229 87.159)" fill="#feffff"/>
        <path id="Trazado_157797" data-name="Trazado 157797" d="M62.572,86.082s1.082,6.692-7.435,4.267a9.791,9.791,0,0,1-5.972-5.085,3.877,3.877,0,0,0-2.788-2.385s2.266-3.221,8.128-2.8c2.761.2,5.625,2.878,6.334,3.314s-.438,3.232,1.734,2.692" transform="translate(44.365 76.565)" fill="#341c09"/>
        <path id="Trazado_157798" data-name="Trazado 157798" d="M69.03,112.4s6.138,1.149,10.325-.595,3.181-1.88,2.859-2.516c-.7-1.379-6.23-1-7.253-1.268s.853-1.078,1.27-1.782,1.387-1.526,1.049-1.757-1.18-.466-2.737.773a33.65,33.65,0,0,1-5.482,2.923Z" transform="translate(66.035 99.774)" fill="#efb185"/>
        <path id="Trazado_157799" data-name="Trazado 157799" d="M82.262,107.1a10.462,10.462,0,0,0-.329,2.728,6.157,6.157,0,0,0,.88,3.148s-20.024,4.019-25.109,1.438c0,0-4.919-7.58,2.6-9.6Z" transform="translate(53.69 100.266)" fill="#779f29"/>
        <path id="Trazado_157800" data-name="Trazado 157800" d="M49.975,119.057l-.086,1.019L64.8,130.656l.086-1.025Z" transform="translate(47.724 113.891)" fill="#b4b9bc"/>
        <path id="Trazado_157801" data-name="Trazado 157801" d="M57.595,130.732l-.086,1.025,27.76-12.829.1-1.021Z" transform="translate(55.013 112.79)" fill="#7d8183"/>
        <path id="Trazado_157802" data-name="Trazado 157802" d="M49.933,125.329,64.842,135.9l27.772-12.826L77.707,112.5Z" transform="translate(47.766 107.62)" fill="#e3e5e5"/>
        <path id="Trazado_157803" data-name="Trazado 157803" d="M62.607,115.955,61.5,114.926l-4.6,18.6,1.109,1.025Z" transform="translate(54.427 109.939)" fill="#bdbbbb"/>
        <path id="Trazado_157804" data-name="Trazado 157804" d="M89.383,109.1l-1.109-1.023-29.024,13.4,1.107,1.029Z" transform="translate(56.679 103.385)" fill="#d2d0d0"/>
        <path id="Trazado_157805" data-name="Trazado 157805" d="M62.065,122.008l-4.6,18.6L86.489,127.2l4.6-18.6Z" transform="translate(54.97 103.886)" fill="#d5dfe6"/>
        <path id="Trazado_157806" data-name="Trazado 157806" d="M59.815,122.008h0L84.239,127.2l4.6-18.6Z" transform="translate(57.22 103.886)" fill="#e9f0f4"/>
        <path id="Trazado_157807" data-name="Trazado 157807" d="M54.715,119.674s6.77,5.59,13.4,4.281c0,0-.008-1.724-2.951-2.368a5.188,5.188,0,0,1-4.05-3.238c.022-.348,2.332-.544,3.365-.591s2.277-1.464-.239-1.622-6.817-1.117-9.267-.585c0,0-2.438,2.61-.256,4.123" transform="translate(51.473 110.385)" fill="#efb185"/>
        <path id="Trazado_157808" data-name="Trazado 157808" d="M46.218,94.934a5.1,5.1,0,0,0-5.772,4.072c-1.342,4.888-3.424,27.166.4,32.918s28.78,8.779,28.78,8.779a6.826,6.826,0,0,1,.753-6.926l-21.546-9.008S54.1,96.239,46.218,94.934" transform="translate(36.983 90.766)" fill="#779f29"/>
        <path id="Trazado_157809" data-name="Trazado 157809" d="M44.909,123.525l21.546,9.01a7.565,7.565,0,0,0-1.127,2.362c-4.9-1.559-22.978-4.248-22.556-8.143,2.166-20.073,2.366-30.57,2.366-30.57l.8,2.391c2.006,8.484-1.031,24.951-1.031,24.951" transform="translate(40.91 92.01)" fill="#8cb230"/>
      </g>
    </g>
  </g>
</svg>
