<svg id="Grupo_90356" data-name="Grupo 90356" xmlns="http://www.w3.org/2000/svg" xmlns:xlink="http://www.w3.org/1999/xlink" width="210" height="161.426" viewBox="0 0 210 161.426">
  <defs>
    <clipPath id="clip-path">
      <rect id="Rectángulo_11541" data-name="Rectángulo 11541" width="210" height="161.426" fill="none"/>
    </clipPath>
    <clipPath id="clip-path-3">
      <path id="Trazado_162152" data-name="Trazado 162152" d="M163.491,42.085l2.186,2.86,6.511-4.883-3.261-1.369Z" transform="translate(-163.491 -38.693)" fill="none"/>
    </clipPath>
    <linearGradient id="linear-gradient" x1="-11.654" y1="21.983" x2="-11.582" y2="21.983" gradientUnits="objectBoundingBox">
      <stop offset="0" stop-color="#e2e2e2"/>
      <stop offset="1" stop-color="#fdfdfd"/>
    </linearGradient>
    <clipPath id="clip-path-4">
      <path id="Trazado_162153" data-name="Trazado 162153" d="M153.843,40.552,158,39.974l1.2-2.823-1.789-1.35Z" transform="translate(-153.843 -35.801)" fill="none"/>
    </clipPath>
    <linearGradient id="linear-gradient-2" x1="-17.8" y1="29.304" x2="-17.684" y2="29.304" xlink:href="#linear-gradient"/>
    <clipPath id="clip-path-6">
      <path id="Trazado_162161" data-name="Trazado 162161" d="M135.728,79.168l2.529,3.31,7.535-5.65-3.774-1.583Z" transform="translate(-135.728 -75.244)" fill="none"/>
    </clipPath>
    <linearGradient id="linear-gradient-3" x1="-8.361" y1="15.868" x2="-8.3" y2="15.868" xlink:href="#linear-gradient"/>
    <clipPath id="clip-path-7">
      <path id="Trazado_162162" data-name="Trazado 162162" d="M124.564,77.394l4.815-.668,1.385-3.266L128.693,71.9Z" transform="translate(-124.564 -71.897)" fill="none"/>
    </clipPath>
    <linearGradient id="linear-gradient-4" x1="-12.455" y1="21.258" x2="-12.355" y2="21.258" xlink:href="#linear-gradient"/>
    <clipPath id="clip-path-9">
      <path id="Trazado_162170" data-name="Trazado 162170" d="M185.337,89.524l2.185,2.86,6.512-4.883-3.261-1.369Z" transform="translate(-185.337 -86.132)" fill="none"/>
    </clipPath>
    <linearGradient id="linear-gradient-5" x1="-13.21" y1="17.279" x2="-13.139" y2="17.279" xlink:href="#linear-gradient"/>
    <clipPath id="clip-path-10">
      <path id="Trazado_162171" data-name="Trazado 162171" d="M175.689,87.991l4.161-.578,1.2-2.823-1.79-1.35Z" transform="translate(-175.689 -83.24)" fill="none"/>
    </clipPath>
    <linearGradient id="linear-gradient-6" x1="-20.327" y1="23.114" x2="-20.212" y2="23.114" xlink:href="#linear-gradient"/>
    <clipPath id="clip-path-12">
      <rect id="Rectángulo_11531" data-name="Rectángulo 11531" width="45.028" height="66.62" fill="none"/>
    </clipPath>
    <clipPath id="clip-path-13">
      <rect id="Rectángulo_11532" data-name="Rectángulo 11532" width="49.45" height="69.393" fill="none"/>
    </clipPath>
    <clipPath id="clip-path-14">
      <rect id="Rectángulo_11533" data-name="Rectángulo 11533" width="94.472" height="54.868" fill="none"/>
    </clipPath>
    <clipPath id="clip-path-15">
      <rect id="Rectángulo_11534" data-name="Rectángulo 11534" width="0.593" height="2.272" fill="none"/>
    </clipPath>
    <clipPath id="clip-path-16">
      <rect id="Rectángulo_11535" data-name="Rectángulo 11535" width="2.868" height="11.596" fill="none"/>
    </clipPath>
    <clipPath id="clip-path-17">
      <rect id="Rectángulo_11536" data-name="Rectángulo 11536" width="1.51" height="2.859" fill="none"/>
    </clipPath>
    <clipPath id="clip-path-18">
      <rect id="Rectángulo_11537" data-name="Rectángulo 11537" width="0.9" height="8.005" fill="none"/>
    </clipPath>
    <clipPath id="clip-path-19">
      <rect id="Rectángulo_11538" data-name="Rectángulo 11538" width="6.557" height="8.398" fill="none"/>
    </clipPath>
    <clipPath id="clip-path-20">
      <rect id="Rectángulo_11539" data-name="Rectángulo 11539" width="1.879" height="1.965" fill="none"/>
    </clipPath>
  </defs>
  <g id="Grupo_90355" data-name="Grupo 90355" clip-path="url(#clip-path)">
    <path id="Trazado_162144" data-name="Trazado 162144" d="M0,163.037,99.506,220.21l.457-7.64L0,154.67Z" transform="translate(0 -58.783)" fill="#e2e2ed"/>
    <path id="Trazado_162145" data-name="Trazado 162145" d="M161.193,208.958l-.228-.131-.457,7.639,110.472-63.554-.108-8.093Z" transform="translate(-61.003 -55.039)" fill="#cacae0"/>
    <path id="Trazado_162146" data-name="Trazado 162146" d="M67.8,75.653l-2.528,1.441-9.744,5.554-2.521,1.436L40.149,91.692,37.2,93.437l-37.2,22,46.277,26.7,2.5,1.446.722.417,2.769,1.6,4.8,2.777,2.5,1.449,40.523,23.448.21.123.017.009,52.145-30.493,2.505-1.464,8.031-4.7,2.5-1.461,3.644-2.131,2.671-1.563,38.055-22.253.128-.076-3.1-1.8L168.75,85.361l-2.481-1.437-8.732-5.064-2.483-1.441-.609-.352-2.822-1.637L110.266,51.452Z" transform="translate(0 -19.555)" fill="#eef"/>
    <path id="Trazado_162147" data-name="Trazado 162147" d="M138.361,138.755,138.1,156.18,93.332,130.46V112.733Z" transform="translate(-35.472 -42.845)" fill="#e2e2ed"/>
    <path id="Trazado_162148" data-name="Trazado 162148" d="M215.238,125.889l-49.7,28.591.263-17.425.1.059,49.342-28.854Z" transform="translate(-62.915 -41.145)" fill="#cacae0"/>
    <path id="Trazado_162149" data-name="Trazado 162149" d="M187.8,92.312l-.058.034-17.12,10.011-1.2.7-1.639.958-1.126.658-3.613,2.113-1.126.659-23.458,13.717-.008,0-.094-.055-18.23-10.548L119,109.907l-2.16-1.25-1.245-.721-.325-.188-1.123-.65L93.333,95.085l16.735-9.9,1.327-.784,5.787-3.423,1.134-.647,4.383-2.5,1.138-.648,19.1-10.887,18.605,10.787,1.269.736.275.159,1.117.648,3.929,2.278,1.116.647L186.41,91.5Z" transform="translate(-35.472 -25.197)" fill="#dbdbf3"/>
    <g id="Grupo_90309" data-name="Grupo 90309">
      <g id="Grupo_90308" data-name="Grupo 90308" clip-path="url(#clip-path)">
        <path id="Trazado_162150" data-name="Trazado 162150" d="M149.269,38.3s-2.35,4.63-2.553,8.363-.475,7.941-.475,7.941,1.765,1.969,3.937,1.493-.909-17.8-.909-17.8" transform="translate(-55.58 -14.556)" fill="#6666bc"/>
        <path id="Trazado_162151" data-name="Trazado 162151" d="M172.22,60.159a2.982,2.982,0,0,1-2.541,1.27,6.743,6.743,0,0,1-3.265-.442v1.277a26.434,26.434,0,0,1-10.727-1.112,7.539,7.539,0,0,1-5.474-6.689s-.223-14.716,0-15.946a3.2,3.2,0,0,1,2.178-2.382,5.908,5.908,0,0,1,3.615-.172l8.248,2.1s4.314,1.394,6.157,4.072a4.632,4.632,0,0,1,.7,1.491c.939,3.651,1.1,16.533,1.1,16.533" transform="translate(-57.052 -13.591)" fill="#7c7cd6"/>
      </g>
    </g>
    <g id="Grupo_90311" data-name="Grupo 90311" transform="translate(101.355 23.987)">
      <g id="Grupo_90310" data-name="Grupo 90310" clip-path="url(#clip-path-3)">
        <rect id="Rectángulo_11523" data-name="Rectángulo 11523" width="8.697" height="6.252" transform="translate(0 0)" fill="url(#linear-gradient)"/>
      </g>
    </g>
    <g id="Grupo_90313" data-name="Grupo 90313" transform="translate(95.374 22.195)">
      <g id="Grupo_90312" data-name="Grupo 90312" clip-path="url(#clip-path-4)">
        <rect id="Rectángulo_11524" data-name="Rectángulo 11524" width="5.358" height="4.751" fill="url(#linear-gradient-2)"/>
      </g>
    </g>
    <g id="Grupo_90315" data-name="Grupo 90315">
      <g id="Grupo_90314" data-name="Grupo 90314" clip-path="url(#clip-path)">
        <path id="Trazado_162154" data-name="Trazado 162154" d="M161.752,37.979l-1.2,2.823.6,2.565,1.222-1.554,5.436-3.392.016-.332Z" transform="translate(-61.02 -14.434)" fill="#eaa211"/>
        <path id="Trazado_162155" data-name="Trazado 162155" d="M170.642,23.442a7.133,7.133,0,1,1-7.133-7.133,7.133,7.133,0,0,1,7.133,7.133" transform="translate(-59.432 -6.198)" fill="#f9bb41"/>
        <path id="Trazado_162156" data-name="Trazado 162156" d="M155.817,18.4s.11,2.34,3.73,3.438,5.3-.366,5.3-.366-1.1,1.646-.4,2.669a3.926,3.926,0,0,1,.731,1.829l.695-.329s.183-2.779,1.317-2.487-.11,2.779.549,3.182,1.865-.183,1.975-.183,1.353-1.5,1.317-5.047-3.547-6.619-7.606-6.656-7.607,3.95-7.607,3.95" transform="translate(-59.219 -5.492)" fill="#6666bc"/>
        <path id="Trazado_162157" data-name="Trazado 162157" d="M176.1,75.994a2.3,2.3,0,0,0-.415,1.963,2.438,2.438,0,0,1,.165,1.459.833.833,0,0,0,.834,0,1.517,1.517,0,0,0,.583-.958s-.125,1.417.417,1.667,3.626-1,3.96-1.5,0-3.376,0-3.376Z" transform="translate(-66.738 -28.599)" fill="#f9bb41"/>
        <path id="Trazado_162158" data-name="Trazado 162158" d="M181.958,64.067a2.982,2.982,0,0,1-2.541,1.27,6.743,6.743,0,0,1-3.265-.442v.228l-.414-14.008a3.8,3.8,0,0,1,1.7-3.277l2.712-1.8a4.632,4.632,0,0,1,.7,1.491c.939,3.651,1.1,16.533,1.1,16.533" transform="translate(-66.79 -17.499)" fill="#6666bc"/>
        <path id="Trazado_162159" data-name="Trazado 162159" d="M119.274,74.789s-2.718,5.356-2.954,9.676-.55,9.188-.55,9.188,2.042,2.278,4.555,1.728-1.051-20.592-1.051-20.592" transform="translate(-43.999 -28.424)" fill="#6666bc"/>
        <path id="Trazado_162160" data-name="Trazado 162160" d="M145.828,100.08s-.639,1.278-2.939,1.469a7.806,7.806,0,0,1-3.778-.511v1.477A30.583,30.583,0,0,1,126.7,101.23a8.722,8.722,0,0,1-6.334-7.739s-.259-17.025,0-18.449a3.708,3.708,0,0,1,2.52-2.757,6.834,6.834,0,0,1,4.183-.2l9.543,2.429s4.992,1.613,7.124,4.712a5.358,5.358,0,0,1,.815,1.725c1.086,4.225,1.278,19.128,1.278,19.128" transform="translate(-45.702 -27.308)" fill="#7c7cd6"/>
      </g>
    </g>
    <g id="Grupo_90317" data-name="Grupo 90317" transform="translate(84.144 46.647)">
      <g id="Grupo_90316" data-name="Grupo 90316" clip-path="url(#clip-path-6)">
        <rect id="Rectángulo_11526" data-name="Rectángulo 11526" width="10.064" height="7.233" fill="url(#linear-gradient-3)"/>
      </g>
    </g>
    <g id="Grupo_90319" data-name="Grupo 90319" transform="translate(77.223 44.572)">
      <g id="Grupo_90318" data-name="Grupo 90318" clip-path="url(#clip-path-7)">
        <rect id="Rectángulo_11527" data-name="Rectángulo 11527" width="6.2" height="5.497" fill="url(#linear-gradient-4)"/>
      </g>
    </g>
    <g id="Grupo_90321" data-name="Grupo 90321">
      <g id="Grupo_90320" data-name="Grupo 90320" clip-path="url(#clip-path)">
        <path id="Trazado_162163" data-name="Trazado 162163" d="M133.716,74.418l-1.385,3.266.692,2.968,1.413-1.8,6.29-3.924.018-.384Z" transform="translate(-50.293 -28.283)" fill="#eaa211"/>
        <path id="Trazado_162164" data-name="Trazado 162164" d="M144,57.6a8.253,8.253,0,1,1-8.253-8.253A8.253,8.253,0,0,1,144,57.6" transform="translate(-48.455 -18.754)" fill="#f9bb41"/>
        <path id="Trazado_162165" data-name="Trazado 162165" d="M126.85,51.766s.126,2.708,4.315,3.978,6.135-.423,6.135-.423-1.269,1.9-.465,3.089a4.545,4.545,0,0,1,.846,2.115l.8-.381s.212-3.216,1.524-2.877-.127,3.216.635,3.681,2.157-.211,2.284-.211S144.494,59,144.451,54.9s-4.1-7.659-8.8-7.7-8.8,4.57-8.8,4.57" transform="translate(-48.21 -17.937)" fill="#6666bc"/>
        <path id="Trazado_162166" data-name="Trazado 162166" d="M150.318,118.4a2.661,2.661,0,0,0-.481,2.271,2.82,2.82,0,0,1,.192,1.687.964.964,0,0,0,.965,0,1.757,1.757,0,0,0,.675-1.109s-.145,1.64.482,1.929,4.2-1.157,4.581-1.736,0-3.906,0-3.906Z" transform="translate(-56.909 -44.672)" fill="#f9bb41"/>
        <path id="Trazado_162167" data-name="Trazado 162167" d="M157.1,104.6s-.639,1.278-2.939,1.469a7.806,7.806,0,0,1-3.778-.511v.263L149.9,89.616a4.39,4.39,0,0,1,1.965-3.791L155,83.748a5.359,5.359,0,0,1,.815,1.725C156.9,89.7,157.1,104.6,157.1,104.6" transform="translate(-56.97 -31.829)" fill="#6666bc"/>
        <path id="Trazado_162168" data-name="Trazado 162168" d="M171.116,85.739s-2.35,4.63-2.553,8.363-.475,7.941-.475,7.941,1.765,1.968,3.937,1.493-.909-17.8-.909-17.8" transform="translate(-63.883 -32.586)" fill="#6666bc"/>
        <path id="Trazado_162169" data-name="Trazado 162169" d="M194.066,107.6a2.981,2.981,0,0,1-2.54,1.27,6.744,6.744,0,0,1-3.265-.442V109.7a26.434,26.434,0,0,1-10.727-1.112,7.539,7.539,0,0,1-5.474-6.689s-.223-14.716,0-15.946a3.2,3.2,0,0,1,2.178-2.382,5.913,5.913,0,0,1,3.615-.172l8.248,2.1s4.314,1.395,6.157,4.073a4.632,4.632,0,0,1,.7,1.491c.939,3.651,1.1,16.533,1.1,16.533" transform="translate(-65.355 -31.621)" fill="#7c7cd6"/>
      </g>
    </g>
    <g id="Grupo_90323" data-name="Grupo 90323" transform="translate(114.898 53.397)">
      <g id="Grupo_90322" data-name="Grupo 90322" clip-path="url(#clip-path-9)">
        <rect id="Rectángulo_11529" data-name="Rectángulo 11529" width="8.698" height="6.252" transform="translate(0 0)" fill="url(#linear-gradient-5)"/>
      </g>
    </g>
    <g id="Grupo_90325" data-name="Grupo 90325" transform="translate(108.917 51.604)">
      <g id="Grupo_90324" data-name="Grupo 90324" clip-path="url(#clip-path-10)">
        <rect id="Rectángulo_11530" data-name="Rectángulo 11530" width="5.358" height="4.751" transform="translate(0)" fill="url(#linear-gradient-6)"/>
      </g>
    </g>
    <g id="Grupo_90354" data-name="Grupo 90354">
      <g id="Grupo_90353" data-name="Grupo 90353" clip-path="url(#clip-path)">
        <path id="Trazado_162172" data-name="Trazado 162172" d="M183.6,85.418l-1.2,2.823.6,2.565,1.222-1.554,5.436-3.392.016-.332Z" transform="translate(-69.323 -32.464)" fill="#eaa211"/>
        <path id="Trazado_162173" data-name="Trazado 162173" d="M192.488,70.881a7.133,7.133,0,1,1-7.133-7.133,7.133,7.133,0,0,1,7.133,7.133" transform="translate(-67.735 -24.228)" fill="#f9bb41"/>
        <path id="Trazado_162174" data-name="Trazado 162174" d="M177.663,65.84s.11,2.34,3.73,3.438,5.3-.366,5.3-.366-1.1,1.646-.4,2.669a3.926,3.926,0,0,1,.731,1.829l.695-.329s.183-2.779,1.317-2.487-.11,2.779.549,3.182,1.865-.183,1.975-.183,1.353-1.5,1.317-5.047-3.547-6.619-7.606-6.656-7.607,3.95-7.607,3.95" transform="translate(-67.522 -23.522)" fill="#6666bc"/>
        <path id="Trazado_162175" data-name="Trazado 162175" d="M197.947,123.433a2.3,2.3,0,0,0-.415,1.963,2.438,2.438,0,0,1,.165,1.459.833.833,0,0,0,.834,0,1.517,1.517,0,0,0,.583-.958s-.125,1.417.417,1.667,3.627-1,3.96-1.5,0-3.376,0-3.376Z" transform="translate(-75.041 -46.628)" fill="#f9bb41"/>
        <path id="Trazado_162176" data-name="Trazado 162176" d="M203.8,111.506a2.981,2.981,0,0,1-2.54,1.27,6.744,6.744,0,0,1-3.265-.442v.228l-.414-14.008a3.8,3.8,0,0,1,1.7-3.277l2.712-1.8a4.632,4.632,0,0,1,.7,1.491c.939,3.651,1.1,16.533,1.1,16.533" transform="translate(-75.093 -35.529)" fill="#6666bc"/>
        <g id="Grupo_90328" data-name="Grupo 90328" transform="translate(57.861 28.786)" opacity="0.34">
          <g id="Grupo_90327" data-name="Grupo 90327">
            <g id="Grupo_90326" data-name="Grupo 90326" clip-path="url(#clip-path-12)">
              <path id="Trazado_162177" data-name="Trazado 162177" d="M138.361,72.456l-.006,40.6L93.332,87.334v-40.9Z" transform="translate(-93.332 -46.434)" fill="#b7e4ff"/>
            </g>
          </g>
        </g>
        <g id="Grupo_90331" data-name="Grupo 90331" transform="translate(102.883 26.013)" opacity="0.34">
          <g id="Grupo_90330" data-name="Grupo 90330">
            <g id="Grupo_90329" data-name="Grupo 90329" clip-path="url(#clip-path-13)">
              <path id="Trazado_162178" data-name="Trazado 162178" d="M215.4,82.764l-49.44,28.591.006-40.6.1.06,49.342-28.854Z" transform="translate(-165.955 -41.961)" fill="#78abce"/>
            </g>
          </g>
        </g>
        <g id="Grupo_90334" data-name="Grupo 90334" transform="translate(57.861)" opacity="0.34">
          <g id="Grupo_90333" data-name="Grupo 90333">
            <g id="Grupo_90332" data-name="Grupo 90332" clip-path="url(#clip-path-14)">
              <path id="Trazado_162179" data-name="Trazado 162179" d="M187.8,26.014l-.058.034-17.12,10.011-1.2.7-1.639.958-1.126.658-3.613,2.113-1.126.659L138.463,54.868l-.008,0-.094-.055L120.131,44.26,119,43.608l-2.16-1.25-1.245-.721-.325-.188-1.123-.65L93.333,28.787l16.735-9.9,1.327-.784,5.787-3.423,1.134-.647,4.383-2.5,1.138-.648L142.937,0l18.605,10.787,1.269.736.275.159,1.117.648,3.929,2.278,1.116.647,17.162,9.951Z" transform="translate(-93.333 0)" fill="#b7e4ff"/>
            </g>
          </g>
        </g>
        <path id="Trazado_162180" data-name="Trazado 162180" d="M244.4,169.388c10.984,7.715-11.031,19.575-20.741,13.01s13.007-18.443,20.741-13.01" transform="translate(-84.102 -63.851)" fill="#cacae0"/>
        <path id="Trazado_162181" data-name="Trazado 162181" d="M74.76,151.648c10.984,7.715-11.031,19.575-20.741,13.01s13.007-18.443,20.741-13.01" transform="translate(-19.628 -57.109)" fill="#cacae0"/>
        <path id="Trazado_162182" data-name="Trazado 162182" d="M241.977,145.41c.176,1.859-.126,2.8-1.19,3.136a2.375,2.375,0,0,1-3.007-1.606,7.718,7.718,0,0,1-.268-.788c-.164-.553-.361-1.309-.57-2.184-.171-.712-.35-1.5-.527-2.33-.457-2.13-.9-4.491-1.144-6.325a42.075,42.075,0,0,1,.073-8.932l3.292-.493a14.173,14.173,0,0,1,3.271,6.4c.66,3.863-.719,8.534-.347,10.452.2,1.048.349,1.931.419,2.67" transform="translate(-89.333 -47.845)" fill="#422b9d"/>
        <path id="Trazado_162183" data-name="Trazado 162183" d="M230.857,126.331a42.091,42.091,0,0,0-1.674,8.773,79.752,79.752,0,0,0,.382,11.888,2.375,2.375,0,0,0,2.67,2.12c1.547-.191,1.844-1.823,1.8-5.573-.022-1.954.782-6.423.827-10.342a32.5,32.5,0,0,0-.678-6.76Z" transform="translate(-87.079 -48.013)" fill="#422b9d"/>
        <path id="Trazado_162184" data-name="Trazado 162184" d="M229.7,157.483s.021-2.479,2.246-2.649,2.289,2.5,2.247,4.217-1.1,10.769-1.261,12.026c-.191,1.484-1.9,1.977-2.056.4-.085-.848-.148-1.759-.286-3.147-.388-3.907-.911-9.367-.89-10.85" transform="translate(-87.299 -58.843)" fill="#422b9d"/>
        <path id="Trazado_162185" data-name="Trazado 162185" d="M239.442,158.282s-1.3-2.11.489-3.438,3.269.9,4.147,2.372,4.808,9.7,5.341,10.848c.629,1.357-.554,2.684-1.525,1.436-.524-.673-1.063-1.41-1.919-2.511-2.409-3.1-5.762-7.441-6.534-8.708" transform="translate(-90.828 -58.695)" fill="#422b9d"/>
        <path id="Trazado_162186" data-name="Trazado 162186" d="M247.312,108.946c-1.174,1.254-4.988,5.437-6.93,6.209a1.612,1.612,0,0,1-2.02-2.42c.8-1.232,5.418-4.173,6.914-5.034,1.608-.924,3.055.157,2.037,1.245" transform="translate(-90.479 -40.8)" fill="#8cc1ed"/>
        <path id="Trazado_162187" data-name="Trazado 162187" d="M250.917,104.456c.138.348.614,1.124,1.394.554,1.254-.916,2.482-6.452,2.206-7.218s-.743-.658-1.489.622-2.736,4.468-2.11,6.041" transform="translate(-95.317 -36.984)" fill="#8cc1ed"/>
        <path id="Trazado_162188" data-name="Trazado 162188" d="M255.033,96.57c0,.319.794.7,1.17.33s1.229-2.227,1.046-2.578-1.172-.174-1.789,1.175c0,0,.105-.872-.287-.708-.19.079-.126.764-.141,1.782" transform="translate(-96.927 -35.788)" fill="#fd5c54"/>
        <path id="Trazado_162189" data-name="Trazado 162189" d="M236.259,102.952c-.621,2.11-2.477,3.421-4.144,2.93s-2.516-2.6-1.895-4.708,2.476-3.421,4.144-2.93,2.516,2.6,1.9,4.708" transform="translate(-87.42 -37.299)" fill="#fd5c54"/>
        <path id="Trazado_162190" data-name="Trazado 162190" d="M235.83,112.078h-.65a.883.883,0,0,1-.883-.883v-3.278a.883.883,0,0,1,.883-.883h.65a.883.883,0,0,1,.883.883V111.2a.883.883,0,0,1-.883.883" transform="translate(-89.046 -40.679)" fill="#fd5c54"/>
        <path id="Trazado_162191" data-name="Trazado 162191" d="M236.857,121.554a7.086,7.086,0,0,1-5.615-.233s-.105-.345-.252-.875-.335-1.252-.5-2c-.323-1.454-.558-3-.223-3.444a6.815,6.815,0,0,1,2.24-1.493c.329-.154.557-.245.557-.245a10.758,10.758,0,0,1,2.32-.13,3.567,3.567,0,0,1,2.49.935c1.25,1.462-1.017,7.481-1.017,7.481" transform="translate(-87.452 -42.992)" fill="#8cc1ed"/>
        <path id="Trazado_162192" data-name="Trazado 162192" d="M217.487,112.808c1.345,1.068,5.661,4.349,7.7,4.826a1.8,1.8,0,0,0,1.823-2.924c-.973-1.1-6.082-2.8-7.688-3.433-1.726-.678-3,.606-1.831,1.532" transform="translate(-82.486 -42.219)" fill="#8cc1ed"/>
        <path id="Trazado_162193" data-name="Trazado 162193" d="M217.533,109.028c-.086.365-.441,1.2-1.3.754-1.376-.72-3.407-6.016-3.247-6.814s.638-.76,1.565.4,3.365,4.015,2.978,5.664" transform="translate(-80.945 -38.927)" fill="#8cc1ed"/>
        <path id="Trazado_162194" data-name="Trazado 162194" d="M229.492,181s-3.079.566-3.354,1.371,5.3,1.165,5.595.763-.17-2.025-.17-2.025-.751,1.211-2.071-.109" transform="translate(-85.942 -68.79)"/>
        <path id="Trazado_162195" data-name="Trazado 162195" d="M251.655,177.552s-2.3,2.12-2.108,2.948,5.1-1.836,5.141-2.335-1.223-1.624-1.223-1.624.01,1.425-1.81,1.011" transform="translate(-94.838 -67.096)"/>
        <path id="Trazado_162196" data-name="Trazado 162196" d="M235.163,104.736a2.1,2.1,0,0,1-1.131.073c-3.687-.7-2.543-2.48-2.543-2.48s-4.4-.839-3.9-3.666c.424-2.374,2.289-1.123,2.289-1.123a4.253,4.253,0,0,1,4.959-1.123c.043.019.084.04.126.062,2.488,1.321,2.689,7.343.2,8.258" transform="translate(-86.482 -36.493)" fill="#664fc6"/>
        <path id="Trazado_162197" data-name="Trazado 162197" d="M234.773,104.4c-.472-.246-1.138.1-1.487.766a1.219,1.219,0,0,0,.223,1.658c.472.247,1.138-.1,1.487-.766a1.219,1.219,0,0,0-.223-1.658" transform="translate(-88.583 -39.647)" fill="#fd5c54"/>
        <path id="Trazado_162198" data-name="Trazado 162198" d="M238.621,105.018a7.61,7.61,0,0,1-1.957-5.65,2.836,2.836,0,0,1,1.758-2.608c2.488,1.321,2.689,7.343.2,8.258" transform="translate(-89.94 -36.774)" fill="#422b9d"/>
        <path id="Trazado_162199" data-name="Trazado 162199" d="M237.73,99.154c-.042-1.208.191-3.284,3.263-3.115s1.484,4.747,5.15,5.15a4.716,4.716,0,0,1,3.072,7.9c-2.289,2.522-6.654,2.289-7.4-1.759s-3.922-3.387-4.09-8.18" transform="translate(-90.35 -36.497)" fill="#664fc6"/>
        <path id="Trazado_162200" data-name="Trazado 162200" d="M236.858,113.138c-.893,1.182-2.485.555-2.878.375.33-.154.557-.245.557-.245a10.766,10.766,0,0,1,2.321-.13" transform="translate(-88.926 -42.992)" fill="#fd5c54"/>
        <g id="Grupo_90337" data-name="Grupo 90337" transform="translate(143.036 75.182)" opacity="0.35">
          <g id="Grupo_90336" data-name="Grupo 90336">
            <g id="Grupo_90335" data-name="Grupo 90335" clip-path="url(#clip-path-15)">
              <path id="Trazado_162201" data-name="Trazado 162201" d="M231.318,121.272l-.092,2.272c-.147-.533-.335-1.252-.5-2Z" transform="translate(-230.725 -121.272)"/>
            </g>
          </g>
        </g>
        <g id="Grupo_90340" data-name="Grupo 90340" transform="translate(147.081 84.527)" opacity="0.35">
          <g id="Grupo_90339" data-name="Grupo 90339">
            <g id="Grupo_90338" data-name="Grupo 90338" clip-path="url(#clip-path-16)">
              <path id="Trazado_162202" data-name="Trazado 162202" d="M239.308,142.916a18.084,18.084,0,0,0-1.531,5.027c-.171-.712-.35-1.5-.527-2.33,0-.026.011-.051.016-.076,0,0,.538-1.117,1.724-3.914a8.678,8.678,0,0,0,.488-5.276,7.679,7.679,0,0,1-.17,6.569" transform="translate(-237.25 -136.347)"/>
            </g>
          </g>
        </g>
        <path id="Trazado_162203" data-name="Trazado 162203" d="M213.207,100.894c0,.319-.794.7-1.17.33s-1.229-2.227-1.046-2.578,1.172-.174,1.789,1.175c0,0-.105-.872.287-.708.19.079.126.764.141,1.782" transform="translate(-80.179 -37.431)" fill="#fd5c54"/>
        <path id="Trazado_162204" data-name="Trazado 162204" d="M59.084,160.315s-.663,2.109-.876,3.271.427,2.752.973,2.894,1.874-1.3,1.874-2.585.149-3.031.149-3.031-1.1-2.495-2.12-.549" transform="translate(-22.106 -60.647)" fill="#0a1416"/>
        <path id="Trazado_162205" data-name="Trazado 162205" d="M66.66,137.426s.651-2.542-1.58-3.319-3.02,1.937-3.442,3.7-1.8,11.315-1.973,12.645c-.207,1.569,1.406,2.537,1.994.97.317-.844.629-1.759,1.146-3.142,1.457-3.892,3.474-9.335,3.854-10.858" transform="translate(-22.67 -50.916)" fill="#4a229c"/>
        <path id="Trazado_162206" data-name="Trazado 162206" d="M82.152,136.881s-.055-2.624-2.412-2.774-2.39,2.676-2.322,4.492,1.3,11.383,1.49,12.711c.221,1.568,2.035,2.068,2.181.4.078-.9.134-1.863.262-3.334.36-4.139.842-9.924.8-11.494" transform="translate(-29.417 -50.966)" fill="#4a229c"/>
        <path id="Trazado_162207" data-name="Trazado 162207" d="M81.429,162.1s3.017,1.669,3.022,2.607-5.94-.639-6.109-1.163.887-2.055.887-2.055.36,1.527,2.2.611" transform="translate(-29.767 -61.374)" fill="#0a1416"/>
        <path id="Trazado_162208" data-name="Trazado 162208" d="M72.516,104.4a44.527,44.527,0,0,1-.667,9.429,84.42,84.42,0,0,1-3.614,12.059,2.513,2.513,0,0,1-3.307,1.444c-1.531-.614-1.392-2.364-.331-6.19.552-1.993-.1-7.016.916-11.037a16.64,16.64,0,0,1,3.57-6.5Z" transform="translate(-24.244 -39.376)" fill="#4a229c"/>
        <path id="Trazado_162209" data-name="Trazado 162209" d="M81.216,124.965a2.513,2.513,0,0,1-2.73,2.359c-1.645-.133-2.03-1.846-2.151-5.814-.011-.371-.055-.826-.118-1.348-.145-1.178-.4-2.694-.64-4.337-.247-1.681-.481-3.5-.572-5.214a34.384,34.384,0,0,1,.418-7.178l3.513-.259a44.547,44.547,0,0,1,2.158,9.2,84.33,84.33,0,0,1,.122,12.589" transform="translate(-28.491 -39.212)" fill="#4a229c"/>
        <path id="Trazado_162210" data-name="Trazado 162210" d="M71.048,75.874c-.976.375-1.585,1.227-1.806,3.986A11.877,11.877,0,0,1,68.2,84.153s1.652.8,4.685-.068,3.237-1.329,3.237-1.329,1.169-9.282-5.077-6.883" transform="translate(-25.921 -28.686)" fill="#422d96"/>
        <path id="Trazado_162211" data-name="Trazado 162211" d="M90.471,93.624c-.037.349.017,1.2.911,1.068,1.438-.21,4.872-4.257,4.978-5.011s-.328-.869-1.5-.135-4.216,2.5-4.385,4.079" transform="translate(-34.381 -33.844)" fill="#8cc1ed"/>
        <path id="Trazado_162212" data-name="Trazado 162212" d="M98.521,88.395c-.144.262.353.923.825.784s1.989-1.307,1.992-1.677-.895-.656-1.994.191c0,0,.469-.676.072-.711-.192-.017-.438.578-.9,1.413" transform="translate(-37.434 -33.058)" fill="#fd5c54"/>
        <path id="Trazado_162213" data-name="Trazado 162213" d="M86.92,93.716a.925.925,0,0,1-.887-.008c-.7-.308-2.1-.952-3.513-1.7-.5-.264-1-.541-1.473-.821a10.433,10.433,0,0,1-2.364-1.749,1.687,1.687,0,0,1,1.628-2.784c1.311.32,4.837,3.687,6.122,4.81l.071.061c.934.808.946,1.857.415,2.192" transform="translate(-29.724 -32.917)" fill="#8cc1ed"/>
        <g id="Grupo_90343" data-name="Grupo 90343" transform="translate(51.324 56.231)" opacity="0.25">
          <g id="Grupo_90342" data-name="Grupo 90342">
            <g id="Grupo_90341" data-name="Grupo 90341" clip-path="url(#clip-path-17)">
              <path id="Trazado_162214" data-name="Trazado 162214" d="M84.261,93.563c-.5-.264-1-.541-1.473-.821l.36-2.037a3.653,3.653,0,0,1,1.113,2.859" transform="translate(-82.788 -90.704)"/>
            </g>
          </g>
        </g>
        <path id="Trazado_162215" data-name="Trazado 162215" d="M77.159,79.7a2.91,2.91,0,1,1-2.893-3.228A3.074,3.074,0,0,1,77.159,79.7" transform="translate(-27.126 -29.065)" fill="#422d96"/>
        <path id="Trazado_162216" data-name="Trazado 162216" d="M77.433,93.151c-.131.251-.111.186-.275.536-.1.209-.184.411-.259.606a8.236,8.236,0,0,0-.516,1.991,4.358,4.358,0,0,0-.036.831,2.772,2.772,0,0,1-2.24,1.387,4.884,4.884,0,0,1-1.857-.266c-.225-.074-.44-.156-.638-.241-.774-.331-1.218-.528-1.218-.528.009-.106-.077-.382-.075-.488a7.117,7.117,0,0,0-.423-2.423c-.8-2.35-2.389-4.323-1.818-4.952.785-.864,3.114-1.23,3.114-1.23l2.068-.628a10.707,10.707,0,0,1,2.355-1.02c1.178-.314,1.57.89,2.25,2.9a3.623,3.623,0,0,1-.431,3.519" transform="translate(-25.827 -32.943)" fill="#8cc1ed"/>
        <path id="Trazado_162217" data-name="Trazado 162217" d="M75.843,85.151v2.3a1,1,0,1,1-1.993,0v-2.3a1,1,0,1,1,1.993,0" transform="translate(-28.067 -31.983)" fill="#fd5c54"/>
        <g id="Grupo_90346" data-name="Grupo 90346" transform="translate(47.086 72.944)" opacity="0.25">
          <g id="Grupo_90345" data-name="Grupo 90345">
            <g id="Grupo_90344" data-name="Grupo 90344" clip-path="url(#clip-path-18)">
              <path id="Trazado_162218" data-name="Trazado 162218" d="M76.853,117.663l-.26,8.005c-.145-1.178-.4-2.694-.64-4.337Z" transform="translate(-75.953 -117.663)"/>
            </g>
          </g>
        </g>
        <g id="Grupo_90349" data-name="Grupo 90349" transform="translate(44.514 57.173)" opacity="0.25">
          <g id="Grupo_90348" data-name="Grupo 90348">
            <g id="Grupo_90347" data-name="Grupo 90347" clip-path="url(#clip-path-19)">
              <path id="Trazado_162219" data-name="Trazado 162219" d="M78.36,96.4a8.237,8.237,0,0,0-.516,1.991c-.34.388-.681.77-.886.975-.279.279-.86.789-1.391,1.244a4.886,4.886,0,0,1-1.857-.266L71.8,97.353l.131-5.129s.954,1.643,1.2,2.224c.348.809,1.1,3.349,1.1,3.349l3.782-1.888Z" transform="translate(-71.803 -92.223)"/>
            </g>
          </g>
        </g>
        <path id="Trazado_162220" data-name="Trazado 162220" d="M73.413,102.527c-.047.348-.017,1.2.881,1.093,1.443-.17,4.99-4.119,5.116-4.87s-.3-.878-1.5-.177-4.284,2.384-4.5,3.954" transform="translate(-27.896 -37.288)" fill="#8cc1ed"/>
        <path id="Trazado_162221" data-name="Trazado 162221" d="M81.662,97.445c-.151.258.327.933.8.807S84.489,97,84.5,96.632s-.875-.681-2,.135c0,0,.487-.663.092-.709-.191-.022-.454.565-.934,1.387" transform="translate(-31.025 -36.507)" fill="#fd5c54"/>
        <path id="Trazado_162222" data-name="Trazado 162222" d="M70.987,100.389c-.866-1.354-3.512-5.682-3.763-7.623a1.686,1.686,0,0,1,2.9-1.419c.933,1.01,2.033,5.927,2.468,7.483.467,1.671-.849,2.734-1.6,1.559" transform="translate(-25.541 -34.522)" fill="#8cc1ed"/>
        <g id="Grupo_90352" data-name="Grupo 90352" transform="translate(45.897 52.96)" opacity="0.25">
          <g id="Grupo_90351" data-name="Grupo 90351">
            <g id="Grupo_90350" data-name="Grupo 90350" clip-path="url(#clip-path-20)">
              <path id="Trazado_162223" data-name="Trazado 162223" d="M75.913,86.22v1.172c-.413-.057-1.694-.324-1.865-1.451-.174-1.148,1.4-.064,1.865.278" transform="translate(-74.034 -85.427)"/>
            </g>
          </g>
        </g>
        <path id="Trazado_162224" data-name="Trazado 162224" d="M77.64,80.878a2.442,2.442,0,1,1-2.389-2.947,2.712,2.712,0,0,1,2.389,2.947" transform="translate(-27.691 -29.618)" fill="#fd5c54"/>
        <path id="Trazado_162225" data-name="Trazado 162225" d="M72.634,83.465c.275.477.234,1.015-.092,1.2s-.813-.046-1.089-.523-.234-1.015.092-1.2.813.046,1.089.523" transform="translate(-27.087 -31.498)" fill="#fd5c54"/>
        <path id="Trazado_162226" data-name="Trazado 162226" d="M72.793,80.9a2.08,2.08,0,0,0,.818-1.7s-.307.9,1.227,1,2.044-.511,2.828-.153c0,0-.681-3.169-3.118-2.624S72.793,80.9,72.793,80.9" transform="translate(-27.632 -29.402)" fill="#422d96"/>
      </g>
    </g>
  </g>
</svg>
