<svg id="Grupo_90298" data-name="Grupo 90298" xmlns="http://www.w3.org/2000/svg" xmlns:xlink="http://www.w3.org/1999/xlink" width="190" height="159.68" viewBox="0 0 190 159.68">
  <defs>
    <clipPath id="clip-path">
      <rect id="Rectángulo_11518" data-name="Rectángulo 11518" width="190" height="159.68" fill="none"/>
    </clipPath>
    <clipPath id="clip-path-3">
      <path id="Trazado_161967" data-name="Trazado 161967" d="M110.423,88.277l.652-.391a5.841,5.841,0,0,0-.652.391" transform="translate(-110.423 -87.886)" fill="none"/>
    </clipPath>
    <linearGradient id="linear-gradient" x1="-97.893" y1="278.638" x2="-97.006" y2="278.638" gradientUnits="objectBoundingBox">
      <stop offset="0" stop-color="#e2e2e2"/>
      <stop offset="1" stop-color="#fdfdfd"/>
    </linearGradient>
    <clipPath id="clip-path-4">
      <path id="Trazado_161968" data-name="Trazado 161968" d="M142.176,106.8l.3.188s-.036-.1-.109-.3Z" transform="translate(-142.176 -106.685)" fill="none"/>
    </clipPath>
    <linearGradient id="linear-gradient-2" x1="-276.603" y1="324.197" x2="-274.658" y2="324.197" xlink:href="#linear-gradient"/>
    <clipPath id="clip-path-6">
      <path id="Trazado_161971" data-name="Trazado 161971" d="M80.463,111.384c.189.04.134.027.071.014-.032-.008-.066-.014-.071-.014m6.907-10.808-.843.5a10.679,10.679,0,0,0-2.944,5.553,16.581,16.581,0,0,0-.427,3.246l-.017,2.3-2.676-.792-.012,1.873-2.2-.672a9.24,9.24,0,0,0-2.432-.33c-.245,0-.484.012-.712.034a5.771,5.771,0,0,0-1.549,3.816,13.485,13.485,0,0,0,5.66,12.1l43.854,24.743.062.04a6.529,6.529,0,0,0,1.612.757,10.8,10.8,0,0,0,.7-4.436l-.006-.319c0-.171-.006-.347-.012-.535-.011-.484-.045-.985-.108-1.526a17.027,17.027,0,0,0-9.59-13.718l-.376-.154-.78-.866.08-.751a21.64,21.64,0,0,0-2.625-11.463c-3.286-5.922-10.073-7.288-10.136-7.3l-1.014-.2-.3-.98c-.012-.017-.034-.091-.08-.222-.506-1.4-3.3-8.445-8.963-10.324a8.4,8.4,0,0,0-.928-.251,8.494,8.494,0,0,0-1.452-.194c-.182-.012-.364-.017-.541-.017a8.81,8.81,0,0,0-1.247.086" transform="translate(-73.502 -100.49)" fill="none"/>
    </clipPath>
    <linearGradient id="linear-gradient-3" x1="-0.796" y1="1.908" x2="-0.785" y2="1.908" xlink:href="#linear-gradient"/>
    <clipPath id="clip-path-7">
      <path id="Trazado_161972" data-name="Trazado 161972" d="M89.648,99.981l2.279-1.361a7.807,7.807,0,0,0-2.279,1.361" transform="translate(-89.648 -98.62)" fill="none"/>
    </clipPath>
    <linearGradient id="linear-gradient-4" x1="-22.742" y1="75.456" x2="-22.488" y2="75.456" xlink:href="#linear-gradient"/>
    <clipPath id="clip-path-9">
      <path id="Trazado_161975" data-name="Trazado 161975" d="M142.176,106.8l.3.188s.036.005.11.021l-.219-.323Z" transform="translate(-142.176 -106.685)" fill="none"/>
    </clipPath>
    <linearGradient id="linear-gradient-5" x1="-201.952" y1="303.322" x2="-200.531" y2="303.322" xlink:href="#linear-gradient"/>
    <clipPath id="clip-path-11">
      <rect id="Rectángulo_11516" data-name="Rectángulo 11516" width="2.121" height="2.218" fill="none"/>
    </clipPath>
  </defs>
  <g id="Grupo_90297" data-name="Grupo 90297" clip-path="url(#clip-path)">
    <path id="Trazado_161898" data-name="Trazado 161898" d="M0,181.229l90.029,51.728.414-6.912L0,173.658Z" transform="translate(0 -73.277)" fill="#e2e2ed"/>
    <path id="Trazado_161899" data-name="Trazado 161899" d="M156.369,222.131l-.206-.119-.414,6.912,99.951-57.5-.1-7.321Z" transform="translate(-65.72 -69.244)" fill="#cacae0"/>
    <path id="Trazado_161900" data-name="Trazado 161900" d="M61.347,95.4l-2.287,1.3-8.816,5.025-2.28,1.3L0,131.4l41.87,24.159,2.259,1.309,7.5,4.341,2.266,1.31L90.56,183.731l.191.111.014.008,47.178-27.589,2.266-1.325,7.268-4.25,2.262-1.322,40.144-23.475.117-.069-2.806-1.627-34.516-20.012-2.244-1.3-7.9-4.581L140.286,97,99.764,73.5Z" transform="translate(0 -31.015)" fill="#eef"/>
    <g id="Grupo_90277" data-name="Grupo 90277">
      <g id="Grupo_90276" data-name="Grupo 90276" clip-path="url(#clip-path)">
        <path id="Trazado_161901" data-name="Trazado 161901" d="M224.614,96.038c-.007.021-.011.043-.018.065a2.439,2.439,0,0,1-.28.547c-.021.032-.042.065-.065.1a3.32,3.32,0,0,1-.466.514,26.905,26.905,0,0,1-.776.564l-26.859,15.609-.046,16.126,26.859-15.609.072-.042c.112-.068.191-.145.291-.216a4.672,4.672,0,0,0,.413-.306c.012-.01.028-.018.039-.029a3.367,3.367,0,0,0,.365-.392c.024-.03.04-.062.063-.093s.043-.064.065-.1c.036-.054.077-.106.108-.161a2.351,2.351,0,0,0,.157-.334c.006-.017.009-.035.015-.052s.012-.043.018-.064c.022-.072.047-.143.062-.215a2.026,2.026,0,0,0,.038-.337c0-.017,0-.035,0-.052l.046-16.125a2.041,2.041,0,0,1-.1.6" transform="translate(-82.748 -40.27)" fill="#afafe0"/>
        <path id="Trazado_161902" data-name="Trazado 161902" d="M133.75,97.808a2.94,2.94,0,0,1-1.734-2.423l-.046,16.126a2.939,2.939,0,0,0,1.735,2.423l27.028,15.6.046-16.126Z" transform="translate(-55.686 -40.249)" fill="#afafe0"/>
        <path id="Trazado_161903" data-name="Trazado 161903" d="M190.038,142.7l.046-16.126a6.221,6.221,0,0,1-.82.389c-.075.03-.151.058-.227.086-.178.064-.365.116-.551.168s-.388.105-.589.147c-.234.048-.47.092-.712.123-.059.008-.116.018-.175.024-.327.035-.657.053-.988.055h-.157c-.327,0-.653-.02-.976-.054l-.146-.016a9.3,9.3,0,0,1-.945-.161c-.057-.013-.112-.028-.168-.042a7.943,7.943,0,0,1-.815-.248c-.047-.017-.1-.031-.145-.049a6.422,6.422,0,0,1-.9-.423l-.046,16.126a6.373,6.373,0,0,0,.848.406c.015.006.032.01.048.016.047.018.1.032.146.05.171.062.34.124.519.175.1.028.2.048.3.072.056.014.11.028.167.041s.1.026.15.036q.287.06.582.1c.07.01.142.015.212.024l.147.016c.071.008.141.018.212.024q.289.023.579.031c.062,0,.123,0,.184,0h.158c.087,0,.173,0,.26,0,.218-.008.436-.022.651-.043l.075-.011c.06-.006.117-.017.177-.024.167-.021.335-.04.5-.069.073-.013.14-.038.212-.053.2-.041.4-.092.59-.146.1-.029.21-.045.31-.077.083-.027.159-.061.239-.091s.154-.057.229-.087a6.344,6.344,0,0,0,.819-.388" transform="translate(-76.683 -53.409)" fill="#c5c5e8"/>
        <path id="Trazado_161904" data-name="Trazado 161904" d="M195.953,79.125c2.3,1.331,2.311,3.486.027,4.813L169.121,99.546a9.156,9.156,0,0,1-8.309,0l-27.028-15.6c-2.3-1.331-2.31-3.486-.027-4.813L160.616,63.52a9.156,9.156,0,0,1,8.309,0Z" transform="translate(-55.72 -26.383)" fill="#dbdbf3"/>
        <path id="Trazado_161905" data-name="Trazado 161905" d="M208.817,127.4l-4.5,2.645c-.251.147-.455.063-.455-.187a.96.96,0,0,1,.455-.724l4.5-2.645c.25-.147.455-.062.455.188a.962.962,0,0,1-.455.723" transform="translate(-86.023 -53.342)" fill="#7c7cd6"/>
        <path id="Trazado_161906" data-name="Trazado 161906" d="M221.127,120.155l-4.5,2.645c-.251.147-.455.063-.455-.187a.96.96,0,0,1,.455-.724l4.5-2.645c.25-.147.455-.062.455.188a.962.962,0,0,1-.455.723" transform="translate(-91.218 -50.286)" fill="#7c7cd6"/>
        <path id="Trazado_161907" data-name="Trazado 161907" d="M233.437,112.914l-4.5,2.645c-.251.147-.455.063-.455-.187a.96.96,0,0,1,.455-.724l4.5-2.645c.25-.147.455-.062.455.188a.962.962,0,0,1-.455.723" transform="translate(-96.412 -47.231)" fill="#7c7cd6"/>
        <path id="Trazado_161908" data-name="Trazado 161908" d="M208.817,131.23l-4.5,2.645c-.251.147-.455.063-.455-.187a.96.96,0,0,1,.455-.724l4.5-2.645c.25-.147.455-.062.455.188a.962.962,0,0,1-.455.723" transform="translate(-86.023 -54.959)" fill="#7c7cd6"/>
        <path id="Trazado_161909" data-name="Trazado 161909" d="M221.127,123.989l-4.5,2.645c-.251.147-.455.063-.455-.187a.96.96,0,0,1,.455-.724l4.5-2.645c.25-.147.455-.062.455.188a.962.962,0,0,1-.455.723" transform="translate(-91.218 -51.904)" fill="#7c7cd6"/>
        <path id="Trazado_161910" data-name="Trazado 161910" d="M233.437,116.748l-4.5,2.645c-.251.147-.455.063-.455-.187a.96.96,0,0,1,.455-.724l4.5-2.645c.25-.147.455-.062.455.188a.962.962,0,0,1-.455.723" transform="translate(-96.412 -48.848)" fill="#7c7cd6"/>
        <path id="Trazado_161911" data-name="Trazado 161911" d="M208.817,135.064l-4.5,2.645c-.251.147-.455.063-.455-.187a.96.96,0,0,1,.455-.724l4.5-2.645c.25-.147.455-.062.455.188a.962.962,0,0,1-.455.723" transform="translate(-86.023 -56.577)" fill="#7c7cd6"/>
        <path id="Trazado_161912" data-name="Trazado 161912" d="M221.127,127.823l-4.5,2.645c-.251.147-.455.063-.455-.187a.96.96,0,0,1,.455-.724l4.5-2.645c.25-.147.455-.062.455.188a.962.962,0,0,1-.455.723" transform="translate(-91.218 -53.522)" fill="#7c7cd6"/>
        <path id="Trazado_161913" data-name="Trazado 161913" d="M233.437,120.582l-4.5,2.645c-.251.147-.455.063-.455-.187a.96.96,0,0,1,.455-.724l4.5-2.645c.25-.147.455-.062.455.188a.962.962,0,0,1-.455.723" transform="translate(-96.412 -50.466)" fill="#7c7cd6"/>
        <path id="Trazado_161914" data-name="Trazado 161914" d="M159.3,119.21l0-.035c0-.012,0-.024,0-.036s0-.024,0-.036,0-.024-.005-.036v0h0c0-.011,0-.023-.006-.034s-.005-.025-.008-.038-.006-.025-.009-.038-.006-.027-.01-.039-.006-.021-.009-.032h0v-.006l-.012-.038-.013-.038-.014-.036-.014-.036-.012-.028v0l0,0-.016-.036-.019-.039-.023-.045-.027-.048,0-.008-.005-.009c-.017-.03-.036-.059-.055-.088s-.031-.045-.047-.066h0l-.033-.043-.028-.035-.029-.034-.028-.032-.005-.005,0,0-.023-.024-.031-.031-.032-.03-.033-.029-.016-.013,0,0-.013-.01-.032-.025-.032-.023-.031-.021-.031-.019-.008,0-14.7-8.446-.023-.013-.03-.016-.03-.014-.029-.013-.029-.011-.007,0h0l-.02-.007-.031-.008-.03-.007-.032-.005-.023,0h-.045l-.038,0-.043.006h0a.333.333,0,0,0-.049.013.377.377,0,0,0-.06.028l-.8.481a.362.362,0,0,1,.109-.042h0a.462.462,0,0,1,.124-.006h0a.56.56,0,0,1,.137.029h0a.8.8,0,0,1,.148.068l14.7,8.446a1.153,1.153,0,0,1,.147.1l0,0a1.381,1.381,0,0,1,.135.126l0,0a1.56,1.56,0,0,1,.124.149h0a1.734,1.734,0,0,1,.107.164l0,.008a1.84,1.84,0,0,1,.087.172v0a1.635,1.635,0,0,1,.067.182v0a1.5,1.5,0,0,1,.042.182h0a1.053,1.053,0,0,1,.014.179.807.807,0,0,1-.015.159v0a.6.6,0,0,1-.042.131v0a.429.429,0,0,1-.056.086.285.285,0,0,1-.02.026.355.355,0,0,1-.081.066l.8-.482a.355.355,0,0,0,.081-.066c.008-.008.014-.017.021-.025s.019-.021.027-.034.019-.033.028-.051v0a.377.377,0,0,0,.016-.038c0-.013.009-.025.013-.039s.007-.025.01-.038l0-.016v0c0-.006,0-.011,0-.016a.353.353,0,0,0,.005-.035c0-.012,0-.023,0-.035l0-.035c0-.012,0-.024,0-.035v0c0-.011,0-.022,0-.033" transform="translate(-60.143 -46.171)" fill="#7c7cd6"/>
        <path id="Trazado_161915" data-name="Trazado 161915" d="M157.6,118.8a1.627,1.627,0,0,1,.737,1.275c0,.468-.335.658-.742.423l-14.7-8.446a1.628,1.628,0,0,1-.735-1.275c0-.466.334-.657.74-.422Z" transform="translate(-59.986 -46.523)" fill="#fff"/>
        <path id="Trazado_161916" data-name="Trazado 161916" d="M157.767,118.8l-14.7-8.446a.523.523,0,0,0-.516-.054.573.573,0,0,1,.443.084l14.7,8.446a1.628,1.628,0,0,1,.736,1.275.512.512,0,0,1-.224.477.475.475,0,0,0,.3-.507,1.627,1.627,0,0,0-.737-1.275" transform="translate(-60.149 -46.523)" fill="#fff"/>
        <path id="Trazado_161917" data-name="Trazado 161917" d="M159.3,126.088l0-.035c0-.012,0-.024,0-.036s0-.024,0-.036,0-.024-.005-.036v0h0c0-.011,0-.023-.006-.034s-.005-.025-.008-.038-.006-.025-.009-.038-.006-.027-.01-.039-.006-.021-.009-.032v-.007l-.012-.038-.013-.038-.014-.036c0-.012-.009-.024-.014-.036l-.012-.029v0l0-.005-.016-.036-.019-.039-.023-.045-.027-.048,0-.008-.005-.009c-.017-.03-.036-.059-.055-.088s-.031-.045-.047-.066h0l-.033-.043-.028-.035-.029-.034-.028-.032-.005-.005,0,0-.023-.024-.031-.031-.032-.03-.033-.029-.016-.013,0,0-.013-.01-.032-.025-.032-.023-.031-.021-.031-.019-.008,0-14.7-8.446-.023-.013-.03-.016-.029-.014-.029-.013-.029-.011-.007,0h0l-.02-.007-.031-.008-.03-.007-.032-.005-.023,0h-.045l-.038,0-.043.006h0a.333.333,0,0,0-.049.013.349.349,0,0,0-.06.028h0l-.8.482a.362.362,0,0,1,.109-.042h0a.445.445,0,0,1,.125-.007h0a.562.562,0,0,1,.136.029h0a.8.8,0,0,1,.148.068l14.7,8.446a1.152,1.152,0,0,1,.147.1l0,0a1.445,1.445,0,0,1,.135.126l0,0a1.561,1.561,0,0,1,.124.149h0a1.736,1.736,0,0,1,.108.164l0,.008a1.837,1.837,0,0,1,.087.172v0a1.635,1.635,0,0,1,.067.182h0a1.436,1.436,0,0,1,.043.183h0a1.053,1.053,0,0,1,.014.179.807.807,0,0,1-.015.159v0a.587.587,0,0,1-.042.132v0a.429.429,0,0,1-.056.086.285.285,0,0,1-.02.026.355.355,0,0,1-.081.066l.8-.482a.354.354,0,0,0,.081-.066c.008-.008.014-.017.021-.025s.019-.021.027-.034.019-.033.028-.051v0a.377.377,0,0,0,.016-.038c.005-.013.009-.025.013-.039s.007-.025.01-.038l0-.016v0c0-.006,0-.011,0-.016a.349.349,0,0,0,.005-.035c0-.012,0-.023,0-.035l0-.035c0-.012,0-.024,0-.035v0c0-.011,0-.022,0-.033" transform="translate(-60.144 -49.074)" fill="#7c7cd6"/>
        <path id="Trazado_161918" data-name="Trazado 161918" d="M157.6,125.679a1.627,1.627,0,0,1,.737,1.275c0,.468-.335.658-.742.423l-14.7-8.446a1.628,1.628,0,0,1-.735-1.275c0-.466.334-.657.74-.422Z" transform="translate(-59.986 -49.425)" fill="#fff"/>
        <path id="Trazado_161919" data-name="Trazado 161919" d="M157.767,125.679l-14.7-8.446a.523.523,0,0,0-.516-.054.573.573,0,0,1,.443.084l14.7,8.446a1.628,1.628,0,0,1,.736,1.275.512.512,0,0,1-.224.477.475.475,0,0,0,.3-.507,1.627,1.627,0,0,0-.737-1.275" transform="translate(-60.149 -49.425)" fill="#fff"/>
        <path id="Trazado_161920" data-name="Trazado 161920" d="M159.3,132.965l0-.035c0-.012,0-.024,0-.036s0-.024,0-.036,0-.024-.005-.036v0h0c0-.012,0-.023-.006-.035s0-.025-.008-.038-.006-.025-.009-.038-.006-.027-.01-.039-.006-.021-.009-.032h0v-.006l-.012-.038-.013-.038-.014-.036c0-.012-.009-.024-.014-.036l-.012-.029v0l0,0-.016-.036-.019-.039-.023-.044-.027-.048,0-.008-.005-.009c-.017-.03-.036-.059-.055-.088s-.031-.045-.047-.066h0l-.033-.043-.028-.035-.028-.034-.029-.032-.005-.005,0,0-.023-.024-.031-.031-.032-.03-.032-.029-.016-.013,0,0-.013-.01-.032-.025-.032-.023-.031-.021-.031-.019-.008,0-14.7-8.446-.023-.013-.03-.016-.029-.014-.029-.013-.029-.011-.007,0h0l-.02-.007-.031-.008-.03-.007-.032-.005-.023,0h-.045l-.038,0-.043.006h0a.4.4,0,0,0-.049.014.349.349,0,0,0-.06.028h0l-.8.482a.363.363,0,0,1,.109-.042h0a.463.463,0,0,1,.124-.006h0a.563.563,0,0,1,.136.029h0a.8.8,0,0,1,.148.068l14.7,8.446a1.1,1.1,0,0,1,.147.1l0,0a1.379,1.379,0,0,1,.135.126l0,0a1.558,1.558,0,0,1,.124.149h0a1.739,1.739,0,0,1,.108.164l0,.008a1.837,1.837,0,0,1,.087.172v0a1.634,1.634,0,0,1,.067.181v0a1.5,1.5,0,0,1,.042.182h0a1.052,1.052,0,0,1,.014.179.807.807,0,0,1-.015.159v0a.6.6,0,0,1-.042.131v0a.429.429,0,0,1-.056.086.287.287,0,0,1-.02.026.354.354,0,0,1-.081.066l.8-.482a.355.355,0,0,0,.081-.066c.008-.008.014-.017.021-.025s.019-.021.027-.034.019-.033.028-.051v0a.375.375,0,0,0,.016-.038.389.389,0,0,0,.013-.039c0-.012.007-.024.01-.038l0-.016v0l0-.016a.348.348,0,0,0,.005-.035c0-.012,0-.023,0-.035l0-.035c0-.012,0-.024,0-.035v0c0-.012,0-.023,0-.034" transform="translate(-60.144 -51.976)" fill="#7c7cd6"/>
        <path id="Trazado_161921" data-name="Trazado 161921" d="M157.605,132.557a1.626,1.626,0,0,1,.736,1.275c0,.468-.334.658-.741.423l-14.7-8.446a1.628,1.628,0,0,1-.735-1.275c0-.466.334-.657.74-.422Z" transform="translate(-59.987 -52.327)" fill="#fff"/>
        <path id="Trazado_161922" data-name="Trazado 161922" d="M157.768,132.557l-14.7-8.446a.523.523,0,0,0-.516-.054.573.573,0,0,1,.443.084l14.7,8.446a1.628,1.628,0,0,1,.736,1.275.512.512,0,0,1-.224.477.475.475,0,0,0,.3-.507,1.627,1.627,0,0,0-.737-1.275" transform="translate(-60.15 -52.328)" fill="#fff"/>
        <path id="Trazado_161923" data-name="Trazado 161923" d="M224.614,64.777c-.007.021-.011.043-.018.065a2.439,2.439,0,0,1-.28.547c-.021.032-.042.065-.065.1a3.32,3.32,0,0,1-.466.514,4.545,4.545,0,0,1-.413.305,4.458,4.458,0,0,1-.364.259L196.149,82.172,196.1,98.3l26.859-15.609.072-.042c.112-.068.191-.145.291-.216a4.675,4.675,0,0,0,.413-.306c.012-.01.028-.018.039-.029a3.369,3.369,0,0,0,.365-.392c.024-.031.04-.062.063-.093s.043-.064.065-.1c.036-.054.077-.106.108-.161a2.35,2.35,0,0,0,.157-.334c.006-.017.009-.035.015-.052s.012-.043.018-.064c.022-.072.047-.143.062-.215a2.026,2.026,0,0,0,.038-.337c0-.017,0-.035,0-.052l.046-16.125a2.041,2.041,0,0,1-.1.6" transform="translate(-82.748 -27.079)" fill="#afafe0"/>
        <path id="Trazado_161924" data-name="Trazado 161924" d="M133.75,66.546a2.939,2.939,0,0,1-1.734-2.423l-.046,16.126a2.939,2.939,0,0,0,1.735,2.423l27.028,15.6.046-16.126Z" transform="translate(-55.686 -27.057)" fill="#afafe0"/>
        <path id="Trazado_161925" data-name="Trazado 161925" d="M190.038,111.436l.046-16.125a6.291,6.291,0,0,1-.82.388c-.075.03-.151.059-.227.086-.178.064-.365.116-.551.168s-.388.105-.589.147c-.234.048-.47.092-.712.123-.059.008-.116.018-.175.025-.327.035-.657.052-.988.054h-.157c-.327,0-.653-.02-.976-.054l-.146-.016a9.469,9.469,0,0,1-.945-.161l-.168-.042a7.945,7.945,0,0,1-.815-.248c-.047-.017-.1-.03-.145-.049a6.485,6.485,0,0,1-.9-.423l-.046,16.125a6.3,6.3,0,0,0,.848.406c.015.006.032.01.048.016.047.019.1.032.146.05.171.062.34.125.519.175.1.028.2.048.3.072.056.014.11.028.167.041s.1.026.15.037q.287.06.582.1c.07.01.142.015.212.024l.147.016c.071.008.141.018.212.024q.289.023.579.031c.062,0,.123,0,.184,0h.158c.087,0,.173,0,.26,0,.218-.008.436-.022.651-.043l.075-.011c.06-.006.117-.017.177-.024.167-.021.335-.04.5-.069.073-.013.14-.038.212-.053.2-.041.4-.092.59-.147.1-.029.21-.045.31-.077.083-.027.159-.061.239-.091s.154-.056.229-.086a6.35,6.35,0,0,0,.819-.389" transform="translate(-76.683 -40.218)" fill="#c5c5e8"/>
        <path id="Trazado_161926" data-name="Trazado 161926" d="M195.953,47.863c2.3,1.331,2.311,3.486.027,4.813L169.121,68.285a9.158,9.158,0,0,1-8.309,0l-27.028-15.6c-2.3-1.331-2.31-3.486-.027-4.813l26.859-15.609a9.156,9.156,0,0,1,8.309,0Z" transform="translate(-55.72 -13.191)" fill="#dbdbf3"/>
        <path id="Trazado_161927" data-name="Trazado 161927" d="M208.817,96.134l-4.5,2.645c-.251.147-.455.063-.455-.187a.96.96,0,0,1,.455-.724l4.5-2.645c.25-.147.455-.062.455.188a.962.962,0,0,1-.455.723" transform="translate(-86.023 -40.15)" fill="#7c7cd6"/>
        <path id="Trazado_161928" data-name="Trazado 161928" d="M221.127,88.893l-4.5,2.645c-.251.147-.455.063-.455-.187a.96.96,0,0,1,.455-.724l4.5-2.645c.25-.147.455-.062.455.188a.962.962,0,0,1-.455.723" transform="translate(-91.218 -37.095)" fill="#7c7cd6"/>
        <path id="Trazado_161929" data-name="Trazado 161929" d="M233.437,81.652l-4.5,2.645c-.251.147-.455.063-.455-.187a.96.96,0,0,1,.455-.724l4.5-2.645c.25-.147.455-.062.455.188a.962.962,0,0,1-.455.723" transform="translate(-96.412 -34.039)" fill="#7c7cd6"/>
        <path id="Trazado_161930" data-name="Trazado 161930" d="M208.817,99.969l-4.5,2.645c-.251.147-.455.063-.455-.187a.96.96,0,0,1,.455-.724l4.5-2.645c.25-.147.455-.062.455.188a.962.962,0,0,1-.455.723" transform="translate(-86.023 -41.768)" fill="#7c7cd6"/>
        <path id="Trazado_161931" data-name="Trazado 161931" d="M221.127,92.728l-4.5,2.645c-.251.148-.455.064-.455-.187a.962.962,0,0,1,.455-.724l4.5-2.645c.25-.147.455-.062.455.188a.96.96,0,0,1-.455.723" transform="translate(-91.218 -38.713)" fill="#7c7cd6"/>
        <path id="Trazado_161932" data-name="Trazado 161932" d="M233.437,85.486l-4.5,2.645c-.251.147-.455.063-.455-.187a.96.96,0,0,1,.455-.724l4.5-2.645c.25-.147.455-.062.455.188a.962.962,0,0,1-.455.723" transform="translate(-96.412 -35.657)" fill="#7c7cd6"/>
        <path id="Trazado_161933" data-name="Trazado 161933" d="M208.817,103.8l-4.5,2.645c-.251.147-.455.063-.455-.187a.96.96,0,0,1,.455-.724l4.5-2.645c.25-.147.455-.063.455.188a.962.962,0,0,1-.455.723" transform="translate(-86.023 -43.386)" fill="#7c7cd6"/>
        <path id="Trazado_161934" data-name="Trazado 161934" d="M221.127,96.562l-4.5,2.645c-.251.147-.455.063-.455-.187a.96.96,0,0,1,.455-.724l4.5-2.645c.25-.147.455-.062.455.188a.962.962,0,0,1-.455.723" transform="translate(-91.218 -40.331)" fill="#7c7cd6"/>
        <path id="Trazado_161935" data-name="Trazado 161935" d="M233.437,89.321l-4.5,2.645c-.251.147-.455.063-.455-.187a.96.96,0,0,1,.455-.724l4.5-2.645c.25-.147.455-.062.455.188a.962.962,0,0,1-.455.723" transform="translate(-96.412 -37.275)" fill="#7c7cd6"/>
        <path id="Trazado_161936" data-name="Trazado 161936" d="M159.3,87.948l0-.035c0-.012,0-.024,0-.036s0-.024,0-.036,0-.024-.005-.036v0h0c0-.011,0-.023-.006-.034s-.005-.026-.008-.039l-.009-.039c0-.012-.006-.026-.01-.038s-.006-.021-.009-.032v-.008l-.012-.038-.013-.038L159.2,87.5c0-.013-.009-.025-.014-.036l-.012-.028v0l0,0-.016-.036-.019-.039c-.008-.015-.015-.03-.023-.044s-.017-.032-.027-.049l0-.008-.005-.01c-.017-.03-.036-.058-.055-.087s-.031-.045-.047-.067h0c-.01-.015-.021-.029-.033-.044s-.018-.024-.028-.035l-.029-.034-.028-.032-.005-.005,0,0-.023-.024-.031-.031-.032-.03c-.011-.01-.021-.02-.033-.028l-.016-.013,0,0-.013-.01-.032-.025-.032-.023-.031-.02-.031-.02-.008,0-14.7-8.446-.023-.013-.03-.015c-.01-.006-.02-.01-.03-.014l-.029-.013-.029-.011-.007,0h0l-.02-.007-.031-.008-.03-.007-.032-.005-.023,0h-.083l-.043.006h0a.336.336,0,0,0-.049.014.3.3,0,0,0-.06.027l-.8.482a.379.379,0,0,1,.109-.042h0a.462.462,0,0,1,.124-.007h0a.593.593,0,0,1,.136.03h0a.754.754,0,0,1,.149.069l14.7,8.446a1.04,1.04,0,0,1,.147.1l0,0a1.539,1.539,0,0,1,.135.126l0,0a1.555,1.555,0,0,1,.124.149h0a1.8,1.8,0,0,1,.107.163l0,.009a1.9,1.9,0,0,1,.087.171v0a1.678,1.678,0,0,1,.067.182v0a1.485,1.485,0,0,1,.042.183h0a1.054,1.054,0,0,1,.014.179.8.8,0,0,1-.015.158v0a.618.618,0,0,1-.042.131h0a.437.437,0,0,1-.056.087.211.211,0,0,1-.02.025.36.36,0,0,1-.081.068l.8-.482a.34.34,0,0,0,.081-.066l.021-.025c.009-.012.019-.022.027-.034s.019-.034.028-.051v0a.378.378,0,0,0,.016-.038c0-.013.009-.025.013-.039s.007-.025.01-.038l0-.016v0c0-.006,0-.011,0-.016a.341.341,0,0,0,.005-.035c0-.012,0-.024,0-.036l0-.035c0-.012,0-.024,0-.035v0c0-.01,0-.021,0-.033" transform="translate(-60.143 -32.981)" fill="#7c7cd6"/>
        <path id="Trazado_161937" data-name="Trazado 161937" d="M157.6,87.539a1.625,1.625,0,0,1,.736,1.275c0,.468-.334.658-.741.423L142.9,80.79a1.628,1.628,0,0,1-.735-1.275c0-.466.334-.657.74-.422Z" transform="translate(-59.986 -33.332)" fill="#fff"/>
        <path id="Trazado_161938" data-name="Trazado 161938" d="M157.767,87.539l-14.7-8.446a.523.523,0,0,0-.516-.054.573.573,0,0,1,.443.084l14.7,8.446a1.628,1.628,0,0,1,.736,1.275.512.512,0,0,1-.224.477.475.475,0,0,0,.3-.507,1.627,1.627,0,0,0-.737-1.275" transform="translate(-60.149 -33.332)" fill="#fff"/>
        <path id="Trazado_161939" data-name="Trazado 161939" d="M159.3,94.826l0-.035c0-.012,0-.024,0-.036s0-.024,0-.036,0-.024-.005-.036v0h0c0-.011,0-.023-.006-.034s-.005-.025-.008-.038-.006-.025-.009-.039-.006-.026-.01-.039-.006-.021-.009-.032V94.49l-.012-.038-.013-.038-.014-.036-.014-.036-.012-.028v0l0,0-.016-.036-.019-.039c-.008-.015-.015-.03-.023-.045s-.017-.032-.027-.048l0-.008-.005-.009c-.017-.03-.036-.059-.055-.088s-.031-.045-.047-.066h0l-.033-.043-.028-.035-.029-.034-.028-.032-.005-.005,0,0-.023-.024-.031-.031-.032-.03-.033-.029-.016-.013,0,0-.013-.01-.032-.025-.032-.023-.031-.021-.031-.019-.008,0-14.7-8.446-.023-.013-.03-.015-.03-.014-.029-.013-.029-.011-.007,0h0l-.02-.007-.031-.008-.03-.007-.032-.005-.023,0h-.045l-.038,0-.043.006h0a.333.333,0,0,0-.049.013.279.279,0,0,0-.06.028h0l-.8.481a.378.378,0,0,1,.109-.041h0a.462.462,0,0,1,.124-.006h0a.563.563,0,0,1,.136.029h0a.814.814,0,0,1,.148.068l14.7,8.446a1.1,1.1,0,0,1,.147.1l0,0a1.445,1.445,0,0,1,.135.126l0,0a1.558,1.558,0,0,1,.124.149h0a1.737,1.737,0,0,1,.108.164l0,.008a1.836,1.836,0,0,1,.087.172v0a1.635,1.635,0,0,1,.067.182h0a1.436,1.436,0,0,1,.043.183h0a1.052,1.052,0,0,1,.014.179.807.807,0,0,1-.015.159v0a.6.6,0,0,1-.042.131v0a.446.446,0,0,1-.056.086.217.217,0,0,1-.02.025.343.343,0,0,1-.081.067l.8-.482a.355.355,0,0,0,.081-.066c.008-.008.014-.017.021-.025s.019-.021.027-.034.019-.033.028-.051v0h0c.006-.013.012-.025.016-.039a.39.39,0,0,0,.013-.039c0-.012.007-.024.01-.038l0-.016v0c0-.006,0-.011,0-.016a.348.348,0,0,0,.005-.035c0-.012,0-.023,0-.035l0-.035c0-.012,0-.024,0-.035v0c0-.011,0-.022,0-.033" transform="translate(-60.144 -35.882)" fill="#7c7cd6"/>
        <path id="Trazado_161940" data-name="Trazado 161940" d="M157.6,94.417a1.627,1.627,0,0,1,.737,1.275c0,.468-.335.658-.742.423l-14.7-8.446a1.628,1.628,0,0,1-.735-1.275c0-.466.334-.657.74-.422Z" transform="translate(-59.986 -36.234)" fill="#fff"/>
        <path id="Trazado_161941" data-name="Trazado 161941" d="M157.767,94.417l-14.7-8.446a.523.523,0,0,0-.516-.054.573.573,0,0,1,.443.084l14.7,8.446a1.628,1.628,0,0,1,.736,1.275.512.512,0,0,1-.224.477.475.475,0,0,0,.3-.507,1.627,1.627,0,0,0-.737-1.275" transform="translate(-60.149 -36.234)" fill="#fff"/>
        <path id="Trazado_161942" data-name="Trazado 161942" d="M159.3,101.7l0-.035c0-.012,0-.024,0-.035s0-.024,0-.036a.351.351,0,0,0-.005-.036v0h0c0-.011,0-.023-.006-.034s0-.025-.008-.038-.006-.025-.009-.039-.006-.026-.01-.038-.006-.022-.009-.032v-.008l-.012-.038-.013-.038-.014-.035c0-.013-.009-.025-.014-.036l-.012-.028v0l0,0-.016-.036-.019-.039c-.008-.015-.015-.03-.023-.045s-.017-.032-.027-.048l0-.008-.005-.009c-.017-.03-.036-.058-.055-.088s-.031-.045-.047-.066h0c-.01-.015-.021-.029-.033-.044s-.018-.024-.028-.035l-.029-.034-.028-.032-.005-.005,0,0-.023-.024a.4.4,0,0,0-.031-.031l-.032-.03-.032-.028-.016-.013,0,0-.013-.011-.032-.025-.032-.023-.031-.02-.031-.02-.008,0-14.7-8.446L143.838,92l-.03-.016-.029-.014-.029-.013-.029-.011-.007,0h0l-.02-.007-.031-.008-.03-.007-.032-.005-.023,0h-.045l-.038,0-.043.006h0c-.017,0-.034.008-.049.014a.35.35,0,0,0-.06.028h0l-.8.482a.363.363,0,0,1,.109-.042h0a.462.462,0,0,1,.124-.006h0a.562.562,0,0,1,.136.029h0a.765.765,0,0,1,.148.069l14.7,8.446a1.041,1.041,0,0,1,.147.1l0,0a1.457,1.457,0,0,1,.135.126l0,0a1.633,1.633,0,0,1,.124.149h0a1.657,1.657,0,0,1,.108.163l0,.008a1.837,1.837,0,0,1,.087.172v0a1.678,1.678,0,0,1,.067.182h0a1.436,1.436,0,0,1,.043.183h0a1.055,1.055,0,0,1,.014.179.8.8,0,0,1-.015.158v0a.6.6,0,0,1-.042.131v0a.43.43,0,0,1-.056.086.216.216,0,0,1-.02.025.359.359,0,0,1-.081.068l.8-.482a.34.34,0,0,0,.081-.066c.008-.008.014-.017.021-.025s.019-.021.027-.034.019-.033.028-.05v0c.006-.012.012-.025.017-.038s.009-.025.013-.039.007-.025.01-.038l0-.016v0c0-.006,0-.011,0-.016a.349.349,0,0,0,.005-.035c0-.012,0-.023,0-.035l0-.035c0-.012,0-.024,0-.035h0c0-.012,0-.023,0-.034" transform="translate(-60.144 -38.785)" fill="#7c7cd6"/>
        <path id="Trazado_161943" data-name="Trazado 161943" d="M157.605,101.295a1.625,1.625,0,0,1,.736,1.275c0,.468-.334.658-.741.423l-14.7-8.446a1.628,1.628,0,0,1-.735-1.275c0-.466.334-.657.74-.422Z" transform="translate(-59.987 -39.136)" fill="#fff"/>
        <path id="Trazado_161944" data-name="Trazado 161944" d="M157.768,101.3l-14.7-8.446a.523.523,0,0,0-.516-.054.573.573,0,0,1,.443.084l14.7,8.446a1.628,1.628,0,0,1,.736,1.275.512.512,0,0,1-.224.477.475.475,0,0,0,.3-.507,1.627,1.627,0,0,0-.737-1.275" transform="translate(-60.15 -39.136)" fill="#fff"/>
        <path id="Trazado_161945" data-name="Trazado 161945" d="M224.614,33.515c-.007.021-.011.043-.018.065a2.439,2.439,0,0,1-.28.547c-.021.032-.042.065-.065.1a3.319,3.319,0,0,1-.466.514,4.545,4.545,0,0,1-.413.305c-.122.087-.225.179-.364.259L196.149,50.91,196.1,67.036l26.859-15.609.072-.042c.112-.068.191-.145.291-.216a4.763,4.763,0,0,0,.413-.306c.012-.01.028-.018.039-.029a3.368,3.368,0,0,0,.365-.392c.024-.031.04-.062.063-.093s.043-.064.065-.1c.036-.054.077-.106.108-.161a2.327,2.327,0,0,0,.157-.334c.006-.017.009-.034.015-.051s.012-.043.018-.064c.022-.072.047-.143.062-.215a2.027,2.027,0,0,0,.038-.337c0-.017,0-.035,0-.052l.046-16.125a2.041,2.041,0,0,1-.1.6" transform="translate(-82.748 -13.888)" fill="#afafe0"/>
        <path id="Trazado_161946" data-name="Trazado 161946" d="M133.75,35.285a2.939,2.939,0,0,1-1.734-2.423l-.046,16.126A2.939,2.939,0,0,0,133.7,51.41l27.028,15.6.046-16.126Z" transform="translate(-55.686 -13.867)" fill="#afafe0"/>
        <path id="Trazado_161947" data-name="Trazado 161947" d="M190.038,80.175l.046-16.126a6.3,6.3,0,0,1-.82.389c-.075.03-.151.058-.227.086-.178.064-.365.116-.551.168s-.388.105-.589.147c-.234.048-.47.092-.712.123-.059.008-.116.018-.175.024-.327.035-.657.052-.988.055h-.157c-.327,0-.653-.02-.976-.054l-.146-.016a9.307,9.307,0,0,1-.945-.161c-.057-.013-.112-.028-.168-.042a7.941,7.941,0,0,1-.815-.248c-.047-.017-.1-.031-.145-.049a6.488,6.488,0,0,1-.9-.423l-.046,16.126a6.375,6.375,0,0,0,.848.406c.015.006.032.01.048.016.047.018.1.032.146.05.171.062.341.124.519.175.1.028.2.048.3.072.056.014.11.028.167.041s.1.026.15.036q.287.06.582.1c.07.01.142.015.212.024l.147.016c.071.008.141.018.212.024q.289.023.579.031c.062,0,.123,0,.185,0h.157c.087,0,.173,0,.26,0,.218-.008.436-.022.651-.043l.075-.011c.06-.006.117-.017.177-.024.167-.021.335-.04.5-.069.073-.013.14-.038.212-.053.2-.041.4-.092.59-.147.1-.028.21-.045.31-.077.083-.027.159-.061.239-.091s.154-.057.229-.087a6.347,6.347,0,0,0,.819-.388" transform="translate(-76.683 -27.026)" fill="#c5c5e8"/>
        <path id="Trazado_161948" data-name="Trazado 161948" d="M195.953,16.6c2.3,1.331,2.311,3.486.027,4.813L169.121,37.024a9.158,9.158,0,0,1-8.309,0l-27.028-15.6c-2.3-1.331-2.31-3.486-.027-4.813L160.616,1a9.156,9.156,0,0,1,8.309,0Z" transform="translate(-55.72 0)" fill="#dbdbf3"/>
        <path id="Trazado_161949" data-name="Trazado 161949" d="M208.817,64.873l-4.5,2.645c-.251.147-.455.063-.455-.187a.96.96,0,0,1,.455-.724l4.5-2.645c.25-.147.455-.063.455.188a.961.961,0,0,1-.455.723" transform="translate(-86.023 -26.959)" fill="#7c7cd6"/>
        <path id="Trazado_161950" data-name="Trazado 161950" d="M221.127,57.632l-4.5,2.645c-.251.147-.455.063-.455-.187a.96.96,0,0,1,.455-.724l4.5-2.645c.25-.147.455-.062.455.188a.962.962,0,0,1-.455.723" transform="translate(-91.218 -23.904)" fill="#7c7cd6"/>
        <path id="Trazado_161951" data-name="Trazado 161951" d="M233.437,50.391l-4.5,2.645c-.251.147-.455.063-.455-.187a.96.96,0,0,1,.455-.724l4.5-2.645c.25-.147.455-.062.455.188a.962.962,0,0,1-.455.723" transform="translate(-96.412 -20.848)" fill="#7c7cd6"/>
        <path id="Trazado_161952" data-name="Trazado 161952" d="M208.817,68.707l-4.5,2.645c-.251.147-.455.063-.455-.187a.96.96,0,0,1,.455-.724l4.5-2.645c.25-.147.455-.062.455.188a.962.962,0,0,1-.455.723" transform="translate(-86.023 -28.577)" fill="#7c7cd6"/>
        <path id="Trazado_161953" data-name="Trazado 161953" d="M221.127,61.466l-4.5,2.645c-.251.147-.455.063-.455-.187a.96.96,0,0,1,.455-.724l4.5-2.645c.25-.147.455-.063.455.188a.962.962,0,0,1-.455.723" transform="translate(-91.218 -25.521)" fill="#7c7cd6"/>
        <path id="Trazado_161954" data-name="Trazado 161954" d="M233.437,54.225l-4.5,2.645c-.251.147-.455.063-.455-.187a.96.96,0,0,1,.455-.724l4.5-2.645c.25-.147.455-.062.455.188a.962.962,0,0,1-.455.723" transform="translate(-96.412 -22.466)" fill="#7c7cd6"/>
        <path id="Trazado_161955" data-name="Trazado 161955" d="M208.817,72.541l-4.5,2.645c-.251.147-.455.063-.455-.187a.96.96,0,0,1,.455-.724l4.5-2.645c.25-.147.455-.062.455.188a.962.962,0,0,1-.455.723" transform="translate(-86.023 -30.195)" fill="#7c7cd6"/>
        <path id="Trazado_161956" data-name="Trazado 161956" d="M221.127,65.3l-4.5,2.645c-.251.147-.455.063-.455-.187a.96.96,0,0,1,.455-.724l4.5-2.645c.25-.147.455-.063.455.188a.962.962,0,0,1-.455.723" transform="translate(-91.218 -27.139)" fill="#7c7cd6"/>
        <path id="Trazado_161957" data-name="Trazado 161957" d="M233.437,58.059l-4.5,2.645c-.251.147-.455.063-.455-.187a.96.96,0,0,1,.455-.724l4.5-2.645c.25-.147.455-.062.455.188a.962.962,0,0,1-.455.723" transform="translate(-96.412 -24.084)" fill="#7c7cd6"/>
        <path id="Trazado_161958" data-name="Trazado 161958" d="M159.3,56.687l0-.035c0-.012,0-.024,0-.036s0-.024,0-.036,0-.024-.005-.036v0h0c0-.011,0-.023-.006-.034s-.005-.025-.008-.038-.006-.025-.009-.038-.006-.027-.01-.039-.006-.021-.009-.032v-.007l-.012-.038-.013-.038-.014-.036c0-.012-.009-.024-.014-.036l-.012-.029v0l0,0-.016-.036-.019-.039-.023-.045L159.088,56l0-.008-.005-.009c-.017-.03-.036-.059-.055-.088s-.031-.045-.047-.066h0l-.033-.043-.028-.035-.029-.034-.028-.032-.005-.005,0,0-.023-.024-.031-.031-.032-.03-.033-.029-.016-.013,0,0-.013-.01-.032-.025-.032-.023-.031-.021-.031-.019-.008,0L143.86,47l-.023-.013-.03-.016-.03-.014-.029-.013-.029-.011-.007,0h0l-.02-.007-.031-.008-.03-.007L143.6,46.9l-.023,0h-.045l-.038,0-.043.006h0a.353.353,0,0,0-.109.041l-.8.482a.362.362,0,0,1,.109-.042h0a.462.462,0,0,1,.124-.006h0a.562.562,0,0,1,.136.029h0a.8.8,0,0,1,.149.068l14.7,8.446a1.2,1.2,0,0,1,.147.1l0,0a1.381,1.381,0,0,1,.135.126l0,0a1.561,1.561,0,0,1,.124.149h0a1.735,1.735,0,0,1,.107.164l0,.008a1.839,1.839,0,0,1,.087.172v0a1.529,1.529,0,0,1,.068.182h0a1.434,1.434,0,0,1,.043.183h0a1.053,1.053,0,0,1,.014.179.807.807,0,0,1-.015.159v0a.6.6,0,0,1-.042.131h0a.417.417,0,0,1-.056.086.285.285,0,0,1-.02.026.355.355,0,0,1-.081.066l.8-.482a.355.355,0,0,0,.081-.066c.008-.008.014-.017.021-.025s.019-.021.027-.034.019-.033.028-.051v0a.377.377,0,0,0,.016-.038c0-.013.009-.025.013-.039s.007-.025.01-.038l0-.016v0c0-.006,0-.011,0-.016a.352.352,0,0,0,.005-.035c0-.012,0-.023,0-.035l0-.035c0-.012,0-.024,0-.035v0c0-.011,0-.022,0-.033" transform="translate(-60.143 -19.789)" fill="#7c7cd6"/>
        <path id="Trazado_161959" data-name="Trazado 161959" d="M157.6,56.278a1.625,1.625,0,0,1,.736,1.275c0,.468-.334.658-.741.423l-14.7-8.446a1.628,1.628,0,0,1-.735-1.275c0-.466.334-.657.74-.422Z" transform="translate(-59.986 -20.141)" fill="#fff"/>
        <path id="Trazado_161960" data-name="Trazado 161960" d="M157.767,56.278l-14.7-8.446a.523.523,0,0,0-.516-.054.573.573,0,0,1,.443.084l14.7,8.446a1.628,1.628,0,0,1,.736,1.275.512.512,0,0,1-.224.477.475.475,0,0,0,.3-.507,1.627,1.627,0,0,0-.737-1.275" transform="translate(-60.149 -20.141)" fill="#fff"/>
        <path id="Trazado_161961" data-name="Trazado 161961" d="M159.3,63.564l0-.035c0-.012,0-.024,0-.036s0-.024,0-.036,0-.024-.005-.036v0c0-.011,0-.023-.006-.034s-.005-.025-.008-.038-.006-.025-.009-.039-.006-.026-.01-.039-.006-.021-.009-.032h0v-.006l-.012-.038-.013-.038-.014-.036-.014-.036-.012-.028h0l0-.006-.016-.036-.019-.039c-.008-.015-.015-.03-.023-.045s-.017-.032-.027-.048l0-.008-.005-.009c-.017-.03-.036-.059-.055-.088s-.031-.045-.047-.066h0l-.033-.043-.028-.035-.029-.034-.028-.032-.005-.005,0,0-.023-.024L158.8,62.5l-.032-.03-.033-.029-.016-.013,0,0-.013-.01-.032-.025-.032-.023-.031-.021-.031-.019-.008,0-14.7-8.446-.023-.013-.03-.016-.03-.014-.029-.013-.029-.011-.007,0h0l-.02-.007-.031-.008-.03-.007-.032-.005-.023,0h-.045l-.038,0-.043.006h0a.333.333,0,0,0-.049.013.31.31,0,0,0-.06.028h0l-.8.482a.363.363,0,0,1,.109-.042h0a.463.463,0,0,1,.124-.006h0a.59.59,0,0,1,.138.03h0a.815.815,0,0,1,.148.068l14.7,8.446a1.1,1.1,0,0,1,.147.1l0,0a1.381,1.381,0,0,1,.135.126l0,0a1.558,1.558,0,0,1,.124.149h0a1.738,1.738,0,0,1,.108.164l0,.008a1.836,1.836,0,0,1,.087.172v0a1.634,1.634,0,0,1,.067.182h0a1.436,1.436,0,0,1,.043.183h0a1.053,1.053,0,0,1,.014.179.807.807,0,0,1-.015.159v0a.6.6,0,0,1-.042.131v0a.429.429,0,0,1-.056.086.286.286,0,0,1-.02.026.355.355,0,0,1-.081.066l.8-.482a.355.355,0,0,0,.081-.066c.008-.008.014-.017.021-.025s.019-.021.027-.034.019-.033.028-.051v0a.377.377,0,0,0,.016-.038.391.391,0,0,0,.013-.039c0-.012.007-.024.01-.038l0-.016v0c0-.006,0-.011,0-.016a.348.348,0,0,0,.005-.035c0-.012,0-.023,0-.035l0-.035c0-.012,0-.024,0-.035v0c0-.011,0-.022,0-.033" transform="translate(-60.144 -22.691)" fill="#7c7cd6"/>
        <path id="Trazado_161962" data-name="Trazado 161962" d="M157.6,63.156a1.627,1.627,0,0,1,.737,1.275c0,.468-.335.658-.742.423l-14.7-8.446a1.628,1.628,0,0,1-.735-1.275c0-.466.334-.657.74-.422Z" transform="translate(-59.986 -23.043)" fill="#fff"/>
        <path id="Trazado_161963" data-name="Trazado 161963" d="M157.767,63.156l-14.7-8.446a.523.523,0,0,0-.516-.054.573.573,0,0,1,.443.084l14.7,8.446a1.628,1.628,0,0,1,.736,1.275.512.512,0,0,1-.224.477.475.475,0,0,0,.3-.507,1.627,1.627,0,0,0-.737-1.275" transform="translate(-60.149 -23.043)" fill="#fff"/>
        <path id="Trazado_161964" data-name="Trazado 161964" d="M159.3,70.442l0-.035c0-.012,0-.024,0-.036s0-.024,0-.036,0-.024-.005-.036v0h0c0-.011,0-.023-.006-.034s0-.025-.008-.038-.006-.025-.009-.039-.006-.026-.01-.039-.006-.021-.009-.032v-.007l-.012-.038-.013-.038L159.2,70l-.014-.036-.012-.028v0l0,0-.016-.036-.019-.039c-.008-.015-.015-.03-.023-.045s-.017-.032-.027-.048l0-.008-.005-.009c-.017-.03-.036-.059-.055-.088s-.031-.045-.047-.066h0l-.033-.043-.028-.035-.029-.034-.028-.032-.005-.005,0,0-.023-.024-.031-.031-.032-.03-.033-.029-.016-.013,0,0-.013-.01-.032-.025-.032-.023-.031-.021-.031-.019-.008,0-14.7-8.446-.023-.013-.03-.016-.029-.014-.029-.013-.029-.011-.007,0h0l-.02-.007-.031-.008-.03-.007-.032-.005-.023,0h-.045l-.038,0-.043.006h0a.405.405,0,0,0-.049.014.31.31,0,0,0-.06.028h0l-.8.482a.363.363,0,0,1,.109-.042h0a.463.463,0,0,1,.124-.006h0a.562.562,0,0,1,.136.029h0a.8.8,0,0,1,.148.068l14.7,8.446a1.1,1.1,0,0,1,.147.1l0,0a1.382,1.382,0,0,1,.135.126l0,0a1.559,1.559,0,0,1,.124.149h0a1.738,1.738,0,0,1,.108.164l0,.008a1.837,1.837,0,0,1,.087.172v0a1.634,1.634,0,0,1,.067.182h0a1.436,1.436,0,0,1,.043.183h0a1.064,1.064,0,0,1,.014.179.807.807,0,0,1-.015.159v0a.6.6,0,0,1-.042.131v0a.446.446,0,0,1-.056.086.216.216,0,0,1-.02.025.357.357,0,0,1-.081.067l.8-.481a.354.354,0,0,0,.081-.066c.008-.008.014-.017.021-.025s.019-.021.027-.034.019-.033.028-.051v0a.377.377,0,0,0,.016-.038.391.391,0,0,0,.013-.039c0-.012.007-.024.01-.038l0-.016v0c0-.006,0-.011,0-.016a.349.349,0,0,0,.005-.035c0-.012,0-.023,0-.035l0-.035c0-.012,0-.024,0-.035v0c0-.011,0-.022,0-.033" transform="translate(-60.144 -25.594)" fill="#7c7cd6"/>
        <path id="Trazado_161965" data-name="Trazado 161965" d="M157.605,70.034a1.625,1.625,0,0,1,.736,1.275c0,.468-.334.658-.741.423l-14.7-8.446a1.628,1.628,0,0,1-.735-1.275c0-.466.334-.657.74-.422Z" transform="translate(-59.987 -25.945)" fill="#fff"/>
        <path id="Trazado_161966" data-name="Trazado 161966" d="M157.768,70.034l-14.7-8.446a.523.523,0,0,0-.516-.054.573.573,0,0,1,.443.084l14.7,8.446a1.628,1.628,0,0,1,.736,1.275.512.512,0,0,1-.224.477.475.475,0,0,0,.3-.507,1.627,1.627,0,0,0-.737-1.275" transform="translate(-60.15 -25.945)" fill="#fff"/>
      </g>
    </g>
    <g id="Grupo_90279" data-name="Grupo 90279" transform="translate(63.829 50.801)">
      <g id="Grupo_90278" data-name="Grupo 90278" clip-path="url(#clip-path-3)">
        <rect id="Rectángulo_11509" data-name="Rectángulo 11509" width="0.652" height="0.391" transform="translate(0 0)" fill="url(#linear-gradient)"/>
      </g>
    </g>
    <g id="Grupo_90281" data-name="Grupo 90281" transform="translate(82.183 61.668)">
      <g id="Grupo_90280" data-name="Grupo 90280" clip-path="url(#clip-path-4)">
        <rect id="Rectángulo_11510" data-name="Rectángulo 11510" width="0.297" height="0.302" transform="translate(0 0)" fill="url(#linear-gradient-2)"/>
      </g>
    </g>
    <g id="Grupo_90283" data-name="Grupo 90283">
      <g id="Grupo_90282" data-name="Grupo 90282" clip-path="url(#clip-path)">
        <path id="Trazado_161969" data-name="Trazado 161969" d="M123.949,148.033c0,4.109-.986,6.075-2.242,6.9-2.263,1.486-5.433-.7-5.433-.7L72.436,129.5s-7.31-4.693-6.471-13.719c.256-2.769,1.3-4.4,2.6-5.329l.881-.517.042-.021a9.608,9.608,0,0,1,6.058-.208,18.152,18.152,0,0,1,.475-3.624,12.112,12.112,0,0,1,3.6-6.56l2.279-1.361a7.021,7.021,0,0,1,.745-.255l.021-.01a10.282,10.282,0,0,1,3.363-.344,10.738,10.738,0,0,1,2.826.532c6.377,2.112,9.454,9.745,10.038,11.362.073.2.1.3.1.3s7.576,1.413,11.315,8.15a23.12,23.12,0,0,1,2.832,12.473l.005.005A18.618,18.618,0,0,1,123.818,145.5c.058.537.1,1.09.115,1.658.01.3.01.589.016.871" transform="translate(-27.806 -41.157)" fill="#f9bb41"/>
        <path id="Trazado_161970" data-name="Trazado 161970" d="M122.787,162.359a2.342,2.342,0,0,1-.775,1.008,1.558,1.558,0,0,1-.888.239,5.623,5.623,0,0,1-2.642-.923l-.057-.039L74.572,137.9a13.485,13.485,0,0,1-5.661-12.1,5.413,5.413,0,0,1,1.839-4.054l.746-.439a5.205,5.205,0,0,1,1.651-.4,5.773,5.773,0,0,0-1.549,3.815,13.487,13.487,0,0,0,5.661,12.1l43.853,24.743.063.04a6.518,6.518,0,0,0,1.612.757" transform="translate(-29.053 -51.016)" fill="#eaa211"/>
      </g>
    </g>
    <g id="Grupo_90285" data-name="Grupo 90285" transform="translate(42.487 58.087)">
      <g id="Grupo_90284" data-name="Grupo 90284" clip-path="url(#clip-path-6)">
        <rect id="Rectángulo_11512" data-name="Rectángulo 11512" width="52.595" height="53.256" transform="translate(-0.647 0)" fill="url(#linear-gradient-3)"/>
      </g>
    </g>
    <g id="Grupo_90287" data-name="Grupo 90287" transform="translate(51.82 57.006)">
      <g id="Grupo_90286" data-name="Grupo 90286" clip-path="url(#clip-path-7)">
        <rect id="Rectángulo_11513" data-name="Rectángulo 11513" width="2.279" height="1.361" transform="translate(0 0)" fill="url(#linear-gradient-4)"/>
      </g>
    </g>
    <g id="Grupo_90289" data-name="Grupo 90289">
      <g id="Grupo_90288" data-name="Grupo 90288" clip-path="url(#clip-path)">
        <path id="Trazado_161973" data-name="Trazado 161973" d="M121.972,98.293l-11.284,6.622s-.031-.1-.1-.3c-.584-1.616-3.661-9.25-10.038-11.362a10.241,10.241,0,0,0-1.084-.3,10.927,10.927,0,0,0-5.105.109l-.021.01a7.03,7.03,0,0,0-.746.255l9.688-5.788.042-.026.652-.391a7.988,7.988,0,0,1,1.642-.673l.026-.01A10.27,10.27,0,0,1,109,86.1a10.659,10.659,0,0,1,2.821.532c6.377,2.112,9.453,9.745,10.038,11.362l-.188.114Z" transform="translate(-39.491 -36.323)" fill="#f9bb41"/>
        <path id="Trazado_161974" data-name="Trazado 161974" d="M148.594,127.831l-11.279,6.622a23.114,23.114,0,0,0-2.831-12.472c-3.739-6.737-11.315-8.15-11.315-8.15l11.284-6.622s.036.005.109.021c.939.2,7.723,1.867,11.2,8.13a23.114,23.114,0,0,1,2.831,12.472" transform="translate(-51.973 -45.238)" fill="#eaa211"/>
      </g>
    </g>
    <g id="Grupo_90291" data-name="Grupo 90291" transform="translate(82.183 61.668)">
      <g id="Grupo_90290" data-name="Grupo 90290" clip-path="url(#clip-path-9)">
        <rect id="Rectángulo_11515" data-name="Rectángulo 11515" width="0.407" height="0.323" transform="translate(0 0)" fill="url(#linear-gradient-5)"/>
      </g>
    </g>
    <g id="Grupo_90296" data-name="Grupo 90296">
      <g id="Grupo_90295" data-name="Grupo 90295" clip-path="url(#clip-path)">
        <path id="Trazado_161976" data-name="Trazado 161976" d="M169.721,160.546c0,4.114-.981,6.075-2.243,6.9l-.24.141L156.2,174.071c1.256-.829,2.242-2.795,2.241-6.9-.005-.282-.005-.568-.015-.871-.016-.569-.057-1.121-.114-1.658a18.619,18.619,0,0,0-10.664-15.127l0-.005,11.278-6.622.005.005A18.7,18.7,0,0,1,169.7,159.68c.01.3.016.589.016.865" transform="translate(-62.3 -60.292)" fill="#f9bb41"/>
        <path id="Trazado_161977" data-name="Trazado 161977" d="M78.646,112.322a18.149,18.149,0,0,0-.475,3.624,9.612,9.612,0,0,0-6.059.209Z" transform="translate(-30.429 -47.396)" fill="#f9bb41"/>
        <path id="Trazado_161978" data-name="Trazado 161978" d="M85.523,113.32c-.006-.006,0-1.291.012-1.873l.006-.427a16.477,16.477,0,0,1,.427-3.24,10.669,10.669,0,0,1,2.945-5.558l2.033-1.213a4.707,4.707,0,0,1,.455-.148l.154-.046.012-.006a6.827,6.827,0,0,1,.877-.171l-.843.5a10.674,10.674,0,0,0-2.945,5.553,16.548,16.548,0,0,0-.427,3.246l-.017,2.3Z" transform="translate(-36.087 -42.465)" fill="#eaa211"/>
        <path id="Trazado_161979" data-name="Trazado 161979" d="M82.91,195.479c-8.535,5.995,8.571,15.211,16.117,10.109S88.92,191.258,82.91,195.479" transform="translate(-34.002 -82.031)" fill="#cacae0"/>
        <path id="Trazado_161980" data-name="Trazado 161980" d="M227.865,171.429c-8.535,5.995,8.571,15.211,16.117,10.109s-10.108-14.331-16.117-10.109" transform="translate(-95.168 -71.883)" fill="#cacae0"/>
        <path id="Trazado_161981" data-name="Trazado 161981" d="M89.748,199.064s3.744-1.28,4.223.012-3.473,2.882-4.335,2.765-1.328-.383-1.131-1.187a6.573,6.573,0,0,1,1.05-1.884Z" transform="translate(-37.327 -83.759)"/>
        <path id="Trazado_161982" data-name="Trazado 161982" d="M98.155,182.094a2.022,2.022,0,0,1,2.179-1.748c1.955.083,1.741,2.79,1.116,7.693s-.59,7.124-1.132,8.2c-.376.746-1.779.55-1.85-.286s-.425-12.88-.313-13.857" transform="translate(-41.408 -76.098)" fill="#422b9f"/>
        <path id="Trazado_161983" data-name="Trazado 161983" d="M98.652,205.824a1.617,1.617,0,0,0,2.187-.461,21.134,21.134,0,0,0,2.2.649c1.009.236,2.206.318,2.368.943.353,1.361-5.647,1.624-6.384,1.417s-.373-2.548-.373-2.548" transform="translate(-41.59 -86.655)"/>
        <path id="Trazado_161984" data-name="Trazado 161984" d="M96.171,162.075s1.156,9.315,1.095,10.95.668,3.318,2.832,2.624c1.345-.431,1.06-2.462,1.2-4.547s.693-10.029.693-10.029-5.027-3.869-5.821,1" transform="translate(-40.58 -67.352)" fill="#422b9f"/>
        <path id="Trazado_161985" data-name="Trazado 161985" d="M88.315,175.949a2.022,2.022,0,0,1,2.179-1.748c1.955.083,1.741,2.79,1.116,7.693s-.59,7.124-1.132,8.2c-.376.746-1.779.55-1.85-.286s-.425-12.88-.313-13.857" transform="translate(-37.256 -73.505)" fill="#422b9f"/>
        <path id="Trazado_161986" data-name="Trazado 161986" d="M86.331,155.929s1.156,9.315,1.095,10.95.668,3.318,2.832,2.624c1.345-.431,1.06-2.462,1.2-4.547s.693-10.029.693-10.029-5.027-3.869-5.821,1" transform="translate(-36.428 -64.759)" fill="#422b9f"/>
        <path id="Trazado_161987" data-name="Trazado 161987" d="M92.143,130v2.219a2.448,2.448,0,0,0,2.889.527V130Z" transform="translate(-38.881 -54.857)" fill="#fd5c54"/>
        <path id="Trazado_161988" data-name="Trazado 161988" d="M89.3,121.323a3.414,3.414,0,1,0,4.649.1,3.292,3.292,0,0,0-4.649-.1" transform="translate(-37.324 -50.809)" fill="#fd5c54"/>
        <path id="Trazado_161989" data-name="Trazado 161989" d="M90.647,120.327s1.912-.177,2.319-1.27a2.75,2.75,0,0,0-1.214-2.964c-1.156-.722.343.869-1.638.681-5.449-.515-5.8,5.012-3.369,7.4,1.441,1.414,3.553.888,4.583-.883a2.456,2.456,0,0,0-.681-2.964" transform="translate(-35.995 -48.907)" fill="#422b9f"/>
        <path id="Trazado_161990" data-name="Trazado 161990" d="M86.085,135.428s-.294,1.326,2.068,2.512,8.019,2.559,9.449,1.782,1.327-3.171-1.516-3.85-7.254-2.143-8.581-1.691-1.42,1.247-1.42,1.247" transform="translate(-36.319 -56.583)" fill="#6e59d3"/>
        <path id="Trazado_161991" data-name="Trazado 161991" d="M101.732,134.244s1.629-4.324,2.65-6.4,1.3-2.259,2.166-1.953.149,2.7-.161,4.36-.677,5.5-2.257,5.992a1.8,1.8,0,0,1-2.4-2" transform="translate(-42.903 -53.074)" fill="#6e59d3"/>
        <path id="Trazado_161992" data-name="Trazado 161992" d="M107.926,123.828c-.024.49,1.183,1.111,1.78.568s2-3.354,1.74-3.9-1.79-.328-2.806,1.709c0,0,.208-1.333-.4-1.1-.3.112-.233,1.167-.31,2.728" transform="translate(-45.54 -50.734)" fill="#fd5c54"/>
        <path id="Trazado_161993" data-name="Trazado 161993" d="M85.222,140.09c.227,5.548.149,8.684.521,9.262s3.849,5.283,11.738,1.732c0,0-.112-2.645-.368-5.412-.3-3.256-.949-6.874-.987-7.856a4.081,4.081,0,0,0-1.553-2.894,13.465,13.465,0,0,0-2.323-.719c-.527-.128-1.1-.26-1.69-.4a7.125,7.125,0,0,0-1.461-.186,4.024,4.024,0,0,0-2.9.885c-1,.973-1.082,3.007-.976,5.591" transform="translate(-35.946 -56.379)" fill="#b7e6ff"/>
        <path id="Trazado_161994" data-name="Trazado 161994" d="M98.806,135.991s-1.056.854.051,3.253,4.675,7,6.277,7.283,3.015-1.651,1.216-3.956-4.336-6.2-5.656-6.671-1.888.09-1.888.09" transform="translate(-41.501 -57.265)" fill="#6e59d3"/>
        <path id="Trazado_161995" data-name="Trazado 161995" d="M108.437,146.12s3.969-2.366,6.059-3.35,2.421-.958,2.911-.176-1.569,2.208-2.843,3.309-3.956,3.875-5.5,3.278a1.8,1.8,0,0,1-.627-3.061" transform="translate(-45.495 -59.927)" fill="#6e59d3"/>
        <path id="Trazado_161996" data-name="Trazado 161996" d="M122.343,140.6c-.324.368.232,1.606,1.038,1.553s3.657-1.375,3.794-1.967-1.2-1.372-3.26-.413c0,0,.994-.913.371-1.113-.3-.1-.909.768-1.943,1.94" transform="translate(-51.585 -58.507)" fill="#fd5c54"/>
        <path id="Trazado_161997" data-name="Trazado 161997" d="M94.118,125.642c.43-.1.914.377,1.082,1.075s-.045,1.345-.475,1.449-.914-.377-1.082-1.074.045-1.346.475-1.449" transform="translate(-39.489 -53.01)" fill="#fd5c54"/>
        <path id="Trazado_161998" data-name="Trazado 161998" d="M91.955,133.616c.036.046.072.089.109.131a2.449,2.449,0,0,0,2.89.527c.06-.025.112-.049.153-.068-.526-.128-1.1-.26-1.69-.4a7.114,7.114,0,0,0-1.461-.186" transform="translate(-38.801 -56.381)" fill="#fd5c54"/>
        <path id="Trazado_161999" data-name="Trazado 161999" d="M244.1,97.186a2.539,2.539,0,0,1,2.459,1.322c1.164,1.617.02,4.784,1.775,6.944a5.174,5.174,0,0,1,1.095,4.438,3.472,3.472,0,0,1-4.566.908,12.437,12.437,0,0,1-4.538-4.784,6.993,6.993,0,0,0,.227-3.886c-.562-1.716,3.548-4.942,3.548-4.942" transform="translate(-101.408 -41)" fill="#422d96"/>
        <path id="Trazado_162000" data-name="Trazado 162000" d="M237.621,155.671s.048-2.3,2.115-2.433,2.1,2.347,2.037,3.94-1.143,9.982-1.307,11.147c-.194,1.375-1.784,1.813-1.912.35-.069-.788-.118-1.634-.23-2.924-.315-3.631-.739-8.7-.7-10.08" transform="translate(-100.266 -64.659)" fill="#fd5c54"/>
        <path id="Trazado_162001" data-name="Trazado 162001" d="M237.317,179.185s-2.646,1.464-2.65,2.286,5.209-.56,5.357-1.02-.777-1.8-.777-1.8-.316,1.34-1.93.536" transform="translate(-99.021 -75.383)" fill="#0a1416"/>
        <path id="Trazado_162002" data-name="Trazado 162002" d="M237.522,143.255a2.2,2.2,0,0,0,2.394,2.069c1.442-.117,1.78-1.619,1.886-5.1.01-.325.048-.724.1-1.182.127-1.033.35-2.362.561-3.8.217-1.475.422-3.065.5-4.573a30.131,30.131,0,0,0-.367-6.3l-3.082-.227a39.068,39.068,0,0,0-1.892,8.072,73.963,73.963,0,0,0-.107,11.04" transform="translate(-100.158 -52.384)" fill="#fd5c54"/>
        <path id="Trazado_162003" data-name="Trazado 162003" d="M245.015,155.943s-.2-2.292,1.835-2.65,2.34,2.1,2.457,3.693-.041,10.048-.077,11.224c-.042,1.388-1.575,2-1.862.558-.155-.775-.3-1.612-.549-2.881-.712-3.575-1.689-8.571-1.8-9.943" transform="translate(-103.384 -64.669)" fill="#fd5c54"/>
        <path id="Trazado_162004" data-name="Trazado 162004" d="M247.322,179.173s-2.469,1.746-2.384,2.563,5.117-1.128,5.213-1.6-.97-1.706-.97-1.706-.167,1.366-1.86.745" transform="translate(-103.354 -75.29)" fill="#0a1416"/>
        <path id="Trazado_162005" data-name="Trazado 162005" d="M244.2,143.549a2.2,2.2,0,0,0,2.606,1.794c1.421-.274,1.592-1.8,1.316-5.275-.026-.324-.032-.725-.027-1.186.013-1.041.088-2.387.141-3.842.054-1.489.083-3.093,0-4.6a30.158,30.158,0,0,0-1.055-6.217l-3.088.112a39.076,39.076,0,0,0-1,8.23,73.945,73.945,0,0,0,1.1,10.986" transform="translate(-102.574 -52.417)" fill="#fd5c54"/>
        <path id="Trazado_162006" data-name="Trazado 162006" d="M236.546,126.2a49.91,49.91,0,0,0-3.538,11.439c-1.14,6.408-1.743,7.482-1.743,7.482s10.915,2.359,17.178-.472a35.495,35.495,0,0,1-2.424-9.5,18.108,18.108,0,0,0-3.486-8.727Z" transform="translate(-97.585 -53.249)" fill="#422d96"/>
        <path id="Trazado_162007" data-name="Trazado 162007" d="M228.354,121.228c.2.28.555,1.029-.269,1.343-1.325.5-6.177-1.312-6.625-1.9s-.134-.9,1.218-.831,4.783.129,5.677,1.392" transform="translate(-93.367 -50.563)" fill="#7cafd1"/>
        <path id="Trazado_162008" data-name="Trazado 162008" d="M220.421,119.228c.247.155.138.955-.33,1.061a4.676,4.676,0,0,1-2.5-.483c-.178-.314.451-.984,1.79-.784,0,0-.721-.354-.4-.573.155-.105.648.285,1.435.779" transform="translate(-91.804 -49.973)" fill="#fd5c54"/>
        <path id="Trazado_162009" data-name="Trazado 162009" d="M232.585,118.394c1.265-.928,5.2-3.938,6.107-5.616a1.647,1.647,0,0,0-2.137-2.311c-1.2.591-3.936,4.682-4.878,5.945-1.013,1.358-.189,2.788.908,1.983" transform="translate(-97.565 -46.549)" fill="#7cafd1"/>
        <path id="Trazado_162010" data-name="Trazado 162010" d="M246.235,97.338a2.567,2.567,0,0,1,1.553,1.206,3.609,3.609,0,0,1-.947,4.942c-3.912,2.8-.606-6.147-.606-6.147" transform="translate(-103.351 -41.073)" fill="#2a1e6b"/>
        <path id="Trazado_162011" data-name="Trazado 162011" d="M238.884,100.117a3.284,3.284,0,1,0,3.265-3.643,3.47,3.47,0,0,0-3.265,3.643" transform="translate(-100.8 -40.708)" fill="#422d96"/>
        <path id="Trazado_162012" data-name="Trazado 162012" d="M239,116.734a8.048,8.048,0,0,1,.5,1.943,2.586,2.586,0,0,1,0,.8,2.777,2.777,0,0,0,2.225,1.362,4.776,4.776,0,0,0,1.812-.26c.22-.072.429-.152.623-.235a4.816,4.816,0,0,0,1.342-.645,8.976,8.976,0,0,1,.334-2.712c.778-2.294,2.331-4.22,1.773-4.834-.766-.843-3.039-1.2-3.039-1.2l-2.018-.613a8.348,8.348,0,0,0-2.656.108c-.36.183-.5.788-.783,1.282a4.572,4.572,0,0,0-.849,2.232,5.662,5.662,0,0,0,.736,2.767" transform="translate(-100.537 -46.536)" fill="#8cc1ed"/>
        <path id="Trazado_162013" data-name="Trazado 162013" d="M243.29,106.895v2.6a1.125,1.125,0,1,0,2.249,0v-2.6a1.125,1.125,0,1,0-2.249,0" transform="translate(-102.659 -44.631)" fill="#fd5c54"/>
        <g id="Grupo_90294" data-name="Grupo 90294" transform="translate(140.631 62.029)" opacity="0.25">
          <g id="Grupo_90293" data-name="Grupo 90293">
            <g id="Grupo_90292" data-name="Grupo 90292" clip-path="url(#clip-path-11)">
              <path id="Trazado_162014" data-name="Trazado 162014" d="M243.29,108.2v1.323c.466-.065,1.912-.366,2.105-1.637.2-1.3-1.579-.073-2.105.314" transform="translate(-243.29 -107.31)"/>
            </g>
          </g>
        </g>
        <path id="Trazado_162015" data-name="Trazado 162015" d="M239.05,101.563c0,1.837,1.207,3.326,2.7,3.326s2.7-1.489,2.7-3.326-1.207-3.326-2.7-3.326-2.7,1.489-2.7,3.326" transform="translate(-100.87 -41.452)" fill="#fd5c54"/>
        <path id="Trazado_162016" data-name="Trazado 162016" d="M247.493,104.887c-.31.538-.264,1.146.1,1.358s.918-.051,1.228-.59.264-1.146-.1-1.358-.918.051-1.228.59" transform="translate(-104.346 -43.979)" fill="#fd5c54"/>
        <path id="Trazado_162017" data-name="Trazado 162017" d="M250.9,127.888c.342.02,1.151.208.882,1.048-.432,1.351-4.877,4.011-5.62,3.993s-.784-.455.11-1.47,3.084-3.659,4.628-3.571" transform="translate(-103.635 -53.963)" fill="#7cafd1"/>
        <path id="Trazado_162018" data-name="Trazado 162018" d="M244.836,134.977c.276-.1.832.487.624.92s-1.576,1.707-1.934,1.65-.488-.966.5-1.888c0,0-.725.343-.7-.044.014-.188.627-.33,1.5-.637" transform="translate(-102.647 -56.951)" fill="#fd5c54"/>
        <path id="Trazado_162019" data-name="Trazado 162019" d="M253.652,122.3c.063-1.568.161-6.518-.583-8.276a1.646,1.646,0,0,0-3.139.23c-.289,1.31,1.206,6,1.606,7.52.43,1.638,2.061,1.886,2.116.526" transform="translate(-105.445 -47.667)" fill="#7cafd1"/>
      </g>
    </g>
  </g>
</svg>
