<svg xmlns="http://www.w3.org/2000/svg" xmlns:xlink="http://www.w3.org/1999/xlink" width="270" height="229.803" viewBox="0 0 270 229.803">
  <defs>
    <clipPath id="clip-path">
      <rect id="Rectángulo_10481" data-name="Rectángulo 10481" width="270" height="227.135" fill="#bceaff"/>
    </clipPath>
  </defs>
  <g id="Grupo_90360" data-name="Grupo 90360" transform="translate(-353 -2382.332)">
    <g id="Grupo_88458" data-name="Grupo 88458" transform="translate(353 2385)">
      <g id="Grupo_88457" data-name="Grupo 88457" clip-path="url(#clip-path)">
        <path id="Trazado_157508" data-name="Trazado 157508" d="M17.313,44.083A105.09,105.09,0,0,0,1.57,83.5c-9.959,56.849,28.839,102.649,77.507,125.748,25.215,11.968,53.1,18.983,80.982,17.752s55.727-11.065,76.6-29.592,34.173-46.027,33.3-73.925-16.816-55.4-41.717-68.013C206.7,44.561,181.017,45.094,158.736,35.8A122.718,122.718,0,0,1,130.363,19.03c-18.558-14.5-37.638-24.3-61.419-15.97-21.287,7.46-39.353,22.326-51.631,41.023" transform="translate(0 0)" fill="#bceaff"/>
      </g>
    </g>
    <g id="Grupo_87245" data-name="Grupo 87245" transform="translate(3719.824 8030.115)">
      <g id="Grupo_87243" data-name="Grupo 87243" transform="translate(-3321 -5507.371)">
        <g id="Grupo_87000" data-name="Grupo 87000" transform="translate(51.275)" opacity="0.74">
          <path id="Trazado_152956" data-name="Trazado 152956" d="M2789.39,853.728l-.907-.5a1.782,1.782,0,0,1-.919-1.584c0-.074,0-.148,0-.222s0-.148,0-.222a1.783,1.783,0,0,1,.919-1.584l.907-.5a1.791,1.791,0,0,0,.86-2.026c0-.008,0-.018-.008-.027a1.788,1.788,0,0,0-1.755-1.324l-1.04.017a1.8,1.8,0,0,1-1.6-.932c-.066-.114-.131-.228-.2-.341a1.8,1.8,0,0,1-.012-1.855l.533-.885a1.79,1.79,0,0,0-.269-2.184l-.022-.022a1.789,1.789,0,0,0-2.184-.269l-.885.533a1.8,1.8,0,0,1-1.855-.012l-.341-.2a1.8,1.8,0,0,1-.932-1.6l.017-1.04a1.788,1.788,0,0,0-1.323-1.755l-.027-.008a1.792,1.792,0,0,0-2.026.86l-.5.907a1.782,1.782,0,0,1-1.584.919c-.074,0-.148,0-.222,0s-.148,0-.222,0a1.782,1.782,0,0,1-1.584-.919l-.5-.907a1.791,1.791,0,0,0-2.026-.86l-.027.008a1.788,1.788,0,0,0-1.324,1.755l.017,1.04a1.8,1.8,0,0,1-.932,1.6l-.342.2a1.8,1.8,0,0,1-1.854.012l-.885-.533a1.789,1.789,0,0,0-2.184.269l-.022.022a1.789,1.789,0,0,0-.269,2.184l.533.885a1.8,1.8,0,0,1-.012,1.855c-.066.113-.131.227-.2.341a1.8,1.8,0,0,1-1.6.932l-1.04-.017a1.788,1.788,0,0,0-1.756,1.324c0,.008-.005.019-.008.027a1.791,1.791,0,0,0,.86,2.026l.907.5a1.782,1.782,0,0,1,.919,1.584c0,.074,0,.148,0,.222s0,.148,0,.222a1.782,1.782,0,0,1-.919,1.584l-.907.5a1.79,1.79,0,0,0-.86,2.026c0,.008,0,.018.008.027a1.788,1.788,0,0,0,1.756,1.324l1.04-.017a1.8,1.8,0,0,1,1.6.932c.065.114.131.228.2.341a1.8,1.8,0,0,1,.012,1.855l-.533.885a1.788,1.788,0,0,0,.269,2.184l.022.022a1.789,1.789,0,0,0,2.184.269l.885-.532a1.8,1.8,0,0,1,1.854.012l.342.2a1.8,1.8,0,0,1,.932,1.6l-.017,1.04a1.788,1.788,0,0,0,1.324,1.756l.027.008a1.791,1.791,0,0,0,2.026-.86l.5-.907a1.782,1.782,0,0,1,1.584-.919c.074,0,.148,0,.222,0s.148,0,.222,0a1.782,1.782,0,0,1,1.584.919l.5.907a1.792,1.792,0,0,0,2.026.86l.027-.008a1.788,1.788,0,0,0,1.323-1.756l-.017-1.04a1.8,1.8,0,0,1,.932-1.6l.341-.2a1.8,1.8,0,0,1,1.855-.012l.885.532a1.79,1.79,0,0,0,2.184-.269l.022-.022a1.789,1.789,0,0,0,.269-2.184l-.533-.885a1.8,1.8,0,0,1,.012-1.855c.066-.113.131-.227.2-.341a1.8,1.8,0,0,1,1.6-.932l1.04.017a1.788,1.788,0,0,0,1.755-1.324c0-.008.005-.019.008-.027A1.791,1.791,0,0,0,2789.39,853.728Zm-15.375,7.77a10.08,10.08,0,1,1,10.08-10.08A10.079,10.079,0,0,1,2774.014,861.5Z" transform="translate(-2757.719 -835.122)" fill="#856de9"/>
          <circle id="Elipse_8392" data-name="Elipse 8392" cx="4.55" cy="4.55" r="4.55" transform="translate(11.746 11.83)" fill="#856de9"/>
        </g>
        <g id="Grupo_87002" data-name="Grupo 87002" transform="translate(0 19.132)">
          <path id="Trazado_152957" data-name="Trazado 152957" d="M2641.661,933.952s-7.142-14.6-21.518-10.108c0,0-4.736-16.943-17.147-16.142s-18.341,14.06-18.341,14.06-18.073-6.836-21.385,11.655Z" transform="translate(-2563.27 -907.675)" fill="#d6ece0"/>
          <g id="Grupo_87001" data-name="Grupo 87001" transform="translate(9.313 7.8)">
            <path id="Trazado_152958" data-name="Trazado 152958" d="M2699.679,955.289l-.433-.061a25.568,25.568,0,0,0-4.15-17.71l.347-.266A26.054,26.054,0,0,1,2699.679,955.289Z" transform="translate(-2669.647 -937.253)" fill="#93deb4"/>
            <path id="Trazado_152959" data-name="Trazado 152959" d="M2712.261,949.232l-.353-.258c.051-.07,5.1-7.01,5.96-11.378l.429.085C2717.414,942.144,2712.471,948.944,2712.261,949.232Z" transform="translate(-2682.026 -937.506)" fill="#93deb4"/>
            <path id="Trazado_152960" data-name="Trazado 152960" d="M2691.481,980.5c-3.913-.245-7.381-4.885-7.526-5.083l.352-.26c.035.047,3.493,4.674,7.2,4.906Z" transform="translate(-2661.444 -965.162)" fill="#93deb4"/>
            <path id="Trazado_152961" data-name="Trazado 152961" d="M2760.962,989.464l.587-.421c.068-.049,6.878-4.876,14.169-5.215l.02.436c-5.883.274-11.461,3.532-13.3,4.711l7.266-.253.015.437Z" transform="translate(-2718.145 -971.546)" fill="#93deb4"/>
            <path id="Trazado_152962" data-name="Trazado 152962" d="M2780.315,976.37l-.413-.142a26.846,26.846,0,0,1,3.582-6.48l.346.267A26.349,26.349,0,0,0,2780.315,976.37Z" transform="translate(-2732.09 -961.18)" fill="#93deb4"/>
            <path id="Trazado_152963" data-name="Trazado 152963" d="M2620.286,985.42a41.788,41.788,0,0,0-11.264-6.568l.145-.412a42.253,42.253,0,0,1,11.4,6.647Z" transform="translate(-2606.271 -967.578)" fill="#93deb4"/>
            <path id="Trazado_152964" data-name="Trazado 152964" d="M2598.787,994.39l-.2-.388c.155-.08,3.868-1.94,10.713-.988l-.061.433C2602.546,992.515,2598.825,994.371,2598.787,994.39Z" transform="translate(-2598.588 -978.111)" fill="#93deb4"/>
          </g>
        </g>
        <g id="Grupo_87003" data-name="Grupo 87003" transform="translate(159.853 6.259)">
          <path id="Trazado_152965" data-name="Trazado 152965" d="M3169.469,889.834s.143-13.24,10.686-21.076,19.092-8.264,20.445-9.688,1.293,4.77,1.221,7.192.406,10.61-4.57,18.592-20.8,8.41-20.8,8.41Z" transform="translate(-3169.469 -858.86)" fill="#f0ebf7"/>
          <path id="Trazado_152966" data-name="Trazado 152966" d="M3192.436,889.031a.175.175,0,0,1-.145-.272,67.209,67.209,0,0,1,10.545-11.9,80.52,80.52,0,0,1,8.578-6.315c2.4-1.593,4.139-2.744,4.67-3.694a.175.175,0,1,1,.305.171c-.572,1.024-2.338,2.195-4.782,3.815a80.194,80.194,0,0,0-8.542,6.288,66.858,66.858,0,0,0-10.483,11.827A.175.175,0,0,1,3192.436,889.031Z" transform="translate(-3186.251 -864.679)" fill="#cbc0e0"/>
          <path id="Trazado_152967" data-name="Trazado 152967" d="M3224.5,921.578a45.994,45.994,0,0,1-8.314-.781.175.175,0,1,1,.071-.343c.084.018,8.483,1.733,15.128,0a.175.175,0,1,1,.087.338A28.153,28.153,0,0,1,3224.5,921.578Z" transform="translate(-3203.761 -904.209)" fill="#cbc0e0"/>
          <path id="Trazado_152968" data-name="Trazado 152968" d="M3252.011,893.72a39.222,39.222,0,0,1-4.774-.33.175.175,0,1,1,.048-.347c.053.007,5.3.72,8.053,0a.175.175,0,1,1,.088.338A14.315,14.315,0,0,1,3252.011,893.72Z" transform="translate(-3226.618 -884.028)" fill="#cbc0e0"/>
          <path id="Trazado_152969" data-name="Trazado 152969" d="M3207.008,946.687a67.387,67.387,0,0,1-11.014-1.548.175.175,0,0,1,.075-.342c.1.022,9.982,2.189,12.84,1.345a.175.175,0,1,1,.1.335A7.479,7.479,0,0,1,3207.008,946.687Z" transform="translate(-3188.899 -922.133)" fill="#cbc0e0"/>
          <path id="Trazado_152970" data-name="Trazado 152970" d="M3201.866,913.323a.175.175,0,0,1-.169-.133,18.627,18.627,0,0,1,0-8.162.175.175,0,0,1,.338.092,18.25,18.25,0,0,0,0,7.986.175.175,0,0,1-.127.212A.182.182,0,0,1,3201.866,913.323Z" transform="translate(-3192.853 -892.758)" fill="#cbc0e0"/>
          <path id="Trazado_152971" data-name="Trazado 152971" d="M3228.461,890.9h0a.175.175,0,0,1-.172-.178,22.772,22.772,0,0,1,1.026-6.424.175.175,0,0,1,.326.126,22.9,22.9,0,0,0-1,6.3A.175.175,0,0,1,3228.461,890.9Z" transform="translate(-3212.776 -877.509)" fill="#cbc0e0"/>
        </g>
        <g id="Grupo_87005" data-name="Grupo 87005" transform="translate(112.479 18.584)">
          <path id="Trazado_152972" data-name="Trazado 152972" d="M3068.208,931.873s.033-19.681-21.518-10.107c0,0-4.736-16.943-17.147-16.142s-13.612,16.833-13.612,16.833-17-8.64-26.114,8.883Z" transform="translate(-2989.817 -905.596)" fill="#d6ece0"/>
          <g id="Grupo_87004" data-name="Grupo 87004" transform="translate(9.313 7.8)">
            <path id="Trazado_152973" data-name="Trazado 152973" d="M3126.226,953.211l-.432-.061a25.572,25.572,0,0,0-4.151-17.71l.346-.266A26.05,26.05,0,0,1,3126.226,953.211Z" transform="translate(-3096.194 -935.175)" fill="#93deb4"/>
            <path id="Trazado_152974" data-name="Trazado 152974" d="M3138.808,947.154l-.353-.258c.051-.07,5.1-7.01,5.96-11.378l.428.085C3143.961,940.066,3139.018,946.866,3138.808,947.154Z" transform="translate(-3108.573 -935.427)" fill="#93deb4"/>
            <path id="Trazado_152975" data-name="Trazado 152975" d="M3118.028,978.422c-3.913-.245-7.381-4.885-7.526-5.083l.352-.26c.035.047,3.493,4.674,7.2,4.906Z" transform="translate(-3087.991 -963.085)" fill="#93deb4"/>
            <path id="Trazado_152976" data-name="Trazado 152976" d="M3187.509,987.386l.587-.421c.068-.049,6.878-4.876,14.169-5.215l.02.436c-5.882.274-11.461,3.532-13.3,4.711l7.266-.253.015.437Z" transform="translate(-3144.691 -969.468)" fill="#93deb4"/>
            <path id="Trazado_152977" data-name="Trazado 152977" d="M3206.862,974.292l-.414-.142a26.861,26.861,0,0,1,3.583-6.48l.346.267A26.347,26.347,0,0,0,3206.862,974.292Z" transform="translate(-3158.636 -959.102)" fill="#93deb4"/>
            <path id="Trazado_152978" data-name="Trazado 152978" d="M3046.833,983.342a41.786,41.786,0,0,0-11.264-6.568l.145-.412a42.242,42.242,0,0,1,11.4,6.647Z" transform="translate(-3032.817 -965.5)" fill="#93deb4"/>
            <path id="Trazado_152979" data-name="Trazado 152979" d="M3025.334,992.312l-.2-.388c.155-.08,3.868-1.94,10.713-.988l-.06.433C3029.093,990.437,3025.372,992.293,3025.334,992.312Z" transform="translate(-3025.135 -976.033)" fill="#93deb4"/>
          </g>
        </g>
        <rect id="Rectángulo_8067" data-name="Rectángulo 8067" width="201.176" height="0.845" transform="translate(0 44.382)" fill="#3a3e49"/>
        <g id="Grupo_87007" data-name="Grupo 87007" transform="translate(82.284 23.558)" opacity="0.74">
          <path id="Trazado_152982" data-name="Trazado 152982" d="M2893.121,934.922l-.51-.283a1,1,0,0,1-.517-.891c0-.041,0-.083,0-.124s0-.083,0-.125a1,1,0,0,1,.517-.891l.51-.284a1.008,1.008,0,0,0,.484-1.139s0-.011-.005-.015a1,1,0,0,0-.987-.745l-.585.01a1.012,1.012,0,0,1-.9-.524c-.037-.064-.074-.129-.111-.192a1.012,1.012,0,0,1-.006-1.043l.3-.5a1.006,1.006,0,0,0-.152-1.228l-.012-.012a1.006,1.006,0,0,0-1.228-.151l-.5.3a1.013,1.013,0,0,1-1.043-.007l-.192-.11a1.013,1.013,0,0,1-.525-.9l.01-.585a1.006,1.006,0,0,0-.745-.987l-.015,0a1.008,1.008,0,0,0-1.14.484l-.283.51a1,1,0,0,1-.891.517l-.125,0-.125,0a1,1,0,0,1-.891-.517l-.283-.51a1.008,1.008,0,0,0-1.139-.484l-.015,0a1.006,1.006,0,0,0-.745.987l.01.585a1.011,1.011,0,0,1-.524.9l-.192.11a1.013,1.013,0,0,1-1.043.007l-.5-.3a1,1,0,0,0-1.228.151l-.012.012a1.006,1.006,0,0,0-.151,1.228l.3.5a1.012,1.012,0,0,1-.006,1.043l-.111.192a1.012,1.012,0,0,1-.9.524l-.585-.01a1,1,0,0,0-.987.745s0,.01-.005.015a1.008,1.008,0,0,0,.484,1.139l.51.284a1,1,0,0,1,.517.891c0,.041,0,.083,0,.125s0,.083,0,.124a1,1,0,0,1-.517.891l-.51.283a1.008,1.008,0,0,0-.484,1.139s0,.01.005.015a1,1,0,0,0,.987.744l.585-.01a1.012,1.012,0,0,1,.9.524l.111.192a1.012,1.012,0,0,1,.006,1.043l-.3.5a1.006,1.006,0,0,0,.151,1.228l.012.012a1,1,0,0,0,1.228.151l.5-.3a1.013,1.013,0,0,1,1.043.006l.192.11a1.011,1.011,0,0,1,.524.9l-.01.585a1.006,1.006,0,0,0,.745.987l.015,0a1.008,1.008,0,0,0,1.139-.484l.283-.51a1,1,0,0,1,.891-.517l.125,0,.125,0a1,1,0,0,1,.891.517l.283.51a1.008,1.008,0,0,0,1.14.484l.015,0a1.006,1.006,0,0,0,.745-.987l-.01-.585a1.013,1.013,0,0,1,.525-.9l.192-.11a1.013,1.013,0,0,1,1.043-.006l.5.3a1.006,1.006,0,0,0,1.228-.151l.012-.012a1.006,1.006,0,0,0,.152-1.228l-.3-.5a1.012,1.012,0,0,1,.006-1.043c.037-.063.074-.128.111-.192a1.012,1.012,0,0,1,.9-.524l.585.01a1,1,0,0,0,.987-.744s0-.011.005-.015A1.008,1.008,0,0,0,2893.121,934.922Zm-8.646,4.369a5.669,5.669,0,1,1,5.669-5.668A5.668,5.668,0,0,1,2884.474,939.291Z" transform="translate(-2875.31 -924.459)" fill="#856de9"/>
        </g>
      </g>
      <g id="Grupo_87244" data-name="Grupo 87244" transform="translate(-3307.787 -5647.784)">
        <path id="Trazado_152946" data-name="Trazado 152946" d="M3035.375,657.256a10.315,10.315,0,0,1,11.421-4.239c4.962,1.177,7-6.089,11.111-7.687,7.534-2.93,11.906,11.65,20.223,7.576,5.5-2.694,12.129,4.35,12.129,4.35Z" transform="translate(-2916.389 -538.261)" fill="#856de9" opacity="0.19"/>
        <path id="Trazado_152947" data-name="Trazado 152947" d="M3055.542,432.26l.137,8.36.022,1.425-7.069-.654.462-2.966h0l1.006-6.438a21.388,21.388,0,0,1-1.706-3.456c-.734-1.924-1.466-4.172-1.879-5.407s.823-.825,1.648.732,1.833,2.647,2.385,2.2,1.1-4.808,1.329-6.778.137-4.491,1.007-4.628.78,5.362.826,6.552c0,0,1.375.046,1.557,1.01,0,0,1.329-.23,1.65.917,0,0,1.053-.23,1.146,1.512S3057.054,431.253,3055.542,432.26Z" transform="translate(-2924.534 -368.693)" fill="#f6a49d"/>
        <path id="Trazado_152948" data-name="Trazado 152948" d="M3061.831,508.451l-7.069-.654.462-2.966h0a16.04,16.04,0,0,1,6.582,2.2Z" transform="translate(-2930.664 -435.1)" fill="#d47c74"/>
        <rect id="Rectángulo_8066" data-name="Rectángulo 8066" width="53.538" height="109.774" rx="1" transform="translate(55.892 40.491)" fill="#18b6fe"/>
        <path id="Trazado_152949" data-name="Trazado 152949" d="M2861.321,406.75V511.391a2.566,2.566,0,0,1-2.565,2.567h-48.408a2.566,2.566,0,0,1-2.564-2.567V406.75a2.566,2.566,0,0,1,2.564-2.567h48.408A2.566,2.566,0,0,1,2861.321,406.75Z" transform="translate(-2748.813 -360.992)" fill="#e5e7e6"/>
        <path id="Trazado_152950" data-name="Trazado 152950" d="M2837.467,465.542a36.461,36.461,0,1,0-40.483,36.239l2.8,8.1a1.288,1.288,0,0,0,2.435,0l2.8-8.1A36.464,36.464,0,0,0,2837.467,465.542Z" transform="translate(-2716.977 -379.324)" fill="#87d9ff"/>
        <path id="Trazado_152951" data-name="Trazado 152951" d="M2849.138,468.135a36.461,36.461,0,1,0-40.483,36.239l2.8,8.1a1.289,1.289,0,0,0,2.435,0l2.8-8.1A36.464,36.464,0,0,0,2849.138,468.135Z" transform="translate(-2725.57 -381.234)" fill="#fff"/>
        <path id="Trazado_152952" data-name="Trazado 152952" d="M2849.138,468.135a36.461,36.461,0,1,0-40.483,36.239l2.8,8.1a1.289,1.289,0,0,0,2.435,0l2.8-8.1A36.464,36.464,0,0,0,2849.138,468.135Z" transform="translate(-2725.57 -381.234)" fill="#f0ebf7" opacity="0.52"/>
        <path id="Trazado_152953" data-name="Trazado 152953" d="M2830.986,447.641s3.572-.608,4.1-5.7-3.5-6.991-5.775-8.891a7.061,7.061,0,0,0-7.219-1.6,5.335,5.335,0,0,0-6.839-3.953c-4.826,1.157-3.951,8.209-.76,7.981,0,0-5.4,2.28-6,10.259s-1.826,10.181-10.2,10.865c-6.87.561-10.014,9.8-5.7,13.982,3.739,3.622-.591,13.148,11.492,15.656s18.162-19.606,18.162-19.606Z" transform="translate(-2736.175 -377.997)" fill="#3a3e49"/>
        <path id="Trazado_152954" data-name="Trazado 152954" d="M2830.77,504.831a7.857,7.857,0,0,0-2.424,6.9c.514,4.559-3.209,6.839-7.92,8.131s-8.967,4.408-6.991,9.575-.3,10.183,5.928,12.842,24.317-7.946,24.393-9.1-3.718-23.193-3.455-23.422-4.068-3.785-4.068-3.785Z" transform="translate(-2752.608 -435.1)" fill="#24292f"/>
        <path id="Trazado_152955" data-name="Trazado 152955" d="M2861.321,782.05v7.566a2.566,2.566,0,0,1-2.565,2.567h-48.408a2.566,2.566,0,0,1-2.564-2.567V782.05Z" transform="translate(-2748.813 -639.217)" fill="#87d9ff"/>
        <path id="Trazado_152980" data-name="Trazado 152980" d="M2584.154,445.6a8.312,8.312,0,0,1,9.2-3.415c4,.948,5.641-4.907,8.953-6.194,6.071-2.361,9.594,9.388,16.3,6.1,4.431-2.171,9.773,3.505,9.773,3.505Z" transform="translate(-2584.154 -384.182)" fill="#856de9" opacity="0.19"/>
        <g id="Grupo_87006" data-name="Grupo 87006" transform="translate(152.602 52.85)">
          <path id="Trazado_152981" data-name="Trazado 152981" d="M3183.989,440.811h-20.022a1.111,1.111,0,0,0-1.111,1.111v7.8a1.111,1.111,0,0,0,1.111,1.111h9.734a1.111,1.111,0,0,1,.559.151l7.166,4.169a.407.407,0,0,0,.566-.54l-1.123-2.155a1.111,1.111,0,0,1,.985-1.624h2.135a1.111,1.111,0,0,0,1.111-1.111v-7.8A1.111,1.111,0,0,0,3183.989,440.811Z" transform="translate(-3162.855 -440.811)" fill="#d07efc"/>
          <rect id="Rectángulo_8068" data-name="Rectángulo 8068" width="13.638" height="0.988" transform="translate(3.64 2.622)" fill="#fff"/>
          <rect id="Rectángulo_8069" data-name="Rectángulo 8069" width="13.638" height="0.988" transform="translate(3.64 5.623)" fill="#fff"/>
        </g>
        <path id="Trazado_152983" data-name="Trazado 152983" d="M2883.558,501.346l-.635-.686s-3.126-1.936-4.495,1.484,4.1,5.7,5.129,4.73S2883.558,501.346,2883.558,501.346Z" transform="translate(-2800.669 -431.627)" fill="#f6a49d"/>
        <path id="Trazado_152984" data-name="Trazado 152984" d="M2903.375,532.443a7.554,7.554,0,0,1-3.859,2.991c-5.681,2.341-15.122,2.009-18.179,2.645a3.935,3.935,0,0,0-2.505,1.48h0c-1.231,1.669-.976,4.391-.9,7.11a15.084,15.084,0,0,1-1.756,7.665,6.049,6.049,0,0,1-2.82,2.654c-3.306,1.368-11.854,2.166-18.922,0-3.135-.96-6.062-5.5-8.152-10.551-2.626-6.347-3.93-13.514-2.66-15.461,1.666-2.556,6.4-3.912,8.825-4.457.894-.2,1.473-.292,1.473-.292l2.469.951,9.8-1.178s2.159.05,4.748.1c2.681.052,5.827.107,7.51.107,3.306,0,15.162.173,16.416-.438s4.279-15.1,4.279-15.1c2.052-.456,6.839.912,6.839.912S2906.567,526.821,2903.375,532.443Z" transform="translate(-2774.841 -439.333)" fill="#856de9"/>
        <path id="Trazado_152985" data-name="Trazado 152985" d="M2896.948,569.151c-.05,2.806.048,10.273-5.9,11.516-6.071,1.27-11.234-7.861-12.589-11.1.893-.2,1.472-.292,1.472-.292l2.469.951,9.8-1.178S2894.359,569.1,2896.948,569.151Z" transform="translate(-2800.852 -482.383)" fill="#fff"/>
        <path id="Trazado_152986" data-name="Trazado 152986" d="M2884.977,635.245a6.046,6.046,0,0,1-2.82,2.654c-3.305,1.368-11.854,2.166-18.922,0-3.135-.96-6.062-5.5-8.152-10.551,1.618-3.458,3.251-6.878,3.251-6.878s1.71,13.154,10.373,15.431A29.1,29.1,0,0,0,2884.977,635.245Z" transform="translate(-2783.639 -520.245)" fill="#5c43c7"/>
        <circle id="Elipse_8393" data-name="Elipse 8393" cx="3.93" cy="3.93" r="3.93" transform="translate(81.011 150.836) rotate(-76.718)" fill="#f4faf8"/>
        <circle id="Elipse_8394" data-name="Elipse 8394" cx="2.932" cy="2.932" r="2.932" transform="matrix(0.23, -0.973, 0.973, 0.23, 82.212, 150.094)" fill="#7dd0e2"/>
        <path id="Trazado_152987" data-name="Trazado 152987" d="M2837.744,582.337c-2.39.315-6.286,1.871-6.155,18.3a10.316,10.316,0,0,0,9.119,7.174s1.368-16.642,1.368-20.176S2839.283,582.134,2837.744,582.337Z" transform="translate(-2766.338 -492.157)" fill="#856de9"/>
        <path id="Trazado_153231" data-name="Trazado 153231" d="M2895.367,568.184l4.408.3s-.152,10.124-5.424,10.107c-6.914-.022-10.307-9.955-10.307-9.955l2.47-.418Z" transform="translate(-2804.964 -481.746)" fill="#f6a49d"/>
        <path id="Trazado_153232" data-name="Trazado 153232" d="M2903.9,524.217v7.067a4.6,4.6,0,0,1-4.959,2.793,7.563,7.563,0,0,1-5.528-3.306l.856-13.45Z" transform="translate(-2811.86 -444.296)" fill="#f6a49d"/>
        <path id="Trazado_153233" data-name="Trazado 153233" d="M2908.91,535.577c-5.118-.264-8.69-7.662-8.69-7.662l2.829-.356,5.862,4.009Z" transform="translate(-2816.874 -451.834)" fill="#d47c74"/>
        <path id="Trazado_153234" data-name="Trazado 153234" d="M2909.9,475.1a60.777,60.777,0,0,1-1.157,10.143c-.928,3.574-2.45,6.326-6.5,4.844a12.35,12.35,0,0,1-6.537-6.324l-.57-5.927s9.518-4.331,10.43-8.492C2905.57,469.34,2907.166,473.443,2909.9,475.1Z" transform="translate(-2813.134 -408.967)" fill="#f6a49d"/>
        <path id="Trazado_153235" data-name="Trazado 153235" d="M2888.721,509.87s-1.063-3.306-2.166-2.888S2886.327,509.034,2888.721,509.87Z" transform="translate(-2806.466 -436.656)" fill="#d47c74"/>
        <path id="Trazado_153236" data-name="Trazado 153236" d="M2999.189,604.822v0c-5.681,2.341-15.122,2.009-18.179,2.645a3.933,3.933,0,0,0-2.505,1.48h0s.608-3.937,6.458-3.582A105.74,105.74,0,0,0,2999.189,604.822Z" transform="translate(-2874.514 -508.723)" fill="#5c43c7"/>
        <g id="Grupo_87216" data-name="Grupo 87216" transform="translate(85.941 67.082)">
          <g id="Grupo_87214" data-name="Grupo 87214" transform="translate(6.613 0)">
            <path id="Trazado_153237" data-name="Trazado 153237" d="M2941.4,498.721a2.592,2.592,0,1,0-.518,1.31A2.559,2.559,0,0,0,2941.4,498.721Z" transform="translate(-2935.944 -495.587)" fill="#fff" opacity="0.3"/>
            <path id="Trazado_153238" data-name="Trazado 153238" d="M2942.62,498.721a2.589,2.589,0,0,0-4.724-1.7c1.32.923,2.991,2.131,4.208,3.011A2.562,2.562,0,0,0,2942.62,498.721Z" transform="translate(-2937.169 -495.587)" fill="#fff" opacity="0.47"/>
            <path id="Trazado_153239" data-name="Trazado 153239" d="M2940.878,497.946a2.875,2.875,0,1,0-3.147,2.575A2.877,2.877,0,0,0,2940.878,497.946Zm-.35-.035a2.523,2.523,0,1,1-2.26-2.762A2.524,2.524,0,0,1,2940.528,497.911Z" transform="translate(-2935.141 -494.784)" fill="#24292f"/>
          </g>
          <g id="Grupo_87215" data-name="Grupo 87215" transform="translate(0 0.196)">
            <path id="Trazado_153240" data-name="Trazado 153240" d="M2916.315,499.466a2.59,2.59,0,1,0-.517,1.31A2.553,2.553,0,0,0,2916.315,499.466Z" transform="translate(-2910.865 -496.333)" fill="#fff" opacity="0.3"/>
            <path id="Trazado_153241" data-name="Trazado 153241" d="M2917.541,499.466a2.589,2.589,0,0,0-4.725-1.7c1.32.923,2.991,2.131,4.208,3.011A2.553,2.553,0,0,0,2917.541,499.466Z" transform="translate(-2912.09 -496.333)" fill="#fff" opacity="0.47"/>
            <path id="Trazado_153242" data-name="Trazado 153242" d="M2915.8,498.691a2.876,2.876,0,1,0-3.148,2.575A2.878,2.878,0,0,0,2915.8,498.691Zm-.351-.035a2.523,2.523,0,1,1-2.259-2.762A2.524,2.524,0,0,1,2915.449,498.656Z" transform="translate(-2910.062 -495.529)" fill="#24292f"/>
          </g>
        </g>
        <g id="Grupo_87217" data-name="Grupo 87217" transform="translate(25.523 34.434)">
          <path id="Trazado_153243" data-name="Trazado 153243" d="M2812.046,412.989v5.921a.917.917,0,0,1-1.555.658l-6.78-6.578Z" transform="translate(-2771.338 -401.91)" fill="#7dd0e2"/>
          <rect id="Rectángulo_8070" data-name="Rectángulo 8070" width="46.882" height="14.094" rx="1" transform="translate(0 0)" fill="#7dd0e2"/>
          <rect id="Rectángulo_8071" data-name="Rectángulo 8071" width="46.882" height="11.869" rx="2" transform="translate(2.001 0.636)" fill="#fff"/>
          <circle id="Elipse_8395" data-name="Elipse 8395" cx="4.577" cy="4.577" r="4.577" transform="translate(5.396 1.924)" fill="#c2e7f0"/>
          <rect id="Rectángulo_8072" data-name="Rectángulo 8072" width="24.773" height="1.203" rx="0.602" transform="translate(19.022 3.027)" fill="#c2e7f0"/>
          <path id="Trazado_153244" data-name="Trazado 153244" d="M2777.25,393.35h-23.57a.6.6,0,0,0-.6.6h0a.6.6,0,0,0,.6.6h23.57a.6.6,0,0,0,.6-.6h0A.6.6,0,0,0,2777.25,393.35Z" transform="translate(-2734.056 -387.45)" fill="#c2e7f0"/>
          <rect id="Rectángulo_8073" data-name="Rectángulo 8073" width="10.73" height="1.203" rx="0.602" transform="translate(19.022 8.813)" fill="#c2e7f0"/>
          <path id="Trazado_153245" data-name="Trazado 153245" d="M2819.635,412.989v5.921a.917.917,0,0,1-1.555.658l-6.779-6.578Z" transform="translate(-2776.926 -401.91)" fill="#fff"/>
        </g>
        <g id="Grupo_87218" data-name="Grupo 87218" transform="translate(89.286 75.475)">
          <path id="Trazado_153246" data-name="Trazado 153246" d="M2925.659,526.731a7.693,7.693,0,0,0-2.6.079.409.409,0,0,0-.227.648,3.383,3.383,0,0,0,5.8-.1.409.409,0,0,0-.248-.641,7.7,7.7,0,0,0-2.6.008A.391.391,0,0,1,2925.659,526.731Z" transform="translate(-2922.747 -526.611)" fill="#db6592"/>
          <path id="Trazado_153247" data-name="Trazado 153247" d="M2923.87,528.284a16.369,16.369,0,0,0,5.021-.053.187.187,0,0,1,.151.331,4.227,4.227,0,0,1-5.3.06A.187.187,0,0,1,2923.87,528.284Z" transform="translate(-2923.418 -527.8)" fill="#fff"/>
        </g>
        <g id="Grupo_87219" data-name="Grupo 87219" transform="translate(101.792 137.438)">
          <rect id="Rectángulo_8074" data-name="Rectángulo 8074" width="40.629" height="12.646" rx="1" transform="translate(0)" fill="#d07efc"/>
          <circle id="Elipse_8396" data-name="Elipse 8396" cx="3.192" cy="3.192" r="3.192" transform="translate(2.706 8.696) rotate(-76.717)" fill="#fff"/>
          <rect id="Rectángulo_8075" data-name="Rectángulo 8075" width="24.283" height="0.782" transform="translate(12.785 5.932)" fill="#fff"/>
          <rect id="Rectángulo_8076" data-name="Rectángulo 8076" width="12.816" height="0.782" transform="translate(12.785 8.419)" fill="#fff"/>
          <rect id="Rectángulo_8077" data-name="Rectángulo 8077" width="24.283" height="0.782" transform="translate(12.785 3.529)" fill="#fff"/>
        </g>
        <g id="Grupo_87220" data-name="Grupo 87220" transform="translate(95.246 146.837)">
          <rect id="Rectángulo_8078" data-name="Rectángulo 8078" width="40.629" height="12.646" rx="1" transform="translate(0 0)" fill="#ffc945"/>
          <circle id="Elipse_8397" data-name="Elipse 8397" cx="3.192" cy="3.192" r="3.192" transform="translate(2.706 8.696) rotate(-76.717)" fill="#fff"/>
          <rect id="Rectángulo_8079" data-name="Rectángulo 8079" width="24.283" height="0.782" transform="translate(12.785 5.932)" fill="#fff"/>
          <rect id="Rectángulo_8080" data-name="Rectángulo 8080" width="12.816" height="0.782" transform="translate(12.785 8.419)" fill="#fff"/>
          <rect id="Rectángulo_8081" data-name="Rectángulo 8081" width="24.283" height="0.782" transform="translate(12.785 3.529)" fill="#fff"/>
        </g>
        <path id="Trazado_153248" data-name="Trazado 153248" d="M2903.62,529.158c-8.384,0-10.5-3.579-10.586-3.732l.2-.112c.021.036,2.152,3.616,10.388,3.616Z" transform="translate(-2811.583 -450.181)" fill="#574780"/>
        <path id="Trazado_153249" data-name="Trazado 153249" d="M2931.808,538.476h-.744a.549.549,0,0,1-.549-.549h0a.549.549,0,0,1,.549-.549h.744a.549.549,0,0,1,.549.549h0A.549.549,0,0,1,2931.808,538.476Z" transform="translate(-2839.18 -459.064)" fill="#24292f"/>
        <path id="Trazado_153250" data-name="Trazado 153250" d="M2888.785,499.889c0,2.217-1.055,4.015-2.357,4.015-.352,0-1.138,0-1.873-.018-1.028-.025-.484-2.38-.484-4,0-1.784-.375-4.014.7-4.014h1.651C2887.73,495.875,2888.785,497.672,2888.785,499.889Z" transform="translate(-2804.879 -428.505)" fill="#574780"/>
        <path id="Trazado_153251" data-name="Trazado 153251" d="M2905.482,452.743a11.491,11.491,0,0,0-10.049-.661,8.008,8.008,0,0,0-5.166,7.479v3.146h-.912v-3.146a8.924,8.924,0,0,1,5.758-8.334,11.948,11.948,0,0,1,8.057-.44A6.508,6.508,0,0,1,2905.482,452.743Z" transform="translate(-2808.874 -394.928)" fill="#574780"/>
        <ellipse id="Elipse_8398" data-name="Elipse 8398" cx="2.357" cy="4.014" rx="2.357" ry="4.014" transform="translate(77.542 67.37)" fill="#745faa"/>
        <g id="Grupo_87225" data-name="Grupo 87225" transform="translate(121.695)">
          <g id="Grupo_87221" data-name="Grupo 87221" transform="translate(6.884 6.759)">
            <circle id="Elipse_8399" data-name="Elipse 8399" cx="4.647" cy="4.647" r="4.647" transform="translate(8.144 29.666)" fill="#8f94a3"/>
            <path id="Trazado_153252" data-name="Trazado 153252" d="M3097.336,278.813a12.765,12.765,0,0,1-5.61,10.581,5.861,5.861,0,0,0-2.516,4.86v4.571h-9.329v-4.65a5.894,5.894,0,0,0-2.6-4.836,12.79,12.79,0,1,1,20.052-10.527Z" transform="translate(-3071.755 -266.023)" fill="#ffc945"/>
            <rect id="Rectángulo_8082" data-name="Rectángulo 8082" width="11.812" height="3.687" rx="1.843" transform="translate(6.885 30.885)" fill="#a7adbf"/>
            <path id="Trazado_153253" data-name="Trazado 153253" d="M3103.26,316.406a31.34,31.34,0,0,1,.008-14.759,4.594,4.594,0,0,1-3.28-.3,114.18,114.18,0,0,1,1.616,15l-.455.018a109.25,109.25,0,0,0-1.681-15.3c-2.372-1.453-3.892-4.644-3.4-5.714.086-.189.369-.6,1.125-.311,1.16.437,2.029,2.764,2.674,5.731l.066.037a4.158,4.158,0,0,0,3.471.336c.128-.456.262-.883.4-1.281,1.361-4,3.4-6.556,4.728-7.245.64-.333.963-.133,1.1.016.544.6-.072,2.382-1.689,4.9a9.515,9.515,0,0,1-4.128,3.927,31.034,31.034,0,0,0-.105,14.847Zm5.89-23.515a.973.973,0,0,0-.412.131c-1.369.712-3.488,3.508-4.772,7.882a9.7,9.7,0,0,0,3.588-3.618c1.863-2.9,1.95-4.11,1.737-4.345A.184.184,0,0,0,3109.15,292.892Zm-12.429,2.5a.229.229,0,0,0-.24.144c-.317.691.775,3.4,2.848,4.886-.6-2.641-1.353-4.6-2.3-4.96A.913.913,0,0,0,3096.721,295.4Z" transform="translate(-3089.588 -285.471)" fill="#fff"/>
            <path id="Trazado_153254" data-name="Trazado 153254" d="M3093.129,273.129A13.176,13.176,0,0,1,3073,284.321a12.79,12.79,0,0,1,19.357-15.634A13.086,13.086,0,0,1,3093.129,273.129Z" transform="translate(-3071.755 -266.023)" fill="#fff" opacity="0.32"/>
          </g>
          <path id="Trazado_153255" data-name="Trazado 153255" d="M3118.851,244.877h0a.5.5,0,0,1-.5-.5V240.9a.5.5,0,0,1,.5-.5h0a.5.5,0,0,1,.5.5v3.476A.5.5,0,0,1,3118.851,244.877Z" transform="translate(-3099.176 -240.392)" fill="#fbd163"/>
          <path id="Trazado_153256" data-name="Trazado 153256" d="M3148.356,254.084h0a.5.5,0,0,1-.185-.69l1.738-3.01a.5.5,0,0,1,.689-.185h0a.5.5,0,0,1,.185.69l-1.738,3.01A.5.5,0,0,1,3148.356,254.084Z" transform="translate(-3121.087 -247.563)" fill="#fbd163"/>
          <path id="Trazado_153257" data-name="Trazado 153257" d="M3084.492,254.084h0a.5.5,0,0,0,.185-.69l-1.738-3.01a.505.505,0,0,0-.69-.185h0a.505.505,0,0,0-.185.69l1.738,3.01A.5.5,0,0,0,3084.492,254.084Z" transform="translate(-3072.412 -247.563)" fill="#fbd163"/>
          <g id="Grupo_87222" data-name="Grupo 87222" transform="translate(0 19.137)">
            <path id="Trazado_153258" data-name="Trazado 153258" d="M3177.86,313.694h0a.505.505,0,0,1,.506-.5l3.476.006a.505.505,0,0,1,.5.506h0a.5.5,0,0,1-.506.5l-3.476-.006A.505.505,0,0,1,3177.86,313.694Z" transform="translate(-3142.996 -313.131)" fill="#fbd163"/>
            <path id="Trazado_153259" data-name="Trazado 153259" d="M3045.648,313.469h0a.5.5,0,0,1,.506-.5l3.476.006a.505.505,0,0,1,.5.506h0a.5.5,0,0,1-.506.5l-3.476-.006A.5.5,0,0,1,3045.648,313.469Z" transform="translate(-3045.648 -312.965)" fill="#fbd163"/>
          </g>
          <g id="Grupo_87223" data-name="Grupo 87223" transform="translate(2.585 9.556)">
            <path id="Trazado_153260" data-name="Trazado 153260" d="M3169.9,343.186h0a.505.505,0,0,1,.69-.184l3.007,1.743a.505.505,0,0,1,.184.69h0a.5.5,0,0,1-.69.184l-3.007-1.743A.505.505,0,0,1,3169.9,343.186Z" transform="translate(-3139.673 -325.451)" fill="#fbd163"/>
            <path id="Trazado_153261" data-name="Trazado 153261" d="M3055.519,276.883h0a.505.505,0,0,1,.69-.184l3.007,1.743a.5.5,0,0,1,.184.69h0a.5.5,0,0,1-.69.184l-3.007-1.743A.505.505,0,0,1,3055.519,276.883Z" transform="translate(-3055.45 -276.632)" fill="#fbd163"/>
          </g>
          <g id="Grupo_87224" data-name="Grupo 87224" transform="translate(2.552 9.613)">
            <path id="Trazado_153262" data-name="Trazado 153262" d="M3170,279.336h0a.5.5,0,0,0,.689.186l3.013-1.733a.5.5,0,0,0,.186-.689h0a.5.5,0,0,0-.689-.186l-3.013,1.733A.5.5,0,0,0,3170,279.336Z" transform="translate(-3139.715 -276.846)" fill="#fbd163"/>
            <path id="Trazado_153263" data-name="Trazado 153263" d="M3055.394,345.248h0a.505.505,0,0,0,.689.186l3.013-1.733a.5.5,0,0,0,.186-.689h0a.5.5,0,0,0-.689-.186l-3.013,1.733A.5.5,0,0,0,3055.394,345.248Z" transform="translate(-3055.327 -325.378)" fill="#fbd163"/>
          </g>
        </g>
        <circle id="Elipse_8400" data-name="Elipse 8400" cx="8.799" cy="8.799" r="8.799" transform="translate(48.144 134.606) rotate(-45)" fill="#c2e7f0"/>
        <circle id="Elipse_8401" data-name="Elipse 8401" cx="8.799" cy="8.799" r="8.799" transform="matrix(0.23, -0.973, 0.973, 0.23, 51.543, 142.967)" fill="#fff"/>
        <g id="Grupo_87227" data-name="Grupo 87227" transform="translate(56.468 131.164)">
          <path id="Trazado_153264" data-name="Trazado 153264" d="M2807.29,751.688a.508.508,0,0,1-.01.718h0c-1.452,1.411-3.3.916-4.707-.536l-2.985-3.072c-1.411-1.452-1.853-3.31-.4-4.721h0a.508.508,0,0,1,.718.01l1.62,1.667a.28.28,0,0,1-.006.4l-.531.517a.734.734,0,0,0-.015,1.038l2.723,2.8a.734.734,0,0,0,1.038.015l.539-.513a.28.28,0,0,1,.394.008Z" transform="translate(-2798.291 -742.316)" fill="#856de9"/>
          <g id="Grupo_87226" data-name="Grupo 87226" transform="translate(5.114)">
            <path id="Trazado_153265" data-name="Trazado 153265" d="M2820.03,751.3h0a.127.127,0,0,1-.122-.132,2.188,2.188,0,0,0-2.1-2.268.127.127,0,0,1,.01-.255,2.443,2.443,0,0,1,2.343,2.533A.128.128,0,0,1,2820.03,751.3Z" transform="translate(-2817.683 -745.782)" fill="#856de9"/>
            <path id="Trazado_153266" data-name="Trazado 153266" d="M2821.752,747.023h-.005a.128.128,0,0,1-.123-.132,3.742,3.742,0,0,0-3.588-3.881.128.128,0,0,1-.123-.132.126.126,0,0,1,.133-.122,4,4,0,0,1,3.833,4.146A.127.127,0,0,1,2821.752,747.023Z" transform="translate(-2817.853 -741.448)" fill="#856de9"/>
            <path id="Trazado_153267" data-name="Trazado 153267" d="M2823.2,743.426h-.005a.128.128,0,0,1-.122-.132,5.045,5.045,0,0,0-4.844-5.24.127.127,0,1,1,.01-.255,5.3,5.3,0,0,1,5.089,5.5A.127.127,0,0,1,2823.2,743.426Z" transform="translate(-2817.996 -737.799)" fill="#856de9"/>
          </g>
        </g>
      </g>
    </g>
  </g>
</svg>
