<?xml version="1.0" encoding="utf-8"?>
<!-- Generator: Adobe Illustrator 26.0.1, SVG Export Plug-In . SVG Version: 6.00 Build 0)  -->
<svg version="1.1" id="Capa_1" xmlns="http://www.w3.org/2000/svg" xmlns:xlink="http://www.w3.org/1999/xlink" x="0px" y="0px"
	 viewBox="0 0 384.3 365.9" style="enable-background:new 0 0 384.3 365.9;" xml:space="preserve">
<style type="text/css">
	.st0{opacity:0.5;}
	.st1{clip-path:url(#SVGID_00000077305889433424588580000001999365495168472484_);}
	.st2{fill:#53C9FF;}
	.st3{opacity:0.3;}
	.st4{clip-path:url(#SVGID_00000181078556650371264720000017432001062458111930_);}
	.st5{fill:#828BA4;}
	.st6{fill:#17A4E3;fill-opacity:0;}
	.st7{fill:#30384F;}
	.st8{fill:#4F5669;}
	.st9{fill:#3A4258;}
	.st10{fill:#7F8492;}
	.st11{fill:#454C61;}
	.st12{fill:#6E7484;}
	.st13{fill:#0077CC;}
	.st14{fill:#EAECF0;}
	.st15{fill:#C8CBD7;}
	.st16{fill:#DFE2E8;}
	.st17{fill:#D0D3DD;}
	.st18{fill:#FCFCFD;}
	.st19{fill:#C0C4D1;}
	.st20{fill:#A7ADBE;}
	.st21{clip-path:url(#SVGID_00000098217141030461905620000010258229985978577087_);}
	.st22{fill:#616C8C;}
	.st23{fill:#B0B6C6;}
	.st24{fill:#FFFFFF;}
	.st25{fill:#9098AE;}
	.st26{fill-rule:evenodd;clip-rule:evenodd;fill:#616C8C;}
	.st27{clip-path:url(#SVGID_00000183950498931108284520000001646626452493707137_);}
	.st28{clip-path:url(#SVGID_00000180348727629153646680000011353270888490918573_);}
	.st29{fill:#4D4D4D;}
	.st30{fill:#333333;}
	.st31{fill:#FFC1C3;}
	.st32{fill:#3FA9F5;}
	.st33{fill:#69BCF7;}
	.st34{fill:#5A6072;}
	.st35{clip-path:url(#SVGID_00000077294483865008818460000015962862644073194118_);}
	.st36{fill:#F3F3F5;}
	.st37{fill:#8189A3;}
	.st38{fill:#E2E3E6;}
	.st39{clip-path:url(#SVGID_00000138572311264087943950000017928160381427977378_);}
	.st40{fill:url(#Rectángulo_7724_00000025437814025850198050000008606973206197677225_);}
	.st41{clip-path:url(#SVGID_00000137832763540073558470000003075678373905058229_);}
	.st42{fill:#9FA5B9;}
	.st43{clip-path:url(#SVGID_00000151515244410797997090000016015141331308611262_);}
	.st44{fill:#878FA8;}
	.st45{fill:#626879;}
	.st46{fill:#CBCFD9;}
	.st47{opacity:0.6;}
	.st48{clip-path:url(#SVGID_00000111188817586604892530000006949707893619560625_);}
	.st49{clip-path:url(#SVGID_00000165213471809706808580000003562426777534582152_);}
	.st50{clip-path:url(#SVGID_00000062165777652261873680000013181513088568861320_);}
	.st51{fill:#666C7D;}
	.st52{clip-path:url(#SVGID_00000025425198394740637460000015488278261968719285_);}
	.st53{fill:#C6CAD6;}
	.st54{fill:#84C8F9;}
	.st55{fill:#1395D1;fill-opacity:0;}
	.st56{fill:none;}
</style>
<g id="Grupo_90362" transform="translate(-970.333 -136.552)">
	<g id="Grupo_90361">
		<g id="Grupo_86541" transform="translate(970.333 136.552)">
			<g id="Grupo_90360">
				<g id="Grupo_86477" class="st0">
					<g id="Grupo_86476">
						<g>
							<defs>
								<rect id="SVGID_1_" y="145.9" width="384.3" height="220"/>
							</defs>
							<clipPath id="SVGID_00000135665688390504832180000010876023714285455501_">
								<use xlink:href="#SVGID_1_"  style="overflow:visible;"/>
							</clipPath>
							<g id="Grupo_86475" style="clip-path:url(#SVGID_00000135665688390504832180000010876023714285455501_);">
								<path id="Trazado_151691" class="st2" d="M328,178.1c75,43,75,112.6,0,155.6s-196.7,43-271.7,0s-75-112.6,0-155.6
									S253,135.2,328,178.1"/>
							</g>
						</g>
					</g>
				</g>
				<g id="Grupo_86480" class="st3">
					<g id="Grupo_86479">
						<g>
							<defs>
								<rect id="SVGID_00000041287670927527124880000007298315916512436888_" x="79.7" y="178.4" width="274.4" height="156.6"/>
							</defs>
							<clipPath id="SVGID_00000178165241374875146760000004593273036516813473_">
								<use xlink:href="#SVGID_00000041287670927527124880000007298315916512436888_"  style="overflow:visible;"/>
							</clipPath>
							<g id="Grupo_86478" style="clip-path:url(#SVGID_00000178165241374875146760000004593273036516813473_);">
								<path id="Trazado_151692" class="st5" d="M265.8,178.4l-165.4,95.5l-0.1,0l0,0l-16.1,3.4c-2.1-0.4-4,1-4.4,3
									c-0.4,2.1,1,4,3,4.4c0,0,0,0,0,0l18.5-3.9l72.2,41.7l-10.5,2.2c-2.1-0.4-4,1-4.4,3.1c-0.4,2.1,1,4,3.1,4.4l0,0l20.9-4.4
									l5.9,3.4v0.1l38.1-22.8c-0.1,0.9-0.1,1.9-0.1,2.8c0.8,14.3,19.4,24.8,41.6,23.6s39.5-13.8,38.7-28.1
									c-0.7-13.1-16.6-23.1-36.4-23.7l83.5-47.4v-6.3l0,0L265.8,178.4z"/>
							</g>
						</g>
					</g>
				</g>
				<path id="Trazado_151754" class="st6" d="M144.4,31.6l-16.9,12.3c-2.2,1.2-7.3-2.3-7.3-4.8V17.8c0.1-2.8,1.6-5.3,3.9-6.8
					l18.5-10.7c2.2-1.2,7.5,1.3,7.6,3.5l-1.9,21C148.2,27.6,146.8,30.1,144.4,31.6"/>
				<path id="Trazado_151770" class="st7" d="M236.4,264.6l0.5,7.2c0.4,2.7-0.6,5.4-2.7,7.2c-3.6,3-8.9,1.9-12.9,0
					c-3.1-1.5-12.4-5.7-16.3-12c-1-1.6-3.2-5.1,0.9-7.3c2.7-1.4,8.2,0.8,12.2,1.7c2.4,0.6,6.4,1.2,6.4,1.2s3.5-2.4,7.1-0.9
					S236.7,261.6,236.4,264.6"/>
				<path id="Trazado_151771" class="st8" d="M221.4,257.2c0,0-0.9,7.4,6.1,8.9s11.8-0.4,12.6-4.3c0.5-2.4,2.9-25.2,4.3-38
					l-18.3-14.2L221.4,257.2z"/>
				<path id="Trazado_151772" class="st8" d="M293.2,228.5c-0.9-6.4-3.3-12.6-4-19l-16.3,5c0,0-25.3-11.1-32.5-12.1
					c-4.1-0.6-7.7-0.8-11.4,2.7c-2.7,2.3-4.2,5.8-3.9,9.4l0.3,3l27.6,14.8c0-0.1,10.4,5.7,15.6,7.2c8,2.3,18.7,0.4,22.8-1.9
					c0.6-0.3,1.3-0.7,2.2-1.2C293.7,233.7,293.5,231.1,293.2,228.5"/>
				<path id="Trazado_151773" class="st9" d="M213.8,279.8l0.5,7.2c0.4,2.7-0.6,5.4-2.7,7.2c-3.6,3-8.9,1.9-12.9,0
					c-3.1-1.5-12.4-5.7-16.3-12c-1-1.6-3.2-5.1,0.9-7.3c2.7-1.4,8.2,0.8,12.2,1.7c2.4,0.6,6.4,1.2,6.4,1.2s3.5-2.4,7.1-0.9
					S214,276.8,213.8,279.8"/>
				<path id="Trazado_151774" class="st7" d="M296.1,319.7c-0.7-0.6-1.8-0.6-2.5,0l-0.1-0.1l-5,2.8l4,7.4l5.7-2.8
					c0.6-0.4,0.9-1.1,0.9-2.5C299,322.6,297.9,320.8,296.1,319.7"/>
				<path id="Trazado_151775" class="st7" d="M293.6,328c0,1.9-1.4,2.7-3,1.7c-1.8-1.2-2.9-3.1-3-5.2c0-1.9,1.4-2.7,3-1.7
					C292.4,323.9,293.5,325.9,293.6,328"/>
				<path id="Trazado_151776" class="st7" d="M235.3,321.3c0.7-0.6,1.8-0.6,2.5,0l0.1-0.1l5,2.8l-4,7.4l-5.7-2.8
					c-0.6-0.4-0.9-1.1-0.9-2.5C232.4,324.2,233.5,322.3,235.3,321.3"/>
				<path id="Trazado_151777" class="st7" d="M237.8,329.5c0,1.9,1.4,2.7,3,1.7c1.8-1.2,2.9-3.1,3-5.2c0-1.9-1.4-2.7-3-1.7
					C239,325.4,237.9,327.4,237.8,329.5"/>
				<path id="Trazado_151778" class="st7" d="M291.5,294.6c0.7-0.6,1.8-0.6,2.5,0l0.1-0.1l5,2.8l-4,7.4l-5.7-2.8
					c-0.6-0.4-0.9-1.1-0.9-2.5C288.7,297.5,289.8,295.7,291.5,294.6"/>
				<path id="Trazado_151779" class="st7" d="M294.1,302.9c0,1.9,1.4,2.7,3,1.7c1.8-1.2,2.9-3.1,3-5.2c0-1.9-1.4-2.7-3-1.7
					C295.3,298.8,294.2,300.7,294.1,302.9"/>
				<path id="Trazado_151780" class="st7" d="M244.4,294.6c-0.7-0.6-1.8-0.6-2.5,0l-0.1-0.1l-5,2.8l4,7.4l5.7-2.8
					c0.6-0.4,0.9-1.1,0.9-2.5C247.2,297.5,246.1,295.7,244.4,294.6"/>
				<path id="Trazado_151781" class="st7" d="M241.9,302.9c0,1.9-1.4,2.7-3,1.7c-1.8-1.2-2.9-3.1-3-5.2c0-1.9,1.4-2.7,3-1.7
					C240.6,298.8,241.8,300.7,241.9,302.9"/>
				<path id="Trazado_151782" class="st10" d="M267.7,304.1l-25.9-12.6c-1-0.5-2.2-0.4-3.2,0.2c-1,0.4-1.7,1.3-2,2.4v1.8l26.7,13.4
					L267.7,304.1z"/>
				<path id="Trazado_151783" class="st10" d="M264.5,305.1l27.4-13.6c1-0.5,2.1-0.4,3,0.2c1,0.4,1.7,1.3,1.9,2.4v1.8l-28.1,14.4
					L264.5,305.1z"/>
				<path id="Trazado_151784" class="st11" d="M271.8,312.1H260v-10.4c0-3,2.5-5.5,5.5-5.5h0.7c3,0,5.5,2.5,5.5,5.5c0,0,0,0,0,0
					V312.1z"/>
				<path id="Trazado_151785" class="st7" d="M263.3,282.9v14.9c0,1.7,1.3,3,3,3c0,0,0.1,0,0.1,0c1.2,0.2,2.3-0.6,2.4-1.8
					c0-0.3,0-0.6-0.1-0.9v-15.3H263.3z"/>
				<path id="Trazado_151786" class="st11" d="M260.2,269.2v14.1c1.4,1.6,3.4,2.5,5.5,2.5c2.2-0.1,4.3-1,5.8-2.5v-16.1L260.2,269.2z
					"/>
				<path id="Trazado_151787" class="st12" d="M198,273.5c0,0-0.9,7.2,5.9,8.7s11.5-0.4,12.3-4.2c0.5-2.4,2.8-24.5,4.2-36.9
					l-17.8-13.8L198,273.5z"/>
				<path id="Trazado_151788" class="st13" d="M244.4,235.3c7.2-4.6,12.1-7.2,18.1-8c8.6-1.3,20,2.6,26.4,5.3
					c4.1,1.7,16.2,6.9,13.4,13.6c-2,4.8-12,8.2-19.3,11.7s-16.7,9.7-24.8,10.2s-16.8-3.8-24.1-8.5c-7.3-4.8-6.5-11.6-1.8-15.9
					C236.2,240.2,238.1,239.3,244.4,235.3"/>
				<path id="Trazado_151789" class="st12" d="M294.2,216.3l-44,13.3c0,0-25.3-11.1-32.5-12.1c-4.1-0.6-7.7-0.8-11.4,2.7
					c-2.7,2.3-4.2,5.8-3.9,9.4l0.3,3l27.6,14.8c0-0.1,10.4,5.7,15.6,7.2c8,2.3,18.7,0.4,22.8-1.9s17.6-8.8,22.7-14.5
					S294.2,216.3,294.2,216.3"/>
				<path id="Trazado_151790" class="st7" d="M228.5,250.1v7c1.1,4.8,4.3,8.9,8.7,11.2c7.5,4,19.3,7.4,25,5.2s27.1-13.2,31.8-15.7
					c4.7-2.5,7-3.9,7.9-6s0.2-8.9,0.2-8.9s-12.2,9.7-26.3,14.4s-19.5,7.4-26.3,5.7S228.5,250.1,228.5,250.1"/>
				<path id="Trazado_151791" class="st11" d="M259.2,272.3c-2.1-3.3-0.7-7,1.5-9.9c-4.4,1.2-7.6,1.6-11.3,0.7
					c-6.9-1.7-21-12.9-21-12.9v7c1.1,4.8,4.3,8.9,8.7,11.2c7,3.7,17.6,6.9,23.6,5.6C260.3,273.5,259.7,272.9,259.2,272.3"/>
				<path id="Trazado_151792" class="st10" d="M235.3,322.6c0,0-2.4-3.9,1.3-5.2s24.2-11.6,24.2-11.6s4.4,0.7,4.4,2.3
					c0,1.2,0.2,2.5,0.5,3.7c0,0-22.3,10.4-24.5,11.6S237.3,323.8,235.3,322.6"/>
				<path id="Trazado_151793" class="st10" d="M297.9,322.6c0,0,1.9-3.9-1.8-5.2s-24-12.1-24-12.1s-4.2,0.7-4.2,2.3v3.7
					c0,0,22.1,10.9,24.3,12.1S296,323.8,297.9,322.6"/>
				<path id="Trazado_151794" class="st14" d="M162.5,332L162.5,332c-2.1,0-3.8-1.7-3.8-3.8v-85.3h7.5v85.3
					C166.2,330.3,164.6,332,162.5,332"/>
				<path id="Trazado_151795" class="st15" d="M162.3,242.9v89c0.1,0,0.1,0,0.2,0c2.1,0,3.8-1.7,3.8-3.8v-85.3H162.3z"/>
				<path id="Trazado_151796" class="st14" d="M83.5,284.4L83.5,284.4c-2.1,0-3.8-1.7-3.8-3.8v-85.3h7.5v85.3
					C87.2,282.8,85.5,284.4,83.5,284.4"/>
				<path id="Trazado_151797" class="st15" d="M83.2,195.4v89c0.1,0,0.1,0,0.2,0c2.1,0,3.8-1.7,3.8-3.8v-85.3H83.2z"/>
				<path id="Trazado_151798" class="st14" d="M312.8,241.4h-0.4c-2,0-3.6-1.6-3.6-3.6v-85.5h7.5v85.5
					C316.4,239.8,314.8,241.4,312.8,241.4"/>
				<path id="Trazado_151799" class="st15" d="M312.4,152.3v89c0.1,0,0.1,0,0.2,0c2.1,0,3.8-1.7,3.8-3.8v-85.3H312.4z"/>
				<path id="Trazado_151800" class="st16" d="M233.6,193.9L233.6,193.9c-2.1,0-3.8-1.7-3.8-3.8l0,0v-85.3h7.5v85.3
					C237.3,192.2,235.6,193.9,233.6,193.9L233.6,193.9"/>
				<path id="Trazado_151801" class="st17" d="M233.4,104.8v89c0.1,0,0.1,0,0.2,0c2.1,0,3.8-1.7,3.8-3.8v-85.3H233.4z"/>
				<path id="Trazado_151802" class="st18" d="M323.7,149.9l-165.5,95.6l-88.3-51l165.5-95.6L323.7,149.9z"/>
				<path id="Trazado_151803" class="st19" d="M158.2,251.7v-6.3l-88.3-51v6.3L158.2,251.7z"/>
				<path id="Trazado_151804" class="st20" d="M323.7,156.2v-6.3l-165.5,95.6v6.3L323.7,156.2z"/>
				<g id="Grupo_86527" class="st3">
					<g id="Grupo_86526">
						<g>
							<defs>
								<rect id="SVGID_00000016050460406492036740000002725593800075903911_" x="158.1" y="154.5" width="79.9" height="35.9"/>
							</defs>
							<clipPath id="SVGID_00000142882678101752051280000000694568322386374567_">
								<use xlink:href="#SVGID_00000016050460406492036740000002725593800075903911_"  style="overflow:visible;"/>
							</clipPath>
							<g id="Grupo_86525" style="clip-path:url(#SVGID_00000142882678101752051280000000694568322386374567_);">
								<path id="Trazado_151805" class="st22" d="M237.8,154.5l-56.1,33l-23.6-12.4l0.6,4.9l23.4,10.3l56-32.5L237.8,154.5z"/>
							</g>
						</g>
					</g>
				</g>
				<path id="Trazado_151806" class="st23" d="M158.1,174.2l0.6,4.9l23.4,10.3l-0.3-2.9L158.1,174.2z"/>
				<path id="Trazado_151807" class="st24" d="M216,141.4l21.9,12.3l-56.2,32.9l-23.6-12.4L216,141.4z"/>
				<path id="Trazado_151808" class="st25" d="M237.8,153.6l-56.1,33l0.3,2.9l56-32.5L237.8,153.6z"/>
				<path id="Trazado_151809" class="st26" d="M166.1,174.6l-2.1-1.2l2.2-1.3l2.1,1.2L166.1,174.6z"/>
				<path id="Trazado_151810" class="st26" d="M170.5,172.1l-2.1-1.2l2.2-1.3l2.1,1.2L170.5,172.1z"/>
				<path id="Trazado_151811" class="st26" d="M173.3,170.5l-2.1-1.2l2.2-1.3l2.1,1.2L173.3,170.5z"/>
				<path id="Trazado_151812" class="st26" d="M176,168.9l-2.1-1.2l2.2-1.3l2.1,1.2L176,168.9z"/>
				<path id="Trazado_151813" class="st26" d="M180.4,166.4l-2.1-1.2l2.2-1.3l2.1,1.2L180.4,166.4z"/>
				<path id="Trazado_151814" class="st26" d="M183.2,164.7l-2.1-1.2l2.2-1.3l2.1,1.2L183.2,164.7z"/>
				<path id="Trazado_151815" class="st26" d="M186,163.1l-2.1-1.2l2.2-1.3l2.1,1.2L186,163.1z"/>
				<path id="Trazado_151816" class="st26" d="M190.3,160.6l-2.1-1.2l2.2-1.3l2.1,1.2L190.3,160.6z"/>
				<path id="Trazado_151817" class="st26" d="M193.1,159l-2.1-1.2l2.2-1.3l2.1,1.2L193.1,159z"/>
				<path id="Trazado_151818" class="st26" d="M195.9,157.4l-2.1-1.2l2.2-1.3l2.1,1.2L195.9,157.4z"/>
				<path id="Trazado_151819" class="st26" d="M200.4,154.8l-2.1-1.2l2.2-1.3l2.1,1.2L200.4,154.8z"/>
				<path id="Trazado_151820" class="st26" d="M203.1,153.2l-2.1-1.3l2.3-1.3l2.1,1.3L203.1,153.2z"/>
				<path id="Trazado_151821" class="st26" d="M206,151.5l-2.1-1.2l2.2-1.3l2.1,1.2L206,151.5z"/>
				<path id="Trazado_151822" class="st26" d="M209.5,149.5l-2.1-1.2l2.2-1.3l2.1,1.2L209.5,149.5z"/>
				<path id="Trazado_151823" class="st26" d="M212.3,147.9l-2.1-1.2l2.2-1.3l2.1,1.2L212.3,147.9z"/>
				<path id="Trazado_151824" class="st26" d="M215.1,146.2L213,145l2.2-1.3l2.1,1.2L215.1,146.2z"/>
				<path id="Trazado_151825" class="st26" d="M219.1,148.5l-2.1-1.2l2.2-1.3l2.1,1.2L219.1,148.5z"/>
				<path id="Trazado_151826" class="st26" d="M221.8,150l-2.1-1.2l2.2-1.3l2.1,1.2L221.8,150z"/>
				<path id="Trazado_151827" class="st26" d="M216.3,150.1l-2.1-1.2l2.2-1.3l2.1,1.2L216.3,150.1z"/>
				<path id="Trazado_151828" class="st26" d="M219,151.7l-2.1-1.2l2.2-1.3l2.1,1.2L219,151.7z"/>
				<path id="Trazado_151829" class="st26" d="M213.5,151.7l-2.1-1.2l2.2-1.3l2.1,1.2L213.5,151.7z"/>
				<path id="Trazado_151830" class="st26" d="M216.2,153.3l-2.1-1.2l2.2-1.3l2.1,1.2L216.2,153.3z"/>
				<path id="Trazado_151831" class="st26" d="M229.7,154.6l-2.1-1.2l2.2-1.3l2.1,1.2L229.7,154.6z"/>
				<path id="Trazado_151832" class="st26" d="M226.9,156.2l-2.1-1.2l2.2-1.3l2.1,1.2L226.9,156.2z"/>
				<path id="Trazado_151833" class="st26" d="M224.1,157.8l-2.1-1.2l2.2-1.3l2.1,1.2L224.1,157.8z"/>
				<path id="Trazado_151834" class="st26" d="M224.2,154.7l-2.1-1.2l2.2-1.3l2.1,1.2L224.2,154.7z"/>
				<path id="Trazado_151835" class="st26" d="M206.2,156l-2.1-1.2l2.2-1.3l2.1,1.2L206.2,156z"/>
				<path id="Trazado_151836" class="st26" d="M203.4,157.6l-2.1-1.2l2.2-1.3l2.1,1.2L203.4,157.6z"/>
				<path id="Trazado_151837" class="st26" d="M200.7,159.2l-2.1-1.2l2.2-1.3l2.1,1.2L200.7,159.2z"/>
				<path id="Trazado_151838" class="st26" d="M197.9,160.8l-2.1-1.2l2.2-1.3l2.1,1.2L197.9,160.8z"/>
				<path id="Trazado_151839" class="st26" d="M195.1,162.4l-2.1-1.2l2.2-1.3l2.1,1.2L195.1,162.4z"/>
				<path id="Trazado_151840" class="st26" d="M192.3,164l-2.1-1.2l2.2-1.3l2.1,1.2L192.3,164z"/>
				<path id="Trazado_151841" class="st26" d="M189.5,165.7l-2.1-1.2l2.2-1.3l2.1,1.2L189.5,165.7z"/>
				<path id="Trazado_151842" class="st26" d="M186.7,167.3l-2.1-1.2l2.2-1.3l2.1,1.2L186.7,167.3z"/>
				<path id="Trazado_151843" class="st26" d="M183.9,168.9l-2.1-1.2l2.2-1.3l2.1,1.2L183.9,168.9z"/>
				<path id="Trazado_151844" class="st26" d="M181.1,170.5l-2.1-1.2l2.3-1.4l2.1,1.2L181.1,170.5z"/>
				<path id="Trazado_151845" class="st26" d="M178.3,172.1l-2.1-1.2l2.3-1.4l2.1,1.2L178.3,172.1z"/>
				<path id="Trazado_151846" class="st26" d="M175.5,173.7l-2.1-1.2l2.3-1.4l2.1,1.2L175.5,173.7z"/>
				<path id="Trazado_151847" class="st26" d="M172.9,175.3l-2.1-1.2l2.2-1.3l2.1,1.2L172.9,175.3z"/>
				<path id="Trazado_151848" class="st26" d="M170.1,176.9l-2.1-1.2l2.2-1.3l2.1,1.2L170.1,176.9z"/>
				<path id="Trazado_151849" class="st26" d="M176.9,176.1l-2.1-1.2l2.2-1.3l2.1,1.2L176.9,176.1z"/>
				<path id="Trazado_151850" class="st26" d="M179.7,174.4l-2.1-1.2l2.2-1.3l2.1,1.2L179.7,174.4z"/>
				<path id="Trazado_151851" class="st26" d="M182.4,172.8l-2.1-1.2l2.2-1.3l2.1,1.2L182.4,172.8z"/>
				<path id="Trazado_151852" class="st26" d="M185.2,171.2l-2.1-1.2l2.2-1.3l2.1,1.2L185.2,171.2z"/>
				<path id="Trazado_151853" class="st26" d="M188,169.6l-2.1-1.2l2.2-1.3l2.1,1.2L188,169.6z"/>
				<path id="Trazado_151854" class="st26" d="M190.8,168l-2.1-1.2l2.2-1.3l2.1,1.2L190.8,168z"/>
				<path id="Trazado_151855" class="st26" d="M193.6,166.3l-2.1-1.2l2.2-1.3l2.1,1.2L193.6,166.3z"/>
				<path id="Trazado_151856" class="st26" d="M196.3,164.8l-2.1-1.2l2.3-1.4l2.1,1.2L196.3,164.8z"/>
				<path id="Trazado_151857" class="st26" d="M199.1,163.2l-2.1-1.2l2.3-1.4l2.1,1.2L199.1,163.2z"/>
				<path id="Trazado_151858" class="st26" d="M201.9,161.6l-2.1-1.2l2.3-1.4l2.1,1.2L201.9,161.6z"/>
				<path id="Trazado_151859" class="st26" d="M204.7,159.9l-2.1-1.2l2.2-1.3l2.1,1.2L204.7,159.9z"/>
				<path id="Trazado_151860" class="st26" d="M207.5,158.3l-2.1-1.2l2.2-1.3l2.1,1.2L207.5,158.3z"/>
				<path id="Trazado_151861" class="st26" d="M208.2,161l-2.2-1.3l2.2-1.3l2.2,1.3L208.2,161z"/>
				<path id="Trazado_151862" class="st26" d="M205.4,162.6l-2.2-1.3l2.2-1.3l2.2,1.3L205.4,162.6z"/>
				<path id="Trazado_151863" class="st26" d="M202.6,164.2l-2.2-1.3l2.2-1.3l2.2,1.3L202.6,164.2z"/>
				<path id="Trazado_151864" class="st26" d="M199.9,165.8l-2.2-1.3l2.2-1.3l2.2,1.3L199.9,165.8z"/>
				<path id="Trazado_151865" class="st26" d="M197.1,167.4l-2.2-1.3l2.2-1.3l2.2,1.3L197.1,167.4z"/>
				<path id="Trazado_151866" class="st26" d="M194.3,169l-2.2-1.3l2.2-1.3l2.2,1.3L194.3,169z"/>
				<path id="Trazado_151867" class="st26" d="M191.5,170.7l-2.2-1.3l2.2-1.3l2.2,1.3L191.5,170.7z"/>
				<path id="Trazado_151868" class="st26" d="M188.7,172.3l-2.2-1.3l2.2-1.3l2.2,1.3L188.7,172.3z"/>
				<path id="Trazado_151869" class="st26" d="M185.9,173.9l-2.2-1.3l2.3-1.4l2.2,1.3L185.9,173.9z"/>
				<path id="Trazado_151870" class="st26" d="M183.1,175.5l-2.2-1.3l2.3-1.4l2.2,1.3L183.1,175.5z"/>
				<path id="Trazado_151871" class="st26" d="M180.3,177.1l-2.2-1.3l2.3-1.4l2.2,1.3L180.3,177.1z"/>
				<path id="Trazado_151872" class="st26" d="M184.3,177.8l-2.1-1.2l2.2-1.3l2.1,1.2L184.3,177.8z"/>
				<path id="Trazado_151873" class="st26" d="M187.1,176.1l-2.1-1.2l2.2-1.3l2.1,1.2L187.1,176.1z"/>
				<path id="Trazado_151874" class="st26" d="M189.9,174.5l-2.1-1.2l2.2-1.3l2.1,1.2L189.9,174.5z"/>
				<path id="Trazado_151875" class="st26" d="M192.7,172.9l-2.1-1.2l2.2-1.3l2.1,1.2L192.7,172.9z"/>
				<path id="Trazado_151876" class="st26" d="M195.5,171.3l-2.1-1.2l2.2-1.3l2.1,1.2L195.5,171.3z"/>
				<path id="Trazado_151877" class="st26" d="M198.3,169.7l-2.1-1.2l2.2-1.3l2.1,1.2L198.3,169.7z"/>
				<path id="Trazado_151878" class="st26" d="M201.1,168.1l-2.1-1.2l2.2-1.3l2.1,1.2L201.1,168.1z"/>
				<path id="Trazado_151879" class="st26" d="M203.9,166.4l-2.1-1.2l2.2-1.3l2.1,1.2L203.9,166.4z"/>
				<path id="Trazado_151880" class="st26" d="M206.7,164.8l-2.1-1.2l2.2-1.3l2.1,1.2L206.7,164.8z"/>
				<path id="Trazado_151881" class="st26" d="M209.5,163.2l-2.1-1.2l2.2-1.3l2.1,1.2L209.5,163.2z"/>
				<path id="Trazado_151882" class="st26" d="M217.8,158.4l-2.1-1.2l2.2-1.3l2.1,1.2L217.8,158.4z"/>
				<path id="Trazado_151883" class="st26" d="M219,160.7l-2.1-1.2l3.7-2.1l2.1,1.2L219,160.7z"/>
				<path id="Trazado_151884" class="st26" d="M214.9,163.1l-2.1-1.2l3.6-2.1l2.1,1.2L214.9,163.1z"/>
				<path id="Trazado_151885" class="st26" d="M210.8,165.5l-2.1-1.2l3.6-2.1l2.1,1.2L210.8,165.5z"/>
				<path id="Trazado_151886" class="st26" d="M188.9,178.2l-2.1-1.2l3.6-2.1l2.1,1.2L188.9,178.2z"/>
				<path id="Trazado_151887" class="st26" d="M184.8,180.6l-2.1-1.2l3.6-2.1l2.1,1.2L184.8,180.6z"/>
				<path id="Trazado_151888" class="st26" d="M180.6,183l-2.1-1.2l3.6-2.1l2.1,1.2L180.6,183z"/>
				<path id="Trazado_151889" class="st26" d="M212.2,161.6l-2.1-1.2l4.9-2.8l2.1,1.2L212.2,161.6z"/>
				<path id="Trazado_151890" class="st26" d="M209,154.3l-2.1-1.2l3.1-1.8l2.1,1.2L209,154.3z"/>
				<path id="Trazado_151891" class="st26" d="M172.7,178.4l-2.1-1.2l3.6-2.1l2.1,1.2L172.7,178.4z"/>
				<path id="Trazado_151892" class="st26" d="M178,181.5l-2.1-1.2l5.8-3.4l2.1,1.2L178,181.5z"/>
				<path id="Trazado_151893" class="st26" d="M175.4,180l-2.2-1.3l4.5-2.6l2.2,1.3L175.4,180z"/>
				<path id="Trazado_151894" class="st26" d="M193,175.8l-2.1-1.2l17.2-10l2.1,1.2L193,175.8z"/>
				<path id="Trazado_151895" class="st26" d="M210.9,159.3l-2.1-1.2l1.5-0.9c0.1-0.1,0.1-0.2,0.1-0.3c0,0-0.1,0-0.1,0v0
					c0,0,0.1-0.1,0-0.1l-2.2-1.3l4.6-2.6l4.7,2.7L210.9,159.3z"/>
				<g id="Grupo_86530" class="st3">
					<g id="Grupo_86529">
						<g>
							<defs>
								<rect id="SVGID_00000021095033704717258700000007553403709068918157_" x="171" y="169.7" width="69.7" height="31.5"/>
							</defs>
							<clipPath id="SVGID_00000052094121872128320050000005616609566492752807_">
								<use xlink:href="#SVGID_00000021095033704717258700000007553403709068918157_"  style="overflow:visible;"/>
							</clipPath>
							<g id="Grupo_86528" style="clip-path:url(#SVGID_00000052094121872128320050000005616609566492752807_);">
								<path id="Trazado_151896" class="st22" d="M171,174.3c0,0,2.7,1.3,3.2,2.8c0.8,2.1,2.4,3.9,4.4,5c1.4,0.7,2.8,1.2,4.4,1.5
									c0,0,2.2,1.9,3.9,3.1s21.1,12.3,24.6,13.5s12.7,1.3,18.3,0.2c3.7-0.8,7.4-1.7,10.9-3c0,0-0.1-4.6-5.6-6.5
									s-22.5-2.9-24.8-4.4s-22.5-9.6-22.5-9.6s-13.3-8.3-14.8-7.2S171,174.3,171,174.3"/>
							</g>
						</g>
					</g>
				</g>
				<g id="Grupo_86533" class="st3">
					<g id="Grupo_86532">
						<g>
							<defs>
								<rect id="SVGID_00000183245565554073624730000004574792854606880445_" x="210.1" y="147.8" width="41.6" height="24.7"/>
							</defs>
							<clipPath id="SVGID_00000112624791533180237100000016727800799977795994_">
								<use xlink:href="#SVGID_00000183245565554073624730000004574792854606880445_"  style="overflow:visible;"/>
							</clipPath>
							<g id="Grupo_86531" style="clip-path:url(#SVGID_00000112624791533180237100000016727800799977795994_);">
								<path id="Trazado_151897" class="st22" d="M210.1,150.3c0.8,0.8,1.8,1.4,2.9,1.7c2,0.6,3.1,0.7,3.3,1.9s-5.6,0.7-5.6,0.7
									c0.3,0.8,1,1.4,1.9,1.6c1.2,0.4,2.3,1.1,3.2,2c1.5,0.9,3.2,1.4,5,1.4c0.7-0.1,1.5,0,2.2,0.3l0.3,1.7l23.6,11.1l4.7-3.5
									c0,0-13.2-11-18.2-12s-13.4-5.4-13.9-5.6s-6.8-4-7.2-3.6S210.1,150.3,210.1,150.3"/>
							</g>
						</g>
					</g>
				</g>
				<path id="Trazado_151898" class="st29" d="M266.7,234.1c-3.4-5.8-3.2-13,0.5-18.6c7.5-9.5,19.6-10.6,29.6-17.1
					c2.1-1.3,5.7-1.8,7.3-0.1c-0.9-4.2-3-5-4.5-5c-3.2-0.2-5.6,2-17.3,7.7c-13.9,6.9-16.2,6.2-19.4,8.9s-5,9-4.5,15.9
					s5.5,12.4,9.5,12.2c0.9,0,1.8-0.2,2.7-0.5C269.1,236.9,267.6,235.7,266.7,234.1"/>
				<path id="Trazado_151899" class="st30" d="M296.9,198.4c-10,6.5-22.1,7.5-29.6,17.1c-3.7,5.6-3.9,12.8-0.5,18.6
					c0.9,1.6,2.3,2.8,4.1,3.4c2.9-0.9,6.5-3.1,16.5-7.4c7.7-3.3,11.8-6.2,14.1-10.4c1.6-3,2.2-6.6,2.8-11.9c0.5-3.2,0.5-6.4,0-9.5
					C302.6,196.6,299,197.1,296.9,198.4"/>
				<path id="Trazado_151900" class="st31" d="M227.4,155.9c0,0-3.3-7-4.8-8s-5-1-7.3-1.2c-1.8-0.2-5.5,0.6-5.8,2.2s1,1.9,2.5,2.4
					s3.8,1,4.5,1.6s0.6,1.6-0.6,1.3s-3-1.6-4.4-1.2c-1.1,0.3-1.4,2,1,2.6s1.8,1.2,3.2,1.8s3.2,1.8,4.9,1.6c1.9-0.2,5.7,2.4,5.7,2.4
					l4.6-3.7L227.4,155.9z"/>
				<path id="Trazado_151901" class="st32" d="M278,154.3l-19.4,4.7l-25-6.1c-3.1-1.1-6.6-0.3-8.8,2.2c-3,4.3-1.6,5.8-1.6,5.8
					l32.7,14.6c0,0,4.6,2.7,12.4,1.4c7.1-1.2,28.2,4.2,28.2,4.2c1.5-5.9,1-12.2-1.5-17.8C290.6,153.4,281,152.9,278,154.3"/>
				<path id="Trazado_151902" class="st33" d="M273,154.4c0,0-13.4,3-21.6,9.3c-7.1,5.5-11.4,18.2-10.7,40.9
					c0.5,15.8-0.3,16.2,0.6,21.4c0.6,3.2,3.5,7.9,8.2,10.3c5.5,2.8,10.5,5,18.2,3.4c7.8-1.7,25.2-10.5,25.2-10.5s5.3-11.9,5.3-17.9
					s0.9-27.9-1.5-38.7C292.6,154.3,278.4,153.2,273,154.4"/>
				<path id="Trazado_151903" class="st31" d="M274.7,147.2l1.4,12.5c0,0-0.5,5.1-7.6,6.4c-7.4,1.3-8.7-3.7-8.7-3.7l0.2-3l-1-6.9
					L274.7,147.2z"/>
				<path id="Trazado_151904" class="st31" d="M246.6,124.5c0,0-1.3,12.9-1.1,17.3c0.2,3.9,2,11.8,7.5,13.8c4.6,1.7,10-1.2,15.6-5.1
					s7.4-4.9,8.3-8.3s6.6-19.4,6.6-19.4L246.6,124.5z"/>
				<path id="Trazado_151905" class="st7" d="M283.9,120.4c-0.9-4.7-3.8-8.7-8-11c-7.1-3.8-14.2-3.6-20.6-1.6
					c-6.1,1.9-9,4.7-10.2,7.1c-0.6,1.2-1,2.4-1.2,3.7c0,1.6,0.3,3.2,1,4.6c1,2,3,3.4,4.4,5.1c1.2,1.3,1.9,3,2.1,4.8
					c0.2,1.7,0.3,3.4,0.2,5.1l1.9,0.7c0,0-0.4-4.6,2.3-5c4.1-0.5,4.4,5.4,3.8,7.1c-2.6,7.4,1.4,8.8,1.4,8.8
					c4.6,1.9,9.6,2.4,13.8-0.7c3.4-2.7,6-6.3,7.3-10.5C284.1,133.1,285,126.2,283.9,120.4"/>
				<path id="Trazado_151906" class="st31" d="M187.9,184.8l-4.6-2.4c0,0-1.4,0.9-4.2-0.7c-3.5-2-3.3-3.9-4.6-5
					c-1.5-1.1-3-2.2-4.5-3.1c-2.1-1.5,0.1-5.3,3.3-5.4c1.9,0,3.8,0.4,5.5,1.3c1.9,0.8,4.4,3.4,4.4,3.4c-0.6-1-1.3-2-2.1-2.9
					c-0.7-0.7,0.3-2.1,1.6-1s3.5,3.8,3.5,4.8c0.3,1.3,0.7,2.6,1.1,3.8l4.3,2.5L187.9,184.8z"/>
				<path id="Trazado_151907" class="st32" d="M245.8,169.8l-28.3,15.1l-24.8-9.8c0,0-4.9-2.5-8.4,3.2c-1.1,1.8-1.2,4-0.3,6
					c0,0,21.4,13.1,28.9,15.4c3.7,1.2,7.7,1.6,15.5,0.9c8.7-0.7,15.7-3.9,21.5-6.8c5.7-3.3,8.7-9.7,7.6-16.2
					C255.8,169.5,250.8,167.8,245.8,169.8"/>
				<path id="Trazado_151908" class="st13" d="M279.3,197.2c-7.6,2.9-15.6,6-18.6,6.9s-6.7,7-6.4,14.1s1.5,13.2,4.2,15.7
					c2.7,2.5,7.5,5.2,15.2,1.5S292,227.2,295,225s5.8-4.8,6.9-8c1.6-5.7,2.3-11.7,2-17.6c-0.3-6.2-3.9-12.1-9.7-9.4
					S285.8,194.7,279.3,197.2"/>
				<path id="Trazado_151909" class="st7" d="M263.1,209.8c3.2-2.7,5.5-2,19.4-8.9c11.6-5.7,14.1-7.9,17.3-7.7
					c2.2,0.1,6,1.8,4.5,14.6c-0.6,5.3-1.2,8.9-2.8,11.9c-2.3,4.2-6.4,7.1-14.1,10.4c-13.2,5.7-15.2,7.7-19.3,7.9s-9-5.4-9.5-12.2
					S259.9,212.5,263.1,209.8"/>
				<path id="Trazado_151910" class="st34" d="M282.1,216.4l8.1-4.1c0,0,2.2-1.3,4.1,5.4c0.8,2.6,0.5,10.2,0.6,18.3
					c0,12.9-0.1,27.2-0.1,27.2l-8.1,4.1c0,0-0.6-5.3-0.6-12C286.1,241.4,286,220,282.1,216.4"/>
				<path id="Trazado_151911" class="st11" d="M282.1,216.4l0,42.6l-4.3-1.3v5.4l9,4.2v-41.9c-0.1-2.4-0.8-4.7-1.9-6.8
					C282.1,214.2,282.1,216.4,282.1,216.4"/>
				<g id="Grupo_86539" class="st3">
					<g id="Grupo_86538">
						<g>
							<defs>
								<rect id="SVGID_00000122682659144291716900000011766702600945318060_" x="147.5" y="135.7" width="51.4" height="29.7"/>
							</defs>
							<clipPath id="SVGID_00000080177641540978411360000012127403868661151129_">
								<use xlink:href="#SVGID_00000122682659144291716900000011766702600945318060_"  style="overflow:visible;"/>
							</clipPath>
							<g id="Grupo_86537" style="clip-path:url(#SVGID_00000080177641540978411360000012127403868661151129_);">
								<path id="Trazado_151922" class="st22" d="M147.6,156.8v0.1l0,0c0.1,0.4,0.4,0.7,0.7,0.8l12.5,7.2c0.6,0.3,1.2,0.4,1.9,0.4
									l0,0c0.3,0,0.6,0,0.9-0.1c0,0,0.1,0,0.1,0c0.1,0,0.2-0.1,0.3-0.1c0.1-0.1,0.3-0.1,0.4-0.2l33.9-19.6
									c0.2-0.1,0.4-0.3,0.5-0.5c0,0,0,0,0-0.1c0.1-0.1,0.1-0.2,0.1-0.3c0,0,0,0,0,0c0-0.1,0-0.1,0-0.2c0-0.2,0-2.6,0-2.6l-1.9,0.9
									l-11.3-6.5c-1.1-0.6-2.4-0.6-3.6,0l-25.1,14.5l-7.1,4.1c0,0,0,0,0,0c-0.7-0.7-2.4-0.2-2.4-0.2l0,2.2
									C147.6,156.7,147.6,156.8,147.6,156.8"/>
							</g>
						</g>
					</g>
				</g>
				<path id="Trazado_151923" class="st23" d="M205.7,55.5c-0.5-0.4-1-0.8-1.6-1.2c-0.4-0.2-0.7-0.4-0.9-0.5c0,0-0.1,0-0.1-0.1
					c-0.1-0.1-0.2-0.1-0.2-0.1v0c-0.4-0.1-0.8,0-1.2,0.3l-72.4,41.8c-1.2,0.8-2,2.1-2.1,3.6v53c-0.1,0.5,0.2,1,0.6,1.3l0,0
					c0,0,2,1.6,2.6,1.6s0.6-2.1,0.6-2.1l-0.2-0.5l70.8-40.9c1.2-0.8,2-2.1,2.1-3.6V60.2c0.1,0,0.1-0.1,0.2-0.1
					C204.9,59.2,205.7,55.5,205.7,55.5"/>
				<path id="Trazado_151924" class="st36" d="M203.8,66.2v-6c0.1,0,0.1-0.1,0.2-0.1c1-0.9,1.7-4.6,1.7-4.6c-0.5-0.4-1-0.8-1.6-1.2
					c-0.4-0.2-0.7-0.4-0.9-0.5c0,0-0.1,0-0.1-0.1c-0.1-0.1-0.2-0.1-0.2-0.1v0c-0.4-0.1-0.8,0-1.2,0.3l-72.4,41.8
					c-0.6,0.4-1.1,0.9-1.4,1.5l8.5,5.6L203.8,66.2L203.8,66.2"/>
				<path id="Trazado_151925" class="st20" d="M198.9,143.6C198.9,143.6,198.9,143.6,198.9,143.6c0-0.1,0-0.2,0-0.3
					c0-0.2,0-2.6,0-2.6l-1.9,0.9l-11.3-6.5c-1.1-0.6-2.4-0.6-3.6,0L150,153.8c0,0,0,0,0,0c-0.7-0.7-2.4-0.2-2.4-0.2l0,2.2
					c0,0.1,0,0.1,0,0.2v0.1l0,0c0.1,0.4,0.4,0.7,0.7,0.8l12.5,7.2c1.1,0.6,2.4,0.6,3.6,0l33.9-19.6c0.2-0.1,0.4-0.3,0.5-0.5
					c0,0,0,0,0-0.1C198.9,143.9,198.9,143.8,198.9,143.6"/>
				<path id="Trazado_151926" class="st37" d="M198.9,140.8l-1.9,0.9l-11.3-6.5c-1.1-0.6-2.4-0.6-3.6,0l-25.1,14.5l5.5,7.6v7.2
					c0.6,0,1.2-0.1,1.7-0.4l33.9-19.6c0.2-0.1,0.4-0.3,0.5-0.5c0,0,0,0,0-0.1c0.1-0.1,0.1-0.2,0.1-0.3c0,0,0,0,0,0
					c0-0.1,0-0.1,0-0.2C199,143.2,198.9,140.8,198.9,140.8"/>
				<path id="Trazado_151927" class="st38" d="M198.2,142.2l-33.9,19.6c-1.1,0.6-2.4,0.6-3.6,0l-12.5-7.2c-0.6-0.2-0.9-0.8-0.7-1.4
					c0.1-0.3,0.4-0.6,0.7-0.7l33.9-19.6c1.1-0.6,2.4-0.6,3.6,0l12.5,7.2c0.6,0.2,0.9,0.8,0.7,1.4
					C198.8,141.8,198.5,142.1,198.2,142.2"/>
				<path id="Trazado_151928" class="st37" d="M177.8,144.9l-9,5.2v-19.4l9-5.2V144.9z"/>
				<path id="Trazado_151929" class="st20" d="M168.8,149.9l-3.1-1.8v-19.4l3.1,1.8V149.9z"/>
			</g>
		</g>
		<g id="Grupo_86543" transform="translate(970.333 136.552)">
			<g>
				<defs>
					<polygon id="SVGID_00000028307652166892038120000009604745818512043909_" points="132.6,100.2 132.6,151.1 203.1,110.4 
						203.1,59.4 					"/>
				</defs>
				<clipPath id="SVGID_00000034062589421514286000000011105133530345413786_">
					<use xlink:href="#SVGID_00000028307652166892038120000009604745818512043909_"  style="overflow:visible;"/>
				</clipPath>
				<g id="Grupo_86542" style="clip-path:url(#SVGID_00000034062589421514286000000011105133530345413786_);">
					
						<linearGradient id="Rectángulo_7724_00000098944009726857154630000003353245358100886189_" gradientUnits="userSpaceOnUse" x1="-105.7158" y1="600.9182" x2="-105.7038" y2="600.9182" gradientTransform="matrix(83.3632 -13.6542 -16.4687 -100.5462 18711.3301 59108.9688)">
						<stop  offset="0" style="stop-color:#3FA9F5"/>
						<stop  offset="1" style="stop-color:#65D8FF"/>
					</linearGradient>
					
						<polygon id="Rectángulo_7724" style="fill:url(#Rectángulo_7724_00000098944009726857154630000003353245358100886189_);" points="
						117.9,61.8 201.3,48.2 217.8,148.7 134.4,162.4 					"/>
				</g>
			</g>
		</g>
	</g>
	<g id="Grupo_86578" transform="translate(970.333 136.552)">
		<g>
			<defs>
				<rect id="SVGID_00000078751995960724027070000010479238844337109660_" y="0" width="384.3" height="365.9"/>
			</defs>
			<clipPath id="SVGID_00000047038559177886019660000002492547639808310931_">
				<use xlink:href="#SVGID_00000078751995960724027070000010479238844337109660_"  style="overflow:visible;"/>
			</clipPath>
			<g id="Grupo_86577" style="clip-path:url(#SVGID_00000047038559177886019660000002492547639808310931_);">
				<path id="Trazado_151931" class="st24" d="M145.6,119.4c0.4-0.2,0.7-0.6,0.7-1.1c0-0.3,0-0.5-0.1-0.8c0-0.3-0.1-0.5-0.1-0.8
					c0-0.8,0.5-1.6,1.2-2l0.2-0.1v0.5l-0.2,0.1c-0.4,0.2-0.7,0.7-0.7,1.2c0,0.2,0,0.4,0.1,0.7c0,0.2,0.1,0.5,0.1,0.7
					c0,0.5-0.2,1-0.6,1.4v0c0.4-0.1,0.6,0.1,0.6,0.7c0,0.3,0,0.5-0.1,0.8c0,0.2-0.1,0.5-0.1,0.7c0,0.5,0.2,0.7,0.7,0.5l0.2-0.1v0.5
					l-0.2,0.1c-0.7,0.4-1.2,0.4-1.2-0.6c0-0.3,0-0.6,0.1-0.8c0-0.3,0.1-0.5,0.1-0.8c0-0.3-0.1-0.7-0.7-0.3L145.6,119.4z"/>
				<path id="Trazado_151932" class="st24" d="M149.9,119.4c0-0.4,0.2-0.7,0.5-0.9c0.3-0.2,0.5,0,0.5,0.3c0,0.4-0.2,0.7-0.5,0.9
					C150.1,119.9,149.9,119.8,149.9,119.4"/>
				<path id="Trazado_151933" class="st24" d="M157.4,115.4c-0.4,0.5-0.9,0.9-1.5,1.2c-1.6,0.9-2.8,0.4-2.8-1.7c0-2.1,1.2-4,2.9-5.1
					c0.4-0.3,0.9-0.4,1.3-0.5l-0.2,0.8c-0.4,0-0.8,0.2-1.1,0.4c-1.4,0.8-2.2,2.3-2.2,4c0,1.6,0.8,2.2,2.2,1.4c0.4-0.3,0.8-0.6,1.2-1
					L157.4,115.4z"/>
				<path id="Trazado_151934" class="st24" d="M164.7,108.1c0,2-0.9,3.9-2.6,4.9c-1.5,0.9-2.5,0.1-2.5-1.8c0-2,1-3.8,2.6-4.9
					C163.7,105.3,164.7,106.1,164.7,108.1 M160.3,110.7c0,1.4,0.7,2.3,1.8,1.6c1.2-0.9,1.9-2.3,1.8-3.8c0-1.3-0.6-2.3-1.8-1.6
					C160.9,107.8,160.2,109.2,160.3,110.7"/>
				<path id="Trazado_151935" class="st24" d="M167.3,103.4c0.5-0.4,1-0.7,1.5-1c1-0.6,1.8-0.8,2.3-0.5s0.8,0.8,0.8,1.9
					c0,1.1-0.3,2.1-0.8,3c-0.6,1-1.5,1.8-2.5,2.4c-0.4,0.3-0.9,0.5-1.3,0.7L167.3,103.4z M168,108.8c0.3-0.1,0.5-0.2,0.7-0.4
					c1.5-0.8,2.4-2.4,2.4-4.2c0-1.5-0.7-2.1-2.3-1.2c-0.3,0.2-0.6,0.4-0.9,0.6L168,108.8z"/>
				<path id="Trazado_151936" class="st24" d="M177.5,100.9l-2.2,1.3v2.3l2.4-1.4v0.7l-3.2,1.8v-6.5l3-1.8v0.7l-2.3,1.3v2.1l2.2-1.3
					L177.5,100.9z"/>
				<path id="Trazado_151937" class="st24" d="M181.9,98.9c-0.4,0.2-0.7,0.6-0.7,1.1c0,0.2,0,0.5,0.1,0.7c0,0.2,0.1,0.5,0.1,0.8
					c0,0.8-0.5,1.6-1.2,2l-0.2,0.1v-0.5l0.1-0.1c0.4-0.2,0.7-0.7,0.7-1.2c0-0.2,0-0.4-0.1-0.7c0-0.2-0.1-0.5-0.1-0.7
					c0-0.5,0.2-1,0.6-1.4v0c-0.4,0.1-0.6-0.1-0.6-0.7c0-0.3,0-0.5,0.1-0.8c0-0.2,0.1-0.5,0.1-0.7c0-0.5-0.2-0.7-0.7-0.4l-0.2,0.1V96
					l0.2-0.1c0.7-0.4,1.2-0.3,1.2,0.6c0,0.3,0,0.6-0.1,0.8c0,0.3-0.1,0.6-0.1,0.9c0,0.3,0.1,0.7,0.7,0.3L181.9,98.9z"/>
				<path id="Trazado_151938" class="st24" d="M183.9,101.5c0.2-0.9,0.4-1.7,0.5-2.6l0.8-0.6c-0.2,1-0.5,1.9-0.8,2.8L183.9,101.5z
					 M184.3,96.2c0-0.4,0.2-0.7,0.5-0.9c0.3-0.2,0.5,0,0.5,0.3c0,0.4-0.2,0.7-0.5,0.9C184.5,96.6,184.3,96.5,184.3,96.2"/>
				<path id="Trazado_151939" class="st36" d="M203.2,110.3l-70.6,40.8l-0.6-0.3l70.6-40.8L203.2,110.3z"/>
				<path id="Trazado_151940" class="st42" d="M203.3,110.4l-0.7-0.4V59l0.7,0.4V110.4z"/>
				<path id="Trazado_151941" class="st17" d="M206.1,56.7c0-1.3-0.9-1.9-2.1-1.2l-72.4,41.8c-1.2,0.8-2,2.1-2.1,3.6v53
					c0,1.3,0.9,1.9,2.1,1.2l72.4-41.8c1.2-0.8,2-2.1,2.1-3.6L206.1,56.7z M132.6,151.1v-50.9l70.6-40.7v50.9L132.6,151.1z"/>
				<g id="Grupo_86549" class="st3">
					<g id="Grupo_86548">
						<g>
							<defs>
								<rect id="SVGID_00000136391134555857273920000000472566235512955582_" x="118.6" y="182.4" width="59.8" height="34.4"/>
							</defs>
							<clipPath id="SVGID_00000110452317712257630340000006334578256756801155_">
								<use xlink:href="#SVGID_00000136391134555857273920000000472566235512955582_"  style="overflow:visible;"/>
							</clipPath>
							<g id="Grupo_86547" style="clip-path:url(#SVGID_00000110452317712257630340000006334578256756801155_);">
								<path id="Trazado_151976" class="st44" d="M177.6,200.9l-32.5-18c-1.4-0.7-3-0.7-4.3,0l-21.3,11.6c-0.8,0.6-1.1,1.7-0.5,2.5
									c0.2,0.3,0.4,0.5,0.7,0.6l32.3,18.6c1.4,0.7,3,0.7,4.3,0l21.1-12.2c0.9-0.5,1.3-1.6,0.8-2.5
									C178.1,201.4,177.9,201.1,177.6,200.9"/>
							</g>
						</g>
					</g>
				</g>
				<path id="Trazado_151977" class="st45" d="M177.4,203.2l-21.1,12.2c-1.4,0.7-3,0.7-4.3,0l-32.3-18.6c-0.9-0.5-1.3-1.6-0.8-2.5
					c0.1-0.3,0.3-0.5,0.6-0.7l21.3-11.6c1.4-0.7,3-0.7,4.3,0l32.5,18c0.8,0.6,1,1.7,0.4,2.6C177.9,202.9,177.6,203.1,177.4,203.2"/>
				<path id="Trazado_151978" class="st46" d="M177.4,202.3l-21.1,12.2c-1.4,0.7-3,0.7-4.3,0l-32.3-18.6c-0.7-0.2-1.1-1-0.8-1.7
					c0.1-0.4,0.4-0.7,0.8-0.8l21.1-12.2c1.4-0.7,3-0.7,4.3,0l32.3,18.6c0.7,0.2,1.1,1,0.8,1.7C178.1,201.9,177.8,202.2,177.4,202.3"
					/>
				<g id="Grupo_86552" class="st47">
					<g id="Grupo_86551">
						<g>
							<defs>
								<rect id="SVGID_00000168097319706486987320000006826717974815585179_" x="121.8" y="182.4" width="52" height="30"/>
							</defs>
							<clipPath id="SVGID_00000072992419259055560760000008497622485446105513_">
								<use xlink:href="#SVGID_00000168097319706486987320000006826717974815585179_"  style="overflow:visible;"/>
							</clipPath>
							<g id="Grupo_86550" style="clip-path:url(#SVGID_00000072992419259055560760000008497622485446105513_);">
								<path id="Trazado_151979" class="st13" d="M152.7,212.5l-30.9-17.9l21.1-12.2l30.9,17.9L152.7,212.5z"/>
							</g>
						</g>
					</g>
				</g>
				<g id="Grupo_86557">
					<g id="Grupo_86556">
						<g>
							<defs>
								<rect id="SVGID_00000161617364059273638260000013292688344094837632_" x="121.8" y="182.4" width="34.7" height="24.5"/>
							</defs>
							<clipPath id="SVGID_00000126293702068563943040000004091784790306391473_">
								<use xlink:href="#SVGID_00000161617364059273638260000013292688344094837632_"  style="overflow:visible;"/>
							</clipPath>
							<g id="Grupo_86555" style="clip-path:url(#SVGID_00000126293702068563943040000004091784790306391473_);">
								<g id="Grupo_86554">
									<g>
										<defs>
											<path id="SVGID_00000031906648339343501680000000933497396778037664_" d="M156.5,190.2l-13.5-7.8l-21.1,12.2l21.3,12.3
												c0-0.2,0.1-0.4,0.1-0.6C145.2,199.4,150,193.6,156.5,190.2"/>
										</defs>
										<clipPath id="SVGID_00000031927238831560263580000011734510543511385010_">
											<use xlink:href="#SVGID_00000031906648339343501680000000933497396778037664_"  style="overflow:visible;"/>
										</clipPath>
										<g id="Grupo_86553" style="clip-path:url(#SVGID_00000031927238831560263580000011734510543511385010_);">
											
												<image style="overflow:visible;enable-background:new    ;" width="54" height="52" id="Rectángulo_7728" xlink:href="C7D7EB7E.png"  transform="matrix(1 0 0 1 112 168.938)">
											</image>
										</g>
									</g>
								</g>
							</g>
						</g>
					</g>
				</g>
				<path id="Trazado_151981" class="st51" d="M165.9,206.9c0.3,0.1,0.4,0.4,0.3,0.7c-0.1,0.2-0.2,0.3-0.3,0.3
					c-0.6,0.3-1.2,0.3-1.8,0c-0.3-0.1-0.4-0.4-0.3-0.7c0.1-0.2,0.2-0.3,0.3-0.3C164.7,206.6,165.3,206.6,165.9,206.9"/>
				<g id="Grupo_86560" class="st3">
					<g id="Grupo_86559">
						<g>
							<defs>
								<rect id="SVGID_00000140008838118381172070000007439600216367600049_" x="224.7" y="135.3" width="16.9" height="13.8"/>
							</defs>
							<clipPath id="SVGID_00000081645834649780137620000013993126999447273640_">
								<use xlink:href="#SVGID_00000140008838118381172070000007439600216367600049_"  style="overflow:visible;"/>
							</clipPath>
							<g id="Grupo_86558" style="clip-path:url(#SVGID_00000081645834649780137620000013993126999447273640_);">
								<path id="Trazado_151982" class="st22" d="M241.5,145.1L241.5,145.1L241.5,145.1c-0.1-0.5-0.2-0.9-0.4-1.4
									c0-0.1,0-0.1-0.1-0.2c0-0.1-0.1-0.2-0.1-0.4c0-0.1-0.1-0.2-0.1-0.2c0-0.1-0.1-0.2-0.2-0.3c0-0.1-0.1-0.2-0.1-0.3
									c-0.1-0.1-0.1-0.2-0.2-0.3s-0.1-0.2-0.2-0.3s-0.1-0.2-0.2-0.3s-0.1-0.2-0.2-0.3c-0.1-0.1-0.1-0.2-0.2-0.3
									c-0.1-0.2-0.3-0.4-0.4-0.6c0-0.1-0.1-0.1-0.1-0.2c-0.1-0.1-0.2-0.3-0.3-0.4c-0.1-0.1-0.1-0.1-0.2-0.2
									c-0.1-0.1-0.2-0.2-0.3-0.3c-0.1-0.1-0.1-0.1-0.2-0.2c-0.1-0.1-0.2-0.2-0.3-0.3c-0.1-0.1-0.1-0.1-0.2-0.2
									c-0.1-0.1-0.2-0.2-0.3-0.3c-0.1-0.1-0.1-0.1-0.2-0.2c-0.1-0.1-0.2-0.2-0.4-0.3c-0.1,0-0.1-0.1-0.2-0.1
									c-0.2-0.1-0.4-0.3-0.6-0.4c-0.7-0.4-1.4-0.8-2.1-1.1l0,0c0,0,0,0-0.1,0c-0.1-0.1-0.3-0.1-0.4-0.2c-0.2-0.1-0.4-0.1-0.5-0.2
									c-0.1,0-0.2-0.1-0.2-0.1c-0.1,0-0.1,0-0.2,0c-0.2-0.1-0.4-0.1-0.6-0.1c-0.1,0-0.2-0.1-0.3-0.1c-0.3,0-0.5-0.1-0.8-0.1
									c0,0,0,0-0.1,0c-0.1,0-0.1,0-0.2,0c-0.2,0-0.4,0-0.6,0.1c-0.1,0-0.2,0-0.3,0.1c-0.2,0-0.4,0.1-0.6,0.2
									c-0.1,0-0.2,0.1-0.3,0.1c-0.3,0.1-0.6,0.2-0.8,0.4c-0.2,0.1-0.4,0.3-0.6,0.4c0,0-0.1,0.1-0.1,0.1l-0.1,0l0,0
									c-0.2,0.1-0.3,0.3-0.5,0.4c0,0,0,0,0,0c-0.1,0.1-0.1,0.1-0.2,0.2l0,0c-0.1,0.1-0.2,0.2-0.3,0.3c0,0,0,0-0.1,0.1
									c-0.2,0.2-0.3,0.4-0.5,0.6l0,0c-1,1.4-1.2,3.2-0.5,4.7c0,0,6,4.8,9.6,5.9s7-0.4,7-2.6C241.6,145.8,241.5,145.4,241.5,145.1"
									/>
							</g>
						</g>
					</g>
				</g>
				<path id="Trazado_151983" class="st53" d="M224.7,142.4c0,0,6.1,4.7,9.7,5.8s7-0.4,7-2.6s-2.2-7.1-5.6-9s-5.5-2.5-8-1.1
					S223.6,139.4,224.7,142.4"/>
				<path id="Trazado_151984" class="st22" d="M227.7,135.5c-2,0.9-3.3,2.9-3.4,5c0,0,0,0.1,0,0.1c0,0,6.2,4.8,9.9,5.9
					c3.3,1,6.3-0.1,7-1.9c-0.5-2.4-2.6-6.3-5.4-8C232.4,134.7,230.2,134.1,227.7,135.5"/>
				<path id="Trazado_151985" class="st24" d="M227.7,135.5c-1.1,0.6-2.1,1.5-2.8,2.6c0.7,0.4,1.4,0.7,2.2,0.9c3.3,1,6.3-0.1,7-1.9
					c0.2-0.8,0-1.1-0.5-1.6C231.4,134.5,229.6,134.5,227.7,135.5"/>
				<path id="Trazado_151986" class="st54" d="M230.5,135.7c0.9,0.6,1.5,1.7,1.3,1.8s-1.2-0.2-2.1-0.8s-1.5-1.1-1.3-1.3
					C229,135.2,229.8,135.3,230.5,135.7"/>
				<path id="Trazado_151993" class="st55" d="M100.3,149.9v3.2l2.7-1.6v0.8l-2.7,1.6v3.3l-0.8,0.4v-3.3l-2.7,1.6v-0.8l2.7-1.6v-3.2
					L100.3,149.9z"/>
			</g>
		</g>
	</g>
	<rect id="Rectángulo_7738" x="970.3" y="136.6" class="st56" width="384.3" height="365.9"/>
</g>
</svg>
