<svg xmlns="http://www.w3.org/2000/svg" width="349.17" height="450.082" viewBox="0 0 349.17 450.082">
  <g id="Grupo_68315" data-name="Grupo 68315" transform="translate(0 0)">
    <ellipse id="Elipse_9" data-name="Elipse 9" cx="7.819" cy="8.335" rx="7.819" ry="8.335" transform="translate(0.001 354.456) rotate(-45)" fill="#856de9" opacity="0.5"/>
    <path id="Trazado_151030" data-name="Trazado 151030" d="M-829,3187.345a41.919,41.919,0,0,1,41.92,41.919A41.919,41.919,0,0,1-829,3271.183a41.919,41.919,0,0,1-41.919-41.919A41.919,41.919,0,0,1-829,3187.345Zm0,11.161a30.757,30.757,0,0,0-30.757,30.758A30.758,30.758,0,0,0-829,3260.021a30.758,30.758,0,0,0,30.758-30.758A30.757,30.757,0,0,0-829,3198.506Z" transform="translate(1000.918 -2821.101)" fill="#7ff9ff" fill-rule="evenodd" opacity="0.95"/>
    <path id="Trazado_151031" data-name="Trazado 151031" d="M-464.981,2729.556a5.957,5.957,0,0,1,5.957,5.957,5.957,5.957,0,0,1-5.957,5.957,5.957,5.957,0,0,1-5.957-5.957A5.957,5.957,0,0,1-464.981,2729.556Z" transform="translate(808.194 -2691.929)" fill="#d1fff1" fill-rule="evenodd"/>
    <path id="Trazado_151032" data-name="Trazado 151032" d="M-946.673,2797.624A17.776,17.776,0,0,1-928.9,2815.4a17.776,17.776,0,0,1-17.776,17.776,17.776,17.776,0,0,1-17.776-17.776,17.776,17.776,0,0,1,17.776-17.776Zm0,4.733a13.043,13.043,0,0,0-13.043,13.043,13.043,13.043,0,0,0,13.043,13.043,13.043,13.043,0,0,0,13.044-13.043A13.043,13.043,0,0,0-946.673,2802.357Z" transform="translate(1021.755 -2693.39)" fill="#18b6fe" fill-rule="evenodd"/>
    <path id="Trazado_151033" data-name="Trazado 151033" d="M-610.583,2677.6a9.985,9.985,0,0,1,9.985,9.985,9.985,9.985,0,0,1-9.985,9.985,9.985,9.985,0,0,1-9.985-9.985,9.985,9.985,0,0,1,9.985-9.985Zm0,2.659a7.327,7.327,0,0,0-7.326,7.327,7.326,7.326,0,0,0,7.326,7.326,7.326,7.326,0,0,0,7.327-7.326A7.327,7.327,0,0,0-610.583,2680.259Z" transform="translate(904.739 -2677.601)" fill="#fff" fill-rule="evenodd"/>
  </g>
</svg>
