<svg xmlns="http://www.w3.org/2000/svg" width="62.366" height="62.366" viewBox="0 0 62.366 62.366">
  <g id="Grupo_90360" data-name="Grupo 90360" transform="translate(7716.748 5363.316)">
    <path id="Trazado_158153" data-name="Trazado 158153" d="M25.006,118.362a25.664,25.664,0,0,1,6.271-2.7l1.311-6.194,10.472-.147,1.486,6.154A25.667,25.667,0,0,1,50.892,118l5.3-3.451,7.509,7.3-3.3,5.4a25.637,25.637,0,0,1,2.7,6.272l6.194,1.311.148,10.472-6.154,1.486a25.64,25.64,0,0,1-2.522,6.345l3.451,5.3-7.3,7.51-5.4-3.3a25.639,25.639,0,0,1-6.272,2.7l-1.311,6.193-10.472.148-1.486-6.154a25.672,25.672,0,0,1-6.345-2.522l-5.3,3.451-7.51-7.3,3.3-5.4a25.627,25.627,0,0,1-2.7-6.272l-6.193-1.311-.148-10.472,6.154-1.486a25.685,25.685,0,0,1,2.522-6.345l-3.451-5.3,7.3-7.51Z" transform="translate(-7723.829 -5472.637)" fill="#7b65d8" fill-rule="evenodd"/>
    <text id="_1" data-name="1" transform="translate(-7695 -5352)" fill="#fff" font-size="30" font-family="Roboto-Black, Roboto" font-weight="800"><tspan x="0" y="29">1</tspan></text>
  </g>
</svg>
