<svg id="Grupo_90407" data-name="Grupo 90407" xmlns="http://www.w3.org/2000/svg" xmlns:xlink="http://www.w3.org/1999/xlink" width="64.168" height="82.748" viewBox="0 0 64.168 82.748">
  <defs>
    <clipPath id="clip-path">
      <rect id="Rect치ngulo_11564" data-name="Rect치ngulo 11564" width="64.168" height="82.748" fill="none"/>
    </clipPath>
    <clipPath id="clip-path-2">
      <rect id="Rect치ngulo_11563" data-name="Rect치ngulo 11563" width="64.168" height="82.748" transform="translate(0 0)" fill="none"/>
    </clipPath>
  </defs>
  <g id="Grupo_90406" data-name="Grupo 90406" clip-path="url(#clip-path)">
    <g id="Grupo_90405" data-name="Grupo 90405">
      <g id="Grupo_90404" data-name="Grupo 90404" clip-path="url(#clip-path-2)">
        <g id="Grupo_90403" data-name="Grupo 90403" opacity="0.8">
          <g id="Grupo_90402" data-name="Grupo 90402">
            <g id="Grupo_90401" data-name="Grupo 90401" clip-path="url(#clip-path-2)">
              <path id="Trazado_162687" data-name="Trazado 162687" d="M63.414,45.763.757,82.746,0,82.371,0,36.608,63.412,0l.739.378Z" fill="#454c61"/>
              <path id="Trazado_162688" data-name="Trazado 162688" d="M64.168,46.14.756,82.748l0-45.763L64.166.377Z" fill="#30384f"/>
              <path id="Trazado_162689" data-name="Trazado 162689" d="M6.707,41.992,4.943,43.01V41.568l1.764-1.019Z" fill="#fff"/>
              <path id="Trazado_162690" data-name="Trazado 162690" d="M32.5,27.1,8.673,40.857V39.414L32.5,25.656Z" fill="#3fa9f5"/>
              <path id="Trazado_162691" data-name="Trazado 162691" d="M6.707,45.376,4.943,46.394V44.952l1.764-1.019Z" fill="#fff"/>
              <path id="Trazado_162692" data-name="Trazado 162692" d="M19.679,37.887,8.673,44.241V42.8l11.006-6.354Z" fill="#3fa9f5"/>
              <path id="Trazado_162693" data-name="Trazado 162693" d="M6.707,48.76,4.943,49.778V48.336l1.764-1.019Z" fill="#fff"/>
              <path id="Trazado_162694" data-name="Trazado 162694" d="M25.375,37.983l-16.7,9.642V46.182l16.7-9.642Z" fill="#3fa9f5"/>
              <path id="Trazado_162695" data-name="Trazado 162695" d="M6.707,52.144,4.943,53.162V51.72L6.707,50.7Z" fill="#fff"/>
              <path id="Trazado_162696" data-name="Trazado 162696" d="M28.609,39.5,8.673,51.009V49.566L28.609,38.057Z" fill="#3fa9f5"/>
              <path id="Trazado_162697" data-name="Trazado 162697" d="M6.708,57.066,4.944,58.084V56.642l1.764-1.019Z" fill="#fff"/>
              <path id="Trazado_162698" data-name="Trazado 162698" d="M21.3,48.644,8.674,55.931V54.489L21.3,47.2Z" fill="#f5d534"/>
              <path id="Trazado_162699" data-name="Trazado 162699" d="M6.708,60.45,4.944,61.468V60.026l1.764-1.019Z" fill="#fff"/>
              <path id="Trazado_162700" data-name="Trazado 162700" d="M31.843,45.939,8.673,59.315V57.872L31.843,44.5Z" fill="#f5d534"/>
              <path id="Trazado_162701" data-name="Trazado 162701" d="M6.708,63.834,4.944,64.852V63.41l1.764-1.019Z" fill="#fff"/>
              <path id="Trazado_162702" data-name="Trazado 162702" d="M17.806,57.427,8.674,62.7V61.256l9.132-5.272Z" fill="#f5d534"/>
              <path id="Trazado_162703" data-name="Trazado 162703" d="M6.708,67.218,4.944,68.236V66.794l1.764-1.019Z" fill="#fff"/>
              <path id="Trazado_162704" data-name="Trazado 162704" d="M25.008,56.653,8.674,66.083V64.64l16.335-9.43Z" fill="#f5d534"/>
              <path id="Trazado_162705" data-name="Trazado 162705" d="M44.264,19.968l1.345-.777v-1.1l-1.345.777Z" fill="#fff"/>
              <path id="Trazado_162706" data-name="Trazado 162706" d="M56.464,11.825l-9.356,5.4v1.1l9.356-5.4Z" fill="#fff"/>
              <path id="Trazado_162707" data-name="Trazado 162707" d="M44.264,22.549l1.345-.777v-1.1l-1.345.777Z" fill="#fff"/>
              <path id="Trazado_162708" data-name="Trazado 162708" d="M51.429,17.312l-4.321,2.494v1.1l4.321-2.495Z" fill="#fff"/>
              <path id="Trazado_162709" data-name="Trazado 162709" d="M44.264,25.13l1.345-.777v-1.1l-1.345.777Z" fill="#fff"/>
              <path id="Trazado_162710" data-name="Trazado 162710" d="M53.665,18.6l-6.557,3.785v1.1L53.665,19.7Z" fill="#fff"/>
              <path id="Trazado_162711" data-name="Trazado 162711" d="M44.264,27.711l1.345-.777v-1.1l-1.345.777Z" fill="#fff"/>
              <path id="Trazado_162712" data-name="Trazado 162712" d="M54.935,20.45l-7.826,4.518v1.1l7.826-4.519Z" fill="#fff"/>
              <path id="Trazado_162713" data-name="Trazado 162713" d="M44.264,31.465l1.345-.777v-1.1l-1.345.777Z" fill="#fff"/>
              <path id="Trazado_162714" data-name="Trazado 162714" d="M53.207,25.2l-6.1,3.52v1.1l6.1-3.521Z" fill="#fff"/>
              <path id="Trazado_162715" data-name="Trazado 162715" d="M44.264,34.046l1.345-.777v-1.1l-1.345.777Z" fill="#fff"/>
              <path id="Trazado_162716" data-name="Trazado 162716" d="M47.109,31.3v1.1L58.3,25.942v-1.1Z" fill="#fff"/>
              <path id="Trazado_162717" data-name="Trazado 162717" d="M44.264,36.626l1.345-.777v-1.1l-1.345.777Z" fill="#fff"/>
              <path id="Trazado_162718" data-name="Trazado 162718" d="M51.52,31.337l-4.411,2.547v1.1l4.411-2.547Z" fill="#fff"/>
              <path id="Trazado_162719" data-name="Trazado 162719" d="M44.264,39.207l1.345-.777v-1.1l-1.345.777Z" fill="#fff"/>
              <path id="Trazado_162720" data-name="Trazado 162720" d="M47.109,37.565,55,33.01v-1.1l-7.891,4.556Z" fill="#fff"/>
            </g>
          </g>
        </g>
      </g>
    </g>
  </g>
</svg>
