<svg id="Grupo_90482" data-name="Grupo 90482" xmlns="http://www.w3.org/2000/svg" xmlns:xlink="http://www.w3.org/1999/xlink" width="64.168" height="82.748" viewBox="0 0 64.168 82.748">
  <defs>
    <clipPath id="clip-path">
      <rect id="Rect치ngulo_11595" data-name="Rect치ngulo 11595" width="64.168" height="82.748" fill="none"/>
    </clipPath>
    <clipPath id="clip-path-2">
      <rect id="Rect치ngulo_11594" data-name="Rect치ngulo 11594" width="64.168" height="82.748" transform="translate(0 0)" fill="none"/>
    </clipPath>
  </defs>
  <g id="Grupo_90481" data-name="Grupo 90481" clip-path="url(#clip-path)">
    <g id="Grupo_90480" data-name="Grupo 90480">
      <g id="Grupo_90479" data-name="Grupo 90479" clip-path="url(#clip-path-2)">
        <g id="Grupo_90478" data-name="Grupo 90478" opacity="0.8">
          <g id="Grupo_90477" data-name="Grupo 90477">
            <g id="Grupo_90476" data-name="Grupo 90476" clip-path="url(#clip-path-2)">
              <path id="Trazado_162773" data-name="Trazado 162773" d="M63.414,45.763.757,82.746,0,82.371,0,36.608,63.412,0l.739.378Z" fill="#454c61"/>
              <path id="Trazado_162774" data-name="Trazado 162774" d="M64.168,46.14.756,82.748l0-45.763L64.166.377Z" fill="#30384f"/>
              <path id="Trazado_162775" data-name="Trazado 162775" d="M6.707,41.992,4.943,43.01V41.568l1.764-1.019Z" fill="#fff"/>
              <path id="Trazado_162776" data-name="Trazado 162776" d="M32.5,27.1,8.673,40.857V39.414L32.5,25.656Z" fill="#f5d534"/>
              <path id="Trazado_162777" data-name="Trazado 162777" d="M6.707,45.376,4.943,46.394V44.952l1.764-1.019Z" fill="#fff"/>
              <path id="Trazado_162778" data-name="Trazado 162778" d="M19.679,37.887,8.673,44.241V42.8l11.006-6.354Z" fill="#f5d534"/>
              <path id="Trazado_162779" data-name="Trazado 162779" d="M6.707,48.76,4.943,49.778V48.336l1.764-1.019Z" fill="#fff"/>
              <path id="Trazado_162780" data-name="Trazado 162780" d="M25.375,37.983l-16.7,9.642V46.182l16.7-9.642Z" fill="#f5d534"/>
              <path id="Trazado_162781" data-name="Trazado 162781" d="M6.707,52.144,4.943,53.162V51.72L6.707,50.7Z" fill="#fff"/>
              <path id="Trazado_162782" data-name="Trazado 162782" d="M28.609,39.5,8.673,51.009V49.566L28.609,38.057Z" fill="#f5d534"/>
              <path id="Trazado_162783" data-name="Trazado 162783" d="M6.708,57.066,4.944,58.084V56.642l1.764-1.019Z" fill="#fff"/>
              <path id="Trazado_162784" data-name="Trazado 162784" d="M21.3,48.644,8.674,55.931V54.489L21.3,47.2Z" fill="#ff6469"/>
              <path id="Trazado_162785" data-name="Trazado 162785" d="M6.708,60.45,4.944,61.468V60.026l1.764-1.019Z" fill="#fff"/>
              <path id="Trazado_162786" data-name="Trazado 162786" d="M31.843,45.939,8.673,59.315V57.872L31.843,44.5Z" fill="#ff6469"/>
              <path id="Trazado_162787" data-name="Trazado 162787" d="M6.708,63.834,4.944,64.852V63.41l1.764-1.019Z" fill="#fff"/>
              <path id="Trazado_162788" data-name="Trazado 162788" d="M17.806,57.427,8.674,62.7V61.256l9.132-5.272Z" fill="#ff6469"/>
              <path id="Trazado_162789" data-name="Trazado 162789" d="M6.708,67.218,4.944,68.236V66.794l1.764-1.019Z" fill="#fff"/>
              <path id="Trazado_162790" data-name="Trazado 162790" d="M25.008,56.653,8.674,66.083V64.64l16.335-9.43Z" fill="#ff6469"/>
              <path id="Trazado_162791" data-name="Trazado 162791" d="M44.264,19.968l1.345-.777v-1.1l-1.345.777Z" fill="#fff"/>
              <path id="Trazado_162792" data-name="Trazado 162792" d="M56.464,11.825l-9.356,5.4v1.1l9.356-5.4Z" fill="#fff"/>
              <path id="Trazado_162793" data-name="Trazado 162793" d="M44.264,22.549l1.345-.777v-1.1l-1.345.777Z" fill="#fff"/>
              <path id="Trazado_162794" data-name="Trazado 162794" d="M51.429,17.312l-4.321,2.494v1.1l4.321-2.495Z" fill="#fff"/>
              <path id="Trazado_162795" data-name="Trazado 162795" d="M44.264,25.13l1.345-.777v-1.1l-1.345.777Z" fill="#fff"/>
              <path id="Trazado_162796" data-name="Trazado 162796" d="M53.665,18.6l-6.557,3.785v1.1L53.665,19.7Z" fill="#fff"/>
              <path id="Trazado_162797" data-name="Trazado 162797" d="M44.264,27.711l1.345-.777v-1.1l-1.345.777Z" fill="#fff"/>
              <path id="Trazado_162798" data-name="Trazado 162798" d="M54.935,20.45l-7.826,4.518v1.1l7.826-4.519Z" fill="#fff"/>
              <path id="Trazado_162799" data-name="Trazado 162799" d="M44.264,31.465l1.345-.777v-1.1l-1.345.777Z" fill="#fff"/>
              <path id="Trazado_162800" data-name="Trazado 162800" d="M53.207,25.2l-6.1,3.52v1.1l6.1-3.521Z" fill="#fff"/>
              <path id="Trazado_162801" data-name="Trazado 162801" d="M44.264,34.046l1.345-.777v-1.1l-1.345.777Z" fill="#fff"/>
              <path id="Trazado_162802" data-name="Trazado 162802" d="M47.109,31.3v1.1L58.3,25.941v-1.1Z" fill="#fff"/>
              <path id="Trazado_162803" data-name="Trazado 162803" d="M44.264,36.626l1.345-.777v-1.1l-1.345.777Z" fill="#fff"/>
              <path id="Trazado_162804" data-name="Trazado 162804" d="M51.52,31.337l-4.411,2.547v1.1l4.411-2.547Z" fill="#fff"/>
              <path id="Trazado_162805" data-name="Trazado 162805" d="M44.264,39.207l1.345-.777v-1.1l-1.345.777Z" fill="#fff"/>
              <path id="Trazado_162806" data-name="Trazado 162806" d="M47.109,37.565,55,33.009v-1.1l-7.891,4.556Z" fill="#fff"/>
            </g>
          </g>
        </g>
      </g>
    </g>
  </g>
</svg>
