<svg id="Grupo_90448" data-name="Grupo 90448" xmlns="http://www.w3.org/2000/svg" xmlns:xlink="http://www.w3.org/1999/xlink" width="64.168" height="82.746" viewBox="0 0 64.168 82.746">
  <defs>
    <clipPath id="clip-path">
      <rect id="Rect치ngulo_11581" data-name="Rect치ngulo 11581" width="64.168" height="82.746" fill="none"/>
    </clipPath>
    <clipPath id="clip-path-2">
      <rect id="Rect치ngulo_11580" data-name="Rect치ngulo 11580" width="64.168" height="82.746" transform="translate(0 0)" fill="none"/>
    </clipPath>
  </defs>
  <g id="Grupo_90447" data-name="Grupo 90447" clip-path="url(#clip-path)">
    <g id="Grupo_90446" data-name="Grupo 90446">
      <g id="Grupo_90445" data-name="Grupo 90445" clip-path="url(#clip-path-2)">
        <g id="Grupo_90444" data-name="Grupo 90444" opacity="0.8">
          <g id="Grupo_90443" data-name="Grupo 90443">
            <g id="Grupo_90442" data-name="Grupo 90442" clip-path="url(#clip-path-2)">
              <path id="Trazado_162746" data-name="Trazado 162746" d="M63.414,45.763.757,82.746,0,82.371,0,36.608,63.412,0l.739.378Z" fill="#75c1f8"/>
              <path id="Trazado_162747" data-name="Trazado 162747" d="M64.168,46.133.756,82.741l0-45.763L64.166.37Z" fill="#fff"/>
              <path id="Trazado_162748" data-name="Trazado 162748" d="M64.166,4.783.754,41.391V36.978L64.166.37Z" fill="#3fa9f5"/>
              <path id="Trazado_162749" data-name="Trazado 162749" d="M31.246,30.942,6.551,45.2v-.984L31.246,29.958Z" fill="#898e9b"/>
              <path id="Trazado_162750" data-name="Trazado 162750" d="M31.246,35.188,6.551,49.444V48.46L31.246,34.2Z" fill="#898e9b"/>
              <path id="Trazado_162751" data-name="Trazado 162751" d="M31.246,39.433,6.551,53.689v-.984L31.246,38.449Z" fill="#898e9b"/>
              <path id="Trazado_162752" data-name="Trazado 162752" d="M31.246,43.678,6.551,57.934V56.95L31.246,42.694Z" fill="#898e9b"/>
              <path id="Trazado_162753" data-name="Trazado 162753" d="M31.246,47.924,6.551,62.18V61.2L31.246,46.94Z" fill="#898e9b"/>
              <path id="Trazado_162754" data-name="Trazado 162754" d="M58.661,42.035,37.935,54V24.977L58.66,13.012Z" fill="#a9d8fa"/>
              <path id="Trazado_162755" data-name="Trazado 162755" d="M31.247,52.169,6.552,66.425v-.984L31.247,51.185Z" fill="#898e9b"/>
            </g>
          </g>
        </g>
      </g>
    </g>
  </g>
</svg>
