<svg xmlns="http://www.w3.org/2000/svg" xmlns:xlink="http://www.w3.org/1999/xlink" width="301.042" height="99.236" viewBox="0 0 301.042 99.236">
  <defs>
    <clipPath id="clip-path">
      <rect id="Rect치ngulo_11409" data-name="Rect치ngulo 11409" width="98.803" height="98.803" transform="translate(0.033)" fill="none"/>
    </clipPath>
    <clipPath id="clip-path-3">
      <rect id="Rect치ngulo_11410" data-name="Rect치ngulo 11410" width="89.309" height="89.31" transform="translate(4.734 5.193)" fill="none"/>
    </clipPath>
  </defs>
  <g id="Grupo_90508" data-name="Grupo 90508" transform="translate(-303.62 -1119.273)">
    <path id="Trazado_161027" data-name="Trazado 161027" d="M296.009,77.174H26.445a5.033,5.033,0,0,1-5.033-5.033V30.7a5.033,5.033,0,0,1,5.033-5.033H296.009a5.033,5.033,0,0,1,5.033,5.033V72.141a5.033,5.033,0,0,1-5.033,5.033" transform="translate(303.62 1119.273)" fill="#18b6fe"/>
    <g id="Grupo_89989" data-name="Grupo 89989" transform="translate(303.62 1119.273)" opacity="0.6" style="mix-blend-mode: multiply;isolation: isolate">
      <g id="Grupo_89988" data-name="Grupo 89988">
        <g id="Grupo_89987" data-name="Grupo 89987" clip-path="url(#clip-path)">
          <g id="Grupo_89986" data-name="Grupo 89986">
            <g id="Grupo_89985" data-name="Grupo 89985">
              <g id="Grupo_89984" data-name="Grupo 89984" clip-path="url(#clip-path)">
                <path id="Trazado_161028" data-name="Trazado 161028" d="M96.512,64.331A49.388,49.388,0,1,1,64.363,2.324,49.388,49.388,0,0,1,96.512,64.331" fill="gray"/>
              </g>
            </g>
          </g>
        </g>
      </g>
    </g>
    <path id="Trazado_161029" data-name="Trazado 161029" d="M98.777,49.848A49.389,49.389,0,1,1,49.388.46,49.388,49.388,0,0,1,98.777,49.848" transform="translate(303.62 1119.273)" fill="#18b6fe"/>
    <g id="Grupo_89992" data-name="Grupo 89992" transform="translate(303.62 1119.273)" opacity="0.3">
      <g id="Grupo_89991" data-name="Grupo 89991">
        <g id="Grupo_89990" data-name="Grupo 89990" clip-path="url(#clip-path-3)">
          <path id="Trazado_161030" data-name="Trazado 161030" d="M91.568,63.224a44.249,44.249,0,1,1-28.8-55.555A44.248,44.248,0,0,1,91.568,63.224Z" fill="none" stroke="#fff" stroke-miterlimit="10" stroke-width="0.786"/>
        </g>
      </g>
    </g>
    <path id="Trazado_161031" data-name="Trazado 161031" d="M29.517,26.406c.211-2.537,1.074-3.629,2.79-3.6,1.687.025,2.553,1.163,2.68,3.6h1.781c0-.323-.005-.616,0-.909a2.7,2.7,0,0,1,5.4-.03c.008.3,0,.59,0,.913H53c0-.31-.007-.621,0-.932a2.7,2.7,0,0,1,5.4.012c.009.3,0,.592,0,.917H60.21c0-.3-.008-.612,0-.922a2.7,2.7,0,0,1,5.4,0c.009.3,0,.593,0,.952h5.942c1,0,1.266.267,1.272,1.265,0,.149,0,.3,0,.539.795,0,1.575,0,2.355,0,.966,0,1.251.279,1.251,1.228q0,23.1,0,46.2c0,.987-.275,1.256-1.28,1.256q-24.876,0-49.751,0c-.991,0-1.258-.273-1.26-1.276,0-.75,0-1.5,0-2.331-.3,0-.573.01-.845,0a.906.906,0,0,1-.956-.955c-.007-.15,0-.3,0-.451V27.82c0-1.194.218-1.414,1.4-1.414h5.771M71,39.068H24.189V71.457H71ZM24.174,37.185H71v-8.94H62.013c0,.294-.007.554,0,.814a.906.906,0,0,0,.847.951c.675.115,1.017.493.943,1.021a.98.98,0,0,1-1.235.767,2.726,2.726,0,0,1-2.357-2.616c-.01-.312,0-.625,0-.93H54.8c0,.3-.009.567,0,.829a.9.9,0,0,0,.812.925c.724.138,1.065.506.975,1.048-.094.562-.613.852-1.31.731A2.722,2.722,0,0,1,53,29.1c-.006-.291,0-.583,0-.863H38.572c0,.288,0,.547,0,.806a.907.907,0,0,0,.835.962c.7.125,1.053.524.948,1.067s-.6.82-1.272.715a2.725,2.725,0,0,1-2.315-2.653c-.007-.294,0-.589,0-.891H31.359c0,.3-.008.56,0,.821a.908.908,0,0,0,.856.944c.667.11,1.013.5.933,1.03a.986.986,0,0,1-1.244.755,2.726,2.726,0,0,1-2.348-2.624c-.01-.311,0-.624,0-.936H24.174ZM72.83,30.039V71.875c0,1.191-.221,1.414-1.4,1.414H25.948v1.758H74.605V30.039ZM31.379,26.375h1.735c.14-1.194-.13-1.753-.836-1.767s-.964.488-.9,1.767m7.223.031h1.731c.116-1.256-.153-1.793-.856-1.8s-.966.512-.875,1.8m16.234-.039h1.738c.087-1.245-.179-1.764-.88-1.759s-.97.54-.858,1.759m8.974.039c-.031-.654.21-1.336-.484-1.664a1.115,1.115,0,0,0-.926.061c-.586.381-.371,1.009-.357,1.6H63.81Z" transform="translate(303.62 1119.273)" fill="#fff"/>
    <path id="Trazado_161032" data-name="Trazado 161032" d="M40.379,64.174c.2-1.638.389-3.279.619-4.914.258-1.829.276-1.827-1.044-3.147q-1.791-1.794-3.586-3.583c-.333-.33-.633-.664-.443-1.179.176-.478.574-.572,1.032-.627q3.045-.361,6.083-.78a.933.933,0,0,0,.583-.411c1-1.7,1.966-3.413,2.941-5.124.234-.41.439-.857,1.007-.864.6-.007.808.461,1.051.887.966,1.695,1.941,3.384,2.9,5.084a.8.8,0,0,0,.692.458c2.012.232,4.019.507,6.03.748.462.056.852.175,1.014.655s-.11.816-.429,1.134c-1.5,1.5-2.995,3.006-4.507,4.494a.946.946,0,0,0-.318.887c.262,1.971.5,3.946.753,5.918.061.47.079.909-.367,1.209a1.049,1.049,0,0,1-1.207-.113c-1.673-.965-3.36-1.908-5.023-2.89a.95.95,0,0,0-1.116-.011c-1.727,1.021-3.475,2.009-5.225,2.99a.9.9,0,0,1-1.438-.821m12.4-1.584c-.225-1.783-.422-3.44-.65-5.092a1.357,1.357,0,0,1,.41-1.268c1.183-1.154,2.343-2.331,3.509-3.5.111-.111.207-.235.362-.412-1.744-.223-3.4-.452-5.054-.637a1.314,1.314,0,0,1-1.1-.741c-.774-1.393-1.574-2.772-2.368-4.155-.087-.152-.191-.293-.321-.491-.919,1.6-1.8,3.13-2.665,4.666a1.227,1.227,0,0,1-1.056.715c-.579.04-1.154.137-1.731.211l-3.363.433c.183.2.3.34.43.468,1.154,1.157,2.305,2.316,3.468,3.463a1.215,1.215,0,0,1,.408,1.108c-.1.705-.193,1.412-.281,2.12-.125,1.007-.243,2.014-.375,3.112,1.463-.834,2.855-1.572,4.186-2.408a1.675,1.675,0,0,1,2.01.005c1.337.827,2.724,1.573,4.181,2.4" transform="translate(303.62 1119.273)" fill="#fff"/>
    <path id="Trazado_162825" data-name="Trazado 162825" d="M4.254,17H1.178V4.2H4.254ZM9.062,7.49l.1,1.116a3.27,3.27,0,0,1,2.716-1.292,2.407,2.407,0,0,1,2.435,1.433A3.165,3.165,0,0,1,17.1,7.314q2.892,0,2.971,3.5V17H17.1V11a1.813,1.813,0,0,0-.246-1.063,1.048,1.048,0,0,0-.9-.334,1.4,1.4,0,0,0-1.31.782l.009.123V17H11.689V11.015a1.906,1.906,0,0,0-.237-1.081,1.045,1.045,0,0,0-.905-.334,1.42,1.42,0,0,0-1.3.782V17H6.284V7.49Zm21.533,4.825a5.735,5.735,0,0,1-1,3.538A3.2,3.2,0,0,1,26.9,17.176a2.742,2.742,0,0,1-2.153-.958v4.438H21.788V7.49h2.769l.088.879a2.742,2.742,0,0,1,2.241-1.055,3.224,3.224,0,0,1,2.733,1.3,5.805,5.805,0,0,1,.976,3.564Zm-2.962-.185q0-2.531-1.477-2.531a1.394,1.394,0,0,0-1.406.756V14.1a1.439,1.439,0,0,0,1.424.791q1.415,0,1.459-2.443Zm3.894.026a5.613,5.613,0,0,1,.554-2.536,3.96,3.96,0,0,1,1.591-1.709,4.791,4.791,0,0,1,2.435-.6,4.373,4.373,0,0,1,3.366,1.323,5.076,5.076,0,0,1,1.23,3.6v.105a4.925,4.925,0,0,1-1.235,3.529,4.384,4.384,0,0,1-3.344,1.305,4.434,4.434,0,0,1-3.261-1.217,4.761,4.761,0,0,1-1.327-3.3Zm2.962.185a3.538,3.538,0,0,0,.413,1.934,1.376,1.376,0,0,0,1.222.615q1.582,0,1.617-2.435v-.3q0-2.558-1.635-2.558-1.485,0-1.608,2.206ZM47.76,10.171l-.976-.07a1.752,1.752,0,0,0-1.793.879V17H42.029V7.49h2.777l.1,1.222a2.294,2.294,0,0,1,2.083-1.4,2.888,2.888,0,0,1,.826.105Zm4.957-5.045V7.49h1.564V9.547H52.717V13.9a1.111,1.111,0,0,0,.193.747,1.037,1.037,0,0,0,.765.211,4.345,4.345,0,0,0,.738-.053v2.118a5.466,5.466,0,0,1-1.67.255,3.1,3.1,0,0,1-2.259-.721,2.954,2.954,0,0,1-.729-2.188V9.547H48.542V7.49h1.213V5.126ZM60.8,17a3.344,3.344,0,0,1-.281-.853,2.754,2.754,0,0,1-2.285,1.028,3.374,3.374,0,0,1-2.285-.813,2.588,2.588,0,0,1-.94-2.043,2.66,2.66,0,0,1,1.143-2.338,5.821,5.821,0,0,1,3.322-.791h.914v-.5q0-1.316-1.134-1.316A.927.927,0,0,0,58.2,10.413H55.239a2.655,2.655,0,0,1,1.173-2.239,4.931,4.931,0,0,1,2.993-.86,4.323,4.323,0,0,1,2.874.888,3.086,3.086,0,0,1,1.081,2.435v4.21a4.311,4.311,0,0,0,.4,2V17Zm-1.854-1.934a1.652,1.652,0,0,0,.918-.237,1.487,1.487,0,0,0,.523-.536V12.772h-.861q-1.547,0-1.547,1.389a.848.848,0,0,0,.272.655A.986.986,0,0,0,58.948,15.066ZM67.72,7.49l.1,1.116a3.225,3.225,0,0,1,2.716-1.292,2.713,2.713,0,0,1,2.219.888,4.226,4.226,0,0,1,.76,2.672V17H70.541V11a1.6,1.6,0,0,0-.29-1.059A1.342,1.342,0,0,0,69.2,9.6a1.413,1.413,0,0,0-1.292.686V17H64.942V7.49Zm11.452,7.4a1.317,1.317,0,0,0,.967-.338,1.241,1.241,0,0,0,.334-.945H83.25a3.288,3.288,0,0,1-1.121,2.566,4.168,4.168,0,0,1-2.887,1,4.22,4.22,0,0,1-3.27-1.3,5.125,5.125,0,0,1-1.2-3.6v-.123A5.792,5.792,0,0,1,75.309,9.6a3.872,3.872,0,0,1,1.534-1.7,4.573,4.573,0,0,1,2.373-.593A4.116,4.116,0,0,1,82.16,8.343a3.647,3.647,0,0,1,1.09,2.786H80.473A1.626,1.626,0,0,0,80.112,10a1.244,1.244,0,0,0-.967-.4q-1.151,0-1.345,1.468a10.357,10.357,0,0,0-.062,1.283,4.068,4.068,0,0,0,.343,1.986A1.187,1.187,0,0,0,79.172,14.891ZM87.627,17H84.656V7.49h2.971ZM84.48,5.029a1.334,1.334,0,0,1,.457-1.043,1.934,1.934,0,0,1,2.373,0,1.334,1.334,0,0,1,.457,1.043,1.334,1.334,0,0,1-.457,1.043,1.934,1.934,0,0,1-2.373,0A1.334,1.334,0,0,1,84.48,5.029ZM94.808,17a3.344,3.344,0,0,1-.281-.853,2.754,2.754,0,0,1-2.285,1.028,3.374,3.374,0,0,1-2.285-.813,2.588,2.588,0,0,1-.94-2.043,2.66,2.66,0,0,1,1.143-2.338,5.821,5.821,0,0,1,3.322-.791h.914v-.5q0-1.316-1.134-1.316a.927.927,0,0,0-1.055,1.042H89.244a2.655,2.655,0,0,1,1.173-2.239,4.931,4.931,0,0,1,2.993-.86,4.323,4.323,0,0,1,2.874.888,3.086,3.086,0,0,1,1.081,2.435v4.21a4.311,4.311,0,0,0,.4,2V17Zm-1.854-1.934a1.652,1.652,0,0,0,.918-.237,1.487,1.487,0,0,0,.523-.536V12.772h-.861q-1.547,0-1.547,1.389a.848.848,0,0,0,.272.655A.986.986,0,0,0,92.953,15.066Z" transform="translate(430.518 1159.568)" fill="#fff"/>
  </g>
</svg>
