<svg xmlns="http://www.w3.org/2000/svg" xmlns:xlink="http://www.w3.org/1999/xlink" width="301.042" height="98.776" viewBox="0 0 301.042 98.776">
  <defs>
    <clipPath id="clip-path">
      <rect id="Rectángulo_11412" data-name="Rectángulo 11412" width="89.309" height="89.31" transform="translate(696.451 5.193)" fill="none"/>
    </clipPath>
  </defs>
  <g id="Grupo_90511" data-name="Grupo 90511" transform="translate(-995.337 -1119.733)">
    <path id="Trazado_161040" data-name="Trazado 161040" d="M987.726,77.174H718.163a5.033,5.033,0,0,1-5.034-5.033V30.7a5.034,5.034,0,0,1,5.034-5.033H987.726a5.033,5.033,0,0,1,5.033,5.033V72.141a5.033,5.033,0,0,1-5.033,5.033" transform="translate(303.62 1119.273)" fill="#7b65d8"/>
    <path id="Trazado_161041" data-name="Trazado 161041" d="M790.494,49.848A49.389,49.389,0,1,1,741.1.46a49.388,49.388,0,0,1,49.389,49.388" transform="translate(303.62 1119.273)" fill="#7b65d8"/>
    <g id="Grupo_89998" data-name="Grupo 89998" transform="translate(303.62 1119.273)" opacity="0.3">
      <g id="Grupo_89997" data-name="Grupo 89997">
        <g id="Grupo_89996" data-name="Grupo 89996" clip-path="url(#clip-path)">
          <path id="Trazado_161042" data-name="Trazado 161042" d="M783.285,63.224a44.249,44.249,0,1,1-28.8-55.555A44.248,44.248,0,0,1,783.285,63.224Z" fill="none" stroke="#fff" stroke-miterlimit="10" stroke-width="0.786"/>
        </g>
      </g>
    </g>
    <path id="Trazado_161043" data-name="Trazado 161043" d="M763.38,18.686c.418.1.838.193,1.253.3a9.114,9.114,0,0,1-.652,17.778c-.191.036-.38.084-.622.138,0,.555,0,1.105,0,1.656a3.077,3.077,0,0,1-3.4,3.428q-8.55,0-17.1,0h-.746V48.08h2.02c.89,0,1.781,0,2.672,0,.858,0,1.334.368,1.339,1.008s-.47,1.022-1.324,1.024q-4.484.006-8.966,0c-.97,0-1.94.009-2.909-.017a.945.945,0,0,1-.974-.868.919.919,0,0,1,.6-1.047,2.115,2.115,0,0,1,.757-.1c1.326-.009,2.653,0,3.979,0h.681V41.991h-.726c-5.7,0-11.4-.043-17.1.023a3.2,3.2,0,0,1-3.429-3.428c.03-.55.005-1.1.005-1.653-.668-.172-1.313-.281-1.916-.5a9,9,0,0,1-6.065-7.145,3.849,3.849,0,0,0-.119-.383V26.764a2.462,2.462,0,0,0,.107-.328,8.918,8.918,0,0,1,5.494-7.026,19.546,19.546,0,0,1,2.477-.724h2.139a2.047,2.047,0,0,0,.326.109,9.115,9.115,0,0,1,1.545,17.625c-.627.217-1.284.346-1.961.524,0,.541,0,1.074,0,1.606,0,1.107.307,1.414,1.408,1.414h17.817V36.9c-.231-.05-.422-.1-.615-.132a9.117,9.117,0,0,1-.6-17.8c.4-.1.8-.188,1.2-.28h2.139a2.174,2.174,0,0,0,.329.107,9.111,9.111,0,0,1,1.645,17.6c-.645.226-1.321.364-1.973.539v3.033h10.855c2.4,0,4.791,0,7.186,0,.692,0,1.106-.314,1.147-.937.048-.705.011-1.414.011-2.123-.261-.055-.473-.1-.686-.144a9.12,9.12,0,0,1-.82-17.707c.51-.146,1.034-.245,1.551-.365ZM745.406,33.314c2.17-1.375,3.258-4.728,2.453-7.477a7.091,7.091,0,0,0-13.648.061c-.775,2.735.336,6.1,2.444,7.4a5.131,5.131,0,0,1,8.751.02m21.32.012a7.077,7.077,0,0,0-4.93-12.61,7.133,7.133,0,0,0-6.39,5.556,6.853,6.853,0,0,0,2.569,7.023,5.125,5.125,0,0,1,8.751.031m-51.344,0a5.123,5.123,0,0,1,8.75-.021c2.086-1.26,3.217-4.61,2.477-7.335A7.088,7.088,0,0,0,713,25.657a6.965,6.965,0,0,0,2.382,7.665m44.336,1.072a7.029,7.029,0,0,0,5.224-.007,3.029,3.029,0,0,0-5.224.007m-42.576.006a7.1,7.1,0,0,0,5.228-.015,3.031,3.031,0,0,0-5.228.015m26.533-.01a3.055,3.055,0,0,0-5.252,0,7.183,7.183,0,0,0,5.252,0" transform="translate(303.62 1119.273)" fill="#fff"/>
    <path id="Trazado_161044" data-name="Trazado 161044" d="M710.635,58.6a3.264,3.264,0,0,1,1.816-2.13,4.263,4.263,0,0,1,1.383-.255c1.781-.029,3.564.034,5.343-.025a3.246,3.246,0,0,1,3.579,2.389c.883-.381,1.76-.723,2.6-1.131a10.6,10.6,0,0,1,5.967-1.2c1.843.225,3.673.565,5.507.86q7.262,1.167,14.522,2.331a1.658,1.658,0,0,0,.8-.093q3.58-1.336,7.15-2.708a5.17,5.17,0,0,1,5.5.835.7.7,0,0,0,.6.047c.433-.19.829-.461,1.247-.684a3.214,3.214,0,0,1,4.256.992,3.175,3.175,0,0,1-.742,4.346c-1.957,1.511-3.942,2.987-5.916,4.476-5.1,3.849-10.213,7.683-15.3,11.554a5.632,5.632,0,0,1-5.237,1.015c-6.685-1.843-13.385-3.633-20.08-5.439-.26-.07-.53-.1-.781-.148a9.034,9.034,0,0,1-.415,1.167,2.881,2.881,0,0,1-2.682,1.649c-2.018.016-4.037.023-6.056,0a2.976,2.976,0,0,1-2.942-2.154,2.073,2.073,0,0,0-.126-.254Zm12.183,12.944c.4.078.775.125,1.133.222,6.793,1.831,13.588,3.652,20.371,5.515a3.62,3.62,0,0,0,3.384-.677q8.8-6.671,17.625-13.306c1.169-.882,2.34-1.761,3.5-2.65a1.187,1.187,0,0,0,.413-1.656,1.208,1.208,0,0,0-1.724-.315c-.053.028-.1.057-.156.086l-10.122,5.721c-1.094,1.371-2.81,1.639-4.244,2.411-1.81.974-3.589,2.008-5.379,3.02a3.11,3.11,0,0,1-3.419-.087q-2.587-1.626-5.2-3.214a2.011,2.011,0,0,0-.934-.27c-1.028-.036-2.058,0-3.087-.025a1.013,1.013,0,0,1-1.036-1,1.036,1.036,0,0,1,1.038-1.008c.177-.011.356,0,.534,0q8.879,0,17.757,0a4.6,4.6,0,0,0,1.221-.182.923.923,0,0,0,.723-.966,1.113,1.113,0,0,0-.752-1.1,2.449,2.449,0,0,0-.519-.121c-7.026-1.139-14.06-2.24-21.077-3.435a10.3,10.3,0,0,0-6.745.823c-.91.473-1.875.842-2.829,1.223a.715.715,0,0,0-.517.789c.018,3.207.009,6.414.011,9.621,0,.193.016.385.025.592m-2.056-5.205c0-2.294,0-4.589,0-6.883,0-.883-.342-1.223-1.216-1.225q-2.819-.007-5.636,0c-.9,0-1.247.353-1.248,1.265q0,6.823,0,13.646c0,.944.34,1.284,1.287,1.286q2.728.007,5.458,0c1.067,0,1.356-.3,1.357-1.386q0-3.353,0-6.7m34.9-6.166,1.617,1.957,5.885-3.329a2.667,2.667,0,0,0-2.343-.5c-1.758.572-3.479,1.254-5.159,1.87m-13.008,6.177-.054.1c.986.6,1.954,1.245,2.972,1.791a1.344,1.344,0,0,0,1-.087,17.614,17.614,0,0,0,1.657-.914c.464-.265.926-.535,1.389-.8-.016-.03-.031-.061-.046-.091Z" transform="translate(303.62 1119.273)" fill="#fff"/>
    <path id="Trazado_161045" data-name="Trazado 161045" d="M741.034,28.808A3.031,3.031,0,0,1,738,25.8a3.043,3.043,0,1,1,6.085-.035,3.032,3.032,0,0,1-3.055,3.045m1.013-3.031a1,1,0,1,0-2,.035,1,1,0,0,0,2-.035" transform="translate(303.62 1119.273)" fill="#fff"/>
    <path id="Trazado_161046" data-name="Trazado 161046" d="M762.316,28.808a3,3,0,0,1-3.009-3.018,3.034,3.034,0,0,1,3.048-3.054,3.072,3.072,0,0,1,3.026,3.034,3.035,3.035,0,0,1-3.065,3.038m1.032-3.017a1.039,1.039,0,0,0-1.016-1.024,1,1,0,0,0-.993.972.973.973,0,0,0,.97,1.039,1.012,1.012,0,0,0,1.039-.987" transform="translate(303.62 1119.273)" fill="#fff"/>
    <path id="Trazado_161047" data-name="Trazado 161047" d="M722.786,25.767a3,3,0,0,1-2.986,3.042,3.038,3.038,0,0,1-3.089-3.014,3.07,3.07,0,0,1,3.061-3.058,3.031,3.031,0,0,1,3.014,3.03m-2.032-.005a1.01,1.01,0,0,0-1.031-.995,1.045,1.045,0,0,0-.98,1,1.011,1.011,0,0,0,1.017,1.01.975.975,0,0,0,.994-1.017" transform="translate(303.62 1119.273)" fill="#fff"/>
    <path id="Trazado_161048" data-name="Trazado 161048" d="M716.737,60.258c.336,0,.673-.015,1.008,0a1,1,0,0,1,.046,2c-.71.036-1.424.034-2.134,0a1,1,0,1,1,.072-2.006c.335-.015.672,0,1.008,0" transform="translate(303.62 1119.273)" fill="#fff"/>
    <path id="Trazado_161049" data-name="Trazado 161049" d="M716.687,72.4c-.336,0-.673.016-1.008,0a1,1,0,0,1-.987-.921.965.965,0,0,1,.839-1.054,16.122,16.122,0,0,1,2.367,0,.937.937,0,0,1,.827,1.053.96.96,0,0,1-.97.923c-.355.021-.712,0-1.068,0" transform="translate(303.62 1119.273)" fill="#fff"/>
    <path id="Trazado_162827" data-name="Trazado 162827" d="M8.235,14.609H4.008L3.27,17h-3.3L4.667,4.2h2.9L12.3,17H8.982ZM4.746,12.228H7.5L6.117,7.789ZM16.216,17H13.245V3.5h2.971Zm5.845-2.109a1.317,1.317,0,0,0,.967-.338,1.241,1.241,0,0,0,.334-.945h2.777a3.288,3.288,0,0,1-1.121,2.566,4.168,4.168,0,0,1-2.887,1,4.22,4.22,0,0,1-3.27-1.3,5.125,5.125,0,0,1-1.2-3.6v-.123A5.792,5.792,0,0,1,18.2,9.6a3.872,3.872,0,0,1,1.534-1.7A4.573,4.573,0,0,1,22.1,7.314a4.116,4.116,0,0,1,2.944,1.028,3.647,3.647,0,0,1,1.09,2.786H23.361A1.626,1.626,0,0,0,23,10a1.244,1.244,0,0,0-.967-.4q-1.151,0-1.345,1.468a10.357,10.357,0,0,0-.062,1.283,4.068,4.068,0,0,0,.343,1.986A1.187,1.187,0,0,0,22.061,14.891ZM32.748,17a3.344,3.344,0,0,1-.281-.853,2.754,2.754,0,0,1-2.285,1.028,3.374,3.374,0,0,1-2.285-.813,2.588,2.588,0,0,1-.94-2.043A2.66,2.66,0,0,1,28.1,11.981a5.821,5.821,0,0,1,3.322-.791h.914v-.5q0-1.316-1.134-1.316a.927.927,0,0,0-1.055,1.042H27.185a2.655,2.655,0,0,1,1.173-2.239,4.931,4.931,0,0,1,2.993-.86,4.323,4.323,0,0,1,2.874.888,3.086,3.086,0,0,1,1.081,2.435v4.21a4.311,4.311,0,0,0,.4,2V17Zm-1.854-1.934a1.652,1.652,0,0,0,.918-.237,1.487,1.487,0,0,0,.523-.536V12.772h-.861q-1.547,0-1.547,1.389a.848.848,0,0,0,.272.655A.986.986,0,0,0,30.894,15.066ZM39.665,7.49l.1,1.116a3.225,3.225,0,0,1,2.716-1.292A2.713,2.713,0,0,1,44.7,8.2a4.226,4.226,0,0,1,.76,2.672V17H42.486V11a1.6,1.6,0,0,0-.29-1.059A1.342,1.342,0,0,0,41.142,9.6a1.413,1.413,0,0,0-1.292.686V17H36.888V7.49Zm11.452,7.4a1.317,1.317,0,0,0,.967-.338,1.241,1.241,0,0,0,.334-.945H55.2a3.288,3.288,0,0,1-1.121,2.566,4.168,4.168,0,0,1-2.887,1,4.22,4.22,0,0,1-3.27-1.3,5.125,5.125,0,0,1-1.2-3.6v-.123A5.792,5.792,0,0,1,47.254,9.6a3.872,3.872,0,0,1,1.534-1.7,4.573,4.573,0,0,1,2.373-.593,4.116,4.116,0,0,1,2.944,1.028,3.647,3.647,0,0,1,1.09,2.786H52.418A1.626,1.626,0,0,0,52.058,10a1.244,1.244,0,0,0-.967-.4q-1.151,0-1.345,1.468a10.357,10.357,0,0,0-.062,1.283,4.068,4.068,0,0,0,.343,1.986A1.187,1.187,0,0,0,51.117,14.891Zm9.932,2.285a4.889,4.889,0,0,1-3.542-1.305,4.507,4.507,0,0,1-1.354-3.4v-.246a5.84,5.84,0,0,1,.541-2.575,3.955,3.955,0,0,1,1.578-1.727,4.763,4.763,0,0,1,2.461-.611A4.117,4.117,0,0,1,63.9,8.558a4.887,4.887,0,0,1,1.16,3.467v1.151H59.168a2.135,2.135,0,0,0,.694,1.257,2.066,2.066,0,0,0,1.389.457,2.662,2.662,0,0,0,2.2-.984l1.354,1.6a3.784,3.784,0,0,1-1.569,1.217A5.3,5.3,0,0,1,61.049,17.176ZM60.715,9.6q-1.3,0-1.547,1.723h2.988v-.229a1.467,1.467,0,0,0-.36-1.1A1.434,1.434,0,0,0,60.715,9.6Zm10.512,4.729a.684.684,0,0,0-.4-.606,6.016,6.016,0,0,0-1.5-.475A6.853,6.853,0,0,1,67.5,12.6a3.062,3.062,0,0,1-1.1-.971,2.319,2.319,0,0,1-.378-1.31A2.628,2.628,0,0,1,67.1,8.163a4.453,4.453,0,0,1,2.83-.848,4.934,4.934,0,0,1,3.023.853A2.666,2.666,0,0,1,74.1,10.408H71.13q0-1.143-1.2-1.143a1.194,1.194,0,0,0-.782.259.8.8,0,0,0-.316.646.737.737,0,0,0,.387.642,3.654,3.654,0,0,0,1.235.4,10.671,10.671,0,0,1,1.49.378,2.706,2.706,0,0,1,2.145,2.646,2.491,2.491,0,0,1-1.156,2.118,5.068,5.068,0,0,1-2.993.817,5.172,5.172,0,0,1-2.18-.439,3.645,3.645,0,0,1-1.494-1.2,2.707,2.707,0,0,1-.536-1.591h2.769a1.145,1.145,0,0,0,.439.962,1.808,1.808,0,0,0,1.081.3,1.422,1.422,0,0,0,.91-.246A.787.787,0,0,0,71.227,14.328Z" transform="translate(1128.55 1159.568)" fill="#fff"/>
  </g>
</svg>
