<svg xmlns="http://www.w3.org/2000/svg" xmlns:xlink="http://www.w3.org/1999/xlink" width="654" height="374.105" viewBox="0 0 654 374.105">
  <defs>
    <clipPath id="clip-path">
      <rect id="Rect치ngulo_11081" data-name="Rect치ngulo 11081" width="553.557" height="365.105" fill="none"/>
    </clipPath>
  </defs>
  <g id="Grupo_90508" data-name="Grupo 90508" transform="translate(-810 -2244)">
    <path id="Trazado_160252" data-name="Trazado 160252" d="M1468.581,4144.686A177.319,177.319,0,0,1,1750.1,4001.23v286.911a177.319,177.319,0,0,1-281.521-143.456Z" transform="translate(-286.103 -1723.383)" fill="#befcff"/>
    <g id="Grupo_89330" data-name="Grupo 89330" transform="translate(810 2253)">
      <g id="Grupo_89329" data-name="Grupo 89329" clip-path="url(#clip-path)">
        <path id="Trazado_160048" data-name="Trazado 160048" d="M90.96,353.558H14.207l1.357-37.66.04-1.139.009-.236,63.115-2.885,9.064-.413.263,3.514L89.212,330.2l0,.023.419,5.616v0l.184,2.444Z" transform="translate(-2.266 -49.645)" fill="#e2b897"/>
        <path id="Trazado_160049" data-name="Trazado 160049" d="M54.374,354.184h-40.2l.722-38.273.015-.762.689.236,7.356,2.527,18.274,6.278.03.009,12.1,4.158Z" transform="translate(-2.26 -50.27)" fill="#e2b897"/>
        <path id="Trazado_160050" data-name="Trazado 160050" d="M67.069,193.718,45.009,196.3l-.541-14.852-.037-1.023-.071-1.953,18.049-2.116,1.174-.137.987,4.953Z" transform="translate(-7.076 -28.11)" fill="#f8bd8c"/>
        <path id="Trazado_160051" data-name="Trazado 160051" d="M35.4,193.628S9.7,204.338,8.982,206.48s-3.57,8.211-3.57,8.211,12.495,30.344,9.282,40.7-1.072,27.489-1.072,32.844-2.142,7.5,1.786,8.925,16.778.714,23.918,0,21.778.22,24.989.824,22.491-2.609,22.491-2.609,2.5-13.566,1.785-20.349.257-22.847.129-25.347,1.223-3.57.012-9.639,4.859-39.269,4.859-39.269l-29.631-10.8Z" transform="translate(-0.863 -30.303)" fill="#31185e"/>
        <path id="Trazado_160052" data-name="Trazado 160052" d="M53.264,192.833l-3.707,12.4L33.246,197l3.953-4.167Z" transform="translate(-5.303 -30.759)" fill="#2a1656"/>
        <path id="Trazado_160053" data-name="Trazado 160053" d="M49.645,205.593l-16.974-8.565,4.311-4.544H53.564Zm-16.009-8.733,15.649,7.9L52.78,193.07H37.232Z" transform="translate(-5.211 -30.704)" fill="#1d1647"/>
        <path id="Trazado_160054" data-name="Trazado 160054" d="M53.279,191.79l5,12.4,18.607-13.1-4.444-4.79Z" transform="translate(-8.499 -29.717)" fill="#2a1656"/>
        <path id="Trazado_160055" data-name="Trazado 160055" d="M58.07,204.576l-5.257-13.04L72.459,185.9l4.792,5.166ZM53.6,191.919l4.74,11.755,18.032-12.7-4.094-4.413Z" transform="translate(-8.424 -29.654)" fill="#1d1647"/>
        <path id="Trazado_160056" data-name="Trazado 160056" d="M17.271,203.34s10.982,4.254,9.976,47.322l40.006-9.183,4.905,20.268s-43.905,19-55.3,18.684S-1.911,228.178.436,222.477s2.99-13.819,16.4-18.887Z" transform="translate(0 -32.436)" fill="#31185e"/>
        <path id="Trazado_160057" data-name="Trazado 160057" d="M82.144,249.207l10.308-3.857-2.558,15.564-8.057.4L80.073,250.3Z" transform="translate(-12.773 -39.137)" fill="#f8bd8c"/>
        <path id="Trazado_160058" data-name="Trazado 160058" d="M42.531,256.959,34.107,258.9l-.335-2.042-.556-3.385.577.216Z" transform="translate(-5.298 -40.433)" fill="#f8bd8c"/>
        <path id="Trazado_160059" data-name="Trazado 160059" d="M89.056,205.4l-6.6,46.979-41.917-5.637L35.586,267.41s56.771,13.781,67.99,10.022,5.941-55.432,2.972-62.01-4.977-11.721-8.936-12.973-8.556,2.951-8.556,2.951" transform="translate(-5.676 -32.256)" fill="#31185e"/>
        <path id="Trazado_160060" data-name="Trazado 160060" d="M64.582,181.175a8.432,8.432,0,0,1-4.8,4.757c-5.245,1.884-11.8-2.052-15.3-4.481l-.038-1.023c.3.047.645.088,1.03.12a31.14,31.14,0,0,0,10.1-.954,18,18,0,0,0,6.852-3.236l1.174-.137Z" transform="translate(-7.089 -28.11)" fill="#eab186"/>
        <path id="Trazado_160061" data-name="Trazado 160061" d="M65.42,149.458c.962,12.169-4.788,22.574-13.723,23.281s-16.958-8.586-17.921-20.754,5.5-22.606,14.436-23.312,16.245,8.617,17.207,20.785" transform="translate(-5.373 -20.519)" fill="#f8bd8c"/>
        <path id="Trazado_160062" data-name="Trazado 160062" d="M53.291,180.439c-8.554,1.272-16.936-7.568-18.735-19.719-.171-1.171-.271-2.327-.329-3.47,2,11.809,10.253,20.305,18.65,19.063,7.711-1.143,12.909-10.11,12.538-20.777.043.2.071.4.1.6,1.8,12.153-3.67,23.034-12.223,24.3" transform="translate(-5.46 -24.81)" fill="#1a1a1a"/>
        <path id="Trazado_160063" data-name="Trazado 160063" d="M41.8,120.6s-.1,9.044,2.151,10.353,4.827-1.072,6.871-1.428,6.183-.709,9.082,1.817,5.388,9.894,5.388,9.894l.635,2.468s1.7.427,1.874-1.894-.3-12.048,0-13a2.727,2.727,0,0,0-.893-2.974c-1.071-1.072-2.44-2.737-2.023-3.451s2.2-2.558.476-4.165-10.055-2.617-11.6-1.189S46.44,112.985,41.8,120.6" transform="translate(-6.667 -18.559)" fill="#1a1a1a"/>
        <path id="Trazado_160064" data-name="Trazado 160064" d="M37.642,121.911s-8.122.893-8.3,8.033c0,0-.982,1.606-2.946,4.195s.357,6.961.893,9.55,1.636,4.729,1.577,5.5a2.174,2.174,0,0,0,2.766,1.666,3.213,3.213,0,0,0,1.637-2.183s.119-10.074,1.606-11.859a20.149,20.149,0,0,1,5.474-4.284,3.3,3.3,0,0,0,1.785-2.321c0-.178-1.845-9.936-1.845-9.936Z" transform="translate(-4.087 -19.186)" fill="#1a1a1a"/>
        <path id="Trazado_160065" data-name="Trazado 160065" d="M36.56,158.051c1.119,2.3.709,4.806-.917,5.6s-3.85-.434-4.969-2.734-.708-4.807.917-5.6,3.85.434,4.969,2.734" transform="translate(-4.793 -24.737)" fill="#f8bd8c"/>
        <path id="Trazado_160066" data-name="Trazado 160066" d="M74.07,153.926c-.292,2.542-1.984,4.434-3.781,4.228s-3.014-2.434-2.721-4.976,1.985-4.434,3.781-4.228,3.014,2.434,2.721,4.976" transform="translate(-10.771 -23.757)" fill="#f8bd8c"/>
        <path id="Trazado_160067" data-name="Trazado 160067" d="M44.666,149a24.212,24.212,0,0,0-3.389.449,9.7,9.7,0,0,0-3.029,1.072l-.041.025a.928.928,0,0,1-1-1.564,11.354,11.354,0,0,1,3.635-1.45,26.145,26.145,0,0,1,3.691-.6A1.037,1.037,0,0,1,44.727,149l-.027,0Z" transform="translate(-5.868 -23.438)" fill="#1a1a1a"/>
        <path id="Trazado_160068" data-name="Trazado 160068" d="M44.519,154.387a1.388,1.388,0,1,1-1.591-1.405,1.512,1.512,0,0,1,1.591,1.405" transform="translate(-6.666 -24.401)" fill="#1a1a1a"/>
        <path id="Trazado_160069" data-name="Trazado 160069" d="M57.151,147.621a24.244,24.244,0,0,1,3.4-.332,9.721,9.721,0,0,1,3.194.357l.045.015a.928.928,0,0,0,.618-1.75,11.363,11.363,0,0,0-3.87-.588,26.136,26.136,0,0,0-3.73.253,1.037,1.037,0,0,0,.279,2.054l.027,0Z" transform="translate(-8.919 -23.181)" fill="#1a1a1a"/>
        <path id="Trazado_160070" data-name="Trazado 160070" d="M59.672,152.594a1.388,1.388,0,1,0,1.231-1.73,1.513,1.513,0,0,0-1.231,1.73" transform="translate(-9.517 -24.064)" fill="#1a1a1a"/>
        <path id="Trazado_160071" data-name="Trazado 160071" d="M47.462,177.332c.47.319,2.1-.074,2.632-.187a4.036,4.036,0,0,0,2.493-1.313c.646-.891.345-2.235.266-3.253-.023-.29.027-1.092-.213-1.332l2.379-.357c-.211.032.421,3.355.521,3.627a2.338,2.338,0,0,0,1.711,1.315,7.469,7.469,0,0,0,2.328.155c.188-.014,2.032-.172,2.048-.365a.722.722,0,0,1-.248.412,46.81,46.81,0,0,1-3.861,3.425s-6.307.535-6.485.357-3.564-2.479-3.571-2.484" transform="translate(-7.571 -27.259)" fill="#1a1a1a"/>
        <path id="Trazado_160072" data-name="Trazado 160072" d="M59.247,167.924a6.98,6.98,0,0,1-4.8,3.127c-2.942.571-5.683-.429-6.74-2.285,0-.029.029-.057.057-.086a7.249,7.249,0,0,1,1.171-.814l8.639-1.028a2.307,2.307,0,0,1,1.671,1.085" transform="translate(-7.61 -26.613)" fill="#fcfcfc"/>
        <path id="Trazado_160073" data-name="Trazado 160073" d="M46.732,177.678c-.186-1.8-.7-7.558.051-9.271v-.116L47.04,168a7.859,7.859,0,0,1,1.341-.944,10.732,10.732,0,0,1,5.031-1.359,18.9,18.9,0,0,1,3.038.1l.243.029c.278.033.552.066.825.125a3,3,0,0,1,2.135,1.423,11.024,11.024,0,0,1,1.093,3.167q.093.41.195.814a12.477,12.477,0,0,1,.4,4.391l-1.42-.145a11.139,11.139,0,0,0-.368-3.895c-.07-.277-.135-.559-.2-.841a9.717,9.717,0,0,0-.935-2.77,1.591,1.591,0,0,0-1.2-.747,6.733,6.733,0,0,0-.69-.1l-.25-.03a17.541,17.541,0,0,0-2.807-.094,9.325,9.325,0,0,0-4.383,1.173,6.4,6.4,0,0,0-1,.68l-.012.015c-.415.636-.3,4.93.071,8.54Z" transform="translate(-7.399 -26.428)" fill="#1a1a1a"/>
        <path id="Trazado_160074" data-name="Trazado 160074" d="M51.614,160.552a.195.195,0,0,1-.092-.366l1.536-.818a1.2,1.2,0,0,0,.693-1.2l-.78-5.409a.195.195,0,1,1,.386-.055l.779,5.409a1.58,1.58,0,0,1-.894,1.6l-1.536.818a.2.2,0,0,1-.092.023" transform="translate(-8.202 -24.332)" fill="#1a1a1a"/>
        <path id="Trazado_160075" data-name="Trazado 160075" d="M59.5,348.712a.389.389,0,0,1-.389-.381c-.153-6.449-.549-16.927-.971-18.047-1.415-.844-8.407-3.027-11.964-4.079a.39.39,0,1,1,.221-.747c.431.127,10.584,3.139,12.236,4.214.258.168.579.377.963,9.633.186,4.479.292,8.963.293,9.008a.389.389,0,0,1-.38.4H59.5" transform="translate(-7.321 -51.912)" fill="#666b6d"/>
        <path id="Trazado_160076" data-name="Trazado 160076" d="M33.3,256.475a.39.39,0,0,1-.389-.371c-.056-1.16-1.617-19.662-1.633-19.85a.39.39,0,1,1,.777-.066c.06.71,1.373,16.28,1.6,19.4,2.182-.585,11.561-3.081,15.313-3.823a.39.39,0,1,1,.151.765c-4.213.833-15.605,3.9-15.72,3.933a.384.384,0,0,1-.1.013" transform="translate(-4.988 -37.619)" fill="#1d1647"/>
        <path id="Trazado_160077" data-name="Trazado 160077" d="M19.093,291.1a10.786,10.786,0,0,1-3.292-.431c-5.588-1.831-9.413-16.851-9.572-17.49a.39.39,0,0,1,.756-.19c.039.153,3.876,15.241,9.06,16.939,5.261,1.723,17.939-2.769,18.066-2.815a.39.39,0,1,1,.262.734c-.44.157-9.179,3.253-15.279,3.253" transform="translate(-0.992 -43.498)" fill="#1d1647"/>
        <path id="Trazado_160078" data-name="Trazado 160078" d="M57.8,282.829a.39.39,0,0,1-.175-.738l11.856-5.941a.39.39,0,0,1,.349.7l-11.856,5.941a.389.389,0,0,1-.174.041" transform="translate(-9.157 -44.043)" fill="#1d1647"/>
        <path id="Trazado_160079" data-name="Trazado 160079" d="M90.829,258.105a.4.4,0,0,1-.062-.005.389.389,0,0,1-.323-.446l3.276-20.442a.389.389,0,1,1,.769.124l-3.276,20.442a.389.389,0,0,1-.384.328" transform="translate(-14.426 -37.786)" fill="#1d1647"/>
        <path id="Trazado_160080" data-name="Trazado 160080" d="M93.951,291.416a.492.492,0,0,1-.061,0l-19.638-3.048a.39.39,0,0,1,.119-.77l19.638,3.048a.39.39,0,0,1-.059.775" transform="translate(-11.792 -45.874)" fill="#1d1647"/>
        <path id="Trazado_160081" data-name="Trazado 160081" d="M214.027,149.533l-3.54,12.93,7.634,8.938,10.906-5.467-.457-13.622Z" transform="translate(-33.575 -23.853)" fill="#f8bd8c"/>
        <path id="Trazado_160082" data-name="Trazado 160082" d="M254.89,285.3v64.122H222.368v-62.5l30.389-1.519Z" transform="translate(-35.471 -45.509)" fill="#31185e"/>
        <path id="Trazado_160083" data-name="Trazado 160083" d="M225.167,288.845l-1.112,3.078-1.1,3.038-3.684,10.2L214.6,318.112l-7.51,31.875H177.663c.017.09.024.135.024.135l-4.039.1.029-.233,1.621-13.054.237-1.915.635-5.122.6-4.793.449-3.622,2.1-16.957.573-4.614,1.373-11.065Z" transform="translate(-27.699 -46.075)" fill="#31185e"/>
        <path id="Trazado_160084" data-name="Trazado 160084" d="M201.449,162.091s-15.989,9.761-23.035,13.19-11.653,8.442-13.279,11.344-5.419,5.54-5.149,7.386-6.233,9.761-7.588,16.356-3.794,28.491-3.794,29.283,4.336,18.994,4.336,18.994,12.737,12.663,15.446,15.564,10.841,7.651,11.924,7.651,7.859-4.485,7.588-8.97-2.168-17.412-4.065-19.522c-1.483-1.65-3.3-3.139-4.667-5.35a12.729,12.729,0,0,1-1.024-2.036c-1.355-3.429,2.439-11.607,2.439-11.607s12.195-29.019,11.653-32.976,3.523-17.938,2.439-21.632,6.775-17.675,6.775-17.675" transform="translate(-23.704 -25.856)" fill="#c5a2fd"/>
        <path id="Trazado_160085" data-name="Trazado 160085" d="M248.5,197.691s2.71,37.211,2.439,43.542-1.588,10.025.019,17.147.831,9.234,0,11.871-11.131,2.374-11.131,2.374l-48.256-2.81-18.139-26.209,23.577-73.337,8.4-8.178s9.621,8.178,17.615,3.3c0,0,22.222,12.531,25.339,14.9s.135,17.4.135,17.4" transform="translate(-27.665 -25.856)" fill="#c5a2fd"/>
        <path id="Trazado_160086" data-name="Trazado 160086" d="M262.171,184.9s7.769,7.738,7.588,12.838,1.988,24.094,1.626,29.546.542,5.628,1.264,9.672,3.7,12.135,3.975,21.1,4.2,15.432,1.491,19.917-4.743,5.8-4.743,5.8-.677-6.844-1.9-7.511-7.026-2.382-7.026-2.382l-6.433-71.051Z" transform="translate(-41.157 -29.494)" fill="#c5a2fd"/>
        <path id="Trazado_160087" data-name="Trazado 160087" d="M212.607,151.513c-.78-1.817,5.2,10.061,11.3,9.394,5.233-.571,5.45-10.242,5.45-10.242s-1.857,3.054-7.38,3.061c-6.16.008-9.367-2.213-9.367-2.213" transform="translate(-33.903 -24.033)" fill="#eab186"/>
        <path id="Trazado_160088" data-name="Trazado 160088" d="M244.056,132.437c-.141,2.61-1.872,4.639-3.865,4.531s-3.5-2.31-3.355-4.921,1.872-4.638,3.865-4.53,3.5,2.311,3.355,4.92" transform="translate(-37.777 -20.34)" fill="#f2b588"/>
        <path id="Trazado_160089" data-name="Trazado 160089" d="M209.694,130.538c-.141,2.61-1.872,4.639-3.865,4.531s-3.5-2.31-3.355-4.921,1.872-4.638,3.865-4.53,3.5,2.311,3.355,4.92" transform="translate(-32.296 -20.037)" fill="#f2b588"/>
        <path id="Trazado_160090" data-name="Trazado 160090" d="M237.367,129.06c-1.892,11.112-8.335,20.66-17.216,20.18s-13.543-8.749-14.944-21.916c-1.229-11.55,8.335-20.66,17.216-20.181s16.9,10.453,14.944,21.917" transform="translate(-32.716 -17.088)" fill="#f8bd8c"/>
        <path id="Trazado_160091" data-name="Trazado 160091" d="M216.284,109.188c.026.735-.088,1.919-.016,2.274a3.439,3.439,0,0,0,1.548,2.392,4.145,4.145,0,0,0,1.891.378c2.359.061,4.824-.954,7.087-.85a5.707,5.707,0,0,1,2.716,1.394c1.636,1.092,4.647.835,4.647.836,1.543,2.157,1.692,5.371,3.264,7.363a9.629,9.629,0,0,0,1.075-.845c2.116-1.779,2.24-2.1,1.554-4.9-.548-2.237.955-3.191,1.716-4.982,1.045-2.457,2.862-4.733,1.01-6.648a26.8,26.8,0,0,1-5.687-7.748c-.856-1.817-2-3.8-3.879-4.152-3.024-.563-5.327,2.76-8.372.732-1.109-.739-2.174-1.69-3.473-1.857a5.264,5.264,0,0,0-3.761,1.412,20.217,20.217,0,0,1-4.209,3.043c-2.635,1.145-5.665,1.6-7.828,3.742a14.392,14.392,0,0,0-2.974,5.282c-.619,1.621-1.714,3.485-1.874,5.228-.181,1.962.962,6.164,2.514,7.406a5.875,5.875,0,0,1,1.3,2.031s2.386-4.393,2.788-5.4a15.011,15.011,0,0,1,3.721-4.547,16.5,16.5,0,0,1,2.876-1.8c.7-.329,2.315-1.11,2.361.208" transform="translate(-32.015 -14.763)" fill="#31185e"/>
        <path id="Trazado_160092" data-name="Trazado 160092" d="M215.2,130.314a1.4,1.4,0,1,1-1.322-1.473,1.4,1.4,0,0,1,1.322,1.473" transform="translate(-33.881 -20.552)" fill="#1b191b"/>
        <path id="Trazado_160093" data-name="Trazado 160093" d="M235.062,131.386a1.4,1.4,0,1,1-1.322-1.473,1.4,1.4,0,0,1,1.322,1.473" transform="translate(-37.049 -20.723)" fill="#1b191b"/>
        <path id="Trazado_160094" data-name="Trazado 160094" d="M209.893,125.3a.938.938,0,0,1-.355-1.8,9.772,9.772,0,0,1,8.069,0,.937.937,0,0,1-.888,1.651,7.9,7.9,0,0,0-6.459.085.972.972,0,0,1-.366.071" transform="translate(-33.332 -19.563)" fill="#31185e"/>
        <path id="Trazado_160095" data-name="Trazado 160095" d="M230.11,126.049a.938.938,0,0,1-.24-1.822,9.778,9.778,0,0,1,8.054.506.938.938,0,0,1-.992,1.593A7.9,7.9,0,0,0,230.48,126a.968.968,0,0,1-.37.048" transform="translate(-36.567 -19.719)" fill="#31185e"/>
        <path id="Trazado_160096" data-name="Trazado 160096" d="M237.95,127.84v0a.984.984,0,0,0-.269-.533.681.681,0,0,0-.109-.094l0,0a.945.945,0,0,0-.242-.134,10.224,10.224,0,0,0-1.388-.4c-.356-.079-.921-.187-1.624-.3-.672-.109-1.469-.222-2.32-.316h-.006a34.79,34.79,0,0,0-3.79-.231h0a16.654,16.654,0,0,0-1.924.105q-.294.037-.547.076c-2.24.344-2.341.894-2.322,1.2a.057.057,0,0,1-.088.053,3.684,3.684,0,0,0-3.166-.171.057.057,0,0,1-.082-.061c.056-.324,0-.946-2.719-1.578-.053-.013-.107-.024-.161-.036a18.551,18.551,0,0,0-2.279-.327h0c-.949-.084-1.939-.12-2.88-.125h0c-1.393-.012-2.676.045-3.569.108-.344.024-.627.049-.838.073a11.386,11.386,0,0,0-1.5.266.892.892,0,0,0-.464.287l0,0a.938.938,0,0,0-.238.579c0,.017,0,.035,0,.052a.929.929,0,0,0,.553.868,1.006,1.006,0,0,1,.423.336c.344.461.432.851.845,1.045a.053.053,0,0,1,.034.053,11.163,11.163,0,0,0,.3,3.632,4.1,4.1,0,0,0,1.039,1.794,4.406,4.406,0,0,0,1.768,1.02,9.253,9.253,0,0,0,2.364.421,8.641,8.641,0,0,0,2.452-.19,4.747,4.747,0,0,0,3.378-3.162,11.209,11.209,0,0,0,.725-3.857.348.348,0,0,0,.351-.081l.015,0a.53.53,0,0,0,.073-.066,3.219,3.219,0,0,1,3.893.208c.019.029,0,.051.017.073H223.6a.448.448,0,0,0,.321.128.06.06,0,0,1,.064.064,11.689,11.689,0,0,0,.35,3.844,4.759,4.759,0,0,0,3.028,3.508,8.723,8.723,0,0,0,2.422.453,9.324,9.324,0,0,0,2.394-.164,5.149,5.149,0,0,0,1.23-.419,3.883,3.883,0,0,0,1.862-2.079,11.107,11.107,0,0,0,.686-3.577.053.053,0,0,1,.04-.05c.429-.147.521-.529.912-.949a1.036,1.036,0,0,1,.408-.278.968.968,0,0,0,.393-.263.985.985,0,0,0,.2-.346.971.971,0,0,0,.049-.253c0-.018,0-.034,0-.053a.925.925,0,0,0-.011-.146m-19.7,4.2a4.421,4.421,0,0,1-3.143,2.955,9.189,9.189,0,0,1-4.618-.224,4.084,4.084,0,0,1-1.652-.949,3.806,3.806,0,0,1-.938-1.65,11.049,11.049,0,0,1-.256-3.821v-.008a3.612,3.612,0,0,1,1.088-1.966,1.734,1.734,0,0,1,.31-.184,11.2,11.2,0,0,1,6.121-.234c2.448.535,3.373,1.18,3.728,1.9a.791.791,0,0,0,.039.075,9.528,9.528,0,0,1-.681,4.106m17.384-2.176a11.058,11.058,0,0,1-.667,3.771,3.532,3.532,0,0,1-1.8,1.965,4.854,4.854,0,0,1-1.048.34,9.2,9.2,0,0,1-4.617-.277,4.427,4.427,0,0,1-2.806-3.277,9.529,9.529,0,0,1-.234-4.156.614.614,0,0,0,.047-.069c.43-.677,1.419-1.218,3.91-1.487a11.737,11.737,0,0,1,5.806.757c.092.044.177.091.256.135a3.153,3.153,0,0,1,1.157,2.287Z" transform="translate(-32.765 -19.933)" fill="#1b191b"/>
        <path id="Trazado_160097" data-name="Trazado 160097" d="M222.583,147.743a5.691,5.691,0,0,1-2.955-.814.146.146,0,1,1,.166-.241,5.465,5.465,0,0,0,6.261-.429.146.146,0,0,1,.171.238,6.157,6.157,0,0,1-3.642,1.246" transform="translate(-35.024 -23.326)"/>
        <path id="Trazado_160098" data-name="Trazado 160098" d="M223.416,140.833a.148.148,0,0,1-.078-.023c-.029-.018-.706-.456-.761-.994-.05-.482.153-2.933.161-3.038a.146.146,0,0,1,.291.024c-.072.872-.2,2.618-.161,2.983.034.331.465.674.628.778a.146.146,0,0,1-.079.269" transform="translate(-35.503 -21.797)"/>
        <path id="Trazado_160099" data-name="Trazado 160099" d="M181.864,225.64a.382.382,0,0,1-.166-.038.39.39,0,0,1-.186-.519c.424-.9,3.972-11.523,4.033-12.342a.389.389,0,0,1,.777.058c-.072.973-3.727,11.817-4.106,12.617a.389.389,0,0,1-.352.223" transform="translate(-28.948 -33.878)" fill="#9e4aff"/>
        <path id="Trazado_160100" data-name="Trazado 160100" d="M224.069,167.631a16.085,16.085,0,0,1-5.5-1.068c-.282-.1-4.247-2.123-5.039-2.527a.39.39,0,1,1,.355-.694c1.791.914,4.721,2.4,4.954,2.491,6.931,2.524,10.248-.5,10.281-.533a.39.39,0,0,1,.538.564,8.237,8.237,0,0,1-5.587,1.768" transform="translate(-34.027 -26.048)" fill="#9e4aff"/>
        <path id="Trazado_160101" data-name="Trazado 160101" d="M222.3,321.526a.385.385,0,0,1-.132-.023.389.389,0,0,1-.235-.5l4.677-12.953a.39.39,0,0,1,.733.265l-4.677,12.953a.389.389,0,0,1-.366.257" transform="translate(-35.397 -49.097)" fill="#9e4aff"/>
        <path id="Trazado_160102" data-name="Trazado 160102" d="M380.025,175.674l-23.313.413,1.648-19.053h19.605Z" transform="translate(-56.9 -25.049)" fill="#f8bd8c"/>
        <path id="Trazado_160103" data-name="Trazado 160103" d="M383.655,135.857c0,12.448-7.495,22.54-16.739,22.54s-16.74-10.092-16.74-22.54c0-5.168-1.242-13.086.93-16.889,3.06-5.356,10.4-5.651,15.81-5.651,5.378,0,11.745-1.253,14.808,4.055,2.2,3.816,1.931,13.279,1.931,18.485" transform="translate(-55.801 -18.055)" fill="#1a1a1a"/>
        <path id="Trazado_160104" data-name="Trazado 160104" d="M385.292,123.534s1.785-17.471-.962-20.36-1.215-3.714-4.179-4.539-3.006-2.339-7.89-2.339a25.712,25.712,0,0,0-5.922-.55c-1.511,0-3.983-1.239-7.485.688s-5.734-.756-8.257,2.494-3.485,1.5-5.683,6.586.687,7.566,1.236,13.069a24.614,24.614,0,0,0,3.438,9.9l34.921-1.12Z" transform="translate(-54.889 -15.21)" fill="#1a1a1a"/>
        <path id="Trazado_160105" data-name="Trazado 160105" d="M383.655,131.507c0,12.448-7.495,22.54-16.739,22.54s-16.74-10.092-16.74-22.54c0-5.168-1.242-13.086.93-16.889,3.06-5.356,10.4-5.651,15.81-5.651,5.378,0,11.745-1.253,14.808,4.055,2.2,3.816,1.931,13.279,1.931,18.485" transform="translate(-55.801 -17.361)" fill="#f8bd8c"/>
        <path id="Trazado_160106" data-name="Trazado 160106" d="M353.12,136.452c.217,2.645-.986,4.9-2.687,5.043s-3.255-1.891-3.472-4.536.986-4.9,2.686-5.042,3.256,1.89,3.473,4.535" transform="translate(-55.341 -21.041)" fill="#f8bd8c"/>
        <path id="Trazado_160107" data-name="Trazado 160107" d="M385.663,136.262c-.384,2.626.674,4.956,2.363,5.2s3.369-1.68,3.753-4.306-.675-4.955-2.363-5.2-3.368,1.681-3.752,4.307" transform="translate(-61.506 -21.045)" fill="#f8bd8c"/>
        <path id="Trazado_160108" data-name="Trazado 160108" d="M362.514,122.379c-.406-.013-.759,0-1.134.013s-.739.042-1.107.076c-.735.071-1.47.173-2.2.317a16.689,16.689,0,0,0-2.181.577,10.09,10.09,0,0,0-2.089,1,.869.869,0,0,0,.708,1.566l.045-.013c.62-.177,1.256-.316,1.9-.436s1.313-.2,1.98-.273,1.344-.112,2.02-.143c.339-.017.677-.027,1.014-.038s.688-.013.99-.018h.036a1.315,1.315,0,0,0,.016-2.629" transform="translate(-56.373 -19.52)" fill="#1a1a1a"/>
        <path id="Trazado_160109" data-name="Trazado 160109" d="M383.149,124.363a10.134,10.134,0,0,0-2.089-1,16.827,16.827,0,0,0-2.181-.577c-.731-.144-1.466-.245-2.2-.316-.368-.034-.736-.063-1.106-.076s-.729-.026-1.135-.014a1.315,1.315,0,0,0,.019,2.63h.034c.3.005.656.005.989.018s.676.02,1.014.038c.676.031,1.351.077,2.02.143s1.329.162,1.98.273,1.282.259,1.9.435l.046.013a.869.869,0,0,0,.707-1.567" transform="translate(-59.524 -19.52)" fill="#1a1a1a"/>
        <path id="Trazado_160110" data-name="Trazado 160110" d="M361.11,132.687a1.247,1.247,0,1,1-1.219-1.514,1.39,1.39,0,0,1,1.219,1.514" transform="translate(-57.213 -20.924)" fill="#1a1a1a"/>
        <path id="Trazado_160111" data-name="Trazado 160111" d="M380.044,132.687a1.247,1.247,0,1,1-1.219-1.514,1.39,1.39,0,0,1,1.219,1.514" transform="translate(-60.234 -20.924)" fill="#1a1a1a"/>
        <path id="Trazado_160112" data-name="Trazado 160112" d="M369.775,142.705h0c-.179-.008-1.757-.093-2.113-.6a.393.393,0,0,1-.057-.355c.215-.708,1.022-5.393,1.03-5.44a.1.1,0,1,1,.192.033c-.033.193-.817,4.745-1.036,5.465a.2.2,0,0,0,.03.185c.256.361,1.5.494,1.963.514a.1.1,0,0,1,0,.2" transform="translate(-58.634 -21.731)" fill="#2c2a30"/>
        <path id="Trazado_160113" data-name="Trazado 160113" d="M347.8,109.856s3.746,5.392,7.239,4.444,5.478-4.945,7.133-3.135,4.524,1.517,6.766.105,1.508.4,4.45.863,4.371-.451,6.524,2.279,4.36,1.426,3.624-2.279-5.735-11.658-10.148-9.386-25.588,7.108-25.588,7.108" transform="translate(-55.479 -16.326)" fill="#1a1a1a"/>
        <path id="Trazado_160114" data-name="Trazado 160114" d="M383.451,126.479c-.071-.02-.145-.037-.218-.054a22.269,22.269,0,0,0-3.612-.5,33.53,33.53,0,0,0-3.81-.015h0a24.913,24.913,0,0,0-5.892.906,7.041,7.041,0,0,1-6.657,0,26.074,26.074,0,0,0-6.531-.934h-.006a31.924,31.924,0,0,0-3.977.105,20.153,20.153,0,0,0-3.038.494l-.009,0c-.3.073-.582.154-.861.242l.135,2.494a.975.975,0,0,1,.7.146.828.828,0,0,1,.161.149,1.142,1.142,0,0,1,.22.424c.062.208.145.567.246,1.014.154.667.353,1.53.609,2.379a8.612,8.612,0,0,0,1.188,2.676,3.828,3.828,0,0,0,1.287,1.025,11.144,11.144,0,0,0,5.274.756c2.79-.12,4.618-1.362,5.4-3.464.184-.5.35-.979.5-1.43a12.333,12.333,0,0,1,1.218-3.044,1.16,1.16,0,0,1,1.621,0,11.506,11.506,0,0,1,1.172,2.916c.164.488.344,1.013.545,1.557.78,2.1,2.608,3.344,5.4,3.464a11.226,11.226,0,0,0,5.246-.742,3.815,3.815,0,0,0,1.314-1.039,11.125,11.125,0,0,0,1.469-3.691c.122-.473.228-.925.318-1.313.107-.47.192-.85.257-1.066a1.067,1.067,0,0,1,.308-.514.459.459,0,0,1,.081-.062.965.965,0,0,1,.7-.143l.135-2.494q-.427-.137-.887-.248m-20.642,7.847a4.643,4.643,0,0,1-3.9,2.373,9.448,9.448,0,0,1-5.287-.809,1.676,1.676,0,0,1-.184-.128,5.032,5.032,0,0,1-1.294-2.468c-.1-.376-.187-.735-.25-1.041-.035-.169-.075-.366-.113-.584v0c-.218-1.249-.374-3.138.622-3.827,1.169-.812,4.109-.872,6.057-.751,1.469.09,4.646.481,5.246,1.621.432.821.093,2.769-.357,4.225a8.611,8.611,0,0,1-.541,1.391m18.47-2.073-.023.107c-.229,1.069-.666,2.695-1.505,3.386a1.483,1.483,0,0,1-.2.143,9.451,9.451,0,0,1-5.287.809,4.64,4.64,0,0,1-3.9-2.373,9.255,9.255,0,0,1-.605-1.6c-.415-1.43-.7-3.239-.3-4.021.6-1.141,3.779-1.531,5.248-1.621,1.948-.12,4.889-.061,6.057.751,1.054.731.815,2.809.582,4.045-.024.134-.05.257-.073.368" transform="translate(-55.644 -20.077)" fill="#1a1a1a"/>
        <path id="Trazado_160115" data-name="Trazado 160115" d="M412.792,179.695s13.807,5.717,16.626,9.051,12.4,31.8,12.4,46.734,2.254,37.867,0,42.183-12.4,25.721-19.164,30.659-9.535,4.571-9.535,4.571l-1.655-22.234,7.244-35.17-3.675-53Z" transform="translate(-65.634 -28.664)" fill="#e2b897"/>
        <path id="Trazado_160116" data-name="Trazado 160116" d="M362.462,322.026c-.693,3.238-1.574,15.935-2.379,29.9-.032.587-.066,1.172-.1,1.763h-35c-.383-21.247.33-41.653.33-41.653s.329.017.925.052c.3.021.678.044,1.115.074.041,0,.084.005.128.009a.092.092,0,0,1,.022,0c3.178.218,9.382.721,15.7,1.655,3.3.489,6.631,1.1,9.575,1.841,4.131,1.045,7.5,2.363,8.962,4.015a3.811,3.811,0,0,1,.276.348v0c.055.079.106.156.152.237a2.39,2.39,0,0,1,.3,1.757" transform="translate(-51.821 -49.774)" fill="#755faa"/>
        <path id="Trazado_160117" data-name="Trazado 160117" d="M402.214,316.357v38.019H363.469l-.336-1.5-.143-.261-7.617-13.992-8.737-15.836-1.441-2.614-.164-.3-1.941-3.517Z" transform="translate(-54.728 -50.463)" fill="#755faa"/>
        <path id="Trazado_160118" data-name="Trazado 160118" d="M349.938,168.164h23.313l3.022,5.451,21.012,4.178s14.008,6.722,14.42,7.812,5.356,57.409,3.3,71.217-.825,29.068-2.884,35.972-85.287,2.906-85.287,2.906-16.893-102.464-11.536-107.188,32.274-12.052,33.166-13.626,1.477-6.722,1.477-6.722" transform="translate(-50.126 -26.824)" fill="#ff7c90"/>
        <path id="Trazado_160119" data-name="Trazado 160119" d="M415,258.52c-2.059,13.9-.823,29.257-2.884,36.206-.742,2.5-11.63,5.894-25.743,6.252-10.688.271-23.2-2.877-33.819-3.132q-1.205-.029-2.382-.053c-13.171-.273-23.342-.14-23.342-.14s-16.891-103.134-11.537-107.889c4.7-4.17,25.985-10.356,31.748-12.883l16.707,29.493,14.591-31.19,18.945,3.792s14.008,6.765,14.42,7.863,5.356,57.784,3.3,71.682" transform="translate(-50.126 -27.944)" fill="#e2b897"/>
        <path id="Trazado_160120" data-name="Trazado 160120" d="M412.637,248.569a.389.389,0,0,1-.389-.384L412,230.525c-.031-2.2-.985-8.895-.994-8.962a.389.389,0,1,1,.771-.11c.04.277.971,6.808,1,9.061l.247,17.66a.39.39,0,0,1-.384.4Z" transform="translate(-65.56 -35.271)" fill="#b08174"/>
        <path id="Trazado_160121" data-name="Trazado 160121" d="M363.326,150.68c.37,1.907,2.975,3.254,5.979,3.039,2.611-.187,4.682-1.5,5.165-3.1Z" transform="translate(-57.955 -24.026)" fill="#fff"/>
        <path id="Trazado_160122" data-name="Trazado 160122" d="M371.842,208.7a.388.388,0,0,1-.339-.2l-7.947-14.028a.389.389,0,1,1,.677-.384l7.575,13.371,9.4-20.1a.39.39,0,0,1,.706.33l-9.724,20.787a.391.391,0,0,1-.338.224h-.015" transform="translate(-57.984 -29.85)" fill="#b08174"/>
        <path id="Trazado_160123" data-name="Trazado 160123" d="M389.75,324.5a83.326,83.326,0,0,1-15.935-1.5c-14.539-2.853-24.416-1.961-24.515-1.952a.39.39,0,1,1-.074-.776c.1-.009,10.09-.911,24.738,1.962a83.592,83.592,0,0,0,27.922.587.39.39,0,0,1,.176.759,74.141,74.141,0,0,1-12.313.919" transform="translate(-55.65 -51.065)" fill="#1d1647"/>
        <path id="Trazado_160124" data-name="Trazado 160124" d="M373.16,348.274a.39.39,0,0,1-.39-.39V337.362a.377.377,0,0,1,.009-.082l1.236-5.825a.389.389,0,1,1,.761.162L373.55,337.4v10.481a.39.39,0,0,1-.39.39" transform="translate(-59.462 -52.823)" fill="#1d1647"/>
        <path id="Trazado_160125" data-name="Trazado 160125" d="M141.091,157.76s4.826-1.784,9.188.445c4.645,2.374,7,4.747,8.071,24.688s.949,29.911,1.068,31.454-37.982,1.068-37.982,1.068V165.8Z" transform="translate(-19.371 -25.057)" fill="#0b0635"/>
        <path id="Trazado_160126" data-name="Trazado 160126" d="M117.707,225.443s-19.4,2.113-19.034,35.539-6.76,31.094-.933,54.9c0,0,13.18,2.667,20.733-2.721l-.767-65.744Z" transform="translate(-15.224 -35.961)" fill="#fcfcfc"/>
        <path id="Trazado_160127" data-name="Trazado 160127" d="M166.384,351.857l.029-.233H104.2a154.071,154.071,0,0,1,3.79-15.278c.161-.561.327-1.131.494-1.7l.009-.034c.616-2.1,1.267-4.255,1.93-6.412l.032-.105c3.019-9.816,6.319-19.676,8.124-24.992l0-.007c.427-1.251.769-2.249,1-2.935v0l.368-1.059h40.485c.117.336.324,1.208.6,2.5v0q.1.482.22,1.041c.8,3.852,2.033,10.293,3.335,17.264v0c.1.541.2,1.08.306,1.627.582,3.127,1.172,6.325,1.742,9.415.066.363.131.721.2,1.08l.423,2.3c.012.066.024.132.036.2.129.71.259,1.411.383,2.1q.183.995.359,1.951c1.255,6.888,2.2,12.16,2.365,13.054.017.09.024.135.024.135Z" transform="translate(-16.621 -47.71)" fill="#ff7c90"/>
        <path id="Trazado_160128" data-name="Trazado 160128" d="M121.108,226.016s-8.8,2.556-7.611,21.046-8.79,41.419,5.577,44.085l39.584-.492a6.821,6.821,0,0,0,6.736-6.821V225.6l-8.3-1.44Z" transform="translate(-17.741 -35.757)" fill="#fcfcfc"/>
        <path id="Trazado_160129" data-name="Trazado 160129" d="M149.08,216.184l-14.323.431.492-12.3h13.119Z" transform="translate(-21.496 -32.591)" fill="#f8bd8c"/>
        <path id="Trazado_160130" data-name="Trazado 160130" d="M132.638,216.275h18.283a2.529,2.529,0,0,1,2.439,2.1l1.038,5.287-25.154.975.934-6.144a2.538,2.538,0,0,1,2.46-2.216" transform="translate(-20.616 -34.499)" fill="#fcfcfc"/>
        <path id="Trazado_160131" data-name="Trazado 160131" d="M148.592,208.987a5.942,5.942,0,0,1-4.429,3.677c-3.647.409-7.205-3.637-8.961-5.878-.35-.448-.52-.822-.715-1.075a8.485,8.485,0,0,0,1.614.8,18.218,18.218,0,0,0,6.424,1.072,10.6,10.6,0,0,0,4.8-1.072l1.109-.018Z" transform="translate(-21.453 -32.814)" fill="#eab186"/>
        <path id="Trazado_160132" data-name="Trazado 160132" d="M153.377,183.809c.31,9.887-5.582,18.1-13.16,18.334s-13.974-7.585-14.284-17.473,5.582-18.1,13.16-18.334,13.974,7.585,14.284,17.473" transform="translate(-20.086 -26.532)" fill="#f8bd8c"/>
        <path id="Trazado_160133" data-name="Trazado 160133" d="M161.19,187.769c0,2.047-1.776,4.024-3.241,4.024s-2.652-1.66-2.652-3.707a3.878,3.878,0,0,1,3.411-3.707c1.465,0,2.482,1.341,2.482,3.389" transform="translate(-24.772 -29.411)" fill="#f8bd8c"/>
        <path id="Trazado_160134" data-name="Trazado 160134" d="M151.281,180.3a1.069,1.069,0,0,1-.334-.053,7.1,7.1,0,0,0-4.965-.05,1.069,1.069,0,0,1-.927-1.926,9.2,9.2,0,0,1,6.557-.055,1.068,1.068,0,0,1-.331,2.084" transform="translate(-23.043 -28.34)"/>
        <path id="Trazado_160135" data-name="Trazado 160135" d="M128.019,182.217a1.067,1.067,0,0,1-.614-1.942,9.191,9.191,0,0,1,6.473-1.051,1.068,1.068,0,1,1-.349,2.108,7.146,7.146,0,0,0-4.915.7,1.069,1.069,0,0,1-.6.181" transform="translate(-20.25 -28.564)"/>
        <path id="Trazado_160136" data-name="Trazado 160136" d="M141.958,192.012H140.89a.178.178,0,0,1-.178-.178v-4.006a.178.178,0,1,1,.356,0v3.828h.89a.178.178,0,0,1,0,.356" transform="translate(-22.446 -29.933)"/>
        <path id="Trazado_160137" data-name="Trazado 160137" d="M133.7,186.546a1.218,1.218,0,1,1-1.187-1.491,1.365,1.365,0,0,1,1.187,1.491" transform="translate(-20.948 -29.519)"/>
        <path id="Trazado_160138" data-name="Trazado 160138" d="M150.112,184.772a1.218,1.218,0,1,1-1.187-1.491,1.365,1.365,0,0,1,1.187,1.491" transform="translate(-23.566 -29.236)"/>
        <path id="Trazado_160139" data-name="Trazado 160139" d="M137.118,198.631c.4,1.831,2.556,3.022,4.941,2.679a4.473,4.473,0,0,0,3.949-3.232Z" transform="translate(-21.872 -31.596)" fill="#fcfcfc"/>
        <path id="Trazado_160140" data-name="Trazado 160140" d="M139.5,157.021c3.725,7.471-5.267,10.154-8.671,14.2-3.722,4.418-6.294,13.144-6.093,18.952.546,15.85,5.906,28.555-4.546,43.061,2.167-8.809-1.128-15.541-3.875-23.537-3.021-8.793-2.969-17.806-1.926-26.941.785-6.881,1.041-18.016,6.217-23.213,2.972-2.984,16.521-7.279,18.894-2.52" transform="translate(-18.143 -24.708)" fill="#0b0635"/>
        <path id="Trazado_160141" data-name="Trazado 160141" d="M143.363,166.195a13.114,13.114,0,0,0,5.4,4.73c5.284,2.55,6.416,10.945,6.416,10.945l2.145-1.168-4.15-15.62Z" transform="translate(-22.868 -26.333)" fill="#0b0635"/>
        <path id="Trazado_160142" data-name="Trazado 160142" d="M179.124,335.645l-2.632-.862a.986.986,0,0,1,.035-1.061c.363-.6,1.225-.578,1.645-.535a7.73,7.73,0,0,1,1.291.37,8.532,8.532,0,0,1,2.085-1.712,4.405,4.405,0,0,1,.214-2.39,3.8,3.8,0,0,1-.963-2.73s-.112-.2-.275-.5c-.139.062-.405.184-.577.282-.24.138-.261.92-.166,1.392a10.5,10.5,0,0,1,.051,2.817,1.636,1.636,0,0,1-1.773,1.4c-.972-.033-1-.985-1.193-1.831a12.26,12.26,0,0,1-.04-3.16,12.962,12.962,0,0,0-.619-3.721,9.938,9.938,0,0,1-.184-2.591,16.006,16.006,0,0,1,.733-3.022,4.118,4.118,0,0,1,.146-2.289c.5-1.089-1.112-9.038-1.112-9.038l8.125.919-.756,8.992s2.543,5.324,3.385,7.717,1.454,3.654,1.337,4.843c0,0-1.235,4.785-2.5,5.841-1.3,1.083-4.19,2.983-5.035,3.048a25.652,25.652,0,0,1-3.328-.255,2.5,2.5,0,0,1-.941-.244s-.389.006-.089-.808,1.135-.609,3.138-.877" transform="translate(-28.041 -48.886)" fill="#f8bd8c"/>
        <path id="Trazado_160143" data-name="Trazado 160143" d="M170.349,224.88s11.37-.814,15.375,15.133,3.583,21.923,3.372,32.081,11.634,30.21.882,43.133a84.572,84.572,0,0,0-17.534-6.253s-1.475-1.609-.631-18.369-1.464-65.724-1.464-65.724" transform="translate(-27.173 -35.87)" fill="#fcfcfc"/>
        <path id="Trazado_160144" data-name="Trazado 160144" d="M110.873,333.6s-3.377.208-4.033.2c0,0,.048,4.709,2.016,6.313l.046.038Z" transform="translate(-17.042 -53.213)" fill="#eab186"/>
        <path id="Trazado_160145" data-name="Trazado 160145" d="M117.963,287.522a.389.389,0,0,1-.387-.35,27.592,27.592,0,0,1,.459-7.814,9.113,9.113,0,0,0-.314-4.909,32.257,32.257,0,0,1-1.1-6.765c-.44-7.052,2.18-11.029,2.292-11.2a.39.39,0,0,1,.646.435c-.039.06-2.581,3.961-2.161,10.712a31.533,31.533,0,0,0,1.08,6.618,9.853,9.853,0,0,1,.321,5.27,27.271,27.271,0,0,0-.445,7.568.39.39,0,0,1-.348.428l-.04,0" transform="translate(-18.594 -40.886)" fill="#ccdde7"/>
        <path id="Trazado_160146" data-name="Trazado 160146" d="M170.45,296.181l-.04,0a.39.39,0,0,1-.348-.427,41.626,41.626,0,0,0,.277-8.575c-.148-1.434-.325-2.872-.5-4.263-.381-3.09-.775-6.284-.858-9.528a.39.39,0,1,1,.779-.02c.082,3.206.456,6.24.852,9.453.171,1.394.35,2.837.5,4.278a42.214,42.214,0,0,1-.277,8.735.389.389,0,0,1-.387.35" transform="translate(-26.955 -43.545)" fill="#ccdde7"/>
        <path id="Trazado_160147" data-name="Trazado 160147" d="M143.988,304.176h-23.5a.39.39,0,0,1,0-.779h23.5a.39.39,0,1,1,0,.779" transform="translate(-19.158 -48.396)" fill="#dc4070"/>
        <rect id="Rect치ngulo_11080" data-name="Rect치ngulo 11080" width="19.329" height="17.429" transform="translate(426.51 130.554)" fill="#f8bd8c"/>
        <path id="Trazado_160148" data-name="Trazado 160148" d="M526.785,157.021v5.419A9.226,9.226,0,0,1,521,165.226c-5.225.469-10.334-3.411-13.545-6.415v-1.8c.016,0,.031.009.047.013a37.573,37.573,0,0,0,10.756,1.428,21.568,21.568,0,0,0,8.044-1.428Z" transform="translate(-80.946 -25.046)" fill="#eab186"/>
        <path id="Trazado_160149" data-name="Trazado 160149" d="M502.125,136.682c.24,2.912-.9,5.382-2.542,5.519s-3.173-2.116-3.412-5.028.9-5.382,2.542-5.518,3.172,2.115,3.412,5.027" transform="translate(-79.141 -21)" fill="#f2b588"/>
        <path id="Trazado_160150" data-name="Trazado 160150" d="M539.939,137.284c-.345,2.9-1.954,5.1-3.593,4.9s-2.686-2.706-2.34-5.607,1.954-5.1,3.592-4.9,2.686,2.706,2.341,5.607" transform="translate(-85.171 -21.002)" fill="#f2b588"/>
        <path id="Trazado_160151" data-name="Trazado 160151" d="M531.533,133.7c0,11.55-7.022,20.914-15.685,20.914s-15.685-9.364-15.685-20.914,7.022-20.914,15.685-20.914,15.685,9.364,15.685,20.914" transform="translate(-79.783 -17.992)" fill="#f8bd8c"/>
        <path id="Trazado_160152" data-name="Trazado 160152" d="M509.885,100.952c-.466,0-4.668-3.081-10.083,2.054s-4.171,4.139-5.664,5.509-1.12,2.814-3.112,4.084-2.365,1.891-1.494,3.385,1.48,2.987-.443,3.983-2.669,1.245-1.673,2.116.155,2.023,2.4,2.4,3.454.613,3.828,1.567,1.214.955,2.335,1.328,1.307.56,1.68,1.12.776.373.776.373,2.263-5.524,2.378-7.9.862.054,2.635-2.374,2.134-2.223,3.642-4.131a15.593,15.593,0,0,1,1.848-2.072c1.232-1.36.952-11.443.952-11.443" transform="translate(-77.679 -15.957)" fill="#e2b897"/>
        <path id="Trazado_160153" data-name="Trazado 160153" d="M518.871,144.247c-.18,0-.311-.005-.358-.008a.187.187,0,1,1,.017-.373c.74.035,2.026-.044,2.322-.4s.148-2.3-.041-3.588a.187.187,0,0,1,.158-.212.185.185,0,0,1,.212.157c.08.544.454,3.287-.041,3.881-.4.477-1.637.541-2.268.541" transform="translate(-82.681 -22.279)" fill="#080305"/>
        <path id="Trazado_160154" data-name="Trazado 160154" d="M512.79,150.111h10.363s-3.3,5.43-8.391,1.914c-.175-.12-1.973-1.914-1.973-1.914" transform="translate(-81.797 -23.945)" fill="#fff"/>
        <path id="Trazado_160155" data-name="Trazado 160155" d="M512.85,129.218c-.609.065-1.246.113-1.863.162s-1.238.1-1.85.168-1.214.144-1.813.228-1.175.207-1.757.326l-.037.008a.757.757,0,0,1-.512-1.408,8.345,8.345,0,0,1,1.947-.724,13.67,13.67,0,0,1,2-.309,16.2,16.2,0,0,1,2-.02,11.75,11.75,0,0,1,1.989.258.665.665,0,0,1-.075,1.309Z" transform="translate(-80.494 -20.358)" fill="#080305"/>
        <path id="Trazado_160156" data-name="Trazado 160156" d="M523.145,127.906a11.927,11.927,0,0,1,1.989-.258,16.2,16.2,0,0,1,2,.021,13.677,13.677,0,0,1,2,.309,8.271,8.271,0,0,1,1.946.725.757.757,0,0,1-.511,1.408l-.038-.008c-.582-.119-1.162-.23-1.757-.327s-1.2-.163-1.813-.228-1.229-.113-1.85-.167-1.255-.1-1.863-.163l-.029,0a.665.665,0,0,1-.076-1.309" transform="translate(-83.366 -20.358)" fill="#080305"/>
        <path id="Trazado_160157" data-name="Trazado 160157" d="M510.484,135.333a1.34,1.34,0,1,1-1.292-1.7,1.536,1.536,0,0,1,1.292,1.7" transform="translate(-81.017 -21.317)" fill="#080305"/>
        <path id="Trazado_160158" data-name="Trazado 160158" d="M528.878,135.333a1.34,1.34,0,1,1-1.292-1.7,1.536,1.536,0,0,1,1.292,1.7" transform="translate(-83.951 -21.317)" fill="#080305"/>
        <path id="Trazado_160159" data-name="Trazado 160159" d="M511.057,108s.373,7.333,7.283,9.141c0,0,1.96-.2,3.454,2.611s-.093,2.511,1.68,3.416,1.588-.1,4.388,1.1,1.868,2.035,3.922,3.227,6.068.288,6.629-.716,1.494-1.305,1.773-2.311a34.3,34.3,0,0,0,0-5.424s-3.361-2.411-4.481-5.224.374-4.018-2.054-5.826-6.162-3.415-6.909-4.219-1.68-4.821-4.855-4.62-7.1-.115-8.5-.008a2.727,2.727,0,0,0-2.334,2.619c-.187,1.306,0,6.228,0,6.228" transform="translate(-81.507 -15.813)" fill="#e2b897"/>
        <path id="Trazado_160160" data-name="Trazado 160160" d="M552.075,349.13H516.263c-.724-9.37-1.358-18.954-1.451-24.664-.018-1.15,0-2.888,0-2.888L513.12,349.13H472.436c.032-7.743.444-17.185,1.55-28.37.04-.381.077-.767.119-1.151q.567-5.571,1.381-11.713.29-2.195.616-4.466.347-2.412.737-4.908.284-1.843.6-3.733.144-.888.3-1.789v0c.177-1.051.356-2.108.546-3.181q.545-3.117,1.154-6.35h66.251s.284,1.146.735,3.211c.158.71.33,1.529.52,2.448a.046.046,0,0,1,0,.015c.034.161.067.327.1.494.4,1.957.862,4.327,1.342,7.029.374,2.1.756,4.4,1.133,6.861.619,4.063,1.219,8.566,1.708,13.348q.121,1.172.233,2.368a190.382,190.382,0,0,1,.616,29.889" transform="translate(-75.36 -45.217)" fill="#ff7c90"/>
        <path id="Trazado_160161" data-name="Trazado 160161" d="M551.388,176.981s14.5,4.54,17.458,7.189,13.022,25.256,13.022,37.118,2.368,30.078,0,33.506-13.022,20.428-20.124,24.351-10.012,3.63-10.012,3.63l-1.737-17.659,7.606-27.935-3.859-42.092Z" transform="translate(-87.732 -28.231)" fill="#755faa"/>
        <path id="Trazado_160162" data-name="Trazado 160162" d="M493.2,172.6c1.591-.6,5.853-1.8,8.834-.694s10.16,2.221,13.583.694a19.161,19.161,0,0,1,10.933-1.074c3.092.658,11.816,2.463,16.9,6.627s8.169,82.742,3.477,89.406c-1.64,2.328-9.805,10.261-22.736,7.881-10.331-1.9-22.045,6.411-33.068.751-8.61-4.421-15.478-4.467-15.478-4.467S465.259,202.312,471,186.485c0,0,.663-5.831,22.2-13.883" transform="translate(-74.855 -27.305)" fill="#755faa"/>
        <path id="Trazado_160163" data-name="Trazado 160163" d="M522.781,326.861h-.014a.39.39,0,0,1-.376-.4c.067-2.007,1.155-3.438,2.8-5.605a53.32,53.32,0,0,0,4.373-6.513.39.39,0,1,1,.679.382,53.777,53.777,0,0,1-4.432,6.6c-1.611,2.121-2.584,3.4-2.642,5.161a.39.39,0,0,1-.389.377" transform="translate(-83.329 -50.11)" fill="#1d1647"/>
        <path id="Trazado_160164" data-name="Trazado 160164" d="M490.754,174.145s-11.834,7.245-16.939,10.25a25.3,25.3,0,0,0-9.619,9.94c-1.178,2.543-3.927,4.855-3.73,6.473s-4.516,8.554-5.5,14.333-2.748,24.965-2.748,25.658,3.141,16.644,3.141,16.644,9.228,11.1,11.191,13.639,7.853,6.7,8.639,6.7,5.693-3.93,5.5-7.859-1.571-15.257-2.945-17.106a31.368,31.368,0,0,1-3.381-4.688,12.163,12.163,0,0,1-.741-1.784c-.982-3,1.767-10.171,1.767-10.171s8.835-25.428,8.442-28.9,2.553-15.719,1.767-18.955,5.16-14.18,5.16-14.18" transform="translate(-72.135 -27.779)" fill="#755faa"/>
        <path id="Trazado_160165" data-name="Trazado 160165" d="M501.176,297.9c-6.9,0-10.028-3.751-10.161-3.916a.39.39,0,0,1,.605-.491c.048.058,3.251,3.857,10.206,3.616a50.568,50.568,0,0,0,11.5-1.524c.5-.121.979-.235,1.46-.341,4.4-.967,10.5-2.112,12.674-.906a.389.389,0,0,1-.378.681c-2.165-1.2-9.664.445-12.127.986-.474.1-.946.218-1.446.338a51.222,51.222,0,0,1-11.652,1.546c-.229.008-.456.012-.677.012" transform="translate(-78.31 -46.794)" fill="#1d1647"/>
        <path id="Trazado_160166" data-name="Trazado 160166" d="M479.625,252.7a.389.389,0,0,1-.381-.309,15.891,15.891,0,0,1,1.345-11.215,59.081,59.081,0,0,0,3.812-9.206c.656-1.875,1.333-3.814,2.135-5.727a.39.39,0,0,1,.719.3c-.793,1.891-1.467,3.818-2.118,5.683a60.567,60.567,0,0,1-3.865,9.324,15.137,15.137,0,0,0-1.266,10.68.389.389,0,0,1-.3.461.379.379,0,0,1-.081.008" transform="translate(-76.376 -36.05)" fill="#1d1647"/>
        <path id="Trazado_160167" data-name="Trazado 160167" d="M515.492,173.83c-2.962,0-8-1.655-8.232-1.731a.389.389,0,1,1,.245-.739c.059.018,5.893,1.934,8.538,1.666a20.871,20.871,0,0,1,3.157-.092,2.671,2.671,0,0,0,.9-.036.389.389,0,1,1,.421.655,2.335,2.335,0,0,1-1.349.161,20.213,20.213,0,0,0-3.049.087,6.187,6.187,0,0,1-.63.029" transform="translate(-80.872 -27.331)" fill="#1d1647"/>
        <path id="Trazado_160168" data-name="Trazado 160168" d="M623.295,204.986c-3.332,4.284-8.567,7.772-14.121,7.929-.529.014-1.432.076-2.637.171-8.833.7-33.807,3.322-44.839,4.493-3.293.347-5.345.571-5.354.571-1.324.143-2.323-4.674-2.37-5.382a12.624,12.624,0,0,1,1.9-6.949c1.209-2.147,3.855-4.64,2.879-7.339-.861-2.394-4.17-2.894-5.607-4.992a5.291,5.291,0,0,1-.052-5.235,12.527,12.527,0,0,1,5.868-5.573c2.089-.961,3.889-2.084,4.826-4.031a6.668,6.668,0,0,0,.5-1.428c.652-2.932.057-6.626,2.056-9.2,1.666-2.142,5.712-4.4,9.519-8.686q.9-1.014,1.837-1.9c.138-.133.281-.266.424-.4,3.212-2.946,6.639-4.769,9.519-4.959,3.57-.238,9.519.594,10.828,4.045s2.974,2.974,5.116,4.283,7.021,2.38,8.129,9.838a27.289,27.289,0,0,1-.023,7.6,2.728,2.728,0,0,0,.933,2.189,8.518,8.518,0,0,0,.994.837c3.651,2.7,7.458,4.917,9.681,8.41s3.332,11.423,0,15.706" transform="translate(-88.12 -24.252)" fill="#231347"/>
        <path id="Trazado_160169" data-name="Trazado 160169" d="M632.864,209.883c-3.332,4.284-8.568,7.772-14.121,7.929-.529.014-1.434.076-2.637.171a21.434,21.434,0,0,0,.424-5.245c-.306-2.856-.486-1.59-1.119-3.494s1.27-4.916,1.108-7.139-2.693-3.645-3.807-7.615a6.854,6.854,0,0,1,1.307-6.452l7.236-5.3a2.733,2.733,0,0,0,.933,2.189,8.674,8.674,0,0,0,1,.837c3.651,2.7,7.458,4.917,9.681,8.41s3.332,11.423,0,15.706" transform="translate(-97.69 -29.15)" fill="#31185e"/>
        <path id="Trazado_160170" data-name="Trazado 160170" d="M601.566,218.546a23.212,23.212,0,0,1-4.725,1.5h-8.363a21.071,21.071,0,0,1-3.792-1.161l.1-4.517.68-10.7.055-.846.122-1.933,13.981.376.231,1.822.453,3.57.988,7.784Z" transform="translate(-93.266 -32.046)" fill="#f8bd8c"/>
        <path id="Trazado_160171" data-name="Trazado 160171" d="M613.552,187.415a2.931,2.931,0,1,1-1.943-4,3.167,3.167,0,0,1,1.943,4" transform="translate(-96.955 -29.243)" fill="#f8bd8c"/>
        <path id="Trazado_160172" data-name="Trazado 160172" d="M622.766,225.456l-2.809,65.658-20.731.654-39.833,1.255L556.22,224.38l24.025-7.452s5.721,4.29,16.51.077a10.572,10.572,0,0,1,3.069.528c2.6.645,6.482,1.768,10.322,2.922a12.836,12.836,0,0,0,6.982,2.9,15.186,15.186,0,0,1,5.639,2.1" transform="translate(-88.725 -34.603)" fill="#fff"/>
        <path id="Trazado_160173" data-name="Trazado 160173" d="M575.063,187.829s1.271,6.454-1.033,10.58-3.25,4.365-2.3,8.129,1.156,2.913.952,5.112c-.105,1.18-5.7,4.374-10.985,6.878-3.293.347-5.345.571-5.354.571-1.324.143-2.323-4.674-2.371-5.382a12.618,12.618,0,0,1,1.9-6.949c1.209-2.147,3.855-4.64,2.879-7.339-.861-2.394-4.17-2.894-5.607-4.992a5.291,5.291,0,0,1-.052-5.235,12.527,12.527,0,0,1,5.868-5.573c2.089-.961,3.889-2.084,4.826-4.031a6.669,6.669,0,0,0,.5-1.428c.652-2.932.057-6.626,2.056-9.2,1.666-2.142,5.711-4.4,9.519-8.686q.9-1.014,1.837-1.9c.138-.133.281-.266.424-.4l1.356,15.14Z" transform="translate(-88.12 -25.2)" fill="#31185e"/>
        <path id="Trazado_160174" data-name="Trazado 160174" d="M605.024,181.308c0,10.251-5.86,18.562-13.089,18.562s-13.8-7.835-13.8-18.086,6.573-19.038,13.8-19.038,13.089,8.311,13.089,18.562" transform="translate(-92.22 -25.96)" fill="#f8bd8c"/>
        <path id="Trazado_160175" data-name="Trazado 160175" d="M587.039,178.489a9.664,9.664,0,0,0-1.225-.281,12.694,12.694,0,0,0-1.3-.156,13.129,13.129,0,0,0-2.621.077l-.013,0a.9.9,0,0,1-.266-1.787,14.928,14.928,0,0,1,3-.2,14.724,14.724,0,0,1,1.5.124,11.486,11.486,0,0,1,1.53.3,1.006,1.006,0,1,1-.528,1.942l-.033-.009Z" transform="translate(-92.655 -28.096)"/>
        <path id="Trazado_160176" data-name="Trazado 160176" d="M597.8,176.7a11.538,11.538,0,0,1,1.536-.261,14.72,14.72,0,0,1,1.5-.087,14.9,14.9,0,0,1,2.99.273.9.9,0,0,1-.308,1.78l-.015,0a13.237,13.237,0,0,0-3.924-.019,10.015,10.015,0,0,0-1.23.25l-.035.01a1.006,1.006,0,1,1-.553-1.935l.037-.01" transform="translate(-95.236 -28.131)"/>
        <path id="Trazado_160177" data-name="Trazado 160177" d="M586.82,182.188a1.241,1.241,0,1,1-1.23-1.4,1.325,1.325,0,0,1,1.23,1.4" transform="translate(-93.213 -28.838)"/>
        <path id="Trazado_160178" data-name="Trazado 160178" d="M601.992,182.471a1.241,1.241,0,1,1-1.23-1.4,1.325,1.325,0,0,1,1.23,1.4" transform="translate(-95.634 -28.883)"/>
        <path id="Trazado_160179" data-name="Trazado 160179" d="M580.828,185.082a3.083,3.083,0,1,1-4.4-1.215,3.236,3.236,0,0,1,4.4,1.215" transform="translate(-91.732 -29.259)" fill="#f8bd8c"/>
        <path id="Trazado_160180" data-name="Trazado 160180" d="M617.336,180.032c-2.089,1.827-4.6,3.993-4.874,4.408-.476.714-4.7.8-4-.3.229-.362,1.147-5.769-2.066-5.293s-3.45-1.428-4.278-2.737-.124-4.76,0-5.992-1.666-3.051-3.927-2.218-6.9,2.855-8.21,2.022-.238-3.45-4.045-2.855-3.927-4.4-3.927-4.4l.409-5.235c3.337-3.18,6.935-5.155,9.943-5.355,3.569-.238,9.519.6,10.827,4.045s2.975,2.975,5.117,4.284,7.02,2.379,8.129,9.838c.989,6.615-1.152,7.734.909,9.79" transform="translate(-92.837 -24.252)" fill="#31185e"/>
        <path id="Trazado_160181" data-name="Trazado 160181" d="M623.36,352.172H560.8c.261-9.611,2.49-20.8,4.755-29.889q.338-1.364.678-2.66c1.577-6.046,3.076-10.885,3.84-13.258.331-1.028.523-1.594.523-1.594l8.442-.452,2.4-.13,18.845-1.01,11.953-.641s.049.926.224,2.492a74.227,74.227,0,0,0,3.422,15.529,48.7,48.7,0,0,0,2.781,6.553c3.1,5.978,4.272,16.6,4.695,25.061" transform="translate(-89.455 -48.259)" fill="#e2b897"/>
        <path id="Trazado_160182" data-name="Trazado 160182" d="M575.668,216.788a.315.315,0,0,1,.371.342c-.3,3.107-2.209,22.578-2.647,23.454-.476.951-.951,4.918-1.11,8.091a79.019,79.019,0,0,0,0,8.726,112.032,112.032,0,0,0,1.11,12.216c.477,3.015,2.459,13.684,2.579,16.658a31.351,31.351,0,0,0,.833,6.91c.6,2.608,1.547,5.107,1.309,6.892s-24.868,9.043-24.868,9.043a7,7,0,0,1-2.855-4.284c-.357-2.617-2.023-3.926-2.38-6.663s-1.269-18.8.635-26.532-5.235-13.447-4.918-14.716.238-23.6,2.5-25.741,7.939-7.377,12.374-7.854,6.068-2.379,8.448-3.926c2.023-1.315,7.134-2.339,8.621-2.616" transform="translate(-86.73 -34.58)" fill="#c5a2fd"/>
        <path id="Trazado_160183" data-name="Trazado 160183" d="M572.072,258.293a.391.391,0,0,1-.321-.168,2.471,2.471,0,0,1-.118-2.568,5.043,5.043,0,0,0,.069-3.8,17.781,17.781,0,0,0-2.265-4.255,11.1,11.1,0,0,1-2.112-4.537c-.2-1.466.353-3.513.888-5.493.573-2.122,1.166-4.316.653-5.278a11.025,11.025,0,0,0-2.872-2.827,8.856,8.856,0,0,1-2.633-2.649c-.243-.551-.206-1.6,2.92-4.324,1.631-1.421,3.374-2.658,3.391-2.67a.39.39,0,1,1,.45.636c-3.207,2.269-6.4,5.24-6.048,6.043a8.593,8.593,0,0,0,2.4,2.353,11.469,11.469,0,0,1,3.078,3.073c.658,1.235.052,3.475-.588,5.848a15.689,15.689,0,0,0-.869,5.185,10.374,10.374,0,0,0,1.991,4.213,18.658,18.658,0,0,1,2.353,4.439,5.848,5.848,0,0,1-.073,4.3c-.267.756-.428,1.212.024,1.866a.39.39,0,0,1-.32.611" transform="translate(-89.849 -35.037)" fill="#9e4aff"/>
        <path id="Trazado_160184" data-name="Trazado 160184" d="M544.257,233.118c-.635,1.345-8.612,9.53-9.428,15.493s-3.671,8.2-3.433,15.652-.714,9.937,2.617,13.664,3.332,6.957,5.711,11.677-.218,6.957,4.532,9.938,6.653-12.919,10.223-15.9,1.428-2.551,0-7.487-7.377-9.656-7.616-11.394,1.508-3.955,1.9-5.325c.32-1.106,3.333-26.958,3.808-30.2s-2.511-1.191-2.511-1.191Z" transform="translate(-84.763 -36.273)" fill="#c5a2fd"/>
        <path id="Trazado_160185" data-name="Trazado 160185" d="M553.68,294.645a.381.381,0,0,1-.147-.029.389.389,0,0,1-.213-.508c1.756-4.3,2.144-4.789,2.785-5.591a13.28,13.28,0,0,0,.93-1.289,12.058,12.058,0,0,1,1.36-1.8,1.861,1.861,0,0,0,.587-1.267,2.7,2.7,0,0,0-1.031-2.284c-.223-.091-.3-.443-.862-3.454-.456-2.457-2.418-6.71-4.769-7.978-1.147-.618-2.467-1.514-2.484-2.961a5.858,5.858,0,0,1,.54-2.193l.068-.175a45.178,45.178,0,0,0,2.377-10.677c.168-1.363.208-2.753.246-4.1s.076-2.715.241-4.085a.389.389,0,1,1,.773.093c-.16,1.334-.2,2.7-.236,4.014-.039,1.362-.078,2.769-.251,4.169a45.89,45.89,0,0,1-2.423,10.862l-.069.177a5.208,5.208,0,0,0-.487,1.9c.013,1.035,1.056,1.736,2.075,2.285,2.6,1.4,4.668,5.848,5.166,8.521.4,2.171.557,2.821.61,3.011a3.433,3.433,0,0,1,1.283,3.006,2.582,2.582,0,0,1-.777,1.652,11.326,11.326,0,0,0-1.281,1.694,14.027,14.027,0,0,1-.978,1.357c-.6.746-.959,1.2-2.673,5.4a.389.389,0,0,1-.361.243m4.807-13.28h0Z" transform="translate(-87.706 -39.227)" fill="#9e4aff"/>
        <path id="Trazado_160186" data-name="Trazado 160186" d="M585.284,304.587a.389.389,0,0,1-.021-.778l22.417-1.215a.389.389,0,0,1,.043.777l-22.417,1.215h-.022" transform="translate(-93.299 -48.268)" fill="#b08174"/>
        <path id="Trazado_160187" data-name="Trazado 160187" d="M634.931,271.684c1.9,7.736.992,23.794.635,26.532s-2.024,4.045-2.381,6.663a6.794,6.794,0,0,1-2.621,4.113.553.553,0,0,1-.5.092c-2.662-.791-24.378-7.288-24.6-8.964-.239-1.785.714-4.284,1.308-6.892.118-.524.219-1,.3-1.439a33.47,33.47,0,0,0,.529-5.471c.119-2.975,2.1-13.643,2.578-16.658a112.4,112.4,0,0,0,1.111-12.215,79.794,79.794,0,0,0,0-8.725c-.161-3.174-.635-7.14-1.111-8.092-.426-.85-2.149-19.088-2.512-22.96a.458.458,0,0,1,0-.113.555.555,0,0,1,.648-.49c1.764.294,6.31,1.15,8.206,2.384.512.333.988.682,1.468,1.028a12.818,12.818,0,0,0,6.981,2.9,15.187,15.187,0,0,1,5.639,2.1,21.407,21.407,0,0,1,7.01,6.278c2.557,4.068,1.585,9.914,1.787,14.467.148,3.373-.386,7.453.438,10.746.315,1.27-6.822,6.979-4.919,14.717" transform="translate(-96.574 -34.623)" fill="#c5a2fd"/>
        <path id="Trazado_160188" data-name="Trazado 160188" d="M614.678,258.588a.39.39,0,0,1-.32-.611c.453-.654.292-1.11.024-1.866a5.85,5.85,0,0,1-.073-4.305,18.659,18.659,0,0,1,2.353-4.438,10.362,10.362,0,0,0,1.991-4.213,15.7,15.7,0,0,0-.869-5.184c-.64-2.373-1.246-4.613-.588-5.848a11.482,11.482,0,0,1,3.078-3.074,8.583,8.583,0,0,0,2.4-2.352c.372-.844-2.506-3.957-5.385-6.357a.389.389,0,1,1,.5-.6c1.51,1.258,6.379,5.5,5.6,7.27a8.87,8.87,0,0,1-2.632,2.649,11.015,11.015,0,0,0-2.873,2.827c-.513.962.08,3.156.653,5.278.535,1.98,1.089,4.028.888,5.493a11.091,11.091,0,0,1-2.112,4.537,17.768,17.768,0,0,0-2.265,4.255,5.043,5.043,0,0,0,.069,3.8A2.471,2.471,0,0,1,615,258.42a.39.39,0,0,1-.321.168" transform="translate(-97.931 -35.038)" fill="#9e4aff"/>
        <path id="Trazado_160189" data-name="Trazado 160189" d="M640.986,233.118c.635,1.345,8.612,9.53,9.428,15.493s3.671,8.2,3.433,15.652.714,9.937-2.617,13.664-3.332,6.957-5.711,11.677.218,6.957-4.532,9.938-6.653-12.919-10.223-15.9-1.428-2.551,0-7.487,7.377-9.656,7.616-11.394-1.508-3.955-1.9-5.325c-.32-1.106-3.332-26.958-3.808-30.2s2.511-1.191,2.511-1.191Z" transform="translate(-100.304 -36.273)" fill="#c5a2fd"/>
        <path id="Trazado_160190" data-name="Trazado 160190" d="M627.725,302.488a.391.391,0,0,1-.348-.214,11.677,11.677,0,0,0-2.354-2.89c-.268-.246-.534-.472-.792-.688-1.379-1.165-2.57-2.171-2.137-4.986a6.315,6.315,0,0,1,1.268-3.07,8.661,8.661,0,0,0,1.545-3.539c.9-3.946,6.717-19.235,6.964-19.884a.39.39,0,1,1,.729.277c-.061.158-6.046,15.887-6.933,19.78A9.449,9.449,0,0,1,624,291.084a5.59,5.59,0,0,0-1.139,2.744c-.366,2.383.524,3.134,1.871,4.271.263.223.536.453.815.71a12.206,12.206,0,0,1,2.522,3.112.39.39,0,0,1-.347.566" transform="translate(-99.218 -42.585)" fill="#9e4aff"/>
        <path id="Trazado_160191" data-name="Trazado 160191" d="M594.856,354.569a.39.39,0,0,1-.39-.39v-23.1l-5.039-4.213a.389.389,0,1,1,.5-.6l5.18,4.33a.388.388,0,0,1,.14.3v23.279a.39.39,0,0,1-.39.39" transform="translate(-93.999 -52.03)" fill="#b08174"/>
        <path id="Trazado_160192" data-name="Trazado 160192" d="M600.455,207.03a6.488,6.488,0,0,1-4.565,2.774c-4.115.406-8.13-3.412-10.276-5.763l.055-.846c.214.089.456.181.736.271a24.185,24.185,0,0,0,7.557,1.105,13.956,13.956,0,0,0,5.652-1.105l.388-.005Z" transform="translate(-93.413 -32.412)" fill="#eab186"/>
        <path id="Trazado_160193" data-name="Trazado 160193" d="M593.682,188.56h-1.068a.178.178,0,0,1-.178-.178v-4.006a.178.178,0,0,1,.356,0V188.2h.89a.178.178,0,0,1,0,.356" transform="translate(-94.502 -29.382)"/>
        <path id="Trazado_160194" data-name="Trazado 160194" d="M592.6,196.965a7.224,7.224,0,0,1-2.485-.45.195.195,0,0,1,.134-.366c2.451.9,5.062.344,6.352-1.35a.195.195,0,0,1,.31.236,5.337,5.337,0,0,1-4.312,1.929" transform="translate(-94.111 -31.061)" fill="#1a1a1a"/>
        <path id="Trazado_160195" data-name="Trazado 160195" d="M578.025,190.059a.285.285,0,1,1-.285-.285.285.285,0,0,1,.285.285" transform="translate(-92.112 -30.272)"/>
        <path id="Trazado_160196" data-name="Trazado 160196" d="M610.835,190.175a.285.285,0,1,1-.285-.285.285.285,0,0,1,.285.285" transform="translate(-97.346 -30.29)"/>
        <path id="Trazado_160197" data-name="Trazado 160197" d="M576.708,189.093a.214.214,0,1,1-.214-.213.214.214,0,0,1,.214.213" transform="translate(-91.925 -30.129)"/>
        <path id="Trazado_160198" data-name="Trazado 160198" d="M469.737,208.942,463,216.955l-2.139,2.547-19.01,22.624,1.12-31.545a4.919,4.919,0,0,0,4.618-4.911V195.075l13.5.492q.274,1.821.55,3.647c.03.207.062.413.093.619,0,.03.009.059.013.089.105.7.167,1.521.246,2.386.015.176.03.353.05.532.312,3.117.984,6.518,4.664,6.289Z" transform="translate(-70.482 -31.117)" fill="#f8bd8c"/>
        <path id="Trazado_160199" data-name="Trazado 160199" d="M463.082,202.971a6.028,6.028,0,0,1-4.419,3.256c-3.874.422-7.651-3.749-9.515-6.057a6.34,6.34,0,0,1-.465-.667v-.268a8.642,8.642,0,0,0,1.419.656,19.893,19.893,0,0,0,6.82,1.1,11.544,11.544,0,0,0,5.1-1.1l.706-.013c.03.207.062.413.093.619.005.03.008.059.013.089.1.7.167,1.521.246,2.386" transform="translate(-71.571 -31.781)" fill="#eab186"/>
        <path id="Trazado_160200" data-name="Trazado 160200" d="M466.539,184.709s16.113-1.746,9.555-21.911-26.722-15.41-26.722-15.41-14.919,6.08-16.722,18.861,9.014,16.286,9.014,16.286Z" transform="translate(-68.981 -23.433)"/>
        <path id="Trazado_160201" data-name="Trazado 160201" d="M462.6,146.189s4.625-7.77,2.843-9.719-4.024-4.214-8.529-3.4a6.061,6.061,0,0,0-5.029,6.766,31.939,31.939,0,0,0,3.009,6.87c1.467,2.41,7.706-.512,7.706-.512" transform="translate(-72.066 -21.199)"/>
        <path id="Trazado_160202" data-name="Trazado 160202" d="M442.932,178.08c-.922,9.676,4.342,18.091,11.758,18.8s14.176-6.564,15.1-16.239-4.343-18.091-11.758-18.8-14.175,6.563-15.1,16.239" transform="translate(-70.637 -25.808)" fill="#f8bd8c"/>
        <path id="Trazado_160203" data-name="Trazado 160203" d="M456.29,158.989s5.574,11.23,16.394,17.3,1.066-15.41,1.066-15.41Z" transform="translate(-72.785 -25.361)"/>
        <path id="Trazado_160204" data-name="Trazado 160204" d="M438.073,179.2c0,2.209,1.916,4.342,3.5,4.342s2.862-1.791,2.862-4a4.186,4.186,0,0,0-3.68-4c-1.58,0-2.678,1.448-2.678,3.657" transform="translate(-69.879 -28.001)" fill="#f8bd8c"/>
        <path id="Trazado_160205" data-name="Trazado 160205" d="M476.934,180.532c0,2.209-1.916,4.342-3.5,4.342s-2.862-1.79-2.862-4a4.186,4.186,0,0,1,3.68-4c1.58,0,2.678,1.448,2.678,3.657" transform="translate(-75.063 -28.214)" fill="#f8bd8c"/>
        <path id="Trazado_160206" data-name="Trazado 160206" d="M450.875,179.1a1.225,1.225,0,1,0,1.183-1.547,1.4,1.4,0,0,0-1.183,1.547" transform="translate(-71.921 -28.322)"/>
        <path id="Trazado_160207" data-name="Trazado 160207" d="M465.131,180.005a1.226,1.226,0,1,0,1.183-1.547,1.4,1.4,0,0,0-1.183,1.547" transform="translate(-74.195 -28.467)"/>
        <path id="Trazado_160208" data-name="Trazado 160208" d="M453.484,174.823a1.152,1.152,0,0,1-.294,0,7.611,7.611,0,0,0-4.333.453,1.048,1.048,0,0,1-1.278-.219.7.7,0,0,1,.316-1.048,9.855,9.855,0,0,1,5.713-.685.74.74,0,0,1,.7.884.945.945,0,0,1-.826.619" transform="translate(-71.374 -27.627)"/>
        <path id="Trazado_160209" data-name="Trazado 160209" d="M469.572,175.625a1.1,1.1,0,0,1-.279-.094,7.6,7.6,0,0,0-4.265-.888,1.049,1.049,0,0,1-1.151-.6.7.7,0,0,1,.621-.9,9.842,9.842,0,0,1,5.649,1.089.739.739,0,0,1,.4,1.056.942.942,0,0,1-.976.337" transform="translate(-73.989 -27.608)"/>
        <path id="Trazado_160210" data-name="Trazado 160210" d="M459.2,185.978a.956.956,0,0,1-.565-.182c-.5-.367-.525-.624-.467-1.216l.243-2.489a.169.169,0,0,1,.336.033l-.243,2.489c-.052.53-.033.645.33.91a.627.627,0,0,0,.5.1l.632-.132a.169.169,0,0,1,.069.33l-.632.132a.968.968,0,0,1-.2.021" transform="translate(-73.08 -29.022)" fill="#080305"/>
        <path id="Trazado_160211" data-name="Trazado 160211" d="M453.094,191.891c.3,1.909,2.437,3.269,4.913,3.069a4.611,4.611,0,0,0,4.268-3.075Z" transform="translate(-72.275 -30.608)" fill="#fff"/>
        <path id="Trazado_160212" data-name="Trazado 160212" d="M441.91,183.408a.413.413,0,1,1-.563.151.412.412,0,0,1,.563-.151" transform="translate(-70.392 -29.247)" fill="#080305"/>
        <path id="Trazado_160213" data-name="Trazado 160213" d="M475.06,184.362a.413.413,0,1,1-.563.15.413.413,0,0,1,.563-.15" transform="translate(-75.68 -29.399)" fill="#080305"/>
        <path id="Trazado_160214" data-name="Trazado 160214" d="M483.254,320.189l-11.267,4.871-6.5-6.836L479.652,308l6.031,11.232Z" transform="translate(-74.252 -49.131)" fill="#f8bd8c"/>
        <path id="Trazado_160215" data-name="Trazado 160215" d="M409.094,349.369l2.544-.832a.956.956,0,0,0-.034-1.026c-.35-.577-1.184-.558-1.59-.516a7.452,7.452,0,0,0-1.247.357,8.245,8.245,0,0,0-2.016-1.655,4.261,4.261,0,0,0-.207-2.31,3.677,3.677,0,0,0,.931-2.639s.108-.189.266-.481c.134.06.391.177.558.273.232.133.252.889.16,1.345a10.126,10.126,0,0,0-.049,2.723,1.581,1.581,0,0,0,1.714,1.353c.94-.032.971-.952,1.153-1.77a11.883,11.883,0,0,0,.039-3.054,12.547,12.547,0,0,1,.6-3.6,9.6,9.6,0,0,0,.178-2.506,15.433,15.433,0,0,0-.709-2.922,3.976,3.976,0,0,0-.141-2.212c-.479-1.053,1.075-8.736,1.075-8.736l-7.854.888.731,8.692s-2.458,5.147-3.271,7.46-1.406,3.533-1.293,4.682c0,0,1.193,4.625,2.419,5.646,1.257,1.047,4.05,2.884,4.866,2.946a24.7,24.7,0,0,0,3.217-.245,2.426,2.426,0,0,0,.909-.236s.377.006.086-.781-1.1-.589-3.033-.847" transform="translate(-63.904 -51.23)" fill="#f8bd8c"/>
        <path id="Trazado_160216" data-name="Trazado 160216" d="M422.726,220.244s-6.794,3.712-7.777,8.954a61.4,61.4,0,0,1-6.066,15.725,48.615,48.615,0,0,0-4.427,11.562c-.328,2.158-4.919,33.144-3.607,40.543s.295,13.154,2.825,14.182,10.618,0,10.618,0l11.8-71.94Z" transform="translate(-63.904 -35.132)" fill="#ababab"/>
        <path id="Trazado_160217" data-name="Trazado 160217" d="M473.081,351.961H407.893q.223-1.889.485-3.895.3-2.308.669-4.757.213-1.438.451-2.916v0c.707-4.408,1.569-9.085,2.619-13.936v0c.068-.314.138-.627.207-.943l0-.006c.073-.338.148-.674.225-1.014.005-.026.011-.053.017-.079q.5-2.215,1.056-4.473.324-1.329.673-2.669c.935-3.624,1.98-7.3,3.148-11v0q.31-.981.631-1.965a3.7,3.7,0,0,1,.707-.468c1.144-.627,3.876-1.725,9.614-2.279v0l.026,0a89.82,89.82,0,0,1,10.7-.3c4.866.117,10.811.535,18.056,1.417,0,0,.4,1.389,1.082,3.606.622,2.012,1.477,4.708,2.477,7.665.92,2.723,1.965,5.667,3.066,8.5.122.316.244.63.368.941a70.608,70.608,0,0,0,4.393,9.449c2.111,3.563,3.586,11.216,4.511,19.131" transform="translate(-65.065 -48.047)" fill="#190444"/>
        <path id="Trazado_160218" data-name="Trazado 160218" d="M419.871,269.094c.164-1.64,1.062-12.623,1.062-12.623s.577-15.575.033-20.984c-.347-3.4,2.026-10.093,3.836-14.6.315-.78.61-1.488.879-2.111l3.527-1.456,12.086-5s-2.407,18.139-1.1,27.976c0,0,19.234-20.106,23.168-29.287,0,0,13.116,2.4,16.395,1.967s10.715,1.529,13.771,24.48,12.9,34.973,13.339,39.13,2.623,8.742-2.623,13.987-13.994,13.332-15.083,14.867-11.8,4.151-11.8,4.151l-11.129-20.2a1.268,1.268,0,0,1,.607-1.777c1.868-.806,5.218-2.262,6.148-2.727,1.311-.656,9.725-5.024,9.725-5.024s-6.61-8.964-7.43-18.473c-.367-4.249-.538-7.606-.61-10.033-.1,8.151-1.141,25.188-7.8,33.969l-3.5,6.558H419.238a9.022,9.022,0,0,1,0-2.6c.394-2.191.468-18.554.632-20.193" transform="translate(-66.859 -33.658)" fill="#ababab"/>
        <path id="Trazado_160219" data-name="Trazado 160219" d="M405.236,313.8a.369.369,0,0,1-.1-.014l-2.372-.649c-.556-.152-1.236-.809-1.557-4.572-.16-1.879-.155-3.736-.154-3.941l-.9-10.627a.433.433,0,0,1,0-.057l.569-9.144c.022-.2,2.015-17.986,2.648-21.941a49.982,49.982,0,0,1,4.09-14.1c2.406-5.015,6.457-15.14,6.5-15.241a.39.39,0,0,1,.724.289c-.04.1-4.1,10.251-6.519,15.289a49.288,49.288,0,0,0-4.023,13.889c-.63,3.937-2.62,21.706-2.64,21.885l-.566,9.1.9,10.616c0,.012,0,.024,0,.036-.035,4.035.486,7.6,1.138,7.774l2.372.649a.39.39,0,0,1-.1.766" transform="translate(-63.83 -37.209)" fill="#8e8d8e"/>
        <path id="Trazado_160220" data-name="Trazado 160220" d="M418.157,293.411a.389.389,0,0,1-.287-.126c-.125-.137-1.232-1.6-1.392-10.51s1.643-15.576,2.127-16.258a.39.39,0,0,1,.637.449c-.329.53-2.145,6.911-1.985,15.8.151,8.435,1.136,9.925,1.2,10.011a.39.39,0,0,1-.3.64" transform="translate(-66.432 -42.487)" fill="#8e8d8e"/>
        <path id="Trazado_160221" data-name="Trazado 160221" d="M444.049,240.608a.4.4,0,0,1-.129-.021.39.39,0,0,1-.258-.324,119.108,119.108,0,0,1,1.018-27.892.39.39,0,0,1,.771.118,121.3,121.3,0,0,0-1.09,26.865c3.23-3.275,18.829-19.38,22.5-28.565a.389.389,0,1,1,.724.288c-4.135,10.359-22.477,28.645-23.255,29.419a.39.39,0,0,1-.275.113" transform="translate(-70.709 -33.584)" fill="#8e8d8e"/>
        <path id="Trazado_160222" data-name="Trazado 160222" d="M502.381,314.266a.39.39,0,0,1-.3-.64,118.524,118.524,0,0,1,11.14-11.005l.253-.224c2.507-2.212,5.628-4.966,6.6-8.226,1.211-4.053.341-8.848-2.587-14.252a125.474,125.474,0,0,1-6.151-13.969l-.59-1.5a.389.389,0,1,1,.724-.286q.3.751.591,1.5a124.832,124.832,0,0,0,6.111,13.882c3.03,5.593,3.921,10.588,2.648,14.847-1.039,3.474-4.252,6.309-6.834,8.586l-.252.223a117.488,117.488,0,0,0-11.059,10.924.389.389,0,0,1-.3.139" transform="translate(-80.075 -42.098)" fill="#8e8d8e"/>
        <path id="Trazado_160223" data-name="Trazado 160223" d="M483.04,277.821a.434.434,0,0,1-.073-.007.39.39,0,0,1-.31-.456c0-.012.229-1.214.711-4.2s1.041-14.128,1.047-14.24a.39.39,0,0,1,.778.039c-.023.46-.569,11.312-1.056,14.325-.485,3-.713,4.207-.715,4.219a.39.39,0,0,1-.382.317" transform="translate(-76.989 -41.242)" fill="#8e8d8e"/>
        <path id="Trazado_160224" data-name="Trazado 160224" d="M453.845,216.623a6.2,6.2,0,0,1-1.657-.219c-3.638-1-4.85-5.182-4.861-5.224l.187-.053c.012.041,1.2,4.122,4.726,5.09,3.243.889,7.381-1.035,12.3-5.721l.134.141c-4.174,3.98-7.806,5.986-10.826,5.986" transform="translate(-71.355 -33.577)" fill="#080305"/>
        <path id="Trazado_160225" data-name="Trazado 160225" d="M329.072,326.953s4.085,1.215,4.892,1.392c0,0-1.4,5.766-4.271,7.174l-.068.034Z" transform="translate(-52.492 -52.153)" fill="#eab186"/>
        <path id="Trazado_160226" data-name="Trazado 160226" d="M323.093,217.249a1.893,1.893,0,0,1,2.431.386c7.278,6.4,6.578,17.535,6.477,20.391s2.513,13.281,3.888,17.191,3.041,6.226,4.059,13.033,0,20.266.113,21.926a102.869,102.869,0,0,0,2.145,11.922c.52,1.652-.082,6.667-1.894,7.474s-2.99,1.857-9.663,1.031-4.963-3.039-5.072-6.12-1.077-5.83-1.107-7.2-.3-3.961-.283-7.406.251-2.105-.423-5.44-5.512-20.2-3.76-24.352-4.812-18.076-4.705-19.126-1.583-10.589-1.583-10.589a32.684,32.684,0,0,1,3.728-7.7c2.289-3.206,5.32-4.982,5.65-5.422" transform="translate(-50.042 -34.611)" fill="#1a1a1a"/>
        <path id="Trazado_160227" data-name="Trazado 160227" d="M289.131,286.833v12.692l-.272,12.823-.044,1.959v.006l-.753,35.353H257.517L260.5,313.7l.331-3.989.09-1.1.164-1.957v0l.635-7.666.611-7.374.4-4.784Z" transform="translate(-41.077 -45.754)" fill="#ababab"/>
        <path id="Trazado_160228" data-name="Trazado 160228" d="M326.095,349.667H295.55l-.769-35.994v-.006l-.026-1.319-.274-12.823V286.833h26.407l1.551,18.695v0l.216,2.622.024.289v.009l.141,1.689v0l.866,10.452.011.13.687,8.285Z" transform="translate(-46.974 -45.754)" fill="#ababab"/>
        <path id="Trazado_160229" data-name="Trazado 160229" d="M259.213,190.689s-1.726-10.815,2.494-16.372,2.878-10.319,2.878-12.9.767-10.716,4.412-13.693,5.179-9.525,17.073-7.143c0,0,3.069-1.786,10.934-.794s11.126,11.311,11.51,13.494,1.151,6.747,3.069,8.93a14.074,14.074,0,0,1,2.494,12.1c-1.343,4.961-1.4,5.954.449,10.518s.894,5.854.894,5.854-22.444,9.228-56.206,0" transform="translate(-41.292 -22.25)" fill="#d1d1d3"/>
        <path id="Trazado_160230" data-name="Trazado 160230" d="M301.712,207.327H282.986l1.907-13.067.129-.875.267-1.834h14.12l.3,2.061.551,3.775Z" transform="translate(-45.14 -30.555)" fill="#f8bd8c"/>
        <path id="Trazado_160231" data-name="Trazado 160231" d="M300.624,197.735a6.731,6.731,0,0,1-4.691,2.767c-4.265.417-8.427-3.466-10.678-5.894l.129-.875c.194.076.409.154.652.231a25.507,25.507,0,0,0,7.882,1.141,14.774,14.774,0,0,0,5.9-1.141l.256,0Z" transform="translate(-45.502 -30.903)" fill="#eab186"/>
        <path id="Trazado_160232" data-name="Trazado 160232" d="M306.31,167.409c0,11.934-7.151,21.608-15.973,21.608s-15.973-9.674-15.973-21.608,7.152-21.608,15.973-21.608,15.973,9.675,15.973,21.608" transform="translate(-43.765 -23.257)" fill="#f8bd8c"/>
        <path id="Trazado_160233" data-name="Trazado 160233" d="M278.949,175.433c.825,2.24.11,4.6-1.6,5.276s-3.761-.6-4.587-2.837-.11-4.6,1.6-5.276,3.761.6,4.587,2.837" transform="translate(-43.455 -27.503)" fill="#f8bd8c"/>
        <path id="Trazado_160234" data-name="Trazado 160234" d="M309.043,175.436c-.825,2.241-.109,4.6,1.6,5.275s3.762-.6,4.586-2.839.108-4.6-1.6-5.275-3.761.6-4.586,2.839" transform="translate(-49.242 -27.503)" fill="#f8bd8c"/>
        <path id="Trazado_160235" data-name="Trazado 160235" d="M280.089,166a.861.861,0,0,1-.794-.544.906.906,0,0,1,.457-1.172,8.73,8.73,0,0,1,7.432-.051.91.91,0,0,1,.356,1.209.848.848,0,0,1-1.165.37,7.055,7.055,0,0,0-5.95.119.871.871,0,0,1-.337.07" transform="translate(-44.54 -26.072)" fill="#1a1a1a"/>
        <path id="Trazado_160236" data-name="Trazado 160236" d="M298.328,166a.862.862,0,0,1-.794-.544.906.906,0,0,1,.457-1.172,8.73,8.73,0,0,1,7.432-.051.91.91,0,0,1,.356,1.209.847.847,0,0,1-1.165.37,7.055,7.055,0,0,0-5.95.119.871.871,0,0,1-.337.07" transform="translate(-47.45 -26.072)" fill="#1a1a1a"/>
        <path id="Trazado_160237" data-name="Trazado 160237" d="M285.191,171.659a1.46,1.46,0,1,1-1.409-1.843,1.67,1.67,0,0,1,1.409,1.843" transform="translate(-45.043 -27.088)" fill="#1a1a1a"/>
        <path id="Trazado_160238" data-name="Trazado 160238" d="M303.668,171.659a1.46,1.46,0,1,1-1.409-1.843,1.67,1.67,0,0,1,1.409,1.843" transform="translate(-47.99 -27.088)" fill="#1a1a1a"/>
        <path id="Trazado_160239" data-name="Trazado 160239" d="M287.322,147.393s-9.4,13.425-10.742,20.405-9.016,4.8-9.783,4.995,4.6-22.225,4.6-22.225l15.921-6.946Z" transform="translate(-42.546 -22.91)" fill="#d1d1d3"/>
        <path id="Trazado_160240" data-name="Trazado 160240" d="M291.232,142.59v4.639a54.823,54.823,0,0,0,7.909,12.2,69.963,69.963,0,0,0,11.631,10.277c.7.511,1.716,1.067,2.356,1.636-.574-3.394-1.626-6.779-2.268-10.161a84.36,84.36,0,0,0-1.884-9.292c-.288-.446-17.744-9.3-17.744-9.3" transform="translate(-46.455 -22.745)" fill="#d1d1d3"/>
        <path id="Trazado_160241" data-name="Trazado 160241" d="M277.091,199.483a8.6,8.6,0,0,0-.869,3.325c0,1.618,1.39,5.93-2.258,6.11s-15.625,8.088-18.757,10.425-2.264,7.369-2.264,7.369,6.428,65.1,7.47,66.183,16.027-14.423,21.63-13.749,3.823,1.931,6.081,1.752,3.127-1.977,3.822-1.887a11.6,11.6,0,0,1,4.17,1.348c1.13.809,5.472-.45,8.426,2.247s14.767,11.682,14.767,11.682,1.564-12.76-1.042-16.715,1.042-38.82,0-40.078-1.911-22.285-1.911-22.285-10.989-5.887-14.506-6.021-2.606-8.627-2.606-8.627Z" transform="translate(-40.33 -31.82)" fill="#1a1a1a"/>
        <path id="Trazado_160242" data-name="Trazado 160242" d="M292.868,188.82a7.232,7.232,0,0,1-2.485-.45.195.195,0,0,1,.134-.366c2.45.9,5.062.344,6.352-1.35a.195.195,0,1,1,.309.236,5.333,5.333,0,0,1-4.311,1.929" transform="translate(-46.3 -29.762)" fill="#1a1a1a"/>
        <path id="Trazado_160243" data-name="Trazado 160243" d="M310.886,187.706l-.119,0a2.781,2.781,0,0,1-2.342-1.4.146.146,0,1,1,.253-.146,2.493,2.493,0,0,0,2.1,1.253,2.731,2.731,0,0,0,2.353-1.159,4.1,4.1,0,0,0,.289-4.016,2.227,2.227,0,0,0-2.034-1.268.146.146,0,0,1,0-.292h0a2.5,2.5,0,0,1,2.291,1.425,4.4,4.4,0,0,1-.307,4.318,3.038,3.038,0,0,1-2.485,1.287" transform="translate(-49.195 -28.82)" fill="#1a1a1a"/>
        <path id="Trazado_160244" data-name="Trazado 160244" d="M274.74,187.744a3.038,3.038,0,0,1-2.485-1.287,3.712,3.712,0,0,1-.152-3.792,3.1,3.1,0,0,1,2.747-1.752h0a.146.146,0,0,1,0,.292,2.782,2.782,0,0,0-2.489,1.6,3.416,3.416,0,0,0,.134,3.491,2.74,2.74,0,0,0,2.353,1.159,2.5,2.5,0,0,0,2.1-1.253.146.146,0,1,1,.252.146,2.781,2.781,0,0,1-2.342,1.4l-.119,0" transform="translate(-43.333 -28.858)" fill="#1a1a1a"/>
        <path id="Trazado_160245" data-name="Trazado 160245" d="M293.179,178.578h-.234a1.428,1.428,0,0,1-1.4-1.452v-4.233a.234.234,0,1,1,.467,0v3.991a1.19,1.19,0,0,0,1.169,1.209.242.242,0,0,1,0,.484" transform="translate(-46.505 -27.54)" fill="#1a1a1a"/>
        <path id="Trazado_160246" data-name="Trazado 160246" d="M279.869,304.711l-8.407-5.108.591-1.719c.419-.6.889-1.294.347-1.809a1.943,1.943,0,0,0-2.174-.286l-9.4,4.777L254.184,306c4.317,4.256,7.506,4.583,9.45,4.085.2.09.405.182.614.263l7.21,2.779a1.561,1.561,0,0,0,1.927-.373c.311-.4.5-1.083-.844-1.9l1.346.815a1.618,1.618,0,0,0,2.024-.414c.407-.526.125-1.316-.649-1.9l1.046.512a1.644,1.644,0,0,0,2.16-.55,1.317,1.317,0,0,0-.572-1.772l-1.485-.9,1.726.191c.83.373,1.968.512,2.375-.261a1.432,1.432,0,0,0-.642-1.871" transform="translate(-40.546 -47.149)" fill="#f8bd8c"/>
        <path id="Trazado_160247" data-name="Trazado 160247" d="M249.6,223.112s-18.34,17.369-20.051,19.99a12.907,12.907,0,0,1-3.808,3.943c-1.122.877-.776,1.589-4.6,7.912-2.849,4.716-4.554,12.536-2.594,17.943,2.026,5.591,7.427,9.408,12.432,12.132,5.424,2.953,6.461,3.909,10.79,6.543s5.464,3.136,7.827,5.663c1.411,1.509,4.769,2.228,6.792,2.885.89.289,1.981-.709,2.244-1.635l3.924-13.321s-3.391-8.378-10.177-11.779c-3.87-1.939-8.391-3.967-10.6-5.919-1.8-1.584,4.7-4.954,6.05-6.115,1.11-.957,5.4-4.818,6.167-5.081s3.056-11.262,3.056-11.426-7.453-21.736-7.453-21.736" transform="translate(-34.728 -35.589)" fill="#1a1a1a"/>
        <path id="Trazado_160248" data-name="Trazado 160248" d="M293.537,340.686h-.011a.388.388,0,0,1-.379-.4c.024-.874.587-21.443,1.132-23.838.619-2.723,5.551-7.855,5.76-8.073a.39.39,0,1,1,.561.541c-.05.052-4.989,5.193-5.561,7.7-.529,2.32-1.107,23.472-1.113,23.686a.389.389,0,0,1-.389.378" transform="translate(-46.761 -49.171)" fill="#999"/>
        <path id="Trazado_160249" data-name="Trazado 160249" d="M256.82,264.1a.39.39,0,0,1-.242-.7,29.555,29.555,0,0,0,6.067-6.572c.3-.439.583-.955.886-1.5a8.62,8.62,0,0,1,2.523-3.278.39.39,0,0,1,.409.663,8.153,8.153,0,0,0-2.251,2.992c-.311.563-.605,1.094-.924,1.563a30.34,30.34,0,0,1-6.228,6.745.389.389,0,0,1-.241.084" transform="translate(-40.904 -40.196)" fill="#333"/>
        <path id="Trazado_160250" data-name="Trazado 160250" d="M269.495,290.226a.389.389,0,0,1-.35-.219,8.143,8.143,0,0,0-3.777-3.507,12.805,12.805,0,0,1-3.638-2.021.39.39,0,0,1,.551-.551,12.734,12.734,0,0,0,3.394,1.856,8.788,8.788,0,0,1,4.171,3.884.39.39,0,0,1-.35.559" transform="translate(-41.731 -45.272)" fill="#333"/>
        <path id="Trazado_160251" data-name="Trazado 160251" d="M327.819,296.589a.389.389,0,0,1-.38-.482,15.945,15.945,0,0,0-.163-5.762l-.137-.79c-.345-1.992-.36-2.069-.134-3.116.09-.414.213-.981.363-1.947.538-3.449-2.585-15.541-2.616-15.662a.39.39,0,1,1,.754-.2c.131.5,3.2,12.372,2.632,15.979-.155.988-.279,1.568-.371,1.991-.194.9-.194.9.139,2.819l.137.791a16.314,16.314,0,0,1,.153,6.078.39.39,0,0,1-.377.3" transform="translate(-51.8 -42.804)" fill="#333"/>
      </g>
    </g>
  </g>
</svg>
