<svg id="Grupo_88571" data-name="Grupo 88571" xmlns="http://www.w3.org/2000/svg" xmlns:xlink="http://www.w3.org/1999/xlink" width="270.949" height="289.718" viewBox="0 0 270.949 289.718">
  <defs>
    <clipPath id="clip-path">
      <rect id="Rectángulo_7840" data-name="Rectángulo 7840" width="270.949" height="289.718" fill="none"/>
    </clipPath>
    <clipPath id="clip-path-3">
      <rect id="Rectángulo_7819" data-name="Rectángulo 7819" width="244.393" height="142.919" fill="none"/>
    </clipPath>
    <clipPath id="clip-path-4">
      <rect id="Rectángulo_7821" data-name="Rectángulo 7821" width="134.179" height="85.774" fill="none"/>
    </clipPath>
    <clipPath id="clip-path-5">
      <rect id="Rectángulo_7820" data-name="Rectángulo 7820" width="134.146" height="54.465" fill="none"/>
    </clipPath>
    <clipPath id="clip-path-6">
      <rect id="Rectángulo_7822" data-name="Rectángulo 7822" width="71.379" height="114.718" fill="none"/>
    </clipPath>
    <clipPath id="clip-path-7">
      <path id="Trazado_157821" data-name="Trazado 157821" d="M51.37,7.023,25.361,137.051l176.291,102,27.015-131.719Z" transform="translate(-25.361 -7.023)" fill="none"/>
    </clipPath>
    <linearGradient id="linear-gradient" x1="-0.038" y1="1.046" x2="-0.031" y2="1.046" gradientUnits="objectBoundingBox">
      <stop offset="0" stop-color="#1a6bb2"/>
      <stop offset="1" stop-color="#1b4b92"/>
    </linearGradient>
    <clipPath id="clip-path-9">
      <rect id="Rectángulo_7837" data-name="Rectángulo 7837" width="165.906" height="200.14" fill="none"/>
    </clipPath>
    <clipPath id="clip-path-11">
      <rect id="Rectángulo_7825" data-name="Rectángulo 7825" width="28.982" height="21.082" fill="none"/>
    </clipPath>
    <clipPath id="clip-path-12">
      <rect id="Rectángulo_7826" data-name="Rectángulo 7826" width="65.59" height="41.955" fill="none"/>
    </clipPath>
    <clipPath id="clip-path-13">
      <rect id="Rectángulo_7827" data-name="Rectángulo 7827" width="39.417" height="26.151" fill="none"/>
    </clipPath>
    <clipPath id="clip-path-14">
      <rect id="Rectángulo_7828" data-name="Rectángulo 7828" width="39.427" height="26.162" fill="none"/>
    </clipPath>
    <clipPath id="clip-path-15">
      <rect id="Rectángulo_7829" data-name="Rectángulo 7829" width="65.593" height="41.955" fill="none"/>
    </clipPath>
    <clipPath id="clip-path-16">
      <rect id="Rectángulo_7830" data-name="Rectángulo 7830" width="71.475" height="45.611" fill="none"/>
    </clipPath>
    <clipPath id="clip-path-18">
      <rect id="Rectángulo_7832" data-name="Rectángulo 7832" width="61.1" height="59.596" fill="none"/>
    </clipPath>
    <clipPath id="clip-path-19">
      <rect id="Rectángulo_7833" data-name="Rectángulo 7833" width="44.8" height="49.998" fill="none"/>
    </clipPath>
    <clipPath id="clip-path-20">
      <rect id="Rectángulo_7835" data-name="Rectángulo 7835" width="39.422" height="26.167" fill="none"/>
    </clipPath>
    <clipPath id="clip-path-21">
      <rect id="Rectángulo_7836" data-name="Rectángulo 7836" width="39.423" height="26.162" fill="none"/>
    </clipPath>
  </defs>
  <g id="Grupo_88630" data-name="Grupo 88630" clip-path="url(#clip-path)">
    <g id="Grupo_88584" data-name="Grupo 88584">
      <g id="Grupo_88583" data-name="Grupo 88583" clip-path="url(#clip-path)">
        <g id="Grupo_88573" data-name="Grupo 88573" transform="translate(26.556 146.799)" opacity="0.1">
          <g id="Grupo_88572" data-name="Grupo 88572">
            <g id="Grupo_88571-2" data-name="Grupo 88571" clip-path="url(#clip-path-3)">
              <path id="Trazado_157810" data-name="Trazado 157810" d="M258.308,176.926l-73.858,42.922L13.917,121.389,89.558,76.93Z" transform="translate(-13.916 -76.93)"/>
            </g>
          </g>
        </g>
        <g id="Grupo_88579" data-name="Grupo 88579" transform="translate(68.469 185.406)" style="isolation: isolate">
          <g id="Grupo_88578" data-name="Grupo 88578">
            <g id="Grupo_88577" data-name="Grupo 88577" clip-path="url(#clip-path-4)">
              <path id="Trazado_157811" data-name="Trazado 157811" d="M125.16,125.7l-.021,8.173L85.318,157.013l.042-8.173Z" transform="translate(9.019 -71.239)" fill="#95c4de"/>
              <path id="Trazado_157812" data-name="Trazado 157812" d="M130.259,163.752l-.042,8.173L35.881,117.475l.032-8.19Z" transform="translate(-35.881 -86.151)" fill="#a9d6ea"/>
              <path id="Trazado_157813" data-name="Trazado 157813" d="M170.044,151.627l-39.8,23.135L35.9,120.3,75.705,97.162Z" transform="translate(-35.866 -97.161)" fill="#def6ff"/>
              <g id="Grupo_88576" data-name="Grupo 88576" transform="translate(0.033)" opacity="0.5">
                <g id="Grupo_88575" data-name="Grupo 88575">
                  <g id="Grupo_88574" data-name="Grupo 88574" clip-path="url(#clip-path-5)">
                    <path id="Trazado_157814" data-name="Trazado 157814" d="M170.044,151.627,35.9,120.3,75.705,97.162Z" transform="translate(-35.898 -97.161)" fill="#def6ff"/>
                  </g>
                </g>
              </g>
            </g>
          </g>
        </g>
        <g id="Grupo_88582" data-name="Grupo 88582" transform="translate(101.785 133.055)" style="isolation: isolate">
          <g id="Grupo_88581" data-name="Grupo 88581">
            <g id="Grupo_88580" data-name="Grupo 88580" clip-path="url(#clip-path-6)">
              <path id="Trazado_157815" data-name="Trazado 157815" d="M86.925,166.831l7.087-4.114.2-73.594-7.066,4.1Z" transform="translate(-22.838 -52.112)" fill="#95c4de"/>
              <path id="Trazado_157816" data-name="Trazado 157816" d="M117.546,110.84l7.066-4.1L60.528,69.727l-7.07,4.114Z" transform="translate(-53.233 -69.727)" fill="#c0c5d1"/>
              <path id="Trazado_157817" data-name="Trazado 157817" d="M53.566,71.883l-.225,73.612,64.088,36.993.225-73.606Z" transform="translate(-53.34 -67.769)" fill="#a9d6ea"/>
            </g>
          </g>
        </g>
      </g>
    </g>
    <path id="Trazado_157818" data-name="Trazado 157818" d="M120.743,203.862l6.843-1.908L156.855,57.6l-6.824,1.908Z" transform="translate(109.662 52.314)" fill="#95c4de"/>
    <path id="Trazado_157819" data-name="Trazado 157819" d="M43.138,0,36.32,1.9,226.706,111.822l6.824-1.908Z" transform="translate(32.987 0)" fill="#a9d6ea"/>
    <path id="Trazado_157820" data-name="Trazado 157820" d="M50.261.994,20.97,145.353,211.359,255.272l29.287-144.353Z" transform="translate(19.046 0.903)" fill="#def6ff"/>
    <g id="Grupo_88586" data-name="Grupo 88586" transform="translate(48.394 13.401)">
      <g id="Grupo_88585" data-name="Grupo 88585" clip-path="url(#clip-path-7)">
        <rect id="Rectángulo_7824" data-name="Rectángulo 7824" width="278.987" height="293.866" transform="translate(-84.875 36.923) rotate(-23.51)" fill="url(#linear-gradient)"/>
      </g>
    </g>
    <g id="Grupo_88627" data-name="Grupo 88627">
      <g id="Grupo_88626" data-name="Grupo 88626" clip-path="url(#clip-path)">
        <g id="Grupo_88625" data-name="Grupo 88625" transform="translate(62.39 31.514)">
          <g id="Grupo_88624" data-name="Grupo 88624">
            <g id="Grupo_88623" data-name="Grupo 88623" clip-path="url(#clip-path-9)">
              <g id="Grupo_88616" data-name="Grupo 88616" style="isolation: isolate">
                <g id="Grupo_88615" data-name="Grupo 88615">
                  <g id="Grupo_88614" data-name="Grupo 88614" clip-path="url(#clip-path-9)">
                    <g id="Grupo_88589" data-name="Grupo 88589" transform="translate(33.135 11.163)">
                      <g id="Grupo_88588" data-name="Grupo 88588">
                        <g id="Grupo_88587" data-name="Grupo 88587" clip-path="url(#clip-path-11)">
                          <path id="Trazado_157822" data-name="Trazado 157822" d="M51.19,22.365l-1.13,4.994L77.916,43.446l1.124-4.994Z" transform="translate(-50.059 -22.365)" fill="#649dd5"/>
                        </g>
                      </g>
                    </g>
                    <path id="Trazado_157823" data-name="Trazado 157823" d="M101.318,143.943,36.786,106.689,50.815,44.534,115.346,81.8Zm-54.19-62.16,54.789,31.629,6.31-27.961L53.443,53.816Z" transform="translate(-28.98 8.932)" fill="#649dd5"/>
                    <g id="Grupo_88592" data-name="Grupo 88592" transform="translate(25.679 31.728)">
                      <g id="Grupo_88591" data-name="Grupo 88591">
                        <g id="Grupo_88590" data-name="Grupo 88590" clip-path="url(#clip-path-12)">
                          <path id="Trazado_157824" data-name="Trazado 157824" d="M47.212,33.142l-1.059,4.7L110.683,75.1l1.059-4.694Z" transform="translate(-46.152 -33.142)" fill="#649dd5"/>
                        </g>
                      </g>
                    </g>
                    <g id="Grupo_88595" data-name="Grupo 88595" transform="translate(109.189 88.047)">
                      <g id="Grupo_88594" data-name="Grupo 88594">
                        <g id="Grupo_88593" data-name="Grupo 88593" clip-path="url(#clip-path-13)">
                          <path id="Trazado_157825" data-name="Trazado 157825" d="M90.8,62.656l-.88,3.9,38.54,22.248.876-3.906Z" transform="translate(-89.915 -62.656)" fill="#649dd5"/>
                        </g>
                      </g>
                    </g>
                    <g id="Grupo_88598" data-name="Grupo 88598" transform="translate(111.173 79.226)">
                      <g id="Grupo_88597" data-name="Grupo 88597">
                        <g id="Grupo_88596" data-name="Grupo 88596" clip-path="url(#clip-path-14)">
                          <path id="Trazado_157826" data-name="Trazado 157826" d="M91.839,58.033l-.884,3.918L129.5,84.2l.887-3.912Z" transform="translate(-90.955 -58.033)" fill="#649dd5"/>
                        </g>
                      </g>
                    </g>
                    <path id="Trazado_157827" data-name="Trazado 157827" d="M126.8,176.15,77.584,147.73,99.128,52.264l49.213,28.417ZM85.4,145.668l38.537,22.256,6.263-27.746L91.65,117.924ZM96.739,95.4l38.538,22.244.887-3.918L97.618,91.48Zm6.36-28.205,38.54,22.244.889-3.912-38.546-22.25ZM98.727,86.578l38.542,22.25.882-3.919L99.614,82.66ZM101.116,76l38.54,22.25.876-3.908L102,72.094Z" transform="translate(8.074 15.953)" fill="#8fc1ea"/>
                    <g id="Grupo_88601" data-name="Grupo 88601" transform="translate(23.293 42.309)">
                      <g id="Grupo_88600" data-name="Grupo 88600">
                        <g id="Grupo_88599" data-name="Grupo 88599" clip-path="url(#clip-path-15)">
                          <path id="Trazado_157828" data-name="Trazado 157828" d="M45.957,38.687l-1.055,4.7,64.53,37.258,1.061-4.694Z" transform="translate(-44.902 -38.687)" fill="#649dd5"/>
                        </g>
                      </g>
                    </g>
                    <g id="Grupo_88604" data-name="Grupo 88604" transform="translate(87.922 42.794)">
                      <g id="Grupo_88603" data-name="Grupo 88603">
                        <g id="Grupo_88602" data-name="Grupo 88602" clip-path="url(#clip-path-16)">
                          <path id="Trazado_157829" data-name="Trazado 157829" d="M79.9,38.941l-1.13,4.994,70.347,40.618,1.126-4.994Z" transform="translate(-78.77 -38.941)" fill="#649dd5"/>
                        </g>
                      </g>
                    </g>
                    <g id="Grupo_88607" data-name="Grupo 88607" opacity="0.8">
                      <g id="Grupo_88606" data-name="Grupo 88606">
                        <g id="Grupo_88605" data-name="Grupo 88605" clip-path="url(#clip-path-9)">
                          <path id="Trazado_157830" data-name="Trazado 157830" d="M32.7,136.5l138.837,80.159L198.6,96.671,59.765,16.516ZM55.989,63.519l1.055-4.7,64.538,37.26-1.063,4.7L79.607,77.155Zm3.446-15.277,64.53,37.26L122.9,90.2l-64.53-37.26Zm.922-4.108,1.069-4.706,64.527,37.26-1.057,4.7Zm134.19,54.211-2.381,10.587L62.62,34.129l2.385-10.57Zm-26.98,110.272L118.353,180.2,139.9,84.731l49.213,28.417Zm-48.505-101.37-14.027,62.143L40.5,132.137,54.531,69.981Z" transform="translate(-32.696 -16.514)" fill="#649dd5"/>
                        </g>
                      </g>
                    </g>
                    <g id="Grupo_88610" data-name="Grupo 88610" transform="translate(18.149 62.748)">
                      <g id="Grupo_88609" data-name="Grupo 88609">
                        <g id="Grupo_88608" data-name="Grupo 88608" clip-path="url(#clip-path-18)">
                          <path id="Trazado_157831" data-name="Trazado 157831" d="M42.206,77.365,48.521,49.4l54.785,31.635L97,108.994Z" transform="translate(-42.206 -49.398)" fill="#8fc1ea"/>
                        </g>
                      </g>
                    </g>
                    <path id="Trazado_157832" data-name="Trazado 157832" d="M48.259,28.523l-1.069,4.706,64.538,37.254,1.059-4.7Z" transform="translate(-19.53 -5.609)" fill="#649dd5"/>
                    <g id="Grupo_88613" data-name="Grupo 88613" transform="translate(93.469 133.876)">
                      <g id="Grupo_88612" data-name="Grupo 88612">
                        <g id="Grupo_88611" data-name="Grupo 88611" clip-path="url(#clip-path-19)">
                          <path id="Trazado_157833" data-name="Trazado 157833" d="M87.931,86.673l-6.253,27.744,38.537,22.256,6.265-27.744Z" transform="translate(-81.678 -86.673)" fill="#649dd5"/>
                        </g>
                      </g>
                    </g>
                    <path id="Trazado_157834" data-name="Trazado 157834" d="M177.924,105.579,48.377,30.777l2.385-10.57L180.306,94.992ZM106.376,60.949l70.349,40.618,1.126-4.994L107.507,55.956ZM51.589,29.321,79.445,45.407l1.124-4.994L52.718,24.327Z" transform="translate(-18.453 -13.162)" fill="#8fc1ea"/>
                  </g>
                </g>
              </g>
              <g id="Grupo_88619" data-name="Grupo 88619" transform="translate(106.801 98.612)">
                <g id="Grupo_88618" data-name="Grupo 88618">
                  <g id="Grupo_88617" data-name="Grupo 88617" clip-path="url(#clip-path-20)">
                    <path id="Trazado_157835" data-name="Trazado 157835" d="M89.551,68.192l-.887,3.918,38.542,22.25.88-3.918Z" transform="translate(-88.664 -68.192)" fill="#649dd5"/>
                  </g>
                </g>
              </g>
              <g id="Grupo_88622" data-name="Grupo 88622" transform="translate(104.812 107.432)">
                <g id="Grupo_88621" data-name="Grupo 88621">
                  <g id="Grupo_88620" data-name="Grupo 88620" clip-path="url(#clip-path-21)">
                    <path id="Trazado_157836" data-name="Trazado 157836" d="M88.5,72.814l-.88,3.918L126.16,98.976l.883-3.918Z" transform="translate(-87.621 -72.814)" fill="#649dd5"/>
                  </g>
                </g>
              </g>
            </g>
          </g>
        </g>
      </g>
    </g>
    <path id="Trazado_157837" data-name="Trazado 157837" d="M47.5,9.695,39.885,47.243,61.07,59.236l9.7-2.944,6.5-2.131,4.986-24.395Z" transform="translate(36.224 8.805)" fill="#ffdf02"/>
    <path id="Trazado_157838" data-name="Trazado 157838" d="M67.185,35.571,54.858,30.163l-3.87,10.484Z" transform="translate(46.308 27.395)" fill="#eaa700"/>
    <path id="Trazado_157839" data-name="Trazado 157839" d="M46.5,15.146l-.454,2.244L67.685,30.167l.513-2.49Z" transform="translate(41.816 13.756)" fill="#def6ff"/>
    <path id="Trazado_157840" data-name="Trazado 157840" d="M45.641,18.74l-.464,2.244L66.83,33.767l.509-2.5Z" transform="translate(41.031 17.02)" fill="#def6ff"/>
    <path id="Trazado_157841" data-name="Trazado 157841" d="M44.526,22.132l-.454,2.238L65.715,37.153l.513-2.5Z" transform="translate(40.027 20.101)" fill="#def6ff"/>
    <g id="Grupo_88629" data-name="Grupo 88629">
      <g id="Grupo_88628" data-name="Grupo 88628" clip-path="url(#clip-path)">
        <path id="Trazado_157842" data-name="Trazado 157842" d="M45.287,30.742Q22.715,112.5.144,194.263c-1.212,4.391,5.593,6.249,6.8,1.87Q29.514,114.377,52.088,32.618c1.212-4.391-5.593-6.255-6.8-1.876" transform="translate(0.001 25.654)" fill="#def6ff"/>
        <path id="Trazado_157843" data-name="Trazado 157843" d="M63.96,40.282Q41.394,122.036,18.819,203.8c-1.212,4.4,5.595,6.261,6.8,1.874Q48.193,123.918,70.765,42.156c1.212-4.4-5.595-6.259-6.8-1.874" transform="translate(16.962 34.314)" fill="#def6ff"/>
        <path id="Trazado_157844" data-name="Trazado 157844" d="M22.058,46.775Q39.452,57.406,56.846,68.029c3.839,2.349,7.331-3.668,3.511-6.005Q42.963,51.4,25.569,40.77c-3.839-2.347-7.331,3.668-3.511,6.005" transform="translate(18.532 36.543)" fill="#def6ff"/>
        <path id="Trazado_157845" data-name="Trazado 157845" d="M18.59,61.213Q34.88,71.655,51.169,82.1c3.788,2.429,7.272-3.593,3.511-6.005Q38.391,65.654,22.1,55.208c-3.788-2.429-7.272,3.593-3.511,6.005" transform="translate(15.416 49.626)" fill="#def6ff"/>
        <path id="Trazado_157846" data-name="Trazado 157846" d="M15,77.314,47.312,96.391c3.872,2.286,7.368-3.729,3.509-6.005q-16.152-9.54-32.306-19.076c-3.872-2.288-7.37,3.729-3.511,6.005" transform="translate(12.105 64.301)" fill="#def6ff"/>
        <path id="Trazado_157847" data-name="Trazado 157847" d="M10.809,89.511q16.249,10.213,32.5,20.418c3.809,2.4,7.3-3.626,3.511-6.005q-16.249-10.207-32.5-20.418c-3.811-2.391-7.3,3.629-3.509,6.005" transform="translate(8.333 75.342)" fill="#def6ff"/>
        <path id="Trazado_157848" data-name="Trazado 157848" d="M7.12,104.4q16.043,9.635,32.085,19.271c3.857,2.315,7.35-3.7,3.511-6.005q-16.043-9.635-32.085-19.271c-3.857-2.315-7.35,3.7-3.511,6.005" transform="translate(4.955 88.891)" fill="#def6ff"/>
        <path id="Trazado_157849" data-name="Trazado 157849" d="M45.414,45.671l.672,1.391-2.265-1.63-.668-1.391Z" transform="translate(39.193 40)" fill="#0d2445"/>
        <path id="Trazado_157850" data-name="Trazado 157850" d="M23.267,95.732s3.878,1,2.693,3.173-6.078,5.164-6.822,6.543-4.969,6.125-6.11,5.528-4.33-.208-3.372-6.022,8.387-10,13.611-9.222" transform="translate(8.608 86.86)" fill="#111114"/>
        <path id="Trazado_157851" data-name="Trazado 157851" d="M19.5,107.962s-2.494,5.414,2.154,7.217,3.517-1.32,13.64,2.37,11.606-1.565,11.747-2.782c.319-2.805-6.82-4.076-9.032-4.908a53.04,53.04,0,0,1-6.509-3.549l-12.211-.053Z" transform="translate(17.099 96.504)" fill="#111114"/>
        <path id="Trazado_157852" data-name="Trazado 157852" d="M19.148,55S15.616,88.9,15.225,92.73,7.493,126.2,8.706,139.614c0,0,6.639,8.163,13.938,1.424,0,0,5.938-37.46,8.709-45.765s4.78-34.384,4.78-34.384Z" transform="translate(7.784 49.955)" fill="#2b3c4b"/>
        <path id="Trazado_157853" data-name="Trazado 157853" d="M22.559,59.963s-.551,22.07-1.03,43.96c0,0-3.33,43.206-2.942,49.509,0,0,13.55,4.876,15.6-1.538,0,0,3.534-37.949,4.69-45.839s4.238-29.923,2.418-43-18.739-3.088-18.739-3.088" transform="translate(16.852 51.147)" fill="#2b3c4b"/>
        <path id="Trazado_157854" data-name="Trazado 157854" d="M18.586,148.7c-.387-6.3,2.942-49.509,2.942-49.509.322-14.745.681-29.549.882-37.657l8.373,2.979S35.3,81.4,31.863,105.661c-2.651,18.777-4.858,37.3-5.717,44.727a34.786,34.786,0,0,1-7.56-1.691" transform="translate(16.852 55.884)" fill="#314656"/>
        <path id="Trazado_157855" data-name="Trazado 157855" d="M8.706,139.5c-1.214-13.413,6.127-43.069,6.518-46.883.372-3.637,3.587-34.554,3.9-37.489l6.872,6.505S25.886,86.127,22.1,99.7c-3.444,12.342-4.557,36.945-6.326,43.847-4.122-.418-7.07-4.044-7.07-4.044" transform="translate(7.784 50.068)" fill="#314656"/>
        <path id="Trazado_157856" data-name="Trazado 157856" d="M31.005,19.743s-6.555-2.364-9.528,8.766c-2.389,8.982-3.994,23.5-2.849,29.644S24.451,77.4,24.451,77.4s8.076,1.114,8.142-3.984L28.355,53.633s10.356-32.852,2.651-33.89" transform="translate(16.576 17.74)" fill="#17a4e3"/>
        <path id="Trazado_157857" data-name="Trazado 157857" d="M34.676,19.512s-7.994.985-8.244,13.9S26.238,54.744,24.5,58.966c-1.763,4.211-8.48,18.136-10.444,20.761,0,0-4.5,9.091,15.212,22.465,0,0,17.237,8.163,18.474-4.647s6.851-32.226,8.919-36.59S64.643,48.506,55.5,38.381,42.08,21.638,34.676,19.512" transform="translate(12.363 17.721)" fill="#18b6fe"/>
        <path id="Trazado_157858" data-name="Trazado 157858" d="M47.346,50.47c-2.069,4.364-7.677,23.776-8.919,36.59-.855,8.881-9.4,7.681-14.56,6.108.231-5.826,6.312-14.216,6.614-27.02.368-15.831,4.355-24.96,9.53-31.623,3.349-4.32,6.347-3.408,8.677-3.347,5.374,8.591.483,15.407-1.341,19.292" transform="translate(21.677 28.206)" fill="#17a4e3"/>
        <path id="Trazado_157859" data-name="Trazado 157859" d="M32.447,18.022s-1.424,6.276-4.832,9.325c-3.1,2.755,10,10.925,11.461,7.87A14.493,14.493,0,0,1,43.969,23.8c2.942-2.591-11.522-5.776-11.522-5.776" transform="translate(24.652 16.368)" fill="#efb185"/>
        <path id="Trazado_157860" data-name="Trazado 157860" d="M27.616,26.956c2.532-2.261,3.969-6.309,4.536-8.244L40.7,27.543c0,.01-.011.021-.019.027-.41-.038-8.045-.75-11.346,3.744-1.828-1.624-2.847-3.358-1.719-4.358" transform="translate(24.652 16.995)" fill="#dd9569"/>
        <path id="Trazado_157861" data-name="Trazado 157861" d="M51.128,14.812s.265,6.261-1.849,10.814c-2.275,4.908-1.885,6.2-3.005,8.354-.479.9-1.069,2.336-2.33,2.906-2.107.952-5.53.37-9.339-2.782C30,30.284,27.014,21.035,31.6,15.291c4.587-5.728,13.461-8.637,19.529-.479" transform="translate(26.623 8.872)" fill="#efb185"/>
        <path id="Trazado_157862" data-name="Trazado 157862" d="M29.319,22.075c4.21-5.131,11.98-10.314,12.062-10.711.055-.24,2.2-.712,4.591-1.179a12.625,12.625,0,0,1,5.15,4.25,30.4,30.4,0,0,1-.16,3.912c-1.759.967-4.895,1.658-5.709,2.717A16.342,16.342,0,0,0,42.509,30.2c.17,2.185-4.206,3.744-4.085,5.662a.424.424,0,0,1-.053.24A15.82,15.82,0,0,1,34.6,33.727a16.262,16.262,0,0,1-5.28-11.652" transform="translate(26.628 9.25)" fill="#e6a376"/>
        <path id="Trazado_157863" data-name="Trazado 157863" d="M54.783,14.323a7.182,7.182,0,0,1-6.33,5.587c-3.263.374-4.608,4.95-4.767,5.826s-.689,4.929-1.193,5.3c-.992.7-2.13-2.977-3.231-3.135-2.813-.435-2.664,2.385-1.183,5.816,1.578,3.624-5.513,2.374-7.808-.99-1.229-1.777-1.57-2.706-2.2-7.766C27.148,17.578,29.665,10,38.481,8.621s11.062,5.893,16.3,5.7" transform="translate(25.332 7.671)" fill="#131c24"/>
        <path id="Trazado_157864" data-name="Trazado 157864" d="M30.272,32.724c-1.229-1.777-1.57-2.706-2.2-7.766C27.148,17.578,29.665,10,38.481,8.621s11.062,5.891,16.3,5.7a7.032,7.032,0,0,1-.71,1.874c-2.479-.456-9.341-1.467-11.982.7-3.244,2.673-5.106.777-6.446,5.053-1.282,4.126-4.221,9.087,1.794,13.8-3.189.924-6.278-1.723-7.167-3.032" transform="translate(25.332 7.671)" fill="#1d2833"/>
        <path id="Trazado_157865" data-name="Trazado 157865" d="M40.168,29.744l3.242,5.538s-15.871-.988-17.586-9.549c-.237-1.212,1.674-4.3,4.406-4.044,0,0-1.544,5.931,9.938,8.055" transform="translate(23.435 19.685)" fill="#def0f9"/>
        <path id="Trazado_157866" data-name="Trazado 157866" d="M44.736,43.853s-.286-3.435.55-4.234a23.457,23.457,0,0,0,3-5.085c.2-.717,1.567-1.826,1.845-1.2s-.328,5.146-.492,5.984,3.641-.527,4.458-1.891c.832-1.382,1.941-2.859,2.3-2.4A7.377,7.377,0,0,1,55.532,43a18.55,18.55,0,0,1-6.809,5.217Z" transform="translate(40.587 30.106)" fill="#efb185"/>
        <path id="Trazado_157867" data-name="Trazado 157867" d="M38.129,30.521c2.093-.376,5.738.7,6.5,5.52s-2.349,24.4-2.349,24.4l14.869-15.4s5.952,2.618,5.385,6.782c0,0-22.885,26.906-25.862,26.6-7.994-.826-9.574-45.95,1.46-47.906" transform="translate(27.487 27.657)" fill="#17a4e3"/>
        <path id="Trazado_157868" data-name="Trazado 157868" d="M36.67,78.419c2.979.3,25.862-26.6,25.862-26.6a4.281,4.281,0,0,0-.277-2.141l-.637-1.153c-.061-.08-.12-.168-.179-.256-.624.647-18.993,19.626-24.389,23.343C32,75.1,37.851,36.583,38.809,30.46a3.633,3.633,0,0,0-.679.053c-11.033,1.956-9.453,47.08-1.46,47.906" transform="translate(27.487 27.664)" fill="#18b6fe"/>
      </g>
    </g>
  </g>
</svg>
