<svg id="Grupo_88621" data-name="Grupo 88621" xmlns="http://www.w3.org/2000/svg" xmlns:xlink="http://www.w3.org/1999/xlink" width="70.762" height="92.719" viewBox="0 0 70.762 92.719">
  <defs>
    <clipPath id="clip-path">
      <rect id="Rectángulo_10634" data-name="Rectángulo 10634" width="70.762" height="92.719" fill="none"/>
    </clipPath>
  </defs>
  <g id="Enmascarar_grupo_88621" data-name="Enmascarar grupo 88621" transform="translate(0 0)" clip-path="url(#clip-path)">
    <path id="Trazado_158286" data-name="Trazado 158286" d="M48.053,3.285q9.029.005,18.058.011c3.154,0,4.615,1.458,4.616,4.588q0,40.224.036,80.449a4.423,4.423,0,0,1-4.785,4.73q-30.6-.082-61.2,0A4.423,4.423,0,0,1,0,88.332Q.093,48.108.036,7.882C.037,4.76,1.5,3.3,4.653,3.3q9.029-.011,18.058-.011.021,4.363.045,8.725c-4.28,0-8.562.038-12.842-.009-.914-.01-1.1.278-1.095,1.134q.034,35.015,0,70.029c0,.8.155,1.08,1.028,1.078q25.535-.04,51.071-.005c.747,0,1.031-.137,1.03-.973q-.036-35.115,0-70.229c0-.883-.308-1.033-1.1-1.028-4.281.03-8.562.007-12.843,0l.046-8.725" transform="translate(0 -0.344)" fill="#1395d1"/>
    <path id="Trazado_158287" data-name="Trazado 158287" d="M50.709,2.942q-.023,4.362-.045,8.725a6.116,6.116,0,0,1-.781.1q-11.846.008-23.693,0a6.122,6.122,0,0,1-.78-.1q-.023-4.362-.045-8.725c.013-.7.076-1.407.028-2.1C25.346.159,25.606,0,26.249,0c3.98.026,7.959.013,11.939.013,3.846,0,7.692.02,11.538-.017.736-.006,1.028.165.957.939a17.818,17.818,0,0,0,.026,2M38,7.219h6.42a1.241,1.241,0,0,0,1.025-.28c.4-.426.767-.853.528-1.5A1.6,1.6,0,0,0,44.289,4.42q-6.319-.03-12.639,0a1.526,1.526,0,0,0-1.629,1.427,1.554,1.554,0,0,0,1.655,1.373c2.107.006,4.213,0,6.32,0" transform="translate(-2.656 0)" fill="#f9d10b"/>
    <path id="Trazado_158288" data-name="Trazado 158288" d="M23.786,13.03a6.116,6.116,0,0,0,.781.1q11.846.008,23.693,0a6.122,6.122,0,0,0,.78-.1c4.28,0,8.562.028,12.842,0,.789-.005,1.1.145,1.1,1.028q-.036,35.115,0,70.229c0,.836-.283.973-1.03.972q-25.535-.027-51.071.006c-.873,0-1.028-.278-1.028-1.078q.031-35.015,0-70.029c0-.857.181-1.144,1.095-1.134,4.28.047,8.562.013,12.842.009m21.786,23.4c-2.74,0-5.479-.005-8.22,0-1.167,0-1.724.436-1.756,1.32-.033.918.6,1.485,1.732,1.487q8.169.015,16.339,0c1.113,0,1.8-.589,1.784-1.461-.018-.84-.654-1.343-1.76-1.347-2.707-.009-5.413,0-8.12,0m-.09,18.549c2.74,0,5.48,0,8.22,0,1.1,0,1.738-.506,1.75-1.352.013-.868-.679-1.454-1.794-1.456q-8.12-.013-16.238,0c-1.174,0-1.8.509-1.823,1.4-.021.956.567,1.4,1.866,1.407q4.01.007,8.019,0m-.047,13c-2.772,0-5.543-.013-8.315.006A1.392,1.392,0,0,0,35.6,69.368a1.341,1.341,0,0,0,1.467,1.417c5.61.014,11.219.006,16.829.009a1.445,1.445,0,0,0,1.345-.712c.6-1.012-.147-2.084-1.49-2.093-2.771-.017-5.543-.005-8.314,0m0-44.554h.6q3.905,0,7.812,0a1.465,1.465,0,0,0,1.456-.857,1.263,1.263,0,0,0-.186-1.4,1.727,1.727,0,0,0-1.533-.554q-8.062.011-16.124.005c-1.251,0-1.886.5-1.867,1.436.018.9.64,1.369,1.829,1.371q4.006.007,8.011,0M30.786,53.465a1.431,1.431,0,0,0-.851-1.141,1.363,1.363,0,0,0-1.635.382c-1.728,1.723-3.468,3.436-5.169,5.187-.47.484-.782.581-1.265.027-.591-.68-1.257-1.295-1.907-1.921-.77-.743-1.489-.809-2.12-.224-.656.609-.632,1.409.131,2.2q1.638,1.695,3.333,3.334a1.431,1.431,0,0,0,2.348.019c2.188-2.162,4.355-4.347,6.531-6.521a1.745,1.745,0,0,0,.6-1.34m0-15.748a2.991,2.991,0,0,0-.15-.491,1.426,1.426,0,0,0-2.421-.232c-1.694,1.663-3.381,3.334-5.028,5.042-.509.526-.84.687-1.375.034a22.494,22.494,0,0,0-1.832-1.853,1.5,1.5,0,0,0-2.211-.163c-.587.61-.534,1.373.2,2.123q1.646,1.685,3.333,3.332a1.419,1.419,0,0,0,2.341.027c2.187-2.163,4.353-4.347,6.53-6.519a1.758,1.758,0,0,0,.615-1.3M22.45,30.289a1.187,1.187,0,0,0,.94-.315c2.362-2.361,4.739-4.708,7.068-7.1a1.259,1.259,0,0,0-.232-1.936c-.77-.577-1.424-.308-2.035.309-1.717,1.732-3.456,3.442-5.162,5.185-.384.392-.632.458-1.031.018-.65-.716-1.348-1.39-2.05-2.058a1.415,1.415,0,0,0-2.125-.157,1.359,1.359,0,0,0,.116,2.111c1.142,1.172,2.313,2.317,3.467,3.478a1.34,1.34,0,0,0,1.044.467m8.335,39.147A1.387,1.387,0,0,0,29.9,68.1a1.367,1.367,0,0,0-1.623.426c-1.651,1.655-3.35,3.267-4.939,4.98-.689.743-1.094.689-1.687-.038a18.784,18.784,0,0,0-1.691-1.707,1.426,1.426,0,0,0-2.125-.178c-.655.636-.611,1.394.165,2.185q1.649,1.68,3.331,3.33a1.438,1.438,0,0,0,2.34-.026c2.184-2.163,4.35-4.343,6.524-6.516a1.6,1.6,0,0,0,.592-1.12M41.25,27.494c-1.3,0-2.6-.011-3.905,0-1.106.012-1.715.5-1.748,1.368-.034.892.538,1.471,1.628,1.484q4.006.048,8.012,0c1.1-.013,1.664-.57,1.642-1.467s-.606-1.372-1.723-1.386c-1.3-.016-2.6,0-3.906,0m-.012,47.363c-1.3,0-2.6-.012-3.905,0-1.1.013-1.709.515-1.736,1.38-.029.919.569,1.467,1.739,1.477q3.905.036,7.811,0c1.174-.012,1.761-.552,1.732-1.48-.027-.877-.62-1.364-1.735-1.377-1.3-.016-2.6,0-3.905,0m-.112-28.741c1.368,0,2.736.013,4.1,0,1.095-.013,1.667-.529,1.646-1.439-.021-.868-.577-1.359-1.621-1.364q-4-.019-8.007,0c-1.082,0-1.672.538-1.65,1.438.021.857.588,1.351,1.624,1.364,1.3.017,2.6,0,3.9,0m.206,13.006c-1.368,0-2.736-.009-4.1,0-1.065.01-1.613.47-1.633,1.334a1.408,1.408,0,0,0,1.549,1.464q4.1.043,8.206,0a1.384,1.384,0,0,0,1.527-1.477c-.027-.837-.553-1.305-1.544-1.318-1.334-.017-2.669,0-4,0" transform="translate(-1.031 -1.363)" fill="#e9e6fc"/>
    <path id="Trazado_158289" data-name="Trazado 158289" d="M38.54,7.734c-2.107,0-4.213,0-6.32,0a1.554,1.554,0,0,1-1.655-1.373,1.526,1.526,0,0,1,1.629-1.427q6.32-.021,12.639,0a1.6,1.6,0,0,1,1.681,1.016c.239.649-.129,1.076-.528,1.5a1.241,1.241,0,0,1-1.025.28H38.54" transform="translate(-3.2 -0.515)" fill="#f8ae16"/>
    <path id="Trazado_158290" data-name="Trazado 158290" d="M48.583,39.17c2.707,0,5.413-.006,8.12,0,1.106,0,1.741.507,1.76,1.347.019.872-.671,1.459-1.784,1.46q-8.171.012-16.339,0c-1.135,0-1.765-.569-1.732-1.487.031-.884.59-1.316,1.757-1.32,2.74-.008,5.48,0,8.22,0" transform="translate(-4.042 -4.1)" fill="#989898"/>
    <path id="Trazado_158291" data-name="Trazado 158291" d="M48.493,59.559q-4.01,0-8.019,0c-1.3,0-1.886-.45-1.866-1.407.019-.9.649-1.4,1.823-1.4q8.118-.011,16.238,0c1.116,0,1.807.589,1.794,1.457-.013.845-.646,1.348-1.75,1.351-2.741.008-5.48,0-8.22,0" transform="translate(-4.042 -5.94)" fill="#989898"/>
    <path id="Trazado_158292" data-name="Trazado 158292" d="M48.447,74.41c2.772,0,5.543-.013,8.315,0,1.342.009,2.089,1.082,1.489,2.093a1.444,1.444,0,0,1-1.345.712c-5.61,0-11.219.006-16.829-.009a1.34,1.34,0,0,1-1.466-1.417,1.391,1.391,0,0,1,1.521-1.376c2.772-.019,5.543-.006,8.315-.007" transform="translate(-4.042 -7.79)" fill="#989898"/>
    <path id="Trazado_158293" data-name="Trazado 158293" d="M48.451,24.319q-4.006,0-8.012,0c-1.189,0-1.81-.475-1.829-1.371-.02-.939.616-1.436,1.867-1.437q8.062,0,16.125-.005a1.727,1.727,0,0,1,1.532.554,1.263,1.263,0,0,1,.186,1.4,1.466,1.466,0,0,1-1.456.856q-3.905-.005-7.812,0h-.6" transform="translate(-4.042 -2.251)" fill="#989898"/>
    <path id="Trazado_158294" data-name="Trazado 158294" d="M31.664,58.044a1.742,1.742,0,0,1-.6,1.34c-2.177,2.175-4.343,4.359-6.531,6.521a1.431,1.431,0,0,1-2.348-.02q-1.695-1.638-3.334-3.334c-.762-.788-.787-1.588-.13-2.2.631-.586,1.349-.518,2.119.224.65.627,1.316,1.243,1.908,1.921.483.554.794.458,1.264-.027,1.7-1.751,3.441-3.463,5.17-5.187a1.359,1.359,0,0,1,1.634-.382,1.428,1.428,0,0,1,.851,1.14" transform="translate(-1.911 -5.943)" fill="#989898"/>
    <path id="Trazado_158295" data-name="Trazado 158295" d="M31.667,40.454a1.756,1.756,0,0,1-.615,1.3c-2.177,2.173-4.343,4.357-6.53,6.52a1.419,1.419,0,0,1-2.341-.027q-1.687-1.646-3.333-3.333c-.731-.749-.785-1.513-.2-2.122a1.5,1.5,0,0,1,2.211.162,22.646,22.646,0,0,1,1.832,1.854c.535.653.867.492,1.375-.035,1.647-1.708,3.334-3.38,5.028-5.041a1.425,1.425,0,0,1,2.421.232,2.959,2.959,0,0,1,.15.49" transform="translate(-1.91 -4.101)" fill="#989898"/>
    <path id="Trazado_158296" data-name="Trazado 158296" d="M23.329,31.176a1.335,1.335,0,0,1-1.043-.467c-1.154-1.161-2.324-2.306-3.468-3.478a1.359,1.359,0,0,1-.116-2.11,1.415,1.415,0,0,1,2.125.156c.7.668,1.4,1.342,2.051,2.059.4.44.647.374,1.031-.019,1.706-1.743,3.444-3.453,5.162-5.185.611-.617,1.265-.886,2.035-.308a1.259,1.259,0,0,1,.232,1.935c-2.33,2.394-4.707,4.742-7.069,7.1a1.189,1.189,0,0,1-.94.314" transform="translate(-1.911 -2.251)" fill="#989898"/>
    <path id="Trazado_158297" data-name="Trazado 158297" d="M31.666,75.862a1.6,1.6,0,0,1-.592,1.12c-2.174,2.174-4.34,4.353-6.524,6.516a1.438,1.438,0,0,1-2.34.027q-1.683-1.649-3.331-3.331c-.775-.79-.82-1.548-.165-2.184a1.425,1.425,0,0,1,2.125.177A18.782,18.782,0,0,1,22.53,79.9c.593.728,1,.782,1.687.039,1.589-1.714,3.288-3.325,4.94-4.981a1.365,1.365,0,0,1,1.622-.426,1.388,1.388,0,0,1,.886,1.334" transform="translate(-1.911 -7.79)" fill="#989898"/>
    <path id="Trazado_158298" data-name="Trazado 158298" d="M44.261,29.185c1.3,0,2.6-.013,3.906,0,1.116.014,1.7.5,1.723,1.386s-.54,1.454-1.642,1.467q-4.006.047-8.012,0c-1.09-.013-1.662-.593-1.628-1.484.032-.865.642-1.356,1.747-1.368,1.3-.014,2.6,0,3.906,0" transform="translate(-4.042 -3.055)" fill="#989898"/>
    <path id="Trazado_158299" data-name="Trazado 158299" d="M44.249,82.085c1.3,0,2.6-.013,3.905,0,1.114.013,1.708.5,1.735,1.377.028.928-.559,1.469-1.732,1.48q-3.905.036-7.811,0c-1.169-.011-1.767-.559-1.739-1.478.027-.864.639-1.366,1.736-1.38,1.3-.015,2.6,0,3.905,0" transform="translate(-4.042 -8.593)" fill="#989898"/>
    <path id="Trazado_158300" data-name="Trazado 158300" d="M44.137,49.656c-1.3,0-2.6.013-3.9,0-1.036-.013-1.6-.507-1.625-1.364-.022-.9.569-1.433,1.651-1.438q4-.016,8.007,0c1.044,0,1.6.5,1.621,1.363.021.911-.551,1.427-1.646,1.44-1.367.015-2.735,0-4.1,0" transform="translate(-4.042 -4.904)" fill="#989898"/>
    <path id="Trazado_158301" data-name="Trazado 158301" d="M44.343,64.511c1.334,0,2.669-.013,4,0,.99.013,1.517.481,1.544,1.318a1.385,1.385,0,0,1-1.527,1.477q-4.1.046-8.206,0a1.408,1.408,0,0,1-1.549-1.464c.02-.864.568-1.324,1.633-1.334,1.367-.012,2.735,0,4.1,0" transform="translate(-4.042 -6.753)" fill="#989898"/>
  </g>
</svg>
