<svg xmlns="http://www.w3.org/2000/svg" xmlns:xlink="http://www.w3.org/1999/xlink" width="1240" height="281.761" viewBox="0 0 1240 281.761">
  <defs>
    <clipPath id="clip-path">
      <rect id="Rectángulo_11490" data-name="Rectángulo 11490" width="1240" height="281.761" fill="none"/>
    </clipPath>
  </defs>
  <g id="Grupo_90509" data-name="Grupo 90509" transform="translate(-180 -7002)">
    <g id="Grupo_90262" data-name="Grupo 90262" transform="translate(180 7002)">
      <text id="Resguardo_de_la_" data-name="Resguardo de la " transform="translate(27.768 243.72)" fill="#35249b" font-size="18" font-family="Roboto-Bold, Roboto" font-weight="700"><tspan x="0" y="0">Resguardo de la </tspan></text>
      <text id="información" transform="translate(45.1 266.474)" fill="#35249b" font-size="18" font-family="Roboto-Bold, Roboto" font-weight="700"><tspan x="0" y="0">información</tspan></text>
      <g id="Grupo_90253" data-name="Grupo 90253">
        <g id="Grupo_90252" data-name="Grupo 90252" clip-path="url(#clip-path)">
          <text id="Vida_útil_de_la_" data-name="Vida útil de la " transform="translate(241.515 15.206)" fill="#35249b" font-size="18" font-family="Roboto-Bold, Roboto" font-weight="700"><tspan x="0" y="0">Vida útil de la </tspan></text>
        </g>
      </g>
      <text id="información-2" data-name="información" transform="translate(247.945 37.96)" fill="#35249b" font-size="18" font-family="Roboto-Bold, Roboto" font-weight="700"><tspan x="0" y="0">información</tspan></text>
      <text id="Respaldos_" data-name="Respaldos " transform="translate(470.125 246.373)" fill="#35249b" font-size="18" font-family="Roboto-Bold, Roboto" font-weight="700"><tspan x="0" y="0">Respaldos </tspan></text>
      <text id="imprescindibles" transform="translate(447.086 269.129)" fill="#35249b" font-size="18" font-family="Roboto-Bold, Roboto" font-weight="700"><tspan x="0" y="0">imprescindibles</tspan></text>
      <g id="Grupo_90255" data-name="Grupo 90255">
        <g id="Grupo_90254" data-name="Grupo 90254" clip-path="url(#clip-path)">
          <text id="Criterios_de_" data-name="Criterios de " transform="translate(679.265 18.137)" fill="#35249b" font-size="18" font-family="Roboto-Bold, Roboto" font-weight="700"><tspan x="0" y="0">Criterios de </tspan></text>
        </g>
      </g>
      <text id="clasificación" transform="translate(674.312 40.891)" fill="#35249b" font-size="18" font-family="Roboto-Bold, Roboto" font-weight="700"><tspan x="0" y="0">clasificación</tspan></text>
      <g id="Grupo_90257" data-name="Grupo 90257">
        <g id="Grupo_90256" data-name="Grupo 90256" clip-path="url(#clip-path)">
          <path id="Trazado_161844" data-name="Trazado 161844" d="M1211.005,119.239a91.058,91.058,0,0,0-22.466-14.991c-.087-.04-.173-.083-.26-.124-.914-.423-1.841-.825-2.773-1.218-.353-.15-.7-.3-1.058-.449-.728-.295-1.464-.574-2.2-.851-.574-.217-1.146-.434-1.725-.638s-1.148-.391-1.725-.582c-.757-.251-1.516-.5-2.282-.726-.446-.133-.894-.259-1.343-.386-.9-.255-1.807-.5-2.719-.727-.358-.088-.717-.173-1.076-.256q-1.5-.352-3.009-.655c-.32-.063-.641-.123-.962-.183q-1.546-.289-3.11-.524c-.34-.052-.683-.1-1.024-.147q-1.493-.205-3-.359-.648-.066-1.3-.125c-.41-.036-.817-.088-1.228-.119s-.844-.035-1.267-.06q-1.123-.068-2.252-.107-1.057-.038-2.109-.051c-.355,0-.708-.025-1.065-.025-.477,0-.949.025-1.425.033-.612.009-1.224.02-1.834.042-.9.033-1.8.086-2.7.146-.534.036-1.067.065-1.6.112-1.011.085-2.014.2-3.014.315-.413.05-.828.09-1.239.144-1.231.164-2.451.358-3.665.572-.176.032-.356.055-.531.087a88.091,88.091,0,0,0-12.655,3.3l-.045.017q-2,.683-3.949,1.46c-.1.041-.205.085-.31.127q-1.824.73-3.606,1.538c-.135.061-.267.124-.4.186q-1.751.8-3.458,1.679l-.363.189q-1.74.9-3.434,1.878l-.252.145q-1.781,1.032-3.508,2.144c-.017.012-.036.022-.053.035A89.246,89.246,0,0,0,1092.483,118c-.452.4-.923.76-1.388,1.131a39.324,39.324,0,0,1-40.1,4.614,40.017,40.017,0,0,1-23.417-35.916q-.055-2.476-.247-4.977a88.516,88.516,0,0,0-25.6-55.53l-.041-.043q-1.247-1.253-2.542-2.457c-.109-.1-.216-.205-.326-.308-.776-.715-1.569-1.413-2.37-2.1-.206-.177-.409-.358-.616-.533-.718-.607-1.452-1.2-2.189-1.78-.3-.24-.6-.485-.91-.721-.661-.51-1.336-1-2.011-1.5-.4-.29-.791-.582-1.193-.864-.608-.428-1.227-.84-1.846-1.253-.484-.322-.964-.648-1.454-.961-.562-.359-1.135-.7-1.705-1.051s-1.117-.682-1.683-1.009c-.527-.3-1.06-.6-1.593-.889-.624-.343-1.246-.687-1.878-1.017-.5-.26-1.009-.509-1.515-.76-.675-.336-1.352-.67-2.036-.989-.485-.225-.973-.438-1.462-.654-.717-.318-1.436-.634-2.163-.933-.48-.2-.965-.383-1.448-.572-.743-.291-1.485-.578-2.238-.849-.493-.177-.99-.342-1.487-.512-.751-.255-1.5-.508-2.263-.744-.514-.159-1.033-.307-1.553-.456-.749-.217-1.5-.432-2.256-.63-.55-.143-1.105-.274-1.658-.407-.731-.176-1.462-.349-2.2-.506-.6-.127-1.2-.24-1.8-.355-.7-.134-1.41-.269-2.121-.386-.648-.107-1.3-.2-1.953-.293s-1.334-.19-2.006-.27c-.707-.084-1.419-.151-2.131-.218-.421-.04-.837-.1-1.26-.13-.181-.015-.36-.015-.543-.028-.282-.02-.56-.055-.842-.073-.725-.046-1.44-.052-2.161-.08-.693-.028-1.387-.065-2.076-.078-.933-.016-1.858,0-2.784.013-.721.009-1.445.007-2.163.034-.86.033-1.711.1-2.564.155-.772.052-1.547.088-2.315.159-.733.068-1.457.169-2.186.255-.871.1-1.747.191-2.61.318-.352.052-.7.124-1.049.181a88.032,88.032,0,0,0-11.988,2.779c-.145.044-.295.081-.44.126-1.195.374-2.371.788-3.544,1.21-.271.1-.547.184-.816.284-1.128.419-2.239.874-3.346,1.337-.3.126-.6.242-.9.371-1.095.472-2.17.977-3.242,1.491-.294.141-.592.275-.884.419-1.065.527-2.113,1.082-3.155,1.65-.283.154-.57.3-.851.461-1.042.583-2.066,1.19-3.08,1.813-.264.162-.53.32-.792.485q-1.533.962-3.021,1.988c-.237.163-.475.324-.71.489q-1.509,1.056-2.969,2.172-.308.235-.615.472-1.487,1.157-2.923,2.372c-.169.141-.335.284-.5.429q-1.473,1.264-2.889,2.589c-.123.116-.245.233-.368.349q-1.465,1.389-2.867,2.837c-.07.074-.139.149-.21.221q-1.463,1.53-2.856,3.123a.369.369,0,0,0-.026.031,88.537,88.537,0,0,0-21.831,58.578,35.741,35.741,0,0,1-21.144,32.629l-4.726,2.114c-12.56,5.619-27.457,3.684-37.626-5.582l-.04-.038a91.022,91.022,0,0,0-22.466-14.99c-.086-.041-.172-.084-.259-.124-.915-.425-1.843-.826-2.774-1.219-.353-.15-.7-.3-1.058-.448-.728-.3-1.463-.575-2.2-.852-.573-.217-1.146-.434-1.724-.638s-1.148-.391-1.726-.582c-.757-.25-1.516-.5-2.282-.725-.446-.134-.894-.259-1.342-.387-.9-.255-1.808-.5-2.72-.727-.357-.088-.716-.172-1.076-.256q-1.495-.352-3.009-.654c-.32-.064-.641-.124-.962-.184q-1.546-.289-3.11-.524-.51-.076-1.024-.146-1.492-.205-3-.359-.648-.068-1.3-.126c-.411-.036-.817-.088-1.229-.119s-.844-.035-1.267-.06q-1.124-.068-2.252-.107-1.057-.036-2.108-.051c-.356,0-.709-.025-1.065-.025-.478,0-.949.025-1.425.033-.613.011-1.225.02-1.835.043-.9.033-1.8.085-2.7.145-.533.036-1.067.066-1.6.112-1.01.085-2.014.2-3.014.316-.413.05-.828.088-1.239.143-1.231.164-2.451.359-3.665.573-.176.031-.355.055-.531.086a88.189,88.189,0,0,0-12.654,3.3l-.045.017q-2,.683-3.949,1.46l-.311.127q-1.824.73-3.606,1.538c-.135.061-.268.125-.4.186q-1.749.8-3.457,1.679c-.122.062-.243.125-.365.189q-1.74.9-3.434,1.878l-.252.145q-1.781,1.033-3.507,2.145l-.054.034A89.447,89.447,0,0,0,667.648,118c-.452.4-.923.76-1.388,1.131a39.327,39.327,0,0,1-40.1,4.615A40.02,40.02,0,0,1,602.74,87.83q-.055-2.475-.245-4.977a88.532,88.532,0,0,0-25.6-55.53c-.015-.014-.028-.028-.042-.042q-1.245-1.255-2.542-2.458c-.11-.1-.216-.205-.326-.307-.776-.716-1.569-1.414-2.37-2.1-.205-.178-.408-.358-.616-.534-.718-.607-1.452-1.2-2.189-1.779-.3-.241-.6-.485-.91-.722-.662-.51-1.336-1-2.011-1.5-.4-.289-.791-.582-1.193-.864-.608-.428-1.226-.84-1.846-1.253-.484-.322-.964-.647-1.454-.961-.562-.359-1.135-.7-1.706-1.051s-1.117-.681-1.683-1.009c-.526-.3-1.06-.6-1.592-.889-.624-.343-1.247-.687-1.878-1.016-.5-.261-1.009-.51-1.516-.761-.675-.336-1.352-.67-2.036-.988-.484-.225-.973-.438-1.462-.654-.717-.318-1.435-.634-2.163-.933-.479-.2-.965-.383-1.448-.573-.743-.291-1.485-.578-2.236-.849-.493-.177-.991-.342-1.489-.511-.751-.256-1.5-.508-2.262-.744-.515-.159-1.034-.307-1.553-.457-.749-.217-1.5-.432-2.256-.629-.55-.143-1.105-.275-1.659-.407-.731-.176-1.462-.35-2.2-.507-.6-.126-1.195-.239-1.8-.354-.7-.135-1.41-.269-2.121-.387-.648-.107-1.3-.2-1.953-.292s-1.334-.191-2-.27c-.708-.084-1.42-.152-2.132-.219-.42-.039-.836-.1-1.259-.13-.182-.015-.361-.015-.544-.027-.281-.021-.559-.056-.842-.074-.725-.045-1.44-.052-2.161-.08-.693-.028-1.387-.065-2.076-.077-.932-.017-1.857,0-2.783.013-.722.009-1.445.006-2.163.034-.86.032-1.712.1-2.565.155-.772.052-1.548.087-2.314.159-.734.067-1.458.169-2.187.254-.87.1-1.746.191-2.609.318-.353.052-.7.124-1.05.181a88.265,88.265,0,0,0-11.988,2.779c-.145.045-.295.082-.44.127-1.195.374-2.371.787-3.544,1.209-.271.1-.546.184-.815.284-1.129.419-2.24.874-3.346,1.338-.3.125-.6.241-.9.37-1.095.472-2.17.977-3.241,1.492-.294.14-.591.274-.883.418-1.066.527-2.114,1.083-3.156,1.65-.283.155-.569.3-.851.461-1.042.583-2.066,1.191-3.08,1.813-.263.162-.53.32-.791.485-1.023.642-2.028,1.307-3.021,1.989-.238.162-.475.323-.711.488q-1.509,1.056-2.969,2.173c-.205.157-.41.313-.614.472q-1.487,1.155-2.924,2.371-.251.213-.5.429-1.473,1.264-2.889,2.59c-.123.115-.245.232-.368.348q-1.463,1.389-2.865,2.838c-.072.073-.14.147-.21.221q-1.465,1.528-2.857,3.122l-.026.031a88.537,88.537,0,0,0-21.831,58.579,35.739,35.739,0,0,1-21.144,32.629L399,124.855c-12.578,5.628-27.5,3.681-37.669-5.618A88.766,88.766,0,0,0,242.81,118a38.151,38.151,0,0,1-40.739,6.1l-.657-.294a40.063,40.063,0,0,1-23.546-35.972q-.049-2.209-.208-4.44c-3.078-43.42-38.114-78.777-81.508-82.214A89.041,89.041,0,0,0,.29,97.092c3.449,43.293,38.673,78.272,81.987,81.448a88.617,88.617,0,0,0,64.967-21.585,39.272,39.272,0,0,1,41.8-5.984,40.016,40.016,0,0,1,23.417,35.915,91.773,91.773,0,0,0,.687,9.345,88.953,88.953,0,0,0,177.179-11.355v-.23a35.74,35.74,0,0,1,21.146-32.67l4.725-2.114c12.579-5.628,27.5-3.681,37.669,5.618a89.29,89.29,0,0,0,22.453,14.984c.089.041.176.085.266.126.92.427,1.851.83,2.787,1.224.344.147.689.3,1.037.44.733.3,1.477.58,2.221.86.568.215,1.138.431,1.712.634s1.155.393,1.735.584c.752.249,1.506.493,2.268.722.451.136.906.263,1.36.391.9.255,1.8.5,2.705.724.361.09.725.174,1.088.259q1.489.351,2.995.652c.323.064.649.125.973.185q1.545.289,3.107.524c.339.051.677.1,1.019.146q1.492.205,3,.359.651.068,1.307.126c.407.036.809.087,1.217.118.425.031.844.035,1.267.06q1.128.07,2.265.109,1.051.036,2.1.051c.359,0,.714.025,1.075.025.487,0,.966-.025,1.448-.033.592-.011,1.182-.019,1.77-.041.926-.033,1.846-.086,2.763-.149.509-.034,1.019-.062,1.524-.1,1.055-.09,2.1-.2,3.145-.33.362-.044.729-.077,1.09-.125a88.285,88.285,0,0,0,12.725-2.65c.067-.02.134-.042.2-.061q1.948-.564,3.859-1.214c.165-.057.329-.118.494-.175q1.77-.613,3.507-1.3c.186-.074.37-.151.555-.224q1.716-.691,3.4-1.449l.5-.229q1.732-.8,3.424-1.662l.335-.171q1.833-.95,3.617-1.978l.022-.013a89.438,89.438,0,0,0,13.548-9.6A39.553,39.553,0,0,1,637.3,186.887a92.036,92.036,0,0,0,.687,9.345c.095.763.266,1.5.381,2.258q.2,1.3.437,2.584.57,3.13,1.366,6.179c.055.209.106.417.162.625a89.35,89.35,0,0,0,51.5,58.987c.121.052.24.106.361.157q2.013.837,4.07,1.577,1.743.63,3.516,1.19c.964.3,1.931.586,2.909.853q2.416.668,4.885,1.2c.7.149,1.4.282,2.108.415,1.934.367,3.886.678,5.86.915.153.018.3.054.456.072.456.051.908.072,1.364.116.557.055,1.109.126,1.669.171.3.024.6.026.9.047.924.063,1.842.105,2.76.141.777.031,1.553.059,2.325.071.865.01,1.725,0,2.584-.012.812-.013,1.624-.025,2.431-.059s1.6-.088,2.4-.144c.853-.059,1.707-.117,2.552-.2.729-.072,1.453-.164,2.176-.254.9-.11,1.8-.221,2.692-.358.653-.1,1.3-.221,1.947-.337.947-.168,1.893-.335,2.83-.533.569-.12,1.13-.259,1.7-.39,1-.232,2-.466,2.991-.732.472-.126.939-.271,1.407-.407,1.064-.3,2.126-.613,3.173-.957.363-.12.722-.254,1.083-.378,1.139-.39,2.273-.788,3.391-1.222.232-.09.458-.191.689-.283,1.235-.492,2.461-1,3.668-1.544.067-.031.133-.064.2-.095a89.031,89.031,0,0,0,52.242-81.01h0v-.02c0-.086,0-.173,0-.259l0-.027a35.739,35.739,0,0,1,21.144-32.594l4.725-2.113c12.578-5.628,27.5-3.681,37.669,5.617a89.227,89.227,0,0,0,22.452,14.984c.09.042.177.086.266.127.921.426,1.851.829,2.787,1.224.346.146.689.3,1.037.439.734.3,1.477.58,2.221.861.569.215,1.138.431,1.712.633s1.156.393,1.735.585c.752.249,1.507.493,2.268.722.452.135.906.262,1.361.391.9.254,1.8.5,2.705.723.361.091.725.175,1.088.26q1.489.351,2.995.652c.323.063.648.124.973.185q1.544.289,3.106.524c.339.051.678.1,1.02.145q1.49.205,3,.36c.435.044.871.087,1.307.126.408.036.809.087,1.218.117s.844.036,1.266.061q1.13.068,2.265.108c.7.024,1.4.042,2.1.05.36.005.715.026,1.076.026.486,0,.965-.025,1.448-.034.591-.009,1.182-.019,1.77-.04.925-.033,1.845-.087,2.763-.149.509-.034,1.019-.062,1.523-.1,1.055-.09,2.1-.205,3.146-.33.362-.044.728-.077,1.09-.125a88.241,88.241,0,0,0,12.724-2.651l.2-.062q1.948-.563,3.859-1.214c.165-.056.329-.117.494-.174q1.77-.613,3.507-1.3c.186-.074.37-.151.555-.225q1.716-.691,3.4-1.449c.167-.075.334-.152.5-.229q1.732-.795,3.424-1.662c.112-.057.223-.113.335-.171q1.832-.95,3.617-1.978l.021-.012a89.4,89.4,0,0,0,13.549-9.6,39.552,39.552,0,0,1,65.556,29.605,92.345,92.345,0,0,0,.686,9.345c.1.763.267,1.5.382,2.258q.2,1.3.436,2.584.572,3.13,1.367,6.18c.055.208.106.417.162.625a89.348,89.348,0,0,0,51.5,58.987c.121.051.24.106.361.157q2.013.837,4.071,1.577c1.162.419,2.333.82,3.515,1.19q1.446.45,2.908.853,2.418.668,4.885,1.2c.7.149,1.4.282,2.108.415,1.935.366,3.886.678,5.86.915.154.018.3.054.456.072.457.051.909.071,1.365.115.557.056,1.109.127,1.669.172.3.024.6.025.9.046.924.064,1.843.106,2.76.142.778.031,1.553.059,2.325.07.865.012,1.724,0,2.584-.011.812-.013,1.623-.025,2.431-.059s1.6-.09,2.4-.144c.853-.059,1.706-.118,2.553-.2.729-.073,1.452-.164,2.175-.254.9-.111,1.8-.221,2.693-.358.653-.1,1.3-.222,1.947-.337.947-.167,1.893-.336,2.829-.533.569-.12,1.129-.259,1.7-.391,1-.231,2-.466,2.99-.731.473-.127.939-.272,1.409-.407,1.064-.3,2.126-.614,3.172-.957.364-.12.721-.254,1.084-.378,1.139-.39,2.273-.788,3.391-1.222.232-.091.458-.191.689-.283,1.235-.492,2.461-1,3.668-1.544.067-.031.133-.064.2-.095A89.031,89.031,0,0,0,1240,184.6s-1.617-40.636-28.994-65.363" transform="translate(0 0.048)" fill="#7b65d8"/>
          <path id="Trazado_161845" data-name="Trazado 161845" d="M87.766,22.933A65.728,65.728,0,1,1,22.038,88.661,65.728,65.728,0,0,1,87.766,22.933" transform="translate(1.178 1.226)" fill="#fff"/>
          <line id="Línea_278" data-name="Línea 278" transform="translate(301.381 93.421)" fill="none" stroke="#5e43cf" stroke-linecap="round" stroke-miterlimit="10" stroke-width="2"/>
          <line id="Línea_279" data-name="Línea 279" y1="36.897" transform="translate(301.381 52.183)" fill="none" stroke="#5e43cf" stroke-linecap="round" stroke-miterlimit="10" stroke-width="2" stroke-dasharray="0 4.121"/>
          <line id="Línea_280" data-name="Línea 280" transform="translate(301.381 50.013)" fill="none" stroke="#5e43cf" stroke-linecap="round" stroke-miterlimit="10" stroke-width="2"/>
          <line id="Línea_281" data-name="Línea 281" transform="translate(726.254 93.778)" fill="none" stroke="#5e43cf" stroke-linecap="round" stroke-miterlimit="10" stroke-width="2"/>
          <line id="Línea_282" data-name="Línea 282" y1="37.201" transform="translate(726.254 52.201)" fill="none" stroke="#5e43cf" stroke-linecap="round" stroke-miterlimit="10" stroke-width="2" stroke-dasharray="0 4.154"/>
          <line id="Línea_283" data-name="Línea 283" transform="translate(726.254 50.013)" fill="none" stroke="#5e43cf" stroke-linecap="round" stroke-miterlimit="10" stroke-width="2"/>
          <text id="Inspección_de_las_" data-name="Inspección de las " transform="translate(1078.593 18.137)" fill="#35249b" font-size="18" font-family="Roboto-Bold, Roboto" font-weight="700"><tspan x="0" y="0">Inspección de las </tspan></text>
        </g>
      </g>
      <text id="herramientas" transform="translate(1096.143 40.891)" fill="#35249b" font-size="18" font-family="Roboto-Bold, Roboto" font-weight="700"><tspan x="0" y="0">herramientas</tspan></text>
      <g id="Grupo_90259" data-name="Grupo 90259">
        <g id="Grupo_90258" data-name="Grupo 90258" clip-path="url(#clip-path)">
          <line id="Línea_284" data-name="Línea 284" transform="translate(1150.567 93.778)" fill="none" stroke="#5e43cf" stroke-linecap="round" stroke-miterlimit="10" stroke-width="2"/>
          <line id="Línea_285" data-name="Línea 285" y1="37.201" transform="translate(1150.567 52.201)" fill="none" stroke="#5e43cf" stroke-linecap="round" stroke-miterlimit="10" stroke-width="2" stroke-dasharray="0 4.154"/>
          <line id="Línea_286" data-name="Línea 286" transform="translate(1150.567 50.013)" fill="none" stroke="#5e43cf" stroke-linecap="round" stroke-miterlimit="10" stroke-width="2"/>
          <line id="Línea_287" data-name="Línea 287" transform="translate(88.945 181.153)" fill="none" stroke="#5e43cf" stroke-linecap="round" stroke-miterlimit="10" stroke-width="2"/>
          <line id="Línea_288" data-name="Línea 288" y2="37.097" transform="translate(88.945 185.517)" fill="none" stroke="#5e43cf" stroke-linecap="round" stroke-miterlimit="10" stroke-width="2" stroke-dasharray="0 4.143"/>
          <line id="Línea_289" data-name="Línea 289" transform="translate(88.945 224.797)" fill="none" stroke="#5e43cf" stroke-linecap="round" stroke-miterlimit="10" stroke-width="2"/>
          <line id="Línea_290" data-name="Línea 290" transform="translate(513.818 180.9)" fill="none" stroke="#5e43cf" stroke-linecap="round" stroke-miterlimit="10" stroke-width="2"/>
          <line id="Línea_291" data-name="Línea 291" y2="37.312" transform="translate(513.818 185.29)" fill="none" stroke="#5e43cf" stroke-linecap="round" stroke-miterlimit="10" stroke-width="2" stroke-dasharray="0 4.167"/>
          <line id="Línea_292" data-name="Línea 292" transform="translate(513.818 224.797)" fill="none" stroke="#5e43cf" stroke-linecap="round" stroke-miterlimit="10" stroke-width="2"/>
        </g>
      </g>
      <text id="Periodo_y_tipos_de_" data-name="Periodo y tipos de " transform="translate(866.28 246.365)" fill="#35249b" font-size="18" font-family="Roboto-Bold, Roboto" font-weight="700"><tspan x="0" y="0" letter-spacing="-0.007em">P</tspan><tspan y="0">eriodo y tipos de </tspan></text>
      <text id="copias" transform="translate(914.918 269.119)" fill="#35249b" font-size="18" font-family="Roboto-Bold, Roboto" font-weight="700"><tspan x="0" y="0">copias</tspan></text>
      <g id="Grupo_90261" data-name="Grupo 90261">
        <g id="Grupo_90260" data-name="Grupo 90260" clip-path="url(#clip-path)">
          <line id="Línea_293" data-name="Línea 293" transform="translate(941.98 180.9)" fill="none" stroke="#5e43cf" stroke-linecap="round" stroke-miterlimit="10" stroke-width="2"/>
          <line id="Línea_294" data-name="Línea 294" y2="37.312" transform="translate(941.98 185.29)" fill="none" stroke="#5e43cf" stroke-linecap="round" stroke-miterlimit="10" stroke-width="2" stroke-dasharray="0 4.167"/>
          <line id="Línea_295" data-name="Línea 295" transform="translate(941.98 224.797)" fill="none" stroke="#5e43cf" stroke-linecap="round" stroke-miterlimit="10" stroke-width="2"/>
          <path id="Trazado_161846" data-name="Trazado 161846" d="M355.152,178.876a65.728,65.728,0,1,1-65.728-65.728,65.728,65.728,0,0,1,65.728,65.728" transform="translate(11.957 6.048)" fill="#fff"/>
          <path id="Trazado_161847" data-name="Trazado 161847" d="M556.809,88.661a65.728,65.728,0,1,1-65.728-65.728,65.728,65.728,0,0,1,65.728,65.728" transform="translate(22.737 1.226)" fill="#fff"/>
          <path id="Trazado_161848" data-name="Trazado 161848" d="M957.72,78.02a65.728,65.728,0,1,1-75.5-54.219,65.729,65.729,0,0,1,75.5,54.219" transform="translate(44.213 1.225)" fill="#fff"/>
          <path id="Trazado_161849" data-name="Trazado 161849" d="M758.465,178.876a65.728,65.728,0,1,1-65.728-65.728,65.728,65.728,0,0,1,65.728,65.728" transform="translate(33.516 6.048)" fill="#fff"/>
          <path id="Trazado_161850" data-name="Trazado 161850" d="M1159.857,178.876a65.728,65.728,0,1,1-65.728-65.728,65.728,65.728,0,0,1,65.728,65.728" transform="translate(54.973 6.048)" fill="#fff"/>
          <path id="Trazado_161851" data-name="Trazado 161851" d="M111.21,44.023a19.62,19.62,0,0,1,2.553.842,8.805,8.805,0,0,1,5.289,7.885c.019.311.018.623.018.934q0,33.855.012,67.712a9.139,9.139,0,0,1-4.648,8.478,9.019,9.019,0,0,1-4.717,1.171q-12.532-.011-25.063,0-14.4,0-28.8,0a9.018,9.018,0,0,1-9.131-7.528,12.787,12.787,0,0,1-.133-2.284q-.011-33.644-.005-67.287c0-5.392,2.5-8.565,7.727-9.818.05-.012.088-.065.133-.1ZM50.194,87.535q0,16.951,0,33.9a8.071,8.071,0,0,0,.083,1.438c.523,2.851,2.724,4.556,5.871,4.556q26.636,0,53.272,0c3.834,0,6.035-2.225,6.035-6.087V53.713c0-3.861-2.2-6.077-6.043-6.077q-26.593,0-53.187,0c-3.8,0-6.034,2.222-6.035,6q0,16.949,0,33.9" transform="translate(2.49 2.353)" fill="#7b65d8"/>
          <path id="Trazado_161852" data-name="Trazado 161852" d="M78.667,75.212H71.458V93.326c.477,0,.973-.006,1.47,0,1.321.02,2.087.7,2.071,1.826a1.811,1.811,0,0,1-2.043,1.781q-3.4.014-6.794,0a1.811,1.811,0,1,1-.042-3.6c.506-.014,1.012,0,1.592,0V75.249H60.52c0,.521.014,1.075,0,1.627a1.793,1.793,0,0,1-1.832,1.907,1.745,1.745,0,0,1-1.768-1.869q-.038-1.74,0-3.481a1.714,1.714,0,0,1,1.868-1.852q10.783-.022,21.566,0a1.768,1.768,0,0,1,1.917,1.906q.032,1.7,0,3.4a1.785,1.785,0,0,1-1.837,1.9,1.757,1.757,0,0,1-1.763-1.875c-.018-.533,0-1.067,0-1.7" transform="translate(3.041 3.826)" fill="#7b65d8"/>
          <path id="Trazado_161853" data-name="Trazado 161853" d="M82.281,106.159q-11.6,0-23.192,0c-1.339,0-2.133-.647-2.168-1.741a1.732,1.732,0,0,1,1.6-1.846,8.128,8.128,0,0,1,.848-.023h45.788c.283,0,.568-.006.849.021a1.728,1.728,0,0,1,1.618,1.75,1.776,1.776,0,0,1-1.562,1.817,7.065,7.065,0,0,1-.933.022H82.281" transform="translate(3.043 5.482)" fill="#7b65d8"/>
          <path id="Trazado_161854" data-name="Trazado 161854" d="M82.315,112.873q11.553,0,23.106,0c1.393,0,2.152.592,2.2,1.689a1.786,1.786,0,0,1-1.565,1.9,4.848,4.848,0,0,1-.678.021q-23.105,0-46.213,0c-1.48,0-2.3-.708-2.247-1.916a1.719,1.719,0,0,1,1.523-1.662,8.394,8.394,0,0,1,1.018-.032H82.315" transform="translate(3.043 6.034)" fill="#7b65d8"/>
          <path id="Trazado_161855" data-name="Trazado 161855" d="M96.942,71.572q3.4,0,6.792,0c1.477,0,2.257.646,2.24,1.827-.016,1.131-.815,1.782-2.212,1.782q-6.92,0-13.839,0A1.8,1.8,0,0,1,87.9,73.468,1.742,1.742,0,0,1,89.81,71.58c2.378-.021,4.754-.006,7.132-.007" transform="translate(4.698 3.826)" fill="#7b65d8"/>
          <path id="Trazado_161856" data-name="Trazado 161856" d="M96.982,81.9c2.349,0,4.7-.013,7.047.005a1.754,1.754,0,0,1,1.947,1.775,1.8,1.8,0,0,1-2,1.827c-4.7.008-9.4,0-14.094.006a1.818,1.818,0,0,1-1.842-1.1,1.527,1.527,0,0,1,.31-1.877,2.818,2.818,0,0,1,1.583-.609c2.347-.065,4.7-.027,7.045-.027" transform="translate(4.697 4.377)" fill="#7b65d8"/>
          <path id="Trazado_161857" data-name="Trazado 161857" d="M96.937,95.831c-2.378,0-4.754.021-7.132-.006A1.763,1.763,0,0,1,88.16,93.13a2.209,2.209,0,0,1,1.517-.863c4.839-.065,9.678-.051,14.518-.029A1.706,1.706,0,0,1,105.975,94a1.755,1.755,0,0,1-1.822,1.822c-2.405.026-4.811.008-7.216.009" transform="translate(4.696 4.93)" fill="#7b65d8"/>
          <path id="Trazado_161858" data-name="Trazado 161858" d="M256.192,156.015c-.237-4.087,1.435-6.8,5.392-8.013,0-2.929,0-5.876,0-8.824,0-1.708.346-2.046,2.083-2.046q22.216,0,44.429,0c1.707,0,2.049.348,2.049,2.082v3.313c1.239,0,2.435,0,3.631,0,1.318.005,1.762.45,1.763,1.776q0,5.437,0,10.874v.876a17.52,17.52,0,0,1,1.976.856,6.516,6.516,0,0,1,3.4,5.738c.057,2.243.012,4.489.012,6.774.616.077,1.2.117,1.763.224a6.611,6.611,0,0,1,5.361,7.571c-1.23,6.992-2.551,13.968-3.837,20.949-.868,4.719-1.75,9.436-2.608,14.156a6.679,6.679,0,0,1-6.772,5.726q-32.5.014-65,0c-1.326,0-1.748-.482-1.748-1.976q0-25.371,0-50.743a23.591,23.591,0,0,1,.112-3.614,6.648,6.648,0,0,1,6.694-5.7c.391,0,.781,0,1.289,0m-5.127,59.341h55.223c2.865,0,5.731.015,8.6-.005a4.028,4.028,0,0,0,4.037-3.372c.148-.743.285-1.487.422-2.232q3-16.262,5.99-32.525a4.019,4.019,0,0,0-4.24-5.021q-29.287,0-58.574,0a5.04,5.04,0,0,0-1.169.1c-2.132.509-2.961,2.036-3.317,4.064-1.8,10.223-3.649,20.436-5.48,30.653-.49,2.732-.976,5.463-1.487,8.333m18.673-45.922H312.8V145.262h-43.06ZM261.55,150.98a3.8,3.8,0,0,0-2.654,3.571c-.031.87,0,1.741-.015,2.611a1.385,1.385,0,0,1-1.569,1.546c-.646.012-1.293,0-1.938,0-2.981,0-4.583,1.6-4.583,4.569q0,18.327,0,36.654v.834a.534.534,0,0,0,.193-.364q2.264-12.589,4.53-25.18a6.57,6.57,0,0,1,4.95-5.482c.346-.1.707-.149,1.085-.226Zm5.428,18.483V168.4q0-11.922,0-23.844c0-1.665.357-2.025,2.018-2.025h38.386V139.9H264.325v29.565ZM315.6,159.086v10.346h2.632c0-2.313.032-4.558-.009-6.8a3.723,3.723,0,0,0-2.622-3.544" transform="translate(13.261 7.33)" fill="#7b65d8"/>
          <path id="Trazado_161859" data-name="Trazado 161859" d="M289.942,150.072H273.166a4.662,4.662,0,0,1-.842-.022,1.338,1.338,0,0,1,0-2.653,4.865,4.865,0,0,1,.842-.021q16.861,0,33.721,0c.084,0,.169,0,.253,0,1.14.006,1.766.485,1.766,1.347s-.629,1.348-1.766,1.348q-8.6,0-17.2,0" transform="translate(14.495 7.877)" fill="#7b65d8"/>
          <path id="Trazado_161860" data-name="Trazado 161860" d="M290.027,155.193H273.167a4.763,4.763,0,0,1-.842-.021,1.338,1.338,0,0,1,0-2.654,4.217,4.217,0,0,1,.757-.021q16.944,0,33.89,0a4.216,4.216,0,0,1,.757.02,1.338,1.338,0,0,1,0,2.654,4.664,4.664,0,0,1-.842.022H290.027" transform="translate(14.495 8.151)" fill="#7b65d8"/>
          <path id="Trazado_161861" data-name="Trazado 161861" d="M289.985,160.314q-8.474,0-16.946,0a3.233,3.233,0,0,1-.918-.07,1.247,1.247,0,0,1-.964-1.319,1.274,1.274,0,0,1,1.124-1.278,4.293,4.293,0,0,1,.841-.027h33.805c.14,0,.281,0,.421,0,.975.025,1.581.568,1.556,1.389a1.372,1.372,0,0,1-1.555,1.3q-8.682.011-17.365,0" transform="translate(14.494 8.425)" fill="#7b65d8"/>
          <path id="Trazado_161862" data-name="Trazado 161862" d="M290.027,162.738h16.861a4.763,4.763,0,0,1,.842.021,1.337,1.337,0,0,1,0,2.653,4.664,4.664,0,0,1-.842.022H272.913c-1.138-.007-1.763-.487-1.763-1.349s.624-1.346,1.765-1.346q8.557,0,17.113,0" transform="translate(14.494 8.699)" fill="#7b65d8"/>
          <path id="Trazado_161863" data-name="Trazado 161863" d="M442.138,81.384c.341-2.05.6-4.118,1.039-6.148a37.3,37.3,0,0,1,7.012-15.108,39.092,39.092,0,0,1,20.1-13.875,38.246,38.246,0,0,1,17.345-1.119,24.93,24.93,0,0,1,9.606,3.268,8.677,8.677,0,0,1,3.8,4.3c1.186,3.264-.015,6.025-2.221,8.291a69.254,69.254,0,0,1-6.061,5.092c-1.159.945-2.421,1.772-3.527,2.772a7.422,7.422,0,0,0,8.83,11.825c2.283-1.457,4.394-3.182,6.583-4.786,2.268-1.661,4.648-3.09,7.537-3.31a6.665,6.665,0,0,1,7.22,4.62c.439,1.161.739,2.377,1.136,3.678.275-.219.535-.411.777-.623q8.364-7.334,16.726-14.673a8.691,8.691,0,0,1,5.908-2.529,5.2,5.2,0,0,1,4.859,6.973,12.311,12.311,0,0,1-2.07,3.807c-1.721,2.184-3.633,4.22-5.48,6.3-.872.985-1.788,1.159-2.527.525s-.677-1.6.169-2.569c1.762-2.021,3.591-3.986,5.273-6.071a9.461,9.461,0,0,0,1.671-3.075,2.056,2.056,0,0,0-2.611-2.637,7.682,7.682,0,0,0-2.925,1.5Q522.79,83.093,505.344,98.45a1.185,1.185,0,0,1-.275.159l8.565,8.565a2.621,2.621,0,0,1,.351-.666Q524.34,94.681,534.716,82.87a5.449,5.449,0,0,1,.733-.737,1.42,1.42,0,0,1,1.914.021,1.447,1.447,0,0,1,.374,1.886,4.742,4.742,0,0,1-.754.992q-10.537,12.016-21.062,24.043a1.981,1.981,0,0,0-.378,1.372,4.383,4.383,0,0,1-5.212,4.789,1.941,1.941,0,0,0-1.312.191c-2.771,1.8-5.51,3.653-8.241,5.515a1.056,1.056,0,0,0-.433.721c-.093,5.664-3.259,9.235-8.049,11.566a15.236,15.236,0,0,1-12.551.628,2.852,2.852,0,0,1-1.454-1.441,14.375,14.375,0,0,1-.753-8.095c.051-.273.1-.548.129-.824a1.6,1.6,0,0,0-.035-.336c-1.767-.334-3.55-.587-5.29-1.017a39.426,39.426,0,0,1-30.025-34.626,4.6,4.6,0,0,0-.178-.7Zm3.138.742c.08,7.961,1.355,13.473,4.127,18.521,6.13,11.159,15.528,17.639,28.23,19.235a1.454,1.454,0,0,0,1.763-.875c2.42-4.287,5.809-7.157,11.035-7.179a1.049,1.049,0,0,0,.746-.388q2.852-4.183,5.64-8.409a1.4,1.4,0,0,0,.191-.951,4.344,4.344,0,0,1,4.967-5.436,1.451,1.451,0,0,0,.993-.307q7.092-6.172,14.137-12.4a1.156,1.156,0,0,0,.42-.851,34.869,34.869,0,0,0-1.3-5.225,3.35,3.35,0,0,0-3.885-2.13,11.506,11.506,0,0,0-5.552,2.484c-1.937,1.419-3.837,2.892-5.769,4.318-4.818,3.558-11.093,2.979-14.765-1.346a10.577,10.577,0,0,1,1.818-15.5c1.983-1.534,4.093-2.914,5.981-4.551a20.167,20.167,0,0,0,3.658-4.078c1.265-1.931.725-3.782-1.1-5.225a16.008,16.008,0,0,0-5.884-2.825,35.274,35.274,0,0,0-22.709,1.366c-13.829,5.474-22.922,19.055-22.747,31.745m40.018,49.62a13.44,13.44,0,0,0,8.032-2.8c2.368-1.779,3.976-4.054,3.866-7.129a6.989,6.989,0,0,0-10.783-5.837c-4.261,2.527-6.043,6.628-5.915,11.373.114,4.22-.006,3.995,4.592,4.391.07.006.139,0,.209,0m13.93-26.65c-1.414,2.092-2.845,4.185-4.235,6.307a.908.908,0,0,0,.028.858c1.713,1.771,3.467,3.5,5.239,5.273l6.842-4.627-7.875-7.81M501,99.6c-.34.309-.833.545-.881.85a1.668,1.668,0,0,0,.394,1.256c3.27,3.328,6.582,6.615,9.876,9.918.49.491.982.813,1.615.241.664-.6.439-1.122-.112-1.672-3.35-3.347-6.683-6.709-10.033-10.055A4.89,4.89,0,0,0,501,99.6" transform="translate(23.634 2.385)" fill="#7b65d8"/>
          <path id="Trazado_161864" data-name="Trazado 161864" d="M459.316,98.4a7.665,7.665,0,1,1,7.657-7.614,7.679,7.679,0,0,1-7.657,7.614m4.524-7.63a4.531,4.531,0,1,0-4.615,4.494,4.507,4.507,0,0,0,4.615-4.494" transform="translate(24.142 4.441)" fill="#7b65d8"/>
          <path id="Trazado_161865" data-name="Trazado 161865" d="M468.308,72.807a7.6,7.6,0,1,1-7.576-7.568,7.66,7.66,0,0,1,7.576,7.568m-3.133.022a4.463,4.463,0,0,0-4.44-4.456,4.474,4.474,0,1,0,4.44,4.456" transform="translate(24.22 3.487)" fill="#7b65d8"/>
          <path id="Trazado_161866" data-name="Trazado 161866" d="M473.138,110.664a7.594,7.594,0,1,1,7.651-7.51,7.637,7.637,0,0,1-7.651,7.51m.015-3.133a4.454,4.454,0,0,0,4.5-4.388,4.475,4.475,0,1,0-4.5,4.388" transform="translate(24.887 5.104)" fill="#7b65d8"/>
          <path id="Trazado_161867" data-name="Trazado 161867" d="M473.036,66.342a6.292,6.292,0,1,1,6.518-6.055,6.315,6.315,0,0,1-6.518,6.055m.24-3.113a3.152,3.152,0,0,0,3.156-3.19,3.188,3.188,0,0,0-3.11-3.147,3.241,3.241,0,0,0-3.228,3.153,3.2,3.2,0,0,0,3.181,3.184" transform="translate(24.961 2.874)" fill="#7b65d8"/>
          <path id="Trazado_161868" data-name="Trazado 161868" d="M647.24,202.877V152.22a4.327,4.327,0,0,0,.161-.575,15.863,15.863,0,0,1,15.4-13.61c19.34-.061,38.681-.031,58.021-.012a14.552,14.552,0,0,1,8.62,2.735c4.256,3.046,6.637,7.1,6.627,12.463-.026,16.3-.005,32.61-.021,48.915a10.831,10.831,0,0,1-.276,2.4,16.006,16.006,0,0,1-15.719,12.548c-5.782.024-11.564.005-17.346.005q-19.643,0-39.287,0a15.993,15.993,0,0,1-15.74-12.19c-.165-.668-.3-1.345-.444-2.018m44.537,5.573q14.309,0,28.617,0a6.263,6.263,0,0,0,6.389-5.025,8.964,8.964,0,0,0,.224-2.061q.019-23.545.007-47.088a6.92,6.92,0,0,0-7.219-7.2q-28.184-.008-56.367,0a6.868,6.868,0,0,0-7.2,7.189q-.008,23.5,0,47a8.165,8.165,0,0,0,.133,1.722,6.877,6.877,0,0,0,6.882,5.458q14.266.019,28.531,0" transform="translate(34.598 7.377)" fill="#7b65d8"/>
          <path id="Trazado_161869" data-name="Trazado 161869" d="M690.4,199.227q-10.276,0-20.552,0a8.535,8.535,0,0,1-1.47-.071,4.537,4.537,0,0,1-3.574-6.075,5.555,5.555,0,0,1,.578-1.252q4.883-7.729,9.8-15.437a4.9,4.9,0,0,1,4.781-2.378,3.757,3.757,0,0,1,2.733,1.49c.721.9,1.44,1.809,2.147,2.722a4.523,4.523,0,0,0,7.406-.125c1.946-2.763,3.8-5.588,5.719-8.372a4.875,4.875,0,0,1,5.581-1.9,4.372,4.372,0,0,1,2.769,2.564c3.133,7.323,6.282,14.638,9.388,21.972a4.833,4.833,0,0,1-3.032,6.733,6.463,6.463,0,0,1-1.545.132q-10.363.013-20.726.005" transform="translate(35.523 8.958)" fill="#7b65d8"/>
          <path id="Trazado_161870" data-name="Trazado 161870" d="M702.9,159.219a6.8,6.8,0,0,1,6.768-6.592,6.738,6.738,0,1,1-6.768,6.592" transform="translate(37.573 8.159)" fill="#7b65d8"/>
          <path id="Trazado_161871" data-name="Trazado 161871" d="M1094.6,135.2q19.51,0,39.021,0c5.146,0,8.375,3.22,8.375,8.356q0,30,0,59.992c0,5.538-3.6,9.142-9.123,9.142q-38.375,0-76.75,0c-5.455,0-9.068-3.626-9.069-9.094q0-30.046,0-60.091c0-5.063,3.251-8.3,8.328-8.3q19.61,0,39.219,0m-44.766,19.874v1.1q0,23.695,0,47.389c0,4,2.35,6.349,6.355,6.349q38.335,0,76.67,0c4.007,0,6.355-2.346,6.355-6.351q0-23.693,0-47.388v-1.1Zm89.382-2.861c0-3.113.016-6.122-.005-9.13a4.944,4.944,0,0,0-5.168-5.1q-20.4-.011-40.8-.018a1.1,1.1,0,0,0-1.174.765c-1.965,4.225-3.97,8.432-5.959,12.646-.12.253-.206.521-.328.835Zm-89.365,0c.34.016.567.036.792.036q15.587,0,31.172.018a1.127,1.127,0,0,0,1.176-.788c1.975-4.221,3.976-8.43,5.965-12.644.118-.25.2-.516.329-.854h-10.348q-11.962,0-23.924,0a4.857,4.857,0,0,0-5.132,4.5c-.124,3.2-.029,6.415-.029,9.731" transform="translate(55.97 7.227)" fill="#7b65d8"/>
          <path id="Trazado_161872" data-name="Trazado 161872" d="M1093.572,202.354h-26.3c-1.726,0-2.108-.377-2.108-2.08q0-7.3,0-14.6c0-1.583.413-2,1.988-2q26.4,0,52.809,0c1.589,0,2.009.414,2.01,1.979q0,7.4,0,14.8c0,1.449-.449,1.9-1.889,1.9q-13.253,0-26.5,0m-25.588-2.853h51.12v-12.99h-51.12Z" transform="translate(56.937 9.818)" fill="#7b65d8"/>
          <path id="Trazado_161873" data-name="Trazado 161873" d="M1085.817,167.885c0-.868-.037-1.655.006-2.437a6.808,6.808,0,0,1,13.458-1.112,26.611,26.611,0,0,1,.262,3.55c.515,0,1-.014,1.486,0,.977.034,1.5.5,1.515,1.451.027,2.018.074,4.041-.019,6.056a6.376,6.376,0,0,1-6.11,6.048c-2.512.093-5.031.094-7.543,0a6.422,6.422,0,0,1-6.166-6.312c-.043-1.786-.016-3.574-.012-5.362,0-1.457.429-1.877,1.887-1.887.358,0,.718,0,1.235,0m-.331,2.821c0,1.588-.061,3.075.014,4.555a3.591,3.591,0,0,0,3.5,3.411c2.411.067,4.828.063,7.24,0a3.494,3.494,0,0,0,3.458-3.107c.155-1.594.034-3.214.034-4.862Zm11.082-2.871c.421-2.719-.194-4.5-1.856-5.5a4.01,4.01,0,0,0-4.473.194c-1.851,1.361-1.772,3.288-1.591,5.31Z" transform="translate(57.874 8.497)" fill="#7b65d8"/>
          <path id="Trazado_161874" data-name="Trazado 161874" d="M1112.63,143.3H1129.7a5.34,5.34,0,0,1,.891.024c.7.118,1.236.573,1.138,1.259a2.5,2.5,0,0,1-.9,1.357c-.247.209-.757.136-1.149.136q-17.065.009-34.129,0a5.215,5.215,0,0,1-.792-.02,1.366,1.366,0,0,1-1.287-1.391,1.346,1.346,0,0,1,1.4-1.358c1.223-.033,2.447-.013,3.671-.013h14.088" transform="translate(58.45 7.66)" fill="#7b65d8"/>
          <path id="Trazado_161875" data-name="Trazado 161875" d="M1064.892,144.818a4.563,4.563,0,0,1-4.6,4.6,4.628,4.628,0,0,1-4.518-4.5,4.57,4.57,0,0,1,4.577-4.622,4.509,4.509,0,0,1,4.537,4.53m-4.539,1.811a1.781,1.781,0,0,0,1.759-1.768,1.738,1.738,0,0,0-1.714-1.794,1.793,1.793,0,0,0-1.834,1.8,1.837,1.837,0,0,0,1.789,1.761" transform="translate(56.436 7.499)" fill="#7b65d8"/>
          <path id="Trazado_161876" data-name="Trazado 161876" d="M1077,144.826a4.546,4.546,0,1,1-4.531-4.538,4.516,4.516,0,0,1,4.531,4.538m-4.51,1.8a1.79,1.79,0,0,0,1.732-1.8,1.764,1.764,0,1,0-3.527.066,1.784,1.784,0,0,0,1.8,1.732" transform="translate(57.084 7.499)" fill="#7b65d8"/>
          <path id="Trazado_161877" data-name="Trazado 161877" d="M1108.492,195.486c-.1,1.053-.426,1.861-1.518,1.83-1.025-.029-1.345-.794-1.371-1.849-.39.249-.68.449-.984.624a1.381,1.381,0,0,1-1.525-2.3c.435-.335.9-.638,1.427-1.014-.514-.364-.945-.653-1.358-.967a1.386,1.386,0,1,1,1.547-2.291c.252.149.5.31.85.531.105-1,.389-1.866,1.521-1.818,1.037.042,1.318.839,1.385,1.591a16.657,16.657,0,0,1,2.131-.509c.231-.026.621.306.748.567.851,1.751-.937,2-1.754,2.94.43.3.856.587,1.263.9a1.395,1.395,0,1,1-1.576,2.284c-.223-.135-.439-.283-.789-.511" transform="translate(58.93 10.062)" fill="#7b65d8"/>
          <path id="Trazado_161878" data-name="Trazado 161878" d="M1080.251,192.819c.525.372,1,.669,1.432,1.026a1.378,1.378,0,0,1-1.589,2.25c-.307-.175-.6-.372-.925-.576-.261,1.331-.71,1.869-1.526,1.808-1.032-.077-1.343-.813-1.4-1.591a17.716,17.716,0,0,1-2.206.472c-.224.022-.6-.331-.72-.6-.744-1.711.965-1.942,1.8-2.862-.412-.3-.825-.59-1.229-.891a1.4,1.4,0,0,1-.518-2.043c.472-.682,1.229-.769,2.094-.24.222.135.439.276.734.461.116-1.021.438-1.872,1.577-1.8.966.058,1.315.765,1.3,1.821,1.034-.548,2.179-1.609,2.964-.073.828,1.621-.986,1.919-1.789,2.838" transform="translate(57.362 10.062)" fill="#7b65d8"/>
          <path id="Trazado_161879" data-name="Trazado 161879" d="M1089.82,192.738c-.508-.354-.946-.642-1.363-.957a1.324,1.324,0,0,1-.447-1.9,1.353,1.353,0,0,1,1.983-.4c.28.161.548.346.908.575.059-1.017.372-1.82,1.443-1.83,1.092-.009,1.383.813,1.453,1.748,1.812-.88,2.462-.933,2.879-.1.88,1.75-.939,2-1.752,2.943.422.3.848.581,1.253.89a1.393,1.393,0,1,1-1.555,2.3c-.25-.15-.5-.3-.82-.5-.073,1-.361,1.819-1.453,1.817s-1.378-.819-1.442-1.754c-1.787.9-2.383.92-2.9.108s-.262-1.217,1.812-2.935" transform="translate(58.146 10.062)" fill="#7b65d8"/>
          <path id="Trazado_161880" data-name="Trazado 161880" d="M849.312,117.057V99.467a2.15,2.15,0,0,1,2-.879c4.54.034,9.082.016,13.624.016h.886V87.568h-.976q-4.786,0-9.572,0c-1.36,0-1.821-.455-1.821-1.8q0-11.984,0-23.968c0-1.361.452-1.82,1.8-1.822q4.829,0,9.658,0h.963c0-3.215-.008-6.314,0-9.415a6.874,6.874,0,0,1,7.11-7.136q20.479-.014,40.959,0a6.877,6.877,0,0,1,7.119,7.129c.012,2.816,0,5.633,0,8.449v.974H922.1q6.812,0,13.624,0c1.463,0,1.892.431,1.892,1.9q0,9.138,0,18.277c0,1.462-.434,1.892-1.9,1.893q-6.856,0-13.711,0h-.944c0,2.283.032,4.437-.018,6.589a1.021,1.021,0,0,0,.857,1.19A14.951,14.951,0,0,1,931.82,106.8,14.5,14.5,0,0,1,921.733,118.5a.842.842,0,0,0-.683.972c.032,1.81.062,3.623,0,5.431a6.741,6.741,0,0,1-4.153,6.233,15.445,15.445,0,0,1-1.7.574H871.735a2.76,2.76,0,0,0-.388-.156,6.738,6.738,0,0,1-5.38-5.785,32.994,32.994,0,0,1-.095-4.125c-.012-1.224,0-2.448,0-3.73h-1.039c-4.508,0-9.014-.017-13.522.017a2.161,2.161,0,0,1-2-.879m63.472-35.007h-1.034q-6.812,0-13.625,0c-1.467,0-1.9-.43-1.9-1.9q0-9.138,0-18.277c0-1.47.427-1.9,1.9-1.9q6.855,0,13.711,0h.909V51.7c-2.276,0-4.51-.009-6.744.019a.83.83,0,0,0-.535.423,4.235,4.235,0,0,1-4.022,2.319q-7.977-.014-15.953,0a4.287,4.287,0,0,1-4.027-2.321.835.835,0,0,0-.534-.422c-2.233-.028-4.467-.019-6.72-.019v8.276h.991q4.786,0,9.573,0c1.342,0,1.8.462,1.8,1.824q0,11.984,0,23.968c0,1.341-.466,1.8-1.825,1.8q-4.829,0-9.659,0H874.2V98.6h17.361c1.474,0,1.907.428,1.907,1.887q0,7.76,0,15.519c0,1.472-.43,1.906-1.889,1.907q-8.236,0-16.471,0h-.886v5.468h38.569c0-1.252-.056-2.457.02-3.653.048-.772-.224-1.075-.944-1.322a14.932,14.932,0,0,1-9.83-17.022,14.542,14.542,0,0,1,10.071-11.634c.336-.117.7-.139.691-.691-.033-2.3-.014-4.592-.014-7.015m-56.534,2.7h27.489V62.78H856.25Zm78.581-21.954H899.037V79.282h35.794ZM852.113,115.1h38.526V101.408H852.113Zm19.276-55.162c0-3.12,0-6.162,0-9.2,0-1.312.465-1.792,1.737-1.8q4.481-.008,8.965,0c1.14,0,1.521.334,1.72,1.473a1.373,1.373,0,0,0,1.47,1.279q8.19.011,16.379,0a1.372,1.372,0,0,0,1.46-1.29c.194-1.129.579-1.458,1.731-1.46q4.439-.008,8.878,0c1.352,0,1.81.457,1.812,1.808q0,4.137,0,8.274v.912H918.3v-.618c0-2.959.013-5.918,0-8.877a4.113,4.113,0,0,0-4.322-4.256q-20.516-.009-41.032,0a4.125,4.125,0,0,0-4.312,4.355c-.009,2.9,0,5.8,0,8.7,0,.221.022.442.036.7Zm49.955,46.316a10.357,10.357,0,0,1,5.111,5.734c4.381-4.907,3.666-12.865-1.476-17.32a12.412,12.412,0,0,0-17.638,1.558c-4.562,5.541-2.936,12.727-.035,15.558a26.362,26.362,0,0,1,2.134-3.164,26.9,26.9,0,0,1,2.956-2.512c-1.7-1.59-1.934-3.719-1.867-5.96a6.4,6.4,0,0,1,8.23-5.915c3.04.921,4.7,3.56,4.6,7.235a7.389,7.389,0,0,1-2.017,4.786m-52.715,11.7c0,2.171,0,4.264,0,6.357,0,2.989,1.65,4.643,4.631,4.644q15.211,0,30.422,0,5.085,0,10.17,0a4.154,4.154,0,0,0,4.45-4.479q.006-2.2,0-4.394c0-.247-.033-.492-.049-.724h-2.707v4.756c0,1.709-.369,2.083-2.056,2.083H873.5c-1.756,0-2.108-.354-2.109-2.115v-6.126Zm48.179-1.416a11.776,11.776,0,0,0,5.786-1.432c1.981-1.127,1.818-.642.938-2.748a7.2,7.2,0,0,0-7.561-4.264,7.444,7.444,0,0,0-6.259,5.637.907.907,0,0,0,.36.718,12.109,12.109,0,0,0,6.736,2.089m3.742-15.6c0-.258.011-.517,0-.774a3.621,3.621,0,0,0-5.332-3.019,3.8,3.8,0,0,0-1.95,3.655c-.019,1.7.33,3.176,1.951,3.982a4.166,4.166,0,0,0,2.062.4c2.114-.149,3.278-1.723,3.27-4.248m-49.2-13.328h-2.667V98.541h2.667Zm46.9-5.509h-2.66V88.94h2.66Z" transform="translate(45.399 2.321)" fill="#7b65d8"/>
          <path id="Trazado_161881" data-name="Trazado 161881" d="M878.268,72.719c0,2.155,0,4.312,0,6.466,0,1.095-.506,1.726-1.361,1.737s-1.393-.625-1.395-1.7q-.006-6.553,0-13.1c0-1.1.5-1.723,1.36-1.734s1.393.624,1.4,1.7c.006,2.213,0,4.427,0,6.638" transform="translate(46.8 3.441)" fill="#7b65d8"/>
          <path id="Trazado_161882" data-name="Trazado 161882" d="M867.789,75.185c0,1.293.011,2.586,0,3.879a1.408,1.408,0,0,1-1.346,1.578c-.834.02-1.4-.6-1.406-1.6q-.014-3.922,0-7.845a1.394,1.394,0,0,1,1.344-1.576c.839-.02,1.4.6,1.407,1.6.013,1.321,0,2.643,0,3.965" transform="translate(46.239 3.721)" fill="#7b65d8"/>
          <path id="Trazado_161883" data-name="Trazado 161883" d="M873.028,75.836c0,1.063.014,2.127,0,3.19a1.384,1.384,0,1,1-2.749,0q-.022-3.276,0-6.551a1.384,1.384,0,1,1,2.749,0c.017,1.12,0,2.241,0,3.362" transform="translate(46.519 3.791)" fill="#7b65d8"/>
          <path id="Trazado_161884" data-name="Trazado 161884" d="M859.8,77.6c0-.489-.034-.98.007-1.464a1.353,1.353,0,0,1,1.372-1.279,1.336,1.336,0,0,1,1.353,1.3c.044.974.046,1.954,0,2.929a1.336,1.336,0,0,1-1.368,1.28,1.38,1.38,0,0,1-1.361-1.3c-.006-.057-.006-.115-.007-.173V77.6Z" transform="translate(45.959 4.001)" fill="#7b65d8"/>
          <path id="Trazado_161885" data-name="Trazado 161885" d="M903.718,69.9c1.032,1.021,2,1.959,2.944,2.916.765.77.836,1.578.222,2.188s-1.418.529-2.188-.235q-1.868-1.847-3.716-3.717a1.409,1.409,0,0,1-.012-2.311q1.873-1.9,3.776-3.777a1.422,1.422,0,0,1,2.126-.2c.623.6.559,1.425-.195,2.19-.947.959-1.908,1.9-2.958,2.947" transform="translate(48.129 3.441)" fill="#7b65d8"/>
          <path id="Trazado_161886" data-name="Trazado 161886" d="M923.628,69.9c-1.067-1.058-2.032-2-2.981-2.958a1.429,1.429,0,0,1-.227-2.126c.593-.631,1.432-.577,2.188.17q1.871,1.846,3.718,3.716a1.437,1.437,0,0,1,.014,2.379q-1.874,1.9-3.78,3.775a1.4,1.4,0,0,1-2.127.138,1.42,1.42,0,0,1,.2-2.125c.966-.974,1.948-1.933,2.994-2.968" transform="translate(49.18 3.441)" fill="#7b65d8"/>
          <path id="Trazado_161887" data-name="Trazado 161887" d="M917.921,65.641a8.615,8.615,0,0,1-.5,1.141c-1.64,2.492-3.284,4.983-4.953,7.455-.827,1.223-1.494,1.459-2.289.912s-.775-1.284.02-2.479q2.483-3.724,4.964-7.449a1.271,1.271,0,0,1,1.609-.644c.456.2.779.7,1.152,1.063" transform="translate(48.622 3.447)" fill="#7b65d8"/>
          <path id="Trazado_161888" data-name="Trazado 161888" d="M871.125,101.043h13.107a4.207,4.207,0,0,1,.774.021,1.369,1.369,0,0,1,0,2.715,4.208,4.208,0,0,1-.774.022H857.843a4.3,4.3,0,0,1-.774-.022,1.369,1.369,0,0,1,0-2.715,4.305,4.305,0,0,1,.774-.021h13.28" transform="translate(45.75 5.401)" fill="#7b65d8"/>
          <path id="Trazado_161889" data-name="Trazado 161889" d="M868.24,109.041c-3.535,0-7.071.012-10.606-.016a1.879,1.879,0,0,1-1.259-.366,1.691,1.691,0,0,1-.4-1.357c.114-.4.65-.713,1.057-.98.184-.12.5-.04.763-.04h20.954c.172,0,.344-.007.517,0a1.388,1.388,0,0,1,1.425,1.411,1.367,1.367,0,0,1-1.41,1.336c-1.033.031-2.069.009-3.1.009H868.24" transform="translate(45.754 5.68)" fill="#7b65d8"/>
          <path id="Trazado_161890" data-name="Trazado 161890" d="M887.428,48.757a1.373,1.373,0,1,1-1.344-1.4,1.39,1.39,0,0,1,1.344,1.4" transform="translate(47.29 2.531)" fill="#7b65d8"/>
          <path id="Trazado_161891" data-name="Trazado 161891" d="M897.907,48.752a1.373,1.373,0,1,1-1.349-1.4,1.389,1.389,0,0,1,1.349,1.4" transform="translate(47.85 2.531)" fill="#7b65d8"/>
        </g>
      </g>
    </g>
    <circle id="Elipse_8403" data-name="Elipse 8403" cx="12.5" cy="12.5" r="12.5" transform="translate(180 7229)" fill="#7b65d8"/>
    <circle id="Elipse_8404" data-name="Elipse 8404" cx="12.5" cy="12.5" r="12.5" transform="translate(390 7002)" fill="#7b65d8"/>
    <circle id="Elipse_8405" data-name="Elipse 8405" cx="12.5" cy="12.5" r="12.5" transform="translate(612 7229)" fill="#7b65d8"/>
    <circle id="Elipse_8406" data-name="Elipse 8406" cx="12.5" cy="12.5" r="12.5" transform="translate(828 7002)" fill="#7b65d8"/>
    <circle id="Elipse_8407" data-name="Elipse 8407" cx="12.5" cy="12.5" r="12.5" transform="translate(1017 7234)" fill="#7b65d8"/>
    <circle id="Elipse_8408" data-name="Elipse 8408" cx="12.5" cy="12.5" r="12.5" transform="translate(1230 7002)" fill="#7b65d8"/>
  </g>
</svg>
