<svg id="Grupo_90307" data-name="Grupo 90307" xmlns="http://www.w3.org/2000/svg" xmlns:xlink="http://www.w3.org/1999/xlink" width="140.049" height="152.015" viewBox="0 0 140.049 152.015">
  <defs>
    <clipPath id="clip-path">
      <rect id="Rect치ngulo_11521" data-name="Rect치ngulo 11521" width="140.049" height="152.015" fill="none"/>
    </clipPath>
    <clipPath id="clip-path-2">
      <path id="Trazado_162102" data-name="Trazado 162102" d="M150.941,0,124.268,11.975l-1.787,38.988,28.357,16.491L179.431,51.16l-6.334-39.9Z" transform="translate(-122.481)" fill="none"/>
    </clipPath>
    <clipPath id="clip-path-4">
      <rect id="Rect치ngulo_11519" data-name="Rect치ngulo 11519" width="1.444" height="3.064" fill="none"/>
    </clipPath>
  </defs>
  <g id="Grupo_90306" data-name="Grupo 90306" clip-path="url(#clip-path)">
    <path id="Trazado_162020" data-name="Trazado 162020" d="M.378,207.745l48.664,28.229L28.758,213.13,0,198.816Z" transform="translate(0 -105.32)" fill="#dadaef"/>
    <path id="Trazado_162021" data-name="Trazado 162021" d="M0,153.586l21.192,12.436-16.92,9.386,48.744,28.629,87.033-49.871L69.3,113.434Z" transform="translate(0 -60.09)" fill="#eef"/>
    <path id="Trazado_162022" data-name="Trazado 162022" d="M112.736,249.918l.252,8.069,86.781-49.557v-8.382Z" transform="translate(-59.72 -105.972)" fill="#cacae0"/>
    <path id="Trazado_162023" data-name="Trazado 162023" d="M9.035,253.3l49.019,28.616-.252-8.069L9.058,245.217Z" transform="translate(-4.786 -129.9)" fill="#dadaef"/>
    <path id="Trazado_162024" data-name="Trazado 162024" d="M175.936,87.245l2.1-43.815L218.141,67v42.472l-3.8,2.439Z" transform="translate(-93.199 -23.007)" fill="#7c7cd6"/>
    <path id="Trazado_162025" data-name="Trazado 162025" d="M172.311,91.089V48.618l40.1,23.573v42.472Z" transform="translate(-91.279 -25.754)" fill="#acace5"/>
    <path id="Trazado_162026" data-name="Trazado 162026" d="M176.491,55.915V93.831L212.667,115.1v-1.964L178.392,92.986V57.035Z" transform="translate(-93.493 -29.62)" fill="#5454ae"/>
    <path id="Trazado_162027" data-name="Trazado 162027" d="M180.534,58.3V94.247l34.274,20.147V78.442Z" transform="translate(-95.635 -30.881)" fill="#7c7cd6"/>
    <path id="Trazado_162028" data-name="Trazado 162028" d="M176.115,43.43l-3.8,2.44,40.105,23.573,3.8-2.44Z" transform="translate(-91.279 -23.006)" fill="#d3d3ef"/>
    <path id="Trazado_162029" data-name="Trazado 162029" d="M178.392,134.745l-1.9.845,36.175,21.266v-1.964Z" transform="translate(-93.493 -71.379)" fill="#6666c4"/>
    <path id="Trazado_162030" data-name="Trazado 162030" d="M213.8,108.8l-.033,23.852-30.777,17.7.033-23.852Z" transform="translate(-96.934 -57.633)" fill="#5454ae"/>
    <path id="Trazado_162031" data-name="Trazado 162031" d="M148.328,126.262l-.033,23.852-30.8-17.9.033-23.852Z" transform="translate(-62.242 -57.403)" fill="#7c7cd6"/>
    <path id="Trazado_162032" data-name="Trazado 162032" d="M179.141,88.633l-30.777,17.7-30.8-17.9,30.777-17.7Z" transform="translate(-62.28 -37.47)" fill="#b1b1e5"/>
    <path id="Trazado_162033" data-name="Trazado 162033" d="M122.481,89.939l14.237,8.274,14.222-8.176,14.253,8.286,14.237-8.187L150.941,73.576Z" transform="translate(-64.882 -38.976)" fill="#7c7cd6"/>
    <path id="Trazado_162034" data-name="Trazado 162034" d="M152.757,116.755l14.253,8.286,14.222-8.176-14.253-8.286Z" transform="translate(-80.92 -57.518)" fill="#5454ae"/>
    <path id="Trazado_162035" data-name="Trazado 162035" d="M183,73.576V90.037l14.253,8.286,14.238-8.187Z" transform="translate(-96.941 -38.976)" fill="#7171c6"/>
    <path id="Trazado_162036" data-name="Trazado 162036" d="M160.539,154.775l-.022,5.068-1.419.813.021-5.068Z" transform="translate(-84.28 -81.99)" fill="#5454ae"/>
    <path id="Trazado_162037" data-name="Trazado 162037" d="M143.835,147.738l-.022,5.068-13.569-7.782.022-5.068Z" transform="translate(-68.995 -74.14)" fill="#9a9adb"/>
    <path id="Trazado_162038" data-name="Trazado 162038" d="M145.278,146.009l-1.419.813L130.29,139.04l1.419-.813Z" transform="translate(-69.019 -73.224)" fill="#b1b1e5"/>
    <path id="Trazado_162039" data-name="Trazado 162039" d="M171.622,4.906V49.835l19.066,12.249,9.662-5.507V21.454l-.013-.082L172.021,4.727Z" transform="translate(-90.914 -2.504)" fill="#7c7cd6"/>
    <path id="Trazado_162040" data-name="Trazado 162040" d="M169.025,6.188V51.354l19.888,11.691,8.84-5.038V22.9L169.2,6.112Z" transform="translate(-89.539 -3.238)" fill="#eef"/>
    <path id="Trazado_162041" data-name="Trazado 162041" d="M171.935,53.152l19.891,11.692,6.1-3.477V26.262L171.935,10.984Z" transform="translate(-91.08 -5.819)" fill="#fff"/>
    <path id="Trazado_162042" data-name="Trazado 162042" d="M175.366,27.654l22.765,13.381v-.83L175.366,26.825Z" transform="translate(-92.897 -14.21)" fill="#eef"/>
    <path id="Trazado_162043" data-name="Trazado 162043" d="M175.366,88.032l22.765,13.381v-.83L175.366,87.2Z" transform="translate(-92.897 -46.194)" fill="#eef"/>
    <path id="Trazado_162044" data-name="Trazado 162044" d="M175.61,45.831,187.2,52.642V41.88L175.61,35.068Z" transform="translate(-93.027 -18.577)" fill="#f9bb41"/>
    <g id="Grupo_90300" data-name="Grupo 90300" transform="translate(57.599)">
      <g id="Grupo_90299" data-name="Grupo 90299" clip-path="url(#clip-path-2)">
        <path id="Trazado_162045" data-name="Trazado 162045" d="M212.379,59.167l-7.213-4.286a1.043,1.043,0,0,1-.49-.782c0-.27.221-.359.49-.2l7.213,4.285a1.044,1.044,0,0,1,.49.782c0,.269-.221.359-.49.2" transform="translate(-166.022 -28.511)" fill="#f9bb41"/>
        <path id="Trazado_162046" data-name="Trazado 162046" d="M212.379,64.427l-7.213-4.286a1.044,1.044,0,0,1-.49-.782c0-.27.221-.359.49-.2l7.213,4.285a1.044,1.044,0,0,1,.49.782c0,.269-.221.359-.49.2" transform="translate(-166.022 -31.298)" fill="#c6c6ed"/>
        <path id="Trazado_162047" data-name="Trazado 162047" d="M212.379,69.687,205.165,65.4a1.043,1.043,0,0,1-.49-.782c0-.27.221-.359.49-.2l7.213,4.285a1.044,1.044,0,0,1,.49.782c0,.269-.221.359-.49.2" transform="translate(-166.022 -34.084)" fill="#c6c6ed"/>
        <path id="Trazado_162048" data-name="Trazado 162048" d="M212.379,74.947l-7.213-4.286a1.042,1.042,0,0,1-.49-.782c0-.27.221-.359.49-.2l7.213,4.285a1.044,1.044,0,0,1,.49.783c0,.269-.221.359-.49.2" transform="translate(-166.022 -36.87)" fill="#c6c6ed"/>
        <path id="Trazado_162049" data-name="Trazado 162049" d="M183.313,71.838,176.1,67.553a1.042,1.042,0,0,1-.49-.782c0-.27.221-.359.49-.2l7.213,4.285a1.042,1.042,0,0,1,.49.782c0,.269-.221.359-.49.2" transform="translate(-150.625 -35.223)" fill="#f9bb41"/>
        <path id="Trazado_162050" data-name="Trazado 162050" d="M183.313,77.1,176.1,72.813a1.042,1.042,0,0,1-.49-.782c0-.27.221-.359.49-.2l7.213,4.285a1.042,1.042,0,0,1,.49.782c0,.269-.221.359-.49.2" transform="translate(-150.625 -38.01)" fill="#c6c6ed"/>
        <path id="Trazado_162051" data-name="Trazado 162051" d="M183.313,82.357,176.1,78.072a1.042,1.042,0,0,1-.49-.782c0-.27.221-.359.49-.2l7.213,4.285a1.042,1.042,0,0,1,.49.782c0,.269-.221.359-.49.2" transform="translate(-150.625 -40.796)" fill="#c6c6ed"/>
        <path id="Trazado_162052" data-name="Trazado 162052" d="M183.313,87.617,176.1,83.332a1.042,1.042,0,0,1-.49-.782c0-.27.221-.359.49-.2l7.213,4.285a1.042,1.042,0,0,1,.49.782c0,.269-.221.359-.49.2" transform="translate(-150.625 -43.582)" fill="#c6c6ed"/>
        <path id="Trazado_162053" data-name="Trazado 162053" d="M209.87,87.617l-7.213-4.286a1.042,1.042,0,0,1-.49-.782c0-.27.221-.359.49-.2l7.213,4.285a1.043,1.043,0,0,1,.49.782c0,.269-.221.359-.49.2" transform="translate(-164.693 -43.582)" fill="#f9bb41"/>
        <path id="Trazado_162054" data-name="Trazado 162054" d="M209.87,92.877l-7.213-4.286a1.042,1.042,0,0,1-.49-.782c0-.27.221-.359.49-.2L209.87,91.9a1.043,1.043,0,0,1,.49.782c0,.269-.221.359-.49.2" transform="translate(-164.693 -46.368)" fill="#c6c6ed"/>
        <path id="Trazado_162055" data-name="Trazado 162055" d="M209.87,98.136l-7.213-4.286a1.042,1.042,0,0,1-.49-.782c0-.27.221-.359.49-.2l7.213,4.285a1.043,1.043,0,0,1,.49.782c0,.269-.221.359-.49.2" transform="translate(-164.693 -49.154)" fill="#c6c6ed"/>
        <path id="Trazado_162056" data-name="Trazado 162056" d="M209.87,103.4l-7.213-4.286a1.042,1.042,0,0,1-.49-.782c0-.27.221-.359.49-.2l7.213,4.285a1.043,1.043,0,0,1,.49.782c0,.269-.221.359-.49.2" transform="translate(-164.693 -51.941)" fill="#c6c6ed"/>
        <path id="Trazado_162057" data-name="Trazado 162057" d="M195.634,107.29,188.421,103a1.042,1.042,0,0,1-.49-.782c0-.27.221-.359.49-.2l7.213,4.285a1.042,1.042,0,0,1,.49.782c0,.269-.221.359-.49.2" transform="translate(-157.152 -54.004)" fill="#c6c6ed"/>
        <path id="Trazado_162058" data-name="Trazado 162058" d="M197.819,34.334,185.3,26.893a1.811,1.811,0,0,1-.851-1.357c0-.468.383-.624.851-.346l12.524,7.441a1.809,1.809,0,0,1,.852,1.357c0,.468-.383.624-.852.346" transform="translate(-155.305 -13.271)" fill="#f9bb41"/>
        <path id="Trazado_162059" data-name="Trazado 162059" d="M170.246,4.229l-1.221.785L197.754,21.9l1.221-.785Z" transform="translate(-147.137 -2.24)" fill="#b1b1e5"/>
        <path id="Trazado_162060" data-name="Trazado 162060" d="M153.739,65.666V20.324l28.729,16.886V82.553l-1.221.785Z" transform="translate(-139.039 -10.766)" fill="#7c7cd6"/>
        <path id="Trazado_162061" data-name="Trazado 162061" d="M151.143,67.336V21.994l28.729,16.886V84.223Z" transform="translate(-137.664 -11.651)" fill="#eef"/>
        <path id="Trazado_162062" data-name="Trazado 162062" d="M180.044,84.525V42.358L154.053,27.08V69.247Z" transform="translate(-139.206 -14.345)" fill="#fff"/>
        <path id="Trazado_162063" data-name="Trazado 162063" d="M157.483,42.919,180.248,56.3v.83L157.483,43.749Z" transform="translate(-141.023 -22.736)" fill="#eef"/>
        <path id="Trazado_162064" data-name="Trazado 162064" d="M157.483,103.3l22.765,13.381v.83l-22.765-13.381Z" transform="translate(-141.023 -54.72)" fill="#eef"/>
        <path id="Trazado_162065" data-name="Trazado 162065" d="M169.316,68.737V57.975l-11.588-6.812V61.926Z" transform="translate(-141.152 -27.103)" fill="#f9bb41"/>
        <path id="Trazado_162066" data-name="Trazado 162066" d="M194.5,75.263l-7.213-4.286a1.042,1.042,0,0,1-.49-.782c0-.27.221-.359.49-.2l7.213,4.285a1.042,1.042,0,0,1,.49.782c0,.269-.221.359-.49.2" transform="translate(-156.549 -37.038)" fill="#f07554"/>
        <path id="Trazado_162067" data-name="Trazado 162067" d="M194.5,80.522l-7.213-4.286a1.042,1.042,0,0,1-.49-.782c0-.27.221-.359.49-.2l7.213,4.285a1.042,1.042,0,0,1,.49.782c0,.269-.221.359-.49.2" transform="translate(-156.549 -39.824)" fill="#c6c6ed"/>
        <path id="Trazado_162068" data-name="Trazado 162068" d="M194.5,85.782,187.283,81.5a1.042,1.042,0,0,1-.49-.782c0-.27.221-.359.49-.2L194.5,84.8a1.042,1.042,0,0,1,.49.782c0,.269-.221.359-.49.2" transform="translate(-156.549 -42.61)" fill="#c6c6ed"/>
        <path id="Trazado_162069" data-name="Trazado 162069" d="M194.5,91.042l-7.213-4.286a1.042,1.042,0,0,1-.49-.782c0-.27.221-.359.49-.2l7.213,4.285a1.042,1.042,0,0,1,.49.782c0,.269-.221.359-.49.2" transform="translate(-156.549 -45.396)" fill="#c6c6ed"/>
        <path id="Trazado_162070" data-name="Trazado 162070" d="M165.43,87.933l-7.213-4.286a1.042,1.042,0,0,1-.49-.782c0-.27.221-.359.49-.2l7.213,4.285a1.042,1.042,0,0,1,.49.782c0,.269-.221.359-.49.2" transform="translate(-141.152 -43.749)" fill="#f9bb41"/>
        <path id="Trazado_162071" data-name="Trazado 162071" d="M165.43,93.193l-7.213-4.286a1.042,1.042,0,0,1-.49-.782c0-.27.221-.359.49-.2l7.213,4.285a1.042,1.042,0,0,1,.49.782c0,.269-.221.359-.49.2" transform="translate(-141.152 -46.536)" fill="#c6c6ed"/>
        <path id="Trazado_162072" data-name="Trazado 162072" d="M165.43,98.453l-7.213-4.286a1.042,1.042,0,0,1-.49-.782c0-.27.221-.359.49-.2l7.213,4.285a1.042,1.042,0,0,1,.49.782c0,.269-.221.359-.49.2" transform="translate(-141.152 -49.322)" fill="#c6c6ed"/>
        <path id="Trazado_162073" data-name="Trazado 162073" d="M165.43,103.712l-7.213-4.286a1.042,1.042,0,0,1-.49-.782c0-.27.221-.359.49-.2l7.213,4.285a1.042,1.042,0,0,1,.49.782c0,.269-.221.359-.49.2" transform="translate(-141.152 -52.108)" fill="#c6c6ed"/>
        <path id="Trazado_162074" data-name="Trazado 162074" d="M191.987,103.712l-7.213-4.286a1.042,1.042,0,0,1-.49-.782c0-.27.221-.359.49-.2l7.213,4.285a1.042,1.042,0,0,1,.49.782c0,.269-.221.359-.49.2" transform="translate(-155.22 -52.108)" fill="#f9bb41"/>
        <path id="Trazado_162075" data-name="Trazado 162075" d="M191.987,108.972l-7.213-4.286a1.042,1.042,0,0,1-.49-.782c0-.27.221-.359.49-.2l7.213,4.285a1.042,1.042,0,0,1,.49.782c0,.269-.221.359-.49.2" transform="translate(-155.22 -54.895)" fill="#c6c6ed"/>
        <path id="Trazado_162076" data-name="Trazado 162076" d="M191.987,114.232l-7.213-4.286a1.042,1.042,0,0,1-.49-.782c0-.27.221-.359.49-.2l7.213,4.285a1.042,1.042,0,0,1,.49.782c0,.269-.221.359-.49.2" transform="translate(-155.22 -57.681)" fill="#c6c6ed"/>
        <path id="Trazado_162077" data-name="Trazado 162077" d="M191.987,119.491l-7.213-4.286a1.042,1.042,0,0,1-.49-.782c0-.27.221-.359.49-.2l7.213,4.285a1.042,1.042,0,0,1,.49.782c0,.269-.221.359-.49.2" transform="translate(-155.22 -60.467)" fill="#c6c6ed"/>
        <path id="Trazado_162078" data-name="Trazado 162078" d="M177.751,123.385l-7.213-4.286a1.042,1.042,0,0,1-.49-.782c0-.27.221-.359.49-.2l7.213,4.285a1.042,1.042,0,0,1,.49.782c0,.269-.221.359-.49.2" transform="translate(-147.679 -62.53)" fill="#c6c6ed"/>
        <path id="Trazado_162079" data-name="Trazado 162079" d="M152.364,20.324l-1.221.785L179.871,38l1.221-.785Z" transform="translate(-137.664 -10.766)" fill="#b1b1e5"/>
        <path id="Trazado_162080" data-name="Trazado 162080" d="M180.044,42.357,154.053,27.079v5.064l25.992,15.278Z" transform="translate(-139.206 -14.345)" fill="#f07554"/>
        <path id="Trazado_162081" data-name="Trazado 162081" d="M135.856,104.542V59.2l28.729,16.886v45.343l-1.221.785Z" transform="translate(-129.566 -31.36)" fill="#7c7cd6"/>
        <path id="Trazado_162082" data-name="Trazado 162082" d="M133.26,106.212V60.87l28.729,16.886V123.1Z" transform="translate(-128.191 -32.245)" fill="#eef"/>
        <path id="Trazado_162083" data-name="Trazado 162083" d="M162.162,123.4V81.234L136.17,65.956v42.168Z" transform="translate(-129.733 -34.939)" fill="#fff"/>
        <path id="Trazado_162084" data-name="Trazado 162084" d="M139.6,81.8l22.765,13.381v.83L139.6,82.625Z" transform="translate(-131.55 -43.33)" fill="#eef"/>
        <path id="Trazado_162085" data-name="Trazado 162085" d="M139.6,142.173l22.765,13.381v.83L139.6,143Z" transform="translate(-131.55 -75.314)" fill="#eef"/>
        <path id="Trazado_162086" data-name="Trazado 162086" d="M151.433,107.614V96.851l-11.588-6.812V100.8Z" transform="translate(-131.679 -47.697)" fill="#f9bb41"/>
        <path id="Trazado_162087" data-name="Trazado 162087" d="M176.613,114.139l-7.213-4.286a1.042,1.042,0,0,1-.49-.782c0-.27.221-.359.49-.2l7.213,4.286a1.042,1.042,0,0,1,.49.782c0,.269-.221.359-.49.2" transform="translate(-147.076 -57.632)" fill="#f9bb41"/>
        <path id="Trazado_162088" data-name="Trazado 162088" d="M176.613,119.4l-7.213-4.286a1.042,1.042,0,0,1-.49-.782c0-.27.221-.359.49-.2l7.213,4.285a1.042,1.042,0,0,1,.49.782c0,.269-.221.359-.49.2" transform="translate(-147.076 -60.418)" fill="#c6c6ed"/>
        <path id="Trazado_162089" data-name="Trazado 162089" d="M176.613,124.658l-7.213-4.286a1.042,1.042,0,0,1-.49-.782c0-.27.221-.359.49-.2l7.213,4.285a1.042,1.042,0,0,1,.49.782c0,.269-.221.359-.49.2" transform="translate(-147.076 -63.204)" fill="#c6c6ed"/>
        <path id="Trazado_162090" data-name="Trazado 162090" d="M176.613,129.918l-7.213-4.286a1.042,1.042,0,0,1-.49-.782c0-.27.221-.359.49-.2l7.213,4.285a1.042,1.042,0,0,1,.49.782c0,.269-.221.359-.49.2" transform="translate(-147.076 -65.99)" fill="#c6c6ed"/>
        <path id="Trazado_162091" data-name="Trazado 162091" d="M147.548,126.809l-7.213-4.286a1.042,1.042,0,0,1-.49-.782c0-.27.221-.359.49-.2l7.213,4.285a1.042,1.042,0,0,1,.49.782c0,.269-.221.359-.49.2" transform="translate(-131.679 -64.343)" fill="#f9bb41"/>
        <path id="Trazado_162092" data-name="Trazado 162092" d="M147.548,132.069l-7.213-4.286a1.042,1.042,0,0,1-.49-.782c0-.27.221-.359.49-.2l7.213,4.285a1.042,1.042,0,0,1,.49.782c0,.269-.221.359-.49.2" transform="translate(-131.679 -67.13)" fill="#c6c6ed"/>
        <path id="Trazado_162093" data-name="Trazado 162093" d="M147.548,137.329l-7.213-4.286a1.042,1.042,0,0,1-.49-.782c0-.27.221-.359.49-.2l7.213,4.285a1.042,1.042,0,0,1,.49.782c0,.269-.221.359-.49.2" transform="translate(-131.679 -69.916)" fill="#c6c6ed"/>
        <path id="Trazado_162094" data-name="Trazado 162094" d="M147.548,142.588l-7.213-4.286a1.042,1.042,0,0,1-.49-.782c0-.27.221-.359.49-.2l7.213,4.285a1.042,1.042,0,0,1,.49.782c0,.269-.221.359-.49.2" transform="translate(-131.679 -72.702)" fill="#c6c6ed"/>
        <path id="Trazado_162095" data-name="Trazado 162095" d="M174.1,142.588l-7.213-4.286a1.042,1.042,0,0,1-.49-.782c0-.27.221-.359.49-.2l7.213,4.285a1.042,1.042,0,0,1,.49.782c0,.269-.221.359-.49.2" transform="translate(-145.747 -72.702)" fill="#f9bb41"/>
        <path id="Trazado_162096" data-name="Trazado 162096" d="M174.1,147.848l-7.213-4.286a1.042,1.042,0,0,1-.49-.782c0-.27.221-.359.49-.2l7.213,4.285a1.042,1.042,0,0,1,.49.782c0,.269-.221.359-.49.2" transform="translate(-145.747 -75.488)" fill="#c6c6ed"/>
        <path id="Trazado_162097" data-name="Trazado 162097" d="M174.1,153.108l-7.213-4.286a1.042,1.042,0,0,1-.49-.782c0-.27.221-.359.49-.2l7.213,4.285a1.042,1.042,0,0,1,.49.782c0,.269-.221.359-.49.2" transform="translate(-145.747 -78.275)" fill="#c6c6ed"/>
        <path id="Trazado_162098" data-name="Trazado 162098" d="M174.1,158.367l-7.213-4.286a1.042,1.042,0,0,1-.49-.782c0-.27.221-.359.49-.2l7.213,4.285a1.042,1.042,0,0,1,.49.782c0,.269-.221.359-.49.2" transform="translate(-145.747 -81.061)" fill="#c6c6ed"/>
        <path id="Trazado_162099" data-name="Trazado 162099" d="M159.869,162.261l-7.213-4.286a1.042,1.042,0,0,1-.49-.782c0-.27.221-.359.49-.2l7.213,4.285a1.042,1.042,0,0,1,.49.782c0,.269-.221.359-.49.2" transform="translate(-138.206 -83.124)" fill="#c6c6ed"/>
        <path id="Trazado_162100" data-name="Trazado 162100" d="M162.054,89.3,149.53,81.864a1.81,1.81,0,0,1-.851-1.357c0-.468.383-.624.851-.346L162.054,87.6a1.809,1.809,0,0,1,.852,1.357c0,.468-.383.624-.852.346" transform="translate(-136.359 -42.391)" fill="#f9bb41"/>
        <path id="Trazado_162101" data-name="Trazado 162101" d="M134.481,59.2l-1.221.785,28.729,16.887,1.221-.785Z" transform="translate(-128.191 -31.36)" fill="#b1b1e5"/>
      </g>
    </g>
    <g id="Grupo_90305" data-name="Grupo 90305">
      <g id="Grupo_90304" data-name="Grupo 90304" clip-path="url(#clip-path)">
        <path id="Trazado_162103" data-name="Trazado 162103" d="M133.988,149.857c-.029.017-.055.035-.081.052s-.054.035-.079.053-.04.031-.06.047-.046.037-.067.055-.024.023-.036.035c-.033.032-.064.065-.092.1l-.034.043c-.019.025-.035.05-.051.076s-.02.032-.029.048-.022.045-.032.067-.016.035-.022.053-.013.043-.019.065-.01.037-.014.055a.655.655,0,0,0-.008.068c0,.021-.005.042-.005.063l0-1.442v-.019c0-.015,0-.029.005-.044a.685.685,0,0,1,.008-.068v-.011c0-.015.009-.029.013-.044s.011-.043.018-.064c0,0,0-.009,0-.013s.013-.026.019-.04a.667.667,0,0,1,.032-.067c0-.005,0-.011.008-.016s.015-.021.021-.032.032-.05.051-.075c.006-.008.009-.015.015-.022s.014-.014.02-.022a1.188,1.188,0,0,1,.092-.1c.008-.008.014-.016.023-.024l.013-.011c.021-.019.044-.037.067-.055s.039-.032.06-.048.051-.035.078-.052.036-.025.056-.037l.026-.016,1.328-.794,0,1.442Z" transform="translate(-70.645 -78.199)" fill="#5454ae"/>
        <path id="Trazado_162104" data-name="Trazado 162104" d="M129.706,151.127a1.716,1.716,0,0,0,1.013,1.415l4.037,2.3c.081.047.165.09.252.131l.09.039c.056.025.114.05.172.073.119.047.242.087.368.124l.118.032c.07.018.141.036.213.052l.143.029c.06.011.12.022.182.031l.153.022.172.019.158.013.174.009.157,0c.063,0,.125,0,.188,0l.149,0c.078,0,.155-.009.232-.016l.121-.01c.132-.014.262-.032.39-.055.043-.008.086-.017.129-.026.063-.013.128-.026.19-.041.045-.011.089-.024.134-.036s.119-.032.177-.05c.033-.01.066-.023.1-.034q.138-.047.269-.1l.1-.042c.111-.051.221-.1.324-.164l1.535-.915,0,1.442-1.535.915a3.472,3.472,0,0,1-.324.164l-.1.042c-.088.037-.178.071-.269.1-.021.007-.04.016-.061.023l-.038.011c-.057.018-.117.034-.176.05s-.089.025-.135.037c-.062.015-.126.028-.19.04-.037.008-.073.017-.111.023l-.019,0c-.128.023-.259.04-.39.054l-.029,0-.093.006c-.077.007-.154.012-.232.016l-.055,0h-.094c-.063,0-.125,0-.188,0h-.07c-.029,0-.058,0-.087,0-.058,0-.116-.005-.174-.009l-.077,0-.082-.009-.171-.019-.081-.009-.073-.013c-.061-.009-.121-.02-.182-.031l-.085-.015-.057-.014c-.072-.016-.143-.033-.214-.052-.029-.008-.059-.013-.087-.022l-.03-.01c-.126-.037-.249-.078-.368-.124l-.019-.007c-.053-.021-.1-.045-.155-.067-.029-.013-.059-.025-.088-.039-.087-.041-.171-.085-.252-.132l-4.037-2.3a1.718,1.718,0,0,1-1.013-1.415Z" transform="translate(-68.708 -80.057)" fill="#5454ae"/>
        <path id="Trazado_162105" data-name="Trazado 162105" d="M141.146,151.329l-1.535.915a5.342,5.342,0,0,1-4.851,0l-4.037-2.3c-1.344-.776-1.352-2.034-.016-2.81l1.535-.915,1.144.66-1.329.795a.934.934,0,0,0,.008,1.767l3.556,2.026a3.361,3.361,0,0,0,3.051,0l1.328-.795Z" transform="translate(-68.712 -77.455)" fill="#b1b1e5"/>
        <path id="Trazado_162106" data-name="Trazado 162106" d="M199.756,224.507c8.093,5.684-8.128,14.424-15.283,9.586s9.584-13.589,15.283-9.586" transform="translate(-96.795 -118.389)" fill="#cacae0"/>
        <path id="Trazado_162107" data-name="Trazado 162107" d="M62.038,229.8c8.093,5.684-8.128,14.423-15.283,9.586s9.584-13.589,15.283-9.586" transform="translate(-23.841 -121.191)" fill="#cacae0"/>
        <path id="Trazado_162108" data-name="Trazado 162108" d="M67.916,138.6s-1.372.725-.659,3.658,3.7,8.875,5.434,9.545,3.742-1.188,2.233-4.166-3.5-7.9-4.871-8.722-2.136-.315-2.136-.315" transform="translate(-35.52 -73.342)" fill="#6e59d3"/>
        <path id="Trazado_162109" data-name="Trazado 162109" d="M77.819,158.466s5.261-.422,7.9-.376,2.965.239,3.072,1.288-2.722,1.471-4.584,1.956-6.009,1.976-7.291.585a2.051,2.051,0,0,1,.9-3.454" transform="translate(-40.422 -83.744)" fill="#6e59d3"/>
        <path id="Trazado_162110" data-name="Trazado 162110" d="M64.019,201.348a2.213,2.213,0,0,1,2.364-1.94c2.141.067,1.94,3.032,1.315,8.406s-.557,7.8-1.137,8.986c-.4.821-1.94.624-2.029-.29s-.625-14.092-.513-15.162" transform="translate(-33.905 -105.633)" fill="#422b9f"/>
        <path id="Trazado_162111" data-name="Trazado 162111" d="M64.42,233.643a1.77,1.77,0,0,0,2.446.041,23.211,23.211,0,0,0,2.191,1.23c1.019.5,2.276.877,2.3,1.583.045,1.538-6.421.357-7.157-.045s.223-2.809.223-2.809" transform="translate(-33.86 -123.769)"/>
        <path id="Trazado_162112" data-name="Trazado 162112" d="M53.057,209.114a2.213,2.213,0,0,1,2.385-1.913c2.14.091,1.906,3.054,1.221,8.42s-.645,7.8-1.238,8.973c-.412.816-1.947.6-2.026-.313s-.466-14.1-.342-15.167" transform="translate(-28.093 -109.76)" fill="#422b9f"/>
        <path id="Trazado_162113" data-name="Trazado 162113" d="M53.1,241.388a1.77,1.77,0,0,0,2.446.069,23.121,23.121,0,0,0,2.177,1.254c1.013.508,2.266.9,2.278,1.609.027,1.539-6.425.284-7.156-.126s.254-2.807.254-2.807" transform="translate(-27.852 -127.872)"/>
        <path id="Trazado_162114" data-name="Trazado 162114" d="M64.076,175.111s.022,10.15-.045,11.941.731,3.631,3.1,2.872c1.471-.472,1.159-2.7,1.315-4.977s.758-10.976.758-10.976-4.259-4.19-5.128,1.141" transform="translate(-33.918 -91.329)" fill="#422b9f"/>
        <path id="Trazado_162115" data-name="Trazado 162115" d="M52.981,182.081s.022,10.15-.045,11.941.732,3.631,3.1,2.872c1.471-.472,1.159-2.7,1.315-4.977s.758-10.976.758-10.976-4.259-4.19-5.128,1.141" transform="translate(-28.04 -95.021)" fill="#422b9f"/>
        <path id="Trazado_162116" data-name="Trazado 162116" d="M51.6,142.1c2.029-1.315,2.854-2.141,4.66-2.609s3.768-1.093,4.415-.8,1.628,1.182,2.1,7.581.959,9.989.625,10.7-3.345,6.444-12.464,3.434c0,0-.268-13.178-.424-15.274A3.47,3.47,0,0,1,51.6,142.1" transform="translate(-26.749 -73.427)" fill="#8969f2"/>
        <path id="Trazado_162117" data-name="Trazado 162117" d="M64.426,135.623l-.139,1.485-.155,1.655c0,.031-.007.062-.012.091a1.15,1.15,0,0,1-2.278-.305l.293-3.139a1.151,1.151,0,0,1,1.252-1.038h0a1.151,1.151,0,0,1,1.038,1.252" transform="translate(-32.757 -71.178)" fill="#fd5c54"/>
        <path id="Trazado_162118" data-name="Trazado 162118" d="M47.485,146.193s-1.471-.49-3.1,2.051-3.857,8.807-3.144,10.524,3.445,1.884,4.554-1.265,3.295-7.988,2.938-9.549-1.249-1.762-1.249-1.762" transform="translate(-21.775 -77.423)" fill="#6e59d3"/>
        <path id="Trazado_162119" data-name="Trazado 162119" d="M45.113,169.168s.082,5.278-.134,7.907-.43,2.944-1.484,2.983-1.292-2.811-1.657-4.7-1.584-6.124-.114-7.314a2.052,2.052,0,0,1,3.388,1.123" transform="translate(-21.728 -88.745)" fill="#6e59d3"/>
        <path id="Trazado_162120" data-name="Trazado 162120" d="M100.495,157.189c-.522.2-.6,1.752.243,2.12s4.433.514,4.882-.016-.5-2.018-3.1-2.123c0,0,1.486-.409.959-.937-.254-.255-1.325.3-2.987.955" transform="translate(-53.027 -82.729)" fill="#fd5c54"/>
        <path id="Trazado_162121" data-name="Trazado 162121" d="M45.955,191.945c-.18-.531-1.722-.685-2.129.143s-.721,4.4-.213,4.877,2.04-.4,2.266-2.993c0,0,.338,1.5.891,1,.267-.242-.242-1.338-.814-3.029" transform="translate(-22.964 -101.448)" fill="#fd5c54"/>
        <g id="Grupo_90303" data-name="Grupo 90303" transform="translate(30.063 64.383)" opacity="0.25">
          <g id="Grupo_90302" data-name="Grupo 90302">
            <g id="Grupo_90301" data-name="Grupo 90301" clip-path="url(#clip-path-4)">
              <path id="Trazado_162122" data-name="Trazado 162122" d="M65.372,137.805l-.192,2.053c0,.038-.008.076-.015.113-.269-.3-1.637-1.912-1.123-2.828.329-.588.9.034,1.33.662" transform="translate(-63.927 -136.908)"/>
            </g>
          </g>
        </g>
        <path id="Trazado_162123" data-name="Trazado 162123" d="M66.694,129.55c.558,1.828-.021,3.624-1.293,4.013s-2.756-.778-3.314-2.606.021-3.624,1.294-4.013,2.756.778,3.314,2.606" transform="translate(-32.777 -67.207)" fill="#fd5c54"/>
        <path id="Trazado_162124" data-name="Trazado 162124" d="M59.331,128.687s1.1-.87.17-2.631c0,0,4.231.947,4.569-1.93s-1.892-3.169-2.873-2.238c-1,.954-2.306-.221-4.2,2.013-1.321,1.555-.728,6.68,2.255,6.02,0,0,.395-.211.082-1.234" transform="translate(-29.839 -64.317)" fill="#422b9d"/>
        <path id="Trazado_162125" data-name="Trazado 162125" d="M61.694,135.932a.847.847,0,1,1-1.36-.079.986.986,0,0,1,1.36.079" transform="translate(-31.884 -71.841)" fill="#fd5c54"/>
        <path id="Trazado_162126" data-name="Trazado 162126" d="M205.379,229.775s-3.7-1.266-4.177.012,3.436,2.851,4.288,2.735,1.313-.378,1.118-1.174a6.509,6.509,0,0,0-1.038-1.864Z" transform="translate(-106.562 -121.423)"/>
        <path id="Trazado_162127" data-name="Trazado 162127" d="M196.869,208.876a2,2,0,0,0-2.155-1.729c-1.934.082-1.722,2.76-1.1,7.609s.583,7.046,1.119,8.108c.372.738,1.759.545,1.831-.283s.42-12.74.309-13.706" transform="translate(-102.331 -109.731)" fill="#422b9f"/>
        <path id="Trazado_162128" data-name="Trazado 162128" d="M192.821,238.017a1.6,1.6,0,0,1-2.164-.456,20.945,20.945,0,0,1-2.178.642c-1,.233-2.182.315-2.342.933-.349,1.347,5.585,1.607,6.315,1.4s.369-2.52.369-2.52" transform="translate(-98.596 -125.844)"/>
        <path id="Trazado_162129" data-name="Trazado 162129" d="M196.977,184.375s-1.144,9.213-1.083,10.831-.661,3.282-2.8,2.6c-1.33-.427-1.048-2.436-1.189-4.5s-.685-9.919-.685-9.919,4.972-3.827,5.757.991" transform="translate(-101.296 -96.382)" fill="#422b9f"/>
        <path id="Trazado_162130" data-name="Trazado 162130" d="M208.832,201.4a2,2,0,0,0-2.155-1.729c-1.934.082-1.722,2.76-1.1,7.609s.583,7.046,1.119,8.108c.372.738,1.759.545,1.831-.283s.42-12.74.309-13.706" transform="translate(-108.668 -105.773)" fill="#422b9f"/>
        <path id="Trazado_162131" data-name="Trazado 162131" d="M208.94,176.9s-1.144,9.213-1.083,10.831-.661,3.282-2.8,2.6c-1.33-.427-1.048-2.436-1.189-4.5s-.685-9.919-.685-9.919,4.972-3.827,5.758.991" transform="translate(-107.632 -92.424)" fill="#422b9f"/>
        <path id="Trazado_162132" data-name="Trazado 162132" d="M205.14,145.944v2.195a2.422,2.422,0,0,1-2.858.521v-2.716Z" transform="translate(-107.156 -77.312)" fill="#fd5c54"/>
        <path id="Trazado_162133" data-name="Trazado 162133" d="M204.672,135.182a3.377,3.377,0,1,1-4.6.1,3.256,3.256,0,0,1,4.6-.1" transform="translate(-105.416 -71.132)" fill="#fd5c54"/>
        <path id="Trazado_162134" data-name="Trazado 162134" d="M202.741,133.177s-1.891-.175-2.294-1.256a2.721,2.721,0,0,1,1.2-2.931c1.143-.714-.34.859,1.621.673,5.389-.51,5.738,4.957,3.331,7.319-1.425,1.4-3.513.878-4.533-.874a2.428,2.428,0,0,1,.674-2.931" transform="translate(-106.131 -68.231)" fill="#422b9f"/>
        <path id="Trazado_162135" data-name="Trazado 162135" d="M201.877,152.235s.29,1.312-2.045,2.485-7.931,2.531-9.346,1.762-1.313-3.136,1.5-3.808,7.175-2.12,8.487-1.672,1.4,1.234,1.4,1.234" transform="translate(-100.434 -79.946)" fill="#6e59d3"/>
        <path id="Trazado_162136" data-name="Trazado 162136" d="M190.824,149.18s-1.611-4.277-2.621-6.326-1.281-2.235-2.143-1.931-.148,2.675.159,4.312.67,5.436,2.233,5.926a1.776,1.776,0,0,0,2.372-1.981" transform="translate(-98.345 -74.591)" fill="#6e59d3"/>
        <path id="Trazado_162137" data-name="Trazado 162137" d="M185.213,137.62c.024.485-1.17,1.1-1.76.562s-1.98-3.318-1.722-3.86,1.771-.324,2.776,1.691c0,0-.206-1.319.4-1.09.292.11.23,1.154.307,2.7" transform="translate(-96.252 -71.019)" fill="#fd5c54"/>
        <path id="Trazado_162138" data-name="Trazado 162138" d="M203.084,156.738c-.224,5.488-.147,8.589-.516,9.161s-3.806,5.225-11.61,1.713c0,0,.111-2.616.364-5.353.3-3.219.939-6.8.977-7.77a4.034,4.034,0,0,1,1.536-2.862,13.211,13.211,0,0,1,2.3-.711c.521-.127,1.083-.257,1.672-.4a7.02,7.02,0,0,1,1.445-.183,3.982,3.982,0,0,1,2.87.875c.987.963,1.07,2.974.965,5.53" transform="translate(-101.157 -79.635)" fill="#b7e6ff"/>
        <path id="Trazado_162139" data-name="Trazado 162139" d="M190.514,153.158s1.044.845-.05,3.218-4.624,6.923-6.209,7.2-2.981-1.634-1.2-3.912,4.289-6.13,5.594-6.6,1.867.089,1.867.089" transform="translate(-96.529 -80.987)" fill="#6e59d3"/>
        <path id="Trazado_162140" data-name="Trazado 162140" d="M177.923,164.607s-3.926-2.34-5.993-3.313-2.395-.948-2.879-.174,1.552,2.183,2.812,3.273,3.913,3.833,5.44,3.242a1.776,1.776,0,0,0,.62-3.028" transform="translate(-89.513 -85.049)" fill="#6e59d3"/>
        <path id="Trazado_162141" data-name="Trazado 162141" d="M166.165,158.387c.321.364-.23,1.588-1.027,1.536s-3.617-1.36-3.753-1.945,1.183-1.357,3.225-.408c0,0-.983-.9-.368-1.1.3-.1.9.759,1.922,1.919" transform="translate(-85.487 -82.883)" fill="#fd5c54"/>
        <path id="Trazado_162142" data-name="Trazado 162142" d="M204.217,140.637c-.425-.1-.9.373-1.07,1.063s.045,1.33.47,1.433.9-.373,1.07-1.062-.045-1.331-.47-1.433" transform="translate(-107.584 -74.493)" fill="#fd5c54"/>
        <path id="Trazado_162143" data-name="Trazado 162143" d="M205.077,150.335c-.035.045-.071.088-.107.129a2.423,2.423,0,0,1-2.858.522c-.059-.025-.111-.048-.151-.068.521-.127,1.083-.257,1.672-.4a7.02,7.02,0,0,1,1.445-.183" transform="translate(-106.985 -79.638)" fill="#fd5c54"/>
      </g>
    </g>
  </g>
</svg>
