<svg id="Grupo_90359" data-name="Grupo 90359" xmlns="http://www.w3.org/2000/svg" xmlns:xlink="http://www.w3.org/1999/xlink" width="161.492" height="123.509" viewBox="0 0 161.492 123.509">
  <defs>
    <clipPath id="clip-path">
      <rect id="Rectángulo_11542" data-name="Rectángulo 11542" width="161.491" height="123.509" fill="none"/>
    </clipPath>
  </defs>
  <path id="Trazado_162227" data-name="Trazado 162227" d="M77.136,0,8.63,39.552,96.007,90l68.506-39.552Z" transform="translate(-3.022 0)" fill="#575756"/>
  <path id="Trazado_162228" data-name="Trazado 162228" d="M143.1,117.187V148.5l68.506-39.553v-7.834l-2.376-2.352V94.09l2.376.392V77.635Z" transform="translate(-50.115 -27.189)" fill="#3c3c3b"/>
  <path id="Trazado_162229" data-name="Trazado 162229" d="M139.444,149.7l2.376,2.352L210.326,112.5l-2.376-2.352Z" transform="translate(-48.835 -38.575)" fill="#706f6f"/>
  <path id="Trazado_162230" data-name="Trazado 162230" d="M207.951,102.96l-68.506,39.552v4.671l68.506-39.552Z" transform="translate(-48.835 -36.058)" fill="#1d1d1b"/>
  <path id="Trazado_162231" data-name="Trazado 162231" d="M143.1,117.187v16.848l68.506-39.553V77.635Z" transform="translate(-50.115 -27.189)" fill="#3c3c3b"/>
  <path id="Trazado_162232" data-name="Trazado 162232" d="M3.3,93.69l87.378,50.446V109.345L3.3,58.9Z" transform="translate(-1.154 -20.627)" fill="#1d1d1b"/>
  <path id="Trazado_162233" data-name="Trazado 162233" d="M90.086,143.147,5.254,94.171V62.2l84.832,48.976Z" transform="translate(-1.84 -21.783)" fill="#3c3c3b"/>
  <g id="Grupo_90358" data-name="Grupo 90358">
    <g id="Grupo_90357" data-name="Grupo 90357" clip-path="url(#clip-path)">
      <path id="Trazado_162234" data-name="Trazado 162234" d="M72.536,106.89c0,.649-.448.916-1,.6a2.231,2.231,0,0,1-1-1.754c0-.649.448-.916,1-.6a2.231,2.231,0,0,1,1,1.754" transform="translate(-24.701 -36.773)" fill="#1d1d1b"/>
      <path id="Trazado_162235" data-name="Trazado 162235" d="M77.471,109.739c0,.649-.449.917-1,.6a2.233,2.233,0,0,1-1-1.754c0-.65.448-.917,1-.6a2.234,2.234,0,0,1,1,1.754" transform="translate(-26.43 -37.77)" fill="#1d1d1b"/>
      <path id="Trazado_162236" data-name="Trazado 162236" d="M82.4,112.588c0,.649-.449.916-1,.6a2.233,2.233,0,0,1-1-1.754c0-.649.448-.916,1-.6a2.234,2.234,0,0,1,1,1.754" transform="translate(-28.157 -38.768)" fill="#1d1d1b"/>
      <path id="Trazado_162237" data-name="Trazado 162237" d="M87.34,115.437c0,.649-.448.916-1,.6a2.231,2.231,0,0,1-1-1.754c0-.649.448-.916,1-.6a2.232,2.232,0,0,1,1,1.754" transform="translate(-29.886 -39.766)" fill="#1d1d1b"/>
      <path id="Trazado_162238" data-name="Trazado 162238" d="M72.536,112.136c0,.649-.449.916-1,.6a2.233,2.233,0,0,1-1-1.754c0-.65.448-.917,1-.6a2.232,2.232,0,0,1,1,1.754" transform="translate(-24.701 -38.61)" fill="#1d1d1b"/>
      <path id="Trazado_162239" data-name="Trazado 162239" d="M77.471,114.985c0,.649-.449.916-1,.6a2.231,2.231,0,0,1-1-1.754c0-.649.448-.916,1-.6a2.234,2.234,0,0,1,1,1.754" transform="translate(-26.43 -39.608)" fill="#1d1d1b"/>
      <path id="Trazado_162240" data-name="Trazado 162240" d="M82.4,117.834c0,.649-.448.916-1,.6a2.231,2.231,0,0,1-1-1.754c0-.649.449-.916,1-.6a2.232,2.232,0,0,1,1,1.754" transform="translate(-28.157 -40.605)" fill="#1d1d1b"/>
      <path id="Trazado_162241" data-name="Trazado 162241" d="M87.34,120.683c0,.649-.449.916-1,.6a2.231,2.231,0,0,1-1-1.754c0-.649.448-.916,1-.6a2.231,2.231,0,0,1,1,1.754" transform="translate(-29.886 -41.603)" fill="#1d1d1b"/>
      <path id="Trazado_162242" data-name="Trazado 162242" d="M72.536,117.382c0,.649-.449.916-1,.6a2.231,2.231,0,0,1-1-1.754c0-.649.448-.916,1-.6a2.234,2.234,0,0,1,1,1.754" transform="translate(-24.701 -40.447)" fill="#1d1d1b"/>
      <path id="Trazado_162243" data-name="Trazado 162243" d="M77.471,120.231c0,.649-.449.916-1,.6a2.231,2.231,0,0,1-1-1.754c0-.649.448-.916,1-.6a2.234,2.234,0,0,1,1,1.754" transform="translate(-26.43 -41.445)" fill="#1d1d1b"/>
      <path id="Trazado_162244" data-name="Trazado 162244" d="M82.4,123.08c0,.649-.448.916-1,.6a2.231,2.231,0,0,1-1-1.754c0-.649.448-.916,1-.6a2.231,2.231,0,0,1,1,1.754" transform="translate(-28.157 -42.443)" fill="#1d1d1b"/>
      <path id="Trazado_162245" data-name="Trazado 162245" d="M87.34,125.929c0,.649-.449.916-1,.6a2.233,2.233,0,0,1-1-1.754c0-.65.448-.917,1-.6a2.234,2.234,0,0,1,1,1.754" transform="translate(-29.886 -43.44)" fill="#1d1d1b"/>
      <path id="Trazado_162246" data-name="Trazado 162246" d="M72.536,122.627c0,.649-.449.916-1,.6a2.231,2.231,0,0,1-1-1.754c0-.649.448-.916,1-.6a2.234,2.234,0,0,1,1,1.754" transform="translate(-24.701 -42.284)" fill="#1d1d1b"/>
      <path id="Trazado_162247" data-name="Trazado 162247" d="M77.47,125.476c0,.649-.448.916-1,.6a2.231,2.231,0,0,1-1-1.754c0-.649.448-.916,1-.6a2.231,2.231,0,0,1,1,1.754" transform="translate(-26.429 -43.282)" fill="#1d1d1b"/>
      <path id="Trazado_162248" data-name="Trazado 162248" d="M82.4,128.325c0,.649-.449.916-1,.6a2.233,2.233,0,0,1-1-1.754c0-.65.448-.917,1-.6a2.232,2.232,0,0,1,1,1.754" transform="translate(-28.157 -44.28)" fill="#1d1d1b"/>
      <path id="Trazado_162249" data-name="Trazado 162249" d="M87.34,131.174c0,.649-.449.916-1,.6a2.231,2.231,0,0,1-1-1.754c0-.649.448-.916,1-.6a2.234,2.234,0,0,1,1,1.754" transform="translate(-29.886 -45.277)" fill="#1d1d1b"/>
      <path id="Trazado_162250" data-name="Trazado 162250" d="M72.536,127.873c0,.649-.449.917-1,.6a2.233,2.233,0,0,1-1-1.754c0-.65.448-.917,1-.6a2.234,2.234,0,0,1,1,1.754" transform="translate(-24.701 -44.121)" fill="#1d1d1b"/>
      <path id="Trazado_162251" data-name="Trazado 162251" d="M77.47,130.722c0,.649-.448.916-1,.6a2.233,2.233,0,0,1-1-1.754c0-.65.448-.917,1-.6a2.232,2.232,0,0,1,1,1.754" transform="translate(-26.429 -45.119)" fill="#1d1d1b"/>
      <path id="Trazado_162252" data-name="Trazado 162252" d="M82.4,133.571c0,.649-.449.916-1,.6a2.231,2.231,0,0,1-1-1.754c0-.649.448-.916,1-.6a2.234,2.234,0,0,1,1,1.754" transform="translate(-28.157 -46.117)" fill="#1d1d1b"/>
      <path id="Trazado_162253" data-name="Trazado 162253" d="M87.34,136.42c0,.649-.448.916-1,.6a2.231,2.231,0,0,1-1-1.754c0-.649.449-.916,1-.6a2.232,2.232,0,0,1,1,1.754" transform="translate(-29.886 -47.115)" fill="#1d1d1b"/>
      <path id="Trazado_162254" data-name="Trazado 162254" d="M72.536,133.119c0,.649-.449.916-1,.6a2.231,2.231,0,0,1-1-1.754c0-.649.448-.916,1-.6a2.233,2.233,0,0,1,1,1.754" transform="translate(-24.701 -45.958)" fill="#1d1d1b"/>
      <path id="Trazado_162255" data-name="Trazado 162255" d="M77.47,135.968c0,.649-.449.916-1,.6a2.231,2.231,0,0,1-1-1.754c0-.649.448-.916,1-.6a2.234,2.234,0,0,1,1,1.754" transform="translate(-26.429 -46.956)" fill="#1d1d1b"/>
      <path id="Trazado_162256" data-name="Trazado 162256" d="M82.4,138.817c0,.649-.449.916-1,.6a2.231,2.231,0,0,1-1-1.754c0-.649.448-.916,1-.6a2.233,2.233,0,0,1,1,1.754" transform="translate(-28.157 -47.954)" fill="#1d1d1b"/>
      <path id="Trazado_162257" data-name="Trazado 162257" d="M87.34,141.666c0,.649-.448.916-1,.6a2.231,2.231,0,0,1-1-1.754c0-.649.448-.916,1-.6a2.231,2.231,0,0,1,1,1.754" transform="translate(-29.886 -48.952)" fill="#1d1d1b"/>
      <path id="Trazado_162258" data-name="Trazado 162258" d="M72.536,138.364c0,.649-.45.916-1,.6a2.231,2.231,0,0,1-1-1.754c0-.649.448-.916,1-.6a2.233,2.233,0,0,1,1,1.754" transform="translate(-24.701 -47.795)" fill="#1d1d1b"/>
      <path id="Trazado_162259" data-name="Trazado 162259" d="M77.47,141.213c0,.649-.449.916-1,.6a2.231,2.231,0,0,1-1-1.754c0-.649.448-.916,1-.6a2.233,2.233,0,0,1,1,1.754" transform="translate(-26.429 -48.793)" fill="#1d1d1b"/>
      <path id="Trazado_162260" data-name="Trazado 162260" d="M82.4,144.062c0,.649-.448.916-1,.6a2.233,2.233,0,0,1-1-1.754c0-.65.449-.917,1-.6a2.232,2.232,0,0,1,1,1.754" transform="translate(-28.157 -49.791)" fill="#1d1d1b"/>
      <path id="Trazado_162261" data-name="Trazado 162261" d="M87.34,146.911c0,.649-.449.916-1,.6a2.231,2.231,0,0,1-1-1.754c0-.649.448-.916,1-.6a2.232,2.232,0,0,1,1,1.754" transform="translate(-29.886 -50.789)" fill="#1d1d1b"/>
      <path id="Trazado_162262" data-name="Trazado 162262" d="M72.536,143.61c0,.649-.45.916-1,.6a2.231,2.231,0,0,1-1-1.754c0-.649.448-.916,1-.6a2.233,2.233,0,0,1,1,1.754" transform="translate(-24.701 -49.633)" fill="#1d1d1b"/>
      <path id="Trazado_162263" data-name="Trazado 162263" d="M77.47,146.459c0,.649-.449.916-1,.6a2.233,2.233,0,0,1-1-1.754c0-.65.448-.917,1-.6a2.234,2.234,0,0,1,1,1.754" transform="translate(-26.429 -50.63)" fill="#1d1d1b"/>
      <path id="Trazado_162264" data-name="Trazado 162264" d="M82.4,149.308c0,.649-.448.916-1,.6a2.231,2.231,0,0,1-1-1.754c0-.649.448-.916,1-.6a2.232,2.232,0,0,1,1,1.754" transform="translate(-28.157 -51.628)" fill="#1d1d1b"/>
      <path id="Trazado_162265" data-name="Trazado 162265" d="M87.34,152.157c0,.649-.449.916-1,.6a2.231,2.231,0,0,1-1-1.754c0-.649.448-.916,1-.6a2.234,2.234,0,0,1,1,1.754" transform="translate(-29.886 -52.626)" fill="#1d1d1b"/>
      <path id="Trazado_162266" data-name="Trazado 162266" d="M113.9,155.931,91.349,142.914v-27.8L113.9,128.134Z" transform="translate(-31.992 -40.315)" fill="#706f6f"/>
      <path id="Trazado_162267" data-name="Trazado 162267" d="M92.515,117.2l1.262.728v1.415l-1.262-.729Z" transform="translate(-32.4 -41.045)" fill="#1d1d1b"/>
      <path id="Trazado_162268" data-name="Trazado 162268" d="M94.856,118.552l1.262.728v1.415l-1.262-.728Z" transform="translate(-33.22 -41.518)" fill="#1d1d1b"/>
      <path id="Trazado_162269" data-name="Trazado 162269" d="M97.2,119.9l1.262.728v1.415l-1.262-.728Z" transform="translate(-34.039 -41.992)" fill="#1d1d1b"/>
      <path id="Trazado_162270" data-name="Trazado 162270" d="M99.536,121.254l1.262.728V123.4l-1.262-.729Z" transform="translate(-34.859 -42.465)" fill="#1d1d1b"/>
      <path id="Trazado_162271" data-name="Trazado 162271" d="M101.877,122.605l1.262.728v1.415l-1.262-.728Z" transform="translate(-35.679 -42.938)" fill="#1d1d1b"/>
      <path id="Trazado_162272" data-name="Trazado 162272" d="M104.217,123.956l1.262.728V126.1l-1.262-.728Z" transform="translate(-36.498 -43.411)" fill="#1d1d1b"/>
      <path id="Trazado_162273" data-name="Trazado 162273" d="M106.557,125.307l1.262.728v1.415l-1.262-.728Z" transform="translate(-37.318 -43.884)" fill="#1d1d1b"/>
      <path id="Trazado_162274" data-name="Trazado 162274" d="M108.9,126.659l1.262.728V128.8l-1.262-.728Z" transform="translate(-38.137 -44.357)" fill="#1d1d1b"/>
      <path id="Trazado_162275" data-name="Trazado 162275" d="M111.238,128.01l1.262.728v1.415l-1.262-.728Z" transform="translate(-38.957 -44.831)" fill="#1d1d1b"/>
      <path id="Trazado_162276" data-name="Trazado 162276" d="M113.578,129.361l1.262.728V131.5l-1.262-.728Z" transform="translate(-39.777 -45.304)" fill="#1d1d1b"/>
      <path id="Trazado_162277" data-name="Trazado 162277" d="M115.919,130.712l1.262.728v1.415l-1.262-.728Z" transform="translate(-40.596 -45.777)" fill="#1d1d1b"/>
      <path id="Trazado_162278" data-name="Trazado 162278" d="M118.259,132.063l1.262.728v1.415l-1.262-.729Z" transform="translate(-41.416 -46.25)" fill="#1d1d1b"/>
      <path id="Trazado_162279" data-name="Trazado 162279" d="M120.6,133.415l1.262.728v1.415l-1.262-.728Z" transform="translate(-42.235 -46.723)" fill="#1d1d1b"/>
      <path id="Trazado_162280" data-name="Trazado 162280" d="M122.939,134.766l1.262.728v1.415l-1.262-.728Z" transform="translate(-43.055 -47.197)" fill="#1d1d1b"/>
      <path id="Trazado_162281" data-name="Trazado 162281" d="M92.515,119.845l1.262.728v1.415l-1.262-.728Z" transform="translate(-32.4 -41.971)" fill="#1d1d1b"/>
      <path id="Trazado_162282" data-name="Trazado 162282" d="M94.856,121.2l1.262.728v1.415l-1.262-.728Z" transform="translate(-33.22 -42.445)" fill="#1d1d1b"/>
      <path id="Trazado_162283" data-name="Trazado 162283" d="M97.2,122.548l1.262.728v1.415l-1.262-.728Z" transform="translate(-34.039 -42.918)" fill="#1d1d1b"/>
      <path id="Trazado_162284" data-name="Trazado 162284" d="M99.536,123.9l1.262.728v1.415l-1.262-.728Z" transform="translate(-34.859 -43.391)" fill="#1d1d1b"/>
      <path id="Trazado_162285" data-name="Trazado 162285" d="M101.877,125.25l1.262.728v1.415l-1.262-.728Z" transform="translate(-35.679 -43.864)" fill="#1d1d1b"/>
      <path id="Trazado_162286" data-name="Trazado 162286" d="M104.217,126.6l1.262.728v1.415l-1.262-.728Z" transform="translate(-36.498 -44.337)" fill="#1d1d1b"/>
      <path id="Trazado_162287" data-name="Trazado 162287" d="M106.557,127.952l1.262.728V130.1l-1.262-.728Z" transform="translate(-37.318 -44.811)" fill="#1d1d1b"/>
      <path id="Trazado_162288" data-name="Trazado 162288" d="M108.9,129.3l1.262.728v1.415l-1.262-.728Z" transform="translate(-38.137 -45.284)" fill="#1d1d1b"/>
      <path id="Trazado_162289" data-name="Trazado 162289" d="M111.238,130.655l1.262.728V132.8l-1.262-.728Z" transform="translate(-38.957 -45.757)" fill="#1d1d1b"/>
      <path id="Trazado_162290" data-name="Trazado 162290" d="M113.578,132.006l1.262.728v1.415l-1.262-.728Z" transform="translate(-39.777 -46.23)" fill="#1d1d1b"/>
      <path id="Trazado_162291" data-name="Trazado 162291" d="M115.919,133.357l1.262.728V135.5l-1.262-.729Z" transform="translate(-40.596 -46.703)" fill="#1d1d1b"/>
      <path id="Trazado_162292" data-name="Trazado 162292" d="M118.259,134.708l1.262.728v1.415l-1.262-.728Z" transform="translate(-41.416 -47.177)" fill="#1d1d1b"/>
      <path id="Trazado_162293" data-name="Trazado 162293" d="M120.6,136.059l1.262.728V138.2l-1.262-.728Z" transform="translate(-42.235 -47.65)" fill="#1d1d1b"/>
      <path id="Trazado_162294" data-name="Trazado 162294" d="M122.939,137.41l1.262.728v1.415l-1.262-.728Z" transform="translate(-43.055 -48.123)" fill="#1d1d1b"/>
      <path id="Trazado_162295" data-name="Trazado 162295" d="M92.515,122.49l1.262.728v1.415l-1.262-.728Z" transform="translate(-32.4 -42.898)" fill="#1d1d1b"/>
      <path id="Trazado_162296" data-name="Trazado 162296" d="M94.856,123.841l1.262.728v1.415l-1.262-.728Z" transform="translate(-33.22 -43.371)" fill="#1d1d1b"/>
      <path id="Trazado_162297" data-name="Trazado 162297" d="M97.2,125.193l1.262.728v1.415l-1.262-.728Z" transform="translate(-34.039 -43.844)" fill="#1d1d1b"/>
      <path id="Trazado_162298" data-name="Trazado 162298" d="M99.536,126.544l1.262.728v1.415l-1.262-.728Z" transform="translate(-34.859 -44.317)" fill="#1d1d1b"/>
      <path id="Trazado_162299" data-name="Trazado 162299" d="M101.877,127.895l1.262.728v1.415l-1.262-.728Z" transform="translate(-35.679 -44.79)" fill="#1d1d1b"/>
      <path id="Trazado_162300" data-name="Trazado 162300" d="M104.217,129.246l1.262.728v1.415l-1.262-.728Z" transform="translate(-36.498 -45.264)" fill="#1d1d1b"/>
      <path id="Trazado_162301" data-name="Trazado 162301" d="M106.557,130.6l1.262.728v1.415l-1.262-.728Z" transform="translate(-37.318 -45.737)" fill="#1d1d1b"/>
      <path id="Trazado_162302" data-name="Trazado 162302" d="M108.9,131.948l1.262.728v1.415l-1.262-.728Z" transform="translate(-38.137 -46.21)" fill="#1d1d1b"/>
      <path id="Trazado_162303" data-name="Trazado 162303" d="M111.238,133.3l1.262.728v1.415l-1.262-.728Z" transform="translate(-38.957 -46.683)" fill="#1d1d1b"/>
      <path id="Trazado_162304" data-name="Trazado 162304" d="M113.578,134.651l1.262.728v1.415l-1.262-.729Z" transform="translate(-39.777 -47.156)" fill="#1d1d1b"/>
      <path id="Trazado_162305" data-name="Trazado 162305" d="M115.919,136l1.262.728v1.415l-1.262-.728Z" transform="translate(-40.596 -47.63)" fill="#1d1d1b"/>
      <path id="Trazado_162306" data-name="Trazado 162306" d="M118.259,137.353l1.262.728V139.5l-1.262-.728Z" transform="translate(-41.416 -48.103)" fill="#1d1d1b"/>
      <path id="Trazado_162307" data-name="Trazado 162307" d="M120.6,138.7l1.262.728v1.415l-1.262-.728Z" transform="translate(-42.235 -48.576)" fill="#1d1d1b"/>
      <path id="Trazado_162308" data-name="Trazado 162308" d="M122.939,140.055l1.262.728V142.2l-1.262-.728Z" transform="translate(-43.055 -49.049)" fill="#1d1d1b"/>
      <path id="Trazado_162309" data-name="Trazado 162309" d="M92.515,125.135l1.262.728v1.415l-1.262-.728Z" transform="translate(-32.4 -43.824)" fill="#1d1d1b"/>
      <path id="Trazado_162310" data-name="Trazado 162310" d="M94.856,126.486l1.262.728v1.415l-1.262-.728Z" transform="translate(-33.22 -44.297)" fill="#1d1d1b"/>
      <path id="Trazado_162311" data-name="Trazado 162311" d="M97.2,127.837l1.262.728v1.415l-1.262-.728Z" transform="translate(-34.039 -44.77)" fill="#1d1d1b"/>
      <path id="Trazado_162312" data-name="Trazado 162312" d="M99.536,129.189l1.262.728v1.415l-1.262-.728Z" transform="translate(-34.859 -45.243)" fill="#1d1d1b"/>
      <path id="Trazado_162313" data-name="Trazado 162313" d="M101.877,130.54l1.262.728v1.415l-1.262-.728Z" transform="translate(-35.679 -45.717)" fill="#1d1d1b"/>
      <path id="Trazado_162314" data-name="Trazado 162314" d="M104.217,131.891l1.262.728v1.415l-1.262-.729Z" transform="translate(-36.498 -46.19)" fill="#1d1d1b"/>
      <path id="Trazado_162315" data-name="Trazado 162315" d="M106.557,133.242l1.262.728v1.415l-1.262-.728Z" transform="translate(-37.318 -46.663)" fill="#1d1d1b"/>
      <path id="Trazado_162316" data-name="Trazado 162316" d="M108.9,134.593l1.262.728v1.415l-1.262-.728Z" transform="translate(-38.137 -47.136)" fill="#1d1d1b"/>
      <path id="Trazado_162317" data-name="Trazado 162317" d="M111.238,135.944l1.262.728v1.415l-1.262-.729Z" transform="translate(-38.957 -47.609)" fill="#1d1d1b"/>
      <path id="Trazado_162318" data-name="Trazado 162318" d="M113.578,137.3l1.262.728v1.415l-1.262-.728Z" transform="translate(-39.777 -48.083)" fill="#1d1d1b"/>
      <path id="Trazado_162319" data-name="Trazado 162319" d="M115.919,138.647l1.262.728v1.415l-1.262-.728Z" transform="translate(-40.596 -48.556)" fill="#1d1d1b"/>
      <path id="Trazado_162320" data-name="Trazado 162320" d="M118.259,140l1.262.728v1.415l-1.262-.728Z" transform="translate(-41.416 -49.029)" fill="#1d1d1b"/>
      <path id="Trazado_162321" data-name="Trazado 162321" d="M120.6,141.349l1.262.728v1.415l-1.262-.728Z" transform="translate(-42.235 -49.502)" fill="#1d1d1b"/>
      <path id="Trazado_162322" data-name="Trazado 162322" d="M122.939,142.7l1.262.728v1.415l-1.262-.728Z" transform="translate(-43.055 -49.975)" fill="#1d1d1b"/>
      <path id="Trazado_162323" data-name="Trazado 162323" d="M92.515,129.5l1.262.728v1.415l-1.262-.729Z" transform="translate(-32.4 -45.353)" fill="#1d1d1b"/>
      <path id="Trazado_162324" data-name="Trazado 162324" d="M94.856,130.852l1.262.728v1.415l-1.262-.728Z" transform="translate(-33.22 -45.826)" fill="#1d1d1b"/>
      <path id="Trazado_162325" data-name="Trazado 162325" d="M97.2,132.2l1.262.728v1.415l-1.262-.728Z" transform="translate(-34.039 -46.299)" fill="#1d1d1b"/>
      <path id="Trazado_162326" data-name="Trazado 162326" d="M99.536,133.554l1.262.728V135.7l-1.262-.728Z" transform="translate(-34.859 -46.772)" fill="#1d1d1b"/>
      <path id="Trazado_162327" data-name="Trazado 162327" d="M101.876,134.906l1.262.728v1.415l-1.262-.728Z" transform="translate(-35.678 -47.246)" fill="#1d1d1b"/>
      <path id="Trazado_162328" data-name="Trazado 162328" d="M104.217,136.257l1.262.728V138.4l-1.262-.728Z" transform="translate(-36.498 -47.719)" fill="#1d1d1b"/>
      <path id="Trazado_162329" data-name="Trazado 162329" d="M106.557,137.608l1.262.728v1.415l-1.262-.728Z" transform="translate(-37.318 -48.192)" fill="#1d1d1b"/>
      <path id="Trazado_162330" data-name="Trazado 162330" d="M108.9,138.959l1.262.728V141.1l-1.262-.728Z" transform="translate(-38.137 -48.665)" fill="#1d1d1b"/>
      <path id="Trazado_162331" data-name="Trazado 162331" d="M111.238,140.31l1.262.728v1.415l-1.262-.728Z" transform="translate(-38.957 -49.138)" fill="#1d1d1b"/>
      <path id="Trazado_162332" data-name="Trazado 162332" d="M113.578,141.661l1.262.728V143.8l-1.262-.728Z" transform="translate(-39.777 -49.612)" fill="#1d1d1b"/>
      <path id="Trazado_162333" data-name="Trazado 162333" d="M115.918,143.012l1.262.728v1.415l-1.262-.728Z" transform="translate(-40.596 -50.085)" fill="#1d1d1b"/>
      <path id="Trazado_162334" data-name="Trazado 162334" d="M118.259,144.363l1.262.728v1.415l-1.262-.729Z" transform="translate(-41.416 -50.558)" fill="#1d1d1b"/>
      <path id="Trazado_162335" data-name="Trazado 162335" d="M120.6,145.715l1.262.728v1.415l-1.262-.728Z" transform="translate(-42.235 -51.031)" fill="#1d1d1b"/>
      <path id="Trazado_162336" data-name="Trazado 162336" d="M122.939,147.066l1.262.728v1.415l-1.262-.728Z" transform="translate(-43.055 -51.504)" fill="#1d1d1b"/>
      <path id="Trazado_162337" data-name="Trazado 162337" d="M92.515,132.146l1.262.728v1.415l-1.262-.728Z" transform="translate(-32.4 -46.279)" fill="#1d1d1b"/>
      <path id="Trazado_162338" data-name="Trazado 162338" d="M94.856,133.5l1.262.728v1.415l-1.262-.728Z" transform="translate(-33.22 -46.752)" fill="#1d1d1b"/>
      <path id="Trazado_162339" data-name="Trazado 162339" d="M97.2,134.848l1.262.728v1.415l-1.262-.728Z" transform="translate(-34.039 -47.225)" fill="#1d1d1b"/>
      <path id="Trazado_162340" data-name="Trazado 162340" d="M99.536,136.2l1.262.728v1.415l-1.262-.728Z" transform="translate(-34.859 -47.699)" fill="#1d1d1b"/>
      <path id="Trazado_162341" data-name="Trazado 162341" d="M101.876,137.55l1.262.728v1.415l-1.262-.728Z" transform="translate(-35.678 -48.172)" fill="#1d1d1b"/>
      <path id="Trazado_162342" data-name="Trazado 162342" d="M104.217,138.9l1.262.728v1.415l-1.262-.728Z" transform="translate(-36.498 -48.645)" fill="#1d1d1b"/>
      <path id="Trazado_162343" data-name="Trazado 162343" d="M106.557,140.252l1.262.728V142.4l-1.262-.728Z" transform="translate(-37.318 -49.118)" fill="#1d1d1b"/>
      <path id="Trazado_162344" data-name="Trazado 162344" d="M108.9,141.6l1.262.728v1.415l-1.262-.729Z" transform="translate(-38.137 -49.591)" fill="#1d1d1b"/>
      <path id="Trazado_162345" data-name="Trazado 162345" d="M111.238,142.955l1.262.728V145.1l-1.262-.728Z" transform="translate(-38.957 -50.065)" fill="#1d1d1b"/>
      <path id="Trazado_162346" data-name="Trazado 162346" d="M113.578,144.306l1.262.728v1.415l-1.262-.728Z" transform="translate(-39.777 -50.538)" fill="#1d1d1b"/>
      <path id="Trazado_162347" data-name="Trazado 162347" d="M115.918,145.657l1.262.728V147.8l-1.262-.729Z" transform="translate(-40.596 -51.011)" fill="#1d1d1b"/>
      <path id="Trazado_162348" data-name="Trazado 162348" d="M118.259,147.008l1.262.728v1.415l-1.262-.728Z" transform="translate(-41.416 -51.484)" fill="#1d1d1b"/>
      <path id="Trazado_162349" data-name="Trazado 162349" d="M120.6,148.359l1.262.728V150.5l-1.262-.728Z" transform="translate(-42.235 -51.957)" fill="#1d1d1b"/>
      <path id="Trazado_162350" data-name="Trazado 162350" d="M122.939,149.71l1.262.728v1.415l-1.262-.728Z" transform="translate(-43.055 -52.43)" fill="#1d1d1b"/>
      <path id="Trazado_162351" data-name="Trazado 162351" d="M92.515,134.79l1.262.728v1.415l-1.262-.728Z" transform="translate(-32.4 -47.205)" fill="#1d1d1b"/>
      <path id="Trazado_162352" data-name="Trazado 162352" d="M94.856,136.141l1.262.728v1.415l-1.262-.728Z" transform="translate(-33.22 -47.678)" fill="#1d1d1b"/>
      <path id="Trazado_162353" data-name="Trazado 162353" d="M97.2,137.493l1.262.728v1.415l-1.262-.728Z" transform="translate(-34.039 -48.152)" fill="#1d1d1b"/>
      <path id="Trazado_162354" data-name="Trazado 162354" d="M99.536,138.844l1.262.728v1.415l-1.262-.728Z" transform="translate(-34.859 -48.625)" fill="#1d1d1b"/>
      <path id="Trazado_162355" data-name="Trazado 162355" d="M101.876,140.2l1.262.728v1.415l-1.262-.728Z" transform="translate(-35.678 -49.098)" fill="#1d1d1b"/>
      <path id="Trazado_162356" data-name="Trazado 162356" d="M104.217,141.546l1.262.728v1.415l-1.262-.728Z" transform="translate(-36.498 -49.571)" fill="#1d1d1b"/>
      <path id="Trazado_162357" data-name="Trazado 162357" d="M106.557,142.9l1.262.728v1.415l-1.262-.729Z" transform="translate(-37.318 -50.044)" fill="#1d1d1b"/>
      <path id="Trazado_162358" data-name="Trazado 162358" d="M108.9,144.249l1.262.728v1.415l-1.262-.728Z" transform="translate(-38.137 -50.518)" fill="#1d1d1b"/>
      <path id="Trazado_162359" data-name="Trazado 162359" d="M111.238,145.6l1.262.728v1.415l-1.262-.728Z" transform="translate(-38.957 -50.991)" fill="#1d1d1b"/>
      <path id="Trazado_162360" data-name="Trazado 162360" d="M113.578,146.951l1.262.728v1.415l-1.262-.728Z" transform="translate(-39.777 -51.464)" fill="#1d1d1b"/>
      <path id="Trazado_162361" data-name="Trazado 162361" d="M115.918,148.3l1.262.728v1.415l-1.262-.728Z" transform="translate(-40.596 -51.937)" fill="#1d1d1b"/>
      <path id="Trazado_162362" data-name="Trazado 162362" d="M118.259,149.653l1.262.728V151.8l-1.262-.728Z" transform="translate(-41.416 -52.41)" fill="#1d1d1b"/>
      <path id="Trazado_162363" data-name="Trazado 162363" d="M120.6,151l1.262.728v1.415l-1.262-.728Z" transform="translate(-42.235 -52.884)" fill="#1d1d1b"/>
      <path id="Trazado_162364" data-name="Trazado 162364" d="M122.939,152.355l1.262.728V154.5l-1.262-.728Z" transform="translate(-43.055 -53.357)" fill="#1d1d1b"/>
      <path id="Trazado_162365" data-name="Trazado 162365" d="M92.515,137.435l1.262.728v1.415l-1.262-.728Z" transform="translate(-32.4 -48.131)" fill="#1d1d1b"/>
      <path id="Trazado_162366" data-name="Trazado 162366" d="M94.856,138.786l1.262.728v1.415l-1.262-.728Z" transform="translate(-33.22 -48.605)" fill="#1d1d1b"/>
      <path id="Trazado_162367" data-name="Trazado 162367" d="M97.2,140.137l1.262.728v1.415l-1.262-.728Z" transform="translate(-34.039 -49.078)" fill="#1d1d1b"/>
      <path id="Trazado_162368" data-name="Trazado 162368" d="M99.536,141.489l1.262.728v1.415l-1.262-.728Z" transform="translate(-34.859 -49.551)" fill="#1d1d1b"/>
      <path id="Trazado_162369" data-name="Trazado 162369" d="M101.876,142.84l1.262.728v1.415l-1.262-.728Z" transform="translate(-35.678 -50.024)" fill="#1d1d1b"/>
      <path id="Trazado_162370" data-name="Trazado 162370" d="M104.217,144.191l1.262.728v1.415l-1.262-.729Z" transform="translate(-36.498 -50.497)" fill="#1d1d1b"/>
      <path id="Trazado_162371" data-name="Trazado 162371" d="M106.557,145.542l1.262.728v1.415l-1.262-.728Z" transform="translate(-37.318 -50.971)" fill="#1d1d1b"/>
      <path id="Trazado_162372" data-name="Trazado 162372" d="M108.9,146.893l1.262.728v1.415l-1.262-.728Z" transform="translate(-38.137 -51.444)" fill="#1d1d1b"/>
      <path id="Trazado_162373" data-name="Trazado 162373" d="M111.238,148.244l1.262.728v1.415l-1.262-.728Z" transform="translate(-38.957 -51.917)" fill="#1d1d1b"/>
      <path id="Trazado_162374" data-name="Trazado 162374" d="M113.578,149.6l1.262.728v1.415l-1.262-.728Z" transform="translate(-39.777 -52.39)" fill="#1d1d1b"/>
      <path id="Trazado_162375" data-name="Trazado 162375" d="M115.918,150.947l1.262.728v1.415l-1.262-.728Z" transform="translate(-40.596 -52.863)" fill="#1d1d1b"/>
      <path id="Trazado_162376" data-name="Trazado 162376" d="M118.259,152.3l1.262.728v1.415l-1.262-.728Z" transform="translate(-41.416 -53.337)" fill="#1d1d1b"/>
      <path id="Trazado_162377" data-name="Trazado 162377" d="M120.6,153.649l1.262.728v1.415l-1.262-.728Z" transform="translate(-42.235 -53.81)" fill="#1d1d1b"/>
      <path id="Trazado_162378" data-name="Trazado 162378" d="M122.939,155l1.262.728v1.415l-1.262-.728Z" transform="translate(-43.055 -54.283)" fill="#1d1d1b"/>
      <path id="Trazado_162379" data-name="Trazado 162379" d="M92.515,141.8l1.262.728v1.415l-1.262-.729Z" transform="translate(-32.4 -49.66)" fill="#1d1d1b"/>
      <path id="Trazado_162380" data-name="Trazado 162380" d="M94.856,143.152l1.262.728V145.3l-1.262-.728Z" transform="translate(-33.22 -50.134)" fill="#1d1d1b"/>
      <path id="Trazado_162381" data-name="Trazado 162381" d="M97.2,144.5l1.262.728v1.415l-1.262-.728Z" transform="translate(-34.039 -50.607)" fill="#1d1d1b"/>
      <path id="Trazado_162382" data-name="Trazado 162382" d="M99.536,145.854l1.262.728V148l-1.262-.728Z" transform="translate(-34.859 -51.08)" fill="#1d1d1b"/>
      <path id="Trazado_162383" data-name="Trazado 162383" d="M101.876,147.206l1.262.728v1.415l-1.262-.728Z" transform="translate(-35.678 -51.553)" fill="#1d1d1b"/>
      <path id="Trazado_162384" data-name="Trazado 162384" d="M104.217,148.557l1.262.728V150.7l-1.262-.728Z" transform="translate(-36.498 -52.026)" fill="#1d1d1b"/>
      <path id="Trazado_162385" data-name="Trazado 162385" d="M106.557,149.908l1.262.728v1.415l-1.262-.728Z" transform="translate(-37.318 -52.5)" fill="#1d1d1b"/>
      <path id="Trazado_162386" data-name="Trazado 162386" d="M108.9,151.259l1.262.728V153.4l-1.262-.728Z" transform="translate(-38.137 -52.973)" fill="#1d1d1b"/>
      <path id="Trazado_162387" data-name="Trazado 162387" d="M111.238,152.61l1.262.728v1.415l-1.262-.729Z" transform="translate(-38.957 -53.446)" fill="#1d1d1b"/>
      <path id="Trazado_162388" data-name="Trazado 162388" d="M113.578,153.962l1.262.728V156.1l-1.262-.728Z" transform="translate(-39.776 -53.919)" fill="#1d1d1b"/>
      <path id="Trazado_162389" data-name="Trazado 162389" d="M115.918,155.312l1.262.728v1.415l-1.262-.728Z" transform="translate(-40.596 -54.392)" fill="#1d1d1b"/>
      <path id="Trazado_162390" data-name="Trazado 162390" d="M118.259,156.664l1.262.728v1.415l-1.262-.729Z" transform="translate(-41.416 -54.866)" fill="#1d1d1b"/>
      <path id="Trazado_162391" data-name="Trazado 162391" d="M120.6,158.015l1.262.728v1.415l-1.262-.728Z" transform="translate(-42.235 -55.339)" fill="#1d1d1b"/>
      <path id="Trazado_162392" data-name="Trazado 162392" d="M122.939,159.366l1.262.728v1.415l-1.262-.728Z" transform="translate(-43.055 -55.812)" fill="#1d1d1b"/>
      <path id="Trazado_162393" data-name="Trazado 162393" d="M92.515,144.446l1.262.728v1.415l-1.262-.728Z" transform="translate(-32.4 -50.587)" fill="#1d1d1b"/>
      <path id="Trazado_162394" data-name="Trazado 162394" d="M94.855,145.8l1.262.728v1.415l-1.262-.728Z" transform="translate(-33.22 -51.06)" fill="#1d1d1b"/>
      <path id="Trazado_162395" data-name="Trazado 162395" d="M97.2,147.148l1.262.728v1.415l-1.262-.728Z" transform="translate(-34.039 -51.533)" fill="#1d1d1b"/>
      <path id="Trazado_162396" data-name="Trazado 162396" d="M99.536,148.5l1.262.728v1.415l-1.262-.728Z" transform="translate(-34.859 -52.006)" fill="#1d1d1b"/>
      <path id="Trazado_162397" data-name="Trazado 162397" d="M101.876,149.85l1.262.728v1.415l-1.262-.728Z" transform="translate(-35.678 -52.479)" fill="#1d1d1b"/>
      <path id="Trazado_162398" data-name="Trazado 162398" d="M104.217,151.2l1.262.728v1.415l-1.262-.728Z" transform="translate(-36.498 -52.953)" fill="#1d1d1b"/>
      <path id="Trazado_162399" data-name="Trazado 162399" d="M106.557,152.553l1.262.728V154.7l-1.262-.728Z" transform="translate(-37.318 -53.426)" fill="#1d1d1b"/>
      <path id="Trazado_162400" data-name="Trazado 162400" d="M108.9,153.9l1.262.728v1.415l-1.262-.729Z" transform="translate(-38.137 -53.899)" fill="#1d1d1b"/>
      <path id="Trazado_162401" data-name="Trazado 162401" d="M111.238,155.255l1.262.728V157.4l-1.262-.728Z" transform="translate(-38.957 -54.372)" fill="#1d1d1b"/>
      <path id="Trazado_162402" data-name="Trazado 162402" d="M113.578,156.606l1.262.728v1.415l-1.262-.728Z" transform="translate(-39.776 -54.845)" fill="#1d1d1b"/>
      <path id="Trazado_162403" data-name="Trazado 162403" d="M115.918,157.957l1.262.728V160.1l-1.262-.728Z" transform="translate(-40.596 -55.319)" fill="#1d1d1b"/>
      <path id="Trazado_162404" data-name="Trazado 162404" d="M118.259,159.309l1.262.728v1.415l-1.262-.728Z" transform="translate(-41.416 -55.792)" fill="#1d1d1b"/>
      <path id="Trazado_162405" data-name="Trazado 162405" d="M120.6,160.66l1.262.728V162.8l-1.262-.728Z" transform="translate(-42.235 -56.265)" fill="#1d1d1b"/>
      <path id="Trazado_162406" data-name="Trazado 162406" d="M122.939,162.011l1.262.728v1.415l-1.262-.728Z" transform="translate(-43.055 -56.738)" fill="#1d1d1b"/>
      <path id="Trazado_162407" data-name="Trazado 162407" d="M92.515,147.09l1.262.728v1.415l-1.262-.728Z" transform="translate(-32.4 -51.513)" fill="#1d1d1b"/>
      <path id="Trazado_162408" data-name="Trazado 162408" d="M94.855,148.442l1.262.728v1.415l-1.262-.728Z" transform="translate(-33.22 -51.986)" fill="#1d1d1b"/>
      <path id="Trazado_162409" data-name="Trazado 162409" d="M97.2,149.793l1.262.728v1.415l-1.262-.728Z" transform="translate(-34.039 -52.459)" fill="#1d1d1b"/>
      <path id="Trazado_162410" data-name="Trazado 162410" d="M99.536,151.144l1.262.728v1.415l-1.262-.729Z" transform="translate(-34.859 -52.933)" fill="#1d1d1b"/>
      <path id="Trazado_162411" data-name="Trazado 162411" d="M101.876,152.5l1.262.728v1.415l-1.262-.728Z" transform="translate(-35.678 -53.406)" fill="#1d1d1b"/>
      <path id="Trazado_162412" data-name="Trazado 162412" d="M104.217,153.846l1.262.728v1.415l-1.262-.728Z" transform="translate(-36.498 -53.879)" fill="#1d1d1b"/>
      <path id="Trazado_162413" data-name="Trazado 162413" d="M106.557,155.2l1.262.728v1.415l-1.262-.729Z" transform="translate(-37.318 -54.352)" fill="#1d1d1b"/>
      <path id="Trazado_162414" data-name="Trazado 162414" d="M108.9,156.549l1.262.728v1.415l-1.262-.728Z" transform="translate(-38.137 -54.825)" fill="#1d1d1b"/>
      <path id="Trazado_162415" data-name="Trazado 162415" d="M111.238,157.9l1.262.728v1.415l-1.262-.728Z" transform="translate(-38.957 -55.298)" fill="#1d1d1b"/>
      <path id="Trazado_162416" data-name="Trazado 162416" d="M113.578,159.251l1.262.728v1.415l-1.262-.728Z" transform="translate(-39.776 -55.772)" fill="#1d1d1b"/>
      <path id="Trazado_162417" data-name="Trazado 162417" d="M115.918,160.6l1.262.728v1.415l-1.262-.728Z" transform="translate(-40.596 -56.245)" fill="#1d1d1b"/>
      <path id="Trazado_162418" data-name="Trazado 162418" d="M118.259,161.953l1.262.728V164.1l-1.262-.728Z" transform="translate(-41.416 -56.718)" fill="#1d1d1b"/>
      <path id="Trazado_162419" data-name="Trazado 162419" d="M120.6,163.3l1.262.728v1.415l-1.262-.728Z" transform="translate(-42.235 -57.191)" fill="#1d1d1b"/>
      <path id="Trazado_162420" data-name="Trazado 162420" d="M122.939,164.656l1.262.728V166.8l-1.262-.728Z" transform="translate(-43.055 -57.664)" fill="#1d1d1b"/>
      <path id="Trazado_162421" data-name="Trazado 162421" d="M92.515,149.736l1.262.728v1.415l-1.262-.728Z" transform="translate(-32.4 -52.439)" fill="#1d1d1b"/>
      <path id="Trazado_162422" data-name="Trazado 162422" d="M94.855,151.087l1.262.728v1.415l-1.262-.728Z" transform="translate(-33.22 -52.912)" fill="#1d1d1b"/>
      <path id="Trazado_162423" data-name="Trazado 162423" d="M97.2,152.438l1.262.728v1.415l-1.262-.729Z" transform="translate(-34.039 -53.386)" fill="#1d1d1b"/>
      <path id="Trazado_162424" data-name="Trazado 162424" d="M99.536,153.789l1.262.728v1.415l-1.262-.728Z" transform="translate(-34.859 -53.859)" fill="#1d1d1b"/>
      <path id="Trazado_162425" data-name="Trazado 162425" d="M101.876,155.14l1.262.728v1.415l-1.262-.728Z" transform="translate(-35.678 -54.332)" fill="#1d1d1b"/>
      <path id="Trazado_162426" data-name="Trazado 162426" d="M104.217,156.491l1.262.728v1.415l-1.262-.728Z" transform="translate(-36.498 -54.805)" fill="#1d1d1b"/>
      <path id="Trazado_162427" data-name="Trazado 162427" d="M106.557,157.842l1.262.728v1.415l-1.262-.728Z" transform="translate(-37.318 -55.278)" fill="#1d1d1b"/>
      <path id="Trazado_162428" data-name="Trazado 162428" d="M108.9,159.193l1.262.728v1.415l-1.262-.728Z" transform="translate(-38.137 -55.752)" fill="#1d1d1b"/>
      <path id="Trazado_162429" data-name="Trazado 162429" d="M111.238,160.544l1.262.728v1.415l-1.262-.728Z" transform="translate(-38.957 -56.225)" fill="#1d1d1b"/>
      <path id="Trazado_162430" data-name="Trazado 162430" d="M113.578,161.9l1.262.728v1.415l-1.262-.728Z" transform="translate(-39.776 -56.698)" fill="#1d1d1b"/>
      <path id="Trazado_162431" data-name="Trazado 162431" d="M115.918,163.247l1.262.728v1.415l-1.262-.728Z" transform="translate(-40.596 -57.171)" fill="#1d1d1b"/>
      <path id="Trazado_162432" data-name="Trazado 162432" d="M118.259,164.6l1.262.728v1.415l-1.262-.728Z" transform="translate(-41.416 -57.644)" fill="#1d1d1b"/>
      <path id="Trazado_162433" data-name="Trazado 162433" d="M120.6,165.949l1.262.728v1.415l-1.262-.728Z" transform="translate(-42.235 -58.118)" fill="#1d1d1b"/>
      <path id="Trazado_162434" data-name="Trazado 162434" d="M122.939,167.3l1.262.728v1.415l-1.262-.729Z" transform="translate(-43.055 -58.591)" fill="#1d1d1b"/>
      <path id="Trazado_162435" data-name="Trazado 162435" d="M94.036,156.737l-1.521-.878V153.1l1.521.878Z" transform="translate(-32.4 -53.617)" fill="#36a9e1"/>
      <path id="Trazado_162436" data-name="Trazado 162436" d="M96.376,158.089l-1.521-.878v-2.762l1.521.878Z" transform="translate(-33.22 -54.09)" fill="#fff"/>
      <path id="Trazado_162437" data-name="Trazado 162437" d="M115.046,168.305c0,.4-.276.563-.615.366l-13.184-7.611a1.372,1.372,0,0,1-.615-1.077c0-.4.276-.563.615-.366l13.184,7.611a1.371,1.371,0,0,1,.615,1.077" transform="translate(-35.243 -55.871)" fill="#fff"/>
      <path id="Trazado_162438" data-name="Trazado 162438" d="M22.177,100.746l-6.814-3.934V72.468L22.178,76.4Z" transform="translate(-5.38 -25.379)" fill="#1d1d1b"/>
      <path id="Trazado_162439" data-name="Trazado 162439" d="M17.214,97.261V75.6l4.409,2.545V99.806Z" transform="translate(-6.028 -26.477)" fill="#3c3c3b"/>
      <path id="Trazado_162440" data-name="Trazado 162440" d="M21.161,102.057c0,.741-.539,1.031-1.2.648a2.613,2.613,0,0,1-1.2-2.036v-9.9c0-.741.539-1.031,1.2-.648a2.614,2.614,0,0,1,1.2,2.036Z" transform="translate(-6.569 -31.503)" fill="#1d1d1b"/>
      <path id="Trazado_162441" data-name="Trazado 162441" d="M21.242,86.5c0,.417-.3.58-.676.365l-1.4-.81a1.469,1.469,0,0,1-.676-1.146c0-.417.3-.58.676-.365l1.4.81a1.47,1.47,0,0,1,.676,1.146" transform="translate(-6.474 -29.576)" fill="#95c11f"/>
      <path id="Trazado_162442" data-name="Trazado 162442" d="M21.242,82.629c0,.417-.3.58-.676.365l-1.4-.81a1.471,1.471,0,0,1-.676-1.146c0-.417.3-.58.676-.365l1.4.81a1.47,1.47,0,0,1,.676,1.146" transform="translate(-6.474 -28.22)" fill="#878787"/>
      <path id="Trazado_162443" data-name="Trazado 162443" d="M19.012,78.551l-.526-.3V77.24l.526.3Z" transform="translate(-6.474 -27.05)" fill="#f9b233"/>
      <path id="Trazado_162444" data-name="Trazado 162444" d="M20.728,79.541l-.526-.3V78.231l.526.3Z" transform="translate(-7.075 -27.397)" fill="#fff"/>
      <path id="Trazado_162445" data-name="Trazado 162445" d="M22.443,80.532l-.526-.3V79.221l.526.3Z" transform="translate(-7.676 -27.744)" fill="#fff"/>
      <path id="Trazado_162446" data-name="Trazado 162446" d="M32.663,106.8l-6.814-3.934V78.522l6.814,3.934Z" transform="translate(-9.053 -27.499)" fill="#1d1d1b"/>
      <path id="Trazado_162447" data-name="Trazado 162447" d="M27.7,103.315V81.656L32.109,84.2V105.86Z" transform="translate(-9.701 -28.597)" fill="#3c3c3b"/>
      <path id="Trazado_162448" data-name="Trazado 162448" d="M31.647,108.111c0,.741-.539,1.031-1.2.648a2.613,2.613,0,0,1-1.2-2.036v-9.9c0-.741.539-1.031,1.2-.648a2.614,2.614,0,0,1,1.2,2.036Z" transform="translate(-10.241 -33.623)" fill="#1d1d1b"/>
      <path id="Trazado_162449" data-name="Trazado 162449" d="M31.728,92.556c0,.417-.3.58-.676.365l-1.4-.81a1.469,1.469,0,0,1-.676-1.146c0-.417.3-.58.676-.365l1.4.81a1.47,1.47,0,0,1,.676,1.146" transform="translate(-10.146 -31.696)" fill="#95c11f"/>
      <path id="Trazado_162450" data-name="Trazado 162450" d="M31.728,88.683c0,.417-.3.58-.676.365l-1.4-.81a1.469,1.469,0,0,1-.676-1.145c0-.417.3-.58.676-.365l1.4.81a1.47,1.47,0,0,1,.676,1.146" transform="translate(-10.146 -30.34)" fill="#878787"/>
      <path id="Trazado_162451" data-name="Trazado 162451" d="M29.5,84.6l-.526-.3V83.294l.526.3Z" transform="translate(-10.146 -29.171)" fill="#f9b233"/>
      <path id="Trazado_162452" data-name="Trazado 162452" d="M31.214,85.6l-.526-.3V84.285l.526.3Z" transform="translate(-10.748 -29.518)" fill="#fff"/>
      <path id="Trazado_162453" data-name="Trazado 162453" d="M32.929,86.586l-.526-.3V85.275l.526.3Z" transform="translate(-11.348 -29.864)" fill="#fff"/>
      <path id="Trazado_162454" data-name="Trazado 162454" d="M43.149,112.854l-6.814-3.934V84.576L43.15,88.51Z" transform="translate(-12.725 -29.62)" fill="#1d1d1b"/>
      <path id="Trazado_162455" data-name="Trazado 162455" d="M38.186,109.369V87.711L42.6,90.256v21.659Z" transform="translate(-13.373 -30.717)" fill="#3c3c3b"/>
      <path id="Trazado_162456" data-name="Trazado 162456" d="M42.133,114.165c0,.741-.539,1.031-1.2.648a2.613,2.613,0,0,1-1.2-2.036v-9.9c0-.741.539-1.031,1.2-.648a2.614,2.614,0,0,1,1.2,2.036Z" transform="translate(-13.913 -35.743)" fill="#1d1d1b"/>
      <path id="Trazado_162457" data-name="Trazado 162457" d="M42.214,98.61c0,.417-.3.58-.676.365l-1.4-.81a1.469,1.469,0,0,1-.676-1.146c0-.417.3-.58.676-.365l1.4.81a1.47,1.47,0,0,1,.676,1.146" transform="translate(-13.819 -33.816)" fill="#95c11f"/>
      <path id="Trazado_162458" data-name="Trazado 162458" d="M42.214,94.737c0,.417-.3.58-.676.365l-1.4-.81a1.469,1.469,0,0,1-.676-1.145c0-.417.3-.58.676-.365l1.4.81a1.47,1.47,0,0,1,.676,1.146" transform="translate(-13.819 -32.46)" fill="#878787"/>
      <path id="Trazado_162459" data-name="Trazado 162459" d="M39.984,90.659l-.526-.3V89.348l.526.3Z" transform="translate(-13.819 -31.291)" fill="#f9b233"/>
      <path id="Trazado_162460" data-name="Trazado 162460" d="M41.7,91.649l-.526-.3V90.339l.526.3Z" transform="translate(-14.42 -31.638)" fill="#fff"/>
      <path id="Trazado_162461" data-name="Trazado 162461" d="M43.416,92.64l-.526-.3V91.329l.526.3Z" transform="translate(-15.02 -31.985)" fill="#fff"/>
      <path id="Trazado_162462" data-name="Trazado 162462" d="M53.635,118.908l-6.814-3.934V90.63l6.814,3.934Z" transform="translate(-16.398 -31.74)" fill="#1d1d1b"/>
      <path id="Trazado_162463" data-name="Trazado 162463" d="M48.672,115.423V93.765l4.409,2.545v21.659Z" transform="translate(-17.046 -32.838)" fill="#3c3c3b"/>
      <path id="Trazado_162464" data-name="Trazado 162464" d="M52.62,120.219c0,.741-.539,1.032-1.2.648a2.612,2.612,0,0,1-1.2-2.036v-9.9c0-.741.538-1.032,1.2-.648a2.615,2.615,0,0,1,1.2,2.036Z" transform="translate(-17.586 -37.863)" fill="#1d1d1b"/>
      <path id="Trazado_162465" data-name="Trazado 162465" d="M52.7,104.664c0,.417-.3.58-.676.365l-1.4-.81a1.47,1.47,0,0,1-.677-1.146c0-.417.3-.58.677-.365l1.4.81a1.472,1.472,0,0,1,.676,1.146" transform="translate(-17.491 -35.937)" fill="#95c11f"/>
      <path id="Trazado_162466" data-name="Trazado 162466" d="M52.7,100.791c0,.417-.3.58-.676.365l-1.4-.81a1.468,1.468,0,0,1-.677-1.145c0-.417.3-.58.677-.365l1.4.81a1.472,1.472,0,0,1,.676,1.146" transform="translate(-17.491 -34.58)" fill="#878787"/>
      <path id="Trazado_162467" data-name="Trazado 162467" d="M50.471,96.713l-.526-.3V95.4l.526.3Z" transform="translate(-17.491 -33.411)" fill="#f9b233"/>
      <path id="Trazado_162468" data-name="Trazado 162468" d="M52.187,97.7l-.526-.3V96.393l.526.3Z" transform="translate(-18.092 -33.758)" fill="#fff"/>
      <path id="Trazado_162469" data-name="Trazado 162469" d="M53.9,98.694l-.526-.3V97.383l.526.3Z" transform="translate(-18.693 -34.105)" fill="#fff"/>
      <path id="Trazado_162470" data-name="Trazado 162470" d="M64.122,124.962l-6.814-3.934V96.684l6.814,3.934Z" transform="translate(-20.07 -33.86)" fill="#1d1d1b"/>
      <path id="Trazado_162471" data-name="Trazado 162471" d="M59.158,121.477V99.819l4.409,2.545v21.659Z" transform="translate(-20.718 -34.958)" fill="#3c3c3b"/>
      <path id="Trazado_162472" data-name="Trazado 162472" d="M63.106,126.273c0,.741-.539,1.032-1.2.648a2.613,2.613,0,0,1-1.2-2.036v-9.9c0-.741.539-1.032,1.2-.648a2.615,2.615,0,0,1,1.2,2.036Z" transform="translate(-21.258 -39.983)" fill="#1d1d1b"/>
      <path id="Trazado_162473" data-name="Trazado 162473" d="M63.187,110.718c0,.417-.3.58-.676.365l-1.4-.81a1.469,1.469,0,0,1-.676-1.145c0-.417.3-.58.676-.365l1.4.81a1.47,1.47,0,0,1,.676,1.146" transform="translate(-21.164 -38.057)" fill="#95c11f"/>
      <path id="Trazado_162474" data-name="Trazado 162474" d="M63.187,106.845c0,.417-.3.58-.676.365l-1.4-.81a1.469,1.469,0,0,1-.676-1.145c0-.417.3-.58.676-.365l1.4.81a1.47,1.47,0,0,1,.676,1.146" transform="translate(-21.164 -36.7)" fill="#878787"/>
      <path id="Trazado_162475" data-name="Trazado 162475" d="M60.957,102.767l-.526-.3v-1.007l.526.3Z" transform="translate(-21.164 -35.531)" fill="#f9b233"/>
      <path id="Trazado_162476" data-name="Trazado 162476" d="M62.673,103.758l-.526-.3v-1.007l.526.3Z" transform="translate(-21.765 -35.878)" fill="#fff"/>
      <path id="Trazado_162477" data-name="Trazado 162477" d="M64.388,104.748l-.526-.3v-1.007l.526.3Z" transform="translate(-22.365 -36.225)" fill="#fff"/>
      <path id="Trazado_162478" data-name="Trazado 162478" d="M21.645,117.468l-4.51-2.6v-1.94l4.509,2.6Z" transform="translate(-6.001 -39.548)" fill="#e94e1b"/>
      <path id="Trazado_162479" data-name="Trazado 162479" d="M32.132,123.522l-4.51-2.6v-1.94l4.509,2.6Z" transform="translate(-9.674 -41.668)" fill="#575756"/>
      <path id="Trazado_162480" data-name="Trazado 162480" d="M44.1,130.433l-1.754-1.012v-1.94l1.754,1.012Z" transform="translate(-14.831 -44.646)" fill="#95c11f"/>
      <path id="Trazado_162481" data-name="Trazado 162481" d="M53.1,135.63l-4.509-2.6v-1.939l4.509,2.6Z" transform="translate(-17.019 -45.908)" fill="#575756"/>
      <path id="Trazado_162482" data-name="Trazado 162482" d="M63.591,141.684l-4.509-2.6v-1.94l4.509,2.6Z" transform="translate(-20.691 -48.029)" fill="#575756"/>
      <path id="Trazado_162483" data-name="Trazado 162483" d="M39.913,128.014l-1.8-1.042v-1.939l1.8,1.042Z" transform="translate(-13.346 -43.788)" fill="#fff"/>
      <path id="Trazado_162484" data-name="Trazado 162484" d="M6.912,55.686l87.376,50.448-3.615,2.087L3.3,57.774Z" transform="translate(-1.154 -19.502)" fill="#706f6f"/>
      <path id="Trazado_162485" data-name="Trazado 162485" d="M141.382,168.113V133.324l-3.615,2.087V170.2Z" transform="translate(-48.247 -46.692)" fill="#575756"/>
      <path id="Trazado_162486" data-name="Trazado 162486" d="M114.916,32.443a5.276,5.276,0,0,1-2.728,3.166L72.136,58.732a15.022,15.022,0,0,1-13.6,0L40.92,48.565A5.287,5.287,0,0,1,38.2,45.4c-.4-1.663.508-3.41,2.721-4.69L80.973,17.586a15.021,15.021,0,0,1,13.6,0l17.612,10.166c2.213,1.281,3.124,3.027,2.728,4.69" transform="translate(-13.346 -5.589)" fill="#3c3c3b"/>
      <path id="Trazado_162487" data-name="Trazado 162487" d="M114.964,33.264a5.276,5.276,0,0,1-2.728,3.166L72.184,59.553a15.022,15.022,0,0,1-13.6,0L40.969,49.386a5.287,5.287,0,0,1-2.721-3.166,5.288,5.288,0,0,1,2.721-3.166L81.022,19.931a15.021,15.021,0,0,1,13.6,0L112.237,30.1a5.273,5.273,0,0,1,2.728,3.166" transform="translate(-13.395 -6.41)" fill="#706f6f"/>
      <path id="Trazado_162488" data-name="Trazado 162488" d="M105.456,25.615a.7.7,0,0,0,0,1.333l20.885,12.059a2.555,2.555,0,0,0,2.309,0,.7.7,0,0,0,0-1.334L107.766,25.615a2.552,2.552,0,0,0-2.31,0" transform="translate(-36.764 -8.874)" fill="#1d1d1b"/>
      <path id="Trazado_162489" data-name="Trazado 162489" d="M98.5,29.631a.7.7,0,0,0,0,1.333l20.885,12.059a2.555,2.555,0,0,0,2.309,0,.7.7,0,0,0,0-1.334L100.811,29.631a2.552,2.552,0,0,0-2.31,0" transform="translate(-34.329 -10.28)" fill="#1d1d1b"/>
      <path id="Trazado_162490" data-name="Trazado 162490" d="M91.545,33.647a.7.7,0,0,0,0,1.333L112.43,47.039a2.556,2.556,0,0,0,2.31,0,.7.7,0,0,0,0-1.334L93.855,33.647a2.552,2.552,0,0,0-2.31,0" transform="translate(-31.893 -11.687)" fill="#1d1d1b"/>
      <path id="Trazado_162491" data-name="Trazado 162491" d="M84.59,37.663a.7.7,0,0,0,0,1.333l20.885,12.059a2.556,2.556,0,0,0,2.31,0,.7.7,0,0,0,0-1.334L86.9,37.663a2.552,2.552,0,0,0-2.31,0" transform="translate(-29.457 -13.093)" fill="#1d1d1b"/>
      <path id="Trazado_162492" data-name="Trazado 162492" d="M77.635,41.678a.7.7,0,0,0,0,1.333L98.52,55.07a2.556,2.556,0,0,0,2.31,0,.7.7,0,0,0,0-1.334L79.945,41.678a2.552,2.552,0,0,0-2.31,0" transform="translate(-27.021 -14.499)" fill="#1d1d1b"/>
      <path id="Trazado_162493" data-name="Trazado 162493" d="M70.68,45.694a.7.7,0,0,0,0,1.333L91.564,59.086a2.556,2.556,0,0,0,2.31,0,.7.7,0,0,0,0-1.334L72.989,45.694a2.551,2.551,0,0,0-2.309,0" transform="translate(-24.585 -15.906)" fill="#1d1d1b"/>
      <path id="Trazado_162494" data-name="Trazado 162494" d="M63.724,49.71a.7.7,0,0,0,0,1.333L84.609,63.1a2.556,2.556,0,0,0,2.31,0,.7.7,0,0,0,0-1.334L66.034,49.71a2.552,2.552,0,0,0-2.31,0" transform="translate(-22.149 -17.312)" fill="#1d1d1b"/>
      <path id="Trazado_162495" data-name="Trazado 162495" d="M56.769,53.726a.7.7,0,0,0,0,1.333L77.654,67.118a2.556,2.556,0,0,0,2.31,0,.7.7,0,0,0,0-1.334L59.079,53.726a2.552,2.552,0,0,0-2.31,0" transform="translate(-19.714 -18.719)" fill="#1d1d1b"/>
      <path id="Trazado_162496" data-name="Trazado 162496" d="M175.938,67.915a5.273,5.273,0,0,1-2.728,3.166L133.158,94.2a15.018,15.018,0,0,1-13.6,0L101.942,84.037a5.289,5.289,0,0,1-2.721-3.166c-.4-1.663.508-3.41,2.721-4.69l40.053-23.123a15.021,15.021,0,0,1,13.6,0L173.21,63.224c2.213,1.28,3.124,3.027,2.728,4.69" transform="translate(-34.717 -18.012)" fill="#3c3c3b"/>
      <path id="Trazado_162497" data-name="Trazado 162497" d="M175.986,68.736a5.273,5.273,0,0,1-2.728,3.166L133.206,95.024a15.018,15.018,0,0,1-13.6,0L101.991,84.858a5.289,5.289,0,0,1-2.721-3.166,5.288,5.288,0,0,1,2.721-3.166L142.044,55.4a15.021,15.021,0,0,1,13.6,0l17.612,10.166a5.276,5.276,0,0,1,2.728,3.166" transform="translate(-34.766 -18.833)" fill="#706f6f"/>
      <path id="Trazado_162498" data-name="Trazado 162498" d="M166.478,61.087a.7.7,0,0,0,0,1.333l20.885,12.058a2.552,2.552,0,0,0,2.31,0,.7.7,0,0,0,0-1.333L168.788,61.087a2.552,2.552,0,0,0-2.31,0" transform="translate(-58.135 -21.297)" fill="#1d1d1b"/>
      <path id="Trazado_162499" data-name="Trazado 162499" d="M159.522,65.1a.7.7,0,0,0,0,1.333l20.885,12.058a2.552,2.552,0,0,0,2.31,0,.7.7,0,0,0,0-1.333L161.832,65.1a2.552,2.552,0,0,0-2.31,0" transform="translate(-55.699 -22.703)" fill="#1d1d1b"/>
      <path id="Trazado_162500" data-name="Trazado 162500" d="M152.567,69.118a.7.7,0,0,0,0,1.333L173.452,82.51a2.551,2.551,0,0,0,2.309,0,.7.7,0,0,0,0-1.333L154.877,69.118a2.552,2.552,0,0,0-2.31,0" transform="translate(-53.263 -24.109)" fill="#1d1d1b"/>
      <path id="Trazado_162501" data-name="Trazado 162501" d="M145.612,73.134a.7.7,0,0,0,0,1.333L166.5,86.526a2.552,2.552,0,0,0,2.31,0,.7.7,0,0,0,0-1.333L147.922,73.134a2.552,2.552,0,0,0-2.31,0" transform="translate(-50.828 -25.516)" fill="#1d1d1b"/>
      <path id="Trazado_162502" data-name="Trazado 162502" d="M138.656,77.15a.7.7,0,0,0,0,1.333l20.885,12.058a2.552,2.552,0,0,0,2.31,0,.7.7,0,0,0,0-1.333L140.966,77.15a2.552,2.552,0,0,0-2.31,0" transform="translate(-48.392 -26.922)" fill="#1d1d1b"/>
      <path id="Trazado_162503" data-name="Trazado 162503" d="M131.7,81.166a.7.7,0,0,0,0,1.333l20.885,12.058a2.551,2.551,0,0,0,2.309,0,.7.7,0,0,0,0-1.333L134.011,81.166a2.552,2.552,0,0,0-2.31,0" transform="translate(-45.956 -28.329)" fill="#1d1d1b"/>
      <path id="Trazado_162504" data-name="Trazado 162504" d="M124.746,85.181a.7.7,0,0,0,0,1.333l20.885,12.058a2.551,2.551,0,0,0,2.309,0,.7.7,0,0,0,0-1.333L127.056,85.181a2.552,2.552,0,0,0-2.31,0" transform="translate(-43.52 -29.735)" fill="#1d1d1b"/>
      <path id="Trazado_162505" data-name="Trazado 162505" d="M117.791,89.2a.7.7,0,0,0,0,1.333l20.885,12.058a2.552,2.552,0,0,0,2.31,0,.7.7,0,0,0,0-1.333L120.1,89.2a2.552,2.552,0,0,0-2.31,0" transform="translate(-41.085 -31.141)" fill="#1d1d1b"/>
      <path id="Trazado_162506" data-name="Trazado 162506" d="M128.671,176.127l-1.169.675a1.344,1.344,0,0,1-1.355.134l2.567,1.492a1.345,1.345,0,0,0,1.355-.134l1.168-.675Z" transform="translate(-44.178 -61.682)" fill="#575756"/>
      <path id="Trazado_162507" data-name="Trazado 162507" d="M127.409,138.71l-1.029.594a8.019,8.019,0,0,0-3.639,6.3l.051,17.772a2.563,2.563,0,0,0,1.067,2.348l2.568,1.492a2.562,2.562,0,0,1-1.068-2.348l-.051-17.772a8.019,8.019,0,0,1,3.639-6.3l1.029-.594Z" transform="translate(-42.985 -48.578)" fill="#9d9d9c"/>
      <path id="Trazado_162508" data-name="Trazado 162508" d="M131.36,141.006l.005,1.857-1.169.675a4.167,4.167,0,0,0-1.895,3.276l.051,18.1c0,1.2.855,1.688,1.907,1.081l1.169-.675.005,1.858-1.029.594c-2.018,1.165-3.656.224-3.664-2.094l-.05-17.772a8.019,8.019,0,0,1,3.639-6.3Z" transform="translate(-44.369 -49.382)" fill="#706f6f"/>
      <path id="Trazado_162509" data-name="Trazado 162509" d="M5.931,104.372l-1.169.674a1.344,1.344,0,0,1-1.355.135l2.567,1.492a1.345,1.345,0,0,0,1.355-.134l1.168-.675Z" transform="translate(-1.193 -36.552)" fill="#575756"/>
      <path id="Trazado_162510" data-name="Trazado 162510" d="M4.669,66.955l-1.029.594A8.019,8.019,0,0,0,0,73.853L.051,91.625a2.563,2.563,0,0,0,1.068,2.348l2.567,1.492a2.562,2.562,0,0,1-1.068-2.348L2.567,75.345a8.016,8.016,0,0,1,3.64-6.3l1.029-.595Z" transform="translate(0 -23.448)" fill="#9d9d9c"/>
      <path id="Trazado_162511" data-name="Trazado 162511" d="M8.62,69.251l.005,1.857-1.168.675a4.166,4.166,0,0,0-1.9,3.276l.051,18.1c0,1.2.855,1.688,1.908,1.081l1.168-.675.005,1.857-1.029.595C5.647,97.181,4.008,96.24,4,93.921L3.951,76.149a8.019,8.019,0,0,1,3.639-6.3Z" transform="translate(-1.384 -24.253)" fill="#706f6f"/>
    </g>
  </g>
</svg>
