<svg xmlns="http://www.w3.org/2000/svg" xmlns:xlink="http://www.w3.org/1999/xlink" width="270" height="228.051" viewBox="0 0 270 228.051">
  <defs>
    <clipPath id="clip-path">
      <rect id="Rectángulo_10481" data-name="Rectángulo 10481" width="270" height="227.135" fill="#e8cef6"/>
    </clipPath>
  </defs>
  <g id="Grupo_90361" data-name="Grupo 90361" transform="translate(-972.5 -2384.083)">
    <g id="Grupo_88459" data-name="Grupo 88459" transform="translate(972.5 2385)">
      <g id="Grupo_88457" data-name="Grupo 88457" clip-path="url(#clip-path)">
        <path id="Trazado_157508" data-name="Trazado 157508" d="M252.687,44.083A105.09,105.09,0,0,1,268.43,83.5c9.959,56.849-28.839,102.649-77.507,125.748-25.215,11.968-53.1,18.983-80.982,17.752S54.215,215.93,33.34,197.4-.833,151.377.041,123.479s16.816-55.4,41.717-68.013C63.3,44.561,88.983,45.094,111.264,35.8A122.718,122.718,0,0,0,139.637,19.03c18.558-14.5,37.638-24.3,61.419-15.97,21.287,7.46,39.353,22.326,51.631,41.023" transform="translate(0 0)" fill="#e8cef6"/>
      </g>
    </g>
    <g id="Grupo_86732" data-name="Grupo 86732" transform="translate(124.549 2219.55)">
      <g id="Grupo_86718" data-name="Grupo 86718" transform="translate(940.198 205.073)">
        <g id="Grupo_86717" data-name="Grupo 86717">
          <path id="Trazado_152269" data-name="Trazado 152269" d="M1235.558,497.853H1109.5l11.194-76.892h126.056Z" transform="translate(-1109.502 -411.861)" fill="#e8e8e8"/>
          <path id="Trazado_152270" data-name="Trazado 152270" d="M1271.872,400.688H1145.817l1.38-9.414h126.056Z" transform="translate(-1134.685 -391.274)" fill="#e8e8e8"/>
          <g id="Grupo_86716" data-name="Grupo 86716" transform="translate(19.962 3.093)">
            <path id="Trazado_152271" data-name="Trazado 152271" d="M1177.868,402.978a1.93,1.93,0,0,1-1.848,1.614,1.364,1.364,0,0,1-1.38-1.614,1.931,1.931,0,0,1,1.847-1.614A1.364,1.364,0,0,1,1177.868,402.978Z" transform="translate(-1174.624 -401.364)" fill="#e8e8e8"/>
            <path id="Trazado_152272" data-name="Trazado 152272" d="M1199.931,402.978a1.93,1.93,0,0,1-1.848,1.614,1.364,1.364,0,0,1-1.38-1.614,1.931,1.931,0,0,1,1.848-1.614A1.364,1.364,0,0,1,1199.931,402.978Z" transform="translate(-1189.923 -401.364)" fill="#e8e8e8"/>
            <path id="Trazado_152273" data-name="Trazado 152273" d="M1221.995,402.978a1.931,1.931,0,0,1-1.848,1.614,1.364,1.364,0,0,1-1.38-1.614,1.931,1.931,0,0,1,1.848-1.614A1.364,1.364,0,0,1,1221.995,402.978Z" transform="translate(-1205.224 -401.364)" fill="#e8e8e8"/>
          </g>
        </g>
      </g>
      <g id="Grupo_86720" data-name="Grupo 86720" transform="translate(919.554 187.548)">
        <path id="Trazado_152274" data-name="Trazado 152274" d="M1157.727,426.772H1019.7l12.257-84.194h138.027Z" transform="translate(-1019.699 -332.614)" fill="#9114d4"/>
        <path id="Trazado_152275" data-name="Trazado 152275" d="M1197.49,320.38H1059.462l1.511-10.308H1199Z" transform="translate(-1047.273 -310.072)" fill="#69039f"/>
        <g id="Grupo_86719" data-name="Grupo 86719" transform="translate(21.858 3.387)">
          <path id="Trazado_152276" data-name="Trazado 152276" d="M1094.558,322.888a2.114,2.114,0,0,1-2.023,1.767,1.493,1.493,0,0,1-1.511-1.767,2.114,2.114,0,0,1,2.023-1.767A1.493,1.493,0,0,1,1094.558,322.888Z" transform="translate(-1091.005 -321.121)" fill="#fff"/>
          <path id="Trazado_152277" data-name="Trazado 152277" d="M1118.717,322.888a2.114,2.114,0,0,1-2.023,1.767,1.493,1.493,0,0,1-1.511-1.767,2.113,2.113,0,0,1,2.023-1.767A1.493,1.493,0,0,1,1118.717,322.888Z" transform="translate(-1107.759 -321.121)" fill="#fff"/>
          <path id="Trazado_152278" data-name="Trazado 152278" d="M1142.875,322.888a2.114,2.114,0,0,1-2.023,1.767,1.493,1.493,0,0,1-1.511-1.767,2.114,2.114,0,0,1,2.023-1.767A1.493,1.493,0,0,1,1142.875,322.888Z" transform="translate(-1124.511 -321.121)" fill="#fff"/>
        </g>
      </g>
      <g id="Grupo_86721" data-name="Grupo 86721" transform="translate(946.517 209.174)">
        <path id="Trazado_152279" data-name="Trazado 152279" d="M1107.662,392.434l.176-1.258,7.026-2.591-.2,1.453-3.033,1.018-2.122.719-.009.06,1.922.719,2.747,1.018-.2,1.453Z" transform="translate(-1107.662 -386.144)" fill="#aa91c4"/>
        <path id="Trazado_152280" data-name="Trazado 152280" d="M1133.885,380.622h1.168l-5.312,13.029h-1.168Z" transform="translate(-1122.163 -380.622)" fill="#aa91c4"/>
        <path id="Trazado_152281" data-name="Trazado 152281" d="M1148.55,393.572l3.033-1.018,2.122-.719.008-.06-1.921-.719-2.748-1.018.2-1.453,6.3,2.591-.176,1.258-7.026,2.591Z" transform="translate(-1135.876 -386.144)" fill="#aa91c4"/>
      </g>
      <g id="Grupo_86722" data-name="Grupo 86722" transform="translate(940.281 260.283)">
        <path id="Trazado_152282" data-name="Trazado 152282" d="M1087.319,559.166l.176-1.258,7.027-2.591-.2,1.452-3.033,1.018-2.122.719-.008.06,1.921.719,2.748,1.018-.2,1.453Z" transform="translate(-1087.319 -552.876)" fill="#aa91c4"/>
        <path id="Trazado_152283" data-name="Trazado 152283" d="M1113.542,547.353h1.168l-5.312,13.029h-1.168Z" transform="translate(-1101.82 -547.353)" fill="#aa91c4"/>
        <path id="Trazado_152284" data-name="Trazado 152284" d="M1128.207,560.3l3.033-1.018,2.122-.719.008-.06-1.921-.719-2.748-1.018.2-1.452,6.3,2.591-.176,1.258L1128,561.756Z" transform="translate(-1115.533 -552.876)" fill="#aa91c4"/>
      </g>
      <line id="Línea_259" data-name="Línea 259" x2="47.497" transform="translate(999.21 229.476)" fill="none" stroke="#ffce57" stroke-linecap="round" stroke-linejoin="round" stroke-width="3.583"/>
      <line id="Línea_260" data-name="Línea 260" x2="17.549" transform="translate(971.742 229.476)" fill="none" stroke="#ffce57" stroke-linecap="round" stroke-linejoin="round" stroke-width="3.583"/>
      <line id="Línea_261" data-name="Línea 261" x2="33.408" transform="translate(962.676 251.548)" fill="none" stroke="#9664f5" stroke-linecap="round" stroke-linejoin="round" stroke-width="3.583"/>
      <line id="Línea_262" data-name="Línea 262" x2="7.95" transform="translate(947.25 251.548)" fill="none" stroke="#9664f5" stroke-linecap="round" stroke-linejoin="round" stroke-width="3.385"/>
      <line id="Línea_263" data-name="Línea 263" x2="35.636" transform="translate(1008.02 251.548)" fill="none" stroke="#9664f5" stroke-linecap="round" stroke-linejoin="round" stroke-width="3.583"/>
      <line id="Línea_264" data-name="Línea 264" x2="18.869" transform="translate(989.545 240.803)" fill="none" stroke="#ffce57" stroke-linecap="round" stroke-linejoin="round" stroke-width="3.583"/>
      <line id="Línea_265" data-name="Línea 265" x2="10.578" transform="translate(966.927 240.803)" fill="none" stroke="#ffce57" stroke-linecap="round" stroke-linejoin="round" stroke-width="3.583"/>
      <line id="Línea_266" data-name="Línea 266" x2="20.034" transform="translate(1025.088 240.803)" fill="none" stroke="#cfd6e6" stroke-linecap="round" stroke-linejoin="round" stroke-width="3.583"/>
      <line id="Línea_267" data-name="Línea 267" x2="18.836" transform="translate(944.557 229.476)" fill="none" stroke="#ffce57" stroke-linecap="round" stroke-linejoin="round" stroke-width="3.385"/>
      <circle id="Elipse_8346" data-name="Elipse 8346" cx="2.447" cy="2.447" r="2.447" transform="translate(900.063 202.666)" fill="none" stroke="#261936" stroke-linecap="round" stroke-linejoin="round" stroke-width="1.834"/>
      <circle id="Elipse_8347" data-name="Elipse 8347" cx="2.447" cy="2.447" r="2.447" transform="translate(1063.996 165.45)" fill="none" stroke="#261936" stroke-linecap="round" stroke-linejoin="round" stroke-width="1.834"/>
      <circle id="Elipse_8348" data-name="Elipse 8348" cx="2.447" cy="2.447" r="2.447" transform="translate(1013.824 301.559)" fill="none" stroke="#261936" stroke-linecap="round" stroke-linejoin="round" stroke-width="1.834"/>
      <g id="Grupo_86723" data-name="Grupo 86723" transform="translate(913.455 199.954)">
        <ellipse id="Elipse_8349" data-name="Elipse 8349" cx="10.628" cy="9.388" rx="10.628" ry="9.388" transform="matrix(0.729, -0.685, 0.685, 0.729, 0, 14.558)" fill="#ffce57"/>
        <path id="Trazado_152285" data-name="Trazado 152285" d="M1034.452,390.968l3,3.86,4.456-5.46" transform="translate(-1023.831 -377.467)" fill="none" stroke="#fff" stroke-linecap="round" stroke-linejoin="round" stroke-width="2.597"/>
      </g>
      <g id="Grupo_86724" data-name="Grupo 86724" transform="translate(980.109 206.158)">
        <path id="Trazado_152286" data-name="Trazado 152286" d="M1220.413,372.353a1.942,1.942,0,0,1-1.839,1.571,1.29,1.29,0,0,1-1.3-1.571,1.942,1.942,0,0,1,1.839-1.571A1.29,1.29,0,0,1,1220.413,372.353Z" transform="translate(-1217.248 -370.782)" fill="#fff"/>
        <path id="Trazado_152287" data-name="Trazado 152287" d="M1241.888,372.353a1.942,1.942,0,0,1-1.839,1.571,1.289,1.289,0,0,1-1.3-1.571,1.941,1.941,0,0,1,1.839-1.571A1.289,1.289,0,0,1,1241.888,372.353Z" transform="translate(-1232.14 -370.782)" fill="#fff"/>
        <path id="Trazado_152288" data-name="Trazado 152288" d="M1263.362,372.353a1.942,1.942,0,0,1-1.839,1.571,1.29,1.29,0,0,1-1.3-1.571,1.942,1.942,0,0,1,1.839-1.571A1.29,1.29,0,0,1,1263.362,372.353Z" transform="translate(-1247.032 -370.782)" fill="#fff"/>
      </g>
      <path id="Trazado_152289" data-name="Trazado 152289" d="M1147.74,258.5h-83.91a6.283,6.283,0,0,1-6.265-6.264h0a6.283,6.283,0,0,1,6.265-6.265h83.91a6.283,6.283,0,0,1,6.265,6.265h0A6.283,6.283,0,0,1,1147.74,258.5Z" transform="translate(-126.404 -78.069)" fill="#d07efc"/>
      <g id="Grupo_86725" data-name="Grupo 86725" transform="translate(937.005 170.337)">
        <path id="Trazado_152290" data-name="Trazado 152290" d="M1082.671,256.833a3.361,3.361,0,0,1-3.312,2.907,2.621,2.621,0,0,1-2.712-2.907,3.361,3.361,0,0,1,3.312-2.907A2.622,2.622,0,0,1,1082.671,256.833Z" transform="translate(-1076.632 -253.926)" fill="none" stroke="#fff" stroke-linecap="round" stroke-linejoin="round" stroke-width="3.137"/>
        <line id="Línea_268" data-name="Línea 268" x1="3.399" y1="2.757" transform="translate(5.02 4.892)" fill="none" stroke="#fff" stroke-linecap="round" stroke-linejoin="round" stroke-width="3.137"/>
      </g>
      <g id="Grupo_86728" data-name="Grupo 86728" transform="translate(979.473 220.803)">
        <path id="Trazado_152291" data-name="Trazado 152291" d="M1365.605,591.7c-2.352.708-3.881.48-5.458-1.057l-3.575-8.148,2.3-1.1,6.136,7.276Z" transform="translate(-1313.228 -531.48)" fill="#fca78e" fill-rule="evenodd"/>
        <path id="Trazado_152292" data-name="Trazado 152292" d="M1353.121,575.943l-1.367-1.873a1.936,1.936,0,0,0-1.123-.744l-1.828-.428a.936.936,0,0,0-1.142,1.032h0l1.85,2.256a2.915,2.915,0,0,0,1.733.978l1.176.217Z" transform="translate(-1307.043 -525.571)" fill="#fca78e"/>
        <path id="Trazado_152293" data-name="Trazado 152293" d="M1377.363,569.359c-1.292.215-1.726-1.936-1.193-3.133l3.563-9.19c.972-2.447,3.157-3.96,4.592-3.18h0c.566.307.641,1.3.17,2.233l-5.472,15.045Z" transform="translate(-1326.664 -512.24)" fill="#fca78e" fill-rule="evenodd"/>
        <path id="Trazado_152294" data-name="Trazado 152294" d="M1365.592,824.553c0,.841,9.147,1.522,20.43,1.522s20.431-.681,20.431-1.522-9.147-1.522-20.431-1.522S1365.592,823.712,1365.592,824.553Z" transform="translate(-1319.483 -699.047)" fill="#ebe8f2" fill-rule="evenodd"/>
        <path id="Trazado_152295" data-name="Trazado 152295" d="M1395.478,704.214s2.765-18.487-.805-25.8l1.949-25.079-11.689.806,7.877,50.22Z" transform="translate(-1332.895 -581.367)" fill="#d96e4e" fill-rule="evenodd"/>
        <path id="Trazado_152296" data-name="Trazado 152296" d="M1398.285,816.95l-2.32,1.69a15.9,15.9,0,0,1-2.945,1.229h0c-.248.519.237.792.648.86l7.344-.154s1.7-.352.192-3.621C1399.867,817.544,1398.634,817.967,1398.285,816.95Z" transform="translate(-1338.456 -694.83)" fill="#221f14" fill-rule="evenodd"/>
        <path id="Trazado_152297" data-name="Trazado 152297" d="M1382.28,667.247l2.7,21.239,3.557,21.292h8.554a30.071,30.071,0,0,1-.7-4.877c.094-1.175.405-12.316-2.2-17.442l.207-20.875Z" transform="translate(-1331.056 -590.555)" fill="#dacfeb" fill-rule="evenodd"/>
        <path id="Trazado_152298" data-name="Trazado 152298" d="M1412.265,687.458l.207-20.875-4.06.223-.152,15.287a33.892,33.892,0,0,0,1.064,8.524c1.388,5.562,1.162,13.315,1.084,14.284a30.1,30.1,0,0,0,.7,4.877h4.058a30.071,30.071,0,0,1-.7-4.877C1414.561,703.726,1414.872,692.584,1412.265,687.458Z" transform="translate(-1349.07 -590.555)" fill="#c4bad4" fill-rule="evenodd"/>
        <path id="Trazado_152299" data-name="Trazado 152299" d="M1430.078,702.713s1.228-18.709-2.951-26.112l-.136-25.38-11.622.815,12.053,50.823Z" transform="translate(-1354.002 -579.902)" fill="#d96e4e" fill-rule="evenodd"/>
        <path id="Trazado_152300" data-name="Trazado 152300" d="M1442.7,816.8l-2.18,1.71a14.47,14.47,0,0,1-2.843,1.244h0c-.205.525.3.8.719.87l7.331-.156s1.667-.356-.109-3.665C1444.336,817.4,1443.138,817.831,1442.7,816.8Z" transform="translate(-1369.442 -694.727)" fill="#221f14" fill-rule="evenodd"/>
        <path id="Trazado_152301" data-name="Trazado 152301" d="M1413.779,660.7l4.47,21.494,5.328,21.547h8.554a32.189,32.189,0,0,1-1.11-4.935c0-1.189-.619-12.464-3.652-17.652L1426.106,658Z" transform="translate(-1352.899 -584.603)" fill="#dacfeb" fill-rule="evenodd"/>
        <path id="Trazado_152302" data-name="Trazado 152302" d="M1399.354,612.789l-15.976,1.217c-2.6.954-1.561,15.936-1.561,15.936l10.5.487c4.881-.1,10.653,3.726,11.26-4.406C1404.277,616.727,1399.354,612.789,1399.354,612.789Z" transform="translate(-1330.593 -553.251)" fill="#dacfeb" fill-rule="evenodd"/>
        <path id="Trazado_152303" data-name="Trazado 152303" d="M1385.947,550.205l3.555-1.213,4.811-.327,6.115,2.132a4.5,4.5,0,0,1,2.228,5.579l-1.5,7c1.59,5.279,2.411,8.98,2.134,14.412-8.67,3.22-20.588,3.062-23.324-.916C1380.431,566,1381.724,557.2,1385.947,550.205Z" transform="translate(-1329.453 -508.783)" fill="#d07efc" fill-rule="evenodd"/>
        <path id="Trazado_152304" data-name="Trazado 152304" d="M1409.8,547.857s-1.922,4.759,1.344,4.968,5.055-4.738,5.055-4.738l-2.386-1.06Z" transform="translate(-1349.747 -507.647)" fill="#fca78e"/>
        <path id="Trazado_152305" data-name="Trazado 152305" d="M1446.95,571.76l-7.057-9.678c-1.731-2.31-1.413-4.944.668-5.536h0a2.477,2.477,0,0,1,2.506,1.3l7.591,11.832Z" transform="translate(-1370.232 -514.212)" fill="#fca78e" fill-rule="evenodd"/>
        <g id="Grupo_86726" data-name="Grupo 86726">
          <rect id="Rectángulo_7844" data-name="Rectángulo 7844" width="3.701" height="15.252" transform="matrix(0.674, -0.739, 0.739, 0.674, 34.834, 38.523)" fill="#2e203d"/>
          <path id="Trazado_152306" data-name="Trazado 152306" d="M1383.081,584.685h0a4.04,4.04,0,0,1-5.691.25L1354.313,563.8a4.04,4.04,0,0,1-.251-5.691h0a4.04,4.04,0,0,1,5.691-.25l23.076,21.131A4.04,4.04,0,0,1,1383.081,584.685Z" transform="translate(-1310.758 -514.432)" fill="#573d78"/>
          <path id="Trazado_152307" data-name="Trazado 152307" d="M1220.8,425.525a21.454,21.454,0,1,0,30.312-1.333A21.454,21.454,0,0,0,1220.8,425.525Zm28.838,26.409a17.649,17.649,0,1,1-1.1-24.935A17.649,17.649,0,0,1,1249.642,451.934Z" transform="translate(-1215.172 -418.56)" fill="#ab9dd4"/>
        </g>
        <path id="Trazado_152308" data-name="Trazado 152308" d="M1446.5,599.513c.952,2.036.46,3.752-1.757,5.121l-11.968,4.344.089-2.651,9.186-5.9Z" transform="translate(-1366.069 -544.045)" fill="#fca78e" fill-rule="evenodd"/>
        <path id="Trazado_152309" data-name="Trazado 152309" d="M1426.825,621.745l-1.776,1.492a1.935,1.935,0,0,0-.666,1.171l-.3,1.853a.936.936,0,0,0,1.108,1.069h0l2.126-2a2.915,2.915,0,0,0,.857-1.8l.136-1.188Z" transform="translate(-1360.035 -559.462)" fill="#fca78e"/>
        <g id="Grupo_86727" data-name="Grupo 86727" transform="translate(57.601 29.665)">
          <path id="Trazado_152310" data-name="Trazado 152310" d="M1409.422,534.243l1.355,4.619a1.6,1.6,0,0,0,1.171,1.114,1.579,1.579,0,0,0,1.533-.483l.366-.407a2.073,2.073,0,0,0,.374-2.171l-2.181-5.329-2.618,2.657Z" transform="translate(-1407.478 -526.605)" fill="#fca78e" fill-rule="evenodd"/>
          <path id="Trazado_152311" data-name="Trazado 152311" d="M1410.362,544.291l.56,1.482,1.045-1.729Z" transform="translate(-1408.13 -535.244)" fill="#ee896d" fill-rule="evenodd"/>
          <path id="Trazado_152312" data-name="Trazado 152312" d="M1408.869,524.313a1.4,1.4,0,0,0-1.122-1.618l-2.617-.465a1.472,1.472,0,0,0-1.6,1.134,15.1,15.1,0,0,0-.446,4.093,1.692,1.692,0,0,0,1.232,1.7c.8.143,3.341-.2,3.825-1.612a20.334,20.334,0,0,0,.727-3.228Z" transform="translate(-1403.081 -520.103)" fill="#fca78e" fill-rule="evenodd"/>
          <path id="Trazado_152313" data-name="Trazado 152313" d="M1413.454,524.582s-.622-3.91-1.752-5.04c-1.519-1.517-3.582-2.368-5.874-.491a9.95,9.95,0,0,0,4.089,6.34Z" transform="translate(-1404.986 -517.167)" fill="#1b2836" fill-rule="evenodd"/>
          <path id="Trazado_152314" data-name="Trazado 152314" d="M1411.355,533.258a1.046,1.046,0,0,1-1.381.521,1.071,1.071,0,0,1-.248-1.469,1.046,1.046,0,0,1,1.381-.52A1.07,1.07,0,0,1,1411.355,533.258Z" transform="translate(-1407.566 -526.672)" fill="#fca78e" fill-rule="evenodd"/>
          <path id="Trazado_152315" data-name="Trazado 152315" d="M1429.119,527.038a1.679,1.679,0,0,1,.18-1.359c1.921-3.363-3.066-5.033-4.564-5.894-1.563-.9-.148-3.6-3.347-4.287s-4.019,1.041-4.172,1.009c-.224-.047.711,2.943.711,2.943s1.593.324,1.909,3.409-.322,4.778,1.851,6.988,9.374-1.759,9.374-1.759A1.616,1.616,0,0,1,1429.119,527.038Z" transform="translate(-1412.86 -515.337)" fill="#1b2836" fill-rule="evenodd"/>
          <path id="Trazado_152316" data-name="Trazado 152316" d="M1417.566,518.547a2,2,0,0,0,1.219,2.759" transform="translate(-1412.995 -517.563)" fill="none" stroke="#fff" stroke-linecap="round" stroke-linejoin="round" stroke-width="1.387"/>
        </g>
      </g>
      <g id="Grupo_86730" data-name="Grupo 86730" transform="translate(875.452 240.369)">
        <path id="Trazado_152317" data-name="Trazado 152317" d="M1008.5,526.839c2.5,1.453,3.161,1.559,5.387.228l7.085-7.3-1.6-2.219-8.961,5.5Z" transform="translate(-967.833 -506.771)" fill="#ffc3b1" fill-rule="evenodd"/>
        <path id="Trazado_152318" data-name="Trazado 152318" d="M996.364,535.069a5.957,5.957,0,0,0,6.28-2.353l5.548-4.59-2.039-4.862a.981.981,0,0,0-1.434-.447l-10.529,6.747Z" transform="translate(-957.908 -510.317)" fill="#7ff9ff" fill-rule="evenodd"/>
        <path id="Trazado_152319" data-name="Trazado 152319" d="M921.579,826.069c-.028.941-10.293,1.7-22.927,1.7s-22.853-.763-22.825-1.7,10.293-1.7,22.927-1.7S921.607,825.128,921.579,826.069Z" transform="translate(-875.827 -719.538)" fill="#ebe8f2" fill-rule="evenodd"/>
        <path id="Trazado_152320" data-name="Trazado 152320" d="M965.6,809.357c1.6,2.048,2.872,2.568,3.54.32l-.09-4.376-3.557.05Z" transform="translate(-938.009 -706.318)" fill="#c26245" fill-rule="evenodd"/>
        <path id="Trazado_152321" data-name="Trazado 152321" d="M940.291,602.969c5.675,7.288,6.273,2.871,6.273,2.871s1.305,27.508,1.153,28.42l-.95,29.077c-.045,1.371.323,2.609-.871,2.761l-2.472.366c-1.443-8.6-8.54-15.067-5.095-28.514l-5.713-21.028C924.777,601.294,940.291,602.969,940.291,602.969Z" transform="translate(-913.674 -565.971)" fill="#ccc5d6" fill-rule="evenodd"/>
        <path id="Trazado_152322" data-name="Trazado 152322" d="M948.7,697.854l-3.133-.018c-1.891.268-.689-.981-.91-2.043-1.63-7.846-4.51-13.961-1.32-26.411l-5.713-21.028h0a3.514,3.514,0,0,1,4.175,2.184C949.507,668.807,944.736,687.073,948.7,697.854Z" transform="translate(-918.678 -597.403)" fill="#ada7b5" fill-rule="evenodd"/>
        <path id="Trazado_152323" data-name="Trazado 152323" d="M912.835,611.763l-4.383,34.169-4.438,28.732-2.891.581c-.4-10.351-5.261-18.1-.936-30.635l1.659-23.328,5.511-8.39Z" transform="translate(-891.485 -572.106)" fill="#c26245" fill-rule="evenodd"/>
        <path id="Trazado_152324" data-name="Trazado 152324" d="M913.636,613.314l-4.5,33.769-3.648,24.988a1.581,1.581,0,0,1-1.481,1.4l-5.08.151a.927.927,0,0,1-.967-.954c.043-2.2.225-5.589.228-6.874.013-6.93-1.907-9.778,1.067-19.011a8.213,8.213,0,0,0,.4-2.29l.617-22.745,6.521-7.78Z" transform="translate(-890.917 -573.181)" fill="#ccc5d6" fill-rule="evenodd"/>
        <path id="Trazado_152325" data-name="Trazado 152325" d="M909.258,816.459a19.652,19.652,0,0,1,1.24,3.766.881.881,0,0,1-.3.742,1.232,1.232,0,0,1-.829.347l-1.817.01a1.133,1.133,0,0,1-.721-.23l-.391-.314c-.651-.523-.5-1.142-.319-2.012a16.041,16.041,0,0,0,.256-1.916A2.867,2.867,0,0,1,909.258,816.459Z" transform="translate(-896.729 -713.902)" fill="#241930" fill-rule="evenodd"/>
        <path id="Trazado_152326" data-name="Trazado 152326" d="M906.723,624.01s11.832,1.278,15.851-3.934l-15.881-3.5S906.523,622.679,906.723,624.01Z" transform="translate(-897.185 -575.443)" fill="#ada7b5" fill-rule="evenodd"/>
        <path id="Trazado_152327" data-name="Trazado 152327" d="M967.449,817.556l2.458,1.892a16.47,16.47,0,0,0,3.2,1.376h0c.235.581-.331.887-.8.963l-8.211-.172s-2.23-.395-.275-4.055C965.268,818.221,966.975,818.695,967.449,817.556Z" transform="translate(-936.291 -714.816)" fill="#241930" fill-rule="evenodd"/>
        <path id="Trazado_152328" data-name="Trazado 152328" d="M943.445,487.828a2.623,2.623,0,0,0-.864-3.782c-2.37-1.75-2.207,2.953-2.131,3.005S943.445,487.828,943.445,487.828Z" transform="translate(-920.617 -483.268)" fill="#241930" fill-rule="evenodd"/>
        <path id="Trazado_152329" data-name="Trazado 152329" d="M929.124,493.4s.551,2.366,2.364,2.221,1.261-5.347,1.261-5.347Z" transform="translate(-912.787 -487.858)" fill="#241930" fill-rule="evenodd"/>
        <path id="Trazado_152330" data-name="Trazado 152330" d="M938.55,498.574s.114,2.619.209,4.788a1.555,1.555,0,0,1-.858,1.422,2,2,0,0,1-1.821.029l-.54-.268a2.018,2.018,0,0,1-1.184-1.931c.15-2.027.423-5.719.423-5.719l3.771,1.679Z" transform="translate(-916.411 -492.448)" fill="#ffc3b1" fill-rule="evenodd"/>
        <path id="Trazado_152331" data-name="Trazado 152331" d="M944.746,507.787l-.108,1.487-1.706-1.212Z" transform="translate(-922.362 -500.001)" fill="#943f25" fill-rule="evenodd"/>
        <path id="Trazado_152332" data-name="Trazado 152332" d="M932.273,488.535a1.39,1.39,0,0,1,.922-1.73l2.533-.762a1.465,1.465,0,0,1,1.713.936,15.033,15.033,0,0,1,.914,4,1.683,1.683,0,0,1-1.022,1.82c-.777.234-3.327.186-3.968-1.152a20.18,20.18,0,0,1-1.092-3.108Z" transform="translate(-914.93 -484.885)" fill="#ffc3b1" fill-rule="evenodd"/>
        <path id="Trazado_152333" data-name="Trazado 152333" d="M927.393,488.44s-.787-2.861.2-4.108c1.327-1.676,3.268-2.755,5.751-1.164,0,0,1.335.588-2.58,1.639-.5.133.549,2.461-.065,2.757a10.4,10.4,0,0,1-3.307.876Z" transform="translate(-911.38 -482.389)" fill="#241930" fill-rule="evenodd"/>
        <path id="Trazado_152334" data-name="Trazado 152334" d="M932.01,500.919a1.041,1.041,0,0,0,1.425.355,1.066,1.066,0,0,0,.075-1.481,1.041,1.041,0,0,0-1.425-.355A1.066,1.066,0,0,0,932.01,500.919Z" transform="translate(-914.608 -494.102)" fill="#ffc3b1" fill-rule="evenodd"/>
        <path id="Trazado_152335" data-name="Trazado 152335" d="M965.459,523.65c-4.647-2.481-11.031-5.384-11.031-5.384-2.326-1.344-6.262-1.336-7.056.357h0c-.313.667.906,6.24,1.881,6.678l14.61,6.051c3.175-1.035,3.366-.62,3.973-2.427A4.52,4.52,0,0,0,965.459,523.65Z" transform="translate(-925.406 -506.6)" fill="#7ff9ff" fill-rule="evenodd"/>
        <path id="Trazado_152336" data-name="Trazado 152336" d="M919.214,515.308l-4.99-1.043-4.549-.714-7.435,2.636c-1.023,6.36-2.975,3.686-2.078,6.157l-.8,1.358c-.658,15.829-1.433,18.287-1.118,24.482,9.886,3.671,25.957,1.734,29.077-2.8C926.793,532.982,924.029,523.288,919.214,515.308Z" transform="translate(-891.321 -503.999)" fill="#7ff9ff" fill-rule="evenodd"/>
        <path id="Trazado_152337" data-name="Trazado 152337" d="M934.036,513.739s2.193,5.427-1.533,5.665-5.764-5.4-5.764-5.4l2.721-1.209Z" transform="translate(-911.133 -503.473)" fill="#ffc3b1"/>
        <line id="Línea_269" data-name="Línea 269" x2="0.622" y2="2.829" transform="translate(29.177 18.033)" fill="none" stroke="#4ac1c7" stroke-linecap="round" stroke-linejoin="round" stroke-width="2"/>
        <path id="Trazado_152338" data-name="Trazado 152338" d="M908.374,592.229c.72,2.328-1.809,2.878,1.456,2.917l16.633-1.74-2.23-1.8-14.127-1.639Z" transform="translate(-898.216 -556.991)" fill="#ffc3b1" fill-rule="evenodd"/>
        <path id="Trazado_152339" data-name="Trazado 152339" d="M961.165,595.014l2.856.822a2.68,2.68,0,0,0,1.642-.021l1.98-.721c.69-.251.735-1.072.087-1.59h0l-3.62-.868a3.872,3.872,0,0,0-2.384.182l-1.223.515Z" transform="translate(-934.548 -558.766)" fill="#ffc3b1"/>
        <path id="Trazado_152340" data-name="Trazado 152340" d="M1042.456,516.314l2.732.058a2.28,2.28,0,0,0,1.5-.521l1.707-1.406a1.1,1.1,0,0,0-.152-1.808h0l-3.438.12a3.437,3.437,0,0,0-2.155.925l-1.044.947Z" transform="translate(-990.79 -503.365)" fill="#ffc3b1"/>
        <path id="Trazado_152341" data-name="Trazado 152341" d="M903.549,522.15s-3.492,1.626-3.491,6.572c0,3.625.708,13.633.858,14.273s-.574,6.962,5.195,7.079a66.513,66.513,0,0,0,12.468-.93l-.407-5.261-11.019-.855s-1.185-17.635-1.95-18.612S903.549,522.15,903.549,522.15Z" transform="translate(-892.63 -509.962)" fill="#7ff9ff" fill-rule="evenodd"/>
        <path id="Trazado_152342" data-name="Trazado 152342" d="M916.809,555.6l2.457,11.187,4.423.675" transform="translate(-904.247 -533.161)" fill="none" stroke="#4ac1c7" stroke-linecap="round" stroke-linejoin="round" stroke-width="2" fill-rule="evenodd"/>
        <g id="Grupo_86729" data-name="Grupo 86729" transform="translate(20.259 25.296)">
          <path id="Trazado_152343" data-name="Trazado 152343" d="M941.918,592.417h14.419v-1.091H943.009a1.091,1.091,0,0,0-1.091,1.091Z" transform="translate(-941.918 -583.229)" fill="#fad0b9" fill-rule="evenodd"/>
          <path id="Trazado_152344" data-name="Trazado 152344" d="M957.717,574.1H971.38l4.123-9.188H962.153a.483.483,0,0,0-.441.285Z" transform="translate(-952.874 -564.912)" fill="#fad0b9" fill-rule="evenodd"/>
          <path id="Trazado_152345" data-name="Trazado 152345" d="M959.446,574.1H973.11l3.933-8.765a.3.3,0,0,0-.274-.423H963.763a.3.3,0,0,0-.274.177Z" transform="translate(-954.073 -564.912)" fill="#191e36" fill-rule="evenodd"/>
          <path id="Trazado_152346" data-name="Trazado 152346" d="M986.762,577.74c-.162.573.281,1.038.99,1.038a1.669,1.669,0,0,0,1.579-1.038c.162-.573-.281-1.038-.99-1.038A1.669,1.669,0,0,0,986.762,577.74Z" transform="translate(-972.993 -573.088)" fill="#fff" fill-rule="evenodd"/>
        </g>
      </g>
    </g>
  </g>
</svg>
