<svg id="Grupo_88854" data-name="Grupo 88854" xmlns="http://www.w3.org/2000/svg" xmlns:xlink="http://www.w3.org/1999/xlink" width="980.781" height="321.001" viewBox="0 0 980.781 321.001">
  <defs>
    <clipPath id="clip-path">
      <rect id="Rectángulo_10820" data-name="Rectángulo 10820" width="980.781" height="321.001" fill="none"/>
    </clipPath>
    <clipPath id="clip-path-2">
      <rect id="Rectángulo_10803" data-name="Rectángulo 10803" width="89.801" height="24.723" fill="none"/>
    </clipPath>
    <clipPath id="clip-path-6">
      <rect id="Rectángulo_10811" data-name="Rectángulo 10811" width="89.801" height="24.722" fill="none"/>
    </clipPath>
    <clipPath id="clip-path-7">
      <rect id="Rectángulo_10813" data-name="Rectángulo 10813" width="93.981" height="39.444" fill="none"/>
    </clipPath>
    <clipPath id="clip-path-9">
      <rect id="Rectángulo_10817" data-name="Rectángulo 10817" width="89.805" height="24.723" fill="none"/>
    </clipPath>
  </defs>
  <path id="Trazado_157938" data-name="Trazado 157938" d="M607.64,202.6V302.777H533.77" transform="translate(-31.001 -11.767)" fill="none" stroke="#12263f" stroke-width="3"/>
  <path id="Trazado_157939" data-name="Trazado 157939" d="M542.944,296.684l1.927,2.069-10.206,9.485,10.206,9.487-1.927,2.069-12.428-11.556Z" transform="translate(-30.812 -17.231)" fill="#12263f"/>
  <line id="Línea_270" data-name="Línea 270" x2="75.512" transform="translate(379.765 25.896)" fill="none" stroke="#12263f" stroke-width="3"/>
  <path id="Trazado_157940" data-name="Trazado 157940" d="M412.356,38.337l1.927-2.069-10.206-9.485L414.283,17.3l-1.927-2.069L399.928,26.783Z" transform="translate(-23.228 -0.884)" fill="#12263f"/>
  <path id="Trazado_157941" data-name="Trazado 157941" d="M473.291,38.337l-1.927-2.069,10.206-9.485L471.363,17.3l1.927-2.069,12.428,11.556Z" transform="translate(-27.376 -0.884)" fill="#12263f"/>
  <line id="Línea_271" data-name="Línea 271" x2="75.512" transform="translate(91.451 174.212)" fill="none" stroke="#12263f" stroke-width="3"/>
  <path id="Trazado_157942" data-name="Trazado 157942" d="M106.264,195.8l1.927-2.069-10.206-9.485,10.206-9.487-1.927-2.069L93.836,184.244Z" transform="translate(-5.45 -10.03)" fill="#12263f"/>
  <path id="Trazado_157943" data-name="Trazado 157943" d="M167.2,195.8l-1.927-2.069,10.206-9.485-10.206-9.487,1.927-2.069,12.428,11.556Z" transform="translate(-9.599 -10.03)" fill="#12263f"/>
  <line id="Línea_272" data-name="Línea 272" x2="75.512" transform="translate(266.369 174.212)" fill="none" stroke="#12263f" stroke-width="3"/>
  <path id="Trazado_157944" data-name="Trazado 157944" d="M291.968,195.8l1.927-2.069-10.206-9.485,10.206-9.487-1.927-2.069L279.54,184.244Z" transform="translate(-16.235 -10.03)" fill="#12263f"/>
  <path id="Trazado_157945" data-name="Trazado 157945" d="M352.9,195.8l-1.927-2.069,10.206-9.485-10.206-9.487,1.927-2.069,12.428,11.556Z" transform="translate(-20.384 -10.03)" fill="#12263f"/>
  <line id="Línea_273" data-name="Línea 273" x2="75.512" transform="translate(432.14 174.212)" fill="none" stroke="#12263f" stroke-width="3"/>
  <path id="Trazado_157946" data-name="Trazado 157946" d="M467.96,195.8l1.927-2.069-10.206-9.485,10.206-9.487-1.927-2.069-12.428,11.556Z" transform="translate(-26.457 -10.03)" fill="#12263f"/>
  <path id="Trazado_157947" data-name="Trazado 157947" d="M528.895,195.8l-1.927-2.069,10.206-9.485-10.206-9.487,1.927-2.069,12.428,11.556Z" transform="translate(-30.606 -10.03)" fill="#12263f"/>
  <line id="Línea_274" data-name="Línea 274" x2="75.512" transform="translate(599.228 174.212)" fill="none" stroke="#12263f" stroke-width="3"/>
  <path id="Trazado_157948" data-name="Trazado 157948" d="M645.351,195.8l1.927-2.069-10.206-9.485,10.206-9.487-1.927-2.069-12.428,11.556Z" transform="translate(-36.76 -10.03)" fill="#12263f"/>
  <path id="Trazado_157949" data-name="Trazado 157949" d="M706.286,195.8l-1.927-2.069,10.206-9.485-10.206-9.487,1.927-2.069,12.428,11.556Z" transform="translate(-40.909 -10.03)" fill="#12263f"/>
  <line id="Línea_275" data-name="Línea 275" x2="75.512" transform="translate(768.283 174.212)" fill="none" stroke="#12263f" stroke-width="3"/>
  <path id="Trazado_157950" data-name="Trazado 157950" d="M824.83,195.8l1.927-2.069-10.206-9.485,10.206-9.487-1.927-2.069L812.4,184.244Z" transform="translate(-47.184 -10.03)" fill="#12263f"/>
  <path id="Trazado_157951" data-name="Trazado 157951" d="M885.764,195.8l-1.927-2.069,10.206-9.485-10.206-9.487,1.927-2.069,12.428,11.556Z" transform="translate(-51.333 -10.03)" fill="#12263f"/>
  <line id="Línea_276" data-name="Línea 276" y2="128.672" transform="translate(417.521 45.54)" fill="none" stroke="#12263f" stroke-width="3"/>
  <path id="Trazado_157952" data-name="Trazado 157952" d="M431,57.522l2.069,1.927,9.484-10.206,9.488,10.206,2.069-1.927L442.55,45.094Z" transform="translate(-25.032 -2.619)" fill="#12263f"/>
  <line id="Línea_277" data-name="Línea 277" y2="100.371" transform="translate(417.521 207.347)" fill="none" stroke="#12263f" stroke-width="3"/>
  <path id="Trazado_157953" data-name="Trazado 157953" d="M431,229.307l2.069,1.927,9.484-10.206,9.488,10.206,2.069-1.927L442.55,216.879Z" transform="translate(-25.032 -12.596)" fill="#12263f"/>
  <g id="Grupo_88853" data-name="Grupo 88853">
    <g id="Grupo_88852" data-name="Grupo 88852" clip-path="url(#clip-path)">
      <path id="Trazado_157954" data-name="Trazado 157954" d="M377.868,50.908H268.821a9.61,9.61,0,0,1-9.609-9.61V10.609A9.61,9.61,0,0,1,268.821,1H377.868a9.61,9.61,0,0,1,9.609,9.609V41.3a9.61,9.61,0,0,1-9.609,9.61" transform="translate(-15.055 -0.058)" fill="#ecc8ff"/>
      <path id="Rectángulo_10802" data-name="Rectángulo 10802" d="M10.2,0h107.86a10.2,10.2,0,0,1,10.2,10.2v29.5a10.2,10.2,0,0,1-10.2,10.2H10.2A10.2,10.2,0,0,1,0,39.7V10.2A10.2,10.2,0,0,1,10.2,0Z" transform="translate(244.158 0.942)" fill="none" stroke="#d07efc" stroke-miterlimit="10" stroke-width="2"/>
      <g id="Grupo_88827" data-name="Grupo 88827" transform="translate(267.57 17.794)" style="isolation: isolate">
        <g id="Grupo_88826" data-name="Grupo 88826">
          <g id="Grupo_88825" data-name="Grupo 88825" clip-path="url(#clip-path-2)">
            <text id="Rechazado" transform="translate(0 13.608)" fill="#12263f" font-size="16" font-family="Roboto-Bold, Roboto" font-weight="700"><tspan x="0" y="0">Rechazado</tspan></text>
          </g>
        </g>
      </g>
      <path id="Trazado_157955" data-name="Trazado 157955" d="M119.655,208.369H10.609A9.61,9.61,0,0,1,1,198.758V168.07a9.61,9.61,0,0,1,9.609-9.609H119.655a9.61,9.61,0,0,1,9.61,9.609v30.688a9.61,9.61,0,0,1-9.61,9.61" transform="translate(-0.058 -9.203)" fill="#ecc8ff"/>
      <path id="Rectángulo_10804" data-name="Rectángulo 10804" d="M10.2,0h107.86a10.2,10.2,0,0,1,10.2,10.2v29.5a10.2,10.2,0,0,1-10.2,10.2H10.2A10.2,10.2,0,0,1,0,39.7V10.2A10.2,10.2,0,0,1,10.2,0Z" transform="translate(0.942 149.258)" fill="none" stroke="#d07efc" stroke-miterlimit="10" stroke-width="2"/>
      <g id="Grupo_88830" data-name="Grupo 88830" transform="translate(24.354 166.11)" style="isolation: isolate">
        <g id="Grupo_88829" data-name="Grupo 88829">
          <g id="Grupo_88828" data-name="Grupo 88828" clip-path="url(#clip-path-2)">
            <text id="Nuevo" transform="translate(0 13.608)" fill="#12263f" font-size="16" font-family="Roboto-Bold, Roboto" font-weight="700"><tspan x="0" y="0">Nu</tspan><tspan y="0" letter-spacing="-0.006em">e</tspan><tspan y="0" letter-spacing="-0.008em">v</tspan><tspan y="0">o</tspan></text>
          </g>
        </g>
      </g>
      <path id="Trazado_157956" data-name="Trazado 157956" d="M305.359,208.369H196.313a9.61,9.61,0,0,1-9.609-9.61V168.07a9.61,9.61,0,0,1,9.609-9.609H305.359a9.61,9.61,0,0,1,9.61,9.609v30.688a9.61,9.61,0,0,1-9.61,9.61" transform="translate(-10.844 -9.203)" fill="#ecc8ff"/>
      <path id="Rectángulo_10806" data-name="Rectángulo 10806" d="M10.2,0h107.86a10.2,10.2,0,0,1,10.2,10.2v29.5a10.2,10.2,0,0,1-10.2,10.2H10.2A10.2,10.2,0,0,1,0,39.7V10.2A10.2,10.2,0,0,1,10.2,0Z" transform="translate(175.86 149.258)" fill="none" stroke="#d07efc" stroke-miterlimit="10" stroke-width="2"/>
      <g id="Grupo_88833" data-name="Grupo 88833" transform="translate(199.273 166.11)" style="isolation: isolate">
        <g id="Grupo_88832" data-name="Grupo 88832">
          <g id="Grupo_88831" data-name="Grupo 88831" clip-path="url(#clip-path-2)">
            <text id="Abierto" transform="translate(0 13.608)" fill="#12263f" font-size="16" font-family="Roboto-Bold, Roboto" font-weight="700"><tspan x="0" y="0">Abie</tspan><tspan y="0" letter-spacing="0.014em">r</tspan><tspan y="0">to</tspan></text>
          </g>
        </g>
      </g>
      <path id="Trazado_157957" data-name="Trazado 157957" d="M493.834,208.369H384.788a9.61,9.61,0,0,1-9.609-9.61V168.07a9.61,9.61,0,0,1,9.609-9.609H493.834a9.61,9.61,0,0,1,9.61,9.609v30.688a9.61,9.61,0,0,1-9.61,9.61" transform="translate(-21.79 -9.203)" fill="#ecc8ff"/>
      <path id="Rectángulo_10808" data-name="Rectángulo 10808" d="M10.2,0h107.86a10.2,10.2,0,0,1,10.2,10.2v29.5a10.2,10.2,0,0,1-10.2,10.2H10.2A10.2,10.2,0,0,1,0,39.7V10.2A10.2,10.2,0,0,1,10.2,0Z" transform="translate(353.389 149.258)" fill="none" stroke="#d07efc" stroke-miterlimit="10" stroke-width="2"/>
      <g id="Grupo_88836" data-name="Grupo 88836" transform="translate(376.801 166.11)" style="isolation: isolate">
        <g id="Grupo_88835" data-name="Grupo 88835">
          <g id="Grupo_88834" data-name="Grupo 88834" clip-path="url(#clip-path-2)">
            <text id="Asignado" transform="translate(0 13.608)" fill="#12263f" font-size="16" font-family="Roboto-Bold, Roboto" font-weight="700"><tspan x="0" y="0">Asignado</tspan></text>
          </g>
        </g>
      </g>
      <path id="Trazado_157958" data-name="Trazado 157958" d="M493.834,336.717H384.788a9.61,9.61,0,0,1-9.609-9.61V296.418a9.61,9.61,0,0,1,9.609-9.609H493.834a9.61,9.61,0,0,1,9.61,9.609v30.688a9.61,9.61,0,0,1-9.61,9.61" transform="translate(-21.79 -16.658)" fill="#ecc8ff"/>
      <path id="Rectángulo_10810" data-name="Rectángulo 10810" d="M10.2,0h107.86a10.2,10.2,0,0,1,10.2,10.2v29.5a10.2,10.2,0,0,1-10.2,10.2H10.2A10.2,10.2,0,0,1,0,39.7V10.2A10.2,10.2,0,0,1,10.2,0Z" transform="translate(353.389 270.151)" fill="none" stroke="#d07efc" stroke-miterlimit="10" stroke-width="2"/>
      <g id="Grupo_88839" data-name="Grupo 88839" transform="translate(376.801 287.003)" style="isolation: isolate">
        <g id="Grupo_88838" data-name="Grupo 88838">
          <g id="Grupo_88837" data-name="Grupo 88837" clip-path="url(#clip-path-6)">
            <text id="Reabierto" transform="translate(0 13.608)" fill="#12263f" font-size="16" font-family="Roboto-Bold, Roboto" font-weight="700"><tspan x="0" y="0">Reabie</tspan><tspan y="0" letter-spacing="0.014em">r</tspan><tspan y="0">to</tspan></text>
          </g>
        </g>
      </g>
      <path id="Trazado_157959" data-name="Trazado 157959" d="M662.763,208.369H553.717a9.61,9.61,0,0,1-9.609-9.61V168.07a9.61,9.61,0,0,1,9.609-9.609H662.763a9.61,9.61,0,0,1,9.61,9.609v30.688a9.61,9.61,0,0,1-9.61,9.61" transform="translate(-31.601 -9.203)" fill="#ecc8ff"/>
      <path id="Rectángulo_10812" data-name="Rectángulo 10812" d="M10.2,0h107.86a10.2,10.2,0,0,1,10.2,10.2v29.5a10.2,10.2,0,0,1-10.2,10.2H10.2A10.2,10.2,0,0,1,0,39.7V10.2A10.2,10.2,0,0,1,10.2,0Z" transform="translate(512.507 149.258)" fill="none" stroke="#d07efc" stroke-miterlimit="10" stroke-width="2"/>
      <g id="Grupo_88842" data-name="Grupo 88842" transform="translate(531.739 155.669)" style="isolation: isolate">
        <g id="Grupo_88841" data-name="Grupo 88841">
          <g id="Grupo_88840" data-name="Grupo 88840" clip-path="url(#clip-path-7)">
            <text id="Volver_a_" data-name="Volver a " transform="translate(16.385 13.608)" fill="#12263f" font-size="16" font-family="Roboto-Bold, Roboto" font-weight="700"><tspan x="0" y="0" letter-spacing="-0.026em">V</tspan><tspan y="0">ol</tspan><tspan y="0" letter-spacing="-0.006em">v</tspan><tspan y="0">er a </tspan></text>
            <text id="porbar" transform="translate(22.149 33.953)" fill="#12263f" font-size="16" font-family="Roboto-Bold, Roboto" font-weight="700"><tspan x="0" y="0">porbar</tspan></text>
          </g>
        </g>
      </g>
      <path id="Trazado_157960" data-name="Trazado 157960" d="M843.285,208.369H734.239a9.61,9.61,0,0,1-9.609-9.61V168.07a9.61,9.61,0,0,1,9.609-9.609H843.285a9.61,9.61,0,0,1,9.61,9.609v30.688a9.61,9.61,0,0,1-9.61,9.61" transform="translate(-42.086 -9.203)" fill="#ecc8ff"/>
      <path id="Rectángulo_10814" data-name="Rectángulo 10814" d="M10.2,0h107.86a10.2,10.2,0,0,1,10.2,10.2v29.5a10.2,10.2,0,0,1-10.2,10.2H10.2A10.2,10.2,0,0,1,0,39.7V10.2A10.2,10.2,0,0,1,10.2,0Z" transform="translate(682.544 149.258)" fill="none" stroke="#d07efc" stroke-miterlimit="10" stroke-width="2"/>
      <g id="Grupo_88845" data-name="Grupo 88845" transform="translate(705.956 166.11)" style="isolation: isolate">
        <g id="Grupo_88844" data-name="Grupo 88844">
          <g id="Grupo_88843" data-name="Grupo 88843" clip-path="url(#clip-path-2)">
            <text id="Verificado" transform="translate(-0.001 13.608)" fill="#12263f" font-size="16" font-family="Roboto-Bold, Roboto" font-weight="700"><tspan x="0" y="0" letter-spacing="-0.025em">V</tspan><tspan y="0">erificado</tspan></text>
          </g>
        </g>
      </g>
      <path id="Trazado_157961" data-name="Trazado 157961" d="M1022.737,208.369H913.691a9.61,9.61,0,0,1-9.609-9.61V168.07a9.61,9.61,0,0,1,9.609-9.609h109.045a9.61,9.61,0,0,1,9.61,9.609v30.688a9.61,9.61,0,0,1-9.61,9.61" transform="translate(-52.508 -9.203)" fill="#ecc8ff"/>
      <path id="Rectángulo_10816" data-name="Rectángulo 10816" d="M10.2,0h107.86a10.2,10.2,0,0,1,10.2,10.2v29.5a10.2,10.2,0,0,1-10.2,10.2H10.2A10.2,10.2,0,0,1,0,39.7V10.2A10.2,10.2,0,0,1,10.2,0Z" transform="translate(851.574 149.258)" fill="none" stroke="#d07efc" stroke-miterlimit="10" stroke-width="2"/>
      <g id="Grupo_88848" data-name="Grupo 88848" transform="translate(874.986 166.11)" style="isolation: isolate">
        <g id="Grupo_88847" data-name="Grupo 88847">
          <g id="Grupo_88846" data-name="Grupo 88846" clip-path="url(#clip-path-9)">
            <text id="Cerrado" transform="translate(0 13.608)" fill="#12263f" font-size="16" font-family="Roboto-Bold, Roboto" font-weight="700"><tspan x="0" y="0">Cerrado</tspan></text>
          </g>
        </g>
      </g>
      <path id="Trazado_157962" data-name="Trazado 157962" d="M610.656,50.908H501.61A9.61,9.61,0,0,1,492,41.3V10.609A9.61,9.61,0,0,1,501.61,1H610.656a9.61,9.61,0,0,1,9.61,9.609V41.3a9.61,9.61,0,0,1-9.61,9.61" transform="translate(-28.575 -0.058)" fill="#ecc8ff"/>
      <path id="Rectángulo_10818" data-name="Rectángulo 10818" d="M10.2,0h107.86a10.2,10.2,0,0,1,10.2,10.2v29.5a10.2,10.2,0,0,1-10.2,10.2H10.2A10.2,10.2,0,0,1,0,39.706V10.2A10.2,10.2,0,0,1,10.2,0Z" transform="translate(463.426 0.942)" fill="none" stroke="#d07efc" stroke-miterlimit="10" stroke-width="2"/>
      <g id="Grupo_88851" data-name="Grupo 88851" transform="translate(486.838 17.794)" style="isolation: isolate">
        <g id="Grupo_88850" data-name="Grupo 88850">
          <g id="Grupo_88849" data-name="Grupo 88849" clip-path="url(#clip-path-2)">
            <text id="Diferido" transform="translate(0 13.608)" fill="#12263f" font-size="16" font-family="Roboto-Bold, Roboto" font-weight="700"><tspan x="0" y="0">Diferido</tspan></text>
          </g>
        </g>
      </g>
    </g>
  </g>
</svg>
