<svg xmlns="http://www.w3.org/2000/svg" width="11.259" height="11.259" viewBox="0 0 11.259 11.259">
  <path id="Trazado_157643" data-name="Trazado 157643" d="M752.148,275.145a4.632,4.632,0,0,1,1.13-.491l.233-1.118,1.89-.033.272,1.109a4.63,4.63,0,0,1,1.146.451l.955-.626,1.36,1.313-.592.976a4.631,4.631,0,0,1,.491,1.13l1.118.233.033,1.89-1.109.272a4.621,4.621,0,0,1-.451,1.146l.626.955-1.312,1.36-.976-.592a4.629,4.629,0,0,1-1.13.491l-.233,1.118-1.889.033-.272-1.109a4.635,4.635,0,0,1-1.146-.451l-.955.626-1.359-1.313.592-.976a4.63,4.63,0,0,1-.491-1.13l-1.118-.233-.033-1.889,1.109-.272a4.633,4.633,0,0,1,.451-1.146l-.626-.955,1.313-1.36Z" transform="translate(-748.925 -273.503)" fill="#18b6fe"/>
</svg>
