<svg xmlns="http://www.w3.org/2000/svg" width="9.129" height="9.129" viewBox="0 0 9.129 9.129">
  <path id="Trazado_158142" data-name="Trazado 158142" d="M751.539,274.835a3.756,3.756,0,0,1,.916-.4l.189-.907,1.532-.027.22.9a3.756,3.756,0,0,1,.93.366l.774-.508,1.1,1.064-.48.791a3.752,3.752,0,0,1,.4.916l.907.189.027,1.532-.9.221a3.744,3.744,0,0,1-.366.929l.507.774-1.064,1.1-.792-.48a3.751,3.751,0,0,1-.916.4l-.189.907-1.532.027-.221-.9a3.759,3.759,0,0,1-.93-.366l-.774.508-1.1-1.064.48-.792a3.759,3.759,0,0,1-.4-.916l-.907-.189-.027-1.532.9-.221a3.759,3.759,0,0,1,.366-.93l-.507-.774,1.064-1.1Z" transform="translate(-748.925 -273.503)" fill="#856de9"/>
</svg>
